<svg xmlns="http://www.w3.org/2000/svg" width="69.563" height="91" viewBox="0 0 69.563 91">
  <path id="Trazado_197401" data-name="Trazado 197401" d="M8.125,0V-91h28a42.521,42.521,0,0,1,21.469,5.406A37.7,37.7,0,0,1,72.375-70.219a47.422,47.422,0,0,1,5.313,22.656v4.188a47.556,47.556,0,0,1-5.219,22.563A37.376,37.376,0,0,1,57.75-5.5,42.842,42.842,0,0,1,36.313,0Zm18.75-75.812v60.75h9.063q11,0,16.813-7.187t5.938-20.562v-4.812q0-13.875-5.75-21.031T36.125-75.812Z" transform="translate(-8.125 91)" fill="#12263f" opacity="0.23"/>
</svg>
