<svg xmlns="http://www.w3.org/2000/svg" width="199" height="81" viewBox="0 0 199 81">
  <g id="Grupo_171235" data-name="Grupo 171235" transform="translate(-327 -5031)">
    <path id="Trazado_205159" data-name="Trazado 205159" d="M10,0H189a10,10,0,0,1,10,10V71a10,10,0,0,1-10,10H10A10,10,0,0,1,0,71V10A10,10,0,0,1,10,0Z" transform="translate(327 5031)" fill="#a4a3ff"/>
    <path id="Trazado_205160" data-name="Trazado 205160" d="M3.524-4.746V0H1.3V-12.8H6.2A4.95,4.95,0,0,1,9.6-11.679a3.757,3.757,0,0,1,1.261,2.956,3.633,3.633,0,0,1-1.235,2.93A5.19,5.19,0,0,1,6.17-4.746Zm0-1.793H6.2A2.632,2.632,0,0,0,8.007-7.1,2.051,2.051,0,0,0,8.631-8.71,2.213,2.213,0,0,0,8-10.367,2.439,2.439,0,0,0,6.258-11H3.524ZM17.112-5.2a13.393,13.393,0,0,1,.545-3.854,10.578,10.578,0,0,1,1.6-3.261,6.351,6.351,0,0,1,2.232-2.017l.422,1.248a6.524,6.524,0,0,0-2.008,2.87A12.852,12.852,0,0,0,19.063-5.8l-.009.756a13.972,13.972,0,0,0,.751,4.75,7,7,0,0,0,2.1,3.177l-.422,1.187a6.362,6.362,0,0,1-2.237-2.026,10.577,10.577,0,0,1-1.6-3.261A13.921,13.921,0,0,1,17.112-5.2Zm13.333.642h1.591v1.714H30.445V0H28.31V-2.848H22.781l-.062-1.3,5.52-8.648h2.206Zm-5.484,0H28.31V-9.905l-.158.281Zm12.744-.5A13.224,13.224,0,0,1,37.169-1.3a10.671,10.671,0,0,1-1.626,3.3,6.367,6.367,0,0,1-2.276,2.061l-.422-1.187A6.754,6.754,0,0,0,34.932-.233,13.84,13.84,0,0,0,35.7-5.019v-.2a14.044,14.044,0,0,0-.668-4.452,7.852,7.852,0,0,0-1.916-3.221l-.272-.246.422-1.2a6.3,6.3,0,0,1,2.18,1.934,10.491,10.491,0,0,1,1.617,3.107A12.941,12.941,0,0,1,37.7-5.748ZM52.172-6.855H44.6V-8.631h7.576Zm0,3.727H44.6V-4.9h7.576Z" transform="translate(376 5078)" fill="#fff"/>
    <path id="Trazado_205162" data-name="Trazado 205162" d="M6.741,0H4.614V-10.281L1.477-9.211V-11l4.992-1.837h.272Z" transform="translate(452.452 5068)" fill="#fff"/>
    <path id="Trazado_177767" data-name="Trazado 177767" d="M-8334.53,21212.5h28.386" transform="translate(8777.451 -16139)" fill="#fff" stroke="#fff" stroke-width="1"/>
    <path id="Trazado_205161" data-name="Trazado 205161" d="M7.6-12.858v1.767H7.339a4.239,4.239,0,0,0-2.865.984A4.119,4.119,0,0,0,3.2-7.392,3.468,3.468,0,0,1,5.827-8.473,3.276,3.276,0,0,1,8.5-7.277a4.708,4.708,0,0,1,.98,3.085,4.4,4.4,0,0,1-1.147,3.16A3.959,3.959,0,0,1,5.326.176,3.867,3.867,0,0,1,2.219-1.239,5.566,5.566,0,0,1,1.028-4.948v-.729a7.832,7.832,0,0,1,1.639-5.273,5.877,5.877,0,0,1,4.715-1.907ZM5.309-6.75a2.249,2.249,0,0,0-1.288.4A2.312,2.312,0,0,0,3.164-5.3v.65a3.831,3.831,0,0,0,.6,2.263,1.823,1.823,0,0,0,1.547.839,1.8,1.8,0,0,0,1.5-.712,2.965,2.965,0,0,0,.554-1.872A3.007,3.007,0,0,0,6.8-6.021,1.793,1.793,0,0,0,5.309-6.75Z" transform="translate(452.452 5092)" fill="#fff"/>
  </g>
</svg>
