<svg xmlns="http://www.w3.org/2000/svg" width="205.903" height="190.731" viewBox="0 0 205.903 190.731">
  <g id="Grupo_165729" data-name="Grupo 165729" transform="translate(0 0.327)">
    <rect id="Rectángulo_49754" data-name="Rectángulo 49754" width="205.903" height="190.731" transform="translate(0 -0.327)" fill="none"/>
    <g id="analizar" transform="translate(32.095 29.538)">
      <g id="Grupo_165727" data-name="Grupo 165727" transform="translate(2.286 2.286)">
        <g id="Grupo_165714" data-name="Grupo 165714" transform="translate(22.857 118.857)">
          <path id="Trazado_177889" data-name="Trazado 177889" d="M12,54H48.571A18.286,18.286,0,1,1,12,54Z" transform="translate(-12 -54)" fill="#a4a3ff"/>
        </g>
        <g id="Grupo_165715" data-name="Grupo 165715" transform="translate(22.857 100.571)">
          <path id="Trazado_177890" data-name="Trazado 177890" d="M48.571,46V64.286H12V46H48.571Z" transform="translate(-12 -46)" fill="#ccd1d9"/>
        </g>
        <g id="Grupo_165716" data-name="Grupo 165716" transform="translate(0 9.143)">
          <path id="Trazado_177891" data-name="Trazado 177891" d="M84.286,47.143a41.766,41.766,0,0,0-2.1-13.006,40.008,40.008,0,0,0-4.571-9.44c-.48-.754-1.006-1.509-1.554-2.24A41.147,41.147,0,0,0,43.143,6V19.714a4.585,4.585,0,0,1-4.571,4.571H36.286v6.309a2.825,2.825,0,0,1-5.349,1.28l-3.794-7.589H8.9v.046a40.813,40.813,0,0,0-5.12,10.88A40.343,40.343,0,0,0,2,47.143,57.125,57.125,0,0,0,12.629,80.308l12.229,17.12H61.428l12.229-17.12c.571-.8,1.12-1.623,1.646-2.446a31.125,31.125,0,0,1-.16-3.291,31.917,31.917,0,0,1,8.891-22.126c.16-1.76.251-3.52.251-5.3Z" transform="translate(-2 -6)" fill="#ffde96"/>
        </g>
        <g id="Grupo_165717" data-name="Grupo 165717">
          <path id="Trazado_177892" data-name="Trazado 177892" d="M43.143,11.143V24.857a4.585,4.585,0,0,1-4.571,4.571H36.286v6.309a2.825,2.825,0,0,1-5.349,1.28l-3.794-7.589H6.571A4.585,4.585,0,0,1,2,24.857V6.571A4.585,4.585,0,0,1,6.571,2h32a4.585,4.585,0,0,1,4.571,4.571Z" transform="translate(-2 -2)" fill="#e6e9ed"/>
        </g>
        <g id="Grupo_165718" data-name="Grupo 165718" transform="translate(54.857 36.571)">
          <path id="Trazado_177893" data-name="Trazado 177893" d="M26,18h9.143V59.143H26Z" transform="translate(-26 -18)" fill="#ff8578"/>
        </g>
        <g id="Grupo_165719" data-name="Grupo 165719" transform="translate(36.571 45.714)">
          <path id="Trazado_177894" data-name="Trazado 177894" d="M18,22h9.143V54H18Z" transform="translate(-18 -22)" fill="#ff8578"/>
        </g>
        <g id="Grupo_165720" data-name="Grupo 165720" transform="translate(18.286 54.857)">
          <path id="Trazado_177895" data-name="Trazado 177895" d="M10,26h9.143V48.857H10Z" transform="translate(-10 -26)" fill="#ff8578"/>
        </g>
        <g id="Grupo_165721" data-name="Grupo 165721" transform="translate(114.286)">
          <path id="Trazado_177896" data-name="Trazado 177896" d="M63.429,2A11.443,11.443,0,1,1,52,13.429,11.433,11.433,0,0,1,63.429,2Z" transform="translate(-52 -2)" fill="#ff8578"/>
        </g>
        <g id="Grupo_165722" data-name="Grupo 165722" transform="translate(100.571 27.429)">
          <path id="Trazado_177897" data-name="Trazado 177897" d="M53.794,15.349a4.469,4.469,0,0,1,1.349,3.223,4.571,4.571,0,1,1-9.143,0,4.558,4.558,0,0,1,7.794-3.223Z" transform="translate(-46 -14)" fill="#ff826e"/>
        </g>
        <g id="Grupo_165723" data-name="Grupo 165723" transform="translate(82.286 9.143)">
          <path id="Trazado_177898" data-name="Trazado 177898" d="M44.857,6a6.857,6.857,0,1,1-5.166,11.36A6.769,6.769,0,0,1,38,12.857,6.848,6.848,0,0,1,44.857,6Z" transform="translate(-38 -6)" fill="#ff826e"/>
        </g>
        <g id="Grupo_165724" data-name="Grupo 165724" transform="translate(96 108.388)">
          <path id="Trazado_177899" data-name="Trazado 177899" d="M62.286,49.42v21.9a6.848,6.848,0,0,1-6.857,6.857H50.857A6.848,6.848,0,0,1,44,71.317V49.42a32.19,32.19,0,0,0,18.286,0Z" transform="translate(-44 -49.42)" fill="#a4a3ff"/>
        </g>
        <g id="Grupo_165725" data-name="Grupo 165725" transform="translate(73.143 45.714)">
          <path id="Trazado_177900" data-name="Trazado 177900" d="M56.857,84.674a32.066,32.066,0,0,1-22.7-27.383A31.126,31.126,0,0,1,34,54,31.968,31.968,0,1,1,56.857,84.674Z" transform="translate(-34 -22)" fill="#e6e9ed"/>
        </g>
        <g id="Grupo_165726" data-name="Grupo 165726" transform="translate(82.243 54.899)">
          <circle id="Elipse_5192" data-name="Elipse 5192" cx="22.758" cy="22.758" r="22.758" fill="#acfcff"/>
        </g>
      </g>
      <g id="Grupo_165728" data-name="Grupo 165728">
        <path id="Trazado_177901" data-name="Trazado 177901" d="M108.428,46.714a34.069,34.069,0,0,0-20.574,6.923c0-.021,0-.043,0-.066A43.715,43.715,0,0,0,81.839,31.59l5.44-4.759a8.987,8.987,0,0,0,9.765.3l5.214,5.214a6.793,6.793,0,0,0-.686,2.939,6.857,6.857,0,1,0,13.714,0,6.745,6.745,0,0,0-.688-2.937l6.469-6.469a13.757,13.757,0,1,0-3.232-3.232l-6.469,6.469a6.613,6.613,0,0,0-5.874,0L100.278,23.9a9.057,9.057,0,0,0,1.294-4.617,9.143,9.143,0,0,0-18.286,0,9.035,9.035,0,0,0,1.006,4.082l-4.976,4.354c-.05-.069-.091-.139-.142-.208a43.65,43.65,0,0,0-32.459-17.3V7.857A6.866,6.866,0,0,0,39.857,1h-32A6.866,6.866,0,0,0,1,7.857V26.143a6.86,6.86,0,0,0,5.305,6.665A43.24,43.24,0,0,0,1,53.571,59.016,59.016,0,0,0,12.054,88.065l11.8,16.523v17.554a20.571,20.571,0,1,0,41.143,0V104.588L75.393,90.04A34.385,34.385,0,0,0,97,113.286v20.286a9.152,9.152,0,0,0,9.143,9.143h4.571a9.152,9.152,0,0,0,9.143-9.143V113.286a34.263,34.263,0,0,0-11.429-66.571ZM129,5.571a9.143,9.143,0,1,1-9.143,9.143A9.152,9.152,0,0,1,129,5.571ZM108.428,33a2.286,2.286,0,1,1-2.286,2.286A2.287,2.287,0,0,1,108.428,33Zm-16-18.286a4.571,4.571,0,1,1-4.571,4.571A4.576,4.576,0,0,1,92.428,14.714ZM5.571,26.143V7.857A2.287,2.287,0,0,1,7.857,5.571h32a2.287,2.287,0,0,1,2.286,2.286V26.143a2.287,2.287,0,0,1-2.286,2.286H35.286v8.6a.559.559,0,0,1-1.022.24l-4.423-8.843H7.857A2.287,2.287,0,0,1,5.571,26.143Zm22.857,80h32v4.571h-32Zm0,9.143h32v4.571h-32Zm16,22.857a16.013,16.013,0,0,1-15.817-13.714H60.246A16.013,16.013,0,0,1,44.428,138.143ZM73.084,85.409,61.539,101.571H51.286V83.286H69.571V37.571H55.857V74.143h4.571v-32H65V78.714H46.714v22.857H42.143V78.714H23.857V60.428h4.571V74.143H33V55.857H19.286V83.286H37.571v18.286H27.318L15.77,85.409a54.5,54.5,0,0,1-10.2-31.838A38.7,38.7,0,0,1,11.494,33H27.016l3.161,6.32a5.11,5.11,0,0,0,9.68-2.288V33a6.866,6.866,0,0,0,6.857-6.857V14.783a39.066,39.066,0,0,1,28.8,15.474c.119.16.222.331.338.494l-3.216,2.814,3.008,3.442,2.686-2.35a39.1,39.1,0,0,1,4.953,18.914c0,1.47-.087,2.953-.206,4.423A34.109,34.109,0,0,0,74.143,81c0,.891.066,1.767.135,2.642-.391.594-.779,1.186-1.193,1.767Zm42.2,48.162a4.576,4.576,0,0,1-4.571,4.571h-4.571a4.576,4.576,0,0,1-4.571-4.571V114.6a34.4,34.4,0,0,0,13.714,0Zm-6.857-22.857A29.714,29.714,0,1,1,138.143,81,29.749,29.749,0,0,1,108.428,110.714Z" transform="translate(-1 -1)"/>
        <path id="Trazado_177902" data-name="Trazado 177902" d="M62.143,25A25.143,25.143,0,1,0,87.286,50.143,25.173,25.173,0,0,0,62.143,25Zm0,45.714A20.571,20.571,0,1,1,82.714,50.143,20.594,20.594,0,0,1,62.143,70.714Z" transform="translate(45.286 29.857)"/>
        <path id="Trazado_177903" data-name="Trazado 177903" d="M43,35h4.571v4.571H43Z" transform="translate(53 42.714)"/>
        <path id="Trazado_177904" data-name="Trazado 177904" d="M47,35h4.571v4.571H47Z" transform="translate(58.143 42.714)"/>
        <path id="Trazado_177905" data-name="Trazado 177905" d="M51,35h4.571v4.571H51Z" transform="translate(63.286 42.714)"/>
        <path id="Trazado_177906" data-name="Trazado 177906" d="M17,48.429h4.571V25.571h4.571V48.429h4.571V21H17Z" transform="translate(19.571 24.714)"/>
        <path id="Trazado_177907" data-name="Trazado 177907" d="M5,5h9.143V9.571H5Z" transform="translate(4.143 4.143)"/>
        <path id="Trazado_177908" data-name="Trazado 177908" d="M5,9h9.143v4.571H5Z" transform="translate(4.143 9.286)"/>
        <path id="Trazado_177909" data-name="Trazado 177909" d="M11,5H24.714V9.571H11Z" transform="translate(11.857 4.143)"/>
        <path id="Trazado_177910" data-name="Trazado 177910" d="M11,9h4.571v4.571H11Z" transform="translate(11.857 9.286)"/>
        <path id="Trazado_177911" data-name="Trazado 177911" d="M15,9h4.571v4.571H15Z" transform="translate(17 9.286)"/>
      </g>
    </g>
  </g>
</svg>
