<svg xmlns="http://www.w3.org/2000/svg" width="60" height="61" viewBox="0 0 60 61">
  <g id="Grupo_171227" data-name="Grupo 171227" transform="translate(-436 -7833)">
    <g id="Grupo_142438" data-name="Grupo 142438" transform="translate(435.603 7833.499)">
      <ellipse id="Elipse_4775" data-name="Elipse 4775" cx="30" cy="30.5" rx="30" ry="30.5" transform="translate(0.397 -0.499)" fill="#ff8578"/>
      <g id="bPkKrn.tif" transform="translate(1636.762 619.185)">
        <g id="Grupo_154922" data-name="Grupo 154922" transform="translate(-1626.18 -609.616)">
          <path id="Trazado_195259" data-name="Trazado 195259" d="M-1587.336-608.128v20.83a2.114,2.114,0,0,1-2.31,1.5c-2.831-.043-5.663-.014-8.494-.014h-.473c0,1.15-.006,2.244,0,3.338,0,.222-.056.32-.286.365-.4.078-.791.2-1.208.31l.746,1.26-3.37,3.383-1.259-.747c-.037.106-.071.189-.1.275-.114.4-.107.95-.37,1.147s-.8.061-1.217.063c-.672,0-1.344,0-2.061,0,.547,1.883.276,3.75.354,5.613h-18.8c0-1.054-.012-2.083,0-3.111a9.127,9.127,0,0,1,4.023-7.684,23.7,23.7,0,0,1,2.467-1.364c-.014-.012-.068-.064-.127-.111a5.005,5.005,0,0,1-.326-7.733.863.863,0,0,0,.216-.571q.017-8.083.011-16.166a2.922,2.922,0,0,1,.058-.658,1.983,1.983,0,0,1,1.426-1.416h29.6A2.178,2.178,0,0,1-1587.336-608.128Zm-3.785,18.56v-16.259h-25.033c0,4.533,0,9.035,0,13.536,0,.232.108.268.3.3a4.856,4.856,0,0,1,3.19,2.075.7.7,0,0,0,.655.35q10.218-.014,20.436-.007Zm-26.283-17.512h27.541v18.765H-1611.9l.166,1.253h22.238c.706,0,.9-.2.9-.909q0-9.748,0-19.5c0-.7-.2-.9-.916-.9h-28.226c-.738,0-.93.191-.93.922q0,7.634,0,15.268v.436a4.015,4.015,0,0,1,.846-.224c.394-.013.415-.218.414-.528q-.01-7.047,0-14.094Zm4.383,20.02a3.791,3.791,0,0,0-3.764-3.762,3.791,3.791,0,0,0-3.752,3.734,3.792,3.792,0,0,0,3.744,3.782A3.793,3.793,0,0,0-1613.022-587.06Zm10.5,1.262a4.326,4.326,0,0,1-1.7,4.806,4.062,4.062,0,0,1-4.574.3,4.338,4.338,0,0,1-2.2-5.121,4.027,4.027,0,0,1-.492,0c-.319-.042-.47.07-.574.4a4.762,4.762,0,0,1-1.623,2.3c-.086.069-.166.146-.269.236a9.53,9.53,0,0,1,5.693,5c.043.089.152.208.232.209.884.015,1.769.009,2.65.009.12-.466.225-.9.344-1.321a.419.419,0,0,1,.151-.246c.355-.189.709-.38,1.1-.034a6.466,6.466,0,0,0,.664.41.3.3,0,0,0,.465-.055c.308-.336.645-.646.964-.973.253-.26.663-.511.7-.8s-.308-.628-.493-.941a.79.79,0,0,1,.548-1.28l1.048-.263V-585.8Zm-19.252,8.775v4.963h4.026l-3.665-8.523a8.246,8.246,0,0,0-2.94,3.709,11.441,11.441,0,0,0-.547,4.825h1.87v-4.99c.353,0,.664,0,.975,0C-1621.984-577.038-1621.908-577.031-1621.778-577.024Zm13.1,4.981c.325-3.461-.53-6.4-3.46-8.543l-3.668,8.534h4.057v-4.967h1.244v4.975Zm1.924-13.769c-.861,0-1.722.009-2.583-.006-.229,0-.359.077-.378.285a6.749,6.749,0,0,0-.086,1.539,3.085,3.085,0,0,0,3.823,2.463,3.135,3.135,0,0,0,2.194-4.006.344.344,0,0,0-.387-.28C-1605.036-585.8-1605.9-585.812-1606.758-585.812Zm-6.928,4.386a3.185,3.185,0,0,1-3,2.5,3.183,3.183,0,0,1-3.188-2.5l-.433.2,3.532,8.209,3.529-8.209Zm-4.893-.359a1.8,1.8,0,0,0,1.824,1.611,1.782,1.782,0,0,0,1.767-1.619A6.318,6.318,0,0,0-1618.579-581.784Z" transform="translate(1626.18 609.616)" fill="#fff"/>
          <path id="Trazado_195260" data-name="Trazado 195260" d="M-1251.088-272.811h-7.458v-1.217h7.458Z" transform="translate(1287.392 300.36)" fill="#fff"/>
          <path id="Trazado_195261" data-name="Trazado 195261" d="M-1258.624-240.883v-1.2h7.464v1.2Z" transform="translate(1287.464 270.925)" fill="#fff"/>
          <path id="Trazado_195262" data-name="Trazado 195262" d="M-1242.572-210.3h1.193v1.213h-1.193Z" transform="translate(1272.672 241.633)" fill="#fff"/>
          <path id="Trazado_195263" data-name="Trazado 195263" d="M-1209.391-208.852h-1.187v-1.215h1.188Z" transform="translate(1243.188 241.417)" fill="#fff"/>
          <path id="Trazado_195264" data-name="Trazado 195264" d="M-1177.471-209.986v1.188h-1.215v-1.188Z" transform="translate(1213.798 241.343)" fill="#fff"/>
          <path id="Trazado_195265" data-name="Trazado 195265" d="M-1472.077-541.7v2.448h-10v-6.209h9.978V-543h2.512v-2.451h10.008v6.223h-4.332v1.259h4.337v6.239h-9.978v-6.214h4.336V-539.2h-4.339V-541.7Zm11.249,1.212V-544.2h-7.471v3.713Zm-7.485,7.511h7.485v-3.707h-7.485Zm-5.034-11.227h-7.471v3.712h7.471Z" transform="translate(1493.38 550.493)" fill="#fff"/>
          <path id="Trazado_195266" data-name="Trazado 195266" d="M-1473.3-416.432h-8.7v-1.217h8.7Z" transform="translate(1493.317 432.712)" fill="#fff"/>
          <path id="Trazado_195267" data-name="Trazado 195267" d="M-1442.236-385.86h5.588v1.213h-5.588Z" transform="translate(1456.669 403.417)" fill="#fff"/>
          <path id="Trazado_195268" data-name="Trazado 195268" d="M-1448.918-448.4h-1.2v-1.208h1.2Z" transform="translate(1463.933 462.163)" fill="#fff"/>
          <path id="Trazado_195269" data-name="Trazado 195269" d="M-1416.986-448.4h-1.2v-1.209h1.2Z" transform="translate(1434.508 462.168)" fill="#fff"/>
          <path id="Trazado_195270" data-name="Trazado 195270" d="M-1386.2-449.741h1.194v1.215h-1.194Z" transform="translate(1405.034 462.285)" fill="#fff"/>
          <path id="Trazado_195271" data-name="Trazado 195271" d="M-1258.441-513.693H-1256v1.216h-2.439Z" transform="translate(1287.295 521.22)" fill="#fff"/>
          <path id="Trazado_195272" data-name="Trazado 195272" d="M-1289.24-512.271h-1.2v-1.208h1.2Z" transform="translate(1316.785 521.022)" fill="#fff"/>
          <path id="Trazado_195273" data-name="Trazado 195273" d="M-1285.437-417.649v1.2h-4.958v-1.2Z" transform="translate(1316.742 432.712)" fill="#fff"/>
          <path id="Trazado_195274" data-name="Trazado 195274" d="M-1450.24-512.334v-1.2h5.585v1.2Z" transform="translate(1464.045 521.076)" fill="#fff"/>
        </g>
      </g>
    </g>
  </g>
</svg>
