<svg id="Grupo_145747" data-name="Grupo 145747" xmlns="http://www.w3.org/2000/svg" xmlns:xlink="http://www.w3.org/1999/xlink" width="87.339" height="87.338" viewBox="0 0 87.339 87.338">
  <defs>
    <radialGradient id="radial-gradient" cx="0.076" cy="0.019" r="1.465" gradientTransform="translate(0.001)" gradientUnits="objectBoundingBox">
      <stop offset="0" stop-color="#f6f6f7"/>
      <stop offset="0.477" stop-color="#f9f9fa"/>
      <stop offset="0.715" stop-color="#fff"/>
    </radialGradient>
  </defs>
  <g id="Grupo_18423" data-name="Grupo 18423" transform="translate(0 0)">
    <g id="Grupo_18421" data-name="Grupo 18421">
      <g id="Grupo_18420" data-name="Grupo 18420">
        <g id="Grupo_18419" data-name="Grupo 18419">
          <path id="Trazado_40936" data-name="Trazado 40936" d="M281.962,2189.389a43.669,43.669,0,1,1-43.669-43.668A43.669,43.669,0,0,1,281.962,2189.389Z" transform="translate(-194.623 -2145.721)" fill="#fff"/>
        </g>
      </g>
    </g>
    <path id="Trazado_40937" data-name="Trazado 40937" d="M281.7,2189.1a43.669,43.669,0,1,0-43.669,43.67A43.5,43.5,0,0,0,281.7,2189.1Z" transform="translate(-194.361 -2145.436)" fill="url(#radial-gradient)"/>
    <path id="Trazado_40938" data-name="Trazado 40938" d="M269.1,2186.859a33.332,33.332,0,1,0-33.333,33.333A33.209,33.209,0,0,0,269.1,2186.859Z" transform="translate(-191.968 -2143.046)" fill="none" stroke="#12263f" stroke-miterlimit="10" stroke-width="4"/>
    <g id="Grupo_18422" data-name="Grupo 18422" transform="translate(7.736 24.517)">
      <path id="Trazado_40939" data-name="Trazado 40939" d="M275.732,2164.488a43.675,43.675,0,0,1-75.187,43.488,43.536,43.536,0,0,0,75.187-43.488Z" transform="translate(-200.545 -2164.488)" fill="#eceef0"/>
    </g>
  </g>
  <g id="promedio" transform="translate(25.5 24.318)">
    <g id="Grupo_165439" data-name="Grupo 165439" transform="translate(3.483 0.55)">
      <g id="Grupo_165435" data-name="Grupo 165435" transform="translate(27.417 17.488)">
        <path id="Trazado_176748" data-name="Trazado 176748" d="M424.749,256.732l-2.59-.062a.733.733,0,0,1-.733-.733l.019-9.043a.733.733,0,0,1,.733-.733l.683-.16h2.053a.733.733,0,0,1,.733.733v8.542l-.165.723A.733.733,0,0,1,424.749,256.732Z" transform="translate(-421.426 -246)" fill="#a4a3ff"/>
      </g>
      <path id="Trazado_176750" data-name="Trazado 176750" d="M53.14,38.516V7.867a.367.367,0,0,0-.367-.367h-.66l-.534.174a.367.367,0,0,0-.367.367L51.257,40.6l32.446.131a.367.367,0,0,0,.367-.367l.38-.525v-.66a.367.367,0,0,0-.367-.367H53.434A.293.293,0,0,1,53.14,38.516Z" transform="translate(-50.941 -7.5)" fill="#acfcff"/>
      <path id="Trazado_176751" data-name="Trazado 176751" d="M81.009,39.836v.807a.367.367,0,0,1-.367.367H47.5V7.867a.367.367,0,0,1,.367-.367h.807V39.542a.293.293,0,0,0,.293.293Z" transform="translate(-47.5 -7.5)" fill="#acfcff"/>
      <g id="Grupo_165436" data-name="Grupo 165436" transform="translate(5.42 21.85)">
        <path id="Trazado_176752" data-name="Trazado 176752" d="M124.749,311.869l-2.59-.062a.733.733,0,0,1-.733-.733l.019-4.68a.733.733,0,0,1,.733-.733l.683-.16h2.053a.733.733,0,0,1,.733.733v4.179l-.165.723A.733.733,0,0,1,124.749,311.869Z" transform="translate(-121.426 -305.5)" fill="#5263e2"/>
      </g>
      <g id="Grupo_165437" data-name="Grupo 165437" transform="translate(12.753 12.318)">
        <path id="Trazado_176754" data-name="Trazado 176754" d="M224.749,191.4l-2.59-.062a.733.733,0,0,1-.733-.733l.019-14.212a.733.733,0,0,1,.733-.733l.683-.16h2.053a.733.733,0,0,1,.733.733v13.711l-.165.723A.733.733,0,0,1,224.749,191.4Z" transform="translate(-221.426 -175.5)" fill="#ff8578"/>
      </g>
    </g>
    <g id="Grupo_165440" data-name="Grupo 165440" transform="translate(0 0)">
      <path id="Trazado_176758" data-name="Trazado 176758" d="M70.55,103.117a.55.55,0,0,0-.55.55v23.748a.55.55,0,0,0,.55.55h4.876a.55.55,0,1,0,0-1.1H71.1v-23.2a.55.55,0,0,0-.55-.55Z" transform="translate(-64.867 -95.556)"/>
      <path id="Trazado_176759" data-name="Trazado 176759" d="M195.55,427h-23.5a.55.55,0,1,0,0,1.1h23.317v1.1h-6.888a.55.55,0,0,0,0,1.1h7.071a.918.918,0,0,0,.917-.917v-1.466A.918.918,0,0,0,195.55,427Z" transform="translate(-158.925 -395.691)"/>
      <path id="Trazado_176760" data-name="Trazado 176760" d="M26.988,33.509H4.033V1.1h1.1V5.544a.55.55,0,1,0,1.1,0V.917A.918.918,0,0,0,5.316,0H3.849a.918.918,0,0,0-.917.917V33.509H.55a.55.55,0,0,0,0,1.1H2.933v2.383a.55.55,0,1,0,1.1,0V34.609H26.988a.55.55,0,0,0,0-1.1Z" transform="translate(0 0)"/>
      <path id="Trazado_176761" data-name="Trazado 176761" d="M117,304.342v-5.059A1.285,1.285,0,0,0,115.716,298h-2.933a1.285,1.285,0,0,0-1.283,1.283v5.059a1.285,1.285,0,0,0,1.283,1.283h2.933A1.285,1.285,0,0,0,117,304.342Zm-4.4,0v-5.059a.183.183,0,0,1,.183-.183h2.933a.183.183,0,0,1,.183.183v5.059a.183.183,0,0,1-.183.183h-2.933A.183.183,0,0,1,112.6,304.342Z" transform="translate(-103.324 -276.15)"/>
      <path id="Trazado_176762" data-name="Trazado 176762" d="M212.05,175.3a.55.55,0,0,0-.55.55v8.026a1.285,1.285,0,0,0,1.283,1.283h2.933A1.285,1.285,0,0,0,217,183.874V169.283A1.285,1.285,0,0,0,215.716,168h-2.933a1.285,1.285,0,0,0-1.283,1.283v4a.55.55,0,1,0,1.1,0v-4a.184.184,0,0,1,.183-.183h2.933a.184.184,0,0,1,.183.183v14.591a.183.183,0,0,1-.183.183h-2.933a.183.183,0,0,1-.183-.183v-8.026A.55.55,0,0,0,212.05,175.3Z" transform="translate(-195.992 -155.682)"/>
      <path id="Trazado_176763" data-name="Trazado 176763" d="M312.783,218a1.285,1.285,0,0,0-1.283,1.283v10.925a1.285,1.285,0,0,0,1.283,1.283h2.933A1.285,1.285,0,0,0,317,230.208V219.283A1.285,1.285,0,0,0,315.716,218Zm3.116,1.283v10.925a.183.183,0,0,1-.183.183h-2.933a.183.183,0,0,1-.183-.183V219.283a.184.184,0,0,1,.183-.183h2.933A.183.183,0,0,1,315.9,219.283Z" transform="translate(-288.66 -202.016)"/>
      <path id="Trazado_176764" data-name="Trazado 176764" d="M415.716,238.5h-2.933a1.285,1.285,0,0,0-1.283,1.283v9.422a1.285,1.285,0,0,0,1.283,1.283h2.933A1.285,1.285,0,0,0,417,249.205v-9.422A1.285,1.285,0,0,0,415.716,238.5Zm.183,10.705a.183.183,0,0,1-.183.183h-2.933a.183.183,0,0,1-.183-.183v-9.422a.184.184,0,0,1,.183-.183h2.933a.183.183,0,0,1,.183.183Z" transform="translate(-381.327 -221.012)"/>
      <path id="Trazado_176765" data-name="Trazado 176765" d="M111.55,101.565a4.329,4.329,0,0,0,4.23-3.35l1.424-6.053a3.971,3.971,0,0,1,7.516-.655,4.492,4.492,0,0,0,4.133,2.726h1.43a4.98,4.98,0,0,1,2.97.99,6.087,6.087,0,0,0,3.63,1.21h1.063a.55.55,0,1,0,0-1.1h-1.063a4.98,4.98,0,0,1-2.97-.99,6.087,6.087,0,0,0-3.629-1.21h-1.43a3.393,3.393,0,0,1-3.123-2.059,5.071,5.071,0,0,0-9.6.836l-1.424,6.053a3.233,3.233,0,0,1-3.16,2.5.55.55,0,1,0,0,1.1Z" transform="translate(-102.861 -81.548)"/>
      <path id="Trazado_176766" data-name="Trazado 176766" d="M.55,108.1h.733a.55.55,0,0,0,0-1.1H.55a.55.55,0,0,0,0,1.1Z" transform="translate(0 -99.154)"/>
      <path id="Trazado_176767" data-name="Trazado 176767" d="M.55,38.1h.733a.55.55,0,0,0,0-1.1H.55a.55.55,0,0,0,0,1.1Z" transform="translate(0 -34.287)"/>
      <path id="Trazado_176768" data-name="Trazado 176768" d="M.55,178.1h.733a.55.55,0,0,0,0-1.1H.55a.55.55,0,0,0,0,1.1Z" transform="translate(0 -164.022)"/>
      <path id="Trazado_176769" data-name="Trazado 176769" d="M.55,248.1h.733a.55.55,0,0,0,0-1.1H.55a.55.55,0,0,0,0,1.1Z" transform="translate(0 -228.889)"/>
      <path id="Trazado_176770" data-name="Trazado 176770" d="M.55,318.1h.733a.55.55,0,0,0,0-1.1H.55a.55.55,0,0,0,0,1.1Z" transform="translate(0 -293.757)"/>
      <path id="Trazado_176771" data-name="Trazado 176771" d="M.55,388.1h.733a.55.55,0,1,0,0-1.1H.55a.55.55,0,1,0,0,1.1Z" transform="translate(0 -358.624)"/>
      <path id="Trazado_176772" data-name="Trazado 176772" d="M390.55,487a.55.55,0,0,0-.55.55v.733a.55.55,0,0,0,1.1,0v-.733A.55.55,0,0,0,390.55,487Z" transform="translate(-361.404 -451.292)"/>
      <path id="Trazado_176773" data-name="Trazado 176773" d="M460.55,487a.55.55,0,0,0-.55.55v.733a.55.55,0,0,0,1.1,0v-.733A.55.55,0,0,0,460.55,487Z" transform="translate(-426.271 -451.292)"/>
      <path id="Trazado_176774" data-name="Trazado 176774" d="M320.55,487a.55.55,0,0,0-.55.55v.733a.55.55,0,1,0,1.1,0v-.733A.55.55,0,0,0,320.55,487Z" transform="translate(-296.537 -451.292)"/>
      <path id="Trazado_176775" data-name="Trazado 176775" d="M250.55,487a.55.55,0,0,0-.55.55v.733a.55.55,0,1,0,1.1,0v-.733A.55.55,0,0,0,250.55,487Z" transform="translate(-231.669 -451.292)"/>
      <path id="Trazado_176776" data-name="Trazado 176776" d="M180.55,487a.55.55,0,0,0-.55.55v.733a.55.55,0,0,0,1.1,0v-.733A.55.55,0,0,0,180.55,487Z" transform="translate(-166.802 -451.292)"/>
      <path id="Trazado_176777" data-name="Trazado 176777" d="M110.55,487a.55.55,0,0,0-.55.55v.733a.55.55,0,1,0,1.1,0v-.733A.55.55,0,0,0,110.55,487Z" transform="translate(-101.934 -451.292)"/>
    </g>
  </g>
</svg>
