<svg xmlns="http://www.w3.org/2000/svg" width="230" height="72" viewBox="0 0 230 72">
  <g id="Grupo_166799" data-name="Grupo 166799" transform="translate(6828.444 11710.182)">
    <path id="Trazado_197308" data-name="Trazado 197308" d="M10,0H220a10,10,0,0,1,10,10V62a10,10,0,0,1-10,10H10A10,10,0,0,1,0,62V10A10,10,0,0,1,10,0Z" transform="translate(-6828.444 -11710.182)" fill="#a4a3ff"/>
    <path id="Trazado_197311" data-name="Trazado 197311" d="M11.755-4.138H4.871L3.43,0H.22L6.934-17.773H9.7L16.431,0H13.208ZM5.737-6.628h5.151L8.313-14ZM22.449-17.773,27.576-4.15,32.69-17.773h3.992V0H33.606V-5.859l.305-7.837L28.662,0H26.453L21.216-13.684l.305,7.825V0H18.445V-17.773Z" transform="translate(-6808.444 -11665.182)" fill="#fff"/>
    <path id="Trazado_178610" data-name="Trazado 178610" d="M-7943-8803.37l8.02,6.02-8.02,6.02" transform="translate(1184.556 -2879.352)" fill="none" stroke="#fff" stroke-width="1"/>
    <path id="Trazado_178611" data-name="Trazado 178611" d="M-7961.866-8787.5h13.184" transform="translate(1200.556 -2879.182)" fill="none" stroke="#fff" stroke-width="1"/>
    <path id="Trazado_197310" data-name="Trazado 197310" d="M15.43-2.307A5.905,5.905,0,0,1,12.756-.4,10.907,10.907,0,0,1,8.875.244,7.649,7.649,0,0,1,4.919-.769a6.749,6.749,0,0,1-2.655-2.9,10.143,10.143,0,0,1-.97-4.4V-9.46a9.407,9.407,0,0,1,1.929-6.293,6.689,6.689,0,0,1,5.383-2.264,7.077,7.077,0,0,1,4.712,1.471,6.338,6.338,0,0,1,2.1,4.23H12.39a3.406,3.406,0,0,0-3.723-3.21,3.649,3.649,0,0,0-3.156,1.494A7.611,7.611,0,0,0,4.395-9.649v1.366a7.228,7.228,0,0,0,1.215,4.47A4.006,4.006,0,0,0,8.984-2.222,4.449,4.449,0,0,0,12.354-3.3V-6.775H8.691V-9.119H15.43Zm7.4-15.466L27.954-4.15l5.115-13.623h3.992V0H33.984V-5.859L34.29-13.7,29.041,0H26.831L21.594-13.684,21.9-5.859V0H18.823V-17.773Z" transform="translate(-6732.444 -11665.182)" fill="#fff"/>
    <path id="Trazado_178612" data-name="Trazado 178612" d="M-7943-8803.37l8.02,6.02-8.02,6.02" transform="translate(1263.556 -2879.352)" fill="none" stroke="#fff" stroke-width="1"/>
    <path id="Trazado_178613" data-name="Trazado 178613" d="M-7961.866-8787.5h13.184" transform="translate(1279.556 -2879.182)" fill="none" stroke="#fff" stroke-width="1"/>
    <path id="Trazado_197309" data-name="Trazado 197309" d="M15.918,0H12.842V-7.886H4.9V0H1.807V-17.773H4.9v7.4h7.947v-7.4h3.076Zm7.654-17.773L28.7-4.15l5.115-13.623h3.992V0H34.729V-5.859l.305-7.837L29.785,0H27.576L22.339-13.684l.305,7.825V0H19.568V-17.773Z" transform="translate(-6657.444 -11665.182)" fill="#fff"/>
  </g>
</svg>
