<svg xmlns="http://www.w3.org/2000/svg" width="178.528" height="165.374" viewBox="0 0 178.528 165.374">
  <g id="Grupo_165712" data-name="Grupo 165712" transform="translate(0 0.327)">
    <rect id="Rectángulo_49754" data-name="Rectángulo 49754" width="178.529" height="165.374" transform="translate(0 -0.327)" fill="none"/>
    <g id="razon" transform="translate(31.008 21.592)">
      <path id="Trazado_177878" data-name="Trazado 177878" d="M93.474,188.276a12.031,12.031,0,0,1-24.051.531,9.629,9.629,0,0,1-7.714-9.435c0-.205.009-.408.021-.61A14.427,14.427,0,0,1,49.4,162.046a14.437,14.437,0,0,1,0-24.066,14.427,14.427,0,0,1,12.4-16.725A9.628,9.628,0,0,1,70.392,113a12.033,12.033,0,0,1,23.082,4.766v70.51Z" transform="translate(-35.135 -80.655)" fill="#acfcff"/>
      <path id="Trazado_177879" data-name="Trazado 177879" d="M124.283,279.116a9.641,9.641,0,0,0,7.19,6.3,12.031,12.031,0,0,0,24.051-.531v-52.5C155.525,257.893,141.594,278.626,124.283,279.116Z" transform="translate(-97.186 -177.265)" fill="#78d1d5"/>
      <path id="Trazado_177880" data-name="Trazado 177880" d="M256,188.276a12.032,12.032,0,0,0,24.051.531,9.629,9.629,0,0,0,7.714-9.435c0-.205-.009-.408-.021-.61a14.427,14.427,0,0,0,12.332-16.716,14.437,14.437,0,0,0,0-24.066,14.427,14.427,0,0,0-12.4-16.725A9.628,9.628,0,0,0,279.081,113,12.033,12.033,0,0,0,256,117.766v70.51Z" transform="translate(-197.661 -80.655)" fill="#acfcff"/>
      <path id="Trazado_177881" data-name="Trazado 177881" d="M306.536,259.568a14.387,14.387,0,0,0-4.239-10.215,41.87,41.87,0,0,1-41.859,40.977A42.316,42.316,0,0,1,256,290.1v7.734a12.031,12.031,0,0,0,24.051.531,9.629,9.629,0,0,0,7.714-9.435c0-.205-.009-.408-.021-.61A14.427,14.427,0,0,0,300.076,271.6,14.422,14.422,0,0,0,306.536,259.568Z" transform="translate(-197.662 -190.21)" fill="#78d1d5"/>
      <circle id="Elipse_5189" data-name="Elipse 5189" cx="16.845" cy="16.845" r="16.845" transform="translate(1.786 14.491)" fill="#fed981"/>
      <circle id="Elipse_5190" data-name="Elipse 5190" cx="16.845" cy="16.845" r="16.845" transform="translate(81.2 14.491)" fill="#a4a3ff"/>
      <circle id="Elipse_5191" data-name="Elipse 5191" cx="16.845" cy="16.845" r="16.845" transform="translate(41.493 1.255)" fill="#43a99b"/>
      <path id="Trazado_177885" data-name="Trazado 177885" d="M68.169,110.022a1.787,1.787,0,0,0,1.787-1.787V91.872a1.787,1.787,0,1,0-3.573,0v.682a2.307,2.307,0,0,1-2.3,2.3,1.787,1.787,0,1,0,0,3.573,5.844,5.844,0,0,0,2.3-.471v10.276A1.786,1.786,0,0,0,68.169,110.022Z" transform="translate(-49.898 -68.718)"/>
      <path id="Trazado_177886" data-name="Trazado 177886" d="M126.718,31.335a18.585,18.585,0,0,0-2.83-9.877,1.787,1.787,0,1,0-3.028,1.9,15.045,15.045,0,1,1-5.44-5.176,1.787,1.787,0,1,0,1.743-3.119A18.634,18.634,0,0,0,89.944,27.107a13.77,13.77,0,0,0-4.04-2.68A18.634,18.634,0,0,0,73.044.057a1.787,1.787,0,0,0-.892,3.46,15.059,15.059,0,1,1-7.545,0,1.787,1.787,0,0,0-.892-3.46A18.634,18.634,0,0,0,50.855,24.427a13.774,13.774,0,0,0-4.04,2.68A18.634,18.634,0,0,0,19.6,15.06a1.787,1.787,0,1,0,1.743,3.119,15.056,15.056,0,1,1-5.44,5.176,1.787,1.787,0,1,0-3.028-1.9A18.634,18.634,0,0,0,23.36,49.191a16.259,16.259,0,0,0-1.046,5.728c0,.522.026,1.049.078,1.576q-.135.1-.266.21a16.456,16.456,0,0,0-6.067,12.653,16.2,16.2,0,0,0,6.333,12.86c-.05.521-.078,1.047-.078,1.578h0A16.268,16.268,0,0,0,34.862,99.6a11.453,11.453,0,0,0,7.8,9.959A13.814,13.814,0,0,0,68.38,114.4a13.814,13.814,0,0,0,25.715-4.848,11.453,11.453,0,0,0,7.8-9.959,16.268,16.268,0,0,0,12.548-15.8h0c0-.531-.028-1.057-.078-1.578a16.2,16.2,0,0,0,6.333-12.86,16.455,16.455,0,0,0-6.067-12.653q-.131-.106-.266-.21c.052-.528.078-1.055.078-1.576a16.259,16.259,0,0,0-1.046-5.728,18.662,18.662,0,0,0,13.319-17.856ZM56.347,117.866a10.218,10.218,0,0,1-10.019-8.107,11.481,11.481,0,0,0,9.431-11.3,1.787,1.787,0,0,0-3.573,0,7.89,7.89,0,0,1-7.678,7.9,7.858,7.858,0,0,1-6.032-6.573,16.216,16.216,0,0,0,6.839-2.405,1.787,1.787,0,0,0-1.909-3.021,12.655,12.655,0,0,1-6.642,1.956A12.674,12.674,0,0,1,25.887,83.8h0a12.59,12.59,0,0,1,5.985-10.755,1.787,1.787,0,0,0-1.886-3.035,16.163,16.163,0,0,0-6.7,8.236,12.62,12.62,0,0,1-3.651-8.883,12.846,12.846,0,0,1,4.739-9.873c.267-.215.557-.427.857-.629l.068-.042A12.642,12.642,0,0,1,40.927,60.12a1.787,1.787,0,0,0,2.442-2.608A16.224,16.224,0,0,0,25.9,54.44a12.649,12.649,0,0,1,1.036-4.556c.572.053,1.15.083,1.735.083A18.661,18.661,0,0,0,47.094,34.132a7.85,7.85,0,0,1,6.985,7.792,1.787,1.787,0,1,0,3.573,0,11.429,11.429,0,0,0-9.3-11.214,10.21,10.21,0,0,1,4.045-3.05,18.655,18.655,0,0,0,14.2,8.984V51.271A5.2,5.2,0,0,1,61.4,56.463a1.787,1.787,0,1,0,0,3.573,8.717,8.717,0,0,0,5.192-1.709v10.7a12.665,12.665,0,0,1-7.253,3.161,1.787,1.787,0,0,0,.162,3.566q.082,0,.166-.007a16.226,16.226,0,0,0,6.925-2.294v8.485A5.2,5.2,0,0,1,61.4,87.131a1.787,1.787,0,1,0,0,3.573A8.717,8.717,0,0,0,66.592,89V107.62a10.257,10.257,0,0,1-10.246,10.246Zm54.51-63.426a16.224,16.224,0,0,0-17.468,3.072,1.787,1.787,0,0,0,2.442,2.608,12.643,12.643,0,0,1,15.632-1.306c.023.015.045.028.068.042.3.2.59.415.857.629a12.846,12.846,0,0,1,4.739,9.873,12.62,12.62,0,0,1-3.651,8.883,16.164,16.164,0,0,0-6.7-8.236,1.787,1.787,0,0,0-1.886,3.035A12.59,12.59,0,0,1,110.872,83.8h0A12.674,12.674,0,0,1,100,96.317a12.657,12.657,0,0,1-6.642-1.956,1.787,1.787,0,1,0-1.909,3.021,16.221,16.221,0,0,0,6.839,2.405,7.857,7.857,0,0,1-6.032,6.573,7.89,7.89,0,0,1-7.678-7.9,1.787,1.787,0,0,0-3.573,0,11.481,11.481,0,0,0,9.431,11.3,10.245,10.245,0,0,1-20.265-2.139V88.995A8.717,8.717,0,0,0,75.358,90.7a1.787,1.787,0,0,0,0-3.573,5.2,5.2,0,0,1-5.192-5.192V73.453a16.223,16.223,0,0,0,6.925,2.294c.056.005.111.007.166.007a1.787,1.787,0,0,0,.162-3.566,12.663,12.663,0,0,1-7.253-3.161v-10.7a8.717,8.717,0,0,0,5.192,1.709,1.787,1.787,0,0,0,0-3.573,5.2,5.2,0,0,1-5.192-5.192V36.644a18.654,18.654,0,0,0,14.2-8.984,10.208,10.208,0,0,1,4.045,3.05,11.429,11.429,0,0,0-9.3,11.214,1.787,1.787,0,1,0,3.573,0,7.85,7.85,0,0,1,6.985-7.792,18.661,18.661,0,0,0,18.422,15.835c.585,0,1.163-.031,1.735-.083a12.644,12.644,0,0,1,1.036,4.556Z" transform="translate(-10.041 0.001)"/>
      <path id="Trazado_177887" data-name="Trazado 177887" d="M408.595,93.658a1.787,1.787,0,1,0,0-3.573h-8.182a1.787,1.787,0,0,0-1.787,1.787v5.776a4.2,4.2,0,0,0,4.193,4.193h3.369a.62.62,0,0,1,.62.62v3.369a.62.62,0,0,1-.62.62h-5.776a1.787,1.787,0,0,0,0,3.573h5.776a4.2,4.2,0,0,0,4.193-4.193V102.46a4.2,4.2,0,0,0-4.193-4.193h-3.369a.62.62,0,0,1-.62-.62V93.658Z" transform="translate(-306.459 -68.718)"/>
      <path id="Trazado_177888" data-name="Trazado 177888" d="M231.219,38.457a1.787,1.787,0,0,0,3.573,0,.6.6,0,0,1,.6-.6H238.8a.6.6,0,0,1,.6.6v3.409a.6.6,0,0,1-.6.6h-2.386a1.787,1.787,0,0,0,0,3.573H238.8a.6.6,0,0,1,.6.6v3.409a.6.6,0,0,1-.6.6h-3.409a.6.6,0,0,1-.6-.6,1.787,1.787,0,0,0-3.573,0,4.178,4.178,0,0,0,4.173,4.173H238.8a4.178,4.178,0,0,0,4.173-4.173V46.639a4.146,4.146,0,0,0-.755-2.386,4.145,4.145,0,0,0,.755-2.386V38.457a4.178,4.178,0,0,0-4.173-4.173h-3.409A4.178,4.178,0,0,0,231.219,38.457Z" transform="translate(-178.758 -26.152)"/>
    </g>
  </g>
</svg>
