<svg xmlns="http://www.w3.org/2000/svg" xmlns:xlink="http://www.w3.org/1999/xlink" width="378.172" height="269" viewBox="0 0 378.172 269">
  <defs>
    <linearGradient id="linear-gradient" x1="0.5" x2="0.5" y2="1" gradientUnits="objectBoundingBox">
      <stop offset="0" stop-color="#fed981"/>
      <stop offset="1" stop-color="#ffd061"/>
    </linearGradient>
  </defs>
  <g id="Grupo_169195" data-name="Grupo 169195" transform="translate(6253.172 9219.379)">
    <text id="_1" data-name="1" transform="translate(-6236.172 -9132.92)" fill="#12263f" font-size="14" font-family="Roboto-Regular, Roboto"><tspan x="0" y="0">1</tspan></text>
    <text id="_2" data-name="2" transform="translate(-6214.172 -9132.92)" fill="#12263f" font-size="14" font-family="Roboto-Regular, Roboto"><tspan x="0" y="0">2</tspan></text>
    <text id="_4" data-name="4" transform="translate(-6164.656 -9132.92)" fill="#12263f" font-size="14" font-family="Roboto-Regular, Roboto"><tspan x="0" y="0">4</tspan></text>
    <text id="_3" data-name="3" transform="translate(-6187.656 -9132.92)" fill="#12263f" font-size="14" font-family="Roboto-Regular, Roboto"><tspan x="0" y="0">3</tspan></text>
    <text id="_0" data-name="0" transform="translate(-6149 -8994.92)" fill="#12263f" font-size="14" font-family="Roboto-Regular, Roboto"><tspan x="0" y="0">0</tspan></text>
    <text id="_1-2" data-name="1" transform="translate(-6125 -8994.92)" fill="#12263f" font-size="14" font-family="Roboto-Regular, Roboto"><tspan x="0" y="0">1</tspan></text>
    <text id="_2-2" data-name="2" transform="translate(-6097 -8994.92)" fill="#12263f" font-size="14" font-family="Roboto-Regular, Roboto"><tspan x="0" y="0">2</tspan></text>
    <text id="_3-2" data-name="3" transform="translate(-6073 -8994.92)" fill="#12263f" font-size="14" font-family="Roboto-Regular, Roboto"><tspan x="0" y="0">3</tspan></text>
    <text id="_4-2" data-name="4" transform="translate(-6049 -8994.92)" fill="#12263f" font-size="14" font-family="Roboto-Regular, Roboto"><tspan x="0" y="0">4</tspan></text>
    <text id="_5" data-name="5" transform="translate(-6021 -8994.92)" fill="#12263f" font-size="14" font-family="Roboto-Regular, Roboto"><tspan x="0" y="0">5</tspan></text>
    <text id="_6" data-name="6" transform="translate(-5999.688 -8994.92)" fill="#12263f" font-size="14" font-family="Roboto-Regular, Roboto"><tspan x="0" y="0">6</tspan></text>
    <text id="_5-2" data-name="5" transform="translate(-6142.656 -9132.92)" fill="#12263f" font-size="14" font-family="Roboto-Regular, Roboto"><tspan x="0" y="0">5</tspan></text>
    <text id="_6-2" data-name="6" transform="translate(-6120.656 -9132.92)" fill="#12263f" font-size="14" font-family="Roboto-Regular, Roboto"><tspan x="0" y="0">6</tspan></text>
    <text id="_7" data-name="7" transform="translate(-6098.656 -9132.92)" fill="#12263f" font-size="14" font-family="Roboto-Regular, Roboto"><tspan x="0" y="0">7</tspan></text>
    <text id="_8" data-name="8" transform="translate(-6073 -9132.92)" fill="#12263f" font-size="14" font-family="Roboto-Regular, Roboto"><tspan x="0" y="0">8</tspan></text>
    <text id="_9" data-name="9" transform="translate(-6051 -9132.92)" fill="#12263f" font-size="14" font-family="Roboto-Regular, Roboto"><tspan x="0" y="0">9</tspan></text>
    <text id="_10" data-name="10" transform="translate(-6025.344 -9132.92)" fill="#12263f" font-size="14" font-family="Roboto-Regular, Roboto"><tspan x="0" y="0">10</tspan></text>
    <text id="_11" data-name="11" transform="translate(-5991.688 -9132.92)" fill="#12263f" font-size="14" font-family="Roboto-Regular, Roboto"><tspan x="0" y="0">11</tspan></text>
    <text id="_12" data-name="12" transform="translate(-5961.688 -9132.92)" fill="#12263f" font-size="14" font-family="Roboto-Regular, Roboto"><tspan x="0" y="0">12</tspan></text>
    <text id="_13" data-name="13" transform="translate(-5931.688 -9132.92)" fill="#12263f" font-size="14" font-family="Roboto-Regular, Roboto"><tspan x="0" y="0">13</tspan></text>
    <text id="_14" data-name="14" transform="translate(-5898.033 -9132.92)" fill="#12263f" font-size="14" font-family="Roboto-Regular, Roboto"><tspan x="0" y="0">14</tspan></text>
    <g id="Elipse_6114" data-name="Elipse 6114" transform="translate(-6244 -9175.379)" fill="#a4a3ff" stroke="#12263f" stroke-width="1">
      <circle cx="11" cy="11" r="11" stroke="none"/>
      <circle cx="11" cy="11" r="10.5" fill="none"/>
    </g>
    <g id="Elipse_6115" data-name="Elipse 6115" transform="translate(-6195 -9175.379)" fill="#a4a3ff" stroke="#12263f" stroke-width="1">
      <circle cx="11" cy="11" r="11" stroke="none"/>
      <circle cx="11" cy="11" r="10.5" fill="none"/>
    </g>
    <g id="Elipse_6116" data-name="Elipse 6116" transform="translate(-6157 -9043.379)" fill="#a4a3ff" stroke="#12263f" stroke-width="1">
      <circle cx="11" cy="11" r="11" stroke="none"/>
      <circle cx="11" cy="11" r="10.5" fill="none"/>
    </g>
    <g id="Elipse_6117" data-name="Elipse 6117" transform="translate(-6132 -9043.379)" fill="#a4a3ff" stroke="#12263f" stroke-width="1">
      <circle cx="11" cy="11" r="11" stroke="none"/>
      <circle cx="11" cy="11" r="10.5" fill="none"/>
    </g>
    <g id="Elipse_6118" data-name="Elipse 6118" transform="translate(-6107 -9043.379)" fill="#a4a3ff" stroke="#12263f" stroke-width="1">
      <circle cx="11" cy="11" r="11" stroke="none"/>
      <circle cx="11" cy="11" r="10.5" fill="none"/>
    </g>
    <g id="Elipse_6119" data-name="Elipse 6119" transform="translate(-6082 -9043.379)" fill="#a4a3ff" stroke="#12263f" stroke-width="1">
      <circle cx="11" cy="11" r="11" stroke="none"/>
      <circle cx="11" cy="11" r="10.5" fill="none"/>
    </g>
    <g id="Elipse_6120" data-name="Elipse 6120" transform="translate(-6057 -9043.379)" fill="#a4a3ff" stroke="#12263f" stroke-width="1">
      <circle cx="11" cy="11" r="11" stroke="none"/>
      <circle cx="11" cy="11" r="10.5" fill="none"/>
    </g>
    <g id="Elipse_6121" data-name="Elipse 6121" transform="translate(-6032 -9043.379)" fill="#a4a3ff" stroke="#12263f" stroke-width="1">
      <circle cx="11" cy="11" r="11" stroke="none"/>
      <circle cx="11" cy="11" r="10.5" fill="none"/>
    </g>
    <g id="Elipse_6122" data-name="Elipse 6122" transform="translate(-6007 -9043.379)" fill="#a4a3ff" stroke="#12263f" stroke-width="1">
      <circle cx="11" cy="11" r="11" stroke="none"/>
      <circle cx="11" cy="11" r="10.5" fill="none"/>
    </g>
    <g id="Elipse_6123" data-name="Elipse 6123" transform="translate(-6150 -9175.379)" fill="#a4a3ff" stroke="#12263f" stroke-width="1">
      <circle cx="11" cy="11" r="11" stroke="none"/>
      <circle cx="11" cy="11" r="10.5" fill="none"/>
    </g>
    <g id="Elipse_6124" data-name="Elipse 6124" transform="translate(-6058 -9175.379)" fill="#a4a3ff" stroke="#12263f" stroke-width="1">
      <circle cx="11" cy="11" r="11" stroke="none"/>
      <circle cx="11" cy="11" r="10.5" fill="none"/>
    </g>
    <g id="Elipse_6125" data-name="Elipse 6125" transform="translate(-5965 -9175.379)" fill="#a4a3ff" stroke="#12263f" stroke-width="1">
      <circle cx="11" cy="11" r="11" stroke="none"/>
      <circle cx="11" cy="11" r="10.5" fill="none"/>
    </g>
    <g id="Elipse_6126" data-name="Elipse 6126" transform="translate(-6101 -9175.379)" fill="#a4a3ff" stroke="#12263f" stroke-width="1">
      <circle cx="11" cy="11" r="11" stroke="none"/>
      <circle cx="11" cy="11" r="10.5" fill="none"/>
    </g>
    <g id="Elipse_6127" data-name="Elipse 6127" transform="translate(-6028 -9175.379)" fill="#a4a3ff" stroke="#12263f" stroke-width="1">
      <circle cx="11" cy="11" r="11" stroke="none"/>
      <circle cx="11" cy="11" r="10.5" fill="none"/>
    </g>
    <g id="Elipse_6128" data-name="Elipse 6128" transform="translate(-5927 -9175.379)" fill="#a4a3ff" stroke="#12263f" stroke-width="1">
      <circle cx="11" cy="11" r="11" stroke="none"/>
      <circle cx="11" cy="11" r="10.5" fill="none"/>
    </g>
    <g id="Elipse_6129" data-name="Elipse 6129" transform="translate(-5897 -9175.379)" fill="#a4a3ff" stroke="#12263f" stroke-width="1">
      <circle cx="11" cy="11" r="11" stroke="none"/>
      <circle cx="11" cy="11" r="10.5" fill="none"/>
    </g>
    <g id="Elipse_6130" data-name="Elipse 6130" transform="translate(-6150 -9197.379)" fill="#a4a3ff" stroke="#12263f" stroke-width="1">
      <circle cx="11" cy="11" r="11" stroke="none"/>
      <circle cx="11" cy="11" r="10.5" fill="none"/>
    </g>
    <g id="Elipse_6131" data-name="Elipse 6131" transform="translate(-6058 -9197.379)" fill="#a4a3ff" stroke="#12263f" stroke-width="1">
      <circle cx="11" cy="11" r="11" stroke="none"/>
      <circle cx="11" cy="11" r="10.5" fill="none"/>
    </g>
    <g id="Elipse_6132" data-name="Elipse 6132" transform="translate(-5965 -9197.379)" fill="#a4a3ff" stroke="#12263f" stroke-width="1">
      <circle cx="11" cy="11" r="11" stroke="none"/>
      <circle cx="11" cy="11" r="10.5" fill="none"/>
    </g>
    <g id="Elipse_6133" data-name="Elipse 6133" transform="translate(-6150 -9219.379)" fill="#a4a3ff" stroke="#12263f" stroke-width="1">
      <circle cx="11" cy="11" r="11" stroke="none"/>
      <circle cx="11" cy="11" r="10.5" fill="none"/>
    </g>
    <g id="Rectángulo_51216" data-name="Rectángulo 51216" transform="translate(-6124 -9118.379)" stroke="#12263f" stroke-width="1" fill="url(#linear-gradient)">
      <rect width="118" height="34" stroke="none"/>
      <rect x="0.5" y="0.5" width="117" height="33" fill="none"/>
    </g>
    <g id="Rectángulo_51217" data-name="Rectángulo 51217" transform="translate(-6130 -8984.379)" stroke="#12263f" stroke-width="1" fill="url(#linear-gradient)">
      <rect width="118" height="34" stroke="none"/>
      <rect x="0.5" y="0.5" width="117" height="33" fill="none"/>
    </g>
    <text id="MODA_5" data-name="MODA=5" transform="translate(-6093 -9096.379)" fill="#12263f" font-size="14" font-family="Roboto-Bold, Roboto" font-weight="700"><tspan x="0" y="0">MODA=5</tspan></text>
    <text id="SIN_MODA" data-name="SIN MODA" transform="translate(-6103 -8962.379)" fill="#12263f" font-size="14" font-family="Roboto-Bold, Roboto" font-weight="700"><tspan x="0" y="0">SIN MODA</tspan></text>
    <g id="Grupo_169194" data-name="Grupo 169194" transform="translate(615 813.621)">
      <path id="Polígono_45" data-name="Polígono 45" d="M11,0,22,12H0Z" transform="translate(-6765 -9944)" fill="#ff8578"/>
      <rect id="Rectángulo_51219" data-name="Rectángulo 51219" width="13" height="33" transform="translate(-6761 -9934)" fill="#ff8578"/>
    </g>
    <path id="Trazado_204656" data-name="Trazado 204656" d="M-6868.172-9967.387h368.707" transform="translate(615 813.621)" fill="none" stroke="#12263f" stroke-width="4"/>
    <path id="Trazado_204657" data-name="Trazado 204657" d="M-6868.172-9967.387H-6692.5" transform="translate(711.516 945.621)" fill="none" stroke="#12263f" stroke-width="4"/>
  </g>
</svg>
