<svg xmlns="http://www.w3.org/2000/svg" width="1187.199" height="162.631" viewBox="0 0 1187.199 162.631">
  <g id="Grupo_166627" data-name="Grupo 166627" transform="translate(0 1.93)">
    <path id="Trazado_177094" data-name="Trazado 177094" d="M-8394.184-6796.867s39.857-8.891,76.829-84.307,76.605,84.307,214.954,84.307" transform="translate(8428.913 6901.405)" fill="none" stroke="#5263e2" stroke-width="4"/>
    <path id="Trazado_177095" data-name="Trazado 177095" d="M-8427.154-6802.162h361.99" transform="translate(8427.154 6906.7)" fill="none" stroke="#12263f" stroke-width="2"/>
    <path id="Trazado_177096" data-name="Trazado 177096" d="M-8301.689-6901.4V-6784" transform="translate(8433.848 6901.405)" fill="none" stroke="#ff8578" stroke-width="2"/>
    <path id="Trazado_177102" data-name="Trazado 177102" d="M4.242-11.342l3.078,8.69,3.061-8.69h3.242V.64H11.146V-2.635l.247-5.654L8.159.64h-1.7L3.238-8.28l.247,5.645V.64H1.016V-11.342ZM15.252-3.894a5.281,5.281,0,0,1,.51-2.362,3.735,3.735,0,0,1,1.469-1.6,4.286,4.286,0,0,1,2.226-.568,4.055,4.055,0,0,1,2.942,1.1,4.426,4.426,0,0,1,1.271,3l.016.609A4.654,4.654,0,0,1,22.544-.434,3.976,3.976,0,0,1,19.474.8,4,4,0,0,1,16.4-.43a4.736,4.736,0,0,1-1.148-3.358Zm2.378.173a3.319,3.319,0,0,0,.477,1.938,1.575,1.575,0,0,0,1.366.671,1.579,1.579,0,0,0,1.35-.662,3.632,3.632,0,0,0,.486-2.119,3.286,3.286,0,0,0-.486-1.926A1.579,1.579,0,0,0,19.458-6.5a1.553,1.553,0,0,0-1.35.679A3.693,3.693,0,0,0,17.631-3.721Zm7.151-.156a5.366,5.366,0,0,1,.934-3.316,3.031,3.031,0,0,1,2.555-1.234,2.727,2.727,0,0,1,2.148.971V-12h2.387V.64H30.658l-.115-.946A2.8,2.8,0,0,1,28.255.8,3.022,3.022,0,0,1,25.732-.434,5.539,5.539,0,0,1,24.782-3.878ZM27.16-3.7A3.505,3.505,0,0,0,27.6-1.787a1.421,1.421,0,0,0,1.267.667,1.592,1.592,0,0,0,1.555-.93V-5.565a1.569,1.569,0,0,0-1.539-.93Q27.16-6.495,27.16-3.7ZM39.809.64a2.641,2.641,0,0,1-.239-.8A2.878,2.878,0,0,1,37.323.8,3.161,3.161,0,0,1,35.155.048a2.435,2.435,0,0,1-.86-1.909,2.516,2.516,0,0,1,1.049-2.173A5.177,5.177,0,0,1,38.377-4.8h1.095v-.51a1.467,1.467,0,0,0-.317-.988,1.246,1.246,0,0,0-1-.37,1.417,1.417,0,0,0-.942.288.978.978,0,0,0-.342.79H34.493a2.389,2.389,0,0,1,.477-1.432,3.155,3.155,0,0,1,1.35-1.033,4.919,4.919,0,0,1,1.959-.374,3.886,3.886,0,0,1,2.613.827,2.893,2.893,0,0,1,.967,2.325v3.86A4.257,4.257,0,0,0,42.212.5V.64ZM37.842-1.014a2.048,2.048,0,0,0,.971-.235,1.54,1.54,0,0,0,.658-.63V-3.409h-.889q-1.786,0-1.9,1.234l-.008.14a.952.952,0,0,0,.313.732A1.215,1.215,0,0,0,37.842-1.014Z" transform="translate(108.185 159.897)"/>
    <path id="Trazado_177097" data-name="Trazado 177097" d="M-8394.184-6796.867s39.857-8.891,76.829-84.307,76.605,84.307,214.954,84.307" transform="translate(8849.363 6901.405)" fill="none" stroke="#5263e2" stroke-width="4"/>
    <path id="Trazado_177098" data-name="Trazado 177098" d="M-8427.154-6802.162h345.408" transform="translate(8847.604 6906.7)" fill="none" stroke="#12263f" stroke-width="2"/>
    <path id="Trazado_177099" data-name="Trazado 177099" d="M-8301.689-6901.4V-6784" transform="translate(8883.95 6901.405)" fill="none" stroke="#ff8578" stroke-width="2"/>
    <path id="Trazado_177103" data-name="Trazado 177103" d="M4.242-11.342l3.078,8.69,3.061-8.69h3.242V.64H11.146V-2.635l.247-5.654L8.159.64h-1.7L3.238-8.28l.247,5.645V.64H1.016V-11.342ZM19.721.8A4.371,4.371,0,0,1,16.532-.4,4.271,4.271,0,0,1,15.3-3.6v-.23a5.379,5.379,0,0,1,.518-2.4,3.8,3.8,0,0,1,1.469-1.629,4.123,4.123,0,0,1,2.168-.572,3.7,3.7,0,0,1,2.876,1.152,4.682,4.682,0,0,1,1.049,3.267v.971h-5.67a2.209,2.209,0,0,0,.7,1.4,2.1,2.1,0,0,0,1.469.527,2.567,2.567,0,0,0,2.148-1L23.194-.8A3.57,3.57,0,0,1,21.745.381,4.752,4.752,0,0,1,19.721.8ZM19.449-6.5a1.489,1.489,0,0,0-1.148.477,2.466,2.466,0,0,0-.564,1.366h3.308v-.189a1.758,1.758,0,0,0-.428-1.222A1.537,1.537,0,0,0,19.449-6.5Zm4.913,2.625A5.366,5.366,0,0,1,25.3-7.194a3.031,3.031,0,0,1,2.555-1.234A2.727,2.727,0,0,1,30-7.457V-12h2.387V.64H30.238l-.115-.946A2.8,2.8,0,0,1,27.835.8,3.022,3.022,0,0,1,25.313-.434,5.539,5.539,0,0,1,24.362-3.878ZM26.74-3.7a3.505,3.505,0,0,0,.436,1.917,1.421,1.421,0,0,0,1.267.667A1.592,1.592,0,0,0,30-2.051V-5.565a1.569,1.569,0,0,0-1.539-.93Q26.74-6.495,26.74-3.7Zm10,4.345H34.353v-8.9h2.387ZM34.213-10.568a1.171,1.171,0,0,1,.358-.881,1.345,1.345,0,0,1,.975-.346,1.348,1.348,0,0,1,.971.346,1.164,1.164,0,0,1,.362.881,1.168,1.168,0,0,1-.366.889,1.351,1.351,0,0,1-.967.346,1.351,1.351,0,0,1-.967-.346A1.168,1.168,0,0,1,34.213-10.568ZM43.857.64a2.641,2.641,0,0,1-.239-.8A2.878,2.878,0,0,1,41.372.8,3.161,3.161,0,0,1,39.2.048a2.435,2.435,0,0,1-.86-1.909,2.516,2.516,0,0,1,1.049-2.173A5.177,5.177,0,0,1,42.426-4.8H43.52v-.51A1.467,1.467,0,0,0,43.2-6.3a1.246,1.246,0,0,0-1-.37,1.417,1.417,0,0,0-.942.288.978.978,0,0,0-.342.79H38.541a2.389,2.389,0,0,1,.477-1.432,3.155,3.155,0,0,1,1.35-1.033,4.919,4.919,0,0,1,1.959-.374A3.886,3.886,0,0,1,44.94-7.6a2.893,2.893,0,0,1,.967,2.325v3.86A4.257,4.257,0,0,0,46.26.5V.64ZM41.891-1.014a2.048,2.048,0,0,0,.971-.235,1.54,1.54,0,0,0,.658-.63V-3.409h-.889q-1.786,0-1.9,1.234l-.008.14a.952.952,0,0,0,.313.732A1.215,1.215,0,0,0,41.891-1.014Zm8.032-7.25L50-7.235a3.109,3.109,0,0,1,2.559-1.193,2.584,2.584,0,0,1,2.107.831,3.878,3.878,0,0,1,.708,2.485V.64H52.992V-5.054a1.543,1.543,0,0,0-.329-1.1,1.474,1.474,0,0,0-1.094-.342,1.636,1.636,0,0,0-1.506.856V.64H47.684v-8.9ZM62.332.64a2.641,2.641,0,0,1-.239-.8A2.878,2.878,0,0,1,59.847.8,3.161,3.161,0,0,1,57.679.048a2.435,2.435,0,0,1-.86-1.909,2.516,2.516,0,0,1,1.049-2.173A5.177,5.177,0,0,1,60.9-4.8h1.095v-.51a1.467,1.467,0,0,0-.317-.988,1.246,1.246,0,0,0-1-.37,1.417,1.417,0,0,0-.942.288.978.978,0,0,0-.342.79H57.016a2.389,2.389,0,0,1,.477-1.432,3.155,3.155,0,0,1,1.35-1.033A4.919,4.919,0,0,1,60.8-8.428a3.886,3.886,0,0,1,2.613.827,2.893,2.893,0,0,1,.967,2.325v3.86A4.257,4.257,0,0,0,64.735.5V.64ZM60.365-1.014a2.048,2.048,0,0,0,.971-.235,1.54,1.54,0,0,0,.658-.63V-3.409h-.889q-1.786,0-1.9,1.234l-.008.14a.952.952,0,0,0,.313.732A1.215,1.215,0,0,0,60.365-1.014Z" transform="translate(555.333 159.897)"/>
    <path id="Trazado_177104" data-name="Trazado 177104" d="M1.125-5.277l.691-6.09H8.531v1.983H3.766l-.3,2.576a3.771,3.771,0,0,1,1.8-.453A3.454,3.454,0,0,1,7.955-6.2a4.24,4.24,0,0,1,.971,2.971,4.344,4.344,0,0,1-.49,2.078A3.456,3.456,0,0,1,7.033.274,4.38,4.38,0,0,1,4.877.78,4.651,4.651,0,0,1,2.861.34,3.576,3.576,0,0,1,1.392-.9,3.376,3.376,0,0,1,.82-2.717H3.174A1.758,1.758,0,0,0,3.7-1.553a1.657,1.657,0,0,0,1.173.416,1.462,1.462,0,0,0,1.243-.58,2.688,2.688,0,0,0,.436-1.642,2.222,2.222,0,0,0-.5-1.564,1.842,1.842,0,0,0-1.424-.543,2.059,2.059,0,0,0-1.374.444l-.23.214Zm17.38.938a6.07,6.07,0,0,1-1.029,3.8A3.591,3.591,0,0,1,14.465.78a3.616,3.616,0,0,1-3-1.292,5.892,5.892,0,0,1-1.062-3.7V-6.42a5.99,5.99,0,0,1,1.041-3.81,3.617,3.617,0,0,1,3-1.3,3.621,3.621,0,0,1,3,1.288,5.874,5.874,0,0,1,1.062,3.7ZM16.127-6.758a4.38,4.38,0,0,0-.407-2.168,1.377,1.377,0,0,0-1.271-.679,1.353,1.353,0,0,0-1.239.646,4.1,4.1,0,0,0-.424,2.02v2.913a4.6,4.6,0,0,0,.4,2.177,1.359,1.359,0,0,0,1.28.712,1.336,1.336,0,0,0,1.259-.683,4.488,4.488,0,0,0,.4-2.09Zm3.95-2.3a2.369,2.369,0,0,1,.716-1.79,2.6,2.6,0,0,1,1.876-.687,2.637,2.637,0,0,1,1.893.679,2.414,2.414,0,0,1,.716,1.839v.593a2.339,2.339,0,0,1-.716,1.786,2.624,2.624,0,0,1-1.876.675A2.641,2.641,0,0,1,20.8-6.647a2.4,2.4,0,0,1-.72-1.831Zm1.58.634a1.109,1.109,0,0,0,.284.794.978.978,0,0,0,.745.3.932.932,0,0,0,.732-.3,1.179,1.179,0,0,0,.272-.815v-.609a1.154,1.154,0,0,0-.272-.8.952.952,0,0,0-.749-.3.954.954,0,0,0-.732.3,1.178,1.178,0,0,0-.28.835ZM25.8-2.322a2.339,2.339,0,0,1,.724-1.79A2.633,2.633,0,0,1,28.4-4.791a2.66,2.66,0,0,1,1.889.671,2.4,2.4,0,0,1,.72,1.847v.593A2.356,2.356,0,0,1,30.306.1,2.608,2.608,0,0,1,28.421.78,2.639,2.639,0,0,1,26.52.1a2.386,2.386,0,0,1-.716-1.81Zm1.58.642a1.1,1.1,0,0,0,.3.774.966.966,0,0,0,.741.321q1,0,1-1.111v-.625a1.118,1.118,0,0,0-.28-.794.964.964,0,0,0-.741-.3.964.964,0,0,0-.741.3,1.154,1.154,0,0,0-.28.819Zm-4.23,1.4-1.16-.625,5.851-9.365,1.16.625Z" transform="translate(545.113 67.454)"/>
    <path id="Trazado_177105" data-name="Trazado 177105" d="M1.125-5.277l.691-6.09H8.531v1.983H3.766l-.3,2.576a3.771,3.771,0,0,1,1.8-.453A3.454,3.454,0,0,1,7.955-6.2a4.24,4.24,0,0,1,.971,2.971,4.344,4.344,0,0,1-.49,2.078A3.456,3.456,0,0,1,7.033.274,4.38,4.38,0,0,1,4.877.78,4.651,4.651,0,0,1,2.861.34,3.576,3.576,0,0,1,1.392-.9,3.376,3.376,0,0,1,.82-2.717H3.174A1.758,1.758,0,0,0,3.7-1.553a1.657,1.657,0,0,0,1.173.416,1.462,1.462,0,0,0,1.243-.58,2.688,2.688,0,0,0,.436-1.642,2.222,2.222,0,0,0-.5-1.564,1.842,1.842,0,0,0-1.424-.543,2.059,2.059,0,0,0-1.374.444l-.23.214Zm17.38.938a6.07,6.07,0,0,1-1.029,3.8A3.591,3.591,0,0,1,14.465.78a3.616,3.616,0,0,1-3-1.292,5.892,5.892,0,0,1-1.062-3.7V-6.42a5.99,5.99,0,0,1,1.041-3.81,3.617,3.617,0,0,1,3-1.3,3.621,3.621,0,0,1,3,1.288,5.874,5.874,0,0,1,1.062,3.7ZM16.127-6.758a4.38,4.38,0,0,0-.407-2.168,1.377,1.377,0,0,0-1.271-.679,1.353,1.353,0,0,0-1.239.646,4.1,4.1,0,0,0-.424,2.02v2.913a4.6,4.6,0,0,0,.4,2.177,1.359,1.359,0,0,0,1.28.712,1.336,1.336,0,0,0,1.259-.683,4.488,4.488,0,0,0,.4-2.09Zm3.95-2.3a2.369,2.369,0,0,1,.716-1.79,2.6,2.6,0,0,1,1.876-.687,2.637,2.637,0,0,1,1.893.679,2.414,2.414,0,0,1,.716,1.839v.593a2.339,2.339,0,0,1-.716,1.786,2.624,2.624,0,0,1-1.876.675A2.641,2.641,0,0,1,20.8-6.647a2.4,2.4,0,0,1-.72-1.831Zm1.58.634a1.109,1.109,0,0,0,.284.794.978.978,0,0,0,.745.3.932.932,0,0,0,.732-.3,1.179,1.179,0,0,0,.272-.815v-.609a1.154,1.154,0,0,0-.272-.8.952.952,0,0,0-.749-.3.954.954,0,0,0-.732.3,1.178,1.178,0,0,0-.28.835ZM25.8-2.322a2.339,2.339,0,0,1,.724-1.79A2.633,2.633,0,0,1,28.4-4.791a2.66,2.66,0,0,1,1.889.671,2.4,2.4,0,0,1,.72,1.847v.593A2.356,2.356,0,0,1,30.306.1,2.608,2.608,0,0,1,28.421.78,2.639,2.639,0,0,1,26.52.1a2.386,2.386,0,0,1-.716-1.81Zm1.58.642a1.1,1.1,0,0,0,.3.774.966.966,0,0,0,.741.321q1,0,1-1.111v-.625a1.118,1.118,0,0,0-.28-.794.964.964,0,0,0-.741-.3.964.964,0,0,0-.741.3,1.154,1.154,0,0,0-.28.819Zm-4.23,1.4-1.16-.625,5.851-9.365,1.16.625Z" transform="translate(588.625 67.454)"/>
    <path id="Trazado_177100" data-name="Trazado 177100" d="M-8394.184-6796.867s39.857-8.891,76.829-84.307,76.605,84.307,214.954,84.307" transform="translate(9270.704 6901.405)" fill="none" stroke="#5263e2" stroke-width="4"/>
    <path id="Trazado_177101" data-name="Trazado 177101" d="M-8427.154-6802.162h345.408" transform="translate(9268.945 6906.7)" fill="none" stroke="#12263f" stroke-width="2"/>
    <path id="Trazado_177106" data-name="Trazado 177106" d="M4.242-11.342l3.078,8.69,3.061-8.69h3.242V.64H11.146V-2.635l.247-5.654L8.159.64h-1.7L3.238-8.28l.247,5.645V.64H1.016V-11.342ZM19.721.8A4.371,4.371,0,0,1,16.532-.4,4.271,4.271,0,0,1,15.3-3.6v-.23a5.379,5.379,0,0,1,.518-2.4,3.8,3.8,0,0,1,1.469-1.629,4.123,4.123,0,0,1,2.168-.572,3.7,3.7,0,0,1,2.876,1.152,4.682,4.682,0,0,1,1.049,3.267v.971h-5.67a2.209,2.209,0,0,0,.7,1.4,2.1,2.1,0,0,0,1.469.527,2.567,2.567,0,0,0,2.148-1L23.194-.8A3.57,3.57,0,0,1,21.745.381,4.752,4.752,0,0,1,19.721.8ZM19.449-6.5a1.489,1.489,0,0,0-1.148.477,2.466,2.466,0,0,0-.564,1.366h3.308v-.189a1.758,1.758,0,0,0-.428-1.222A1.537,1.537,0,0,0,19.449-6.5Zm4.913,2.625A5.366,5.366,0,0,1,25.3-7.194a3.031,3.031,0,0,1,2.555-1.234A2.727,2.727,0,0,1,30-7.457V-12h2.387V.64H30.238l-.115-.946A2.8,2.8,0,0,1,27.835.8,3.022,3.022,0,0,1,25.313-.434,5.539,5.539,0,0,1,24.362-3.878ZM26.74-3.7a3.505,3.505,0,0,0,.436,1.917,1.421,1.421,0,0,0,1.267.667A1.592,1.592,0,0,0,30-2.051V-5.565a1.569,1.569,0,0,0-1.539-.93Q26.74-6.495,26.74-3.7Zm10,4.345H34.353v-8.9h2.387ZM34.213-10.568a1.171,1.171,0,0,1,.358-.881,1.345,1.345,0,0,1,.975-.346,1.348,1.348,0,0,1,.971.346,1.164,1.164,0,0,1,.362.881,1.168,1.168,0,0,1-.366.889,1.351,1.351,0,0,1-.967.346,1.351,1.351,0,0,1-.967-.346A1.168,1.168,0,0,1,34.213-10.568ZM43.857.64a2.641,2.641,0,0,1-.239-.8A2.878,2.878,0,0,1,41.372.8,3.161,3.161,0,0,1,39.2.048a2.435,2.435,0,0,1-.86-1.909,2.516,2.516,0,0,1,1.049-2.173A5.177,5.177,0,0,1,42.426-4.8H43.52v-.51A1.467,1.467,0,0,0,43.2-6.3a1.246,1.246,0,0,0-1-.37,1.417,1.417,0,0,0-.942.288.978.978,0,0,0-.342.79H38.541a2.389,2.389,0,0,1,.477-1.432,3.155,3.155,0,0,1,1.35-1.033,4.919,4.919,0,0,1,1.959-.374A3.886,3.886,0,0,1,44.94-7.6a2.893,2.893,0,0,1,.967,2.325v3.86A4.257,4.257,0,0,0,46.26.5V.64ZM41.891-1.014a2.048,2.048,0,0,0,.971-.235,1.54,1.54,0,0,0,.658-.63V-3.409h-.889q-1.786,0-1.9,1.234l-.008.14a.952.952,0,0,0,.313.732A1.215,1.215,0,0,0,41.891-1.014Z" transform="translate(973.514 159.897)"/>
    <path id="Trazado_177107" data-name="Trazado 177107" d="M14.747,0,29.494,25.281H0Z" transform="translate(973.46 104.709)" fill="#ff8578"/>
  </g>
</svg>
