<svg xmlns="http://www.w3.org/2000/svg" width="490.904" height="243.084" viewBox="0 0 490.904 243.084">
  <g id="Grupo_166797" data-name="Grupo 166797" transform="translate(-803.85 -5040.381)">
    <path id="Trazado_197172" data-name="Trazado 197172" d="M-7974.2-9088.2h406.146" transform="translate(8789.791 14323.063)" fill="none" stroke="#12263f" stroke-width="4"/>
    <path id="Trazado_197174" data-name="Trazado 197174" d="M-7728.5-9127.185v-165.55" transform="translate(8742.963 14362.044)" fill="none" stroke="#12263f" stroke-width="2"/>
    <path id="Trazado_197173" data-name="Trazado 197173" d="M-7988.521-9122.31s117.651,8.877,145.015-12.825,47.106-128.471,65.938-122.873,58.6,107.985,66.625,113.583-5.716,29.205,148.476,23.818" transform="translate(8792.521 14355.466)" fill="none" stroke="#ff8578" stroke-width="4"/>
    <path id="Trazado_197291" data-name="Trazado 197291" d="M2.969-4.219,2.234,0H.3L2.281-11.375l3.938.008a3.874,3.874,0,0,1,2.8.974A3.032,3.032,0,0,1,9.9-7.816,3.617,3.617,0,0,1,8.547-5.185a4.907,4.907,0,0,1-3.172.974Zm.273-1.594L5.453-5.8a2.67,2.67,0,0,0,1.715-.531,2.2,2.2,0,0,0,.8-1.484,1.759,1.759,0,0,0-.324-1.395,1.7,1.7,0,0,0-1.309-.566L3.93-9.781Zm18.641.125,1.992-2.766h2.164L22.8-4.2,24.688,0H22.75L21.57-2.883,19.492,0H17.336l3.336-4.375-1.82-4.078h1.938Zm8.3,1.617H26.2L26.469-5.6h3.992Z" transform="translate(1083.163 5118.351)" fill="#12263f"/>
    <path id="Trazado_197292" data-name="Trazado 197292" d="M3.992-5.687,5.984-8.453H8.148L4.914-4.2,6.8,0H4.859L3.68-2.883,1.6,0H-.555L2.781-4.375.961-8.453H2.9ZM12.3-4.07H8.3L8.578-5.6H12.57Z" transform="translate(955.978 5275.557)" fill="#12263f"/>
    <path id="Trazado_197293" data-name="Trazado 197293" d="M3.992-5.687,5.984-8.453H8.148L4.914-4.2,6.8,0H4.859L3.68-2.883,1.6,0H-.555L2.781-4.375.961-8.453H2.9Zm9.367-.57h2.883l-.3,1.734H13.063l-.586,3.383h-1.8l.594-3.383H8.359l.313-1.734h2.891l.547-3.164h1.8Z" transform="translate(1059.385 5275.557)" fill="#12263f"/>
    <path id="Trazado_197294" data-name="Trazado 197294" d="M.531-4.234a6.7,6.7,0,0,1,.7-2.344A3.968,3.968,0,0,1,2.586-8.129a3.121,3.121,0,0,1,1.789-.488,2.5,2.5,0,0,1,2.016.961L7.2-12H9.063L6.977,0H5.32l.125-.875A2.946,2.946,0,0,1,3.133.164a2.325,2.325,0,0,1-1.887-.91A3.975,3.975,0,0,1,.484-3.125,6.316,6.316,0,0,1,.508-4.07Zm1.8.727a2.6,2.6,0,0,0,.3,1.539,1.2,1.2,0,0,0,1.059.586A2.175,2.175,0,0,0,5.539-2.422l.633-3.633A1.445,1.445,0,0,0,4.75-7.062a1.9,1.9,0,0,0-1.711.938A5,5,0,0,0,2.328-3.508Zm10.5-2.18L14.82-8.453h2.164L13.75-4.2,15.633,0H13.7l-1.18-2.883L10.438,0H8.281l3.336-4.375L9.8-8.453h1.938Zm10.414.2,4.172,1.575-.32,1.631L21.242-4.9l.266-1.357,6.867-2.616-.352,1.786ZM26.773-.156H20.328L20.6-1.687h6.445ZM37.852-7.273l2.953-4.1h2.328L38.844-5.648,41.328,0H39.188L37.469-4.164,34.438,0H32.1l4.383-5.82-2.43-5.555H36.18ZM50.414-5.687l1.992-2.766H54.57L51.336-4.2,53.219,0H51.281L50.1-2.883,48.023,0H45.867L49.2-4.375l-1.82-4.078H49.32Zm13.313-.57h2.883l-.3,1.734H63.43l-.586,3.383h-1.8l.594-3.383H58.727l.313-1.734H61.93l.547-3.164h1.8Z" transform="translate(1156.209 5118.351)" fill="#12263f"/>
    <path id="Trazado_197295" data-name="Trazado 197295" d="M.531-4.234a6.7,6.7,0,0,1,.7-2.344A3.968,3.968,0,0,1,2.586-8.129a3.121,3.121,0,0,1,1.789-.488,2.5,2.5,0,0,1,2.016.961L7.2-12H9.063L6.977,0H5.32l.125-.875A2.946,2.946,0,0,1,3.133.164a2.325,2.325,0,0,1-1.887-.91A3.975,3.975,0,0,1,.484-3.125,6.316,6.316,0,0,1,.508-4.07Zm1.8.727a2.6,2.6,0,0,0,.3,1.539,1.2,1.2,0,0,0,1.059.586A2.175,2.175,0,0,0,5.539-2.422l.633-3.633A1.445,1.445,0,0,0,4.75-7.062a1.9,1.9,0,0,0-1.711.938A5,5,0,0,0,2.328-3.508Zm10.5-2.18L14.82-8.453h2.164L13.75-4.2,15.633,0H13.7l-1.18-2.883L10.438,0H8.281l3.336-4.375L9.8-8.453h1.938Z" transform="translate(1007.979 5275.557)" fill="#12263f"/>
    <path id="Trazado_197296" data-name="Trazado 197296" d="M.531-4.234a6.7,6.7,0,0,1,.7-2.344A3.968,3.968,0,0,1,2.586-8.129a3.121,3.121,0,0,1,1.789-.488,2.5,2.5,0,0,1,2.016.961L7.2-12H9.063L6.977,0H5.32l.125-.875A2.946,2.946,0,0,1,3.133.164a2.325,2.325,0,0,1-1.887-.91A3.975,3.975,0,0,1,.484-3.125,6.316,6.316,0,0,1,.508-4.07Zm1.8.727a2.6,2.6,0,0,0,.3,1.539,1.2,1.2,0,0,0,1.059.586A2.175,2.175,0,0,0,5.539-2.422l.633-3.633A1.445,1.445,0,0,0,4.75-7.062a1.9,1.9,0,0,0-1.711.938A5,5,0,0,0,2.328-3.508Zm10.5-2.18L14.82-8.453h2.164L13.75-4.2,15.633,0H13.7l-1.18-2.883L10.438,0H8.281l3.336-4.375L9.8-8.453h1.938Z" transform="translate(1111.386 5275.557)" fill="#12263f"/>
    <path id="Trazado_197297" data-name="Trazado 197297" d="M.531-4.234a6.7,6.7,0,0,1,.7-2.344A3.968,3.968,0,0,1,2.586-8.129a3.121,3.121,0,0,1,1.789-.488,2.5,2.5,0,0,1,2.016.961L7.2-12H9.063L6.977,0H5.32l.125-.875A2.946,2.946,0,0,1,3.133.164a2.325,2.325,0,0,1-1.887-.91A3.975,3.975,0,0,1,.484-3.125,6.316,6.316,0,0,1,.508-4.07Zm1.8.727a2.6,2.6,0,0,0,.3,1.539,1.2,1.2,0,0,0,1.059.586A2.175,2.175,0,0,0,5.539-2.422l.633-3.633A1.445,1.445,0,0,0,4.75-7.062a1.9,1.9,0,0,0-1.711.938A5,5,0,0,0,2.328-3.508Zm10.5-2.18L14.82-8.453h2.164L13.75-4.2,15.633,0H13.7l-1.18-2.883L10.438,0H8.281l3.336-4.375L9.8-8.453h1.938Z" transform="translate(1264.67 5118.351)" fill="#12263f"/>
    <path id="Trazado_197298" data-name="Trazado 197298" d="M2.6-11.543A30.2,30.2,0,0,1,3.779-20.02,24.624,24.624,0,0,1,7.3-27.4a15,15,0,0,1,4.863-4.687l.742,2.383a15.556,15.556,0,0,0-4.678,6.68,28.957,28.957,0,0,0-2,10.059l-.02,1.66A29.108,29.108,0,0,0,8.965,1.777a15.629,15.629,0,0,0,3.945,5.2L12.168,9.18A15.479,15.479,0,0,1,7.207,4.336,27.148,27.148,0,0,1,2.6-11.543Z" transform="translate(1094.19 5123.902)" fill="#12263f"/>
    <path id="Trazado_197299" data-name="Trazado 197299" d="M2.6-11.543A30.2,30.2,0,0,1,3.779-20.02,24.624,24.624,0,0,1,7.3-27.4a15,15,0,0,1,4.863-4.687l.742,2.383a15.556,15.556,0,0,0-4.678,6.68,28.957,28.957,0,0,0-2,10.059l-.02,1.66A29.108,29.108,0,0,0,8.965,1.777a15.629,15.629,0,0,0,3.945,5.2L12.168,9.18A15.479,15.479,0,0,1,7.207,4.336,27.148,27.148,0,0,1,2.6-11.543Z" transform="translate(1297.352 5101.705) rotate(180)" fill="#12263f"/>
    <path id="Trazado_197300" data-name="Trazado 197300" d="M2.339.1A1.7,1.7,0,0,1,.942-.54,2.727,2.727,0,0,1,.483-2.271a6.735,6.735,0,0,1,.049-.723l.19-1.27a4.205,4.205,0,0,1,.923-2.231,2.227,2.227,0,0,1,1.768-.713,1.716,1.716,0,0,1,1.394.625,2.665,2.665,0,0,1,.461,1.719,6.624,6.624,0,0,1-.049.723l-.19,1.235A4.418,4.418,0,0,1,4.1-.627,2.195,2.195,0,0,1,2.339.1ZM4.092-4.331q.063-.557.063-.791-.024-1.1-.806-1.138a1.1,1.1,0,0,0-.957.435,3.122,3.122,0,0,0-.508,1.46L1.66-2.817a6.358,6.358,0,0,0-.054.8q0,1.143.8,1.177,1.1.063,1.421-1.724ZM5.6,1.6l-.62-.391A3.8,3.8,0,0,0,5.688-.142l.181-1.006h1.04l-.127.786A3,3,0,0,1,5.6,1.6ZM8.652-3.54l.933-3.569h3.721l-.161,1.025H10.405l-.5,1.7a2.156,2.156,0,0,1,1.084-.283A1.65,1.65,0,0,1,12.375-4a2.412,2.412,0,0,1,.4,1.694,2.619,2.619,0,0,1-.8,1.748A2.389,2.389,0,0,1,10.21.1,2.023,2.023,0,0,1,8.767-.469a2.062,2.062,0,0,1-.583-1.455H9.292a1.28,1.28,0,0,0,.281.779.9.9,0,0,0,.691.291,1.132,1.132,0,0,0,.911-.4,1.889,1.889,0,0,0,.442-1.094,1.433,1.433,0,0,0-.2-.979.9.9,0,0,0-.771-.383,1.261,1.261,0,0,0-.559.1A2.069,2.069,0,0,0,9.6-3.3Z" transform="translate(990.585 5070.811)" fill="#12263f"/>
    <path id="Trazado_197301" data-name="Trazado 197301" d="M2.573.107a1.87,1.87,0,0,1-1.536-.7,3,3,0,0,1-.5-1.9,7.409,7.409,0,0,1,.054-.795l.209-1.4A4.626,4.626,0,0,1,1.81-7.144a2.45,2.45,0,0,1,1.944-.784,1.888,1.888,0,0,1,1.533.688A2.931,2.931,0,0,1,5.8-5.35a7.286,7.286,0,0,1-.054.795L5.532-3.2A4.86,4.86,0,0,1,4.514-.69,2.414,2.414,0,0,1,2.573.107ZM4.5-4.764q.07-.612.07-.87-.027-1.214-.886-1.251a1.205,1.205,0,0,0-1.053.478A3.434,3.434,0,0,0,2.073-4.8L1.826-3.1a6.994,6.994,0,0,0-.059.875q0,1.257.881,1.294,1.214.07,1.563-1.9Z" transform="translate(1000.298 5230.455)" fill="#12263f"/>
    <path id="Trazado_197302" data-name="Trazado 197302" d="M5.221-7.863,5.113-6.778l-.07-.005a2.85,2.85,0,0,0-1.789.556A3.68,3.68,0,0,0,2.068-4.512a2.181,2.181,0,0,1,1.617-.666,1.744,1.744,0,0,1,1.069.352,1.948,1.948,0,0,1,.645.935A3.066,3.066,0,0,1,5.538-2.6a3.211,3.211,0,0,1-.446,1.4,2.689,2.689,0,0,1-1,.983A2.575,2.575,0,0,1,2.75.113,2.01,2.01,0,0,1,1.241-.548,2.734,2.734,0,0,1,.58-2.229,6.216,6.216,0,0,1,.7-3.765a5.349,5.349,0,0,1,1.49-3.008,4.033,4.033,0,0,1,2.9-1.09ZM3.314-4.13a1.407,1.407,0,0,0-.806.228,1.954,1.954,0,0,0-.634.679,6.751,6.751,0,0,0-.054.773,2.039,2.039,0,0,0,.252,1.09A.831.831,0,0,0,2.8-.945a1.227,1.227,0,0,0,.986-.435A2.052,2.052,0,0,0,4.27-2.562a1.8,1.8,0,0,0-.188-1.117A.872.872,0,0,0,3.314-4.13Z" transform="translate(1223.695 5255.547)" fill="#12263f"/>
    <path id="Trazado_197303" data-name="Trazado 197303" d="M3.035-2.8H.29L.478-3.851H3.223ZM8.776-7.863,8.669-6.778,8.6-6.784a2.85,2.85,0,0,0-1.789.556A3.68,3.68,0,0,0,5.624-4.512,2.181,2.181,0,0,1,7.24-5.178a1.744,1.744,0,0,1,1.069.352,1.948,1.948,0,0,1,.645.935A3.066,3.066,0,0,1,9.093-2.6a3.211,3.211,0,0,1-.446,1.4,2.689,2.689,0,0,1-1,.983,2.575,2.575,0,0,1-1.345.33A2.01,2.01,0,0,1,4.8-.548a2.734,2.734,0,0,1-.661-1.681,6.216,6.216,0,0,1,.124-1.536A5.349,5.349,0,0,1,5.75-6.773a4.033,4.033,0,0,1,2.9-1.09ZM6.87-4.13a1.407,1.407,0,0,0-.806.228,1.954,1.954,0,0,0-.634.679,6.751,6.751,0,0,0-.054.773,2.039,2.039,0,0,0,.252,1.09.831.831,0,0,0,.725.414A1.227,1.227,0,0,0,7.34-1.38a2.052,2.052,0,0,0,.486-1.182,1.8,1.8,0,0,0-.188-1.117A.872.872,0,0,0,6.87-4.13Z" transform="translate(804 5255.547)" fill="#12263f"/>
    <path id="Trazado_197304" data-name="Trazado 197304" d="M3.615-4.845H2.567L1.772.376a2.347,2.347,0,0,1-.639,1.466,1.878,1.878,0,0,1-1.407.521,2.91,2.91,0,0,1-.7-.107l.172-1.021a2.66,2.66,0,0,0,.489.086q.645,0,.8-.908l.811-5.258H.43l.156-.967h.859l.064-.542A2.326,2.326,0,0,1,2.2-7.847,2.073,2.073,0,0,1,3.7-8.374a4.825,4.825,0,0,1,.838.124l-.226,1a2.428,2.428,0,0,0-.5-.064q-.881,0-1.026,1.058l-.059.44H3.765ZM4.49-3.158A9.49,9.49,0,0,1,5.675-6.647,4.953,4.953,0,0,1,7.906-8.766l.193.773A6.907,6.907,0,0,0,5.715-3.545a12.431,12.431,0,0,0-.2,2.132,5.9,5.9,0,0,0,.258,1.9,2.872,2.872,0,0,0,.795,1.281l-.3.714A3.6,3.6,0,0,1,4.853.714a6.881,6.881,0,0,1-.448-2.8,8.336,8.336,0,0,1,.075-.978Zm5.833-.752,1.37-1.9h1.488L10.957-2.89,12.251,0H10.919l-.811-1.982L8.68,0H7.2L9.491-3.008l-1.251-2.8H9.571ZM12.617,2.5l-.2-.741A5.9,5.9,0,0,0,14.2-.631a10.873,10.873,0,0,0,.784-3.558l.021-.666a4.071,4.071,0,0,0-1.053-3.185l.306-.72A3.3,3.3,0,0,1,15.316-7.7a5,5,0,0,1,.65,1.614,7.8,7.8,0,0,1,.191,1.907,9.9,9.9,0,0,1-.529,2.9,7.772,7.772,0,0,1-1.26,2.374A4.744,4.744,0,0,1,12.617,2.5Z" transform="translate(980.253 5049.146)" fill="#12263f"/>
    <path id="Trazado_197178" data-name="Trazado 197178" d="M-8279.633-10154h22.38" transform="translate(9404.885 15268.971)" fill="none" stroke="#12263f" stroke-width="1"/>
    <path id="Trazado_197182" data-name="Trazado 197182" d="M-8279.633-10154h22.38" transform="translate(9259.893 15426.174)" fill="none" stroke="#12263f" stroke-width="1"/>
    <path id="Trazado_197183" data-name="Trazado 197183" d="M-8279.633-10154h22.38" transform="translate(9363.301 15426.174)" fill="none" stroke="#12263f" stroke-width="1"/>
    <path id="Trazado_197179" data-name="Trazado 197179" d="M-8279.633-10154h22.38" transform="translate(9518.18 15268.971)" fill="none" stroke="#12263f" stroke-width="1"/>
    <path id="Trazado_197305" data-name="Trazado 197305" d="M6.824,0H.768V-.844L3.967-4.4A7.6,7.6,0,0,0,4.948-5.71a2.188,2.188,0,0,0,.27-1.044A1.658,1.658,0,0,0,4.78-7.941,1.531,1.531,0,0,0,3.612-8.4a1.814,1.814,0,0,0-1.362.5,1.9,1.9,0,0,0-.486,1.387H.59a2.726,2.726,0,0,1,.822-2.063,3.047,3.047,0,0,1,2.2-.787,2.928,2.928,0,0,1,2.038.676,2.306,2.306,0,0,1,.749,1.8,5.287,5.287,0,0,1-1.739,3.25L2.184-.958h4.64Z" transform="translate(1131.622 5126.262)" fill="#12263f"/>
    <path id="Trazado_197306" data-name="Trazado 197306" d="M6.824,0H.768V-.844L3.967-4.4A7.6,7.6,0,0,0,4.948-5.71a2.188,2.188,0,0,0,.27-1.044A1.658,1.658,0,0,0,4.78-7.941,1.531,1.531,0,0,0,3.612-8.4a1.814,1.814,0,0,0-1.362.5,1.9,1.9,0,0,0-.486,1.387H.59a2.726,2.726,0,0,1,.822-2.063,3.047,3.047,0,0,1,2.2-.787,2.928,2.928,0,0,1,2.038.676,2.306,2.306,0,0,1,.749,1.8,5.287,5.287,0,0,1-1.739,3.25L2.184-.958h4.64Z" transform="translate(986.629 5283.465)" fill="#12263f"/>
    <path id="Trazado_197307" data-name="Trazado 197307" d="M6.824,0H.768V-.844L3.967-4.4A7.6,7.6,0,0,0,4.948-5.71a2.188,2.188,0,0,0,.27-1.044A1.658,1.658,0,0,0,4.78-7.941,1.531,1.531,0,0,0,3.612-8.4a1.814,1.814,0,0,0-1.362.5,1.9,1.9,0,0,0-.486,1.387H.59a2.726,2.726,0,0,1,.822-2.063,3.047,3.047,0,0,1,2.2-.787,2.928,2.928,0,0,1,2.038.676,2.306,2.306,0,0,1,.749,1.8,5.287,5.287,0,0,1-1.739,3.25L2.184-.958h4.64Z" transform="translate(1090.037 5283.465)" fill="#12263f"/>
    <path id="Trazado_197308" data-name="Trazado 197308" d="M6.824,0H.768V-.844L3.967-4.4A7.6,7.6,0,0,0,4.948-5.71a2.188,2.188,0,0,0,.27-1.044A1.658,1.658,0,0,0,4.78-7.941,1.531,1.531,0,0,0,3.612-8.4a1.814,1.814,0,0,0-1.362.5,1.9,1.9,0,0,0-.486,1.387H.59a2.726,2.726,0,0,1,.822-2.063,3.047,3.047,0,0,1,2.2-.787,2.928,2.928,0,0,1,2.038.676,2.306,2.306,0,0,1,.749,1.8,5.287,5.287,0,0,1-1.739,3.25L2.184-.958h4.64Z" transform="translate(1244.917 5126.262)" fill="#12263f"/>
    <path id="Trazado_197309" data-name="Trazado 197309" d="M4.627,0H3.447V-7.827l-2.368.87V-8.023L4.443-9.287h.184Z" transform="translate(1131.622 5107.627)" fill="#12263f"/>
    <path id="Trazado_197310" data-name="Trazado 197310" d="M4.627,0H3.447V-7.827l-2.368.87V-8.023L4.443-9.287h.184Z" transform="translate(986.629 5264.831)" fill="#12263f"/>
    <path id="Trazado_197311" data-name="Trazado 197311" d="M4.627,0H3.447V-7.827l-2.368.87V-8.023L4.443-9.287h.184Z" transform="translate(1090.037 5264.831)" fill="#12263f"/>
    <path id="Trazado_197312" data-name="Trazado 197312" d="M4.627,0H3.447V-7.827l-2.368.87V-8.023L4.443-9.287h.184Z" transform="translate(1244.917 5107.627)" fill="#12263f"/>
    <path id="Trazado_197180" data-name="Trazado 197180" d="M-7708.483-9236.324c-1.894-.553,0,116.481,0,116.481h27.052V-9190.3S-7706.589-9235.771-7708.483-9236.324Z" transform="translate(8739.309 14354.895)" fill="#12263f"/>
    <path id="Trazado_197313" data-name="Trazado 197313" d="M0,0H3.238V9.713H0Z" transform="translate(1027.818 5230.168)" fill="#ff8578"/>
    <path id="Trazado_197314" data-name="Trazado 197314" d="M0,0H3.238V9.713H0Z" transform="translate(1057.766 5230.168)" fill="#ff8578"/>
    <path id="Trazado_197181" data-name="Trazado 197181" d="M-7675-9215.523l17.143-27.7" transform="translate(8732.768 14352.608)" fill="none" stroke="#12263f" stroke-width="3"/>
    <path id="Trazado_197315" data-name="Trazado 197315" d="M5.6,0l5.6,10.077H0Z" transform="matrix(-0.809, -0.588, 0.588, -0.809, 1059.334, 5144.453)" fill="#12263f"/>
  </g>
</svg>
