<svg xmlns="http://www.w3.org/2000/svg" width="586.961" height="52.592" viewBox="0 0 586.961 52.592">
  <g id="Grupo_166888" data-name="Grupo 166888" transform="translate(9360 4208.91)">
    <path id="Trazado_197502" data-name="Trazado 197502" d="M1.016,17V5.625h3.5A5.315,5.315,0,0,1,7.2,6.3,4.712,4.712,0,0,1,9.047,8.223a5.928,5.928,0,0,1,.664,2.832v.523a5.945,5.945,0,0,1-.652,2.82,4.672,4.672,0,0,1-1.84,1.914A5.355,5.355,0,0,1,4.539,17ZM3.359,7.523v7.594H4.492a2.545,2.545,0,0,0,2.1-.9,4.06,4.06,0,0,0,.742-2.57v-.6a4.124,4.124,0,0,0-.719-2.629,2.537,2.537,0,0,0-2.1-.895ZM10.914,12.7a5.013,5.013,0,0,1,.484-2.242A3.546,3.546,0,0,1,12.793,8.93a4.069,4.069,0,0,1,2.113-.539A3.849,3.849,0,0,1,17.7,9.438a4.2,4.2,0,0,1,1.207,2.844l.016.578a4.418,4.418,0,0,1-1.086,3.121,3.775,3.775,0,0,1-2.914,1.176A3.793,3.793,0,0,1,12,15.984a4.5,4.5,0,0,1-1.09-3.187Zm2.258.16a3.16,3.16,0,0,0,.453,1.843,1.628,1.628,0,0,0,2.578.008,3.457,3.457,0,0,0,.461-2.015A3.128,3.128,0,0,0,16.2,10.86a1.5,1.5,0,0,0-1.3-.649,1.474,1.474,0,0,0-1.281.646A3.516,3.516,0,0,0,13.172,12.856Zm9.219-4.309.07.977a2.951,2.951,0,0,1,2.43-1.133,2.453,2.453,0,0,1,2,.789,3.682,3.682,0,0,1,.672,2.359V17H25.3V11.594a1.465,1.465,0,0,0-.312-1.043,1.4,1.4,0,0,0-1.039-.324,1.553,1.553,0,0,0-1.43.813V17H20.266V8.547Zm6.531,4.164a5.094,5.094,0,0,1,.887-3.148,2.877,2.877,0,0,1,2.426-1.172,2.589,2.589,0,0,1,2.039.922V5h2.266V17H34.5l-.109-.9a2.657,2.657,0,0,1-2.172,1.055,2.869,2.869,0,0,1-2.395-1.176A5.258,5.258,0,0,1,28.922,12.711Zm2.258.168a3.337,3.337,0,0,0,.414,1.823,1.349,1.349,0,0,0,1.2.634,1.511,1.511,0,0,0,1.477-.884V11.111a1.489,1.489,0,0,0-1.461-.884Q31.18,10.227,31.18,12.879Zm11,4.277a4.15,4.15,0,0,1-3.027-1.141,4.054,4.054,0,0,1-1.168-3.039v-.219a5.106,5.106,0,0,1,.492-2.277,3.612,3.612,0,0,1,1.395-1.547,3.914,3.914,0,0,1,2.059-.543,3.508,3.508,0,0,1,2.73,1.094,4.444,4.444,0,0,1,1,3.1v.922H40.273a2.1,2.1,0,0,0,.66,1.328,2,2,0,0,0,1.395.5,2.437,2.437,0,0,0,2.039-.945l1.109,1.242A3.389,3.389,0,0,1,44.1,16.754,4.511,4.511,0,0,1,42.18,17.156Zm-.258-6.945a1.411,1.411,0,0,0-1.09.455,2.357,2.357,0,0,0-.535,1.3h3.141v-.181a1.681,1.681,0,0,0-.406-1.165A1.456,1.456,0,0,0,41.922,10.211Zm5.125,5.68a1.137,1.137,0,0,1,.363-.875,1.412,1.412,0,0,1,1.828,0,1.137,1.137,0,0,1,.363.875,1.121,1.121,0,0,1-.359.863,1.435,1.435,0,0,1-1.836,0A1.121,1.121,0,0,1,47.047,15.891Zm0-6.4a1.137,1.137,0,0,1,.363-.875,1.412,1.412,0,0,1,1.828,0,1.137,1.137,0,0,1,.363.875,1.121,1.121,0,0,1-.359.863,1.435,1.435,0,0,1-1.836,0A1.121,1.121,0,0,1,47.047,9.492Z" transform="translate(-9360 -4213.91)" fill="#12263f"/>
    <path id="Trazado_197500" data-name="Trazado 197500" d="M5,0H179.37a5,5,0,0,1,5,5V16.685a5,5,0,0,1-5,5H5a5,5,0,0,1-5-5V5A5,5,0,0,1,5,0Z" transform="translate(-9360 -4178.002)" fill="#a4a3ff"/>
    <path id="Trazado_197497" data-name="Trazado 197497" d="M5,0H182.437a5,5,0,0,1,5,5V16.685a5,5,0,0,1-5,5H5a5,5,0,0,1-5-5V5A5,5,0,0,1,5,0Z" transform="translate(-9165.63 -4178.002)" fill="#a4a3ff"/>
    <path id="Trazado_197496" data-name="Trazado 197496" d="M5,0H193.587a5,5,0,0,1,5,5V16.685a5,5,0,0,1-5,5H5a5,5,0,0,1-5-5V5A5,5,0,0,1,5,0Z" transform="translate(-8971.626 -4178.002)" fill="#a4a3ff"/>
    <path id="Trazado_197501" data-name="Trazado 197501" d="M3.575-5.188,4.819-7.4H6.932L4.826-3.773,7.021,0H4.9L3.582-2.324,2.27,0H.144L2.338-3.773.239-7.4H2.358ZM9.967,0H7.984V-7.4H9.967Zm-2.1-9.311a.973.973,0,0,1,.3-.731,1.117,1.117,0,0,1,.81-.287,1.12,1.12,0,0,1,.807.287.967.967,0,0,1,.3.731.97.97,0,0,1-.3.738,1.122,1.122,0,0,1-.8.287,1.122,1.122,0,0,1-.8-.287A.97.97,0,0,1,7.868-9.311ZM17.78.137a3.1,3.1,0,0,1-1.671-.485A2.761,2.761,0,0,1,15.063-1.62a3.78,3.78,0,0,1-.256-1.8l.021-.28a4.95,4.95,0,0,1,.66-2.027,3.764,3.764,0,0,1,1.336-1.364,3.249,3.249,0,0,1,1.736-.444A2.423,2.423,0,0,1,20.641-6.5a3.8,3.8,0,0,1,.523,2.622l-.1.712H16.413a2.009,2.009,0,0,0,.355,1.417,1.409,1.409,0,0,0,1.148.552,2.491,2.491,0,0,0,1.928-.909l.82.861A3.118,3.118,0,0,1,19.441-.215,3.645,3.645,0,0,1,17.78.137Zm.69-6.344q-1.285-.041-1.928,1.818l3.069.007.027-.144a2.145,2.145,0,0,0,.007-.615,1.258,1.258,0,0,0-.383-.766A1.212,1.212,0,0,0,18.471-6.207Zm7.738,4.156q.116-.677-.878-.94a11.168,11.168,0,0,1-1.357-.42,1.871,1.871,0,0,1-1.36-1.832,2.081,2.081,0,0,1,.906-1.651,3.319,3.319,0,0,1,2.088-.639,2.858,2.858,0,0,1,1.917.663,2.115,2.115,0,0,1,.728,1.7l-1.606-.007a1.037,1.037,0,0,0-.28-.8,1.143,1.143,0,0,0-.807-.3,1.59,1.59,0,0,0-.926.267.994.994,0,0,0-.448.7q-.1.622.875.865a9.6,9.6,0,0,1,1.436.448A1.872,1.872,0,0,1,27.8-2.146,2.044,2.044,0,0,1,27.34-.919a2.693,2.693,0,0,1-1.145.8,3.917,3.917,0,0,1-1.524.256,3.008,3.008,0,0,1-2.006-.7,2.2,2.2,0,0,1-.783-1.771l1.565.007a1.191,1.191,0,0,0,.355.9,1.374,1.374,0,0,0,.937.314,1.86,1.86,0,0,0,1-.25A.957.957,0,0,0,26.209-2.051ZM36.887-.731a2.682,2.682,0,0,1-2.105.868,2.061,2.061,0,0,1-1.193-.355,1.849,1.849,0,0,1-.677-.954,3.491,3.491,0,0,1-.12-1.439l.8-4.785h1.62l-.807,4.806A2.547,2.547,0,0,0,34.4-2.1a.832.832,0,0,0,.854.882,1.956,1.956,0,0,0,1.736-.861l.93-5.318h1.62L38.261,0H36.743ZM42.711-7.4l-.164.868a2.822,2.822,0,0,1,2.194-1,1.788,1.788,0,0,1,1.538.742,2.96,2.96,0,0,1,.369,2.013L45.849,0h-1.62l.807-4.8a2.456,2.456,0,0,0,.007-.547.872.872,0,0,0-.971-.834,1.969,1.969,0,0,0-1.62.909L41.528,0h-1.62l1.278-7.4Zm11.2,5.277L56.253-7.4h1.729L54.339,0H52.931L51.577-7.4H53.2ZM62.084,0a2.194,2.194,0,0,1-.068-.69A2.743,2.743,0,0,1,60.04.137a2.266,2.266,0,0,1-1.6-.619,1.908,1.908,0,0,1-.591-1.535,2.265,2.265,0,0,1,1.012-1.839,4.4,4.4,0,0,1,2.57-.67l1.053.014.1-.506a1.526,1.526,0,0,0,0-.5.89.89,0,0,0-.978-.759,1.474,1.474,0,0,0-.913.263,1.139,1.139,0,0,0-.482.742l-1.62.014a2.028,2.028,0,0,1,.485-1.2,2.878,2.878,0,0,1,1.162-.8,3.934,3.934,0,0,1,1.531-.273,2.587,2.587,0,0,1,1.887.728,2.157,2.157,0,0,1,.561,1.815l-.567,3.466-.055.615a2.185,2.185,0,0,0,.1.786L63.69,0ZM60.416-1.189a1.786,1.786,0,0,0,.95-.236,2.5,2.5,0,0,0,.745-.646l.253-1.4-.772-.007a2.715,2.715,0,0,0-1.463.345,1.266,1.266,0,0,0-.622.947.837.837,0,0,0,.2.721A.986.986,0,0,0,60.416-1.189ZM66.828,0h-1.62l1.825-10.5h1.62Zm2.2-3.726A4.867,4.867,0,0,1,69.668-5.7a3.793,3.793,0,0,1,1.343-1.374,3.319,3.319,0,0,1,1.818-.458,2.825,2.825,0,0,1,1.641.506,2.809,2.809,0,0,1,1.008,1.347,4.276,4.276,0,0,1,.222,1.9A4.957,4.957,0,0,1,75.062-1.7,3.779,3.779,0,0,1,73.708-.318,3.367,3.367,0,0,1,71.88.137a2.812,2.812,0,0,1-1.63-.5,2.819,2.819,0,0,1-1.008-1.34,4.221,4.221,0,0,1-.232-1.876Zm1.593.937A1.953,1.953,0,0,0,71-1.637a1.214,1.214,0,0,0,.96.455,1.7,1.7,0,0,0,1.4-.643,3.381,3.381,0,0,0,.708-1.812l.041-.67a2.367,2.367,0,0,0-.349-1.374,1.224,1.224,0,0,0-1.012-.526,1.771,1.771,0,0,0-1.641,1.019,3.805,3.805,0,0,0-.458,1.463A5.724,5.724,0,0,0,70.622-2.789Zm10.657-3.09a2.984,2.984,0,0,0-.636-.068,1.9,1.9,0,0,0-1.7.882L78.06,0h-1.62l1.278-7.4L79.256-7.4l-.164.841a2.117,2.117,0,0,1,1.75-.984,2.66,2.66,0,0,1,.622.1Zm3.808,2.174A5.86,5.86,0,0,1,85.7-5.756a3.472,3.472,0,0,1,1.183-1.357A2.731,2.731,0,0,1,88.45-7.54a2.185,2.185,0,0,1,1.764.841l.711-3.8h1.627L90.727,0H89.277l.109-.766a2.578,2.578,0,0,1-2.023.909,2.034,2.034,0,0,1-1.651-.8,3.478,3.478,0,0,1-.667-2.082,5.527,5.527,0,0,1,.021-.827Zm1.572.636a2.277,2.277,0,0,0,.263,1.347,1.051,1.051,0,0,0,.926.513,1.9,1.9,0,0,0,1.62-.909L90.022-5.3a1.265,1.265,0,0,0-1.244-.882,1.664,1.664,0,0,0-1.5.82A4.373,4.373,0,0,0,86.659-3.069ZM95.813.137a3.1,3.1,0,0,1-1.671-.485A2.761,2.761,0,0,1,93.1-1.62a3.78,3.78,0,0,1-.256-1.8l.021-.28a4.95,4.95,0,0,1,.66-2.027,3.764,3.764,0,0,1,1.336-1.364,3.249,3.249,0,0,1,1.736-.444A2.423,2.423,0,0,1,98.673-6.5,3.8,3.8,0,0,1,99.2-3.877l-.1.712H94.445A2.009,2.009,0,0,0,94.8-1.748a1.409,1.409,0,0,0,1.148.552,2.491,2.491,0,0,0,1.928-.909l.82.861A3.118,3.118,0,0,1,97.474-.215,3.645,3.645,0,0,1,95.813.137Zm.69-6.344q-1.285-.041-1.928,1.818l3.069.007.027-.144a2.145,2.145,0,0,0,.007-.615,1.258,1.258,0,0,0-.383-.766A1.212,1.212,0,0,0,96.5-6.207ZM104.993,0h-1.62L105.2-10.5h1.62ZM111.2,0a2.194,2.194,0,0,1-.068-.69,2.743,2.743,0,0,1-1.976.827,2.266,2.266,0,0,1-1.6-.619,1.908,1.908,0,0,1-.591-1.535,2.265,2.265,0,0,1,1.012-1.839,4.4,4.4,0,0,1,2.57-.67l1.053.014.1-.506a1.526,1.526,0,0,0,0-.5.89.89,0,0,0-.978-.759,1.474,1.474,0,0,0-.913.263,1.139,1.139,0,0,0-.482.742l-1.62.014a2.028,2.028,0,0,1,.485-1.2,2.878,2.878,0,0,1,1.162-.8,3.934,3.934,0,0,1,1.531-.273,2.587,2.587,0,0,1,1.887.728,2.157,2.157,0,0,1,.561,1.815l-.567,3.466-.055.615a2.185,2.185,0,0,0,.1.786L112.807,0Zm-1.668-1.189a1.786,1.786,0,0,0,.95-.236,2.5,2.5,0,0,0,.745-.646l.253-1.4-.772-.007a2.715,2.715,0,0,0-1.463.345,1.266,1.266,0,0,0-.622.947.837.837,0,0,0,.2.721A.986.986,0,0,0,109.532-1.189ZM120.47-7.4l-.144.786a2.852,2.852,0,0,1,2.188-.916,2.123,2.123,0,0,1,1.159.321,1.521,1.521,0,0,1,.625.813,2.981,2.981,0,0,1,2.352-1.135,1.92,1.92,0,0,1,1.6.742,2.83,2.83,0,0,1,.393,2L127.846,0h-1.62l.807-4.806a2.519,2.519,0,0,0,.007-.554.9.9,0,0,0-1.012-.82,1.705,1.705,0,0,0-1.586,1.1l-.021.15L123.573,0h-1.627l.807-4.785a2.456,2.456,0,0,0,.007-.547.913.913,0,0,0-1.012-.848,1.787,1.787,0,0,0-1.518.813L119.294,0h-1.62l1.278-7.4ZM134.135-.731a2.682,2.682,0,0,1-2.105.868,2.061,2.061,0,0,1-1.193-.355,1.849,1.849,0,0,1-.677-.954,3.491,3.491,0,0,1-.12-1.439l.8-4.785h1.62l-.807,4.806a2.547,2.547,0,0,0-.007.492.832.832,0,0,0,.854.882,1.956,1.956,0,0,0,1.736-.861l.93-5.318h1.62L135.509,0h-1.518Zm6.392.868a3.1,3.1,0,0,1-1.671-.485,2.761,2.761,0,0,1-1.046-1.271,3.78,3.78,0,0,1-.256-1.8l.021-.28a4.95,4.95,0,0,1,.66-2.027,3.764,3.764,0,0,1,1.336-1.364,3.249,3.249,0,0,1,1.736-.444A2.423,2.423,0,0,1,143.387-6.5a3.8,3.8,0,0,1,.523,2.622l-.1.712h-4.655a2.009,2.009,0,0,0,.355,1.417,1.409,1.409,0,0,0,1.148.552,2.491,2.491,0,0,0,1.928-.909l.82.861a3.118,3.118,0,0,1-1.224,1.029A3.645,3.645,0,0,1,140.526.137Zm.69-6.344q-1.285-.041-1.928,1.818l3.069.007.027-.144a2.144,2.144,0,0,0,.007-.615,1.258,1.258,0,0,0-.383-.766A1.212,1.212,0,0,0,141.217-6.207Zm7.738,4.156q.116-.677-.878-.94a11.168,11.168,0,0,1-1.357-.42,1.871,1.871,0,0,1-1.36-1.832,2.081,2.081,0,0,1,.906-1.651,3.319,3.319,0,0,1,2.088-.639,2.858,2.858,0,0,1,1.917.663,2.115,2.115,0,0,1,.728,1.7l-1.606-.007a1.037,1.037,0,0,0-.28-.8,1.143,1.143,0,0,0-.807-.3,1.59,1.59,0,0,0-.926.267.994.994,0,0,0-.448.7q-.1.622.875.865a9.6,9.6,0,0,1,1.436.448,1.872,1.872,0,0,1,1.306,1.859,2.044,2.044,0,0,1-.461,1.227,2.693,2.693,0,0,1-1.145.8,3.917,3.917,0,0,1-1.524.256,3.008,3.008,0,0,1-2.006-.7,2.2,2.2,0,0,1-.783-1.771l1.565.007a1.191,1.191,0,0,0,.355.9,1.374,1.374,0,0,0,.937.314,1.86,1.86,0,0,0,1-.25A.957.957,0,0,0,148.955-2.051Zm6.282-7.144-.314,1.8h1.265l-.212,1.23H154.7l-.7,4.143a1.417,1.417,0,0,0-.007.308q.041.444.547.465a3.088,3.088,0,0,0,.574-.062l-.109,1.3a3.715,3.715,0,0,1-1.019.144,1.513,1.513,0,0,1-1.268-.578,2.09,2.09,0,0,1-.332-1.494l.69-4.225H151.9l.219-1.23H153.3l.314-1.8Zm5.8,3.315a2.984,2.984,0,0,0-.636-.068,1.9,1.9,0,0,0-1.7.882L157.814,0h-1.62l1.278-7.4,1.538-.007-.164.841a2.117,2.117,0,0,1,1.75-.984,2.66,2.66,0,0,1,.622.1ZM165.225,0a2.194,2.194,0,0,1-.068-.69,2.743,2.743,0,0,1-1.976.827,2.266,2.266,0,0,1-1.6-.619,1.908,1.908,0,0,1-.591-1.535A2.265,2.265,0,0,1,162-3.855a4.4,4.4,0,0,1,2.57-.67l1.053.014.1-.506a1.526,1.526,0,0,0,0-.5.89.89,0,0,0-.978-.759,1.474,1.474,0,0,0-.913.263,1.139,1.139,0,0,0-.482.742l-1.62.014a2.028,2.028,0,0,1,.485-1.2,2.878,2.878,0,0,1,1.162-.8,3.934,3.934,0,0,1,1.531-.273,2.587,2.587,0,0,1,1.887.728,2.157,2.157,0,0,1,.561,1.815l-.567,3.466-.055.615a2.185,2.185,0,0,0,.1.786L166.831,0Zm-1.668-1.189a1.786,1.786,0,0,0,.95-.236,2.5,2.5,0,0,0,.745-.646l.253-1.4-.772-.007a2.715,2.715,0,0,0-1.463.345,1.266,1.266,0,0,0-.622.947.837.837,0,0,0,.2.721A.986.986,0,0,0,163.557-1.189Z" transform="translate(-9351.957 -4162.4)" fill="#fff"/>
    <path id="Trazado_197498" data-name="Trazado 197498" d="M3.575-5.188,4.819-7.4H6.932L4.826-3.773,7.021,0H4.9L3.582-2.324,2.27,0H.144L2.338-3.773.239-7.4H2.358ZM5.523-8.8H.807V-9.939H5.523ZM18.122.137a3.232,3.232,0,0,1-2.447-.988,3.666,3.666,0,0,1-.943-2.642v-.232a4.438,4.438,0,0,1,.42-1.965,3.28,3.28,0,0,1,1.176-1.354,2.956,2.956,0,0,1,1.637-.489,2.77,2.77,0,0,1,2.242.95,4.114,4.114,0,0,1,.8,2.721v.526H16a2.629,2.629,0,0,0,.639,1.767A2.009,2.009,0,0,0,18.19-.9a2.2,2.2,0,0,0,1.135-.273,2.851,2.851,0,0,0,.813-.725l.772.6A3.106,3.106,0,0,1,18.122.137Zm-.157-6.631a1.687,1.687,0,0,0-1.285.557,2.708,2.708,0,0,0-.643,1.562h3.705v-.1a2.409,2.409,0,0,0-.52-1.494A1.588,1.588,0,0,0,17.965-6.494Zm8.812,4.532a.931.931,0,0,0-.386-.8,3.718,3.718,0,0,0-1.347-.489,6.367,6.367,0,0,1-1.524-.492,2.169,2.169,0,0,1-.834-.684,1.635,1.635,0,0,1-.27-.943A1.919,1.919,0,0,1,23.184-6.9a3,3,0,0,1,1.965-.629,3.091,3.091,0,0,1,2.041.649,2.063,2.063,0,0,1,.783,1.661H26.7a1.142,1.142,0,0,0-.441-.9,1.652,1.652,0,0,0-1.111-.376,1.729,1.729,0,0,0-1.08.3.947.947,0,0,0-.39.786.767.767,0,0,0,.362.69,4.458,4.458,0,0,0,1.309.444,6.821,6.821,0,0,1,1.535.506,2.239,2.239,0,0,1,.872.708,1.74,1.74,0,0,1,.284,1.008,1.893,1.893,0,0,1-.793,1.589,3.326,3.326,0,0,1-2.058.6,3.725,3.725,0,0,1-1.572-.314,2.557,2.557,0,0,1-1.07-.878,2.117,2.117,0,0,1-.386-1.22h1.265a1.309,1.309,0,0,0,.509,1.008A1.976,1.976,0,0,0,25.19-.9a2.039,2.039,0,0,0,1.152-.291A.893.893,0,0,0,26.776-1.962ZM34.528,0H33.264V-10.5h1.265Zm6.59,0a2.657,2.657,0,0,1-.178-.779,2.822,2.822,0,0,1-2.105.916,2.611,2.611,0,0,1-1.794-.619,2,2,0,0,1-.7-1.569,2.091,2.091,0,0,1,.878-1.794,4.142,4.142,0,0,1,2.471-.639h1.23v-.581a1.42,1.42,0,0,0-.4-1.056,1.593,1.593,0,0,0-1.169-.393,1.844,1.844,0,0,0-1.135.342,1.007,1.007,0,0,0-.458.827H36.49a1.745,1.745,0,0,1,.393-1.07,2.683,2.683,0,0,1,1.066-.817,3.588,3.588,0,0,1,1.48-.3,2.924,2.924,0,0,1,2,.639,2.306,2.306,0,0,1,.752,1.76v3.4a4.162,4.162,0,0,0,.26,1.62V0Zm-2.1-.964a2.223,2.223,0,0,0,1.128-.308,1.861,1.861,0,0,0,.772-.8V-3.589h-.991q-2.324,0-2.324,1.36a1.151,1.151,0,0,0,.4.93A1.524,1.524,0,0,0,39.02-.964Zm9.8-6.433.034.82a2.732,2.732,0,0,1,2.194-.957,2.115,2.115,0,0,1,2.112,1.189,2.8,2.8,0,0,1,.96-.861,2.837,2.837,0,0,1,1.4-.328q2.434,0,2.475,2.577V0H56.731V-4.881a1.7,1.7,0,0,0-.362-1.186,1.6,1.6,0,0,0-1.217-.393,1.677,1.677,0,0,0-1.169.42,1.706,1.706,0,0,0-.54,1.131V0H52.172V-4.847A1.411,1.411,0,0,0,50.593-6.46a1.692,1.692,0,0,0-1.7,1.06V0H47.626V-7.4ZM62.973.137a3.232,3.232,0,0,1-2.447-.988,3.666,3.666,0,0,1-.943-2.642v-.232A4.438,4.438,0,0,1,60-5.691a3.28,3.28,0,0,1,1.176-1.354,2.956,2.956,0,0,1,1.637-.489,2.77,2.77,0,0,1,2.242.95,4.114,4.114,0,0,1,.8,2.721v.526H60.847a2.629,2.629,0,0,0,.639,1.767A2.009,2.009,0,0,0,63.041-.9a2.2,2.2,0,0,0,1.135-.273,2.851,2.851,0,0,0,.813-.725l.772.6A3.106,3.106,0,0,1,62.973.137Zm-.157-6.631a1.687,1.687,0,0,0-1.285.557,2.708,2.708,0,0,0-.643,1.562h3.705v-.1a2.409,2.409,0,0,0-.52-1.494A1.588,1.588,0,0,0,62.815-6.494Zm4.2,2.734A4.333,4.333,0,0,1,67.819-6.5a2.551,2.551,0,0,1,2.112-1.036,2.565,2.565,0,0,1,2.058.889V-10.5h1.265V0H72.092L72.03-.793a2.575,2.575,0,0,1-2.112.93,2.526,2.526,0,0,1-2.1-1.053,4.382,4.382,0,0,1-.81-2.748Zm1.265.144a3.281,3.281,0,0,0,.52,1.969,1.68,1.68,0,0,0,1.436.711,1.845,1.845,0,0,0,1.757-1.08v-3.4A1.859,1.859,0,0,0,70.246-6.46a1.687,1.687,0,0,0-1.449.718A3.612,3.612,0,0,0,68.277-3.616ZM76.59,0H75.325V-7.4H76.59ZM75.223-9.358a.755.755,0,0,1,.188-.52.706.706,0,0,1,.557-.212.717.717,0,0,1,.561.212.747.747,0,0,1,.191.52.722.722,0,0,1-.191.513.73.73,0,0,1-.561.205.718.718,0,0,1-.557-.205A.73.73,0,0,1,75.223-9.358ZM83.18,0A2.657,2.657,0,0,1,83-.779,2.822,2.822,0,0,1,80.9.137,2.611,2.611,0,0,1,79.1-.482a2,2,0,0,1-.7-1.569,2.091,2.091,0,0,1,.878-1.794,4.141,4.141,0,0,1,2.471-.639h1.23v-.581a1.42,1.42,0,0,0-.4-1.056,1.593,1.593,0,0,0-1.169-.393,1.844,1.844,0,0,0-1.135.342,1.007,1.007,0,0,0-.458.827H78.552a1.745,1.745,0,0,1,.393-1.07,2.683,2.683,0,0,1,1.066-.817,3.588,3.588,0,0,1,1.48-.3,2.924,2.924,0,0,1,2,.639,2.306,2.306,0,0,1,.752,1.76v3.4a4.162,4.162,0,0,0,.26,1.62V0Zm-2.1-.964a2.223,2.223,0,0,0,1.128-.308,1.861,1.861,0,0,0,.772-.8V-3.589H81.99q-2.324,0-2.324,1.36a1.151,1.151,0,0,0,.4.93A1.524,1.524,0,0,0,81.081-.964Zm8.306-2.8A4.333,4.333,0,0,1,90.193-6.5a2.551,2.551,0,0,1,2.112-1.036,2.565,2.565,0,0,1,2.058.889V-10.5h1.265V0H94.466L94.4-.793a2.575,2.575,0,0,1-2.112.93A2.526,2.526,0,0,1,90.2-.916a4.382,4.382,0,0,1-.81-2.748Zm1.265.144a3.281,3.281,0,0,0,.52,1.969,1.68,1.68,0,0,0,1.436.711,1.845,1.845,0,0,0,1.757-1.08v-3.4A1.859,1.859,0,0,0,92.62-6.46a1.687,1.687,0,0,0-1.449.718A3.612,3.612,0,0,0,90.651-3.616ZM100.659.137a3.232,3.232,0,0,1-2.447-.988,3.666,3.666,0,0,1-.943-2.642v-.232a4.438,4.438,0,0,1,.42-1.965,3.28,3.28,0,0,1,1.176-1.354,2.956,2.956,0,0,1,1.637-.489,2.77,2.77,0,0,1,2.242.95,4.114,4.114,0,0,1,.8,2.721v.526H98.533a2.629,2.629,0,0,0,.639,1.767,2.009,2.009,0,0,0,1.555.673,2.2,2.2,0,0,0,1.135-.273,2.851,2.851,0,0,0,.813-.725l.772.6A3.106,3.106,0,0,1,100.659.137ZM100.5-6.494a1.687,1.687,0,0,0-1.285.557,2.708,2.708,0,0,0-.643,1.562h3.705v-.1a2.409,2.409,0,0,0-.52-1.494A1.588,1.588,0,0,0,100.5-6.494ZM109.847,0h-1.265V-10.5h1.265Zm6.59,0a2.657,2.657,0,0,1-.178-.779,2.822,2.822,0,0,1-2.105.916,2.611,2.611,0,0,1-1.794-.619,2,2,0,0,1-.7-1.569,2.091,2.091,0,0,1,.878-1.794,4.141,4.141,0,0,1,2.471-.639h1.23v-.581a1.42,1.42,0,0,0-.4-1.056,1.593,1.593,0,0,0-1.169-.393,1.844,1.844,0,0,0-1.135.342,1.007,1.007,0,0,0-.458.827h-1.271a1.745,1.745,0,0,1,.393-1.07,2.683,2.683,0,0,1,1.066-.817,3.588,3.588,0,0,1,1.48-.3,2.924,2.924,0,0,1,2,.639,2.306,2.306,0,0,1,.752,1.76v3.4a4.162,4.162,0,0,0,.26,1.62V0Zm-2.1-.964a2.223,2.223,0,0,0,1.128-.308,1.861,1.861,0,0,0,.772-.8V-3.589h-.991q-2.324,0-2.324,1.36a1.151,1.151,0,0,0,.4.93A1.524,1.524,0,0,0,114.338-.964Zm9.8-6.433.034.82a2.732,2.732,0,0,1,2.194-.957,2.115,2.115,0,0,1,2.112,1.189,2.8,2.8,0,0,1,.96-.861,2.837,2.837,0,0,1,1.4-.328q2.434,0,2.475,2.577V0H132.05V-4.881a1.7,1.7,0,0,0-.362-1.186,1.6,1.6,0,0,0-1.217-.393,1.677,1.677,0,0,0-1.169.42,1.706,1.706,0,0,0-.54,1.131V0H127.49V-4.847a1.411,1.411,0,0,0-1.579-1.613,1.692,1.692,0,0,0-1.7,1.06V0h-1.265V-7.4ZM139.788-.731a2.686,2.686,0,0,1-2.167.868,2.3,2.3,0,0,1-1.8-.687,2.974,2.974,0,0,1-.625-2.034V-7.4h1.265v4.778q0,1.682,1.367,1.682a1.893,1.893,0,0,0,1.928-1.08V-7.4h1.265V0h-1.2Zm6.221.868a3.232,3.232,0,0,1-2.447-.988,3.666,3.666,0,0,1-.943-2.642v-.232a4.438,4.438,0,0,1,.42-1.965,3.279,3.279,0,0,1,1.176-1.354,2.956,2.956,0,0,1,1.637-.489,2.77,2.77,0,0,1,2.242.95,4.114,4.114,0,0,1,.8,2.721v.526h-5.011a2.629,2.629,0,0,0,.639,1.767,2.009,2.009,0,0,0,1.555.673,2.2,2.2,0,0,0,1.135-.273,2.851,2.851,0,0,0,.813-.725l.772.6A3.106,3.106,0,0,1,146.009.137Zm-.157-6.631a1.687,1.687,0,0,0-1.285.557,2.708,2.708,0,0,0-.643,1.562h3.705v-.1a2.409,2.409,0,0,0-.52-1.494A1.588,1.588,0,0,0,145.852-6.494Zm8.812,4.532a.931.931,0,0,0-.386-.8,3.718,3.718,0,0,0-1.347-.489,6.367,6.367,0,0,1-1.524-.492,2.169,2.169,0,0,1-.834-.684,1.635,1.635,0,0,1-.27-.943,1.919,1.919,0,0,1,.769-1.538,3,3,0,0,1,1.965-.629,3.091,3.091,0,0,1,2.041.649,2.063,2.063,0,0,1,.783,1.661h-1.271a1.142,1.142,0,0,0-.441-.9,1.652,1.652,0,0,0-1.111-.376,1.729,1.729,0,0,0-1.08.3.947.947,0,0,0-.39.786.767.767,0,0,0,.362.69,4.458,4.458,0,0,0,1.309.444,6.821,6.821,0,0,1,1.535.506,2.239,2.239,0,0,1,.872.708,1.74,1.74,0,0,1,.284,1.008,1.893,1.893,0,0,1-.793,1.589,3.326,3.326,0,0,1-2.058.6A3.725,3.725,0,0,1,151.5-.178a2.557,2.557,0,0,1-1.07-.878,2.117,2.117,0,0,1-.386-1.22h1.265a1.309,1.309,0,0,0,.509,1.008,1.976,1.976,0,0,0,1.254.373,2.039,2.039,0,0,0,1.152-.291A.893.893,0,0,0,154.663-1.962Zm4.628-7.226V-7.4h1.381v.978h-1.381v4.593a1.027,1.027,0,0,0,.185.667.777.777,0,0,0,.629.222,3.062,3.062,0,0,0,.6-.082V0a3.688,3.688,0,0,1-.971.136,1.575,1.575,0,0,1-1.278-.513,2.2,2.2,0,0,1-.431-1.456V-6.419H156.68V-7.4h1.347V-9.187Zm6.433,2.926a3.79,3.79,0,0,0-.622-.048,1.667,1.667,0,0,0-1.688,1.06V0h-1.265V-7.4h1.23l.021.854a1.969,1.969,0,0,1,1.764-.991,1.292,1.292,0,0,1,.561.1ZM171.179,0A2.657,2.657,0,0,1,171-.779,2.822,2.822,0,0,1,168.9.137,2.611,2.611,0,0,1,167.1-.482a2,2,0,0,1-.7-1.569,2.091,2.091,0,0,1,.878-1.794,4.142,4.142,0,0,1,2.471-.639h1.23v-.581a1.42,1.42,0,0,0-.4-1.056,1.593,1.593,0,0,0-1.169-.393,1.844,1.844,0,0,0-1.135.342,1.007,1.007,0,0,0-.458.827h-1.271a1.745,1.745,0,0,1,.393-1.07,2.683,2.683,0,0,1,1.066-.817,3.588,3.588,0,0,1,1.48-.3,2.924,2.924,0,0,1,2,.639,2.306,2.306,0,0,1,.752,1.76v3.4a4.162,4.162,0,0,0,.26,1.62V0Zm-2.1-.964a2.223,2.223,0,0,0,1.128-.308,1.861,1.861,0,0,0,.772-.8V-3.589h-.991q-2.324,0-2.324,1.36a1.151,1.151,0,0,0,.4.93A1.524,1.524,0,0,0,169.08-.964Z" transform="translate(-9159.611 -4163.425)" fill="#fff"/>
    <path id="Trazado_197499" data-name="Trazado 197499" d="M8.982,0H6.932L2.939-6.549V0H.889V-9.953H2.939l4,6.563V-9.953H8.982ZM17.4.137A3.232,3.232,0,0,1,14.95-.851a3.666,3.666,0,0,1-.943-2.642v-.232a4.438,4.438,0,0,1,.42-1.965A3.28,3.28,0,0,1,15.6-7.044a2.956,2.956,0,0,1,1.637-.489,2.77,2.77,0,0,1,2.242.95,4.114,4.114,0,0,1,.8,2.721v.526H15.271a2.629,2.629,0,0,0,.639,1.767A2.009,2.009,0,0,0,17.466-.9,2.2,2.2,0,0,0,18.6-1.169a2.851,2.851,0,0,0,.813-.725l.772.6A3.106,3.106,0,0,1,17.4.137ZM17.24-6.494a1.687,1.687,0,0,0-1.285.557,2.708,2.708,0,0,0-.643,1.562h3.705v-.1a2.409,2.409,0,0,0-.52-1.494A1.588,1.588,0,0,0,17.24-6.494Zm8.812,4.532a.931.931,0,0,0-.386-.8,3.718,3.718,0,0,0-1.347-.489,6.367,6.367,0,0,1-1.524-.492,2.169,2.169,0,0,1-.834-.684,1.635,1.635,0,0,1-.27-.943A1.919,1.919,0,0,1,22.459-6.9a3,3,0,0,1,1.965-.629,3.091,3.091,0,0,1,2.041.649,2.063,2.063,0,0,1,.783,1.661H25.977a1.142,1.142,0,0,0-.441-.9,1.652,1.652,0,0,0-1.111-.376,1.729,1.729,0,0,0-1.08.3.947.947,0,0,0-.39.786.767.767,0,0,0,.362.69,4.458,4.458,0,0,0,1.309.444,6.821,6.821,0,0,1,1.535.506,2.239,2.239,0,0,1,.872.708,1.74,1.74,0,0,1,.284,1.008,1.893,1.893,0,0,1-.793,1.589,3.326,3.326,0,0,1-2.058.6,3.725,3.725,0,0,1-1.572-.314,2.557,2.557,0,0,1-1.07-.878,2.117,2.117,0,0,1-.386-1.22H22.7a1.309,1.309,0,0,0,.509,1.008A1.976,1.976,0,0,0,24.466-.9a2.039,2.039,0,0,0,1.152-.291A.893.893,0,0,0,26.052-1.962ZM35.5.137a3.232,3.232,0,0,1-2.447-.988,3.666,3.666,0,0,1-.943-2.642v-.232a4.438,4.438,0,0,1,.42-1.965A3.28,3.28,0,0,1,33.7-7.044a2.956,2.956,0,0,1,1.637-.489,2.77,2.77,0,0,1,2.242.95,4.114,4.114,0,0,1,.8,2.721v.526H33.373a2.629,2.629,0,0,0,.639,1.767A2.009,2.009,0,0,0,35.567-.9,2.2,2.2,0,0,0,36.7-1.169a2.851,2.851,0,0,0,.813-.725l.772.6A3.106,3.106,0,0,1,35.5.137Zm-.157-6.631a1.687,1.687,0,0,0-1.285.557,2.708,2.708,0,0,0-.643,1.562h3.705v-.1a2.409,2.409,0,0,0-.52-1.494A1.588,1.588,0,0,0,35.342-6.494ZM41.221,0H39.956V-10.5h1.265Zm7.205-9.187V-7.4h1.381v.978H48.426v4.593a1.027,1.027,0,0,0,.185.667.777.777,0,0,0,.629.222,3.062,3.062,0,0,0,.6-.082V0a3.688,3.688,0,0,1-.971.136,1.575,1.575,0,0,1-1.278-.513,2.2,2.2,0,0,1-.431-1.456V-6.419H45.814V-7.4h1.347V-9.187ZM55.85,0a2.657,2.657,0,0,1-.178-.779,2.822,2.822,0,0,1-2.105.916,2.611,2.611,0,0,1-1.794-.619,2,2,0,0,1-.7-1.569,2.091,2.091,0,0,1,.878-1.794,4.142,4.142,0,0,1,2.471-.639h1.23v-.581a1.42,1.42,0,0,0-.4-1.056,1.593,1.593,0,0,0-1.169-.393,1.844,1.844,0,0,0-1.135.342,1.007,1.007,0,0,0-.458.827H51.222a1.745,1.745,0,0,1,.393-1.07,2.683,2.683,0,0,1,1.066-.817,3.588,3.588,0,0,1,1.48-.3,2.924,2.924,0,0,1,2,.639,2.306,2.306,0,0,1,.752,1.76v3.4a4.162,4.162,0,0,0,.26,1.62V0Zm-2.1-.964a2.223,2.223,0,0,0,1.128-.308,1.861,1.861,0,0,0,.772-.8V-3.589H54.66q-2.324,0-2.324,1.36a1.151,1.151,0,0,0,.4.93A1.524,1.524,0,0,0,53.751-.964ZM60.088-7.4l.034.82a2.732,2.732,0,0,1,2.194-.957,2.115,2.115,0,0,1,2.112,1.189,2.8,2.8,0,0,1,.96-.861,2.837,2.837,0,0,1,1.4-.328q2.434,0,2.475,2.577V0H68V-4.881a1.7,1.7,0,0,0-.362-1.186,1.6,1.6,0,0,0-1.217-.393,1.677,1.677,0,0,0-1.169.42,1.706,1.706,0,0,0-.54,1.131V0H63.438V-4.847A1.411,1.411,0,0,0,61.858-6.46a1.692,1.692,0,0,0-1.7,1.06V0H58.892V-7.4ZM75.735,0a2.657,2.657,0,0,1-.178-.779,2.822,2.822,0,0,1-2.105.916,2.611,2.611,0,0,1-1.794-.619,2,2,0,0,1-.7-1.569,2.091,2.091,0,0,1,.878-1.794,4.141,4.141,0,0,1,2.471-.639h1.23v-.581a1.42,1.42,0,0,0-.4-1.056,1.593,1.593,0,0,0-1.169-.393,1.844,1.844,0,0,0-1.135.342,1.007,1.007,0,0,0-.458.827H71.107a1.745,1.745,0,0,1,.393-1.07,2.683,2.683,0,0,1,1.066-.817,3.588,3.588,0,0,1,1.48-.3,2.924,2.924,0,0,1,2,.639,2.306,2.306,0,0,1,.752,1.76v3.4a4.162,4.162,0,0,0,.26,1.62V0Zm-2.1-.964a2.223,2.223,0,0,0,1.128-.308,1.861,1.861,0,0,0,.772-.8V-3.589h-.991q-2.324,0-2.324,1.36a1.151,1.151,0,0,0,.4.93A1.524,1.524,0,0,0,73.637-.964ZM79.98-7.4l.041.93a2.7,2.7,0,0,1,2.215-1.066q2.345,0,2.365,2.646V0H83.337V-4.895a1.7,1.7,0,0,0-.366-1.183,1.466,1.466,0,0,0-1.118-.383,1.825,1.825,0,0,0-1.08.328,2.228,2.228,0,0,0-.725.861V0H78.784V-7.4Zm4.184-2.885a1.7,1.7,0,0,1-.42,1.2,1.365,1.365,0,0,1-1.049.458,1.54,1.54,0,0,1-.485-.068,2.619,2.619,0,0,1-.537-.28,2.324,2.324,0,0,0-.479-.256,1.171,1.171,0,0,0-.338-.044.627.627,0,0,0-.479.215.781.781,0,0,0-.2.55l-.848-.048a1.784,1.784,0,0,1,.414-1.21,1.326,1.326,0,0,1,1.049-.479,1.275,1.275,0,0,1,.431.068,3.139,3.139,0,0,1,.52.267,3.057,3.057,0,0,0,.5.26,1.154,1.154,0,0,0,.386.062.612.612,0,0,0,.489-.232.815.815,0,0,0,.195-.54Zm2.01,6.515A4.369,4.369,0,0,1,86.6-5.722a3.187,3.187,0,0,1,1.189-1.34,3.238,3.238,0,0,1,1.74-.472,3.119,3.119,0,0,1,2.444,1.046,4.024,4.024,0,0,1,.933,2.782v.089a4.407,4.407,0,0,1-.414,1.938A3.14,3.14,0,0,1,91.311-.342a3.275,3.275,0,0,1-1.767.479A3.111,3.111,0,0,1,87.107-.909a4,4,0,0,1-.933-2.769Zm1.271.15a3.164,3.164,0,0,0,.571,1.976A1.827,1.827,0,0,0,89.544-.9a1.816,1.816,0,0,0,1.531-.755,3.46,3.46,0,0,0,.567-2.116,3.159,3.159,0,0,0-.578-1.972,1.836,1.836,0,0,0-1.535-.755,1.816,1.816,0,0,0-1.511.745A3.434,3.434,0,0,0,87.445-3.616ZM97.651-3.76A4.333,4.333,0,0,1,98.458-6.5a2.551,2.551,0,0,1,2.112-1.036,2.565,2.565,0,0,1,2.058.889V-10.5h1.265V0H102.73l-.062-.793a2.575,2.575,0,0,1-2.112.93,2.526,2.526,0,0,1-2.1-1.053,4.382,4.382,0,0,1-.81-2.748Zm1.265.144a3.281,3.281,0,0,0,.52,1.969,1.68,1.68,0,0,0,1.436.711,1.845,1.845,0,0,0,1.757-1.08v-3.4a1.859,1.859,0,0,0-1.743-1.046,1.687,1.687,0,0,0-1.449.718A3.612,3.612,0,0,0,98.916-3.616ZM108.924.137a3.232,3.232,0,0,1-2.447-.988,3.666,3.666,0,0,1-.943-2.642v-.232a4.438,4.438,0,0,1,.42-1.965,3.28,3.28,0,0,1,1.176-1.354,2.956,2.956,0,0,1,1.637-.489,2.77,2.77,0,0,1,2.242.95,4.114,4.114,0,0,1,.8,2.721v.526H106.8a2.629,2.629,0,0,0,.639,1.767,2.009,2.009,0,0,0,1.555.673,2.2,2.2,0,0,0,1.135-.273,2.851,2.851,0,0,0,.813-.725l.772.6A3.106,3.106,0,0,1,108.924.137Zm-.157-6.631a1.687,1.687,0,0,0-1.285.557,2.708,2.708,0,0,0-.643,1.562h3.705v-.1a2.409,2.409,0,0,0-.52-1.494A1.588,1.588,0,0,0,108.767-6.494ZM118.111,0h-1.265V-10.5h1.265Zm6.59,0a2.657,2.657,0,0,1-.178-.779,2.822,2.822,0,0,1-2.105.916,2.611,2.611,0,0,1-1.794-.619,2,2,0,0,1-.7-1.569,2.091,2.091,0,0,1,.878-1.794,4.141,4.141,0,0,1,2.471-.639h1.23v-.581a1.42,1.42,0,0,0-.4-1.056,1.593,1.593,0,0,0-1.169-.393,1.844,1.844,0,0,0-1.135.342,1.007,1.007,0,0,0-.458.827h-1.271a1.745,1.745,0,0,1,.393-1.07,2.683,2.683,0,0,1,1.066-.817,3.588,3.588,0,0,1,1.48-.3,2.924,2.924,0,0,1,2,.639,2.306,2.306,0,0,1,.752,1.76v3.4a4.162,4.162,0,0,0,.26,1.62V0Zm-2.1-.964a2.223,2.223,0,0,0,1.128-.308,1.861,1.861,0,0,0,.772-.8V-3.589h-.991q-2.324,0-2.324,1.36a1.151,1.151,0,0,0,.4.93A1.524,1.524,0,0,0,122.6-.964Zm9.8-6.433.034.82a2.732,2.732,0,0,1,2.194-.957,2.115,2.115,0,0,1,2.112,1.189,2.8,2.8,0,0,1,.96-.861,2.837,2.837,0,0,1,1.4-.328q2.434,0,2.475,2.577V0h-1.265V-4.881a1.7,1.7,0,0,0-.362-1.186,1.6,1.6,0,0,0-1.217-.393,1.677,1.677,0,0,0-1.169.42,1.706,1.706,0,0,0-.54,1.131V0h-1.271V-4.847a1.411,1.411,0,0,0-1.579-1.613,1.692,1.692,0,0,0-1.7,1.06V0h-1.265V-7.4ZM148.053-.731a2.686,2.686,0,0,1-2.167.868,2.3,2.3,0,0,1-1.8-.687,2.974,2.974,0,0,1-.625-2.034V-7.4h1.265v4.778q0,1.682,1.367,1.682a1.893,1.893,0,0,0,1.928-1.08V-7.4h1.265V0h-1.2Zm6.221.868a3.232,3.232,0,0,1-2.447-.988,3.666,3.666,0,0,1-.943-2.642v-.232a4.438,4.438,0,0,1,.42-1.965,3.279,3.279,0,0,1,1.176-1.354,2.956,2.956,0,0,1,1.637-.489,2.77,2.77,0,0,1,2.242.95,4.114,4.114,0,0,1,.8,2.721v.526h-5.011a2.629,2.629,0,0,0,.639,1.767,2.009,2.009,0,0,0,1.555.673,2.2,2.2,0,0,0,1.135-.273,2.851,2.851,0,0,0,.813-.725l.772.6A3.106,3.106,0,0,1,154.273.137Zm-.157-6.631a1.687,1.687,0,0,0-1.285.557,2.708,2.708,0,0,0-.643,1.562h3.705v-.1a2.409,2.409,0,0,0-.52-1.494A1.588,1.588,0,0,0,154.116-6.494Zm8.812,4.532a.931.931,0,0,0-.386-.8,3.718,3.718,0,0,0-1.347-.489,6.367,6.367,0,0,1-1.524-.492,2.169,2.169,0,0,1-.834-.684,1.635,1.635,0,0,1-.27-.943,1.919,1.919,0,0,1,.769-1.538,3,3,0,0,1,1.965-.629,3.091,3.091,0,0,1,2.041.649,2.063,2.063,0,0,1,.783,1.661h-1.271a1.142,1.142,0,0,0-.441-.9,1.652,1.652,0,0,0-1.111-.376,1.729,1.729,0,0,0-1.08.3.947.947,0,0,0-.39.786.767.767,0,0,0,.362.69,4.458,4.458,0,0,0,1.309.444,6.821,6.821,0,0,1,1.535.506,2.239,2.239,0,0,1,.872.708,1.74,1.74,0,0,1,.284,1.008A1.893,1.893,0,0,1,163.4-.461a3.326,3.326,0,0,1-2.058.6,3.725,3.725,0,0,1-1.572-.314,2.557,2.557,0,0,1-1.07-.878,2.117,2.117,0,0,1-.386-1.22h1.265a1.309,1.309,0,0,0,.509,1.008,1.976,1.976,0,0,0,1.254.373,2.039,2.039,0,0,0,1.152-.291A.893.893,0,0,0,162.928-1.962Zm4.628-7.226V-7.4h1.381v.978h-1.381v4.593a1.027,1.027,0,0,0,.185.667.777.777,0,0,0,.629.222,3.062,3.062,0,0,0,.6-.082V0A3.688,3.688,0,0,1,168,.137a1.575,1.575,0,0,1-1.278-.513,2.2,2.2,0,0,1-.431-1.456V-6.419h-1.347V-7.4h1.347V-9.187Zm6.433,2.926a3.79,3.79,0,0,0-.622-.048,1.667,1.667,0,0,0-1.688,1.06V0h-1.265V-7.4h1.23l.021.854a1.969,1.969,0,0,1,1.764-.991,1.292,1.292,0,0,1,.561.1ZM179.443,0a2.657,2.657,0,0,1-.178-.779,2.822,2.822,0,0,1-2.105.916,2.611,2.611,0,0,1-1.794-.619,2,2,0,0,1-.7-1.569,2.091,2.091,0,0,1,.878-1.794,4.142,4.142,0,0,1,2.471-.639h1.23v-.581a1.42,1.42,0,0,0-.4-1.056,1.593,1.593,0,0,0-1.169-.393,1.844,1.844,0,0,0-1.135.342,1.007,1.007,0,0,0-.458.827h-1.271a1.745,1.745,0,0,1,.393-1.07,2.683,2.683,0,0,1,1.066-.817,3.588,3.588,0,0,1,1.48-.3,2.924,2.924,0,0,1,2,.639,2.306,2.306,0,0,1,.752,1.76v3.4a4.162,4.162,0,0,0,.26,1.62V0Zm-2.1-.964a2.223,2.223,0,0,0,1.128-.308,1.861,1.861,0,0,0,.772-.8V-3.589h-.991q-2.324,0-2.324,1.36a1.151,1.151,0,0,0,.4.93A1.524,1.524,0,0,0,177.345-.964Z" transform="translate(-8962.951 -4163.425)" fill="#fff"/>
  </g>
</svg>
