<svg xmlns="http://www.w3.org/2000/svg" width="483" height="164" viewBox="0 0 483 164">
  <g id="Grupo_166886" data-name="Grupo 166886" transform="translate(9320 4943)">
    <path id="Trazado_197465" data-name="Trazado 197465" d="M10,0H473a10,10,0,0,1,10,10V154a10,10,0,0,1-10,10H10A10,10,0,0,1,0,154V10A10,10,0,0,1,10,0Z" transform="translate(-9320 -4943)" fill="#a4a3ff"/>
    <path id="Trazado_197267" data-name="Trazado 197267" d="M-9212.887-7584.17l11.949-7.26,8.52,23.671,20.566-103.66h258.1" transform="translate(46.614 2747.218)" fill="none" stroke="#fff" stroke-width="4"/>
    <path id="Trazado_197467" data-name="Trazado 197467" d="M38.429-29.707H6.513L7.884-37.4H39.762ZM35.61-13.559H3.732l1.333-7.655H36.981Z" transform="translate(-9221.5 -4852.202)" fill="#fff"/>
    <path id="Trazado_197468" data-name="Trazado 197468" d="M4.456-39.139A29.7,29.7,0,0,0,6.8-31.083a22.55,22.55,0,0,0,4.475,6.608A17.365,17.365,0,0,0,24.68-19.029q6.7-.152,10.512-4.589t4.151-12.016a36.359,36.359,0,0,0-.152-5.256l-.5-3.161q-1.676-8.493-6.379-13.216A14.911,14.911,0,0,0,20.871-61.8,12.829,12.829,0,0,0,10.74-57.153L7.046-76.844H-2.019Zm7.351-10.931a7.336,7.336,0,0,1,6.97-4.38,9.219,9.219,0,0,1,7.465,3.294q3.009,3.409,3.809,9.464a51.431,51.431,0,0,1,.3,6.779q-.3,4.3-1.923,6.36a5.806,5.806,0,0,1-4.589,2.171,7.953,7.953,0,0,1-6.779-3.561,21.848,21.848,0,0,1-3.656-9.807Z" transform="translate(-9309.924 -4896.447) rotate(97)" fill="#fff"/>
    <path id="Trazado_197469" data-name="Trazado 197469" d="M27.163-17.873,8.09,2.276H32.761l-1.046,6H-2.738l.861-4.983,21.441-21.9L5.691-40.452l.769-4.337H39.19l-1.046,6h-23.5L27.224-18.765Z" transform="translate(-9115.153 -4852.832)" fill="#fff"/>
    <path id="Trazado_197470" data-name="Trazado 197470" d="M3.271,0H.378L2.673-13.208H5.566ZM3.088-16.589a1.632,1.632,0,0,1,.439-1.147,1.609,1.609,0,0,1,1.184-.5A1.539,1.539,0,0,1,5.89-17.8a1.5,1.5,0,0,1,.47,1.117A1.544,1.544,0,0,1,5.9-15.54a1.678,1.678,0,0,1-1.166.476,1.565,1.565,0,0,1-1.172-.421A1.452,1.452,0,0,1,3.088-16.589Zm15.54,7.068H8.4l.439-2.466H19.055Zm-.9,5.176H7.507L7.935-6.8H18.164ZM27.832,0H24.951l2.466-14.209L22.925-12.72l.452-2.625,7.031-2.49h.439Z" transform="translate(-9077.153 -4843.832)" fill="#fff"/>
    <path id="Trazado_197471" data-name="Trazado 197471" d="M12.472,0H9.9L5.017-11.2,3.072,0H.419L3.137-15.641H5.7L10.592-4.394l1.955-11.247h2.643Z" transform="translate(-9077.153 -4902.53)" fill="#fff"/>
    <path id="Trazado_197472" data-name="Trazado 197472" d="M10.334,0H.118l.3-1.9,6.5-6.241a5.933,5.933,0,0,0,2-3.212,2.3,2.3,0,0,0-.344-1.7,1.764,1.764,0,0,0-1.45-.725,2.633,2.633,0,0,0-2.009.747,3.5,3.5,0,0,0-.988,2.154l-2.535.011a5.285,5.285,0,0,1,.875-2.589,5.229,5.229,0,0,1,2.041-1.789,5.767,5.767,0,0,1,2.755-.607,4.617,4.617,0,0,1,3.228,1.182,3.636,3.636,0,0,1,1.047,3.051,7.79,7.79,0,0,1-2.632,4.63l-.666.655L3.717-2.084h6.95Z" transform="translate(-8897.879 -4902.53)" fill="#fff"/>
    <g id="Grupo_166738" data-name="Grupo 166738" transform="translate(-8992.137 -4910.825)">
      <text id="x" transform="translate(1 57.879)" fill="#fff" font-size="29" font-family="Roboto-MediumItalic, Roboto" font-weight="500" font-style="italic"><tspan x="0" y="0">x</tspan></text>
    </g>
    <path id="Trazado_197473" data-name="Trazado 197473" d="M2.617,0H.3L2.139-10.566H4.453ZM2.471-13.271a1.305,1.305,0,0,1,.352-.918,1.288,1.288,0,0,1,.947-.4,1.231,1.231,0,0,1,.942.347,1.2,1.2,0,0,1,.376.894,1.235,1.235,0,0,1-.366.918,1.342,1.342,0,0,1-.933.381,1.252,1.252,0,0,1-.937-.337A1.162,1.162,0,0,1,2.471-13.271Z" transform="translate(-8970.907 -4831.998)" fill="#fff"/>
    <path id="Trazado_197474" data-name="Trazado 197474" d="M4.875-22.395a67.3,67.3,0,0,1,8.4-24.737Q19.652-57.967,29.1-62.156l1.371,5.484Q17.443-46.617,13.559-25.137a88.147,88.147,0,0,0-1.447,15.12,41.823,41.823,0,0,0,1.828,13.5,20.362,20.362,0,0,0,5.637,9.083l-2.133,5.065q-6.513-4.037-10-12.568a48.79,48.79,0,0,1-3.18-19.881A59.106,59.106,0,0,1,4.8-21.747Z" transform="translate(-9026.286 -4842.502)" fill="#fff"/>
    <path id="Trazado_197475" data-name="Trazado 197475" d="M-2.669,17.483l-1.391-5.188A41.309,41.309,0,0,0,8.422-4.418q4.512-10.509,5.489-24.908l.15-4.662q0-15.829-7.369-22.3l2.143-5.038a23.092,23.092,0,0,1,7.388,7.388,34.993,34.993,0,0,1,4.549,11.3,54.612,54.612,0,0,1,1.335,13.347A69.305,69.305,0,0,1,18.4-8.967,54.4,54.4,0,0,1,9.587,7.651,33.2,33.2,0,0,1-2.669,17.483Z" transform="translate(-8919.668 -4843.502)" fill="#fff"/>
    <path id="Trazado_197476" data-name="Trazado 197476" d="M7.236-10.309l3.611-5.013h3.922l-5.862,7.7L12.319,0H8.808L6.669-5.225,2.9,0H-1.005L5.041-7.93l-3.3-7.392H5.253Z" transform="translate(-8991.137 -4852.946)" fill="#fff"/>
    <path id="Trazado_197477" data-name="Trazado 197477" d="M8.276-7.632H.791L1.3-10.5H8.789Z" transform="translate(-8965.773 -4851.946)" fill="#fff"/>
    <path id="Trazado_197478" data-name="Trazado 197478" d="M11.813,2.984H-2.109L-1.578,0H12.344Z" transform="translate(-8937.535 -4880.825)" fill="#fff"/>
    <path id="Trazado_197479" data-name="Trazado 197479" d="M7.236-10.309l3.611-5.013h3.922l-5.862,7.7L12.319,0H8.808L6.669-5.225,2.9,0H-1.005L5.041-7.93l-3.3-7.392H5.253Z" transform="translate(-8940.465 -4852.946)" fill="#fff"/>
    <path id="Trazado_197466" data-name="Trazado 197466" d="M5.783-14.807,5.455-13.07a5.645,5.645,0,0,1,4.389-2,3.576,3.576,0,0,1,3.076,1.483,5.921,5.921,0,0,1,.738,4.026L12.059,0H8.818l1.613-9.6a4.911,4.911,0,0,0,.014-1.094A1.743,1.743,0,0,0,8.5-12.359a3.938,3.938,0,0,0-3.24,1.818L3.418,0H.178L2.734-14.793ZM22.969-7.123H15.982l.479-2.68h6.986ZM33.059,0H29.832l2.762-15.914-5.031,1.668.506-2.939,7.875-2.789h.492Z" transform="translate(-9018 -4795)" fill="#fff"/>
    <path id="Trazado_197273" data-name="Trazado 197273" d="M-9613.244-9288.434h257.582" transform="translate(488.523 4467.893)" fill="#fff" stroke="#fff" stroke-width="3"/>
  </g>
</svg>
