<svg xmlns="http://www.w3.org/2000/svg" width="295" height="81" viewBox="0 0 295 81">
  <g id="Grupo_166797" data-name="Grupo 166797" transform="translate(-420 -1218)">
    <path id="Trazado_197291" data-name="Trazado 197291" d="M10,0H285a10,10,0,0,1,10,10V71a10,10,0,0,1-10,10H10A10,10,0,0,1,0,71V10A10,10,0,0,1,10,0Z" transform="translate(420 1218)" fill="#a4a3ff"/>
    <path id="Trazado_197293" data-name="Trazado 197293" d="M6.993-10.248l2.933-5.393h3.706L9.077-7.885,13.75,0H10L6.993-5.479,3.985,0H.236L4.909-7.885.354-15.641H4.061ZM18.995,7H17.184V.02L15.022.69V-.782L18.8-2.136h.194ZM34.272-8.755H38.15v2.8H34.272v4.383H31.318V-5.951H27.429v-2.8h3.889v-4.2h2.954ZM51.3-10.248l2.933-5.393h3.706L53.382-7.885,58.055,0H54.306L51.3-5.479,48.29,0H44.541l4.673-7.885-4.555-7.756h3.706ZM65.154,7H58.9V5.759l2.951-3.145a7.281,7.281,0,0,0,.9-1.159,1.862,1.862,0,0,0,.291-.94,1.394,1.394,0,0,0-.307-.956,1.108,1.108,0,0,0-.877-.348,1.2,1.2,0,0,0-.968.423A1.675,1.675,0,0,0,60.536.747H58.719a2.991,2.991,0,0,1,.4-1.523,2.8,2.8,0,0,1,1.125-1.081,3.419,3.419,0,0,1,1.648-.392,3.237,3.237,0,0,1,2.19.677A2.394,2.394,0,0,1,64.86.339a3.068,3.068,0,0,1-.351,1.379,7.66,7.66,0,0,1-1.2,1.635L61.232,5.54h3.922ZM78.576-8.755h3.878v2.8H78.576v4.383H75.622V-5.951H71.734v-2.8h3.889v-4.2h2.954ZM90.038-1.525a1.563,1.563,0,0,1,.5-1.2,1.772,1.772,0,0,1,1.251-.462,1.787,1.787,0,0,1,1.262.462,1.563,1.563,0,0,1,.5,1.2,1.542,1.542,0,0,1-.494,1.187,1.794,1.794,0,0,1-1.268.457,1.78,1.78,0,0,1-1.257-.457A1.542,1.542,0,0,1,90.038-1.525Zm5.081,0a1.563,1.563,0,0,1,.5-1.2A1.772,1.772,0,0,1,96.87-3.19a1.787,1.787,0,0,1,1.262.462,1.563,1.563,0,0,1,.5,1.2,1.542,1.542,0,0,1-.494,1.187A1.794,1.794,0,0,1,96.87.118a1.78,1.78,0,0,1-1.257-.457A1.542,1.542,0,0,1,95.119-1.525Zm4.984,0a1.563,1.563,0,0,1,.5-1.2,1.772,1.772,0,0,1,1.251-.462,1.787,1.787,0,0,1,1.262.462,1.563,1.563,0,0,1,.5,1.2,1.542,1.542,0,0,1-.494,1.187,1.794,1.794,0,0,1-1.268.457A1.78,1.78,0,0,1,100.6-.338,1.542,1.542,0,0,1,100.1-1.525Zm17.714-7.229H121.7v2.8h-3.878v4.383h-2.954V-5.951h-3.889v-2.8h3.889v-4.2h2.954Zm17.026-1.493,2.933-5.393h3.706l-4.555,7.756L141.6,0h-3.749l-3.008-5.479L131.836,0h-3.749l4.673-7.885-4.555-7.756h3.706ZM144.189.22l.056.783a2.367,2.367,0,0,1,1.949-.909,1.967,1.967,0,0,1,1.6.633,2.953,2.953,0,0,1,.539,1.892V7h-1.811V2.664a1.175,1.175,0,0,0-.251-.836,1.122,1.122,0,0,0-.833-.26,1.246,1.246,0,0,0-1.147.652V7h-1.811V.22Z" transform="translate(487.633 1253)" fill="#fff"/>
    <path id="Trazado_176778" data-name="Trazado 176778" d="M-8279.633-10154h203.578" transform="translate(8745.633 11421)" fill="none" stroke="#fff" stroke-width="1"/>
    <path id="Trazado_197292" data-name="Trazado 197292" d="M4.05-11.623l.1,1.343a4.058,4.058,0,0,1,3.341-1.558,3.372,3.372,0,0,1,2.75,1.085,5.062,5.062,0,0,1,.924,3.244V0h-3.1V-7.434a2.014,2.014,0,0,0-.43-1.434A1.924,1.924,0,0,0,6.2-9.313,2.136,2.136,0,0,0,4.232-8.2V0h-3.1V-11.623Z" transform="translate(560.633 1287)" fill="#fff"/>
  </g>
</svg>
