<svg xmlns="http://www.w3.org/2000/svg" width="402" height="155" viewBox="0 0 402 155">
  <g id="Grupo_166882" data-name="Grupo 166882" transform="translate(9280 6940)">
    <path id="Trazado_197418" data-name="Trazado 197418" d="M10,0H392a10,10,0,0,1,10,10V145a10,10,0,0,1-10,10H10A10,10,0,0,1,0,145V10A10,10,0,0,1,10,0Z" transform="translate(-9280 -6940)" fill="#a4a3ff"/>
    <path id="Trazado_197423" data-name="Trazado 197423" d="M12.213,0H.14L.5-2.247,8.176-9.623a7.011,7.011,0,0,0,2.361-3.8,2.722,2.722,0,0,0-.406-2.012,2.084,2.084,0,0,0-1.714-.857,3.112,3.112,0,0,0-2.374.882A4.131,4.131,0,0,0,4.875-12.86l-3,.013a6.246,6.246,0,0,1,1.035-3.06,6.179,6.179,0,0,1,2.412-2.114,6.816,6.816,0,0,1,3.256-.717,5.456,5.456,0,0,1,3.815,1.4,4.3,4.3,0,0,1,1.238,3.605q-.216,2.59-3.11,5.472l-.787.774L4.393-2.463h8.214Z" transform="translate(-9218.891 -6856.792)" fill="#fff"/>
    <path id="Trazado_197422" data-name="Trazado 197422" d="M23.156-17.9H3.924l.826-4.636H23.959Zm-1.7,9.73H2.249l.8-4.613H22.284Z" transform="translate(-9191.894 -6834)" fill="#fff"/>
    <path id="Trazado_197420" data-name="Trazado 197420" d="M20.264-13.333,6.036,1.7H24.441l-.78,4.475h-25.7L-1.4,2.456l16-16.34L4.246-30.178l.574-3.236H29.237l-.78,4.475H10.924L20.31-14Zm22.123-.161A40.55,40.55,0,0,1,47.448-28.4a21.164,21.164,0,0,1,9.535-9.053l.826,3.3q-7.849,6.059-10.189,19a53.114,53.114,0,0,0-.872,9.111,25.2,25.2,0,0,0,1.1,8.135,12.269,12.269,0,0,0,3.4,5.473L49.96,10.625a15.39,15.39,0,0,1-6.024-7.573A29.4,29.4,0,0,1,42.02-8.927a35.615,35.615,0,0,1,.321-4.177Zm28.687-7.872,8.675-12.048h6.839l-12.6,16.822L81.286,0H75L69.949-12.232,61.045,0H54.183L67.058-17.1,59.92-33.414h6.242Zm22.972,9.409H82.319l.8-4.5H94.849Z" transform="translate(-9109.894 -6870)" fill="#fff"/>
    <path id="Trazado_197419" data-name="Trazado 197419" d="M26.644,0H21.159L10.717-23.936,6.563,0H.9L6.7-33.414h5.485L22.628-9.386,26.8-33.414H32.45Z" transform="translate(-9051.894 -6798)" fill="#fff"/>
    <path id="Trazado_197421" data-name="Trazado 197421" d="M-1.629,10.671-2.479,7.5A25.215,25.215,0,0,0,5.141-2.7,46.459,46.459,0,0,0,8.491-17.9l.092-2.846q0-9.662-4.5-13.609L5.393-37.43a14.1,14.1,0,0,1,4.51,4.51,21.359,21.359,0,0,1,2.777,6.9,33.335,33.335,0,0,1,.815,8.147,42.3,42.3,0,0,1-2.26,12.4A33.206,33.206,0,0,1,5.852,4.67,20.268,20.268,0,0,1-1.629,10.671Z" transform="translate(-8969.894 -6870)" fill="#fff"/>
    <path id="Trazado_197425" data-name="Trazado 197425" d="M2.685-22.827A17.9,17.9,0,0,0,4.1-17.973a13.588,13.588,0,0,0,2.7,3.982,10.464,10.464,0,0,0,8.078,3.282,8.166,8.166,0,0,0,6.334-2.765,11.587,11.587,0,0,0,2.5-7.24,21.909,21.909,0,0,0-.092-3.167l-.3-1.9a15.119,15.119,0,0,0-3.844-7.963,8.985,8.985,0,0,0-6.9-2.731,7.731,7.731,0,0,0-6.1,2.8L4.246-45.547H-1.216Zm4.429-6.586a4.42,4.42,0,0,1,4.2-2.639,5.555,5.555,0,0,1,4.5,1.985,10.489,10.489,0,0,1,2.295,5.7,30.991,30.991,0,0,1,.184,4.085,7,7,0,0,1-1.159,3.833,3.5,3.5,0,0,1-2.765,1.308,4.792,4.792,0,0,1-4.085-2.146,13.165,13.165,0,0,1-2.2-5.909Z" transform="translate(-9265.858 -6862.109) rotate(97)" fill="#fff"/>
    <g id="X_" data-name="X " transform="translate(-8999.955 -6920.992)" style="isolation: isolate">
      <text id="_" data-name="µ" transform="translate(0 47)" fill="#fff" font-size="51" font-family="Roboto-Medium, Roboto" font-weight="500" style="isolation: isolate"><tspan x="0" y="0">µ</tspan></text>
    </g>
    <path id="Trazado_197424" data-name="Trazado 197424" d="M12.213,0H.14L.5-2.247,8.176-9.623a7.011,7.011,0,0,0,2.361-3.8,2.722,2.722,0,0,0-.406-2.012,2.084,2.084,0,0,0-1.714-.857,3.112,3.112,0,0,0-2.374.882A4.131,4.131,0,0,0,4.875-12.86l-3,.013a6.246,6.246,0,0,1,1.035-3.06,6.179,6.179,0,0,1,2.412-2.114,6.816,6.816,0,0,1,3.256-.717,5.456,5.456,0,0,1,3.815,1.4,4.3,4.3,0,0,1,1.238,3.605q-.216,2.59-3.11,5.472l-.787.774L4.393-2.463h8.214Z" transform="translate(-8948.773 -6906.179)" fill="#fff"/>
    <path id="Trazado_197258" data-name="Trazado 197258" d="M-9613.244-9288.434h226.6" transform="translate(471.427 2441.409)" fill="#fff" stroke="#fff" stroke-width="3"/>
  </g>
</svg>
