<svg xmlns="http://www.w3.org/2000/svg" xmlns:xlink="http://www.w3.org/1999/xlink" width="319" height="264" viewBox="0 0 319 264">
  <defs>
    <clipPath id="clip-path">
      <rect id="Rectángulo_49831" data-name="Rectángulo 49831" width="156.689" height="144.235" fill="#ffde96"/>
    </clipPath>
    <clipPath id="clip-path-2">
      <rect id="Rectángulo_49830" data-name="Rectángulo 49830" width="156.689" height="144.071" fill="#ffde96"/>
    </clipPath>
    <clipPath id="clip-path-3">
      <rect id="Rectángulo_49841" data-name="Rectángulo 49841" width="133.983" height="204.2" fill="none"/>
    </clipPath>
    <clipPath id="clip-path-5">
      <rect id="Rectángulo_49838" data-name="Rectángulo 49838" width="64.063" height="15.28" fill="none"/>
    </clipPath>
    <clipPath id="clip-path-6">
      <rect id="Rectángulo_49839" data-name="Rectángulo 49839" width="15.63" height="40.912" fill="none"/>
    </clipPath>
  </defs>
  <g id="Grupo_166685" data-name="Grupo 166685" transform="translate(-1049 -27086.82)">
    <g id="Grupo_165821" data-name="Grupo 165821" transform="translate(1097.976 27206.111)" style="isolation: isolate">
      <g id="Grupo_165802" data-name="Grupo 165802" clip-path="url(#clip-path)">
        <path id="Trazado_178028" data-name="Trazado 178028" d="M156.04,75.027C154.11,59.7,148.048,44.462,140.159,32,129.9,15.784,113.5,2.775,94.049.364,80.281-1.342,64.582,3,53.934,12.328A41.482,41.482,0,0,0,42.151,29.345C39.546,36.5,38.435,44.7,32.82,50.314c-6.748,6.749-16.067,9.978-23.039,16.421-15.457,14.284-10.945,40.086,2.077,54.338,11.721,12.829,29.111,10.455,44.747,12.874,11.87,1.835,22.143,8.529,34.274,9.8a62.014,62.014,0,0,0,48.544-16.177c14.988-14.128,19.028-33.395,16.617-52.537" transform="translate(0 0)" fill="#ffde96"/>
        <g id="Grupo_165801" data-name="Grupo 165801" opacity="0.7">
          <g id="Grupo_165800" data-name="Grupo 165800" style="isolation: isolate">
            <g id="Grupo_165799" data-name="Grupo 165799" clip-path="url(#clip-path-2)">
              <path id="Trazado_178029" data-name="Trazado 178029" d="M156.04,75.027C154.11,59.7,148.048,44.462,140.159,32,129.9,15.784,113.5,2.775,94.049.364,80.281-1.342,64.582,3,53.934,12.328A41.482,41.482,0,0,0,42.151,29.345C39.546,36.5,38.435,44.7,32.82,50.314c-6.748,6.749-16.067,9.978-23.039,16.421-15.457,14.284-10.945,40.086,2.077,54.338,11.721,12.829,29.111,10.455,44.747,12.874,11.87,1.835,22.143,8.529,34.274,9.8a62.014,62.014,0,0,0,48.544-16.177c14.988-14.128,19.028-33.395,16.617-52.537" transform="translate(0 0)" fill="#ffde96"/>
            </g>
          </g>
        </g>
      </g>
    </g>
    <g id="Slate_Board" data-name="Slate Board" transform="translate(1149.815 27112.588)">
      <g id="Grupo_576" data-name="Grupo 576" transform="translate(0 0)">
        <g id="Grupo_428" data-name="Grupo 428" transform="translate(1.8 2.056)">
          <rect id="Rectángulo_26" data-name="Rectángulo 26" width="204.566" height="155.188" fill="#fff"/>
        </g>
        <g id="Grupo_437" data-name="Grupo 437">
          <g id="Grupo_436" data-name="Grupo 436">
            <g id="Grupo_429" data-name="Grupo 429" transform="translate(0.128 0.128)">
              <path id="Trazado_88" data-name="Trazado 88" d="M479.521,203.421H270.054V43.077H479.521Zm-206.238-3.229H476.292V46.306H273.283Z" transform="translate(-270.054 -43.077)" fill="#e0e0e0"/>
            </g>
            <g id="Grupo_435" data-name="Grupo 435">
              <g id="Grupo_430" data-name="Grupo 430" transform="translate(0.128 0.128)">
                <path id="Trazado_89" data-name="Trazado 89" d="M479.521,203.421H270.054V43.077H479.521Zm-206.238-3.229H476.292V46.306H273.283Z" transform="translate(-270.054 -43.077)" fill="none"/>
              </g>
              <g id="Grupo_432" data-name="Grupo 432" transform="translate(3.251 3.229)">
                <g id="Grupo_431" data-name="Grupo 431">
                  <path id="Trazado_90" data-name="Trazado 90" d="M276.512,203.4c0-.872-.042-60.813-.106-153.887v-.105h.106L479.5,49.383h.145v.128c0,55.363-.008,107.778-.012,153.887v.116h-.116L276.512,203.4l203.009-.116-.116.116c0-46.109-.008-98.524-.012-153.887l.128.128H479.5l-202.992-.023.105-.105C276.553,142.584,276.512,202.526,276.512,203.4Z" transform="translate(-276.406 -49.383)" fill="#263238"/>
                </g>
              </g>
              <g id="Grupo_434" data-name="Grupo 434">
                <g id="Grupo_433" data-name="Grupo 433">
                  <path id="Trazado_91" data-name="Trazado 91" d="M479.388,203.289c0-.876-.042-63.428-.105-160.344l.105.105-209.449.023h-.018l.128-.128c0,57.728-.009,112.362-.013,160.344l-.116-.115,209.467.116-209.467.115h-.115v-.116c0-47.982-.008-102.616-.013-160.344v-.128h.146l209.449.023h.106v.106C479.43,139.86,479.389,202.414,479.388,203.289Z" transform="translate(-269.794 -42.816)" fill="#263238"/>
                </g>
              </g>
            </g>
          </g>
        </g>
        <g id="Grupo_458" data-name="Grupo 458" transform="translate(149.065 128.326)">
          <g id="Grupo_439" data-name="Grupo 439" transform="translate(0 0.051)">
            <g id="Grupo_438" data-name="Grupo 438">
              <path id="Trazado_92" data-name="Trazado 92" d="M577.486,304.049a16.642,16.642,0,0,0-4.227,14.585c.122.615,1.062.355.94-.259a15.617,15.617,0,0,1,3.977-13.636c.433-.454-.255-1.144-.689-.689Z" transform="translate(-572.95 -303.9)" fill="#263238"/>
            </g>
          </g>
          <g id="Grupo_440" data-name="Grupo 440" transform="translate(5.103 2.902)">
            <path id="Trazado_93" data-name="Trazado 93" d="M586.335,313.333a.962.962,0,0,1-.483-.294,4.484,4.484,0,0,1-.536.22,1.34,1.34,0,0,1-.394.074,1.559,1.559,0,0,1-1.2-.427,2.032,2.032,0,0,1,.19-2.641,1.96,1.96,0,0,1,1.409-.567,1.9,1.9,0,0,1,.728.177q.5.213.5.495a.3.3,0,0,1-.076.207,2.131,2.131,0,0,0-.051.329q-.018.2-.019.464a3.214,3.214,0,0,0,.089.9c.007.02.057.134.152.341a1.736,1.736,0,0,1,.129.321.363.363,0,0,1-.134.288A.464.464,0,0,1,586.335,313.333Zm-.821-2.233a2.43,2.43,0,0,1,.015-.243q.015-.137.045-.306a.757.757,0,0,0-.117-.048.348.348,0,0,0-.088-.015,1.056,1.056,0,0,0-.787.353,1.272,1.272,0,0,0-.179,1.482.546.546,0,0,0,.477.224,1.113,1.113,0,0,0,.388-.068,1.213,1.213,0,0,0,.346-.2A10.306,10.306,0,0,1,585.514,311.1Z" transform="translate(-583.328 -309.698)" fill="#263238"/>
          </g>
          <g id="Grupo_441" data-name="Grupo 441" transform="translate(15.778)">
            <path id="Trazado_94" data-name="Trazado 94" d="M607.757,307.644a.407.407,0,0,1-.453-.4l-.092-.685a5.107,5.107,0,0,1-.05-.684c0-.058,0-.156.011-.3s.012-.237.012-.294c0-.016,0-.055.007-.118s.006-.114.006-.154q0-.274-.132-.274a.738.738,0,0,0-.556.364,2.762,2.762,0,0,0-.426.924c0,.075-.014.174-.028.3a2.6,2.6,0,0,0-.018.3,2.864,2.864,0,0,1-.022.286,2.867,2.867,0,0,0-.022.286.426.426,0,0,1-.131.321.489.489,0,0,1-.656,0,.428.428,0,0,1-.129-.319c0-.063-.007-.157-.02-.285s-.02-.222-.02-.285q0-.324.046-.9c.031-.384.046-.684.046-.9,0-.067,0-.168-.011-.3s-.012-.233-.012-.3a.4.4,0,0,1,.134-.312.47.47,0,0,1,.329-.123q.433,0,.463.52l0,.036a1.43,1.43,0,0,1,1.019-.486.867.867,0,0,1,.863.522,2.664,2.664,0,0,1,.158,1.049v.235c0,.1,0,.173,0,.215a4.006,4.006,0,0,0,.071.665,4.034,4.034,0,0,1,.071.661.4.4,0,0,1-.133.307A.464.464,0,0,1,607.757,307.644Z" transform="translate(-605.038 -303.797)" fill="#263238"/>
          </g>
          <g id="Grupo_442" data-name="Grupo 442" transform="translate(31.685)">
            <path id="Trazado_95" data-name="Trazado 95" d="M640.109,307.644a.407.407,0,0,1-.453-.4c-.031-.227-.062-.456-.093-.685a5.185,5.185,0,0,1-.049-.684c0-.058,0-.156.011-.3s.011-.237.011-.294c0-.016,0-.055.007-.118s.007-.114.007-.154q0-.274-.133-.274a.739.739,0,0,0-.556.364,2.761,2.761,0,0,0-.426.924q-.006.112-.028.3a2.479,2.479,0,0,0-.019.3,2.811,2.811,0,0,1-.021.286,2.725,2.725,0,0,0-.022.286.426.426,0,0,1-.131.321.489.489,0,0,1-.656,0,.427.427,0,0,1-.129-.319c0-.063-.006-.157-.02-.285s-.02-.222-.02-.285q0-.324.047-.9c.031-.384.046-.684.046-.9,0-.067,0-.168-.012-.3s-.011-.233-.011-.3a.406.406,0,0,1,.134-.312.472.472,0,0,1,.329-.123q.433,0,.463.52l0,.036a1.431,1.431,0,0,1,1.019-.486.868.868,0,0,1,.863.522,2.673,2.673,0,0,1,.158,1.049v.235c0,.1,0,.173,0,.215a4,4,0,0,0,.071.665,4.084,4.084,0,0,1,.071.661.4.4,0,0,1-.132.307A.465.465,0,0,1,640.109,307.644Z" transform="translate(-637.389 -303.797)" fill="#263238"/>
          </g>
          <g id="Grupo_443" data-name="Grupo 443" transform="translate(31.685 9.518)">
            <path id="Trazado_96" data-name="Trazado 96" d="M640.109,327a.407.407,0,0,1-.453-.4c-.031-.227-.062-.455-.093-.684a5.185,5.185,0,0,1-.049-.685c0-.058,0-.155.011-.295s.011-.237.011-.294c0-.015,0-.054.007-.117s.007-.115.007-.154c0-.183-.044-.274-.133-.274a.739.739,0,0,0-.556.364,2.752,2.752,0,0,0-.426.924q-.006.111-.028.3a2.48,2.48,0,0,0-.019.3,2.82,2.82,0,0,1-.021.286,2.717,2.717,0,0,0-.022.286.426.426,0,0,1-.131.32.488.488,0,0,1-.656,0,.427.427,0,0,1-.129-.318q0-.094-.02-.285c-.013-.127-.02-.222-.02-.285q0-.323.047-.9t.046-.9q0-.1-.012-.3t-.011-.3a.405.405,0,0,1,.134-.311.472.472,0,0,1,.329-.123q.433,0,.463.519l0,.036a1.431,1.431,0,0,1,1.019-.486.868.868,0,0,1,.863.523,2.668,2.668,0,0,1,.158,1.048v.235q0,.153,0,.215a4,4,0,0,0,.071.665,4.089,4.089,0,0,1,.071.662.4.4,0,0,1-.132.307A.465.465,0,0,1,640.109,327Z" transform="translate(-637.389 -323.154)" fill="#263238"/>
          </g>
          <g id="Grupo_444" data-name="Grupo 444" transform="translate(5.615 10.695)">
            <path id="Trazado_97" data-name="Trazado 97" d="M585.98,330.9a2.4,2.4,0,0,1-.88-.162.4.4,0,0,1-.3.122.432.432,0,0,1-.306-.119.391.391,0,0,1-.127-.3c0-.053,0-.134.01-.243s.01-.19.01-.243v-3.748a.835.835,0,0,1,.106-.423.412.412,0,0,1,.377-.235c.237,0,.354.128.354.384a1.227,1.227,0,0,1-.012.138,1.336,1.336,0,0,0-.011.137v1.267a2.444,2.444,0,0,1,.47-.2,1.5,1.5,0,0,1,.434-.068,1.569,1.569,0,0,1,1.257.566,1.925,1.925,0,0,1,.447,1.283,1.794,1.794,0,0,1-.52,1.3A1.753,1.753,0,0,1,585.98,330.9Zm.126-2.848a1.012,1.012,0,0,0-.4.1,2.985,2.985,0,0,0-.506.3q0,.314,0,1.405a2.03,2.03,0,0,0,.777.2.916.916,0,0,0,.691-.283.988.988,0,0,0,.271-.713,1.112,1.112,0,0,0-.222-.711A.747.747,0,0,0,586.106,328.049Z" transform="translate(-584.369 -325.548)" fill="#263238"/>
          </g>
          <g id="Grupo_446" data-name="Grupo 446" transform="translate(3.168 8.017)">
            <g id="Grupo_445" data-name="Grupo 445">
              <path id="Trazado_98" data-name="Trazado 98" d="M579.864,321.076h7.2a.488.488,0,0,0,0-.975h-7.2a.488.488,0,0,0,0,.975Z" transform="translate(-579.393 -320.101)" fill="#263238"/>
            </g>
          </g>
          <g id="Grupo_447" data-name="Grupo 447" transform="translate(26.221 2.902)">
            <path id="Trazado_99" data-name="Trazado 99" d="M629.283,313.333a.962.962,0,0,1-.483-.294,4.455,4.455,0,0,1-.536.22,1.34,1.34,0,0,1-.394.074,1.558,1.558,0,0,1-1.2-.427,1.807,1.807,0,0,1-.4-1.277,1.825,1.825,0,0,1,.589-1.364,1.96,1.96,0,0,1,1.409-.567,1.9,1.9,0,0,1,.728.177q.5.213.5.495a.305.305,0,0,1-.077.207,2.146,2.146,0,0,0-.051.329q-.018.2-.018.464a3.222,3.222,0,0,0,.089.9c.007.02.058.134.153.341a1.723,1.723,0,0,1,.129.321.364.364,0,0,1-.134.288A.463.463,0,0,1,629.283,313.333Zm-.821-2.233a2.319,2.319,0,0,1,.015-.243q.015-.137.044-.306a.738.738,0,0,0-.117-.048.345.345,0,0,0-.088-.015,1.056,1.056,0,0,0-.787.353,1.272,1.272,0,0,0-.179,1.482.547.547,0,0,0,.477.224,1.112,1.112,0,0,0,.388-.068,1.206,1.206,0,0,0,.346-.2A10.422,10.422,0,0,1,628.462,311.1Z" transform="translate(-626.276 -309.698)" fill="#263238"/>
          </g>
          <g id="Grupo_448" data-name="Grupo 448" transform="translate(26.733 10.695)">
            <path id="Trazado_100" data-name="Trazado 100" d="M628.928,330.9a2.406,2.406,0,0,1-.88-.162.4.4,0,0,1-.3.122.433.433,0,0,1-.306-.119.391.391,0,0,1-.127-.3c0-.053,0-.134.01-.243s.01-.19.01-.243v-3.748a.836.836,0,0,1,.106-.423.412.412,0,0,1,.377-.235c.237,0,.354.128.354.384a1.327,1.327,0,0,1-.011.138,1.261,1.261,0,0,0-.012.137v1.267a2.453,2.453,0,0,1,.469-.2,1.5,1.5,0,0,1,.434-.068,1.569,1.569,0,0,1,1.257.566,1.925,1.925,0,0,1,.446,1.283,1.792,1.792,0,0,1-.52,1.3A1.752,1.752,0,0,1,628.928,330.9Zm.126-2.848a1.008,1.008,0,0,0-.4.1,2.961,2.961,0,0,0-.506.3q0,.314,0,1.405a2.031,2.031,0,0,0,.777.2.918.918,0,0,0,.692-.283.99.99,0,0,0,.271-.713,1.112,1.112,0,0,0-.222-.711A.745.745,0,0,0,629.054,328.049Z" transform="translate(-627.317 -325.548)" fill="#263238"/>
          </g>
          <g id="Grupo_450" data-name="Grupo 450" transform="translate(24.287 8.017)">
            <g id="Grupo_449" data-name="Grupo 449">
              <path id="Trazado_101" data-name="Trazado 101" d="M622.813,321.076h7.2a.488.488,0,0,0,0-.975h-7.2a.488.488,0,0,0,0,.975Z" transform="translate(-622.342 -320.101)" fill="#263238"/>
            </g>
          </g>
          <g id="Grupo_452" data-name="Grupo 452" transform="translate(10.824 0.936)">
            <g id="Grupo_451" data-name="Grupo 451">
              <path id="Trazado_102" data-name="Trazado 102" d="M595.879,320.729a17.161,17.161,0,0,0,1.472-14.7c-.214-.584-1.156-.331-.94.26a16.217,16.217,0,0,1-1.373,13.944c-.328.536.514,1.027.841.492Z" transform="translate(-594.963 -305.701)" fill="#263238"/>
            </g>
          </g>
          <g id="Grupo_454" data-name="Grupo 454" transform="translate(17.143 7.3)">
            <g id="Grupo_453" data-name="Grupo 453">
              <path id="Trazado_103" data-name="Trazado 103" d="M608.3,319.619h3.349a.488.488,0,0,0,0-.975H608.3a.488.488,0,0,0,0,.975Z" transform="translate(-607.815 -318.644)" fill="#263238"/>
            </g>
          </g>
          <g id="Grupo_456" data-name="Grupo 456" transform="translate(17.143 9.155)">
            <g id="Grupo_455" data-name="Grupo 455">
              <path id="Trazado_104" data-name="Trazado 104" d="M608.3,323.391h3.349a.487.487,0,0,0,0-.975H608.3a.487.487,0,1,0,0,.975Z" transform="translate(-607.815 -322.416)" fill="#263238"/>
            </g>
          </g>
          <g id="Grupo_457" data-name="Grupo 457" transform="translate(5.103 2.902)">
            <path id="Trazado_105" data-name="Trazado 105" d="M586.335,313.333a.962.962,0,0,1-.483-.294,4.484,4.484,0,0,1-.536.22,1.34,1.34,0,0,1-.394.074,1.559,1.559,0,0,1-1.2-.427,2.032,2.032,0,0,1,.19-2.641,1.96,1.96,0,0,1,1.409-.567,1.9,1.9,0,0,1,.728.177q.5.213.5.495a.3.3,0,0,1-.076.207,2.131,2.131,0,0,0-.051.329q-.018.2-.019.464a3.214,3.214,0,0,0,.089.9c.007.02.057.134.152.341a1.736,1.736,0,0,1,.129.321.363.363,0,0,1-.134.288A.464.464,0,0,1,586.335,313.333Zm-.821-2.233a2.43,2.43,0,0,1,.015-.243q.015-.137.045-.306a.757.757,0,0,0-.117-.048.348.348,0,0,0-.088-.015,1.056,1.056,0,0,0-.787.353,1.272,1.272,0,0,0-.179,1.482.546.546,0,0,0,.477.224,1.113,1.113,0,0,0,.388-.068,1.213,1.213,0,0,0,.346-.2A10.306,10.306,0,0,1,585.514,311.1Z" transform="translate(-583.328 -309.698)" fill="#263238"/>
          </g>
        </g>
        <g id="Grupo_485" data-name="Grupo 485" transform="translate(110.989 20.532)">
          <g id="Grupo_460" data-name="Grupo 460" transform="translate(1.702 0.535)">
            <g id="Grupo_459" data-name="Grupo 459">
              <path id="Trazado_106" data-name="Trazado 106" d="M498.975,86.2v31.585a.57.57,0,0,0,.562.562h59.049c2.71,0,5.436.089,8.145,0,.04,0,.079,0,.119,0a.562.562,0,0,0,0-1.123h-64.59a21.4,21.4,0,0,0-2.6,0,.95.95,0,0,1-.118,0l.562.562V86.2a.562.562,0,0,0-1.123,0Z" transform="translate(-498.975 -85.66)" fill="#263238"/>
            </g>
          </g>
          <g id="Grupo_462" data-name="Grupo 462">
            <g id="Grupo_461" data-name="Grupo 461">
              <path id="Trazado_107" data-name="Trazado 107" d="M496.563,87.771l1.482-2.062.217-.3h-.97l1.611,2.154a.577.577,0,0,0,.769.2.567.567,0,0,0,.2-.768l-1.611-2.154a.572.572,0,0,0-.97,0L495.81,86.9l-.216.3a.564.564,0,0,0,.2.768.576.576,0,0,0,.768-.2Z" transform="translate(-495.514 -84.572)" fill="#263238"/>
            </g>
          </g>
          <g id="Grupo_464" data-name="Grupo 464" transform="translate(67.836 30.443)">
            <g id="Grupo_463" data-name="Grupo 463">
              <path id="Trazado_108" data-name="Trazado 108" d="M633.748,147.534l2.062,1.482.3.217v-.97l-2.154,1.611a.576.576,0,0,0-.2.769.567.567,0,0,0,.768.2l2.154-1.611a.572.572,0,0,0,0-.97l-2.063-1.482-.3-.216a.564.564,0,0,0-.768.2.576.576,0,0,0,.2.768Z" transform="translate(-633.474 -146.485)" fill="#263238"/>
            </g>
          </g>
          <g id="Grupo_466" data-name="Grupo 466" transform="translate(3.564 5.313)">
            <g id="Grupo_465" data-name="Grupo 465">
              <path id="Trazado_109" data-name="Trazado 109" d="M503.89,119.817c2.411-5.718,3.9-11.948,7.678-16.989,3.133-4.183,8.086-7.274,13.469-6.064a8.666,8.666,0,0,1,5.872,4.448c1.343,2.487,1.929,5.328,3.665,7.607a7.28,7.28,0,0,0,2.979,2.405,6.97,6.97,0,0,0,4.2.225c3.051-.693,5.475-2.82,8.421-3.766a7.127,7.127,0,0,1,4.8.067,9.612,9.612,0,0,1,3.674,2.62c2.3,2.556,3.271,6.006,4.214,9.229a.562.562,0,0,0,1.082-.3c-.877-3-1.787-6.108-3.65-8.667a10.374,10.374,0,0,0-6.81-4.408c-3.207-.415-5.961,1.406-8.671,2.825a11.113,11.113,0,0,1-4.734,1.5,5.21,5.21,0,0,1-3.855-1.541c-2.118-2.075-2.763-5.1-4.005-7.694a9.91,9.91,0,0,0-5.693-5.29,12.343,12.343,0,0,0-7.56-.1,15.669,15.669,0,0,0-6.827,4.48c-4.942,5.335-6.579,12.595-9.33,19.118-.28.665.806.955,1.083.3Z" transform="translate(-502.762 -95.378)" fill="#263238"/>
            </g>
          </g>
          <g id="Grupo_484" data-name="Grupo 484" transform="translate(41.558 1.763)">
            <g id="Grupo_467" data-name="Grupo 467" transform="translate(0 4.138)">
              <path id="Trazado_110" data-name="Trazado 110" d="M583.612,100.9a1.138,1.138,0,0,1-.575-.351,5.162,5.162,0,0,1-.638.262,1.582,1.582,0,0,1-.469.089,1.856,1.856,0,0,1-1.424-.508,2.418,2.418,0,0,1,.227-3.145,2.332,2.332,0,0,1,1.678-.676,2.249,2.249,0,0,1,.866.211q.6.253.595.589a.365.365,0,0,1-.09.246,2.54,2.54,0,0,0-.061.392c-.015.157-.022.341-.022.552a3.84,3.84,0,0,0,.106,1.072c.008.023.068.158.181.405a2.064,2.064,0,0,1,.153.383.432.432,0,0,1-.16.343A.549.549,0,0,1,583.612,100.9Zm-.977-2.659a2.608,2.608,0,0,1,.018-.29q.017-.164.053-.364a.869.869,0,0,0-.14-.057.384.384,0,0,0-.1-.018,1.26,1.26,0,0,0-.938.419,1.518,1.518,0,0,0-.212,1.765.651.651,0,0,0,.568.266,1.32,1.32,0,0,0,.463-.081,1.441,1.441,0,0,0,.412-.238A12.356,12.356,0,0,1,582.635,98.244Z" transform="translate(-580.031 -96.574)" fill="#263238"/>
            </g>
            <g id="Grupo_469" data-name="Grupo 469" transform="translate(4.529 0.122)">
              <g id="Grupo_468" data-name="Grupo 468">
                <path id="Trazado_111" data-name="Trazado 111" d="M591.844,92.936a1.6,1.6,0,0,1-.228-.026,1.666,1.666,0,0,0-.222-.025l-.866,0a3.133,3.133,0,0,0-.338.028,3.058,3.058,0,0,1-.342.028.547.547,0,0,1-.094-.012.551.551,0,0,0-.094-.012.355.355,0,0,1-.359-.215,1.108,1.108,0,0,1-.059-.418,1.643,1.643,0,0,1,.244-.922,2.194,2.194,0,0,1,.61-.571l.792-.521a.955.955,0,0,0,.466-.769c0-.075-.062-.148-.185-.222a.706.706,0,0,0-.363-.11,1.081,1.081,0,0,0-.66.278,1.1,1.1,0,0,1-.479.278.493.493,0,0,1-.274-.077.3.3,0,0,1-.147-.262.4.4,0,0,1,.147-.309,3.619,3.619,0,0,1,.621-.459,1.66,1.66,0,0,1,1.711.059.924.924,0,0,1,.468.8,1.517,1.517,0,0,1-.23.851,2,2,0,0,1-.568.544q-.368.233-.736.463a1.146,1.146,0,0,0-.6.833q.162-.021.477-.048.627-.032.9-.032a1.235,1.235,0,0,1,.5.109q.306.136.306.348a.4.4,0,0,1-.394.392Z" transform="translate(-589.241 -88.407)" fill="#263238"/>
              </g>
            </g>
            <g id="Grupo_470" data-name="Grupo 470" transform="translate(9.429 2.046)">
              <path id="Trazado_112" data-name="Trazado 112" d="M601.125,98.69a2.874,2.874,0,0,1-1.048-.193.482.482,0,0,1-.354.146.515.515,0,0,1-.364-.142.466.466,0,0,1-.152-.355q0-.1.012-.29t.012-.29V93.1a1,1,0,0,1,.126-.5.492.492,0,0,1,.449-.28q.422,0,.422.457a1.622,1.622,0,0,1-.014.164,1.448,1.448,0,0,0-.014.163v1.509a2.858,2.858,0,0,1,.559-.242,1.8,1.8,0,0,1,.516-.081,1.868,1.868,0,0,1,1.5.674,2.29,2.29,0,0,1,.532,1.528,2.136,2.136,0,0,1-.619,1.548A2.086,2.086,0,0,1,601.125,98.69Zm.15-3.391a1.2,1.2,0,0,0-.472.118,3.525,3.525,0,0,0-.6.355q0,.375,0,1.674a2.421,2.421,0,0,0,.925.233,1.093,1.093,0,0,0,.824-.337,1.18,1.18,0,0,0,.323-.849,1.327,1.327,0,0,0-.264-.847A.89.89,0,0,0,601.275,95.3Z" transform="translate(-599.207 -92.32)" fill="#263238"/>
            </g>
            <g id="Grupo_471" data-name="Grupo 471" transform="translate(18.042 4.063)">
              <path id="Trazado_113" data-name="Trazado 113" d="M618.8,100.858a2.184,2.184,0,0,1-1.453-.493,1.7,1.7,0,0,1-.619-1.371,2.931,2.931,0,0,1,.556-1.619,1.777,1.777,0,0,1,1.466-.953,2.633,2.633,0,0,1,.957.22q.665.272.665.626a.5.5,0,0,1-.133.343.466.466,0,0,1-.366.162.716.716,0,0,1-.408-.183,1.167,1.167,0,0,0-.715-.183q-.3,0-.658.595a2.039,2.039,0,0,0-.339.992.781.781,0,0,0,.3.65,1.167,1.167,0,0,0,.748.225,1.457,1.457,0,0,0,.647-.2,1.577,1.577,0,0,1,.484-.2.5.5,0,0,1,.364.153.486.486,0,0,1,.151.351q0,.308-.67.615A2.518,2.518,0,0,1,618.8,100.858Z" transform="translate(-616.723 -96.422)" fill="#263238"/>
            </g>
            <g id="Grupo_473" data-name="Grupo 473" transform="translate(13.714)">
              <g id="Grupo_472" data-name="Grupo 472">
                <path id="Trazado_114" data-name="Trazado 114" d="M610.525,92.687a1.581,1.581,0,0,1-.228-.025,1.59,1.59,0,0,0-.223-.025l-.865,0a3.043,3.043,0,0,0-.339.028,3.039,3.039,0,0,1-.341.028.609.609,0,0,1-.095-.012.544.544,0,0,0-.094-.012.355.355,0,0,1-.359-.215,1.1,1.1,0,0,1-.06-.418,1.638,1.638,0,0,1,.245-.921,2.19,2.19,0,0,1,.61-.571l.792-.521a.955.955,0,0,0,.465-.769q0-.111-.185-.222a.71.71,0,0,0-.362-.11,1.08,1.08,0,0,0-.661.278,1.088,1.088,0,0,1-.479.278.491.491,0,0,1-.274-.076.3.3,0,0,1-.147-.262.4.4,0,0,1,.147-.309,3.571,3.571,0,0,1,.621-.459,1.66,1.66,0,0,1,1.711.059.922.922,0,0,1,.468.8,1.52,1.52,0,0,1-.23.851,2,2,0,0,1-.568.545q-.368.232-.736.462a1.146,1.146,0,0,0-.6.833c.108-.014.267-.029.477-.047.418-.022.717-.032.9-.032a1.229,1.229,0,0,1,.5.109q.306.135.306.347a.4.4,0,0,1-.395.392Z" transform="translate(-607.922 -88.158)" fill="#263238"/>
              </g>
            </g>
            <g id="Grupo_475" data-name="Grupo 475" transform="translate(22.816 0.245)">
              <g id="Grupo_474" data-name="Grupo 474">
                <path id="Trazado_115" data-name="Trazado 115" d="M629.035,93.186a1.6,1.6,0,0,1-.228-.026,1.667,1.667,0,0,0-.222-.025l-.866,0a3.141,3.141,0,0,0-.338.028,3.052,3.052,0,0,1-.341.028.552.552,0,0,1-.095-.012.546.546,0,0,0-.094-.012.355.355,0,0,1-.359-.215,1.108,1.108,0,0,1-.059-.418,1.642,1.642,0,0,1,.244-.922,2.19,2.19,0,0,1,.61-.571l.792-.521a.955.955,0,0,0,.465-.769c0-.075-.062-.148-.185-.222a.706.706,0,0,0-.362-.11,1.082,1.082,0,0,0-.661.278,1.094,1.094,0,0,1-.478.278.492.492,0,0,1-.274-.077.3.3,0,0,1-.147-.262.4.4,0,0,1,.147-.309,3.586,3.586,0,0,1,.622-.459,1.66,1.66,0,0,1,1.711.059.923.923,0,0,1,.468.8,1.517,1.517,0,0,1-.23.851,1.993,1.993,0,0,1-.568.544q-.368.233-.736.463a1.146,1.146,0,0,0-.6.833q.162-.021.477-.048c.419-.021.717-.032.9-.032a1.237,1.237,0,0,1,.5.109q.306.136.306.348a.4.4,0,0,1-.395.392Z" transform="translate(-626.432 -88.657)" fill="#263238"/>
              </g>
            </g>
            <g id="Grupo_477" data-name="Grupo 477" transform="translate(14.496 5.821)">
              <g id="Grupo_476" data-name="Grupo 476">
                <path id="Trazado_116" data-name="Trazado 116" d="M609.792,100.557h2a.281.281,0,1,0,0-.561h-2a.281.281,0,1,0,0,.561Z" transform="translate(-609.511 -99.996)" fill="#263238"/>
              </g>
            </g>
            <g id="Grupo_479" data-name="Grupo 479" transform="translate(14.496 6.914)">
              <g id="Grupo_478" data-name="Grupo 478">
                <path id="Trazado_117" data-name="Trazado 117" d="M609.792,102.781h2a.281.281,0,1,0,0-.561h-2a.281.281,0,1,0,0,.561Z" transform="translate(-609.511 -102.22)" fill="#263238"/>
              </g>
            </g>
            <g id="Grupo_481" data-name="Grupo 481" transform="translate(7.012 5.395)">
              <g id="Grupo_480" data-name="Grupo 480">
                <path id="Trazado_118" data-name="Trazado 118" d="M594.291,99.41V101.4a.281.281,0,1,0,.561,0V99.41a.281.281,0,0,0-.561,0Z" transform="translate(-594.291 -99.13)" fill="#263238"/>
              </g>
            </g>
            <g id="Grupo_483" data-name="Grupo 483" transform="translate(5.933 6.304)">
              <g id="Grupo_482" data-name="Grupo 482">
                <path id="Trazado_119" data-name="Trazado 119" d="M592.369,101.539h2.176a.281.281,0,0,0,0-.561h-2.176a.281.281,0,0,0,0,.561Z" transform="translate(-592.097 -100.978)" fill="#263238"/>
              </g>
            </g>
          </g>
        </g>
        <g id="Grupo_512" data-name="Grupo 512" transform="translate(28.051 11.498)">
          <g id="Grupo_497" data-name="Grupo 497" transform="translate(5.37 10.09)">
            <g id="Grupo_496" data-name="Grupo 496">
              <g id="Grupo_487" data-name="Grupo 487" transform="translate(0 8.983)">
                <g id="Grupo_486" data-name="Grupo 486">
                  <path id="Trazado_120" data-name="Trazado 120" d="M371.826,128.942H338.137V105.364h33.689Zm-33.254-.435h32.819V105.8H338.572Z" transform="translate(-337.953 -105.18)" fill="#263238"/>
                  <path id="Trazado_121" data-name="Trazado 121" d="M371.635,128.936H337.946a.184.184,0,0,1-.184-.184V105.173a.184.184,0,0,1,.184-.184h33.689a.184.184,0,0,1,.184.184v23.578A.184.184,0,0,1,371.635,128.936Zm-33.5-.369h33.32V105.358h-33.32ZM371.2,128.5H338.382a.184.184,0,0,1-.184-.184V105.608a.184.184,0,0,1,.184-.184H371.2a.184.184,0,0,1,.184.184v22.709A.184.184,0,0,1,371.2,128.5Zm-32.634-.369h32.45v-22.34h-32.45Z" transform="translate(-337.762 -104.989)" fill="#263238"/>
                </g>
              </g>
              <g id="Grupo_489" data-name="Grupo 489" transform="translate(33.254)">
                <g id="Grupo_488" data-name="Grupo 488">
                  <path id="Trazado_122" data-name="Trazado 122" d="M405.983,119.657a.223.223,0,0,1-.105-.027.217.217,0,0,1-.112-.19V96.3a.22.22,0,0,1,.1-.184l14.349-8.982a.214.214,0,0,1,.221-.006.217.217,0,0,1,.112.19v23.143a.218.218,0,0,1-.1.184L406.1,119.624A.219.219,0,0,1,405.983,119.657Zm.218-23.24v22.63l13.913-8.71V87.707Z" transform="translate(-405.582 -86.912)" fill="#263238"/>
                  <path id="Trazado_123" data-name="Trazado 123" d="M405.793,119.65a.408.408,0,0,1-.194-.049.4.4,0,0,1-.208-.353V96.106a.4.4,0,0,1,.188-.341l14.349-8.982a.4.4,0,0,1,.616.34v23.143a.4.4,0,0,1-.189.34l-14.348,8.983A.407.407,0,0,1,405.793,119.65ZM420.124,87.1h0l-14.349,8.982-.015,23.171.033.033a.04.04,0,0,0,.018,0l14.347-8.982.016-23.171h0ZM406.011,119.04a.187.187,0,0,1-.09-.023.185.185,0,0,1-.095-.161V96.226a.183.183,0,0,1,.087-.156l13.913-8.71a.184.184,0,0,1,.282.156v22.629a.186.186,0,0,1-.086.156l-13.913,8.71A.18.18,0,0,1,406.011,119.04Zm.184-22.712v22.195l13.545-8.479V87.849Z" transform="translate(-405.391 -86.721)" fill="#263238"/>
                </g>
              </g>
              <g id="Grupo_491" data-name="Grupo 491" transform="translate(0.102 0.218)">
                <g id="Grupo_490" data-name="Grupo 490">
                  <path id="Trazado_124" data-name="Trazado 124" d="M338.576,119.849l-.231-.369,2.212-1.385.231.368Zm2.95-1.846-.231-.369,2.212-1.385.231.369Zm2.95-1.847-.231-.369,2.212-1.385.231.368Zm2.949-1.846-.231-.369,2.212-1.385.231.369Zm2.95-1.846-.231-.369,2.213-1.385.231.369Zm2.652-2.253h-.435V107.6h.435Zm0-3.48h-.435v-2.61h.435Zm0-3.48h-.435v-2.61h.435Zm0-3.48h-.435v-2.61h.435Zm0-3.48h-.435v-2.61h.435Zm0-3.48h-.435V90.2h.435Zm0-3.48h-.435V87.54h.435Z" transform="translate(-338.161 -87.355)" fill="#263238"/>
                  <path id="Trazado_125" data-name="Trazado 125" d="M338.385,119.842a.185.185,0,0,1-.156-.087l-.231-.369a.182.182,0,0,1-.023-.139.185.185,0,0,1,.082-.115l2.213-1.385a.184.184,0,0,1,.254.058l.231.369a.185.185,0,0,1-.059.254l-2.213,1.385A.185.185,0,0,1,338.385,119.842Zm.023-.495.035.056,1.9-1.189-.035-.057ZM341.335,118a.189.189,0,0,1-.041,0,.181.181,0,0,1-.115-.082l-.231-.369a.182.182,0,0,1-.023-.139.184.184,0,0,1,.082-.115l2.213-1.385a.184.184,0,0,1,.254.059l.231.369a.182.182,0,0,1,.023.139.185.185,0,0,1-.082.115l-2.213,1.385A.183.183,0,0,1,341.335,118Zm.023-.5.036.057,1.9-1.189-.035-.056Zm2.928-1.352a.184.184,0,0,1-.157-.087l-.231-.369a.184.184,0,0,1-.024-.139.188.188,0,0,1,.082-.115l2.212-1.385a.185.185,0,0,1,.254.059l.231.368a.185.185,0,0,1,.024.139.187.187,0,0,1-.082.115l-2.212,1.385A.187.187,0,0,1,344.286,116.149Zm.023-.495.035.056,1.9-1.189-.035-.057Zm2.927-1.352a.186.186,0,0,1-.157-.086l-.231-.369a.185.185,0,0,1,.058-.255l2.212-1.385a.184.184,0,0,1,.254.059l.232.369a.187.187,0,0,1,.023.139.183.183,0,0,1-.082.115l-2.212,1.385A.183.183,0,0,1,347.235,114.3Zm.023-.495.035.057,1.9-1.189-.035-.057Zm2.927-1.351a.186.186,0,0,1-.157-.087L349.8,112a.184.184,0,0,1,.058-.254l2.212-1.385a.184.184,0,0,1,.254.058l.232.369a.187.187,0,0,1,.023.139.181.181,0,0,1-.082.115l-2.212,1.385A.186.186,0,0,1,350.185,112.457Zm.023-.495.035.056,1.9-1.189-.035-.057Zm2.629-1.758H352.4a.184.184,0,0,1-.184-.184v-2.61a.184.184,0,0,1,.184-.184h.435a.184.184,0,0,1,.184.184v2.61A.184.184,0,0,1,352.836,110.2Zm-.251-.369h.066v-2.241h-.066Zm.251-3.111H352.4a.184.184,0,0,1-.184-.184v-2.61a.184.184,0,0,1,.184-.184h.435a.184.184,0,0,1,.184.184v2.61A.184.184,0,0,1,352.836,106.725Zm-.251-.369h.066v-2.241h-.066Zm.251-3.111H352.4a.184.184,0,0,1-.184-.184v-2.61a.184.184,0,0,1,.184-.184h.435a.184.184,0,0,1,.184.184v2.61A.184.184,0,0,1,352.836,103.245Zm-.251-.369h.066v-2.241h-.066Zm.251-3.112H352.4a.184.184,0,0,1-.184-.184V96.97a.184.184,0,0,1,.184-.184h.435a.184.184,0,0,1,.184.184v2.61A.184.184,0,0,1,352.836,99.765Zm-.251-.369h.066V97.155h-.066Zm.251-3.111H352.4a.184.184,0,0,1-.184-.184V93.49a.184.184,0,0,1,.184-.184h.435a.184.184,0,0,1,.184.184V96.1A.184.184,0,0,1,352.836,96.285Zm-.251-.369h.066V93.675h-.066Zm.251-3.111H352.4a.184.184,0,0,1-.184-.184V90.01a.184.184,0,0,1,.184-.184h.435a.184.184,0,0,1,.184.184v2.61A.184.184,0,0,1,352.836,92.8Zm-.251-.369h.066V90.195h-.066Zm.251-3.112H352.4a.184.184,0,0,1-.184-.184V87.348a.184.184,0,0,1,.184-.184h.435a.184.184,0,0,1,.184.184V89.14A.184.184,0,0,1,352.836,89.325Zm-.251-.369h.066V87.533h-.066Z" transform="translate(-337.97 -87.164)" fill="#263238"/>
                </g>
              </g>
              <g id="Grupo_493" data-name="Grupo 493" transform="translate(0 0.001)">
                <g id="Grupo_492" data-name="Grupo 492">
                  <path id="Trazado_126" data-name="Trazado 126" d="M338.355,119.657a.218.218,0,0,1-.218-.217V96.3a.219.219,0,0,1,.1-.184l14.349-8.982a.219.219,0,0,1,.116-.033h33.253a.218.218,0,0,1,0,.435H352.766l-14.194,8.885V119.44A.218.218,0,0,1,338.355,119.657Z" transform="translate(-337.953 -86.913)" fill="#263238"/>
                  <path id="Trazado_127" data-name="Trazado 127" d="M338.164,119.651a.4.4,0,0,1-.4-.4V96.106a.4.4,0,0,1,.188-.341l14.35-8.982a.4.4,0,0,1,.213-.061h33.253a.4.4,0,1,1,0,.8H352.628l-14.062,8.8v22.92A.4.4,0,0,1,338.164,119.651Zm14.349-32.56-14.366,8.987-.016,23.171c0,.036.066.036.066,0V96.227a.183.183,0,0,1,.087-.156l14.194-8.885a.184.184,0,0,1,.1-.028h33.191a.033.033,0,1,0,0-.066Z" transform="translate(-337.762 -86.722)" fill="#263238"/>
                </g>
              </g>
              <g id="Grupo_495" data-name="Grupo 495" transform="translate(14.566 23.144)">
                <g id="Grupo_494" data-name="Grupo 494">
                  <path id="Trazado_128" data-name="Trazado 128" d="M401.014,134.6h-1.933v-.435h1.933Zm-2.8,0H395.6v-.435h2.61Zm-3.48,0h-2.61v-.435h2.61Zm-3.48,0h-2.61v-.435h2.61Zm-3.48,0h-2.61v-.435h2.61Zm-3.48,0h-2.61v-.435h2.61Zm-3.48,0H378.2v-.435h2.61Zm-3.48,0h-2.61v-.435h2.61Zm-3.48,0h-2.61v-.435h2.61Zm-3.48,0h-2.61v-.435h2.61Z" transform="translate(-367.577 -133.98)" fill="#263238"/>
                  <path id="Trazado_129" data-name="Trazado 129" d="M400.824,134.592H398.89a.184.184,0,0,1-.184-.184v-.435a.184.184,0,0,1,.184-.184h1.933a.184.184,0,0,1,.184.184v.435A.184.184,0,0,1,400.824,134.592Zm-1.749-.369h1.565v-.066h-1.565Zm-1.055.369h-2.61a.184.184,0,0,1-.184-.184v-.435a.184.184,0,0,1,.184-.184h2.61a.184.184,0,0,1,.184.184v.435A.184.184,0,0,1,398.02,134.592Zm-2.426-.369h2.241v-.066h-2.241Zm-1.054.369h-2.61a.184.184,0,0,1-.184-.184v-.435a.184.184,0,0,1,.184-.184h2.61a.184.184,0,0,1,.184.184v.435A.184.184,0,0,1,394.54,134.592Zm-2.426-.369h2.241v-.066h-2.241Zm-1.054.369h-2.61a.184.184,0,0,1-.184-.184v-.435a.184.184,0,0,1,.184-.184h2.61a.184.184,0,0,1,.184.184v.435A.184.184,0,0,1,391.06,134.592Zm-2.426-.369h2.241v-.066h-2.241Zm-1.054.369h-2.61a.184.184,0,0,1-.184-.184v-.435a.184.184,0,0,1,.184-.184h2.61a.184.184,0,0,1,.184.184v.435A.184.184,0,0,1,387.58,134.592Zm-2.426-.369H387.4v-.066h-2.241Zm-1.054.369H381.49a.184.184,0,0,1-.184-.184v-.435a.184.184,0,0,1,.184-.184H384.1a.184.184,0,0,1,.184.184v.435A.184.184,0,0,1,384.1,134.592Zm-2.426-.369h2.242v-.066h-2.242Zm-1.054.369h-2.61a.184.184,0,0,1-.184-.184v-.435a.184.184,0,0,1,.184-.184h2.61a.184.184,0,0,1,.184.184v.435A.184.184,0,0,1,380.62,134.592Zm-2.426-.369h2.241v-.066h-2.241Zm-1.054.369h-2.61a.184.184,0,0,1-.184-.184v-.435a.184.184,0,0,1,.184-.184h2.61a.184.184,0,0,1,.184.184v.435A.184.184,0,0,1,377.14,134.592Zm-2.426-.369h2.241v-.066h-2.241Zm-1.055.369h-2.61a.184.184,0,0,1-.184-.184v-.435a.184.184,0,0,1,.184-.184h2.61a.184.184,0,0,1,.184.184v.435A.184.184,0,0,1,373.66,134.592Zm-2.426-.369h2.241v-.066h-2.241Zm-1.054.369h-2.61a.184.184,0,0,1-.184-.184v-.435a.184.184,0,0,1,.184-.184h2.61a.184.184,0,0,1,.184.184v.435A.184.184,0,0,1,370.18,134.592Zm-2.426-.369H370v-.066h-2.241Z" transform="translate(-367.386 -133.789)" fill="#263238"/>
                </g>
              </g>
            </g>
          </g>
          <g id="Grupo_498" data-name="Grupo 498" transform="translate(0 47.98)">
            <path id="Trazado_130" data-name="Trazado 130" d="M328.772,169.421A2.355,2.355,0,0,1,327.3,169a1,1,0,0,1-.454-.8.551.551,0,0,1,.141-.386.5.5,0,0,1,.388-.153.512.512,0,0,1,.488.34q.21.454.952.454a2.878,2.878,0,0,0,1.23-.277q.617-.284.617-.624a.59.59,0,0,0-.384-.613,3.809,3.809,0,0,0-1.1-.126,2.952,2.952,0,0,1-1.145-.24.941.941,0,0,1-.672-.879,1.73,1.73,0,0,1,.768-1.32,2.626,2.626,0,0,1,1.669-.6,3.092,3.092,0,0,1,.893.166q.662.207.661.476a.492.492,0,0,1-.133.339.484.484,0,0,1-.38.167,2.741,2.741,0,0,1-.519-.074,2.744,2.744,0,0,0-.523-.074,1.947,1.947,0,0,0-.9.229q-.443.229-.443.5a.269.269,0,0,0,.135.231.974.974,0,0,0,.4.127l.941.052a2.232,2.232,0,0,1,1.3.462,1.517,1.517,0,0,1,.524,1.226,1.56,1.56,0,0,1-1.085,1.444A4.56,4.56,0,0,1,328.772,169.421Z" transform="translate(-326.841 -163.779)" fill="#263238"/>
          </g>
          <g id="Grupo_499" data-name="Grupo 499" transform="translate(11.743 47.582)">
            <path id="Trazado_131" data-name="Trazado 131" d="M353.988,168.94a1.969,1.969,0,0,1-.286-.031,2.04,2.04,0,0,0-.279-.031l-1.086,0a3.868,3.868,0,0,0-.424.035,3.793,3.793,0,0,1-.428.035.739.739,0,0,1-.118-.015.687.687,0,0,0-.118-.015.445.445,0,0,1-.45-.27,1.393,1.393,0,0,1-.074-.524,2.055,2.055,0,0,1,.306-1.156,2.757,2.757,0,0,1,.764-.716l.993-.653a1.2,1.2,0,0,0,.584-.964c0-.093-.078-.187-.233-.279a.886.886,0,0,0-.454-.139,1.36,1.36,0,0,0-.829.349,1.37,1.37,0,0,1-.6.349.612.612,0,0,1-.343-.1.371.371,0,0,1-.185-.328.5.5,0,0,1,.185-.388,4.463,4.463,0,0,1,.779-.576,2.082,2.082,0,0,1,2.145.074,1.158,1.158,0,0,1,.587,1,1.906,1.906,0,0,1-.288,1.067,2.505,2.505,0,0,1-.713.683q-.462.292-.923.58a1.438,1.438,0,0,0-.753,1.045q.2-.026.6-.059.786-.041,1.126-.04a1.537,1.537,0,0,1,.627.137q.384.17.384.435a.473.473,0,0,1-.137.336A.469.469,0,0,1,353.988,168.94Z" transform="translate(-350.724 -163.117)" fill="#263238"/>
            <path id="Trazado_132" data-name="Trazado 132" d="M362.956,171.013a1.065,1.065,0,0,1-.539-.328,4.877,4.877,0,0,1-.6.245,1.478,1.478,0,0,1-.44.083,1.742,1.742,0,0,1-1.335-.476,2.268,2.268,0,0,1,.213-2.948,2.186,2.186,0,0,1,1.573-.634,2.111,2.111,0,0,1,.813.2q.558.237.557.552a.342.342,0,0,1-.085.23,2.486,2.486,0,0,0-.058.367q-.02.221-.02.517a3.6,3.6,0,0,0,.1,1.006q.011.033.17.38a1.9,1.9,0,0,1,.144.358.4.4,0,0,1-.149.322A.517.517,0,0,1,362.956,171.013Zm-.916-2.492a2.619,2.619,0,0,1,.016-.272c.011-.1.028-.216.05-.341a.816.816,0,0,0-.131-.054.37.37,0,0,0-.1-.017,1.181,1.181,0,0,0-.879.393,1.421,1.421,0,0,0-.2,1.654.609.609,0,0,0,.532.249,1.238,1.238,0,0,0,.434-.076,1.351,1.351,0,0,0,.386-.223A11.577,11.577,0,0,1,362.041,168.521Z" transform="translate(-355.236 -164.995)" fill="#263238"/>
            <path id="Trazado_133" data-name="Trazado 133" d="M370.2,168.939a2.686,2.686,0,0,1-.982-.181.452.452,0,0,1-.332.136.481.481,0,0,1-.342-.133.435.435,0,0,1-.142-.332c0-.059,0-.15.011-.272s.011-.212.011-.271V163.7a.933.933,0,0,1,.118-.473.461.461,0,0,1,.421-.262q.395,0,.395.428a1.472,1.472,0,0,1-.013.153,1.345,1.345,0,0,0-.013.153v1.414a2.666,2.666,0,0,1,.524-.227,1.666,1.666,0,0,1,.483-.076,1.752,1.752,0,0,1,1.4.632,2.147,2.147,0,0,1,.5,1.432,2,2,0,0,1-.58,1.451A1.955,1.955,0,0,1,370.2,168.939Zm.14-3.179a1.125,1.125,0,0,0-.443.111,3.365,3.365,0,0,0-.564.332q0,.351,0,1.57a2.266,2.266,0,0,0,.867.218,1.024,1.024,0,0,0,.772-.316,1.1,1.1,0,0,0,.3-.8,1.241,1.241,0,0,0-.247-.794A.833.833,0,0,0,370.339,165.759Z" transform="translate(-359.709 -162.968)" fill="#263238"/>
            <path id="Trazado_134" data-name="Trazado 134" d="M381.123,168.89a1.028,1.028,0,0,1-.132-.013.974.974,0,0,0-.136-.013c-.067,0-.166,0-.3.006s-.231.005-.3.005q0,.124,0,.323,0,.254,0,.32a.4.4,0,0,1-.135.307.523.523,0,0,1-.672,0,.407.407,0,0,1-.135-.312q0,.048-.007-.635c-.185.01-.346.015-.484.015a1.073,1.073,0,0,1-.465-.1.379.379,0,0,1-.255-.347.36.36,0,0,1,.237-.377,1.606,1.606,0,0,1,.483-.048c.141,0,.3,0,.484-.014,0-.025,0-.074,0-.148s0-.134,0-.181q0-.738.5-.739a.517.517,0,0,1,.34.12.381.381,0,0,1,.144.3q0,.059-.013.183c-.008.083-.013.145-.013.186l0,.258c.057,0,.1,0,.129,0,.049,0,.123,0,.223-.007s.175-.007.227-.007q.753,0,.754.456a.436.436,0,0,1-.127.313A.464.464,0,0,1,381.123,168.89Z" transform="translate(-364.641 -164.987)" fill="#263238"/>
            <path id="Trazado_135" data-name="Trazado 135" d="M390.43,168.94a1.969,1.969,0,0,1-.286-.031,2.027,2.027,0,0,0-.278-.031l-1.086,0a3.849,3.849,0,0,0-.424.035,3.792,3.792,0,0,1-.429.035.739.739,0,0,1-.118-.015.686.686,0,0,0-.118-.015.446.446,0,0,1-.45-.27,1.394,1.394,0,0,1-.073-.524,2.055,2.055,0,0,1,.306-1.156,2.744,2.744,0,0,1,.764-.716l.993-.653a1.2,1.2,0,0,0,.583-.964c0-.093-.077-.187-.232-.279a.887.887,0,0,0-.454-.139,1.36,1.36,0,0,0-.83.349,1.369,1.369,0,0,1-.6.349.614.614,0,0,1-.344-.1.37.37,0,0,1-.185-.328.5.5,0,0,1,.185-.388,4.484,4.484,0,0,1,.779-.576,2.083,2.083,0,0,1,2.146.074,1.158,1.158,0,0,1,.587,1,1.9,1.9,0,0,1-.288,1.067,2.509,2.509,0,0,1-.712.683q-.462.292-.923.58a1.437,1.437,0,0,0-.753,1.045c.135-.017.334-.037.6-.059q.787-.041,1.127-.04a1.54,1.54,0,0,1,.627.137q.384.17.384.435a.5.5,0,0,1-.5.491Z" transform="translate(-369.248 -163.117)" fill="#263238"/>
            <path id="Trazado_136" data-name="Trazado 136" d="M398.1,168.939a2.688,2.688,0,0,1-.982-.181.453.453,0,0,1-.332.136.48.48,0,0,1-.341-.133.435.435,0,0,1-.143-.332c0-.059,0-.15.011-.272s.011-.212.011-.271V163.7a.933.933,0,0,1,.119-.473.461.461,0,0,1,.421-.262c.263,0,.4.143.4.428a1.4,1.4,0,0,1-.013.153,1.466,1.466,0,0,0-.013.153v1.414a2.678,2.678,0,0,1,.524-.227,1.666,1.666,0,0,1,.484-.076,1.75,1.75,0,0,1,1.4.632,2.146,2.146,0,0,1,.5,1.432,2,2,0,0,1-.58,1.451A1.953,1.953,0,0,1,398.1,168.939Zm.14-3.179a1.127,1.127,0,0,0-.444.111,3.4,3.4,0,0,0-.564.332q0,.351,0,1.57a2.269,2.269,0,0,0,.868.218,1.023,1.023,0,0,0,.771-.316,1.105,1.105,0,0,0,.3-.8,1.241,1.241,0,0,0-.248-.794A.831.831,0,0,0,398.236,165.759Z" transform="translate(-373.888 -162.968)" fill="#263238"/>
            <path id="Trazado_137" data-name="Trazado 137" d="M406.958,170.97a2.048,2.048,0,0,1-1.363-.462,1.6,1.6,0,0,1-.58-1.285,2.746,2.746,0,0,1,.521-1.517,1.665,1.665,0,0,1,1.374-.893,2.458,2.458,0,0,1,.9.207q.624.254.624.587a.465.465,0,0,1-.125.321.435.435,0,0,1-.344.152.677.677,0,0,1-.382-.172,1.093,1.093,0,0,0-.67-.172q-.285,0-.617.558a1.914,1.914,0,0,0-.318.93.733.733,0,0,0,.281.609,1.1,1.1,0,0,0,.7.211,1.365,1.365,0,0,0,.606-.189,1.477,1.477,0,0,1,.454-.188.464.464,0,0,1,.341.144.458.458,0,0,1,.142.329q0,.288-.627.576A2.353,2.353,0,0,1,406.958,170.97Z" transform="translate(-378.32 -164.922)" fill="#263238"/>
            <path id="Trazado_138" data-name="Trazado 138" d="M416.921,168.89a1.043,1.043,0,0,1-.132-.013.975.975,0,0,0-.136-.013q-.1,0-.3.006t-.3.005q0,.124,0,.323,0,.254,0,.32a.4.4,0,0,1-.135.307.523.523,0,0,1-.672,0,.407.407,0,0,1-.135-.312q0,.048-.007-.635c-.184.01-.346.015-.483.015a1.076,1.076,0,0,1-.465-.1.379.379,0,0,1-.255-.347.361.361,0,0,1,.236-.377,1.617,1.617,0,0,1,.484-.048c.14,0,.3,0,.483-.014,0-.025,0-.074,0-.148s0-.134,0-.181q0-.738.5-.739a.517.517,0,0,1,.34.12.381.381,0,0,1,.144.3q0,.059-.013.183c-.008.083-.013.145-.013.186l0,.258c.056,0,.1,0,.129,0,.05,0,.124,0,.224-.007s.176-.007.227-.007q.754,0,.754.456a.436.436,0,0,1-.127.313A.462.462,0,0,1,416.921,168.89Z" transform="translate(-382.836 -164.987)" fill="#263238"/>
            <path id="Trazado_139" data-name="Trazado 139" d="M426.228,168.94a1.969,1.969,0,0,1-.286-.031,2.035,2.035,0,0,0-.278-.031l-1.086,0a3.866,3.866,0,0,0-.425.035,3.776,3.776,0,0,1-.428.035.741.741,0,0,1-.118-.015.685.685,0,0,0-.118-.015.446.446,0,0,1-.45-.27,1.392,1.392,0,0,1-.074-.524,2.055,2.055,0,0,1,.306-1.156,2.746,2.746,0,0,1,.765-.716l.993-.653a1.2,1.2,0,0,0,.583-.964c0-.093-.077-.187-.232-.279a.887.887,0,0,0-.454-.139,1.359,1.359,0,0,0-.829.349,1.37,1.37,0,0,1-.6.349.612.612,0,0,1-.343-.1.37.37,0,0,1-.185-.328.5.5,0,0,1,.185-.388,4.481,4.481,0,0,1,.779-.576,2.083,2.083,0,0,1,2.146.074,1.159,1.159,0,0,1,.587,1,1.9,1.9,0,0,1-.288,1.067,2.509,2.509,0,0,1-.712.683q-.462.292-.923.58a1.437,1.437,0,0,0-.753,1.045c.135-.017.334-.037.6-.059q.787-.041,1.126-.04a1.541,1.541,0,0,1,.628.137q.384.17.384.435a.5.5,0,0,1-.5.491Z" transform="translate(-387.443 -163.117)" fill="#263238"/>
            <path id="Trazado_140" data-name="Trazado 140" d="M435.2,171.013a1.066,1.066,0,0,1-.539-.328,4.848,4.848,0,0,1-.6.245,1.472,1.472,0,0,1-.439.083,1.741,1.741,0,0,1-1.335-.476,2.019,2.019,0,0,1-.445-1.425,2.04,2.04,0,0,1,.657-1.523,2.189,2.189,0,0,1,1.573-.634,2.111,2.111,0,0,1,.812.2q.558.237.558.552a.343.343,0,0,1-.085.23,2.419,2.419,0,0,0-.057.367c-.014.148-.02.32-.02.517a3.6,3.6,0,0,0,.1,1.006c.007.022.064.148.17.38a1.9,1.9,0,0,1,.144.358.406.406,0,0,1-.149.322A.518.518,0,0,1,435.2,171.013Zm-.917-2.492a2.623,2.623,0,0,1,.017-.272c.011-.1.028-.216.05-.341a.835.835,0,0,0-.131-.054.374.374,0,0,0-.1-.017,1.182,1.182,0,0,0-.879.393,1.421,1.421,0,0,0-.2,1.654.609.609,0,0,0,.532.249,1.243,1.243,0,0,0,.434-.076,1.355,1.355,0,0,0,.386-.223A11.611,11.611,0,0,1,434.28,168.521Z" transform="translate(-391.954 -164.995)" fill="#263238"/>
            <path id="Trazado_141" data-name="Trazado 141" d="M442.178,170.97a2.048,2.048,0,0,1-1.362-.462,1.6,1.6,0,0,1-.58-1.285,2.742,2.742,0,0,1,.521-1.517,1.664,1.664,0,0,1,1.373-.893,2.461,2.461,0,0,1,.9.207q.623.254.624.587a.465.465,0,0,1-.126.321.434.434,0,0,1-.343.152.676.676,0,0,1-.382-.172,1.093,1.093,0,0,0-.67-.172q-.284,0-.617.558a1.913,1.913,0,0,0-.318.93.734.734,0,0,0,.281.609,1.1,1.1,0,0,0,.7.211,1.367,1.367,0,0,0,.606-.189,1.481,1.481,0,0,1,.454-.188.464.464,0,0,1,.342.144.457.457,0,0,1,.142.329q0,.288-.628.576A2.348,2.348,0,0,1,442.178,170.97Z" transform="translate(-396.222 -164.922)" fill="#263238"/>
          </g>
          <g id="Grupo_501" data-name="Grupo 501" transform="translate(6.132 50.41)">
            <g id="Grupo_500" data-name="Grupo 500">
              <path id="Trazado_142" data-name="Trazado 142" d="M339.566,169.246h2.552a.263.263,0,0,0,0-.526h-2.552a.263.263,0,0,0,0,.526Z" transform="translate(-339.312 -168.72)" fill="#263238"/>
            </g>
          </g>
          <g id="Grupo_503" data-name="Grupo 503" transform="translate(6.132 51.82)">
            <g id="Grupo_502" data-name="Grupo 502">
              <path id="Trazado_143" data-name="Trazado 143" d="M339.566,172.114h2.552a.263.263,0,0,0,0-.526h-2.552a.263.263,0,0,0,0,.526Z" transform="translate(-339.312 -171.588)" fill="#263238"/>
            </g>
          </g>
          <g id="Grupo_511" data-name="Grupo 511" transform="translate(21.679)">
            <g id="Grupo_506" data-name="Grupo 506">
              <g id="Grupo_504" data-name="Grupo 504" transform="translate(0 1.916)">
                <path id="Trazado_144" data-name="Trazado 144" d="M373.209,73.723a.45.45,0,0,1-.151.3.477.477,0,0,1-.329.118.54.54,0,0,1-.528-.384q-.4-1-1.222-2.976a.531.531,0,0,1-.048-.21.43.43,0,0,1,.161-.338.546.546,0,0,1,.367-.139.467.467,0,0,1,.454.292q.21.447.82,2.09.2-.417.539-1.27.1-.285.322-.794a.488.488,0,0,1,.458-.3.552.552,0,0,1,.367.137.428.428,0,0,1,.16.34,10.182,10.182,0,0,1-.6,1.462Q373.493,73.144,373.209,73.723Z" transform="translate(-370.93 -70.097)" fill="#263238"/>
              </g>
              <g id="Grupo_505" data-name="Grupo 505" transform="translate(9.351)">
                <path id="Trazado_145" data-name="Trazado 145" d="M393.3,74.245a1.068,1.068,0,0,1-.539-.328,4.867,4.867,0,0,1-.6.245,1.477,1.477,0,0,1-.44.083,1.742,1.742,0,0,1-1.335-.476,2.269,2.269,0,0,1,.212-2.949,2.189,2.189,0,0,1,1.573-.633,2.11,2.11,0,0,1,.812.2q.558.238.558.552a.34.34,0,0,1-.085.23,2.42,2.42,0,0,0-.057.367q-.02.221-.02.517a3.6,3.6,0,0,0,.1,1.006q.012.032.17.38a1.942,1.942,0,0,1,.144.358.407.407,0,0,1-.149.322A.517.517,0,0,1,393.3,74.245Zm-.916-2.492a2.486,2.486,0,0,1,.017-.271c.011-.1.028-.216.05-.341a.783.783,0,0,0-.131-.054.376.376,0,0,0-.1-.017,1.18,1.18,0,0,0-.879.393,1.422,1.422,0,0,0-.2,1.654.61.61,0,0,0,.532.249,1.239,1.239,0,0,0,.434-.076,1.355,1.355,0,0,0,.385-.223A11.572,11.572,0,0,1,392.388,71.753Z" transform="translate(-389.948 -68.227)" fill="#263238"/>
                <path id="Trazado_146" data-name="Trazado 146" d="M400.547,72.171a2.681,2.681,0,0,1-.982-.181.45.45,0,0,1-.332.137.482.482,0,0,1-.341-.133.435.435,0,0,1-.142-.332c0-.06,0-.15.011-.272s.011-.212.011-.271V66.935a.938.938,0,0,1,.118-.473.461.461,0,0,1,.421-.262c.263,0,.4.143.4.428a1.5,1.5,0,0,1-.013.153,1.362,1.362,0,0,0-.013.153v1.414a2.669,2.669,0,0,1,.525-.227,1.664,1.664,0,0,1,.483-.076,1.751,1.751,0,0,1,1.4.632,2.149,2.149,0,0,1,.5,1.432,2,2,0,0,1-.58,1.451A1.953,1.953,0,0,1,400.547,72.171Zm.14-3.179a1.123,1.123,0,0,0-.443.111,3.383,3.383,0,0,0-.565.332q0,.351,0,1.57a2.268,2.268,0,0,0,.868.217,1.021,1.021,0,0,0,.771-.315,1.105,1.105,0,0,0,.3-.8,1.241,1.241,0,0,0-.248-.794A.831.831,0,0,0,400.687,68.991Z" transform="translate(-394.421 -66.2)" fill="#263238"/>
                <path id="Trazado_147" data-name="Trazado 147" d="M409.41,74.2a2.048,2.048,0,0,1-1.363-.462,1.6,1.6,0,0,1-.58-1.285,2.746,2.746,0,0,1,.521-1.517,1.665,1.665,0,0,1,1.374-.893,2.459,2.459,0,0,1,.9.207q.624.254.624.587a.465.465,0,0,1-.126.321.434.434,0,0,1-.343.151.676.676,0,0,1-.383-.172,1.089,1.089,0,0,0-.67-.172q-.285,0-.617.558a1.912,1.912,0,0,0-.317.93.733.733,0,0,0,.281.609,1.1,1.1,0,0,0,.7.21,1.362,1.362,0,0,0,.605-.188,1.484,1.484,0,0,1,.454-.188.464.464,0,0,1,.341.144.456.456,0,0,1,.142.329q0,.288-.627.576A2.353,2.353,0,0,1,409.41,74.2Z" transform="translate(-398.853 -68.154)" fill="#263238"/>
              </g>
            </g>
            <g id="Grupo_508" data-name="Grupo 508" transform="translate(5.293 2.828)">
              <g id="Grupo_507" data-name="Grupo 507">
                <path id="Trazado_148" data-name="Trazado 148" d="M381.949,72.478H384.5a.263.263,0,0,0,0-.527h-2.552a.263.263,0,0,0,0,.527Z" transform="translate(-381.695 -71.951)" fill="#263238"/>
              </g>
            </g>
            <g id="Grupo_510" data-name="Grupo 510" transform="translate(5.293 4.238)">
              <g id="Grupo_509" data-name="Grupo 509">
                <path id="Trazado_149" data-name="Trazado 149" d="M381.949,75.346H384.5a.263.263,0,0,0,0-.527h-2.552a.263.263,0,0,0,0,.527Z" transform="translate(-381.695 -74.819)" fill="#263238"/>
              </g>
            </g>
          </g>
        </g>
        <g id="Grupo_536" data-name="Grupo 536" transform="translate(38.862 76.664)">
          <g id="Grupo_513" data-name="Grupo 513" transform="translate(0 13.924)">
            <path id="Trazado_150" data-name="Trazado 150" d="M352.635,228.1q-.2.176-.525.461l-.546.507,1.089,1.332a.463.463,0,0,1,.117.29.43.43,0,0,1-.149.325.491.491,0,0,1-.343.14.473.473,0,0,1-.357-.172q-.322-.35-1.061-1.261-.29.289-.9.843a3.3,3.3,0,0,0-.293.268.479.479,0,0,1-.354.164.484.484,0,0,1-.341-.139.433.433,0,0,1-.148-.325.72.72,0,0,1,.293-.475q.236-.2.472-.4.218-.218.679-.668-.2-.279-.4-.557a3.04,3.04,0,0,0-.464-.511.445.445,0,0,1-.185-.346.488.488,0,0,1,.478-.475q.254,0,.7.511l.571.736.61-.514a3.449,3.449,0,0,0,.543-.561.46.46,0,0,1,.389-.218.505.505,0,0,1,.345.136.418.418,0,0,1,.152.322A.977.977,0,0,1,352.635,228.1Z" transform="translate(-348.828 -227.047)" fill="#263238"/>
          </g>
          <g id="Grupo_514" data-name="Grupo 514" transform="translate(26.753 6.288)">
            <path id="Trazado_151" data-name="Trazado 151" d="M404.976,217.291a2.6,2.6,0,0,1-.95-.175.437.437,0,0,1-.321.132.466.466,0,0,1-.33-.129.422.422,0,0,1-.138-.321c0-.058,0-.145.011-.263s.011-.206.011-.263v-4.046a.9.9,0,0,1,.114-.457.447.447,0,0,1,.407-.254q.382,0,.383.414a1.385,1.385,0,0,1-.013.148,1.351,1.351,0,0,0-.012.148v1.368a2.582,2.582,0,0,1,.507-.22,1.623,1.623,0,0,1,.468-.073,1.693,1.693,0,0,1,1.357.611,2.076,2.076,0,0,1,.482,1.386,1.934,1.934,0,0,1-.561,1.4A1.89,1.89,0,0,1,404.976,217.291Zm.136-3.075a1.085,1.085,0,0,0-.428.107,3.2,3.2,0,0,0-.546.322q0,.339,0,1.518a2.194,2.194,0,0,0,.839.21.991.991,0,0,0,.747-.305,1.068,1.068,0,0,0,.293-.77,1.2,1.2,0,0,0-.239-.768A.808.808,0,0,0,405.112,214.216Z" transform="translate(-403.237 -211.516)" fill="#263238"/>
          </g>
          <g id="Grupo_515" data-name="Grupo 515" transform="translate(51.912 6.288)">
            <path id="Trazado_152" data-name="Trazado 152" d="M456.141,217.291a2.6,2.6,0,0,1-.95-.175.437.437,0,0,1-.321.132.466.466,0,0,1-.33-.129.422.422,0,0,1-.138-.321c0-.058,0-.145.011-.263s.011-.206.011-.263v-4.046a.9.9,0,0,1,.114-.457.447.447,0,0,1,.407-.254q.382,0,.383.414a1.377,1.377,0,0,1-.013.148,1.349,1.349,0,0,0-.012.148v1.368a2.58,2.58,0,0,1,.507-.22,1.623,1.623,0,0,1,.468-.073,1.693,1.693,0,0,1,1.357.611,2.076,2.076,0,0,1,.482,1.386,1.934,1.934,0,0,1-.561,1.4A1.89,1.89,0,0,1,456.141,217.291Zm.136-3.075a1.085,1.085,0,0,0-.428.107,3.2,3.2,0,0,0-.546.322q0,.339,0,1.518a2.194,2.194,0,0,0,.839.21.991.991,0,0,0,.747-.305,1.069,1.069,0,0,0,.293-.77,1.2,1.2,0,0,0-.239-.768A.808.808,0,0,0,456.277,214.216Z" transform="translate(-454.402 -211.516)" fill="#263238"/>
          </g>
          <g id="Grupo_516" data-name="Grupo 516" transform="translate(71.371 6.341)">
            <path id="Trazado_153" data-name="Trazado 153" d="M496.549,215.721h-1.425q-1.146,0-1.146-.468a.726.726,0,0,1,.2-.44l.332-.375q.575-.822,1.754-2.443a.864.864,0,0,1,.724-.372.621.621,0,0,1,.364.107.416.416,0,0,1,.182.361l0,2.686a1.657,1.657,0,0,1,.625.1.393.393,0,0,1,.175.379.4.4,0,0,1-.271.407,1.35,1.35,0,0,1-.529.06q.011.515,0,1.114a.46.46,0,0,1-.128.325.454.454,0,0,1-.34.129q-.543,0-.517-.714Zm0-2.546q-.347.546-1.068,1.6h1.068Z" transform="translate(-493.977 -211.625)" fill="#263238"/>
            <path id="Trazado_154" data-name="Trazado 154" d="M506.651,219.3a1.035,1.035,0,0,1-.521-.318,4.71,4.71,0,0,1-.579.237,1.429,1.429,0,0,1-.425.08,1.682,1.682,0,0,1-1.291-.461,1.952,1.952,0,0,1-.43-1.378,1.973,1.973,0,0,1,.635-1.473,2.115,2.115,0,0,1,1.522-.613,2.041,2.041,0,0,1,.785.191q.54.229.539.534a.331.331,0,0,1-.082.223,2.31,2.31,0,0,0-.055.355c-.014.143-.02.309-.02.5a3.468,3.468,0,0,0,.1.972c.007.021.062.144.164.368a1.9,1.9,0,0,1,.139.347.394.394,0,0,1-.145.311A.5.5,0,0,1,506.651,219.3Zm-.885-2.41a2.444,2.444,0,0,1,.016-.263c.01-.1.027-.209.049-.33a.79.79,0,0,0-.127-.052.348.348,0,0,0-.1-.016,1.141,1.141,0,0,0-.85.381,1.377,1.377,0,0,0-.193,1.6.591.591,0,0,0,.514.241,1.209,1.209,0,0,0,.42-.073,1.3,1.3,0,0,0,.373-.216A11.177,11.177,0,0,1,505.766,216.887Z" transform="translate(-498.769 -213.53)" fill="#263238"/>
            <path id="Trazado_155" data-name="Trazado 155" d="M513.4,219.256a1.981,1.981,0,0,1-1.318-.446,1.544,1.544,0,0,1-.561-1.243,2.659,2.659,0,0,1,.5-1.468,1.612,1.612,0,0,1,1.329-.864,2.383,2.383,0,0,1,.868.2q.6.246.6.568a.454.454,0,0,1-.121.311.423.423,0,0,1-.332.146.653.653,0,0,1-.37-.166,1.052,1.052,0,0,0-.648-.166q-.275,0-.6.539a1.854,1.854,0,0,0-.307.9.71.71,0,0,0,.271.59,1.062,1.062,0,0,0,.679.2,1.32,1.32,0,0,0,.586-.182,1.438,1.438,0,0,1,.439-.182.446.446,0,0,1,.33.14.439.439,0,0,1,.138.318q0,.279-.607.557A2.275,2.275,0,0,1,513.4,219.256Z" transform="translate(-502.896 -213.46)" fill="#263238"/>
          </g>
          <g id="Grupo_517" data-name="Grupo 517" transform="translate(45.792 19.423)">
            <path id="Trazado_156" data-name="Trazado 156" d="M445.114,243.723a1.867,1.867,0,0,1-.277-.03,1.927,1.927,0,0,0-.27-.03l-1.05,0a3.713,3.713,0,0,0-.411.034,3.6,3.6,0,0,1-.414.034.654.654,0,0,1-.115-.015.671.671,0,0,0-.114-.014.431.431,0,0,1-.436-.261,1.349,1.349,0,0,1-.071-.507,1.989,1.989,0,0,1,.3-1.118,2.667,2.667,0,0,1,.739-.693l.961-.632a1.159,1.159,0,0,0,.564-.932q0-.136-.225-.27a.859.859,0,0,0-.439-.134,1.313,1.313,0,0,0-.8.337,1.326,1.326,0,0,1-.58.338.593.593,0,0,1-.332-.093.359.359,0,0,1-.179-.318.485.485,0,0,1,.179-.375,4.29,4.29,0,0,1,.753-.557,2.012,2.012,0,0,1,2.075.071,1.121,1.121,0,0,1,.568.972,1.848,1.848,0,0,1-.278,1.032,2.42,2.42,0,0,1-.69.66q-.446.283-.892.561a1.393,1.393,0,0,0-.729,1.01c.131-.016.325-.035.579-.057.507-.026.871-.039,1.09-.039a1.493,1.493,0,0,1,.607.132q.372.164.372.421a.482.482,0,0,1-.478.475Z" transform="translate(-441.957 -238.23)" fill="#263238"/>
            <path id="Trazado_157" data-name="Trazado 157" d="M453.789,245.729a1.033,1.033,0,0,1-.521-.318,4.657,4.657,0,0,1-.579.237,1.416,1.416,0,0,1-.425.081,1.682,1.682,0,0,1-1.291-.461,1.953,1.953,0,0,1-.43-1.379,1.973,1.973,0,0,1,.635-1.473,2.116,2.116,0,0,1,1.521-.612,2.043,2.043,0,0,1,.786.191q.539.23.539.534a.333.333,0,0,1-.082.223,2.36,2.36,0,0,0-.056.355q-.02.214-.02.5a3.465,3.465,0,0,0,.1.972c.007.021.062.144.164.368a1.883,1.883,0,0,1,.139.347.394.394,0,0,1-.145.311A.5.5,0,0,1,453.789,245.729Zm-.886-2.411a2.455,2.455,0,0,1,.016-.263q.016-.148.048-.33a.719.719,0,0,0-.127-.052.345.345,0,0,0-.095-.016,1.143,1.143,0,0,0-.85.38,1.374,1.374,0,0,0-.193,1.6.589.589,0,0,0,.514.241,1.2,1.2,0,0,0,.419-.073,1.3,1.3,0,0,0,.373-.216A11.2,11.2,0,0,1,452.9,243.318Z" transform="translate(-446.321 -240.047)" fill="#263238"/>
          </g>
          <g id="Grupo_518" data-name="Grupo 518" transform="translate(5.5 14.246)">
            <path id="Trazado_158" data-name="Trazado 158" d="M362.107,233.274l-1.418,0q-.675,0-.675-.425,0-.479.753-.478c.048,0,.1,0,.157,0V229.2a1.085,1.085,0,0,1-.4.214.485.485,0,0,1-.348-.143.448.448,0,0,1-.148-.332.563.563,0,0,1,.239-.4l.4-.293.436-.35a.893.893,0,0,1,.518-.193q.321,0,.322.385,0,.426-.036,1.2t-.035,2.2v.864h.235a.492.492,0,0,1,.349.132.454.454,0,0,1,0,.657A.492.492,0,0,1,362.107,233.274Z" transform="translate(-360.014 -227.702)" fill="#263238"/>
          </g>
          <g id="Grupo_519" data-name="Grupo 519" transform="translate(56.08 3.965)">
            <path id="Trazado_159" data-name="Trazado 159" d="M466.036,212.285a1.94,1.94,0,0,1-.276-.03,1.955,1.955,0,0,0-.27-.03l-1.05,0a3.7,3.7,0,0,0-.411.034,3.7,3.7,0,0,1-.414.034.694.694,0,0,1-.115-.014.678.678,0,0,0-.114-.014.431.431,0,0,1-.436-.261,1.35,1.35,0,0,1-.071-.507,1.989,1.989,0,0,1,.3-1.118,2.66,2.66,0,0,1,.739-.693l.961-.632a1.159,1.159,0,0,0,.565-.932q0-.136-.225-.27a.859.859,0,0,0-.439-.134,1.31,1.31,0,0,0-.8.337,1.327,1.327,0,0,1-.581.337.593.593,0,0,1-.331-.093.357.357,0,0,1-.179-.318.482.482,0,0,1,.179-.375,4.319,4.319,0,0,1,.753-.558,2.014,2.014,0,0,1,2.075.072,1.12,1.12,0,0,1,.568.972,1.842,1.842,0,0,1-.279,1.032,2.412,2.412,0,0,1-.689.661q-.446.282-.892.561a1.392,1.392,0,0,0-.729,1.01c.131-.017.324-.035.579-.058q.76-.039,1.09-.039a1.485,1.485,0,0,1,.607.132q.372.164.372.421a.459.459,0,0,1-.132.326A.454.454,0,0,1,466.036,212.285Z" transform="translate(-462.879 -206.792)" fill="#263238"/>
          </g>
          <g id="Grupo_521" data-name="Grupo 521" transform="translate(9.439 14.271)">
            <g id="Grupo_520" data-name="Grupo 520">
              <path id="Trazado_160" data-name="Trazado 160" d="M368.481,228.7h4.056a.473.473,0,0,0,0-.946h-4.056a.473.473,0,0,0,0,.946Z" transform="translate(-368.024 -227.752)" fill="#263238"/>
            </g>
          </g>
          <g id="Grupo_523" data-name="Grupo 523" transform="translate(20.26 8.745)">
            <g id="Grupo_522" data-name="Grupo 522">
              <path id="Trazado_161" data-name="Trazado 161" d="M390.489,217.459h4.056a.473.473,0,0,0,0-.946h-4.056a.473.473,0,0,0,0,.946Z" transform="translate(-390.032 -216.513)" fill="#263238"/>
            </g>
          </g>
          <g id="Grupo_525" data-name="Grupo 525" transform="translate(18.976 15.182)">
            <g id="Grupo_524" data-name="Grupo 524">
              <path id="Trazado_162" data-name="Trazado 162" d="M387.878,230.55h72.656a.473.473,0,0,0,0-.946H387.878a.473.473,0,0,0,0,.946Z" transform="translate(-387.421 -229.604)" fill="#263238"/>
            </g>
          </g>
          <g id="Grupo_527" data-name="Grupo 527" transform="translate(62.081 8.745)">
            <g id="Grupo_526" data-name="Grupo 526">
              <path id="Trazado_163" data-name="Trazado 163" d="M475.541,217.459H479.6a.473.473,0,0,0,0-.946h-4.056a.473.473,0,0,0,0,.946Z" transform="translate(-475.084 -216.513)" fill="#263238"/>
            </g>
          </g>
          <g id="Grupo_529" data-name="Grupo 529" transform="translate(34.243 8.745)">
            <g id="Grupo_528" data-name="Grupo 528">
              <path id="Trazado_164" data-name="Trazado 164" d="M418.926,217.459h4.056a.473.473,0,0,0,0-.946h-4.056a.473.473,0,0,0,0,.946Z" transform="translate(-418.469 -216.513)" fill="#263238"/>
            </g>
          </g>
          <g id="Grupo_531" data-name="Grupo 531" transform="translate(36.255 6.732)">
            <g id="Grupo_530" data-name="Grupo 530">
              <path id="Trazado_165" data-name="Trazado 165" d="M423.507,216.934v-4.056a.473.473,0,0,0-.946,0v4.056a.473.473,0,0,0,.946,0Z" transform="translate(-422.561 -212.421)" fill="#263238"/>
            </g>
          </g>
          <g id="Grupo_533" data-name="Grupo 533" transform="translate(9.523 16.637)">
            <g id="Grupo_532" data-name="Grupo 532">
              <path id="Trazado_166" data-name="Trazado 166" d="M368.653,233.51h4.121a.473.473,0,0,0,0-.946h-4.121a.473.473,0,0,0,0,.946Z" transform="translate(-368.196 -232.564)" fill="#263238"/>
            </g>
          </g>
          <g id="Grupo_535" data-name="Grupo 535" transform="translate(42.847)">
            <g id="Grupo_534" data-name="Grupo 534">
              <path id="Trazado_167" data-name="Trazado 167" d="M436.025,205.209,439,210.88a.478.478,0,0,0,.864-.113l3.287-10,.465-1.412-.456.347h33.885c1.56,0,3.138.069,4.7,0h.068a.473.473,0,0,0,0-.946H447.93c-1.56,0-3.138-.069-4.7,0h-.068a.486.486,0,0,0-.456.347l-3.288,10q-.232.707-.464,1.413l.864-.113-2.979-5.671c-.283-.539-1.1-.061-.817.477Z" transform="translate(-435.966 -198.729)" fill="#263238"/>
            </g>
          </g>
        </g>
        <g id="Grupo_560" data-name="Grupo 560" transform="translate(38.862 111.807)">
          <g id="Grupo_537" data-name="Grupo 537" transform="translate(0 13.924)">
            <path id="Trazado_168" data-name="Trazado 168" d="M352.635,299.569q-.2.175-.525.461l-.546.507,1.089,1.332a.463.463,0,0,1,.117.289.43.43,0,0,1-.149.325.489.489,0,0,1-.343.14.475.475,0,0,1-.357-.172q-.322-.35-1.061-1.26-.29.288-.9.842a3.3,3.3,0,0,0-.293.268.479.479,0,0,1-.354.164.484.484,0,0,1-.341-.139.432.432,0,0,1-.148-.325.721.721,0,0,1,.293-.475q.236-.2.472-.4.218-.217.679-.668-.2-.279-.4-.557a3.041,3.041,0,0,0-.464-.511.445.445,0,0,1-.185-.347.487.487,0,0,1,.478-.474q.254,0,.7.511l.571.736q.307-.257.61-.514a3.411,3.411,0,0,0,.543-.561.46.46,0,0,1,.389-.217.5.5,0,0,1,.345.135.42.42,0,0,1,.152.322A.98.98,0,0,1,352.635,299.569Z" transform="translate(-348.828 -298.519)" fill="#263238"/>
          </g>
          <g id="Grupo_538" data-name="Grupo 538" transform="translate(26.753 6.287)">
            <path id="Trazado_169" data-name="Trazado 169" d="M404.976,288.762a2.592,2.592,0,0,1-.95-.175.437.437,0,0,1-.321.132.466.466,0,0,1-.33-.129.422.422,0,0,1-.138-.321c0-.057,0-.145.011-.263s.011-.205.011-.263V283.7a.906.906,0,0,1,.114-.457.446.446,0,0,1,.407-.253q.382,0,.383.414a1.374,1.374,0,0,1-.013.148,1.369,1.369,0,0,0-.012.148v1.368a2.61,2.61,0,0,1,.507-.22,1.622,1.622,0,0,1,.468-.073,1.694,1.694,0,0,1,1.357.61,2.077,2.077,0,0,1,.482,1.386,1.935,1.935,0,0,1-.561,1.4A1.893,1.893,0,0,1,404.976,288.762Zm.136-3.075a1.078,1.078,0,0,0-.428.107,3.228,3.228,0,0,0-.546.321q0,.339,0,1.518a2.188,2.188,0,0,0,.839.211.991.991,0,0,0,.747-.305,1.07,1.07,0,0,0,.293-.77,1.2,1.2,0,0,0-.239-.768A.806.806,0,0,0,405.112,285.687Z" transform="translate(-403.237 -282.987)" fill="#263238"/>
          </g>
          <g id="Grupo_539" data-name="Grupo 539" transform="translate(51.912 6.287)">
            <path id="Trazado_170" data-name="Trazado 170" d="M456.141,288.762a2.592,2.592,0,0,1-.95-.175.437.437,0,0,1-.321.132.466.466,0,0,1-.33-.129.422.422,0,0,1-.138-.321c0-.057,0-.145.011-.263s.011-.205.011-.263V283.7a.906.906,0,0,1,.114-.457.446.446,0,0,1,.407-.253q.382,0,.383.414a1.366,1.366,0,0,1-.013.148,1.367,1.367,0,0,0-.012.148v1.368a2.609,2.609,0,0,1,.507-.22,1.621,1.621,0,0,1,.468-.073,1.694,1.694,0,0,1,1.357.61,2.077,2.077,0,0,1,.482,1.386,1.935,1.935,0,0,1-.561,1.4A1.893,1.893,0,0,1,456.141,288.762Zm.136-3.075a1.078,1.078,0,0,0-.428.107,3.23,3.23,0,0,0-.546.321q0,.339,0,1.518a2.188,2.188,0,0,0,.839.211.991.991,0,0,0,.747-.305,1.07,1.07,0,0,0,.293-.77,1.2,1.2,0,0,0-.239-.768A.806.806,0,0,0,456.277,285.687Z" transform="translate(-454.402 -282.987)" fill="#263238"/>
          </g>
          <g id="Grupo_540" data-name="Grupo 540" transform="translate(71.371 6.34)">
            <path id="Trazado_171" data-name="Trazado 171" d="M496.549,287.191h-1.425q-1.146,0-1.146-.468a.724.724,0,0,1,.2-.44l.332-.375q.575-.822,1.754-2.443a.864.864,0,0,1,.724-.372.618.618,0,0,1,.364.108.416.416,0,0,1,.182.36l0,2.686a1.678,1.678,0,0,1,.625.1.393.393,0,0,1,.175.379.4.4,0,0,1-.271.407,1.332,1.332,0,0,1-.529.06q.011.514,0,1.115a.462.462,0,0,1-.128.325.454.454,0,0,1-.34.128q-.543,0-.517-.714Zm0-2.547q-.347.547-1.068,1.6h1.068Z" transform="translate(-493.977 -283.095)" fill="#263238"/>
            <path id="Trazado_172" data-name="Trazado 172" d="M506.651,290.768a1.037,1.037,0,0,1-.521-.318,4.715,4.715,0,0,1-.579.237,1.433,1.433,0,0,1-.425.081,1.684,1.684,0,0,1-1.291-.461,2.194,2.194,0,0,1,.205-2.852,2.115,2.115,0,0,1,1.522-.613,2.041,2.041,0,0,1,.785.191q.54.229.539.534a.333.333,0,0,1-.082.223,2.291,2.291,0,0,0-.055.355c-.014.142-.02.309-.02.5a3.475,3.475,0,0,0,.1.973q.011.032.164.368a1.9,1.9,0,0,1,.139.346.393.393,0,0,1-.145.311A.5.5,0,0,1,506.651,290.768Zm-.885-2.411a2.443,2.443,0,0,1,.016-.263c.01-.1.027-.209.049-.33a.838.838,0,0,0-.127-.052.346.346,0,0,0-.1-.016,1.141,1.141,0,0,0-.85.381,1.377,1.377,0,0,0-.193,1.6.589.589,0,0,0,.514.241,1.209,1.209,0,0,0,.42-.073,1.3,1.3,0,0,0,.373-.216A11.169,11.169,0,0,1,505.766,288.357Z" transform="translate(-498.769 -285)" fill="#263238"/>
            <path id="Trazado_173" data-name="Trazado 173" d="M513.4,290.727a1.981,1.981,0,0,1-1.318-.446,1.544,1.544,0,0,1-.561-1.243,2.66,2.66,0,0,1,.5-1.468,1.612,1.612,0,0,1,1.329-.864,2.384,2.384,0,0,1,.868.2q.6.247.6.568a.454.454,0,0,1-.121.311.424.424,0,0,1-.332.146.654.654,0,0,1-.37-.166,1.055,1.055,0,0,0-.648-.166q-.275,0-.6.539a1.854,1.854,0,0,0-.307.9.71.71,0,0,0,.271.589,1.065,1.065,0,0,0,.679.2,1.321,1.321,0,0,0,.586-.182,1.445,1.445,0,0,1,.439-.182.446.446,0,0,1,.33.139.439.439,0,0,1,.138.318q0,.279-.607.557A2.268,2.268,0,0,1,513.4,290.727Z" transform="translate(-502.896 -284.93)" fill="#263238"/>
          </g>
          <g id="Grupo_541" data-name="Grupo 541" transform="translate(45.792 19.423)">
            <path id="Trazado_174" data-name="Trazado 174" d="M445.114,315.193a1.916,1.916,0,0,1-.277-.03,1.969,1.969,0,0,0-.27-.031l-1.05,0a3.74,3.74,0,0,0-.411.034,3.668,3.668,0,0,1-.414.033.68.68,0,0,1-.115-.014.625.625,0,0,0-.114-.014.431.431,0,0,1-.436-.261,1.344,1.344,0,0,1-.071-.507,1.989,1.989,0,0,1,.3-1.118,2.652,2.652,0,0,1,.739-.693l.961-.633a1.158,1.158,0,0,0,.564-.932c0-.09-.075-.18-.225-.269a.855.855,0,0,0-.439-.134,1.31,1.31,0,0,0-.8.337,1.332,1.332,0,0,1-.58.338.593.593,0,0,1-.332-.093.358.358,0,0,1-.179-.318.486.486,0,0,1,.179-.375,4.289,4.289,0,0,1,.753-.557,2.014,2.014,0,0,1,2.075.072,1.12,1.12,0,0,1,.568.971,1.848,1.848,0,0,1-.278,1.032,2.428,2.428,0,0,1-.69.661l-.892.561a1.393,1.393,0,0,0-.729,1.011c.131-.017.325-.036.579-.057.507-.027.871-.039,1.09-.039a1.5,1.5,0,0,1,.607.132q.372.164.372.422a.457.457,0,0,1-.132.325A.452.452,0,0,1,445.114,315.193Z" transform="translate(-441.957 -309.701)" fill="#263238"/>
            <path id="Trazado_175" data-name="Trazado 175" d="M453.789,317.2a1.036,1.036,0,0,1-.521-.318,4.747,4.747,0,0,1-.579.238,1.431,1.431,0,0,1-.425.08,1.684,1.684,0,0,1-1.291-.46,2.194,2.194,0,0,1,.2-2.852,2.115,2.115,0,0,1,1.521-.613,2.052,2.052,0,0,1,.786.191q.539.23.539.534a.333.333,0,0,1-.082.223,2.341,2.341,0,0,0-.056.355q-.02.214-.02.5a3.465,3.465,0,0,0,.1.972c.007.021.062.144.164.368a1.914,1.914,0,0,1,.139.346.393.393,0,0,1-.145.311A.5.5,0,0,1,453.789,317.2Zm-.886-2.41a2.447,2.447,0,0,1,.016-.263q.016-.148.048-.33a.859.859,0,0,0-.127-.052.361.361,0,0,0-.095-.016,1.143,1.143,0,0,0-.85.38,1.374,1.374,0,0,0-.193,1.6.588.588,0,0,0,.514.241,1.194,1.194,0,0,0,.419-.074,1.281,1.281,0,0,0,.373-.216A11.213,11.213,0,0,1,452.9,314.788Z" transform="translate(-446.321 -311.517)" fill="#263238"/>
          </g>
          <g id="Grupo_542" data-name="Grupo 542" transform="translate(5.1 14.328)">
            <path id="Trazado_176" data-name="Trazado 176" d="M362.358,304.833a2.016,2.016,0,0,1-.277-.03,1.883,1.883,0,0,0-.269-.031l-1.05,0a3.722,3.722,0,0,0-.411.034,3.8,3.8,0,0,1-.414.033.733.733,0,0,1-.115-.014.64.64,0,0,0-.114-.015.431.431,0,0,1-.436-.261,1.345,1.345,0,0,1-.071-.507,1.992,1.992,0,0,1,.3-1.118,2.663,2.663,0,0,1,.74-.693l.961-.632a1.159,1.159,0,0,0,.564-.932c0-.09-.075-.18-.225-.269a.856.856,0,0,0-.44-.134,1.312,1.312,0,0,0-.8.338,1.326,1.326,0,0,1-.58.337.6.6,0,0,1-.332-.093.358.358,0,0,1-.179-.318.483.483,0,0,1,.179-.375,4.308,4.308,0,0,1,.754-.557,2.011,2.011,0,0,1,2.075.071,1.12,1.12,0,0,1,.568.972,1.841,1.841,0,0,1-.278,1.032,2.432,2.432,0,0,1-.689.66q-.447.282-.893.561a1.39,1.39,0,0,0-.729,1.01q.2-.025.579-.057.76-.039,1.09-.039a1.494,1.494,0,0,1,.607.132c.248.109.371.25.371.421a.481.481,0,0,1-.478.475Z" transform="translate(-359.201 -299.34)" fill="#263238"/>
          </g>
          <g id="Grupo_543" data-name="Grupo 543" transform="translate(56.08 3.964)">
            <path id="Trazado_177" data-name="Trazado 177" d="M466.036,283.755a1.938,1.938,0,0,1-.276-.031,1.958,1.958,0,0,0-.27-.03l-1.05,0a3.831,3.831,0,0,0-.411.034,3.7,3.7,0,0,1-.414.034.7.7,0,0,1-.115-.014.675.675,0,0,0-.114-.014.431.431,0,0,1-.436-.261,1.349,1.349,0,0,1-.071-.507,1.991,1.991,0,0,1,.3-1.118,2.661,2.661,0,0,1,.739-.693l.961-.632a1.16,1.16,0,0,0,.565-.932q0-.135-.225-.269a.859.859,0,0,0-.439-.134,1.311,1.311,0,0,0-.8.338,1.328,1.328,0,0,1-.581.337.593.593,0,0,1-.331-.093.358.358,0,0,1-.179-.318.484.484,0,0,1,.179-.375,4.3,4.3,0,0,1,.753-.557,2.012,2.012,0,0,1,2.075.071,1.121,1.121,0,0,1,.568.972,1.842,1.842,0,0,1-.279,1.032,2.412,2.412,0,0,1-.689.661q-.446.282-.892.561a1.392,1.392,0,0,0-.729,1.01q.2-.025.579-.057.76-.039,1.09-.039a1.493,1.493,0,0,1,.607.132c.248.109.372.25.372.421a.482.482,0,0,1-.479.475Z" transform="translate(-462.879 -278.262)" fill="#263238"/>
          </g>
          <g id="Grupo_545" data-name="Grupo 545" transform="translate(9.439 14.27)">
            <g id="Grupo_544" data-name="Grupo 544">
              <path id="Trazado_178" data-name="Trazado 178" d="M368.481,300.169h4.056a.473.473,0,0,0,0-.946h-4.056a.473.473,0,0,0,0,.946Z" transform="translate(-368.024 -299.223)" fill="#263238"/>
            </g>
          </g>
          <g id="Grupo_547" data-name="Grupo 547" transform="translate(20.26 8.744)">
            <g id="Grupo_546" data-name="Grupo 546">
              <path id="Trazado_179" data-name="Trazado 179" d="M390.489,288.93h4.056a.473.473,0,0,0,0-.946h-4.056a.473.473,0,0,0,0,.946Z" transform="translate(-390.032 -287.984)" fill="#263238"/>
            </g>
          </g>
          <g id="Grupo_549" data-name="Grupo 549" transform="translate(18.976 15.182)">
            <g id="Grupo_548" data-name="Grupo 548">
              <path id="Trazado_180" data-name="Trazado 180" d="M387.878,302.022h72.656a.473.473,0,0,0,0-.946H387.878a.473.473,0,0,0,0,.946Z" transform="translate(-387.421 -301.076)" fill="#263238"/>
            </g>
          </g>
          <g id="Grupo_551" data-name="Grupo 551" transform="translate(62.081 8.744)">
            <g id="Grupo_550" data-name="Grupo 550">
              <path id="Trazado_181" data-name="Trazado 181" d="M475.541,288.93H479.6a.473.473,0,0,0,0-.946h-4.056a.473.473,0,0,0,0,.946Z" transform="translate(-475.084 -287.984)" fill="#263238"/>
            </g>
          </g>
          <g id="Grupo_553" data-name="Grupo 553" transform="translate(34.243 8.744)">
            <g id="Grupo_552" data-name="Grupo 552">
              <path id="Trazado_182" data-name="Trazado 182" d="M418.926,288.93h4.056a.473.473,0,0,0,0-.946h-4.056a.473.473,0,0,0,0,.946Z" transform="translate(-418.469 -287.984)" fill="#263238"/>
            </g>
          </g>
          <g id="Grupo_555" data-name="Grupo 555" transform="translate(36.255 6.732)">
            <g id="Grupo_554" data-name="Grupo 554">
              <path id="Trazado_183" data-name="Trazado 183" d="M423.507,288.405V284.35a.473.473,0,0,0-.946,0v4.056a.473.473,0,0,0,.946,0Z" transform="translate(-422.561 -283.893)" fill="#263238"/>
            </g>
          </g>
          <g id="Grupo_557" data-name="Grupo 557" transform="translate(9.523 16.637)">
            <g id="Grupo_556" data-name="Grupo 556">
              <path id="Trazado_184" data-name="Trazado 184" d="M368.653,304.981h4.121a.473.473,0,0,0,0-.946h-4.121a.473.473,0,0,0,0,.946Z" transform="translate(-368.196 -304.035)" fill="#263238"/>
            </g>
          </g>
          <g id="Grupo_559" data-name="Grupo 559" transform="translate(42.847)">
            <g id="Grupo_558" data-name="Grupo 558">
              <path id="Trazado_185" data-name="Trazado 185" d="M436.025,276.681,439,282.351a.479.479,0,0,0,.864-.113l3.287-10,.465-1.413-.456.347h33.885c1.56,0,3.138.069,4.7,0,.023,0,.046,0,.068,0a.473.473,0,0,0,0-.946H447.93c-1.56,0-3.138-.069-4.7,0-.023,0-.045,0-.068,0a.485.485,0,0,0-.456.347l-3.288,10-.464,1.412.864-.113-2.979-5.671c-.283-.539-1.1-.061-.817.477Z" transform="translate(-435.966 -270.201)" fill="#263238"/>
            </g>
          </g>
        </g>
        <g id="Grupo_575" data-name="Grupo 575" transform="translate(141.591 64.577)">
          <g id="Grupo_573" data-name="Grupo 573">
            <g id="Grupo_571" data-name="Grupo 571">
              <g id="Grupo_562" data-name="Grupo 562" transform="translate(6.716 12.956)">
                <g id="Grupo_561" data-name="Grupo 561">
                  <path id="Trazado_186" data-name="Trazado 186" d="M589.588,235.054a18.19,18.19,0,0,1-15.478-8.586,14.582,14.582,0,0,1,4.7-20.081,11.712,11.712,0,0,1,16.112,3.767,9.4,9.4,0,0,1-3.025,12.937,7.559,7.559,0,0,1-10.4-2.432,6.073,6.073,0,0,1,1.956-8.364,4.9,4.9,0,0,1,6.739,1.575,3.954,3.954,0,0,1-1.272,5.439.171.171,0,0,1-.237-.056.172.172,0,0,1,.056-.237,3.61,3.61,0,0,0,1.161-4.965,4.557,4.557,0,0,0-6.265-1.464,5.73,5.73,0,0,0-1.845,7.89,7.216,7.216,0,0,0,9.923,2.321,9.062,9.062,0,0,0,2.914-12.464,11.37,11.37,0,0,0-15.638-3.656,14.239,14.239,0,0,0-4.585,19.607,17.862,17.862,0,0,0,24.568,5.744,22.344,22.344,0,0,0,7.194-30.769.172.172,0,0,1,.293-.181,22.687,22.687,0,0,1-7.3,31.243A18.075,18.075,0,0,1,589.588,235.054Z" transform="translate(-571.664 -200.752)" fill="#263238"/>
                  <path id="Trazado_187" data-name="Trazado 187" d="M589.334,235.045a18.343,18.343,0,0,1-15.687-8.7,14.826,14.826,0,0,1,4.775-20.419,11.958,11.958,0,0,1,16.451,3.846,9.652,9.652,0,0,1-3.1,13.276,7.8,7.8,0,0,1-10.736-2.511,6.319,6.319,0,0,1,2.035-8.7,5.145,5.145,0,0,1,7.078,1.654,4.2,4.2,0,0,1-1.351,5.778.4.4,0,0,1-.31.055.422.422,0,0,1-.266-.188.419.419,0,0,1,.135-.576,3.364,3.364,0,0,0,1.081-4.626,4.31,4.31,0,0,0-5.927-1.385,5.484,5.484,0,0,0-1.766,7.552,6.971,6.971,0,0,0,9.584,2.242,8.816,8.816,0,0,0,2.835-12.125,11.126,11.126,0,0,0-15.3-3.577,13.993,13.993,0,0,0-4.505,19.269,17.617,17.617,0,0,0,24.229,5.665,22.1,22.1,0,0,0,7.115-30.43.418.418,0,0,1,.711-.442,22.933,22.933,0,0,1-7.384,31.582A18.359,18.359,0,0,1,589.334,235.045Zm-.8-16.2,0,0Z" transform="translate(-571.409 -200.497)" fill="#263238"/>
                </g>
              </g>
              <g id="Grupo_564" data-name="Grupo 564" transform="translate(21.417)">
                <g id="Grupo_563" data-name="Grupo 563">
                  <path id="Trazado_188" data-name="Trazado 188" d="M601.979,228.763a.172.172,0,0,1-.172-.172v-53.77a.172.172,0,1,1,.344,0v53.77A.172.172,0,0,1,601.979,228.763Z" transform="translate(-601.561 -174.403)" fill="#263238"/>
                  <path id="Trazado_189" data-name="Trazado 189" d="M601.724,228.755a.419.419,0,0,1-.418-.418v-53.77a.418.418,0,0,1,.836,0v53.77A.418.418,0,0,1,601.724,228.755Z" transform="translate(-601.306 -174.149)" fill="#263238"/>
                </g>
              </g>
              <g id="Grupo_566" data-name="Grupo 566" transform="translate(0 27.849)">
                <g id="Grupo_565" data-name="Grupo 565">
                  <path id="Trazado_190" data-name="Trazado 190" d="M607.689,231.631H558.422a.172.172,0,0,1,0-.345h49.267a.172.172,0,0,1,0,.345Z" transform="translate(-558.004 -231.04)" fill="#263238"/>
                  <path id="Trazado_191" data-name="Trazado 191" d="M607.435,231.622H558.168a.418.418,0,0,1,0-.836h49.267a.418.418,0,1,1,0,.836Z" transform="translate(-557.75 -230.786)" fill="#263238"/>
                </g>
              </g>
              <g id="Grupo_568" data-name="Grupo 568" transform="translate(47.93 27.382)">
                <g id="Grupo_567" data-name="Grupo 567">
                  <path id="Trazado_192" data-name="Trazado 192" d="M656.012,231.86a.172.172,0,0,1-.086-.322l.9-.516-.984-.351a.172.172,0,0,1-.1-.22.174.174,0,0,1,.22-.1l1.337.476a.172.172,0,0,1,.028.312l-1.223.7A.17.17,0,0,1,656.012,231.86Z" transform="translate(-655.48 -230.091)" fill="#263238"/>
                  <path id="Trazado_193" data-name="Trazado 193" d="M655.757,231.851a.417.417,0,0,1-.363-.211.417.417,0,0,1,.155-.57l.436-.25-.482-.171a.418.418,0,0,1,.279-.788l1.339.476a.418.418,0,0,1,.068.756l-1.224.7A.42.42,0,0,1,655.757,231.851Zm-.037-.482h0Z" transform="translate(-655.226 -229.837)" fill="#263238"/>
                </g>
              </g>
              <g id="Grupo_570" data-name="Grupo 570" transform="translate(20.582)">
                <g id="Grupo_569" data-name="Grupo 569">
                  <path id="Trazado_194" data-name="Trazado 194" d="M601.951,177.028a.172.172,0,0,1-.16-.11l-.637-1.644-.715,1.65a.175.175,0,0,1-.227.09.172.172,0,0,1-.089-.227l.882-2.035a.185.185,0,0,1,.162-.1.171.171,0,0,1,.157.11l.789,2.035a.172.172,0,0,1-.1.223A.185.185,0,0,1,601.951,177.028Z" transform="translate(-599.862 -174.403)" fill="#263238"/>
                  <path id="Trazado_195" data-name="Trazado 195" d="M601.7,177.02a.42.42,0,0,1-.389-.267l-.42-1.085-.477,1.1a.418.418,0,0,1-.769-.331l.883-2.036a.43.43,0,0,1,.377-.251.421.421,0,0,1,.4.266l.789,2.036a.418.418,0,0,1-.24.542A.433.433,0,0,1,601.7,177.02Z" transform="translate(-599.608 -174.149)" fill="#263238"/>
                </g>
              </g>
            </g>
            <g id="Grupo_572" data-name="Grupo 572" transform="translate(14.297 0.93)">
              <path id="Trazado_196" data-name="Trazado 196" d="M590.144,176.633q-.332.691-1.05,2.17-.389.794-.593,1.318-.064.189-.2.56a.393.393,0,0,1-.389.286.451.451,0,0,1-.3-.113.357.357,0,0,1-.131-.283,6.994,6.994,0,0,1,.645-1.677q-.334-.661-1.062-1.945l-.149-.235a.511.511,0,0,1-.082-.256.388.388,0,0,1,.131-.289.423.423,0,0,1,.3-.125.37.37,0,0,1,.313.149,11.636,11.636,0,0,1,1.007,1.732q.326-.721.4-.871.216-.453.423-.8a.4.4,0,0,1,.359-.219.454.454,0,0,1,.3.116.36.36,0,0,1,.134.283A.451.451,0,0,1,590.144,176.633Z" transform="translate(-586.827 -176.04)" fill="#263238"/>
            </g>
          </g>
          <g id="Grupo_574" data-name="Grupo 574" transform="translate(48.24 20.187)">
            <path id="Trazado_197" data-name="Trazado 197" d="M659.1,216.1q-.174.149-.447.393l-.466.432.928,1.135a.4.4,0,0,1,.1.246.368.368,0,0,1-.128.277.419.419,0,0,1-.292.119.4.4,0,0,1-.3-.147q-.274-.3-.9-1.074-.246.246-.764.718a2.765,2.765,0,0,0-.249.229.4.4,0,0,1-.592.021.37.37,0,0,1-.126-.277.614.614,0,0,1,.25-.405l.4-.344q.186-.185.578-.569c-.113-.158-.228-.317-.344-.474a2.6,2.6,0,0,0-.4-.436.378.378,0,0,1-.158-.3.415.415,0,0,1,.408-.4q.216,0,.6.435l.487.627q.262-.219.521-.438a2.934,2.934,0,0,0,.462-.478.392.392,0,0,1,.332-.186.43.43,0,0,1,.294.116.358.358,0,0,1,.129.274A.836.836,0,0,1,659.1,216.1Z" transform="translate(-655.856 -215.204)" fill="#263238"/>
          </g>
        </g>
      </g>
    </g>
    <g id="Grupo_165820" data-name="Grupo 165820" transform="translate(1084.24 27146.146)">
      <g id="Grupo_165819" data-name="Grupo 165819" clip-path="url(#clip-path-3)">
        <g id="Grupo_165818" data-name="Grupo 165818">
          <g id="Grupo_165817" data-name="Grupo 165817" clip-path="url(#clip-path-3)">
            <path id="Trazado_178097" data-name="Trazado 178097" d="M102.971,114.915l-5.91-33.583c-3.027-26.248-3.547-58.242-7.727-66.464C81.612-.318,59.725,0,59.725,0,30.662.315,27.331,22.942,26.081,43.4c-.212,3.471-1.165,9.687-2.44,16.887-3.067,15.028-7.2,30.536-17.063,41.392a26.372,26.372,0,0,0-6.535,15.3c-.474,5.578,3,11.968,8.576,12.434A12.831,12.831,0,0,0,12.3,149.343c4.87,2.524,10.737,1.694,16.116.62,5.344-1.067,10.921-2.454,14.893-6.184s5.716-9.245,6.944-14.566a125,125,0,0,0,2.9-19.493Z" transform="translate(0 0)" fill="#263238"/>
            <path id="Trazado_178098" data-name="Trazado 178098" d="M96.458,13.087l-1.95-1.574L75.622,21a5.471,5.471,0,0,0-4.713,5.7L79.14,91.847c.331,4.318-1.31,6.47,1.58,9.7L100.537,123c6.937,7.743,4.86-10.392,9.064-19.9.293-.664-1.4-2.91-1.334-3.371a12.9,12.9,0,0,0,.174-1.447c.159-5.169-.174-9.612-.174-9.612-.115-5.651-.19-7.968-.185-7.915,0,0,11.851-2.362,13.82-17.986.978-7.771-.19-18.253-1.5-28.558-1.806-14.26-12.446-22.089-23.949-21.126" transform="translate(-32.214 -5.231)" fill="#ffc09d"/>
            <path id="Trazado_178099" data-name="Trazado 178099" d="M117.774,75.34a1.994,1.994,0,0,1-1.858,2.073,1.907,1.907,0,0,1-2.113-1.731,2,2,0,0,1,1.855-2.075,1.909,1.909,0,0,1,2.115,1.732" transform="translate(-51.705 -33.44)" fill="#263238"/>
            <path id="Trazado_178100" data-name="Trazado 178100" d="M152.933,73.244a1.994,1.994,0,0,1-1.857,2.073,1.908,1.908,0,0,1-2.113-1.732,2,2,0,0,1,1.855-2.074,1.909,1.909,0,0,1,2.115,1.732" transform="translate(-67.68 -32.488)" fill="#263238"/>
            <path id="Trazado_178101" data-name="Trazado 178101" d="M151.939,59.278c-.239.268-1.785-.8-3.93-.727-2.144.044-3.683,1.2-3.924.943-.119-.113.118-.59.787-1.111A5.48,5.48,0,0,1,148,57.306a5.259,5.259,0,0,1,3.139.9c.676.485.915.948.8,1.068" transform="translate(-65.452 -26.036)" fill="#263238"/>
            <path id="Trazado_178102" data-name="Trazado 178102" d="M112.258,62.62c-.266.242-1.7-.981-3.836-1.126-2.137-.177-3.786.813-4,.535-.1-.124.177-.575.9-1.024a5.469,5.469,0,0,1,3.225-.75,5.261,5.261,0,0,1,3.029,1.221c.621.552.812,1.037.683,1.145" transform="translate(-47.435 -27.37)" fill="#263238"/>
            <path id="Trazado_178103" data-name="Trazado 178103" d="M133.517,77.118a14.243,14.243,0,0,1,3.464-.74c.546-.075,1.061-.2,1.141-.577a2.787,2.787,0,0,0-.418-1.612q-.836-1.964-1.754-4.12c-2.44-5.866-4.227-10.7-3.989-10.794s2.408,4.581,4.849,10.447c.588,1.448,1.151,2.826,1.687,4.146a3.173,3.173,0,0,1,.354,2.141,1.378,1.378,0,0,1-.875.83,3.725,3.725,0,0,1-.926.159,13.948,13.948,0,0,1-3.531.118" transform="translate(-59.947 -26.932)" fill="#263238"/>
            <path id="Trazado_178104" data-name="Trazado 178104" d="M121.558,134.351a39.571,39.571,0,0,1-21-4.884s5.58,10.593,21.093,8.638Z" transform="translate(-45.69 -58.824)" fill="#ff9b6c"/>
            <path id="Trazado_178105" data-name="Trazado 178105" d="M128.178,100.373a3.868,3.868,0,0,0-3.512-1.324,3.531,3.531,0,0,0-2.4,1.386,2.239,2.239,0,0,0-.088,2.562,2.6,2.6,0,0,0,2.836.62,8.143,8.143,0,0,0,2.689-1.724,2.382,2.382,0,0,0,.592-.654.717.717,0,0,0-.029-.8" transform="translate(-55.349 -44.986)" fill="#ff9b6c"/>
            <path id="Trazado_178106" data-name="Trazado 178106" d="M123.085,95.07c.348-.032.427,2.3,2.474,3.886s4.517,1.253,4.545,1.578c.037.145-.538.47-1.585.532a5.8,5.8,0,0,1-3.79-1.185,5.053,5.053,0,0,1-1.926-3.263c-.12-.971.121-1.556.281-1.547" transform="translate(-55.782 -43.195)" fill="#263238"/>
            <path id="Trazado_178107" data-name="Trazado 178107" d="M113.1,47.434c-.252.567-2.371.142-4.9.269-2.537.076-4.613.669-4.91.124-.132-.26.26-.783,1.119-1.289a8.535,8.535,0,0,1,7.476-.3c.9.436,1.329.926,1.218,1.2" transform="translate(-46.917 -20.681)" fill="#263238"/>
            <path id="Trazado_178108" data-name="Trazado 178108" d="M150.459,42.392c-.361.5-1.856.041-3.634.075-1.778-.029-3.271.433-3.634-.066-.16-.242.062-.738.7-1.221a5.263,5.263,0,0,1,5.856-.007c.644.481.866.976.708,1.219" transform="translate(-65.037 -18.305)" fill="#263238"/>
            <path id="Trazado_178109" data-name="Trazado 178109" d="M71.561,52.957s11.223,2.5,15.19-25.014c1.356-9.409,9.3-17.593,9.3-17.593l-3.558-.758s-21.078,7.857-21.418,8.16-4.524,11.609-4.524,11.609Z" transform="translate(-30.238 -4.358)" fill="#263238"/>
            <path id="Trazado_178110" data-name="Trazado 178110" d="M71.376,83.419c-.04-1.157-1.466-3.844-2.615-3.985-3.068-.378-8.563.045-8.365,7.8.271,10.6,10.858,8.143,10.869,7.838.009-.237.249-7.654.111-11.652" transform="translate(-27.439 -36.048)" fill="#ffc09d"/>
            <path id="Trazado_178111" data-name="Trazado 178111" d="M70.17,94.019c-.047-.033-.181.134-.49.285a1.843,1.843,0,0,1-1.379.064c-1.131-.382-2.119-2.136-2.22-4.045a6.094,6.094,0,0,1,.45-2.658,2.133,2.133,0,0,1,1.353-1.453.941.941,0,0,1,1.1.478c.15.293.088.507.145.523.03.026.223-.183.127-.618a1.183,1.183,0,0,0-.434-.654,1.4,1.4,0,0,0-1.029-.244,2.6,2.6,0,0,0-1.887,1.694,6.265,6.265,0,0,0-.564,2.972c.122,2.134,1.266,4.1,2.811,4.509a1.982,1.982,0,0,0,1.682-.324c.321-.27.371-.509.334-.527" transform="translate(-29.685 -38.93)" fill="#ff9b6c"/>
            <path id="Trazado_178112" data-name="Trazado 178112" d="M88.555,48.7a15.5,15.5,0,0,0,1.555-.449,9.572,9.572,0,0,0,3.578-2.491A13.1,13.1,0,0,0,95.458,43.3,17.706,17.706,0,0,0,96.8,40.087a66.526,66.526,0,0,0,1.64-7.861,80.513,80.513,0,0,1,1.8-7.863,44.058,44.058,0,0,1,2.258-6.188,31.787,31.787,0,0,1,2.111-3.907c.277-.445.524-.77.679-1a2.368,2.368,0,0,1,.256-.334,2.415,2.415,0,0,1-.209.367c-.14.237-.371.571-.633,1.024a36.2,36.2,0,0,0-2.023,3.931,46.292,46.292,0,0,0-2.19,6.178c-.675,2.377-1.255,5.034-1.768,7.842a63.782,63.782,0,0,1-1.67,7.888,17.627,17.627,0,0,1-1.384,3.251,13.058,13.058,0,0,1-1.83,2.479,9.373,9.373,0,0,1-3.685,2.457,5.853,5.853,0,0,1-1.592.346" transform="translate(-40.235 -5.877)" fill="#263238"/>
            <path id="Trazado_178113" data-name="Trazado 178113" d="M37.848,200.83l20.8,50.509L52.09,275.2h82.557s-5.443-24.92-5.777-30.521,0-37.578-2.668-48.55S115.9,161.639,115.9,161.639l-22.47-3.568c-10.3,5.534-18.394,4.6-29.473-1.809l-20.37,10.01Z" transform="translate(-17.196 -70.998)" fill="#43a99b"/>
            <g id="Grupo_165813" data-name="Grupo 165813" transform="translate(48.925 177.346)" opacity="0.3">
              <g id="Grupo_165812" data-name="Grupo 165812">
                <g id="Grupo_165811" data-name="Grupo 165811" clip-path="url(#clip-path-5)">
                  <path id="Trazado_178114" data-name="Trazado 178114" d="M152.991,325.019l-63.326,6.274c4.564-.1,8.077,3.767,12.029,6.053,7.317,4.233,16.43,3.049,24.781,1.735l20.756-3.265c1.746-.275,3.606-.6,4.893-1.815,2.306-2.171,1.675-5.92.866-8.983" transform="translate(-89.665 -325.019)"/>
                </g>
              </g>
            </g>
            <path id="Trazado_178115" data-name="Trazado 178115" d="M92.944,305.808,82.34,295.57a4.894,4.894,0,0,0-3.862-1.354c-3.027.286-8.156.818-9.211,1.229a7.266,7.266,0,0,0-3.37,2.19,44.682,44.682,0,0,0-1.938,5.982,13.81,13.81,0,0,0,.169,2.157,1.5,1.5,0,0,0,2.2,1.144,2.488,2.488,0,0,0,1-.942,3.366,3.366,0,0,0,.59-1.77s-.337,4.55,3.37,4.634c0,0-1.707,3.876,3.064,5.477,0,0-.176,2.528,3.815,2.865a48.608,48.608,0,0,0,7.613,0s7.3,5.24,12.435,5.577,16.648-1.909,16.648-1.909l1.389-21.2Z" transform="translate(-29.056 -133.668)" fill="#ffc09d"/>
            <path id="Trazado_178116" data-name="Trazado 178116" d="M81.7,303.571a11.31,11.31,0,0,1-1.7.712c-1.065.4-2.547.929-4.229,1.376-.833.237-1.673.371-2.371.561a2.58,2.58,0,0,0-1.445,1.185,11.885,11.885,0,0,1-.765,1.111c-.209.247-.356.351-.367.339a3.025,3.025,0,0,1,.278-.406c.181-.258.391-.659.684-1.154a3.926,3.926,0,0,1,.578-.758,2.352,2.352,0,0,1,.956-.567c.746-.219,1.542-.35,2.378-.588,1.669-.444,3.155-.942,4.235-1.291a12.432,12.432,0,0,1,1.765-.522" transform="translate(-32.179 -137.927)" fill="#ff9b6c"/>
            <path id="Trazado_178117" data-name="Trazado 178117" d="M86.274,315.479a5.658,5.658,0,0,1-1.18.545c-.744.3-1.782.685-2.941,1.073s-2.221.7-3,.914a5.706,5.706,0,0,1-1.27.275,6.127,6.127,0,0,1,1.212-.468l2.963-.991,2.963-.992a6.192,6.192,0,0,1,1.249-.356" transform="translate(-35.388 -143.337)" fill="#ff9b6c"/>
            <path id="Trazado_178118" data-name="Trazado 178118" d="M91.4,326.54c.009.087-1.846.277-4.053.877s-3.91,1.359-3.946,1.279a4.425,4.425,0,0,1,1.082-.575,20,20,0,0,1,5.692-1.535,4.449,4.449,0,0,1,1.224-.047" transform="translate(-37.894 -148.354)" fill="#ff9b6c"/>
            <path id="Trazado_178119" data-name="Trazado 178119" d="M135.656,319.612l46.915-8.148s-5.526-22.956-13.774-22.956c-1.208,0-42.046,15.26-42.046,15.26Z" transform="translate(-57.59 -131.084)" fill="#ffc09d"/>
            <path id="Trazado_178120" data-name="Trazado 178120" d="M177.31,166.048s6.82,1.456,11.679,11.381c4.8,9.805,23.372,53.023,24.1,60.272s-5.156,17.008-10.284,18.357l-15.814-23.189.483-3.383-13.238-44.15Z" transform="translate(-79.163 -75.445)" fill="#43a99b"/>
            <path id="Trazado_178121" data-name="Trazado 178121" d="M122.036,320.628a8.766,8.766,0,0,1-1.1-1.01l-2.57-2.525c-1-.993-1.89-1.906-2.514-2.587a7.064,7.064,0,0,1-.959-1.15,8.729,8.729,0,0,1,1.1,1.009l2.571,2.526c1,.993,1.888,1.905,2.514,2.586a7.1,7.1,0,0,1,.959,1.15" transform="translate(-52.199 -142.374)" fill="#ff9b6c"/>
            <path id="Trazado_178122" data-name="Trazado 178122" d="M186.185,196.159s.036.03.095.1l.256.3c.216.274.567.654.949,1.2a31.636,31.636,0,0,1,2.934,4.789,39.283,39.283,0,0,1,2.9,7.808,51.317,51.317,0,0,1,1.522,10.085,94,94,0,0,1-1.216,18.467c-.352,2.344-.673,4.234-.9,5.539q-.172.951-.271,1.5c-.032.157-.057.285-.078.39a.466.466,0,0,1-.036.131.484.484,0,0,1,.008-.136c.013-.105.029-.235.05-.394q.08-.552.218-1.51c.195-1.335.471-3.224.811-5.55a98.937,98.937,0,0,0,1.131-18.424,52.22,52.22,0,0,0-1.491-10.034,40.182,40.182,0,0,0-2.828-7.784,34.142,34.142,0,0,0-2.843-4.813c-.367-.551-.7-.94-.9-1.226l-.234-.32a.486.486,0,0,1-.073-.116" transform="translate(-84.594 -89.125)" fill="#263238"/>
            <path id="Trazado_178123" data-name="Trazado 178123" d="M216.162,283.356a3.037,3.037,0,0,1-.648-.167l-1.737-.539a29.554,29.554,0,0,0-5.823-1.283,13.426,13.426,0,0,0-5.859.674,16.725,16.725,0,0,0-2.213,1.092,2.541,2.541,0,0,1,.523-.42,8.468,8.468,0,0,1,1.617-.859,12.781,12.781,0,0,1,5.957-.769,25.753,25.753,0,0,1,5.859,1.375c.728.25,1.311.469,1.711.625a2.994,2.994,0,0,1,.612.271" transform="translate(-90.817 -127.682)" fill="#263238"/>
            <path id="Trazado_178124" data-name="Trazado 178124" d="M214.222,266.466a3.211,3.211,0,0,1-.645.244c-.421.134-1.025.349-1.76.634a29.107,29.107,0,0,0-10.225,6.715c-.554.561-.991,1.03-1.282,1.364a3.233,3.233,0,0,1-.481.495,3.252,3.252,0,0,1,.4-.566c.266-.356.681-.848,1.221-1.432a26.1,26.1,0,0,1,10.3-6.764c.75-.264,1.366-.45,1.8-.552a3.209,3.209,0,0,1,.677-.138" transform="translate(-90.792 -121.068)" fill="#263238"/>
            <g id="Grupo_165816" data-name="Grupo 165816" transform="translate(107.258 117.26)" opacity="0.3">
              <g id="Grupo_165815" data-name="Grupo 165815" transform="translate(0)">
                <g id="Grupo_165814" data-name="Grupo 165814" clip-path="url(#clip-path-6)">
                  <path id="Trazado_178125" data-name="Trazado 178125" d="M196.57,214.9a58.364,58.364,0,0,1,3.034,30.767l8.5-3.173a26.513,26.513,0,0,1-8.826,7.743,20.7,20.7,0,0,1,7.018-1.176,7.024,7.024,0,0,1,5.909,3.432,28.609,28.609,0,0,0-8.408-.689,9.659,9.659,0,0,0-7.142,4.008,98.51,98.51,0,0,0,2.387-27.64" transform="translate(-196.57 -214.901)"/>
                </g>
              </g>
            </g>
            <path id="Trazado_178126" data-name="Trazado 178126" d="M81.569,149.422c-3.963-8.428-8.4-17.219-7.713-26.506a9.388,9.388,0,0,0-5.933,11.052l-3.194,8.53a48.28,48.28,0,0,0,22.243,33.759c2.242-9.039-1.44-18.406-5.4-26.834" transform="translate(-29.41 -55.847)" fill="#263238"/>
            <path id="Trazado_178127" data-name="Trazado 178127" d="M39.834,173.472s-15.755,9.19-11.675,26.1c4.6,19.059,47.018,47.53,47.018,47.53-1.992-11.78-.441-23.048,6.01-33.606L59.224,193.15" transform="translate(-12.488 -78.818)" fill="#43a99b"/>
            <path id="Trazado_178128" data-name="Trazado 178128" d="M59.15,193.149s.141.115.4.351l1.16,1.054,4.42,4.055,16.055,14.809.065.061-.046.077a46.324,46.324,0,0,0-5.888,15.007,51.262,51.262,0,0,0-.079,18.519l.055.322-.269-.183c-4.472-3.051-9-6.38-13.546-9.918-8.877-6.949-17.006-14.05-23.5-21.377-.825-.9-1.577-1.849-2.348-2.758-.725-.946-1.482-1.848-2.141-2.8a42.193,42.193,0,0,1-3.566-5.722A22.561,22.561,0,0,1,27.35,192.93a21.775,21.775,0,0,1,2.806-9.515,27.054,27.054,0,0,1,4.58-5.967,29.344,29.344,0,0,1,3.63-3.077c.444-.316.792-.542,1.028-.69s.366-.211.366-.211-.118.081-.35.235-.573.389-1.01.712a30.824,30.824,0,0,0-3.585,3.109,27.209,27.209,0,0,0-4.518,5.966,21.676,21.676,0,0,0-2.745,9.448,22.39,22.39,0,0,0,2.586,11.594,42.053,42.053,0,0,0,3.559,5.682c.658.949,1.414,1.847,2.138,2.788.769.905,1.521,1.846,2.345,2.746,6.484,7.3,14.608,14.385,23.476,21.327,4.54,3.534,9.067,6.864,13.527,9.911l-.215.139a51.405,51.405,0,0,1,.1-18.615,46.4,46.4,0,0,1,5.951-15.072l.019.138L65.05,198.7l-4.38-4.1-1.139-1.077c-.256-.244-.381-.375-.381-.375" transform="translate(-12.413 -78.817)" fill="#263238"/>
            <path id="Trazado_178129" data-name="Trazado 178129" d="M114.254,250.079s9.927,8.1,20.094,3.271c1.626-.772,3.669-2.8,4.9-6.172,6.472-17.741,7.232-64.576,7.232-64.576l-17.738-1.2-8.48,35.7c-6.1,8.746-8.013,19.786-6.01,32.978" transform="translate(-51.565 -82.42)" fill="#ffc09d"/>
            <path id="Trazado_178130" data-name="Trazado 178130" d="M145.743,286.6a1.521,1.521,0,0,1-.035.338c-.033.22-.081.545-.16.96-.15.832-.393,2.032-.8,3.492a25.6,25.6,0,0,1-1.9,4.968,12.115,12.115,0,0,1-4.266,4.886,12.421,12.421,0,0,1-6.287,1.612,17.981,17.981,0,0,1-5.26-.781,18.977,18.977,0,0,1-3.33-1.326c-.382-.182-.657-.365-.852-.473a1.5,1.5,0,0,1-.285-.186c.013-.023.423.2,1.185.56a21.29,21.29,0,0,0,3.337,1.233,18.321,18.321,0,0,0,5.2.712A12.316,12.316,0,0,0,138.444,301a12,12,0,0,0,4.18-4.764,26.589,26.589,0,0,0,1.935-4.9c.425-1.444.7-2.635.881-3.458l.212-.948a1.513,1.513,0,0,1,.091-.328" transform="translate(-55.693 -130.217)" fill="#ff9b6c"/>
            <path id="Trazado_178131" data-name="Trazado 178131" d="M113.063,247.293a17.416,17.416,0,0,0-2.828.774,15.805,15.805,0,0,0-5.712,4.059,34.46,34.46,0,0,0-4.105,5.773l-1.093,1.861a4.255,4.255,0,0,1-.429.668,4.222,4.222,0,0,1,.332-.721c.23-.456.572-1.11,1.016-1.908a30.784,30.784,0,0,1,4.071-5.866,15.181,15.181,0,0,1,5.85-4.055,10.194,10.194,0,0,1,2.105-.532,5.806,5.806,0,0,1,.588-.057.58.58,0,0,1,.206,0" transform="translate(-44.932 -112.355)" fill="#263238"/>
            <path id="Trazado_178132" data-name="Trazado 178132" d="M130.079,145.8c-.392-1.308-2.6-13.4-3.5-16.207-1.268-3.966-11.571-11.057-11.571-11.057s1.616-3.722,6-1.788c5.194,2.291,7.761,6.147,9.07,5.362s9.467-9.09,11.692-8.828a2.3,2.3,0,0,1,1.928,3.46,20.3,20.3,0,0,0-1.666,2.428s4.711-1.418,3.795,3.74c0,0,5.365-3.348,4.841,3.719,0,0,3.533-1.439,4.318,1.047s-1.543,5.365-2.721,7.327-5,13.346-5,13.346l-.442,6.962-18.362-.781Z" transform="translate(-52.254 -51.468)" fill="#ffc09d"/>
            <path id="Trazado_178133" data-name="Trazado 178133" d="M146.929,155.864s-.008-.169,0-.5.011-.83.021-1.469c.026-1.3.064-3.206.114-5.66v-.01l0-.009c.963-2.854,2.192-6.56,3.858-10.87a16.092,16.092,0,0,1,1.571-3.244,22.451,22.451,0,0,0,1.893-3.317,5.943,5.943,0,0,0,.488-1.9,2.986,2.986,0,0,0-.453-1.89,1.9,1.9,0,0,0-.337-.354,2.187,2.187,0,0,0-.436-.234,2.665,2.665,0,0,0-1-.178,5.949,5.949,0,0,0-2.073.4l-.184.069.013-.194a10.073,10.073,0,0,0-.04-2.01,3.18,3.18,0,0,0-.76-1.821,2.081,2.081,0,0,0-1.869-.5,5.694,5.694,0,0,0-1.977.737l-.235.137.033-.273c.032-.264.064-.53.1-.8.017-.267,0-.537,0-.808a2.674,2.674,0,0,0-.579-1.468,2.231,2.231,0,0,0-1.454-.66,4.775,4.775,0,0,0-1.688.148l-.332.089.172-.291c.324-.547.666-1.083,1.037-1.611.186-.263.379-.523.59-.775a1.446,1.446,0,0,0,.351-.8,2.192,2.192,0,0,0-.542-1.7,2.45,2.45,0,0,0-1.643-.792,2.12,2.12,0,0,0-.894.231,7.709,7.709,0,0,0-.868.467c-.566.348-1.112.74-1.65,1.147-1.075.817-2.117,1.7-3.153,2.609l-2.413,2.154c-.8.714-1.569,1.444-2.426,2.1a.975.975,0,0,1-.857.2,2.225,2.225,0,0,1-.746-.382,15.513,15.513,0,0,1-1.208-1.026c-.77-.7-1.544-1.38-2.361-1.989a19.829,19.829,0,0,0-2.552-1.624,8.879,8.879,0,0,0-2.748-1.015,4.477,4.477,0,0,0-2.77.367,4.575,4.575,0,0,0-1.932,1.93l-.046-.164a68.389,68.389,0,0,1,7.845,6.232,20.2,20.2,0,0,1,3.046,3.477,5.364,5.364,0,0,1,.531.989c.068.174.156.342.206.518l.147.524c.18.7.34,1.387.492,2.064,1.194,5.412,2,10.046,2.8,13.548l0,.019,0,.014-1.233,6.476q-.215,1.1-.328,1.675c-.076.376-.124.566-.124.566s.023-.195.087-.573l.293-1.681c.267-1.489.66-3.671,1.167-6.489l0,.033c-.836-3.52-1.66-8.136-2.874-13.542a12,12,0,0,0-1.36-4.019,19.983,19.983,0,0,0-3.02-3.424,68.474,68.474,0,0,0-7.826-6.19l-.1-.067.05-.1a4.826,4.826,0,0,1,2.051-2.06,4.75,4.75,0,0,1,2.934-.4,9.113,9.113,0,0,1,2.836,1.041,20.037,20.037,0,0,1,2.589,1.643c.828.616,1.612,1.3,2.383,2a15.364,15.364,0,0,0,1.184,1.005c.408.3.893.529,1.274.184.821-.631,1.6-1.373,2.4-2.083l2.416-2.156c1.04-.907,2.084-1.8,3.169-2.621.543-.411,1.1-.807,1.674-1.162a7.922,7.922,0,0,1,.9-.484,2.365,2.365,0,0,1,1.026-.254,2.725,2.725,0,0,1,1.836.888,2.471,2.471,0,0,1,.608,1.92,1.742,1.742,0,0,1-.415.945c-.2.242-.393.5-.577.756-.365.518-.706,1.053-1.025,1.589l-.159-.2a5.036,5.036,0,0,1,1.8-.157,2.5,2.5,0,0,1,1.624.749,2.934,2.934,0,0,1,.647,1.627c0,.285.017.571,0,.851q-.052.416-.1.826l-.2-.136a5.935,5.935,0,0,1,2.08-.77,2.979,2.979,0,0,1,1.116.03,2.043,2.043,0,0,1,.975.549,3.42,3.42,0,0,1,.828,1.968,10.272,10.272,0,0,1,.038,2.065l-.172-.126a6.163,6.163,0,0,1,2.171-.417,2.892,2.892,0,0,1,1.087.2,2.391,2.391,0,0,1,.491.266,2.117,2.117,0,0,1,.384.4,3.211,3.211,0,0,1,.494,2.047,6.164,6.164,0,0,1-.511,1.974,22.642,22.642,0,0,1-1.922,3.344,15.89,15.89,0,0,0-1.566,3.2c-1.681,4.294-2.933,7.994-3.919,10.838l0-.019c-.076,2.453-.136,4.357-.177,5.658q-.036.958-.055,1.468c-.015.331-.031.5-.031.5" transform="translate(-52.113 -51.355)" fill="#ff9b6c"/>
            <path id="Trazado_178134" data-name="Trazado 178134" d="M160.668,124.315a26.54,26.54,0,0,1-2.277,2.124,26.6,26.6,0,0,1-2.33,2.065,19.961,19.961,0,0,1,4.607-4.189" transform="translate(-70.906 -56.482)" fill="#ff9b6c"/>
            <path id="Trazado_178135" data-name="Trazado 178135" d="M169.778,130.415a7.721,7.721,0,0,1-2.9,3.737c-.055-.063.725-.785,1.518-1.815s1.305-1.958,1.38-1.921" transform="translate(-75.821 -59.254)" fill="#ff9b6c"/>
            <path id="Trazado_178136" data-name="Trazado 178136" d="M178.393,137.271a12.513,12.513,0,0,1-2.2,3.052,12.512,12.512,0,0,1,2.2-3.052" transform="translate(-80.05 -62.369)" fill="#ff9b6c"/>
          </g>
        </g>
      </g>
    </g>
    <rect id="Rectángulo_49842" data-name="Rectángulo 49842" width="319" height="264" transform="translate(1049 27086.82)" fill="none"/>
  </g>
</svg>
