<svg xmlns="http://www.w3.org/2000/svg" width="1020" height="334" viewBox="0 0 1020 334">
  <g id="Grupo_166881" data-name="Grupo 166881" transform="translate(-289 -11545.443)">
    <path id="Trazado_177213" data-name="Trazado 177213" d="M5.086-7.453l2.133-3.922h2.7L6.6-5.734,10,0H7.273L5.086-3.984,2.9,0H.172l3.4-5.734L.258-11.375h2.7Z" transform="translate(574 11847.106)" fill="#12263f"/>
    <path id="Trazado_178019" data-name="Trazado 178019" d="M0,0H315V333H0Z" transform="translate(289 11545.443)" fill="#fff"/>
    <path id="Trazado_177139" data-name="Trazado 177139" d="M-8258-4111.105v263.867" transform="translate(8632 15694.443)" fill="none" stroke="#000" stroke-width="1"/>
    <path id="Trazado_177140" data-name="Trazado 177140" d="M-8286.344-3875.02H-8048" transform="translate(8632 15694.443)" fill="none" stroke="#707070" stroke-width="1"/>
    <path id="Trazado_177179" data-name="Trazado 177179" d="M7.844-8.406a2.641,2.641,0,0,1-.449,1.516A3.057,3.057,0,0,1,6.18-5.852,3.26,3.26,0,0,1,7.59-4.734a2.811,2.811,0,0,1,.52,1.664,2.972,2.972,0,0,1-1,2.352A3.827,3.827,0,0,1,4.492.156,3.81,3.81,0,0,1,1.863-.723,2.986,2.986,0,0,1,.875-3.07a2.9,2.9,0,0,1,.5-1.664A3.136,3.136,0,0,1,2.773-5.859,2.981,2.981,0,0,1,1.578-6.9a2.679,2.679,0,0,1-.437-1.508,2.94,2.94,0,0,1,.922-2.281,3.458,3.458,0,0,1,2.43-.844,3.461,3.461,0,0,1,2.426.844A2.934,2.934,0,0,1,7.844-8.406ZM6.664-3.1a2.1,2.1,0,0,0-.605-1.555,2.147,2.147,0,0,0-1.582-.6,2.11,2.11,0,0,0-1.566.594A2.12,2.12,0,0,0,2.32-3.1a2.019,2.019,0,0,0,.574,1.523,2.2,2.2,0,0,0,1.6.555,2.2,2.2,0,0,0,1.594-.559A2.014,2.014,0,0,0,6.664-3.1ZM4.492-10.344a1.865,1.865,0,0,0-1.379.527,1.937,1.937,0,0,0-.527,1.434,1.928,1.928,0,0,0,.52,1.4,1.844,1.844,0,0,0,1.387.535A1.844,1.844,0,0,0,5.879-6.98a1.928,1.928,0,0,0,.52-1.4A1.929,1.929,0,0,0,5.859-9.8,1.839,1.839,0,0,0,4.492-10.344Z" transform="translate(341.156 11747.106)" fill="#12263f"/>
    <path id="Trazado_177161" data-name="Trazado 177161" d="M5.7,0H4.242V-9.633L1.328-8.562V-9.875L5.469-11.43H5.7ZM15.6-11.383v1.227h-.266a3.805,3.805,0,0,0-2.687,1A4.161,4.161,0,0,0,11.492-6.43a3.085,3.085,0,0,1,2.453-1.031,2.95,2.95,0,0,1,2.371,1.047,4.038,4.038,0,0,1,.887,2.7A4.025,4.025,0,0,1,16.246-.9,3.3,3.3,0,0,1,13.68.156,3.247,3.247,0,0,1,11.031-1.1a4.97,4.97,0,0,1-1.016-3.23v-.555a7.488,7.488,0,0,1,1.34-4.8,4.921,4.921,0,0,1,3.988-1.7ZM13.7-6.258a2.306,2.306,0,0,0-1.367.445A2.32,2.32,0,0,0,11.469-4.7v.531A3.731,3.731,0,0,0,12.1-1.9a1.9,1.9,0,0,0,1.578.859,1.838,1.838,0,0,0,1.535-.719,2.982,2.982,0,0,0,.559-1.883,2.983,2.983,0,0,0-.566-1.895A1.816,1.816,0,0,0,13.7-6.258Z" transform="translate(341.156 11680.106)" fill="#12263f"/>
    <path id="Trazado_177159" data-name="Trazado 177159" d="M4.938-6.25,7.3-11.375H9.867L6.133-4.125V0H3.75V-4.125L.016-11.375h2.57Z" transform="translate(341.156 11594.106)" fill="#12263f"/>
    <path id="Trazado_177207" data-name="Trazado 177207" d="M7.844-8.406a2.641,2.641,0,0,1-.449,1.516A3.057,3.057,0,0,1,6.18-5.852,3.26,3.26,0,0,1,7.59-4.734a2.811,2.811,0,0,1,.52,1.664,2.972,2.972,0,0,1-1,2.352A3.827,3.827,0,0,1,4.492.156,3.81,3.81,0,0,1,1.863-.723,2.986,2.986,0,0,1,.875-3.07a2.9,2.9,0,0,1,.5-1.664A3.136,3.136,0,0,1,2.773-5.859,2.981,2.981,0,0,1,1.578-6.9a2.679,2.679,0,0,1-.437-1.508,2.94,2.94,0,0,1,.922-2.281,3.458,3.458,0,0,1,2.43-.844,3.461,3.461,0,0,1,2.426.844A2.934,2.934,0,0,1,7.844-8.406ZM6.664-3.1a2.1,2.1,0,0,0-.605-1.555,2.147,2.147,0,0,0-1.582-.6,2.11,2.11,0,0,0-1.566.594A2.12,2.12,0,0,0,2.32-3.1a2.019,2.019,0,0,0,.574,1.523,2.2,2.2,0,0,0,1.6.555,2.2,2.2,0,0,0,1.594-.559A2.014,2.014,0,0,0,6.664-3.1ZM4.492-10.344a1.865,1.865,0,0,0-1.379.527,1.937,1.937,0,0,0-.527,1.434,1.928,1.928,0,0,0,.52,1.4,1.844,1.844,0,0,0,1.387.535A1.844,1.844,0,0,0,5.879-6.98a1.928,1.928,0,0,0,.52-1.4A1.929,1.929,0,0,0,5.859-9.8,1.839,1.839,0,0,0,4.492-10.344Z" transform="translate(419.156 11843.205)" fill="#12263f"/>
    <path id="Trazado_177208" data-name="Trazado 177208" d="M5.7,0H4.242V-9.633L1.328-8.562V-9.875L5.469-11.43H5.7ZM15.6-11.383v1.227h-.266a3.805,3.805,0,0,0-2.687,1A4.161,4.161,0,0,0,11.492-6.43a3.085,3.085,0,0,1,2.453-1.031,2.95,2.95,0,0,1,2.371,1.047,4.038,4.038,0,0,1,.887,2.7A4.025,4.025,0,0,1,16.246-.9,3.3,3.3,0,0,1,13.68.156,3.247,3.247,0,0,1,11.031-1.1a4.97,4.97,0,0,1-1.016-3.23v-.555a7.488,7.488,0,0,1,1.34-4.8,4.921,4.921,0,0,1,3.988-1.7ZM13.7-6.258a2.306,2.306,0,0,0-1.367.445A2.32,2.32,0,0,0,11.469-4.7v.531A3.731,3.731,0,0,0,12.1-1.9a1.9,1.9,0,0,0,1.578.859,1.838,1.838,0,0,0,1.535-.719,2.982,2.982,0,0,0,.559-1.883,2.983,2.983,0,0,0-.566-1.895A1.816,1.816,0,0,0,13.7-6.258Z" transform="translate(490 11843.205)" fill="#12263f"/>
    <path id="Trazado_177160" data-name="Trazado 177160" d="M.969-4.625a11.99,11.99,0,0,1,.477-3.406,8.989,8.989,0,0,1,1.406-2.863,5.251,5.251,0,0,1,2.016-1.73L5.3-11.406A5.438,5.438,0,0,0,3.523-8.8a12.082,12.082,0,0,0-.641,4.125v.242A12.313,12.313,0,0,0,3.516-.289,5.544,5.544,0,0,0,5.3,2.359l-.437,1.2a5.253,5.253,0,0,1-1.98-1.684,8.838,8.838,0,0,1-1.4-2.785,11.918,11.918,0,0,1-.516-3.3ZM11.383,0a2.507,2.507,0,0,1-.227-.758A2.732,2.732,0,0,1,9.023.156,3,3,0,0,1,6.965-.562a2.312,2.312,0,0,1-.816-1.812,2.389,2.389,0,0,1,1-2.062,4.915,4.915,0,0,1,2.879-.727h1.039v-.484a1.393,1.393,0,0,0-.3-.937,1.183,1.183,0,0,0-.949-.352,1.345,1.345,0,0,0-.895.273.929.929,0,0,0-.324.75H6.336a2.268,2.268,0,0,1,.453-1.359,3,3,0,0,1,1.281-.98A4.669,4.669,0,0,1,9.93-8.609a3.689,3.689,0,0,1,2.48.785,2.747,2.747,0,0,1,.918,2.207v3.664a4.041,4.041,0,0,0,.336,1.82V0ZM9.516-1.57a1.945,1.945,0,0,0,.922-.223,1.462,1.462,0,0,0,.625-.6V-3.844h-.844q-1.7,0-1.8,1.172l-.008.133a.9.9,0,0,0,.3.7A1.153,1.153,0,0,0,9.516-1.57Zm9.438-2.875a11.377,11.377,0,0,1-.508,3.4,9.225,9.225,0,0,1-1.461,2.883,5.264,5.264,0,0,1-2.039,1.719l-.437-1.2a5.494,5.494,0,0,0,1.75-2.578,11.939,11.939,0,0,0,.664-4.008v-.414a12.208,12.208,0,0,0-.637-4.117,5.727,5.727,0,0,0-1.777-2.672l.438-1.2a5.265,5.265,0,0,1,2,1.672,9.106,9.106,0,0,1,1.461,2.82A11.3,11.3,0,0,1,18.953-4.8Z" transform="translate(440.156 11594.106)" fill="#12263f"/>
    <path id="Trazado_177141" data-name="Trazado 177141" d="M-8268.748-3952.837h22.041" transform="translate(8632 15694.443)" fill="none" stroke="#707070" stroke-width="1"/>
    <path id="Trazado_177142" data-name="Trazado 177142" d="M-8268.748-3952.837h22.041" transform="translate(8632 15627.443)" fill="none" stroke="#707070" stroke-width="1"/>
    <path id="Trazado_177189" data-name="Trazado 177189" d="M4.5,0A4.5,4.5,0,1,1,0,4.5,4.5,4.5,0,0,1,4.5,0Z" transform="translate(389 11770.443)" fill="#ff8578"/>
    <path id="Trazado_177193" data-name="Trazado 177193" d="M4.5,0A4.5,4.5,0,1,1,0,4.5,4.5,4.5,0,0,1,4.5,0Z" transform="translate(404 11792.443)" fill="#ff8578"/>
    <path id="Trazado_177174" data-name="Trazado 177174" d="M4.5,0A4.5,4.5,0,1,1,0,4.5,4.5,4.5,0,0,1,4.5,0Z" transform="translate(404 11723.443)" fill="#ff8578"/>
    <path id="Trazado_177180" data-name="Trazado 177180" d="M4.5,0A4.5,4.5,0,1,1,0,4.5,4.5,4.5,0,0,1,4.5,0Z" transform="translate(415 11732.443)" fill="#ff8578"/>
    <path id="Trazado_177191" data-name="Trazado 177191" d="M4.5,0A4.5,4.5,0,1,1,0,4.5,4.5,4.5,0,0,1,4.5,0Z" transform="translate(424 11779.443)" fill="#ff8578"/>
    <path id="Trazado_177187" data-name="Trazado 177187" d="M4.5,0A4.5,4.5,0,1,1,0,4.5,4.5,4.5,0,0,1,4.5,0Z" transform="translate(451 11761.443)" fill="#ff8578"/>
    <path id="Trazado_177185" data-name="Trazado 177185" d="M4.5,0A4.5,4.5,0,1,1,0,4.5,4.5,4.5,0,0,1,4.5,0Z" transform="translate(470 11751.443)" fill="#ff8578"/>
    <path id="Trazado_177186" data-name="Trazado 177186" d="M4.5,0A4.5,4.5,0,1,1,0,4.5,4.5,4.5,0,0,1,4.5,0Z" transform="translate(499 11756.443)" fill="#ff8578"/>
    <path id="Trazado_177178" data-name="Trazado 177178" d="M4.5,0A4.5,4.5,0,1,1,0,4.5,4.5,4.5,0,0,1,4.5,0Z" transform="translate(499 11727.443)" fill="#ff8578"/>
    <path id="Trazado_177166" data-name="Trazado 177166" d="M4.5,0A4.5,4.5,0,1,1,0,4.5,4.5,4.5,0,0,1,4.5,0Z" transform="translate(428 11706.443)" fill="#ff8578"/>
    <path id="Trazado_177163" data-name="Trazado 177163" d="M4.5,0A4.5,4.5,0,1,1,0,4.5,4.5,4.5,0,0,1,4.5,0Z" transform="translate(470 11687.443)" fill="#ff8578"/>
    <path id="Trazado_177162" data-name="Trazado 177162" d="M4.5,0A4.5,4.5,0,1,1,0,4.5,4.5,4.5,0,0,1,4.5,0Z" transform="translate(499 11675.443)" fill="#ff8578"/>
    <path id="Trazado_177169" data-name="Trazado 177169" d="M4.5,0A4.5,4.5,0,1,1,0,4.5,4.5,4.5,0,0,1,4.5,0Z" transform="translate(470 11715.443)" fill="#ff8578"/>
    <path id="Trazado_177181" data-name="Trazado 177181" d="M4.5,0A4.5,4.5,0,1,1,0,4.5,4.5,4.5,0,0,1,4.5,0Z" transform="translate(456 11732.443)" fill="#ff8578"/>
    <path id="Trazado_177175" data-name="Trazado 177175" d="M4.5,0A4.5,4.5,0,1,1,0,4.5,4.5,4.5,0,0,1,4.5,0Z" transform="translate(443 11720.443)" fill="#ff8578"/>
    <path id="Trazado_177151" data-name="Trazado 177151" d="M-8268.748-3952.837h16.113" transform="translate(-3529.181 20079.84) rotate(90)" fill="none" stroke="#707070" stroke-width="1"/>
    <path id="Trazado_177152" data-name="Trazado 177152" d="M-8268.748-3952.837h16.113" transform="translate(-3453.837 20079.84) rotate(90)" fill="none" stroke="#707070" stroke-width="1"/>
    <path id="Trazado_178020" data-name="Trazado 178020" d="M0,0H315V333H0Z" transform="translate(647 11545.443)" fill="#fff"/>
    <path id="Trazado_177143" data-name="Trazado 177143" d="M-8258-4111.105v263.867" transform="translate(8967 15694.443)" fill="none" stroke="#000" stroke-width="1"/>
    <path id="Trazado_177144" data-name="Trazado 177144" d="M-8286.344-3875.02H-8048" transform="translate(8967 15694.443)" fill="none" stroke="#707070" stroke-width="1"/>
    <path id="Trazado_177182" data-name="Trazado 177182" d="M7.844-8.406a2.641,2.641,0,0,1-.449,1.516A3.057,3.057,0,0,1,6.18-5.852,3.26,3.26,0,0,1,7.59-4.734a2.811,2.811,0,0,1,.52,1.664,2.972,2.972,0,0,1-1,2.352A3.827,3.827,0,0,1,4.492.156,3.81,3.81,0,0,1,1.863-.723,2.986,2.986,0,0,1,.875-3.07a2.9,2.9,0,0,1,.5-1.664A3.136,3.136,0,0,1,2.773-5.859,2.981,2.981,0,0,1,1.578-6.9a2.679,2.679,0,0,1-.437-1.508,2.94,2.94,0,0,1,.922-2.281,3.458,3.458,0,0,1,2.43-.844,3.461,3.461,0,0,1,2.426.844A2.934,2.934,0,0,1,7.844-8.406ZM6.664-3.1a2.1,2.1,0,0,0-.605-1.555,2.147,2.147,0,0,0-1.582-.6,2.11,2.11,0,0,0-1.566.594A2.12,2.12,0,0,0,2.32-3.1a2.019,2.019,0,0,0,.574,1.523,2.2,2.2,0,0,0,1.6.555,2.2,2.2,0,0,0,1.594-.559A2.014,2.014,0,0,0,6.664-3.1ZM4.492-10.344a1.865,1.865,0,0,0-1.379.527,1.937,1.937,0,0,0-.527,1.434,1.928,1.928,0,0,0,.52,1.4,1.844,1.844,0,0,0,1.387.535A1.844,1.844,0,0,0,5.879-6.98a1.928,1.928,0,0,0,.52-1.4A1.929,1.929,0,0,0,5.859-9.8,1.839,1.839,0,0,0,4.492-10.344Z" transform="translate(676.156 11747.106)" fill="#12263f"/>
    <path id="Trazado_177164" data-name="Trazado 177164" d="M5.7,0H4.242V-9.633L1.328-8.562V-9.875L5.469-11.43H5.7ZM15.6-11.383v1.227h-.266a3.805,3.805,0,0,0-2.687,1A4.161,4.161,0,0,0,11.492-6.43a3.085,3.085,0,0,1,2.453-1.031,2.95,2.95,0,0,1,2.371,1.047,4.038,4.038,0,0,1,.887,2.7A4.025,4.025,0,0,1,16.246-.9,3.3,3.3,0,0,1,13.68.156,3.247,3.247,0,0,1,11.031-1.1a4.97,4.97,0,0,1-1.016-3.23v-.555a7.488,7.488,0,0,1,1.34-4.8,4.921,4.921,0,0,1,3.988-1.7ZM13.7-6.258a2.306,2.306,0,0,0-1.367.445A2.32,2.32,0,0,0,11.469-4.7v.531A3.731,3.731,0,0,0,12.1-1.9a1.9,1.9,0,0,0,1.578.859,1.838,1.838,0,0,0,1.535-.719,2.982,2.982,0,0,0,.559-1.883,2.983,2.983,0,0,0-.566-1.895A1.816,1.816,0,0,0,13.7-6.258Z" transform="translate(676.156 11680.106)" fill="#12263f"/>
    <path id="Trazado_177165" data-name="Trazado 177165" d="M4.938-6.25,7.3-11.375H9.867L6.133-4.125V0H3.75V-4.125L.016-11.375h2.57Z" transform="translate(676.156 11594.106)" fill="#12263f"/>
    <path id="Trazado_177214" data-name="Trazado 177214" d="M5.086-7.453l2.133-3.922h2.7L6.6-5.734,10,0H7.273L5.086-3.984,2.9,0H.172l3.4-5.734L.258-11.375h2.7Z" transform="translate(909 11847.106)" fill="#12263f"/>
    <path id="Trazado_177209" data-name="Trazado 177209" d="M7.844-8.406a2.641,2.641,0,0,1-.449,1.516A3.057,3.057,0,0,1,6.18-5.852,3.26,3.26,0,0,1,7.59-4.734a2.811,2.811,0,0,1,.52,1.664,2.972,2.972,0,0,1-1,2.352A3.827,3.827,0,0,1,4.492.156,3.81,3.81,0,0,1,1.863-.723,2.986,2.986,0,0,1,.875-3.07a2.9,2.9,0,0,1,.5-1.664A3.136,3.136,0,0,1,2.773-5.859,2.981,2.981,0,0,1,1.578-6.9a2.679,2.679,0,0,1-.437-1.508,2.94,2.94,0,0,1,.922-2.281,3.458,3.458,0,0,1,2.43-.844,3.461,3.461,0,0,1,2.426.844A2.934,2.934,0,0,1,7.844-8.406ZM6.664-3.1a2.1,2.1,0,0,0-.605-1.555,2.147,2.147,0,0,0-1.582-.6,2.11,2.11,0,0,0-1.566.594A2.12,2.12,0,0,0,2.32-3.1a2.019,2.019,0,0,0,.574,1.523,2.2,2.2,0,0,0,1.6.555,2.2,2.2,0,0,0,1.594-.559A2.014,2.014,0,0,0,6.664-3.1ZM4.492-10.344a1.865,1.865,0,0,0-1.379.527,1.937,1.937,0,0,0-.527,1.434,1.928,1.928,0,0,0,.52,1.4,1.844,1.844,0,0,0,1.387.535A1.844,1.844,0,0,0,5.879-6.98a1.928,1.928,0,0,0,.52-1.4A1.929,1.929,0,0,0,5.859-9.8,1.839,1.839,0,0,0,4.492-10.344Z" transform="translate(754.156 11843.205)" fill="#12263f"/>
    <path id="Trazado_177210" data-name="Trazado 177210" d="M5.7,0H4.242V-9.633L1.328-8.562V-9.875L5.469-11.43H5.7ZM15.6-11.383v1.227h-.266a3.805,3.805,0,0,0-2.687,1A4.161,4.161,0,0,0,11.492-6.43a3.085,3.085,0,0,1,2.453-1.031,2.95,2.95,0,0,1,2.371,1.047,4.038,4.038,0,0,1,.887,2.7A4.025,4.025,0,0,1,16.246-.9,3.3,3.3,0,0,1,13.68.156,3.247,3.247,0,0,1,11.031-1.1a4.97,4.97,0,0,1-1.016-3.23v-.555a7.488,7.488,0,0,1,1.34-4.8,4.921,4.921,0,0,1,3.988-1.7ZM13.7-6.258a2.306,2.306,0,0,0-1.367.445A2.32,2.32,0,0,0,11.469-4.7v.531A3.731,3.731,0,0,0,12.1-1.9a1.9,1.9,0,0,0,1.578.859,1.838,1.838,0,0,0,1.535-.719,2.982,2.982,0,0,0,.559-1.883,2.983,2.983,0,0,0-.566-1.895A1.816,1.816,0,0,0,13.7-6.258Z" transform="translate(825 11843.205)" fill="#12263f"/>
    <path id="Trazado_177176" data-name="Trazado 177176" d="M.969-4.625a11.99,11.99,0,0,1,.477-3.406,8.989,8.989,0,0,1,1.406-2.863,5.251,5.251,0,0,1,2.016-1.73L5.3-11.406A5.438,5.438,0,0,0,3.523-8.8a12.082,12.082,0,0,0-.641,4.125v.242A12.313,12.313,0,0,0,3.516-.289,5.544,5.544,0,0,0,5.3,2.359l-.437,1.2a5.253,5.253,0,0,1-1.98-1.684,8.838,8.838,0,0,1-1.4-2.785,11.918,11.918,0,0,1-.516-3.3ZM14.1-4.148A5.119,5.119,0,0,1,13.234-.98,2.872,2.872,0,0,1,10.813.156,2.639,2.639,0,0,1,8.617-.9l-.1.9H6.484V-12H8.742v4.3A2.571,2.571,0,0,1,10.8-8.609a2.9,2.9,0,0,1,2.426,1.137,5.126,5.126,0,0,1,.879,3.2Zm-2.258-.164a3.363,3.363,0,0,0-.406-1.871,1.374,1.374,0,0,0-1.211-.59,1.489,1.489,0,0,0-1.484.883v3.336a1.509,1.509,0,0,0,1.5.891A1.394,1.394,0,0,0,11.68-2.742,5.562,5.562,0,0,0,11.844-4.312Zm7.539-.133a11.377,11.377,0,0,1-.508,3.4,9.225,9.225,0,0,1-1.461,2.883,5.264,5.264,0,0,1-2.039,1.719l-.437-1.2a5.494,5.494,0,0,0,1.75-2.578,11.939,11.939,0,0,0,.664-4.008v-.414a12.208,12.208,0,0,0-.637-4.117,5.727,5.727,0,0,0-1.777-2.672l.438-1.2a5.265,5.265,0,0,1,2,1.672,9.106,9.106,0,0,1,1.461,2.82A11.3,11.3,0,0,1,19.383-4.8Z" transform="translate(775.156 11594.106)" fill="#12263f"/>
    <path id="Trazado_177145" data-name="Trazado 177145" d="M-8268.748-3952.837h22.041" transform="translate(8967 15694.443)" fill="none" stroke="#707070" stroke-width="1"/>
    <path id="Trazado_177146" data-name="Trazado 177146" d="M-8268.748-3952.837h22.041" transform="translate(8967 15627.443)" fill="none" stroke="#707070" stroke-width="1"/>
    <path id="Trazado_177190" data-name="Trazado 177190" d="M4.5,0A4.5,4.5,0,1,1,0,4.5,4.5,4.5,0,0,1,4.5,0Z" transform="translate(724 11770.443)" fill="#ff8578"/>
    <path id="Trazado_177194" data-name="Trazado 177194" d="M4.5,0A4.5,4.5,0,1,1,0,4.5,4.5,4.5,0,0,1,4.5,0Z" transform="translate(739 11792.443)" fill="#ff8578"/>
    <path id="Trazado_177167" data-name="Trazado 177167" d="M4.5,0A4.5,4.5,0,1,1,0,4.5,4.5,4.5,0,0,1,4.5,0Z" transform="translate(735 11701.443)" fill="#ff8578"/>
    <path id="Trazado_177183" data-name="Trazado 177183" d="M4.5,0A4.5,4.5,0,1,1,0,4.5,4.5,4.5,0,0,1,4.5,0Z" transform="translate(739 11737.443)" fill="#ff8578"/>
    <path id="Trazado_177192" data-name="Trazado 177192" d="M4.5,0A4.5,4.5,0,1,1,0,4.5,4.5,4.5,0,0,1,4.5,0Z" transform="translate(759 11779.443)" fill="#ff8578"/>
    <path id="Trazado_177177" data-name="Trazado 177177" d="M4.5,0A4.5,4.5,0,1,1,0,4.5,4.5,4.5,0,0,1,4.5,0Z" transform="translate(744 11724.443)" fill="#ff8578"/>
    <path id="Trazado_177184" data-name="Trazado 177184" d="M4.5,0A4.5,4.5,0,1,1,0,4.5,4.5,4.5,0,0,1,4.5,0Z" transform="translate(729 11747.443)" fill="#ff8578"/>
    <path id="Trazado_177198" data-name="Trazado 177198" d="M4.5,0A4.5,4.5,0,1,1,0,4.5,4.5,4.5,0,0,1,4.5,0Z" transform="translate(716 11797.443)" fill="#ff8578"/>
    <path id="Trazado_177170" data-name="Trazado 177170" d="M4.5,0A4.5,4.5,0,1,1,0,4.5,4.5,4.5,0,0,1,4.5,0Z" transform="translate(750 11637.443)" fill="#ff8578"/>
    <path id="Trazado_177171" data-name="Trazado 177171" d="M4.5,0A4.5,4.5,0,1,1,0,4.5,4.5,4.5,0,0,1,4.5,0Z" transform="translate(757 11705.443)" fill="#ff8578"/>
    <path id="Trazado_177172" data-name="Trazado 177172" d="M4.5,0A4.5,4.5,0,1,1,0,4.5,4.5,4.5,0,0,1,4.5,0Z" transform="translate(750 11687.443)" fill="#ff8578"/>
    <path id="Trazado_177173" data-name="Trazado 177173" d="M4.5,0A4.5,4.5,0,1,1,0,4.5,4.5,4.5,0,0,1,4.5,0Z" transform="translate(729 11718.443)" fill="#ff8578"/>
    <path id="Trazado_177188" data-name="Trazado 177188" d="M4.5,0A4.5,4.5,0,1,1,0,4.5,4.5,4.5,0,0,1,4.5,0Z" transform="translate(748 11761.443)" fill="#ff8578"/>
    <path id="Trazado_177168" data-name="Trazado 177168" d="M4.5,0A4.5,4.5,0,1,1,0,4.5,4.5,4.5,0,0,1,4.5,0Z" transform="translate(739 11665.443)" fill="#ff8578"/>
    <path id="Trazado_177153" data-name="Trazado 177153" d="M-8268.748-3952.837h16.113" transform="translate(-3194.181 20079.84) rotate(90)" fill="none" stroke="#707070" stroke-width="1"/>
    <path id="Trazado_177154" data-name="Trazado 177154" d="M-8268.748-3952.837h16.113" transform="translate(-3118.837 20079.84) rotate(90)" fill="none" stroke="#707070" stroke-width="1"/>
    <path id="Trazado_178021" data-name="Trazado 178021" d="M0,0H315V333H0Z" transform="translate(994 11545.443)" fill="#fff"/>
    <path id="Trazado_177147" data-name="Trazado 177147" d="M-8258-4111.105v263.867" transform="translate(9314.844 15694.443)" fill="none" stroke="#000" stroke-width="1"/>
    <path id="Trazado_177148" data-name="Trazado 177148" d="M-8286.344-3875.02H-8048" transform="translate(9314.844 15694.443)" fill="none" stroke="#707070" stroke-width="1"/>
    <path id="Trazado_177195" data-name="Trazado 177195" d="M7.844-8.406a2.641,2.641,0,0,1-.449,1.516A3.057,3.057,0,0,1,6.18-5.852,3.26,3.26,0,0,1,7.59-4.734a2.811,2.811,0,0,1,.52,1.664,2.972,2.972,0,0,1-1,2.352A3.827,3.827,0,0,1,4.492.156,3.81,3.81,0,0,1,1.863-.723,2.986,2.986,0,0,1,.875-3.07a2.9,2.9,0,0,1,.5-1.664A3.136,3.136,0,0,1,2.773-5.859,2.981,2.981,0,0,1,1.578-6.9a2.679,2.679,0,0,1-.437-1.508,2.94,2.94,0,0,1,.922-2.281,3.458,3.458,0,0,1,2.43-.844,3.461,3.461,0,0,1,2.426.844A2.934,2.934,0,0,1,7.844-8.406ZM6.664-3.1a2.1,2.1,0,0,0-.605-1.555,2.147,2.147,0,0,0-1.582-.6,2.11,2.11,0,0,0-1.566.594A2.12,2.12,0,0,0,2.32-3.1a2.019,2.019,0,0,0,.574,1.523,2.2,2.2,0,0,0,1.6.555,2.2,2.2,0,0,0,1.594-.559A2.014,2.014,0,0,0,6.664-3.1ZM4.492-10.344a1.865,1.865,0,0,0-1.379.527,1.937,1.937,0,0,0-.527,1.434,1.928,1.928,0,0,0,.52,1.4,1.844,1.844,0,0,0,1.387.535A1.844,1.844,0,0,0,5.879-6.98a1.928,1.928,0,0,0,.52-1.4A1.929,1.929,0,0,0,5.859-9.8,1.839,1.839,0,0,0,4.492-10.344Z" transform="translate(1024 11747.106)" fill="#12263f"/>
    <path id="Trazado_177196" data-name="Trazado 177196" d="M5.7,0H4.242V-9.633L1.328-8.562V-9.875L5.469-11.43H5.7ZM15.6-11.383v1.227h-.266a3.805,3.805,0,0,0-2.687,1A4.161,4.161,0,0,0,11.492-6.43a3.085,3.085,0,0,1,2.453-1.031,2.95,2.95,0,0,1,2.371,1.047,4.038,4.038,0,0,1,.887,2.7A4.025,4.025,0,0,1,16.246-.9,3.3,3.3,0,0,1,13.68.156,3.247,3.247,0,0,1,11.031-1.1a4.97,4.97,0,0,1-1.016-3.23v-.555a7.488,7.488,0,0,1,1.34-4.8,4.921,4.921,0,0,1,3.988-1.7ZM13.7-6.258a2.306,2.306,0,0,0-1.367.445A2.32,2.32,0,0,0,11.469-4.7v.531A3.731,3.731,0,0,0,12.1-1.9a1.9,1.9,0,0,0,1.578.859,1.838,1.838,0,0,0,1.535-.719,2.982,2.982,0,0,0,.559-1.883,2.983,2.983,0,0,0-.566-1.895A1.816,1.816,0,0,0,13.7-6.258Z" transform="translate(1024 11680.106)" fill="#12263f"/>
    <path id="Trazado_177197" data-name="Trazado 177197" d="M4.938-6.25,7.3-11.375H9.867L6.133-4.125V0H3.75V-4.125L.016-11.375h2.57Z" transform="translate(1024 11594.106)" fill="#12263f"/>
    <path id="Trazado_177222" data-name="Trazado 177222" d="M5.086-7.453l2.133-3.922h2.7L6.6-5.734,10,0H7.273L5.086-3.984,2.9,0H.172l3.4-5.734L.258-11.375h2.7Z" transform="translate(1256.844 11847.106)" fill="#12263f"/>
    <path id="Trazado_177211" data-name="Trazado 177211" d="M7.844-8.406a2.641,2.641,0,0,1-.449,1.516A3.057,3.057,0,0,1,6.18-5.852,3.26,3.26,0,0,1,7.59-4.734a2.811,2.811,0,0,1,.52,1.664,2.972,2.972,0,0,1-1,2.352A3.827,3.827,0,0,1,4.492.156,3.81,3.81,0,0,1,1.863-.723,2.986,2.986,0,0,1,.875-3.07a2.9,2.9,0,0,1,.5-1.664A3.136,3.136,0,0,1,2.773-5.859,2.981,2.981,0,0,1,1.578-6.9a2.679,2.679,0,0,1-.437-1.508,2.94,2.94,0,0,1,.922-2.281,3.458,3.458,0,0,1,2.43-.844,3.461,3.461,0,0,1,2.426.844A2.934,2.934,0,0,1,7.844-8.406ZM6.664-3.1a2.1,2.1,0,0,0-.605-1.555,2.147,2.147,0,0,0-1.582-.6,2.11,2.11,0,0,0-1.566.594A2.12,2.12,0,0,0,2.32-3.1a2.019,2.019,0,0,0,.574,1.523,2.2,2.2,0,0,0,1.6.555,2.2,2.2,0,0,0,1.594-.559A2.014,2.014,0,0,0,6.664-3.1ZM4.492-10.344a1.865,1.865,0,0,0-1.379.527,1.937,1.937,0,0,0-.527,1.434,1.928,1.928,0,0,0,.52,1.4,1.844,1.844,0,0,0,1.387.535A1.844,1.844,0,0,0,5.879-6.98a1.928,1.928,0,0,0,.52-1.4A1.929,1.929,0,0,0,5.859-9.8,1.839,1.839,0,0,0,4.492-10.344Z" transform="translate(1102 11843.205)" fill="#12263f"/>
    <path id="Trazado_177218" data-name="Trazado 177218" d="M5.7,0H4.242V-9.633L1.328-8.562V-9.875L5.469-11.43H5.7ZM15.6-11.383v1.227h-.266a3.805,3.805,0,0,0-2.687,1A4.161,4.161,0,0,0,11.492-6.43a3.085,3.085,0,0,1,2.453-1.031,2.95,2.95,0,0,1,2.371,1.047,4.038,4.038,0,0,1,.887,2.7A4.025,4.025,0,0,1,16.246-.9,3.3,3.3,0,0,1,13.68.156,3.247,3.247,0,0,1,11.031-1.1a4.97,4.97,0,0,1-1.016-3.23v-.555a7.488,7.488,0,0,1,1.34-4.8,4.921,4.921,0,0,1,3.988-1.7ZM13.7-6.258a2.306,2.306,0,0,0-1.367.445A2.32,2.32,0,0,0,11.469-4.7v.531A3.731,3.731,0,0,0,12.1-1.9a1.9,1.9,0,0,0,1.578.859,1.838,1.838,0,0,0,1.535-.719,2.982,2.982,0,0,0,.559-1.883,2.983,2.983,0,0,0-.566-1.895A1.816,1.816,0,0,0,13.7-6.258Z" transform="translate(1172.844 11843.205)" fill="#12263f"/>
    <path id="Trazado_177206" data-name="Trazado 177206" d="M.969-4.625a11.99,11.99,0,0,1,.477-3.406,8.989,8.989,0,0,1,1.406-2.863,5.251,5.251,0,0,1,2.016-1.73L5.3-11.406A5.438,5.438,0,0,0,3.523-8.8a12.082,12.082,0,0,0-.641,4.125v.242A12.313,12.313,0,0,0,3.516-.289,5.544,5.544,0,0,0,5.3,2.359l-.437,1.2a5.253,5.253,0,0,1-1.98-1.684,8.838,8.838,0,0,1-1.4-2.785,11.918,11.918,0,0,1-.516-3.3ZM10-1.664a1.481,1.481,0,0,0,1.016-.344,1.2,1.2,0,0,0,.406-.914h2.117a2.9,2.9,0,0,1-.469,1.574A3.093,3.093,0,0,1,11.809-.238a3.949,3.949,0,0,1-1.77.395A3.67,3.67,0,0,1,7.18-1,4.56,4.56,0,0,1,6.133-4.18v-.148A4.508,4.508,0,0,1,7.172-7.445a3.627,3.627,0,0,1,2.852-1.164,3.555,3.555,0,0,1,2.543.9,3.2,3.2,0,0,1,.973,2.4H11.422a1.539,1.539,0,0,0-.406-1.066,1.358,1.358,0,0,0-1.031-.41,1.361,1.361,0,0,0-1.191.574,3.324,3.324,0,0,0-.4,1.863v.234a3.366,3.366,0,0,0,.4,1.875A1.378,1.378,0,0,0,10-1.664Zm8.719-2.781a11.377,11.377,0,0,1-.508,3.4A9.225,9.225,0,0,1,16.75,1.836a5.264,5.264,0,0,1-2.039,1.719l-.437-1.2a5.494,5.494,0,0,0,1.75-2.578,11.939,11.939,0,0,0,.664-4.008v-.414a12.208,12.208,0,0,0-.637-4.117,5.727,5.727,0,0,0-1.777-2.672l.438-1.2a5.265,5.265,0,0,1,2,1.672,9.106,9.106,0,0,1,1.461,2.82A11.3,11.3,0,0,1,18.719-4.8Z" transform="translate(1123 11594.106)" fill="#12263f"/>
    <path id="Trazado_177149" data-name="Trazado 177149" d="M-8268.748-3952.837h22.041" transform="translate(9314.844 15694.443)" fill="none" stroke="#707070" stroke-width="1"/>
    <path id="Trazado_177150" data-name="Trazado 177150" d="M-8268.748-3952.837h22.041" transform="translate(9314.844 15627.443)" fill="none" stroke="#707070" stroke-width="1"/>
    <path id="Trazado_177203" data-name="Trazado 177203" d="M4.5,0A4.5,4.5,0,1,1,0,4.5,4.5,4.5,0,0,1,4.5,0Z" transform="translate(1109 11738.443)" fill="#ff8578"/>
    <path id="Trazado_177219" data-name="Trazado 177219" d="M4.5,0A4.5,4.5,0,1,1,0,4.5,4.5,4.5,0,0,1,4.5,0Z" transform="translate(1177.344 11792.443)" fill="#ff8578"/>
    <path id="Trazado_177200" data-name="Trazado 177200" d="M4.5,0A4.5,4.5,0,1,1,0,4.5,4.5,4.5,0,0,1,4.5,0Z" transform="translate(1082.844 11701.443)" fill="#ff8578"/>
    <path id="Trazado_177215" data-name="Trazado 177215" d="M4.5,0A4.5,4.5,0,1,1,0,4.5,4.5,4.5,0,0,1,4.5,0Z" transform="translate(1143.172 11774.943)" fill="#ff8578"/>
    <path id="Trazado_177220" data-name="Trazado 177220" d="M4.5,0A4.5,4.5,0,1,1,0,4.5,4.5,4.5,0,0,1,4.5,0Z" transform="translate(1196 11770.443)" fill="#ff8578"/>
    <path id="Trazado_177212" data-name="Trazado 177212" d="M4.5,0A4.5,4.5,0,1,1,0,4.5,4.5,4.5,0,0,1,4.5,0Z" transform="translate(1129 11752.443)" fill="#ff8578"/>
    <path id="Trazado_177216" data-name="Trazado 177216" d="M4.5,0A4.5,4.5,0,1,1,0,4.5,4.5,4.5,0,0,1,4.5,0Z" transform="translate(1152.844 11724.943)" fill="#ff8578"/>
    <path id="Trazado_177221" data-name="Trazado 177221" d="M4.5,0A4.5,4.5,0,1,1,0,4.5,4.5,4.5,0,0,1,4.5,0Z" transform="translate(1205 11797.443)" fill="#ff8578"/>
    <path id="Trazado_177199" data-name="Trazado 177199" d="M4.5,0A4.5,4.5,0,1,1,0,4.5,4.5,4.5,0,0,1,4.5,0Z" transform="translate(1063.637 11684.106)" fill="#ff8578"/>
    <path id="Trazado_177204" data-name="Trazado 177204" d="M4.5,0A4.5,4.5,0,1,1,0,4.5,4.5,4.5,0,0,1,4.5,0Z" transform="translate(1104.844 11705.443)" fill="#ff8578"/>
    <path id="Trazado_177202" data-name="Trazado 177202" d="M4.5,0A4.5,4.5,0,1,1,0,4.5,4.5,4.5,0,0,1,4.5,0Z" transform="translate(1097.844 11687.443)" fill="#ff8578"/>
    <path id="Trazado_177205" data-name="Trazado 177205" d="M4.5,0A4.5,4.5,0,1,1,0,4.5,4.5,4.5,0,0,1,4.5,0Z" transform="translate(1120 11718.443)" fill="#ff8578"/>
    <path id="Trazado_177217" data-name="Trazado 177217" d="M4.5,0A4.5,4.5,0,1,1,0,4.5,4.5,4.5,0,0,1,4.5,0Z" transform="translate(1163.844 11761.443)" fill="#ff8578"/>
    <path id="Trazado_177201" data-name="Trazado 177201" d="M4.5,0A4.5,4.5,0,1,1,0,4.5,4.5,4.5,0,0,1,4.5,0Z" transform="translate(1085.828 11724.443)" fill="#ff8578"/>
    <path id="Trazado_177155" data-name="Trazado 177155" d="M-8268.748-3952.837h16.113" transform="translate(-2846.337 20079.84) rotate(90)" fill="none" stroke="#707070" stroke-width="1"/>
    <path id="Trazado_177156" data-name="Trazado 177156" d="M-8268.748-3952.837h16.113" transform="translate(-2770.993 20079.84) rotate(90)" fill="none" stroke="#707070" stroke-width="1"/>
    <path id="Trazado_178024" data-name="Trazado 178024" d="M0,0H315V5H0Z" transform="translate(289 11874.443)" fill="#a4a3ff"/>
    <path id="Trazado_178022" data-name="Trazado 178022" d="M0,0H315V5H0Z" transform="translate(647 11873.443)" fill="#a4a3ff"/>
    <path id="Trazado_178023" data-name="Trazado 178023" d="M0,0H315V5H0Z" transform="translate(994 11873.443)" fill="#a4a3ff"/>
  </g>
</svg>
