<svg xmlns="http://www.w3.org/2000/svg" width="86" height="86" viewBox="0 0 86 86">
  <g id="Grupo_166883" data-name="Grupo 166883" transform="translate(-878 -16308)">
    <g id="Grupo_166762" data-name="Grupo 166762" transform="translate(622 10478)">
      <circle id="Elipse_4775" data-name="Elipse 4775" cx="43" cy="43" r="43" transform="translate(256 5830)" fill="#43a99b"/>
      <g id="Grupo_166016" data-name="Grupo 166016" transform="translate(9.986 3997.635)">
        <g id="_1HjDfM.tif" data-name="1HjDfM.tif" transform="translate(259.972 1845.365)">
          <g id="Grupo_166015" data-name="Grupo 166015" transform="translate(0)">
            <path id="Trazado_184118" data-name="Trazado 184118" d="M302.906,1900.756h-30.5l.093-1.813H276v-3.528h-.628c-3.478,0-6.956.006-10.434-.007a6.1,6.1,0,0,1-1.548-.16,4.393,4.393,0,0,1-3.411-4.476q-.006-14.139,0-28.279c0-.144,0-.289.01-.432a4.39,4.39,0,0,1,4.045-4.129c1.492-.078,2.989-.037,4.483-.079a1.443,1.443,0,0,0,.785-.256,14.908,14.908,0,0,1,14.519-2.38.549.549,0,0,0,.774-.273c1.943-3.052,3.91-6.09,5.856-9.14a.793.793,0,0,1,.763-.439c5.19.014,10.38.009,15.569.011.172,0,.345.018.552.029,0,.409,0,.767,0,1.125,0,.7,0,.706-.706.7q-7.188-.023-14.377-.057a.839.839,0,0,0-.824.437c-1.7,2.675-3.418,5.336-5.131,8-.1.162-.2.328-.3.487.677.468,1.332.882,1.939,1.356a1.86,1.86,0,0,0,1.231.416q10.623-.019,21.246-.012a4.927,4.927,0,0,1,3.483,1.192,5.185,5.185,0,0,1,1.451,2.653v29.855a5.154,5.154,0,0,1-1.443,2.652,4.854,4.854,0,0,1-3.423,1.2q-5.268-.006-10.536,0c-.207,0-.414.018-.633.029v3.5h3.5C302.846,1899.583,302.876,1900.169,302.906,1900.756Zm-17.275-17.721a14.961,14.961,0,0,1-17.7-2.923c-5.827-6.489-5.74-13.377-.924-20.45-.717,0-1.452.02-2.185,0a2.821,2.821,0,0,0-3.053,3.042c.044,7.716.018,15.432.02,23.147,0,.191.017.383.028.62h.632c2.559,0,5.125.1,7.676-.035a6.5,6.5,0,0,1,4.873,1.495,1.544,1.544,0,0,0,.936.288q18.493.021,36.986.012h.59c.011-.214.025-.355.025-.5q0-12.574,0-25.149a2.7,2.7,0,0,0-2.988-2.918q-9.841,0-19.682,0c-.15,0-.3.021-.519.038a15.229,15.229,0,0,1-3.141,22.414c.572.806,1.115,1.59,1.685,2.353a.647.647,0,0,0,.46.178c.576.008,1.151-.031,1.727-.032q4.107-.006,8.213,0c1.675,0,3.351.038,5.026.038,1.711,0,3.422-.027,5.134-.038.767-.005,1.534,0,2.292,0v1.861h-.407q-11.409,0-22.819.008a.762.762,0,0,1-.7-.381C287.1,1885.08,286.371,1884.073,285.631,1883.035Zm11.817,15.883v-3.5H280.337a1.209,1.209,0,0,1-.428-.014c-.117-.047-.273-.182-.279-.286-.03-.48-.013-.963-.013-1.5H310.26c.18,0,.361.006.541,0a2.757,2.757,0,0,0,2.645-3.568h-.684c-11.715,0-23.43-.036-35.144.036a6.99,6.99,0,0,1-5.02-1.532,1.454,1.454,0,0,0-.89-.271c-3.1-.019-6.2-.012-9.3-.01-.191,0-.383.018-.594.028,0,1.071-.082,2.1.02,3.115a2.671,2.671,0,0,0,2.9,2.2q6.218.006,12.436,0h.684v5.305ZM277.79,1856.21a13.311,13.311,0,0,0,0,26.565Zm12.941,19.17a13.328,13.328,0,0,0-.01-11.774l-10.188,5.886Zm-11.058-19.3V1867.9l10.147-5.864a13.445,13.445,0,0,0-4.849-4.356l-1.031,1.58-1.5-.966.9-1.453Zm6.456,24.54a13.064,13.064,0,0,0,3.69-3.675l-10.148-5.859v11.687a10.982,10.982,0,0,0,4.838-1.286l-1.153-1.654,1.455-1.039Z" transform="translate(-259.972 -1845.365)" fill="#fff"/>
            <path id="Trazado_184119" data-name="Trazado 184119" d="M578.838,1878.469c0,.537.013,1.055-.012,1.571,0,.1-.146.218-.252.264a.986.986,0,0,1-.374.017c-4.342,0-8.684-.01-13.025.013-.555,0-.749-.151-.685-.7a10.494,10.494,0,0,0,.008-1.165Z" transform="translate(-531.483 -1874.882)" fill="#fff"/>
            <path id="Trazado_184120" data-name="Trazado 184120" d="M564.966,1913.16v-1.822h10.775c0,.528.028,1.029-.021,1.522-.011.113-.283.283-.437.286-1.116.025-2.234.013-3.351.013h-6.966Z" transform="translate(-531.918 -1904.189)" fill="#fff"/>
            <path id="Trazado_184121" data-name="Trazado 184121" d="M682.139,1913.234h-1.766v-1.793h1.766Z" transform="translate(-634.82 -1904.281)" fill="#fff"/>
            <path id="Trazado_184122" data-name="Trazado 184122" d="M294.942,2258.079c0,.514.017.979-.012,1.441a.408.408,0,0,1-.258.3c-.5.03-.993.014-1.515.014v-1.751Z" transform="translate(-289.56 -2213.359)" fill="#fff"/>
            <path id="Trazado_184123" data-name="Trazado 184123" d="M326.079,2257.941h1.761v1.723h-1.761Z" transform="translate(-318.916 -2213.236)" fill="#fff"/>
            <path id="Trazado_184124" data-name="Trazado 184124" d="M360.822,2259.8h-1.756v-1.723h1.756Z" transform="translate(-348.329 -2213.361)" fill="#fff"/>
            <path id="Trazado_184125" data-name="Trazado 184125" d="M349.231,2060.979c-.232.022-.424.056-.616.056-2,0-3.993-.01-5.989.011-.474,0-.614-.146-.605-.62.025-1.312,0-1.312,1.309-1.312h5.126c.775,0,.775,0,.775.8Z" transform="translate(-333.13 -2035.953)" fill="#fff"/>
            <path id="Trazado_184126" data-name="Trazado 184126" d="M349.184,2027.209v1.735a4.584,4.584,0,0,1-.546.063c-2.015,0-4.03-.007-6.045.011-.438,0-.624-.121-.581-.581.036-.39.007-.786.007-1.228Z" transform="translate(-333.117 -2007.505)" fill="#fff"/>
            <path id="Trazado_184127" data-name="Trazado 184127" d="M349.284,2093.964h-7.2c0-.5-.025-1,.018-1.5a.505.505,0,0,1,.38-.306q3.212-.028,6.425,0a.493.493,0,0,1,.356.322C349.308,2092.964,349.284,2093.448,349.284,2093.964Z" transform="translate(-333.184 -2065.407)" fill="#fff"/>
          </g>
        </g>
        <rect id="Rectángulo_49942" data-name="Rectángulo 49942" width="3.832" height="18.067" transform="translate(296.102 1865.46)" fill="#fff"/>
        <rect id="Rectángulo_49943" data-name="Rectángulo 49943" width="3.832" height="15.141" transform="translate(301.303 1868.387)" fill="#fff"/>
        <rect id="Rectángulo_49944" data-name="Rectángulo 49944" width="3.832" height="9.033" transform="translate(306.367 1874.494)" fill="#fff"/>
      </g>
    </g>
  </g>
</svg>
