<svg xmlns="http://www.w3.org/2000/svg" width="86" height="86" viewBox="0 0 86 86">
  <g id="Grupo_166881" data-name="Grupo 166881" transform="translate(-398 -16308)">
    <g id="Grupo_166761" data-name="Grupo 166761" transform="translate(142 10478)">
      <circle id="Elipse_4775" data-name="Elipse 4775" cx="43" cy="43" r="43" transform="translate(256 5830)" fill="#43a99b"/>
      <g id="u6mn3t" transform="translate(310.041 5827.476)">
        <g id="Grupo_166013" data-name="Grupo 166013" transform="translate(-31.338 22.023)">
          <path id="Trazado_184101" data-name="Trazado 184101" d="M-11.037,22.034c5.667,0,11.334.019,17-.01A3.206,3.206,0,0,1,9.257,25.3c-.035,5.667-.01,11.334-.012,17,0,1.131-.026,2.262-.025,3.393,0,1.843.021,3.686.023,5.529q.006,6.349,0,12.7A3.082,3.082,0,0,1,6.21,67.017c-2.558.014-5.115,0-7.673.005-.6,0-1.2.005-1.8,0-1.2-.013-2.4-.043-3.595-.045-.881,0-1.763.035-2.644.043-.3,0-.6-.046-.9-.044-.761.007-1.522.044-2.283.043-.831,0-1.661-.042-2.492-.043-.74,0-1.48.043-2.22.043-.787,0-1.573-.038-2.36-.043-.449,0-.9.042-1.348.043q-3.536.007-7.071,0a3.09,3.09,0,0,1-3.168-3.2q0-8.786,0-17.572c0-1.17.026-2.341.025-3.511,0-3.078-.019-6.157-.023-9.235,0-2.758,0-5.516,0-8.275a3.088,3.088,0,0,1,3.179-3.191Q-19.6,22.032-11.037,22.034Zm18.732,14.7q0-5.778,0-11.555a1.7,1.7,0,0,0-.118-.641,1.555,1.555,0,0,0-1.583-.964H-1.926c-.429,0-.858,0-1.286,0-.568-.006-1.136-.027-1.7-.025-.943,0-1.887.028-2.83.028-.834,0-1.667-.031-2.5-.03-1.2,0-2.407.024-3.61.029-1.115,0-2.23,0-3.346,0H-27.951c-.14,0-.281,0-.42.017a1.528,1.528,0,0,0-1.415,1.548q-.024,9.371-.045,18.741c0,.49.041.979.046,1.469.008.8,0,1.6,0,2.4,0,5.346.009,10.693-.016,16.039a1.634,1.634,0,0,0,1.678,1.709c2.747.006,5.494.026,8.24.039.609,0,1.218.005,1.827,0,.671-.008,1.341-.04,2.012-.041q6.164,0,12.329,0H5.766c.16,0,.321,0,.481-.016a1.526,1.526,0,0,0,1.448-1.577q0-8.572,0-17.144Q7.695,41.738,7.694,36.729Z" transform="translate(31.338 -22.023)" fill="#fff"/>
          <path id="Trazado_184102" data-name="Trazado 184102" d="M64.9,102.176H51.511a1.958,1.958,0,0,1-2.032-1.991q-.019-3.386,0-6.771a2,2,0,0,1,2.157-2.037c1.715-.005,3.431,0,5.146,0q10.653,0,21.307,0a2.125,2.125,0,0,1,1.822.8,1.966,1.966,0,0,1,.41,1.228c0,2.257.007,4.514,0,6.771a1.96,1.96,0,0,1-2.051,2Zm.018-9.253H51.681c-.53,0-.663.132-.663.651q0,3.2,0,6.41c0,.537.138.676.676.676h26.42c.522,0,.664-.142.664-.658q0-3.2,0-6.409c0-.542-.128-.669-.676-.669Z" transform="translate(-44.606 -87.2)" fill="#fff"/>
          <path id="Trazado_184103" data-name="Trazado 184103" d="M235.477,542.112H233.1a1.959,1.959,0,0,1-2.1-2.076q-.017-2.392,0-4.784a1.968,1.968,0,0,1,2.145-2.092c1.6,0,3.209,0,4.814,0a1.9,1.9,0,0,1,1.941,1.47,2.753,2.753,0,0,1,.083.681c.007,1.564.011,3.129,0,4.693a1.928,1.928,0,0,1-1.113,1.9,2.372,2.372,0,0,1-.9.193C237.142,542.129,236.309,542.112,235.477,542.112Zm0-1.556c.832,0,1.663,0,2.495,0,.326,0,.463-.125.464-.449q.007-2.465,0-4.929c0-.338-.143-.479-.477-.48q-2.465-.007-4.929,0c-.336,0-.478.144-.479.478q-.006,2.465,0,4.929c0,.326.138.45.462.451C233.833,540.558,234.655,540.556,235.476,540.556Z" transform="translate(-215.201 -502.395)" fill="#fff"/>
          <path id="Trazado_184104" data-name="Trazado 184104" d="M235.56,353h2.377a1.948,1.948,0,0,1,2.122,2.079c.018,1.584.015,3.169,0,4.754a1.946,1.946,0,0,1-1.411,2.031,2.541,2.541,0,0,1-.651.09q-2.437.011-4.874,0a1.925,1.925,0,0,1-1.963-1.455,3.148,3.148,0,0,1-.085-.743q-.011-2.3,0-4.6a2.074,2.074,0,0,1,.783-1.768,1.9,1.9,0,0,1,1.176-.385C233.875,353,234.717,353,235.56,353Zm0,7.4h2.435c.385,0,.52-.132.52-.523q0-2.42,0-4.84c0-.353-.138-.511-.482-.513q-2.465-.01-4.93,0c-.332,0-.473.158-.474.49q-.005,2.45,0,4.9c0,.351.145.485.5.485Q234.339,360.4,235.557,360.4Z" transform="translate(-215.276 -333.076)" fill="#fff"/>
          <path id="Trazado_184105" data-name="Trazado 184105" d="M58.448,537.624c0,.832,0,1.664,0,2.5a1.9,1.9,0,0,1-1.983,1.986q-2.482.005-4.963,0a1.9,1.9,0,0,1-1.986-1.984q-.009-2.482,0-4.963a1.907,1.907,0,0,1,2-2q2.482-.007,4.963,0a1.908,1.908,0,0,1,1.969,1.97C58.45,535.959,58.448,536.792,58.448,537.624Zm-4.481,2.929v0c.832,0,1.665,0,2.5,0,.321,0,.465-.126.466-.448q.01-2.467,0-4.934a.419.419,0,0,0-.465-.473q-2.482-.01-4.964,0c-.32,0-.445.146-.445.471q0,2.452,0,4.9c0,.4.089.483.5.484Z" transform="translate(-44.644 -502.39)" fill="#fff"/>
          <path id="Trazado_184106" data-name="Trazado 184106" d="M413.47,537.561c0-.822,0-1.644,0-2.467a1.91,1.91,0,0,1,1.987-1.983c1.624,0,3.249.013,4.873-.005a1.977,1.977,0,0,1,2.083,2.085q-.05,2.405,0,4.813a1.975,1.975,0,0,1-2.074,2.065q-2.421-.042-4.843,0a1.955,1.955,0,0,1-2.031-2.04C413.5,539.207,413.47,538.384,413.47,537.561Zm4.467,2.946h2.407c.433,0,.518-.079.518-.5q0-2.437,0-4.873c0-.343-.125-.485-.461-.486q-2.452-.008-4.9,0c-.357,0-.5.158-.511.521-.007.3,0,.6,0,.9q0,1.955,0,3.911c0,.4.125.522.514.523C416.312,540.508,417.125,540.507,417.937,540.508Z" transform="translate(-386.691 -502.345)" fill="#fff"/>
          <path id="Trazado_184107" data-name="Trazado 184107" d="M413.5,357.349c0-.822.022-1.645,0-2.466a1.955,1.955,0,0,1,2.017-1.992c1.723.028,3.447,0,5.17.02a1.872,1.872,0,0,1,1.728,1.756c-.029.99.016,1.983.024,2.975.005.725-.012,1.451.005,2.175a1.963,1.963,0,0,1-2.068,2.04c-1.614-.009-3.229,0-4.843,0a1.923,1.923,0,0,1-2.029-2.037C413.494,358.993,413.5,358.171,413.5,357.349Zm4.451,2.95c.822,0,1.645,0,2.467,0,.344,0,.467-.107.467-.436q.006-2.52,0-5.041a.419.419,0,0,0-.485-.437c-.857.016-1.713.03-2.57.037-.752.006-1.5,0-2.257,0-.4,0-.556.152-.557.541q-.006,2.407,0,4.814c0,.392.138.518.529.518Q416.743,360.3,417.947,360.3Z" transform="translate(-386.716 -332.976)" fill="#fff"/>
          <path id="Trazado_184108" data-name="Trazado 184108" d="M58.435,357.4c0,.842,0,1.684,0,2.526a1.915,1.915,0,0,1-1.994,1.981q-2.466.007-4.932,0A1.951,1.951,0,0,1,49.5,360.03q.026-1.825.033-3.65c0-.48-.043-.961-.026-1.44a1.934,1.934,0,0,1,.726-1.572,2.189,2.189,0,0,1,1.321-.411c1.654-.013,3.308-.006,4.962,0a1.892,1.892,0,0,1,1.919,1.862c.015.431,0,.862,0,1.293S58.435,356.97,58.435,357.4Zm-4.482,2.953h2.377c.471,0,.59-.113.591-.578q0-2.347,0-4.694c0-.455-.139-.6-.587-.6-1.073,0-2.146,0-3.219,0-.548,0-1.1-.017-1.644.014-.4.022-.467.131-.462.538.009.71.034,1.42.039,2.13.006.9,0,1.8,0,2.7,0,.392.1.493.5.493Q52.749,360.355,53.952,360.354Z" transform="translate(-44.631 -333.031)" fill="#fff"/>
          <path id="Trazado_184109" data-name="Trazado 184109" d="M124,169.953v-1.509h15.248v1.509Z" transform="translate(-114.653 -159.631)" fill="#fff"/>
          <path id="Trazado_184110" data-name="Trazado 184110" d="M422.189,168.413v1.514H418v-1.514Z" transform="translate(-390.954 -159.602)" fill="#fff"/>
        </g>
      </g>
    </g>
  </g>
</svg>
