<svg xmlns="http://www.w3.org/2000/svg" width="210" height="81" viewBox="0 0 210 81">
  <g id="Grupo_166891" data-name="Grupo 166891" transform="translate(-951.582 -18632.928)">
    <rect id="Rectángulo_50166" data-name="Rectángulo 50166" width="210" height="81" rx="10" transform="translate(951.582 18632.928)" fill="#a4a3ff"/>
    <path id="Trazado_197400" data-name="Trazado 197400" d="M5.7-8.174,8.394-12.8H10.96L7.093-6.451,11.048,0H8.455L5.7-4.693,2.944,0H.36L4.324-6.451.448-12.8H3.015ZM21.656,0V-12.8h4.386a5.354,5.354,0,0,1,3.3.87A3.065,3.065,0,0,1,30.48-9.334a2.763,2.763,0,0,1-.475,1.582,3.055,3.055,0,0,1-1.389,1.09,2.825,2.825,0,0,1,1.6,1.059,3.085,3.085,0,0,1,.567,1.868A3.407,3.407,0,0,1,29.632-.967,5.025,5.025,0,0,1,26.323,0ZM23.88-5.774v4h2.47a2.39,2.39,0,0,0,1.635-.519,1.82,1.82,0,0,0,.589-1.441,1.826,1.826,0,0,0-2.039-2.039Zm0-1.635h2.18a2.521,2.521,0,0,0,1.622-.47,1.611,1.611,0,0,0,.584-1.332,1.633,1.633,0,0,0-.541-1.371A2.73,2.73,0,0,0,26.042-11H23.88ZM35.077,0H32.941V-9.51h2.136ZM32.81-11.979a1.133,1.133,0,0,1,.312-.817,1.179,1.179,0,0,1,.892-.325,1.193,1.193,0,0,1,.9.325,1.125,1.125,0,0,1,.316.817,1.1,1.1,0,0,1-.316.8,1.2,1.2,0,0,1-.9.321,1.188,1.188,0,0,1-.892-.321A1.107,1.107,0,0,1,32.81-11.979Zm6.574,2.47.062,1.1a3.419,3.419,0,0,1,2.769-1.274q2.971,0,3.023,3.4V0H43.1V-6.161A1.958,1.958,0,0,0,42.71-7.5a1.645,1.645,0,0,0-1.279-.435,2.058,2.058,0,0,0-1.925,1.169V0H37.371V-9.51ZM51.926-5.2a13.393,13.393,0,0,1,.545-3.854,10.578,10.578,0,0,1,1.6-3.261A6.351,6.351,0,0,1,56.3-14.335l.422,1.248a6.524,6.524,0,0,0-2.008,2.87A12.852,12.852,0,0,0,53.877-5.8l-.009.756a13.972,13.972,0,0,0,.751,4.75,7,7,0,0,0,2.1,3.177L56.3,4.069a6.362,6.362,0,0,1-2.237-2.026,10.577,10.577,0,0,1-1.6-3.261A13.921,13.921,0,0,1,51.926-5.2ZM64.635-9.51l.062,1.1a3.419,3.419,0,0,1,2.769-1.274q2.971,0,3.023,3.4V0H68.353V-6.161a1.958,1.958,0,0,0-.391-1.34,1.645,1.645,0,0,0-1.279-.435,2.058,2.058,0,0,0-1.925,1.169V0H62.622V-9.51ZM72.967,2.883,71.815,2.2A6.21,6.21,0,0,0,72.514.8a4.157,4.157,0,0,0,.2-1.208V-2.065h1.925L74.628-.527a4.287,4.287,0,0,1-.47,1.868A4.64,4.64,0,0,1,72.967,2.883ZM90.492-7.84h-1.4v5.15a1.169,1.169,0,0,0,.215.787,1,1,0,0,0,.769.242,3.622,3.622,0,0,0,.747-.088V-.1a4.715,4.715,0,0,1-1.406.2q-2.461,0-2.461-2.716V-7.84H84.041V0H81.905V-7.84H80.4V-9.51h10.09Zm10.345,2.777A13.224,13.224,0,0,1,100.3-1.3a10.671,10.671,0,0,1-1.626,3.3A6.367,6.367,0,0,1,96.4,4.069l-.422-1.187A6.754,6.754,0,0,0,98.064-.233a13.84,13.84,0,0,0,.769-4.786v-.2a14.044,14.044,0,0,0-.668-4.452,7.852,7.852,0,0,0-1.916-3.221l-.272-.246.422-1.2a6.3,6.3,0,0,1,2.18,1.934A10.491,10.491,0,0,1,100.2-9.294a12.941,12.941,0,0,1,.633,3.546Z" transform="translate(1003.677 18678.928)" fill="#fff"/>
  </g>
</svg>
