<svg xmlns="http://www.w3.org/2000/svg" xmlns:xlink="http://www.w3.org/1999/xlink" width="387" height="363" viewBox="0 0 387 363">
  <defs>
    <clipPath id="clip-path">
      <rect id="Rectángulo_49833" data-name="Rectángulo 49833" width="339.831" height="312.822" fill="none"/>
    </clipPath>
    <clipPath id="clip-path-2">
      <rect id="Rectángulo_49831" data-name="Rectángulo 49831" width="339.832" height="312.822" fill="#ffde96"/>
    </clipPath>
    <clipPath id="clip-path-3">
      <rect id="Rectángulo_49830" data-name="Rectángulo 49830" width="339.832" height="312.465" fill="#ffde96"/>
    </clipPath>
    <clipPath id="clip-path-4">
      <rect id="Rectángulo_49832" data-name="Rectángulo 49832" width="339.832" height="312.822" fill="none"/>
    </clipPath>
    <clipPath id="clip-path-5">
      <rect id="Rectángulo_49836" data-name="Rectángulo 49836" width="273.344" height="114.992" fill="none"/>
    </clipPath>
  </defs>
  <g id="Grupo_166769" data-name="Grupo 166769" transform="translate(-915 -14122)">
    <g id="Grupo_165807" data-name="Grupo 165807" transform="translate(961.832 14160.551)">
      <g id="Grupo_165806" data-name="Grupo 165806" clip-path="url(#clip-path)">
        <g id="Grupo_165803" data-name="Grupo 165803" style="isolation: isolate">
          <g id="Grupo_165802" data-name="Grupo 165802" clip-path="url(#clip-path-2)">
            <path id="Trazado_178028" data-name="Trazado 178028" d="M338.424,162.721c-4.185-33.232-17.334-66.29-34.443-93.323C281.724,34.232,246.164,6.018,203.975.789c-29.86-3.7-63.908,5.726-87,25.948A89.968,89.968,0,0,0,91.419,63.645c-5.651,15.516-8.059,33.3-20.237,45.477-14.635,14.637-34.847,21.642-49.967,35.614-33.524,30.981-23.737,86.94,4.5,117.85,25.421,27.823,63.136,22.676,97.049,27.921,25.743,3.981,48.024,18.5,74.334,21.244,38.065,3.975,77.363-8.769,105.283-35.085,32.507-30.641,41.269-72.427,36.04-113.945" transform="translate(0 0)" fill="#ffde96"/>
            <g id="Grupo_165801" data-name="Grupo 165801" opacity="0.7">
              <g id="Grupo_165800" data-name="Grupo 165800" style="isolation: isolate">
                <g id="Grupo_165799" data-name="Grupo 165799" clip-path="url(#clip-path-3)">
                  <path id="Trazado_178029" data-name="Trazado 178029" d="M338.424,162.721c-4.185-33.232-17.334-66.29-34.443-93.323C281.724,34.232,246.164,6.018,203.975.789c-29.86-3.7-63.908,5.726-87,25.948A89.968,89.968,0,0,0,91.419,63.645c-5.651,15.516-8.059,33.3-20.237,45.477-14.635,14.637-34.847,21.642-49.967,35.614-33.524,30.981-23.737,86.94,4.5,117.85,25.421,27.823,63.136,22.676,97.049,27.921,25.743,3.981,48.024,18.5,74.334,21.244,38.065,3.975,77.363-8.769,105.283-35.085,32.507-30.641,41.269-72.427,36.04-113.945" transform="translate(0 0)" fill="#ffde96"/>
                </g>
              </g>
            </g>
          </g>
        </g>
        <g id="Grupo_165805" data-name="Grupo 165805">
          <g id="Grupo_165804" data-name="Grupo 165804" clip-path="url(#clip-path-4)">
            <path id="Trazado_178030" data-name="Trazado 178030" d="M252.464,381.215l3.439-51.05-3.5-31.994s-29.191,3.97-64.922-4.671l-.934,45.072,2.106,26.447c17.133,5.817,33.651,13.574,52.164,15.507,3.874.405,7.762.627,11.649.688" transform="translate(-43.713 -68.776)" fill="#12263f"/>
            <path id="Trazado_178031" data-name="Trazado 178031" d="M252.464,381.215l3.439-51.05-3.5-31.994s-29.191,3.97-64.922-4.671l-.934,45.072,2.106,26.447c17.133,5.817,33.651,13.574,52.164,15.507C244.689,380.932,248.577,381.154,252.464,381.215Z" transform="translate(-43.713 -68.776)" fill="none" stroke="#263238" stroke-linecap="round" stroke-linejoin="round" stroke-width="1"/>
            <path id="Trazado_178032" data-name="Trazado 178032" d="M252.652,298.172s-29.192,3.97-64.922-4.671l-.109,5.276c2.933,2.163,10.579,6.454,26.965,8.5,17.075,2.135,32.379-1.419,38.709-3.235Z" transform="translate(-43.965 -68.776)" fill="#707070"/>
            <path id="Trazado_178033" data-name="Trazado 178033" d="M252.652,298.172s-29.192,3.97-64.922-4.671l-.109,5.276c2.933,2.163,10.579,6.454,26.965,8.5,17.075,2.135,32.379-1.419,38.709-3.235Z" transform="translate(-43.965 -68.776)" fill="none" stroke="#263238" stroke-linecap="round" stroke-linejoin="round" stroke-width="1"/>
            <path id="Trazado_178034" data-name="Trazado 178034" d="M236.227,308.219q1.981-.161,3.844-.384v-8.161A205.189,205.189,0,0,1,199.7,296.08l.9,2.7v5.5q1.526.51,3.3,1l.2-6.268,32.461,2.569Z" transform="translate(-46.797 -69.38)" fill="#263238"/>
            <path id="Trazado_178035" data-name="Trazado 178035" d="M236.227,308.219q1.981-.161,3.844-.384v-8.161A205.189,205.189,0,0,1,199.7,296.08l.9,2.7v5.5q1.526.51,3.3,1l.2-6.268,32.461,2.569Z" transform="translate(-46.797 -69.38)" fill="none" stroke="#263238" stroke-linecap="round" stroke-linejoin="round" stroke-width="1"/>
            <path id="Trazado_178036" data-name="Trazado 178036" d="M215.313,308.628q2.683.479,5.762.868c2.4.3,4.759.484,7.066.58l.173-5.017-12.611-2.1Z" transform="translate(-50.454 -70.992)" fill="#fff"/>
            <path id="Trazado_178037" data-name="Trazado 178037" d="M215.313,308.628q2.683.479,5.762.868c2.4.3,4.759.484,7.066.58l.173-5.017-12.611-2.1Z" transform="translate(-50.454 -70.992)" fill="none" stroke="#263238" stroke-linecap="round" stroke-linejoin="round" stroke-width="1"/>
            <path id="Trazado_178038" data-name="Trazado 178038" d="M200.8,309.362s-4.9,9.575-11.209,10.742" transform="translate(-44.427 -72.493)" fill="none" stroke="#858585" stroke-linecap="round" stroke-linejoin="round" stroke-width="1"/>
            <path id="Trazado_178039" data-name="Trazado 178039" d="M258.636,332.087a15.617,15.617,0,0,0,1.55,1.283" transform="translate(-60.606 -77.818)" fill="none" stroke="#858585" stroke-linecap="round" stroke-linejoin="round" stroke-width="1"/>
            <path id="Trazado_178040" data-name="Trazado 178040" d="M250.29,315.157a25.133,25.133,0,0,0,4.474,10.828" transform="translate(-58.65 -73.851)" fill="none" stroke="#858585" stroke-linecap="round" stroke-linejoin="round" stroke-width="1"/>
            <line id="Línea_186" data-name="Línea 186" x2="0.005" y2="4.013" transform="translate(177.19 302.324)" fill="none" stroke="#858585" stroke-linecap="round" stroke-linejoin="round" stroke-width="1"/>
            <path id="Trazado_178041" data-name="Trazado 178041" d="M219.179,354.5l9.341,8.174.026,19.8" transform="translate(-51.36 -83.07)" fill="none" stroke="#858585" stroke-linecap="round" stroke-linejoin="round" stroke-width="1"/>
            <path id="Trazado_178042" data-name="Trazado 178042" d="M219.234,324.332l.658,16.795,4.9,3.737-.467-17.516" transform="translate(-51.373 -76.001)" fill="none" stroke="#858585" stroke-linecap="round" stroke-linejoin="round" stroke-width="1"/>
            <line id="Línea_187" data-name="Línea 187" x2="0.119" y2="3.018" transform="translate(167.585 241.306)" fill="none" stroke="#858585" stroke-linecap="round" stroke-linejoin="round" stroke-width="1"/>
            <path id="Trazado_178043" data-name="Trazado 178043" d="M209.951,175.382s-26.524.828-28.39,2.072-17.407,8.911-17.407,8.911,5.388-10.775,5.388-15.127-3.315-7.046-9.325-9.325-14.3,1.036-15.956,5.6-9.533,32.741-10.362,40.822,9.947,15.127,14.506,14.712,27.768-8.91,27.768-8.91-1.658,45.589-1.658,46.832,0,3.109,2.487,4.145,14.3,7.046,28.6,8.288,30.462-1.658,32.534-1.864,3.937-4.559,3.937-6.424,1.658-16.163,1.658-16.163l3.109,12.64s2.073,2.279,8.7,2.9,11.812-2.694,13.262-6.01,1.451-4.145,1.451-4.145-13.47-51.391-14.506-55.95-.829-4.559-3.73-7.874-21.758-10.775-26.939-12.226-15.127-2.9-15.127-2.9" transform="translate(-31.366 -37.768)" fill="#43a99b"/>
            <path id="Trazado_178044" data-name="Trazado 178044" d="M209.951,175.382s-26.524.828-28.39,2.072-17.407,8.911-17.407,8.911,5.388-10.775,5.388-15.127-3.315-7.046-9.325-9.325-14.3,1.036-15.956,5.6-9.533,32.741-10.362,40.822,9.947,15.127,14.506,14.712,27.768-8.91,27.768-8.91-1.658,45.589-1.658,46.832,0,3.109,2.487,4.145,14.3,7.046,28.6,8.288,30.462-1.658,32.534-1.864,3.937-4.559,3.937-6.424,1.658-16.163,1.658-16.163l3.109,12.64s2.073,2.279,8.7,2.9,11.812-2.694,13.262-6.01,1.451-4.145,1.451-4.145-13.47-51.391-14.506-55.95-.829-4.559-3.73-7.874-21.758-10.775-26.939-12.226S209.951,175.382,209.951,175.382Z" transform="translate(-31.366 -37.768)" fill="none" stroke="#263238" stroke-linecap="round" stroke-linejoin="round" stroke-width="1"/>
            <line id="Línea_188" data-name="Línea 188" x1="8.703" y2="24.245" transform="translate(124.085 148.597)" fill="none" stroke="#263238" stroke-linecap="round" stroke-linejoin="round" stroke-width="1"/>
            <path id="Trazado_178045" data-name="Trazado 178045" d="M168.7,207.606a64.467,64.467,0,0,1-.414,11.811" transform="translate(-39.434 -48.648)" fill="none" stroke="#263238" stroke-linecap="round" stroke-linejoin="round" stroke-width="1"/>
            <line id="Línea_189" data-name="Línea 189" y1="22.587" x2="0.622" transform="translate(144.807 153.777)" fill="none" stroke="#263238" stroke-linecap="round" stroke-linejoin="round" stroke-width="1"/>
            <path id="Trazado_178046" data-name="Trazado 178046" d="M187.857,220.251s-3.523-8.5-4.145-16.163" transform="translate(-43.049 -47.824)" fill="none" stroke="#263238" stroke-linecap="round" stroke-linejoin="round" stroke-width="1"/>
            <line id="Línea_190" data-name="Línea 190" y1="41.404" x2="6.967" transform="translate(212.362 169.773)" fill="none" stroke="#263238" stroke-linecap="round" stroke-linejoin="round" stroke-width="1"/>
            <line id="Línea_191" data-name="Línea 191" y1="19.783" x2="6.386" transform="translate(215.086 175.669)" fill="none" stroke="#263238" stroke-linecap="round" stroke-linejoin="round" stroke-width="1"/>
            <path id="Trazado_178047" data-name="Trazado 178047" d="M224.236,200.161l3.269,7.706L211.859,260.88l7.94,11.91,9.575-11.209,1.635-52.545,9.808-5.6-7.706-10.275Z" transform="translate(-49.645 -45.262)" fill="#263238"/>
            <path id="Trazado_178048" data-name="Trazado 178048" d="M224.236,200.161l3.269,7.706L211.859,260.88l7.94,11.91,9.575-11.209,1.635-52.545,9.808-5.6-7.706-10.275Z" transform="translate(-49.645 -45.262)" fill="none" stroke="#263238" stroke-linecap="round" stroke-linejoin="round" stroke-width="1"/>
            <path id="Trazado_178049" data-name="Trazado 178049" d="M231.238,174.55s-3.736.7-3.97,2.1-3.5,3.97-4.2,9.341a62.362,62.362,0,0,0,.234,12.844s7.239-3.269,8.641-3.5,5.371.234,6.072,1.4,4.437,8.408,6.305,7.239S255.058,193,255.525,185.059s-7.239-7.239-8.174-7.706-16.114-2.8-16.114-2.8" transform="translate(-52.21 -40.902)" fill="#43a99b"/>
            <path id="Trazado_178050" data-name="Trazado 178050" d="M231.238,174.55s-3.736.7-3.97,2.1-3.5,3.97-4.2,9.341a62.362,62.362,0,0,0,.234,12.844s7.239-3.269,8.641-3.5,5.371.234,6.072,1.4,4.437,8.408,6.305,7.239S255.058,193,255.525,185.059s-7.239-7.239-8.174-7.706S231.238,174.55,231.238,174.55Z" transform="translate(-52.21 -40.902)" fill="none" stroke="#263238" stroke-linecap="round" stroke-linejoin="round" stroke-width="1"/>
            <path id="Trazado_178051" data-name="Trazado 178051" d="M233.316,164.79s-.7,6.772-1.168,12.377-1.168,11.443,1.168,14.48,4.9,3.5,10.509-.7,8.874-7.94,9.808-11.91,2.335-8.174,2.335-8.174-11.443,3.036-22.652-6.072" transform="translate(-54.288 -38.615)" fill="#efdbd6"/>
            <path id="Trazado_178052" data-name="Trazado 178052" d="M233.316,164.79s-.7,6.772-1.168,12.377-1.168,11.443,1.168,14.48,4.9,3.5,10.509-.7,8.874-7.94,9.808-11.91,2.335-8.174,2.335-8.174S244.526,173.9,233.316,164.79Z" transform="translate(-54.288 -38.615)" fill="none" stroke="#263238" stroke-linecap="round" stroke-linejoin="round" stroke-width="1"/>
            <path id="Trazado_178053" data-name="Trazado 178053" d="M233.5,164.79s-.593,5.73-1.051,11.01a11.622,11.622,0,0,0,6.232,3.486c7.549,1.59,14.369-4.088,17.14-7.4.2-.642.332-1.029.332-1.029S244.707,173.9,233.5,164.79" transform="translate(-54.469 -38.615)" fill="#263238"/>
            <path id="Trazado_178054" data-name="Trazado 178054" d="M233.5,164.79s-.593,5.73-1.051,11.01a11.622,11.622,0,0,0,6.232,3.486c7.549,1.59,14.369-4.088,17.14-7.4.2-.642.332-1.029.332-1.029S244.707,173.9,233.5,164.79Z" transform="translate(-54.469 -38.615)" fill="none" stroke="#263238" stroke-linecap="round" stroke-linejoin="round" stroke-width="1"/>
            <path id="Trazado_178055" data-name="Trazado 178055" d="M232.21,141.821s-.934-3.036-2.8-.7-.934,8.174.234,9.575S232.21,141.821,232.21,141.821Z" transform="translate(-53.508 -32.862)" fill="none" stroke="#263238" stroke-linecap="round" stroke-linejoin="round" stroke-width="1"/>
            <path id="Trazado_178056" data-name="Trazado 178056" d="M235.789,119.375s-7.167,23.457-6.082,28.452,3.041,13.466,11.294,15.2,15.638-5.212,17.809-8.252c0,0,5.648.652,7.167-3.041s3.692-7.6,1.521-8.47a9.79,9.79,0,0,0-3.04-.87s6.081-9.556,6.516-12.813-1.738-14.117-8.688-19.33-18.679-5.864-18.027-3.475,2.171,2.607,2.171,2.607-13.683-1.521-14.769,2.171,4.779,5.864,4.779,5.864Z" transform="translate(-53.801 -24.71)" fill="#e3d4d0"/>
            <path id="Trazado_178057" data-name="Trazado 178057" d="M235.789,119.375s-7.167,23.457-6.082,28.452,3.041,13.466,11.294,15.2,15.638-5.212,17.809-8.252c0,0,5.648.652,7.167-3.041s3.692-7.6,1.521-8.47a9.79,9.79,0,0,0-3.04-.87s6.081-9.556,6.516-12.813-1.738-14.117-8.688-19.33-18.679-5.864-18.027-3.475,2.171,2.607,2.171,2.607-13.683-1.521-14.769,2.171,4.779,5.864,4.779,5.864Z" transform="translate(-53.801 -24.71)" fill="none" stroke="#263238" stroke-linecap="round" stroke-linejoin="round" stroke-width="1"/>
            <path id="Trazado_178058" data-name="Trazado 178058" d="M265.051,142.4s6.082-9.556,6.516-12.814-1.737-14.117-8.688-19.33-18.679-5.864-18.027-3.475,2.172,2.606,2.172,2.606-13.683-1.521-14.769,2.172,4.779,5.864,4.779,5.864l-.652,1.955s-1.373,4.494-2.826,9.967l.437.024s.652-1.955,1.521-5,2.606-6.516,11.294-5.647,17.375,5.429,17.81,8.687-3.258,4.561-1.955,6.082,3.04,2.171,1.955,3.258-3.258,5.647-1.955,6.3,3.475-.434,3.475-.434h.06a5.1,5.1,0,0,0-1.145-.218" transform="translate(-54.393 -24.71)" fill="#263238"/>
            <path id="Trazado_178059" data-name="Trazado 178059" d="M265.051,142.4s6.082-9.556,6.516-12.814-1.737-14.117-8.688-19.33-18.679-5.864-18.027-3.475,2.172,2.606,2.172,2.606-13.683-1.521-14.769,2.172,4.779,5.864,4.779,5.864l-.652,1.955s-1.373,4.494-2.826,9.967l.437.024s.652-1.955,1.521-5,2.606-6.516,11.294-5.647,17.375,5.429,17.81,8.687-3.258,4.561-1.955,6.082,3.04,2.171,1.955,3.258-3.258,5.647-1.955,6.3,3.475-.434,3.475-.434h.06A5.1,5.1,0,0,0,265.051,142.4Z" transform="translate(-54.393 -24.71)" fill="none" stroke="#263238" stroke-linecap="round" stroke-linejoin="round" stroke-width="1"/>
            <path id="Trazado_178060" data-name="Trazado 178060" d="M246.7,143.493l-3.91,10.425,4.127,1.3" transform="translate(-56.893 -33.625)" fill="none" stroke="#263238" stroke-linecap="round" stroke-linejoin="round" stroke-width="1"/>
            <path id="Trazado_178061" data-name="Trazado 178061" d="M243.926,162.534a8.122,8.122,0,0,0,9.339-1.737" transform="translate(-57.159 -37.68)" fill="none" stroke="#263238" stroke-linecap="round" stroke-linejoin="round" stroke-width="1"/>
            <path id="Trazado_178062" data-name="Trazado 178062" d="M237.685,136.118s5.43.869,6.95,1.737" transform="translate(-55.697 -31.896)" fill="none" stroke="#263238" stroke-linecap="round" stroke-linejoin="round" stroke-width="2"/>
            <path id="Trazado_178063" data-name="Trazado 178063" d="M256.974,138.592a6.154,6.154,0,0,1,6.516,1.955" transform="translate(-60.217 -32.416)" fill="none" stroke="#263238" stroke-linecap="round" stroke-linejoin="round" stroke-width="2"/>
            <path id="Trazado_178064" data-name="Trazado 178064" d="M241.328,142.809c-.126.952-.662,1.665-1.2,1.594s-.867-.9-.74-1.851.662-1.665,1.2-1.593.867.9.74,1.851" transform="translate(-56.09 -33.03)" fill="#263238"/>
            <path id="Trazado_178065" data-name="Trazado 178065" d="M257.794,147.485c-.127.951-.662,1.665-1.2,1.594s-.867-.9-.741-1.851.663-1.665,1.2-1.593.867.9.741,1.851" transform="translate(-59.948 -34.125)" fill="#263238"/>
            <path id="Trazado_178066" data-name="Trazado 178066" d="M163.9,147.757l-3.73,7.252s0,3.316,5.6,4.352,7.46-2.279,7.46-2.279l3.937-10.776s3.109-2.072,3.523-4.351,0-9.118.622-12.226,5.181-7.874,2.9-8.5-4.766,1.036-5.388,3.937-1.658,6.216-1.658,6.216-2.072-2.486-2.279-4.559.829-3.108-.622-3.523-10.983,6.631-11.4,8.911,1.036,15.542,1.036,15.542" transform="translate(-37.532 -28.378)" fill="#f2d6d0"/>
            <path id="Trazado_178067" data-name="Trazado 178067" d="M163.9,147.757l-3.73,7.252s0,3.316,5.6,4.352,7.46-2.279,7.46-2.279l3.937-10.776s3.109-2.072,3.523-4.351,0-9.118.622-12.226,5.181-7.874,2.9-8.5-4.766,1.036-5.388,3.937-1.658,6.216-1.658,6.216-2.072-2.486-2.279-4.559.829-3.108-.622-3.523-10.983,6.631-11.4,8.911S163.9,147.757,163.9,147.757Z" transform="translate(-37.532 -28.378)" fill="none" stroke="#263238" stroke-linecap="round" stroke-linejoin="round" stroke-width="1"/>
            <line id="Línea_192" data-name="Línea 192" y2="17.922" transform="translate(139.998 85.79)" fill="none" stroke="#263238" stroke-linecap="round" stroke-linejoin="round" stroke-width="3"/>
            <path id="Trazado_178068" data-name="Trazado 178068" d="M175.429,152.666s-1.865,3.73-4.766,4.352-3.73-1.037-3.73-1.037" transform="translate(-39.117 -35.774)" fill="none" stroke="#263238" stroke-linecap="round" stroke-linejoin="round" stroke-width="1"/>
            <path id="Trazado_178069" data-name="Trazado 178069" d="M167.781,128.646s-.8-.459.115-1.145,4.124-2.177,5.155-2.75,2.635,4.926,3.207,6.873.8,2.406,0,2.406-1.489,0-2.52-2.063a16.143,16.143,0,0,0-1.6-2.75l-1.948.344" transform="translate(-39.24 -29.223)" fill="#ebd6d2"/>
            <path id="Trazado_178070" data-name="Trazado 178070" d="M167.781,128.646s-.8-.459.115-1.145,4.124-2.177,5.155-2.75,2.635,4.926,3.207,6.873.8,2.406,0,2.406-1.489,0-2.52-2.063a16.143,16.143,0,0,0-1.6-2.75l-1.948.344" transform="translate(-39.24 -29.223)" fill="none" stroke="#263238" stroke-linecap="round" stroke-linejoin="round" stroke-width="1"/>
            <path id="Trazado_178071" data-name="Trazado 178071" d="M164.489,131.19s-.8-.459.115-1.145,4.124-2.177,5.155-2.75,2.635,4.926,3.207,6.873.8,2.406,0,2.406-1.489,0-2.52-2.062a16.144,16.144,0,0,0-1.6-2.75l-1.948.344" transform="translate(-38.469 -29.819)" fill="#ebd6d2"/>
            <path id="Trazado_178072" data-name="Trazado 178072" d="M164.489,131.19s-.8-.459.115-1.145,4.124-2.177,5.155-2.75,2.635,4.926,3.207,6.873.8,2.406,0,2.406-1.489,0-2.52-2.062a16.144,16.144,0,0,0-1.6-2.75l-1.948.344" transform="translate(-38.469 -29.819)" fill="none" stroke="#263238" stroke-linecap="round" stroke-linejoin="round" stroke-width="1"/>
            <path id="Trazado_178073" data-name="Trazado 178073" d="M164.548,135.777l2.279,2.072s.829,2.279,2.072,2.487,1.243-1.036,0-3.315-1.864-5.8-2.694-6.01-4.145,2.694-4.145,2.694l1.658,5.388" transform="translate(-37.976 -30.697)" fill="#ebd6d2"/>
            <path id="Trazado_178074" data-name="Trazado 178074" d="M164.548,135.777l2.279,2.072s.829,2.279,2.072,2.487,1.243-1.036,0-3.315-1.864-5.8-2.694-6.01-4.145,2.694-4.145,2.694l1.658,5.388" transform="translate(-37.976 -30.697)" fill="none" stroke="#263238" stroke-linecap="round" stroke-linejoin="round" stroke-width="1"/>
            <path id="Trazado_178075" data-name="Trazado 178075" d="M178.345,122.157s-2.093,0-2.292,1.794,1.1,2.292,2.989,1.893,2.79-2.192,2.093-3.188-2.79-.5-2.79-.5" transform="translate(-41.25 -28.596)" fill="#ebd6d2"/>
            <path id="Trazado_178076" data-name="Trazado 178076" d="M178.345,122.157s-2.093,0-2.292,1.794,1.1,2.292,2.989,1.893,2.79-2.192,2.093-3.188S178.345,122.157,178.345,122.157Z" transform="translate(-41.25 -28.596)" fill="none" stroke="#263238" stroke-linecap="round" stroke-linejoin="round" stroke-width="1"/>
            <path id="Trazado_178077" data-name="Trazado 178077" d="M173.222,166.087l1.9-5.207c-7.664,2.26-11.194.187-12.654-1.345l-2.3,4.481s0,3.315,5.595,4.351,7.46-2.28,7.46-2.28" transform="translate(-37.532 -37.384)" fill="#43a99b"/>
            <path id="Trazado_178078" data-name="Trazado 178078" d="M173.222,166.087l1.9-5.207c-7.664,2.26-11.194.187-12.654-1.345l-2.3,4.481s0,3.315,5.595,4.351S173.222,166.087,173.222,166.087Z" transform="translate(-37.532 -37.384)" fill="none" stroke="#263238" stroke-linecap="round" stroke-linejoin="round" stroke-width="1"/>
            <path id="Trazado_178079" data-name="Trazado 178079" d="M290.838,284.575s-6.667.175-8.772,2.632-2.281,14.562-2.281,16.492,3.86,7.72,10.878,9.124,12.983-2.807,13.159-7.194,3.158-16.317,2.456-20.879-3.684-6.141-3.684-6.141" transform="translate(-65.562 -65.287)" fill="#43a99b"/>
            <path id="Trazado_178080" data-name="Trazado 178080" d="M290.838,284.575s-6.667.175-8.772,2.632-2.281,14.562-2.281,16.492,3.86,7.72,10.878,9.124,12.983-2.807,13.159-7.194,3.158-16.317,2.456-20.879-3.684-6.141-3.684-6.141" transform="translate(-65.562 -65.287)" fill="none" stroke="#263238" stroke-linecap="round" stroke-linejoin="round" stroke-width="1"/>
            <path id="Trazado_178081" data-name="Trazado 178081" d="M298.89,311.164a8.255,8.255,0,1,1-8.252-8.062,8.158,8.158,0,0,1,8.252,8.063" transform="translate(-66.171 -71.026)" fill="#43a99b"/>
            <ellipse id="Elipse_5200" data-name="Elipse 5200" cx="8.252" cy="8.063" rx="8.252" ry="8.063" transform="translate(216.214 232.075)" fill="none" stroke="#263238" stroke-linecap="round" stroke-linejoin="round" stroke-width="1"/>
            <path id="Trazado_178082" data-name="Trazado 178082" d="M288.188,319.987s.877-3.86,0-6.141-6.667-5.264-8.422-4.562-.877,1.93-2.456,2.632-7.544,1.579-8.773,3.158-2.1,4.562-4.035,8.071-4.211,5.088-1.579,5.263a5.759,5.759,0,0,0,5.439-3.334,6.553,6.553,0,0,1,2.632-2.632s-4.737,10.7-4.036,11.755a2.766,2.766,0,0,0,1.4,1.228s-.526,2.106.7,2.632a2.547,2.547,0,0,0,2.281-.175,6.192,6.192,0,0,0,2.456,1.228,2.929,2.929,0,0,0,1.579-.526s2.983.351,3.861-1.053,4.737-5.965,6.667-9.65a23.527,23.527,0,0,0,2.281-7.9" transform="translate(-61.332 -72.45)" fill="#fff"/>
            <path id="Trazado_178083" data-name="Trazado 178083" d="M288.188,319.987s.877-3.86,0-6.141-6.667-5.264-8.422-4.562-.877,1.93-2.456,2.632-7.544,1.579-8.773,3.158-2.1,4.562-4.035,8.071-4.211,5.088-1.579,5.263a5.759,5.759,0,0,0,5.439-3.334,6.553,6.553,0,0,1,2.632-2.632s-4.737,10.7-4.036,11.755a2.766,2.766,0,0,0,1.4,1.228s-.526,2.106.7,2.632a2.547,2.547,0,0,0,2.281-.175,6.192,6.192,0,0,0,2.456,1.228,2.929,2.929,0,0,0,1.579-.526s2.983.351,3.861-1.053,4.737-5.965,6.667-9.65A23.527,23.527,0,0,0,288.188,319.987Z" transform="translate(-61.332 -72.45)" fill="none" stroke="#263238" stroke-linecap="round" stroke-linejoin="round" stroke-width="1"/>
            <line id="Línea_193" data-name="Línea 193" y1="11.229" x2="7.544" transform="translate(207.03 251.748)" fill="none" stroke="#263238" stroke-linecap="round" stroke-linejoin="round" stroke-width="1"/>
            <line id="Línea_194" data-name="Línea 194" y1="10.878" x2="8.422" transform="translate(210.012 254.555)" fill="none" stroke="#263238" stroke-linecap="round" stroke-linejoin="round" stroke-width="1"/>
            <line id="Línea_195" data-name="Línea 195" y1="7.544" x2="6.667" transform="translate(214.048 258.591)" fill="none" stroke="#263238" stroke-linecap="round" stroke-linejoin="round" stroke-width="1"/>
            <line id="Línea_196" data-name="Línea 196" y1="4.737" x2="1.403" transform="translate(209.661 245.256)" fill="none" stroke="#263238" stroke-linecap="round" stroke-linejoin="round" stroke-width="1"/>
          </g>
        </g>
      </g>
    </g>
    <g id="Grupo_165809" data-name="Grupo 165809" transform="translate(961.832 14138.392)">
      <g id="Grupo_165808" data-name="Grupo 165808" transform="translate(0 0)" clip-path="url(#clip-path-5)">
        <path id="Trazado_178084" data-name="Trazado 178084" d="M245.537,50.293C245.1,39.84,241.064,8.931,231.909,1.807,223.335-4.866,69.651,8.969,52.158,10.567l.189,2.076c68.377-6.251,172.28-13.857,178.281-9.19,8,6.227,12.357,35.689,12.824,46.929.484,11.6-4.991,27.633-12.514,30.141C223.331,83.058,56.793,96.529,46.112,96.529c-8.818,0-14.93-8.15-16.508-12.1C28.361,81.146,39.389,43.717,46.633,20.9l-1.988-.631c-3.172,10-18.908,60.116-16.978,64.94,2.227,5.57,9.423,13.41,18.445,13.41C55,98.615,222.707,85.466,231.6,82.5c9.336-3.111,14.411-20.855,13.937-32.208" transform="translate(27.778 0)" fill="#263238"/>
        <path id="Trazado_178085" data-name="Trazado 178085" d="M57.462,15.258c.283-3.4-.79-5.927-2.611-6.146-1.134-.141-3.194.571-4.183,6.842l-.289,1.8c-.372,2.3-.714,4.518-.989,6.6a62.778,62.778,0,0,1-4.969,4.659l1.329,1.608c.157-.129,1.516-1.258,3.256-2.933-.525,5.527-.261,9.638,1.831,10.946a2.777,2.777,0,0,0,1.491.42,5.923,5.923,0,0,0,3.276-1.3,36.072,36.072,0,0,0,9.553-10.162c.022,3.359.37,7.525,1.831,9.1a2.31,2.31,0,0,0,1.712.784c3.785,0,5.871-4.271,6.11-4.786,2.46-3.96,5.6-8.327,7.1-9.664a75.99,75.99,0,0,1-.074,9.553,1.043,1.043,0,0,0,2.018.436c2.6-7.037,5.767-13.312,7.113-14.166a4.326,4.326,0,0,1,.326,1.214,63.312,63.312,0,0,1,.575,7.192c.175,4.3.3,7.415,2.229,8.168a2.2,2.2,0,0,0,.812.153c1.136,0,2.476-.842,4.291-2.657l-1.473-1.475c-2.213,2.213-2.868,2.034-2.87,2.036-.659-.257-.814-4.046-.907-6.311a64.562,64.562,0,0,0-.6-7.431c-.113-.712-.456-2.882-2.092-3.043-2.108-.239-4.8,4.522-7.131,9.961a38.449,38.449,0,0,0-.219-4.522,1.606,1.606,0,0,0-1.21-1.54c-.555-.123-2.127-.434-7.6,7.789l.312-7.493L73.328,20.8l-.462,11.119c-.362.708-1.922,3.469-4.165,3.469-.02,0-.074,0-.185-.119-1.274-1.369-1.431-7.835-1.136-11.989a1.044,1.044,0,0,0-2.006-.472A34.291,34.291,0,0,1,54.4,36.047c-1.122.794-2.018,1.089-2.46.814-1.522-.949-1.214-6.374-.569-11.571,2.876-3.075,5.829-6.936,6.088-10.032m-5.023,2.826.289-1.8c.631-4.006,1.66-5.041,1.857-5.1.31.119,1,1.455.8,3.905-.153,1.819-1.622,4.167-3.489,6.452.193-1.28.384-2.462.545-3.453" transform="translate(44.863 9.187)" fill="#263238"/>
        <path id="Trazado_178086" data-name="Trazado 178086" d="M73.611,8.8l-.472,10.391a1.041,1.041,0,0,0,.826,1.067,1.028,1.028,0,0,0,1.186-.637c2.08-5.262,4.607-10.026,5.775-10.942a5.233,5.233,0,0,1,.247,1.228c.927,8.333.939,13.063.939,13.111H84.2c0-.2-.012-4.878-.951-13.342-.09-.816-.332-2.985-1.94-3.2-1.586-.2-3.5,2.175-5.825,7.079L75.7,8.9Z" transform="translate(73.866 6.534)" fill="#263238"/>
        <path id="Trazado_178087" data-name="Trazado 178087" d="M44.233,41.8a1.043,1.043,0,0,0,2.048.279,81.619,81.619,0,0,1,3.783-11.059c.052.31.107.631.159.961.73,4.432,1.634,9.943,4.635,11.151a3.259,3.259,0,0,0,1.224.237,5.179,5.179,0,0,0,3.045-1.208L57.877,40.5c-.927.693-1.678.929-2.241.7-1.911-.768-2.814-6.267-3.355-9.553-.107-.657-.209-1.278-.312-1.839-.215-1.186-.726-1.807-1.52-1.841-.629-.028-1.767-.076-4.13,6.834v-7.64H44.233Z" transform="translate(44.674 27.43)" fill="#263238"/>
        <path id="Trazado_178088" data-name="Trazado 178088" d="M64.884,39.03l13.7-3.779a1.042,1.042,0,0,0,.123-1.968L67.369,28.56l-.8,1.926,6,2.5L52.911,30.847l-.225,2.074L71.7,34.986,64.33,37.02Zm9.688-5.21.539.225-.581.159Z" transform="translate(53.211 28.845)" fill="#263238"/>
        <path id="Trazado_178089" data-name="Trazado 178089" d="M74.021,35.17c.209-.316.42-.655.633-1.015.366-.627.589-1.069.589-1.069l-1.865-.937c-.006.016-.2.4-.523.949-.227.386-.446.732-.657,1.043-.854-.511-1.562-.971-2.123-1.335-1.548-1-2.324-1.511-3.121-.894-.846.653-.488,1.729.227,3.869.547,1.64,1.391,2.531,2.51,2.649q1.453.148,3.041-1.584a43.815,43.815,0,0,0,4.008,1.928,10.293,10.293,0,0,0,3.984.9A5.823,5.823,0,0,0,84.6,38.334a6.089,6.089,0,0,0,1.853-5.99,3.963,3.963,0,0,0-2.945-3.107l-.454,2.038a1.987,1.987,0,0,1,1.377,1.574,4.039,4.039,0,0,1-1.188,3.9c-1.28,1.1-3.25,1.132-5.7.1-1.327-.559-2.5-1.134-3.527-1.682m-4.112,1.186c-.1-.01-.422-.251-.75-1.234-.044-.133-.109-.326-.179-.541.515.334,1.142.742,1.887,1.192-.452.43-.782.615-.959.583" transform="translate(67.124 29.528)" fill="#263238"/>
        <path id="Trazado_178090" data-name="Trazado 178090" d="M134.623,6.8c-3.946-.245-38.654-2.324-42.569-.364-3.626,1.811-7.875,28.5-9.6,40.408L75.936,36.111l-1.783,1.081,8.03,13.226a1.039,1.039,0,0,0,.89.5,1.073,1.073,0,0,0,.211-.02,1.045,1.045,0,0,0,.822-.876C86.812,30.638,90.88,9.728,92.986,8.3c2.512-1.254,25.709-.368,40.47.517l-.41,6.991,2.08.123L135.6,7.9a1.044,1.044,0,0,0-.977-1.1" transform="translate(74.891 5.656)" fill="#263238"/>
        <path id="Trazado_178091" data-name="Trazado 178091" d="M105.261,37.486c.641-3.527,3.767-21.277,2.269-24.27a2.942,2.942,0,0,0-2.609-1.7c-2.5-.143-5.889,2.516-8.193,6.357-2.34,3.9-7.754,14.59-9.714,18.486l-1.343-1.612-1.6,1.337,2.362,2.832a1.045,1.045,0,0,0,.8.376.81.81,0,0,0,.121-.008,1.038,1.038,0,0,0,.812-.569c.076-.151,7.572-15.133,10.353-19.768,2.024-3.375,4.844-5.4,6.325-5.346a.877.877,0,0,1,.822.553c.521,1.041.08,6.321-.8,12.669-2-.5-6.589-1.453-8.108-.273a1.635,1.635,0,0,0-.647,1.308h2.086a.461.461,0,0,1-.165.344c.581-.358,3.582-.042,6.426.667l.279-1.114c-.434,3.027-.959,6.257-1.526,9.364Z" transform="translate(84.905 11.621)" fill="#263238"/>
        <rect id="Rectángulo_49834" data-name="Rectángulo 49834" width="10.391" height="2.086" transform="translate(205.671 30.403)" fill="#263238"/>
        <rect id="Rectángulo_49835" data-name="Rectángulo 49835" width="10.864" height="2.086" transform="translate(205.199 37.013)" fill="#263238"/>
        <path id="Trazado_178092" data-name="Trazado 178092" d="M111.257,33.045h10.862V30.959h-5.527a20.97,20.97,0,0,0,1.815-4.844c.981-3.917.064-11.847.024-12.184a1.041,1.041,0,0,0-1.956-.364l-4.251,8.03,1.843.975,2.593-4.9a31.05,31.05,0,0,1-.273,7.935,16.413,16.413,0,0,1-2.189,5.3l.07.05h-3.011Z" transform="translate(112.365 13.14)" fill="#263238"/>
        <path id="Trazado_178093" data-name="Trazado 178093" d="M13.881,36.6a49.821,49.821,0,0,1-5.109,9.465,38,38,0,0,1-.44-8.074l-2.084-.107a35.265,35.265,0,0,0,.864,10.2,5.109,5.109,0,0,1-2.388,1.58L0,50.612l.408,2.044,4.725-.945a6.319,6.319,0,0,0,2.814-1.566A4.14,4.14,0,0,0,9.67,51.915a3.025,3.025,0,0,0,1.339.31,5.675,5.675,0,0,0,3.58-1.694l-1.373-1.57c-.792.689-1.885,1.437-2.635,1.077a2.745,2.745,0,0,1-1.118-1.475c3.324-3.94,5.958-10.215,6.349-11.177Z" transform="translate(0 36.964)" fill="#263238"/>
        <path id="Trazado_178094" data-name="Trazado 178094" d="M30.676,36.12c-3.536-.314-7.744,2.324-8.683,7.33a38.683,38.683,0,0,0-.492,4.305c-.169,2.446-.247,5.26-.33,8.241-.211,7.61-.45,16.236-2.34,19.205-.625.985-1.21,1.387-1.721,1.192-1.367-.515-2.663-3.8-2.539-4.6l-1-.287-.989-.33c-.525,1.572,1.2,5.943,3.54,7.057a3.016,3.016,0,0,0,1.284.3c.927,0,2.076-.476,3.186-2.217,2.2-3.453,2.434-12,2.663-20.268.082-2.957.161-5.75.326-8.152a36.923,36.923,0,0,1,.46-4.066c.712-3.787,3.9-5.875,6.442-5.636,1.8.167,2.828,1.461,2.828,3.554,0,6.4-1.114,9.911-2.217,10.55-.109.064-.37.213-.947-.119a1.06,1.06,0,0,0-1.3.217c-.109.119-.476.42-.712.356-.1-.03-1.033-.392-1.733-4.11l-2.048.384c.647,3.453,1.708,5.33,3.244,5.742a2.68,2.68,0,0,0,2.209-.46,2.731,2.731,0,0,0,2.334-.205c2.832-1.644,3.256-8.446,3.256-12.355,0-3.829-2.438-5.419-4.721-5.632" transform="translate(12.612 36.454)" fill="#263238"/>
        <path id="Trazado_178095" data-name="Trazado 178095" d="M14.681,41.748a1.889,1.889,0,1,0-1.889-1.889,1.89,1.89,0,0,0,1.889,1.889" transform="translate(12.919 38.347)" fill="#263238"/>
        <path id="Trazado_178096" data-name="Trazado 178096" d="M15.866,43.853a1.889,1.889,0,1,0-1.889,1.889,1.89,1.89,0,0,0,1.889-1.889" transform="translate(12.207 42.382)" fill="#263238"/>
      </g>
    </g>
    <rect id="Rectángulo_49837" data-name="Rectángulo 49837" width="387" height="363" transform="translate(915 14122)" fill="none"/>
  </g>
</svg>
