<svg xmlns="http://www.w3.org/2000/svg" width="496.5" height="81" viewBox="0 0 496.5 81">
  <g id="Grupo_166890" data-name="Grupo 166890" transform="translate(-798.5 -18456.908)">
    <rect id="Rectángulo_50165" data-name="Rectángulo 50165" width="496.5" height="81" rx="10" transform="translate(798.5 18456.908)" fill="#a4a3ff"/>
    <path id="Trazado_197399" data-name="Trazado 197399" d="M8.675-5.423H3.524V0H1.3V-12.8h8.13V-11H3.524V-7.2h5.15Zm6.82.22a13.393,13.393,0,0,1,.545-3.854,10.578,10.578,0,0,1,1.6-3.261,6.351,6.351,0,0,1,2.232-2.017l.422,1.248a6.524,6.524,0,0,0-2.008,2.87A12.852,12.852,0,0,0,17.446-5.8l-.009.756a13.972,13.972,0,0,0,.751,4.75,7,7,0,0,0,2.1,3.177l-.422,1.187a6.362,6.362,0,0,1-2.237-2.026,10.577,10.577,0,0,1-1.6-3.261A13.921,13.921,0,0,1,15.5-5.2ZM29.637-6.381,31.447-9.51H33.82L30.911-4.825,33.917,0H31.562l-1.9-3.252L27.773,0H25.4l3.006-4.825-2.9-4.685h2.355ZM37.547,0H35.411V-9.51h2.136ZM35.279-11.979a1.133,1.133,0,0,1,.312-.817,1.179,1.179,0,0,1,.892-.325,1.193,1.193,0,0,1,.9.325,1.125,1.125,0,0,1,.316.817,1.1,1.1,0,0,1-.316.8,1.2,1.2,0,0,1-.9.321,1.188,1.188,0,0,1-.892-.321A1.107,1.107,0,0,1,35.279-11.979ZM53.745-7.84h-1.4v5.15a1.169,1.169,0,0,0,.215.787,1,1,0,0,0,.769.242,3.622,3.622,0,0,0,.747-.088V-.1a4.715,4.715,0,0,1-1.406.2q-2.461,0-2.461-2.716V-7.84H47.294V0H45.158V-7.84h-1.5V-9.51h10.09ZM64.09-5.062A13.224,13.224,0,0,1,63.554-1.3a10.671,10.671,0,0,1-1.626,3.3,6.367,6.367,0,0,1-2.276,2.061l-.422-1.187A6.754,6.754,0,0,0,61.317-.233a13.84,13.84,0,0,0,.769-4.786v-.2a14.044,14.044,0,0,0-.668-4.452A7.852,7.852,0,0,0,59.5-12.894l-.272-.246.422-1.2a6.3,6.3,0,0,1,2.18,1.934,10.491,10.491,0,0,1,1.617,3.107,12.941,12.941,0,0,1,.633,3.546ZM78.557-6.855H70.98V-8.631h7.576Zm0,3.727H70.98V-4.9h7.576ZM94.746-7.84h-1.4v5.15a1.169,1.169,0,0,0,.215.787,1,1,0,0,0,.769.242,3.622,3.622,0,0,0,.747-.088V-.1a4.715,4.715,0,0,1-1.406.2q-2.461,0-2.461-2.716V-7.84H88.295V0H86.159V-7.84h-1.5V-9.51h10.09Zm5.159,1.459,1.811-3.129h2.373L101.18-4.825,104.186,0H101.83l-1.9-3.252L98.042,0H95.669l3.006-4.825-2.9-4.685H98.13ZM111.19,0h-2.127V-10.281l-3.138,1.07V-11l4.992-1.837h.272Zm9.1-5.2a13.393,13.393,0,0,1,.545-3.854,10.578,10.578,0,0,1,1.6-3.261,6.351,6.351,0,0,1,2.232-2.017l.422,1.248a6.524,6.524,0,0,0-2.008,2.87,12.852,12.852,0,0,0-.839,4.417l-.009.756a13.972,13.972,0,0,0,.751,4.75,7,7,0,0,0,2.1,3.177l-.422,1.187a6.362,6.362,0,0,1-2.237-2.026,10.577,10.577,0,0,1-1.6-3.261A13.921,13.921,0,0,1,120.287-5.2ZM136.661,0h-2.127V-10.281L131.4-9.211V-11l4.992-1.837h.272Zm13.21-4.579h-4.614V-6.3h4.614ZM165.507-7.84h-1.4v5.15a1.169,1.169,0,0,0,.215.787,1,1,0,0,0,.769.242,3.622,3.622,0,0,0,.747-.088V-.1a4.715,4.715,0,0,1-1.406.2q-2.461,0-2.461-2.716V-7.84h-2.918V0H156.92V-7.84h-1.5V-9.51h10.09Zm10.345,2.777a13.224,13.224,0,0,1-.536,3.766,10.671,10.671,0,0,1-1.626,3.3,6.367,6.367,0,0,1-2.276,2.061l-.422-1.187a6.754,6.754,0,0,0,2.087-3.116,13.84,13.84,0,0,0,.769-4.786v-.2a14.044,14.044,0,0,0-.668-4.452,7.852,7.852,0,0,0-1.916-3.221l-.272-.246.422-1.2a6.3,6.3,0,0,1,2.18,1.934,10.491,10.491,0,0,1,1.617,3.107,12.941,12.941,0,0,1,.633,3.546ZM188.209,0h-2.127V-10.281l-3.138,1.07V-11l4.992-1.837h.272Zm8.728-4.579h-4.614V-6.3h4.614Zm5.177-1.8,1.811-3.129H206.3l-2.909,4.685L206.394,0h-2.355l-1.9-3.252L200.25,0h-2.373l3.006-4.825-2.9-4.685h2.355ZM210.023,0h-2.136V-9.51h2.136Zm-2.268-11.979a1.133,1.133,0,0,1,.312-.817,1.179,1.179,0,0,1,.892-.325,1.193,1.193,0,0,1,.9.325,1.125,1.125,0,0,1,.316.817,1.1,1.1,0,0,1-.316.8,1.2,1.2,0,0,1-.9.321,1.188,1.188,0,0,1-.892-.321A1.107,1.107,0,0,1,207.756-11.979ZM222.064,0V-7.928h-1.45V-9.51h1.45v-.87a3.266,3.266,0,0,1,.879-2.443,3.367,3.367,0,0,1,2.461-.861,4.936,4.936,0,0,1,1.2.158l-.053,1.67a4.207,4.207,0,0,0-.817-.07,1.371,1.371,0,0,0-1.529,1.573v.844h1.934v1.582H224.2V0Zm5.229-4.843a5.607,5.607,0,0,1,.554-2.518A4.044,4.044,0,0,1,229.4-9.083a4.383,4.383,0,0,1,2.3-.6,4.154,4.154,0,0,1,3.125,1.239,4.874,4.874,0,0,1,1.3,3.287l.009.5a5.658,5.658,0,0,1-.541,2.514,4,4,0,0,1-1.547,1.714,4.415,4.415,0,0,1-2.325.606,4.125,4.125,0,0,1-3.221-1.34,5.133,5.133,0,0,1-1.208-3.573Zm2.136.185a3.832,3.832,0,0,0,.606,2.3,1.971,1.971,0,0,0,1.688.831,1.95,1.95,0,0,0,1.683-.844,4.232,4.232,0,0,0,.6-2.47,3.782,3.782,0,0,0-.62-2.285,1.979,1.979,0,0,0-1.683-.844,1.96,1.96,0,0,0-1.661.831A4.152,4.152,0,0,0,229.43-4.658Zm13.491-2.9a5.285,5.285,0,0,0-.87-.07A1.959,1.959,0,0,0,240.073-6.5V0h-2.136V-9.51h2.039l.053,1.063a2.406,2.406,0,0,1,2.145-1.239,2,2,0,0,1,.756.123Zm9.246,1.178,1.811-3.129h2.373l-2.909,4.685L256.447,0h-2.355l-1.9-3.252L250.3,0h-2.373l3.006-4.825-2.9-4.685h2.355ZM260.077,0h-2.136V-9.51h2.136ZM257.81-11.979a1.133,1.133,0,0,1,.312-.817,1.179,1.179,0,0,1,.892-.325,1.193,1.193,0,0,1,.9.325,1.125,1.125,0,0,1,.316.817,1.1,1.1,0,0,1-.316.8,1.2,1.2,0,0,1-.9.321,1.188,1.188,0,0,1-.892-.321A1.107,1.107,0,0,1,257.81-11.979Zm21.313,5.124h-7.576V-8.631h7.576Zm0,3.727h-7.576V-4.9h7.576Zm15-2.259a6.979,6.979,0,0,1-1.033,4.162,3.647,3.647,0,0,1-3.142,1.4,3.7,3.7,0,0,1-3.125-1.367,6.683,6.683,0,0,1-1.077-4.047V-7.453a6.874,6.874,0,0,1,1.033-4.14,3.681,3.681,0,0,1,3.151-1.38,3.7,3.7,0,0,1,3.133,1.345A6.664,6.664,0,0,1,294.126-7.6ZM291.99-7.778a5.415,5.415,0,0,0-.492-2.641,1.68,1.68,0,0,0-1.564-.839,1.679,1.679,0,0,0-1.538.8,5,5,0,0,0-.519,2.483v2.9a5.555,5.555,0,0,0,.5,2.672,1.683,1.683,0,0,0,1.573.879,1.653,1.653,0,0,0,1.521-.813,5.226,5.226,0,0,0,.519-2.544Zm4.465,10.661L295.3,2.2A6.21,6.21,0,0,0,296,.8,4.157,4.157,0,0,0,296.2-.4V-2.065h1.925l-.009,1.538a4.287,4.287,0,0,1-.47,1.868A4.64,4.64,0,0,1,296.455,2.883ZM305.754,0h-2.127V-10.281l-3.138,1.07V-11l4.992-1.837h.272ZM320.5,0a3.3,3.3,0,0,1-.246-.888,3.325,3.325,0,0,1-2.5,1.063,3.355,3.355,0,0,1-2.338-.817,2.615,2.615,0,0,1-.905-2.021A2.7,2.7,0,0,1,315.646-5a5.473,5.473,0,0,1,3.23-.813h1.31v-.624a1.666,1.666,0,0,0-.413-1.182,1.638,1.638,0,0,0-1.257-.444,1.881,1.881,0,0,0-1.2.365,1.129,1.129,0,0,0-.466.927h-2.136a2.37,2.37,0,0,1,.519-1.463A3.455,3.455,0,0,1,316.648-9.3a4.955,4.955,0,0,1,1.991-.387,3.99,3.99,0,0,1,2.663.839,2.993,2.993,0,0,1,1.02,2.36V-2.2a4.861,4.861,0,0,0,.36,2.048V0Zm-2.347-1.538a2.429,2.429,0,0,0,1.191-.308,2.055,2.055,0,0,0,.839-.826V-4.465h-1.151a3.148,3.148,0,0,0-1.784.413,1.338,1.338,0,0,0-.6,1.169,1.248,1.248,0,0,0,.409.98A1.583,1.583,0,0,0,318.155-1.538ZM326.54-9.51l.062,1.1a3.419,3.419,0,0,1,2.769-1.274q2.971,0,3.023,3.4V0h-2.136V-6.161a1.958,1.958,0,0,0-.391-1.34,1.645,1.645,0,0,0-1.279-.435,2.058,2.058,0,0,0-1.925,1.169V0h-2.136V-9.51Zm7.629,4.685a5.654,5.654,0,0,1,1.02-3.529,3.267,3.267,0,0,1,2.733-1.332,3.1,3.1,0,0,1,2.443,1.055V-13.5H342.5V0h-1.934l-.105-.984A3.148,3.148,0,0,1,337.9.176a3.248,3.248,0,0,1-2.7-1.345A5.861,5.861,0,0,1,334.169-4.825Zm2.136.185a3.958,3.958,0,0,0,.558,2.263,1.811,1.811,0,0,0,1.586.813,2.017,2.017,0,0,0,1.916-1.169V-6.794a1.986,1.986,0,0,0-1.9-1.143,1.824,1.824,0,0,0-1.6.822A4.408,4.408,0,0,0,336.3-4.641Zm21.111-.747a6.979,6.979,0,0,1-1.033,4.162,3.647,3.647,0,0,1-3.142,1.4,3.7,3.7,0,0,1-3.125-1.367,6.683,6.683,0,0,1-1.077-4.047V-7.453a6.874,6.874,0,0,1,1.033-4.14,3.681,3.681,0,0,1,3.151-1.38,3.7,3.7,0,0,1,3.133,1.345A6.664,6.664,0,0,1,357.416-7.6ZM355.28-7.778a5.415,5.415,0,0,0-.492-2.641,1.68,1.68,0,0,0-1.564-.839,1.679,1.679,0,0,0-1.538.8,5,5,0,0,0-.519,2.483v2.9a5.555,5.555,0,0,0,.5,2.672,1.683,1.683,0,0,0,1.573.879,1.653,1.653,0,0,0,1.521-.813,5.226,5.226,0,0,0,.519-2.544Zm14.757,2.232,5.186,1.969v2.136L367.866-4.72v-1.7l7.356-3.27V-7.55ZM395.912-7.84h-1.4v5.15a1.169,1.169,0,0,0,.215.787,1,1,0,0,0,.769.242,3.622,3.622,0,0,0,.747-.088V-.1a4.715,4.715,0,0,1-1.406.2q-2.461,0-2.461-2.716V-7.84h-2.918V0h-2.136V-7.84h-1.5V-9.51h10.09Zm16.822,2.294,5.186,1.969v2.136L410.563-4.72v-1.7l7.356-3.27V-7.55ZM434.865,0h-2.127V-10.281L429.6-9.211V-11l4.992-1.837h.272Z" transform="translate(831.926 18503.908)" fill="#fff"/>
  </g>
</svg>
