<svg xmlns="http://www.w3.org/2000/svg" width="496.5" height="81" viewBox="0 0 496.5 81">
  <g id="Grupo_171238" data-name="Grupo 171238" transform="translate(-798.5 -18887.91)">
    <path id="Trazado_205144" data-name="Trazado 205144" d="M10,0H486.5a10,10,0,0,1,10,10V71a10,10,0,0,1-10,10H10A10,10,0,0,1,0,71V10A10,10,0,0,1,10,0Z" transform="translate(798.5 18887.91)" fill="#a4a3ff"/>
    <path id="Trazado_205145" data-name="Trazado 205145" d="M8.675-5.423H3.524V0H1.3V-12.8h8.13V-11H3.524V-7.2h5.15Zm6.82.22a13.393,13.393,0,0,1,.545-3.854,10.578,10.578,0,0,1,1.6-3.261,6.351,6.351,0,0,1,2.232-2.017l.422,1.248a6.524,6.524,0,0,0-2.008,2.87A12.852,12.852,0,0,0,17.446-5.8l-.009.756a13.972,13.972,0,0,0,.751,4.75,7,7,0,0,0,2.1,3.177l-.422,1.187a6.362,6.362,0,0,1-2.237-2.026,10.577,10.577,0,0,1-1.6-3.261A13.921,13.921,0,0,1,15.5-5.2ZM29.637-6.381,31.447-9.51H33.82L30.911-4.825,33.917,0H31.562l-1.9-3.252L27.773,0H25.4l3.006-4.825-2.9-4.685h2.355ZM58.113-7.84h-1.4v5.15a1.169,1.169,0,0,0,.215.787,1,1,0,0,0,.769.242,3.622,3.622,0,0,0,.747-.088V-.1a4.715,4.715,0,0,1-1.406.2Q54.58.105,54.58-2.61V-7.84H51.662V0H49.526V-7.84h-1.5V-9.51h10.09ZM68.458-5.062A13.224,13.224,0,0,1,67.922-1.3a10.671,10.671,0,0,1-1.626,3.3A6.367,6.367,0,0,1,64.02,4.069L63.6,2.883A6.754,6.754,0,0,0,65.685-.233a13.84,13.84,0,0,0,.769-4.786v-.2a14.044,14.044,0,0,0-.668-4.452,7.852,7.852,0,0,0-1.916-3.221L63.6-13.14l.422-1.2A6.3,6.3,0,0,1,66.2-12.4a10.491,10.491,0,0,1,1.617,3.107,12.941,12.941,0,0,1,.633,3.546ZM82.925-6.855H75.349V-8.631h7.576Zm0,3.727H75.349V-4.9h7.576ZM99.114-7.84h-1.4v5.15a1.169,1.169,0,0,0,.215.787,1,1,0,0,0,.769.242,3.622,3.622,0,0,0,.747-.088V-.1a4.715,4.715,0,0,1-1.406.2q-2.461,0-2.461-2.716V-7.84H92.663V0H90.527V-7.84h-1.5V-9.51h10.09ZM114.337-5.2a13.393,13.393,0,0,1,.545-3.854,10.578,10.578,0,0,1,1.6-3.261,6.351,6.351,0,0,1,2.232-2.017l.422,1.248a6.524,6.524,0,0,0-2.008,2.87,12.852,12.852,0,0,0-.839,4.417l-.009.756a13.972,13.972,0,0,0,.751,4.75,7,7,0,0,0,2.1,3.177l-.422,1.187a6.362,6.362,0,0,1-2.237-2.026,10.577,10.577,0,0,1-1.6-3.261A13.921,13.921,0,0,1,114.337-5.2ZM130.711,0h-2.127V-10.281l-3.138,1.07V-11l4.992-1.837h.272Zm13.21-4.579h-4.614V-6.3h4.614ZM159.557-7.84h-1.4v5.15a1.169,1.169,0,0,0,.215.787,1,1,0,0,0,.769.242,3.622,3.622,0,0,0,.747-.088V-.1a4.715,4.715,0,0,1-1.406.2q-2.461,0-2.461-2.716V-7.84h-2.918V0H150.97V-7.84h-1.5V-9.51h10.09ZM169.9-5.062a13.224,13.224,0,0,1-.536,3.766,10.671,10.671,0,0,1-1.626,3.3,6.367,6.367,0,0,1-2.276,2.061l-.422-1.187a6.754,6.754,0,0,0,2.087-3.116,13.84,13.84,0,0,0,.769-4.786v-.2a14.044,14.044,0,0,0-.668-4.452,7.852,7.852,0,0,0-1.916-3.221l-.272-.246.422-1.2a6.3,6.3,0,0,1,2.18,1.934,10.491,10.491,0,0,1,1.617,3.107,12.941,12.941,0,0,1,.633,3.546ZM195.293,0V-7.928h-1.45V-9.51h1.45v-.87a3.266,3.266,0,0,1,.879-2.443,3.367,3.367,0,0,1,2.461-.861,4.936,4.936,0,0,1,1.2.158l-.053,1.67a4.207,4.207,0,0,0-.817-.07,1.371,1.371,0,0,0-1.529,1.573v.844h1.934v1.582h-1.934V0Zm5.229-4.843a5.607,5.607,0,0,1,.554-2.518,4.044,4.044,0,0,1,1.556-1.723,4.383,4.383,0,0,1,2.3-.6,4.154,4.154,0,0,1,3.125,1.239,4.874,4.874,0,0,1,1.3,3.287l.009.5a5.658,5.658,0,0,1-.541,2.514,4,4,0,0,1-1.547,1.714,4.415,4.415,0,0,1-2.325.606,4.125,4.125,0,0,1-3.221-1.34,5.133,5.133,0,0,1-1.208-3.573Zm2.136.185a3.832,3.832,0,0,0,.606,2.3,1.971,1.971,0,0,0,1.688.831,1.95,1.95,0,0,0,1.683-.844,4.232,4.232,0,0,0,.6-2.47,3.782,3.782,0,0,0-.62-2.285,1.979,1.979,0,0,0-1.683-.844,1.96,1.96,0,0,0-1.661.831A4.152,4.152,0,0,0,202.658-4.658Zm13.491-2.9a5.285,5.285,0,0,0-.87-.07A1.959,1.959,0,0,0,213.3-6.5V0h-2.136V-9.51h2.039l.053,1.063A2.406,2.406,0,0,1,215.4-9.686a2,2,0,0,1,.756.123Zm36,.7h-7.576V-8.631h7.576Zm0,3.727h-7.576V-4.9h7.576Zm15-2.259a6.979,6.979,0,0,1-1.033,4.162,3.647,3.647,0,0,1-3.142,1.4,3.7,3.7,0,0,1-3.125-1.367,6.683,6.683,0,0,1-1.077-4.047V-7.453a6.874,6.874,0,0,1,1.033-4.14,3.681,3.681,0,0,1,3.151-1.38,3.7,3.7,0,0,1,3.133,1.345A6.664,6.664,0,0,1,267.152-7.6Zm-2.136-2.391a5.415,5.415,0,0,0-.492-2.641,1.68,1.68,0,0,0-1.564-.839,1.679,1.679,0,0,0-1.538.8A5,5,0,0,0,260.9-7.98v2.9a5.555,5.555,0,0,0,.5,2.672,1.683,1.683,0,0,0,1.573.879,1.653,1.653,0,0,0,1.521-.813,5.226,5.226,0,0,0,.519-2.544Zm4.465,10.661L268.33,2.2a6.21,6.21,0,0,0,.7-1.393,4.157,4.157,0,0,0,.2-1.208V-2.065h1.925l-.009,1.538a4.287,4.287,0,0,1-.47,1.868A4.64,4.64,0,0,1,269.481,2.883ZM278.78,0h-2.127V-10.281l-3.138,1.07V-11l4.992-1.837h.272Zm14.748,0a3.3,3.3,0,0,1-.246-.888,3.325,3.325,0,0,1-2.5,1.063,3.355,3.355,0,0,1-2.338-.817,2.615,2.615,0,0,1-.905-2.021A2.7,2.7,0,0,1,288.672-5a5.473,5.473,0,0,1,3.23-.813h1.31v-.624a1.666,1.666,0,0,0-.413-1.182,1.638,1.638,0,0,0-1.257-.444,1.881,1.881,0,0,0-1.2.365,1.129,1.129,0,0,0-.466.927h-2.136a2.37,2.37,0,0,1,.519-1.463A3.455,3.455,0,0,1,289.674-9.3a4.955,4.955,0,0,1,1.991-.387,3.99,3.99,0,0,1,2.663.839,2.993,2.993,0,0,1,1.02,2.36V-2.2a4.861,4.861,0,0,0,.36,2.048V0Zm-2.347-1.538a2.429,2.429,0,0,0,1.191-.308,2.055,2.055,0,0,0,.839-.826V-4.465h-1.151a3.148,3.148,0,0,0-1.784.413,1.338,1.338,0,0,0-.6,1.169,1.248,1.248,0,0,0,.409.98A1.583,1.583,0,0,0,291.182-1.538Zm8.385-7.972.062,1.1A3.419,3.419,0,0,1,302.4-9.686q2.971,0,3.023,3.4V0h-2.136V-6.161a1.958,1.958,0,0,0-.391-1.34,1.645,1.645,0,0,0-1.279-.435,2.058,2.058,0,0,0-1.925,1.169V0h-2.136V-9.51ZM307.2-4.825a5.654,5.654,0,0,1,1.02-3.529,3.267,3.267,0,0,1,2.733-1.332,3.1,3.1,0,0,1,2.443,1.055V-13.5h2.136V0h-1.934l-.105-.984a3.148,3.148,0,0,1-2.558,1.16,3.248,3.248,0,0,1-2.7-1.345A5.861,5.861,0,0,1,307.2-4.825Zm2.136.185a3.958,3.958,0,0,0,.558,2.263,1.811,1.811,0,0,0,1.586.813,2.017,2.017,0,0,0,1.916-1.169V-6.794a1.986,1.986,0,0,0-1.9-1.143,1.824,1.824,0,0,0-1.6.822A4.408,4.408,0,0,0,309.331-4.641Zm21.111-.747a6.979,6.979,0,0,1-1.033,4.162,3.647,3.647,0,0,1-3.142,1.4,3.7,3.7,0,0,1-3.125-1.367,6.683,6.683,0,0,1-1.077-4.047V-7.453a6.874,6.874,0,0,1,1.033-4.14,3.681,3.681,0,0,1,3.151-1.38,3.7,3.7,0,0,1,3.133,1.345A6.664,6.664,0,0,1,330.442-7.6Zm-2.136-2.391a5.415,5.415,0,0,0-.492-2.641,1.68,1.68,0,0,0-1.564-.839,1.679,1.679,0,0,0-1.538.8,5,5,0,0,0-.519,2.483v2.9a5.555,5.555,0,0,0,.5,2.672,1.683,1.683,0,0,0,1.573.879,1.653,1.653,0,0,0,1.521-.813,5.226,5.226,0,0,0,.519-2.544Zm14.757,1.565,5.186,1.772v1.922L340.893-5.47V-7l7.356-2.943v1.922Zm5.265,6.037h-7.462V-1.9h7.462Zm20.61-7.664h-1.4v5.15a1.169,1.169,0,0,0,.215.787,1,1,0,0,0,.769.242,3.622,3.622,0,0,0,.747-.088V-.1a4.715,4.715,0,0,1-1.406.2q-2.461,0-2.461-2.716V-7.84h-2.918V0h-2.136V-7.84h-1.5V-9.51h10.09Zm16.822,1.627,5.186,1.772v1.922L383.59-5.47V-7l7.356-2.943v1.922Zm5.265,6.037h-7.462V-1.9h7.462ZM407.892,0h-2.127V-10.281l-3.138,1.07V-11l4.992-1.837h.272Z" transform="translate(831.926 18934.91)" fill="#fff"/>
    <path id="Trazado_205151" data-name="Trazado 205151" d="M.776,0H-.781V-5.812H.776ZM-.873-7.315A.764.764,0,0,1-.639-7.89.878.878,0,0,1,0-8.116a.88.88,0,0,1,.634.226.76.76,0,0,1,.236.575.762.762,0,0,1-.239.58A.882.882,0,0,1,0-6.51a.882.882,0,0,1-.631-.226A.762.762,0,0,1-.873-7.315Z" transform="translate(941 18927)" fill="#fff"/>
    <path id="Trazado_205152" data-name="Trazado 205152" d="M0-6.521,1.87-9.953H4.228L1.33-5.018,4.3,0H1.917L0-3.486-1.911,0H-4.3l2.974-5.018-2.9-4.936h2.358Z" transform="translate(935 18925)" fill="#fff"/>
    <path id="Trazado_205128" data-name="Trazado 205128" d="M-7754.615,4328.688v26.3" transform="translate(8628 14586)" fill="none" stroke="#fff" stroke-width="1"/>
    <path id="Trazado_205148" data-name="Trazado 205148" d="M.776,0H-.781V-5.812H.776ZM-.873-7.315A.764.764,0,0,1-.639-7.89.878.878,0,0,1,0-8.116a.88.88,0,0,1,.634.226.76.76,0,0,1,.236.575.762.762,0,0,1-.239.58A.882.882,0,0,1,0-6.51a.882.882,0,0,1-.631-.226A.762.762,0,0,1-.873-7.315Z" transform="translate(1021 18921)" fill="#fff"/>
    <path id="Trazado_205149" data-name="Trazado 205149" d="M0-6.521,1.87-9.953H4.228L1.33-5.018,4.3,0H1.917L0-3.486-1.911,0H-4.3l2.974-5.018-2.9-4.936h2.358Z" transform="translate(1015 18919)" fill="#fff"/>
    <path id="Trazado_205150" data-name="Trazado 205150" d="M-1.254,0H-3.23V-7.615l-2.358.731V-8.49l4.122-1.477h.212ZM5.9-3.466H2.054V-5.059H5.9Z" transform="translate(1004 18919)" fill="#fff"/>
    <path id="Trazado_205147" data-name="Trazado 205147" d="M.776,0H-.781V-5.812H.776ZM-.873-7.315A.764.764,0,0,1-.639-7.89.878.878,0,0,1,0-8.116a.88.88,0,0,1,.634.226.76.76,0,0,1,.236.575.762.762,0,0,1-.239.58A.882.882,0,0,1,0-6.51a.882.882,0,0,1-.631-.226A.762.762,0,0,1-.873-7.315Z" transform="translate(1068 18935)" fill="#fff"/>
    <path id="Trazado_205146" data-name="Trazado 205146" d="M0-7.919,2.27-12.086H5.134L1.615-6.093,5.225,0h-2.9L0-4.233-2.32,0h-2.9l3.611-6.093-3.52-5.993h2.864Z" transform="translate(1061 18934)" fill="#fff"/>
  </g>
</svg>
