<svg xmlns="http://www.w3.org/2000/svg" width="372" height="94" viewBox="0 0 372 94">
  <g id="Grupo_166798" data-name="Grupo 166798" transform="translate(-891.5 -1886.855)">
    <path id="Trazado_197291" data-name="Trazado 197291" d="M10,0H362a10,10,0,0,1,10,10V84a10,10,0,0,1-10,10H10A10,10,0,0,1,0,84V10A10,10,0,0,1,10,0Z" transform="translate(891.5 1886.855)" fill="#a4a3ff"/>
    <path id="Trazado_197295" data-name="Trazado 197295" d="M1.963,0H.227L1.6-7.925H3.34Zm-.11-9.954a.979.979,0,0,1,.264-.688.966.966,0,0,1,.71-.3.924.924,0,0,1,.707.26.9.9,0,0,1,.282.67.926.926,0,0,1-.275.688,1.007,1.007,0,0,1-.7.286.939.939,0,0,1-.7-.253A.871.871,0,0,1,1.853-9.954ZM14.875-5.713H8.738L9-7.192h6.13Zm-.542,3.105H8.2L8.459-4.08H14.6ZM24.1,0H22.368l1.479-8.525-2.7.894.271-1.575L25.642-10.7h.264Z" transform="translate(992 1959.297)" fill="#fff"/>
    <path id="Trazado_197292" data-name="Trazado 197292" d="M4.189-11.634,3.91-10.162a4.582,4.582,0,0,1,3.566-1.676A2.883,2.883,0,0,1,9.9-10.7a4.424,4.424,0,0,1,.58,3.083L9.217,0H7.272L8.551-7.64a4.073,4.073,0,0,0,.011-.977,1.606,1.606,0,0,0-1.772-1.534A3.66,3.66,0,0,0,3.717-8.284L2.277,0H.333l2.02-11.623Z" transform="translate(1132.622 1966.855)" fill="#fff"/>
    <path id="Trazado_184148" data-name="Trazado 184148" d="M-8279.633-10154h31.62" transform="translate(9251.377 12101.855)" fill="none" stroke="#fff" stroke-width="1"/>
    <path id="Trazado_197297" data-name="Trazado 197297" d="M4.189-11.634,3.91-10.162a4.582,4.582,0,0,1,3.566-1.676A2.883,2.883,0,0,1,9.9-10.7a4.424,4.424,0,0,1,.58,3.083L9.217,0H7.272L8.551-7.64a4.073,4.073,0,0,0,.011-.977,1.606,1.606,0,0,0-1.772-1.534A3.66,3.66,0,0,0,3.717-8.284L2.277,0H.333l2.02-11.623Z" transform="translate(980.743 1966.855)" fill="#fff"/>
    <path id="Trazado_197294" data-name="Trazado 197294" d="M1.33,0H.275l1.1-6.34H2.432ZM2.2-8.654a.58.58,0,0,1,.448.161.6.6,0,0,1,.179.454.637.637,0,0,1-.179.451A.642.642,0,0,1,2.2-7.4a.584.584,0,0,1-.451-.158A.573.573,0,0,1,1.582-8a.665.665,0,0,1,.176-.457A.62.62,0,0,1,2.2-8.654ZM11.648-4.77H6.9l.164-.943h4.752Zm-.422,2.432H6.48l.164-.937H11.4ZM18.75,0H17.684l1.254-7.2-2.268.8.182-1.031,3.164-1.143H20.2Z" transform="translate(1008.742 1947.855)" fill="#fff"/>
    <path id="Trazado_184149" data-name="Trazado 184149" d="M-8287.123-9349.513h13.8" transform="translate(9234.5 11266.855)" fill="none" stroke="#fff" stroke-width="1"/>
    <path id="Trazado_197296" data-name="Trazado 197296" d="M2.285-6.346l-.152.8a2.5,2.5,0,0,1,1.945-.914A1.573,1.573,0,0,1,5.4-5.836a2.413,2.413,0,0,1,.316,1.682L5.027,0H3.967l.7-4.167A2.222,2.222,0,0,0,4.67-4.7.876.876,0,0,0,3.7-5.537,2,2,0,0,0,2.027-4.519L1.242,0H.182l1.1-6.34Z" transform="translate(1019.622 1907.855)" fill="#fff"/>
    <path id="Trazado_197293" data-name="Trazado 197293" d="M5.489-7.82l2.739-3.8H11.2L6.757-5.779,9.346,0H6.682L5.06-3.964,2.2,0H-.763L3.824-6.016l-2.5-5.607H3.985ZM27.1-8.379h-9l.387-2.17h8.991Zm-.795,4.555H17.316l.376-2.159h9ZM40.627,0H38.092l2.17-12.5-3.953,1.311.4-2.31,6.188-2.191h.387ZM52.776-6.316a18.981,18.981,0,0,1,2.369-6.977,9.907,9.907,0,0,1,4.463-4.238L60-15.984q-3.674,2.836-4.77,8.895a24.862,24.862,0,0,0-.408,4.265A11.8,11.8,0,0,0,55.333.983a5.743,5.743,0,0,0,1.59,2.562l-.6,1.429A7.2,7.2,0,0,1,53.5,1.429a13.761,13.761,0,0,1-.9-5.607,16.671,16.671,0,0,1,.15-1.955Zm23.247-4.245-6.812,7.6h9.814L78.514,0H63.851l.41-2.373,7.969-8.481L67.19-19.263l.366-2.065h14.15L81.18-18.34H71.658l4.38,7.485ZM92.035-7.82l2.739-3.8H97.75L93.3-5.779,95.892,0H93.228L91.605-3.964,88.748,0H85.783L90.37-6.016l-2.5-5.607h2.664ZM99.064,7H97.579L98.757.22h1.485ZM98.97-1.515A.838.838,0,0,1,99.2-2.1a.826.826,0,0,1,.608-.257.79.79,0,0,1,.6.222.77.77,0,0,1,.241.573.792.792,0,0,1-.235.589.861.861,0,0,1-.6.244.8.8,0,0,1-.6-.216A.745.745,0,0,1,98.97-1.515ZM103.026,5l-.4-1.482a11.8,11.8,0,0,0,3.566-4.775,21.747,21.747,0,0,0,1.568-7.117l.043-1.332q0-4.522-2.105-6.37l.612-1.439a6.6,6.6,0,0,1,2.111,2.111,10,10,0,0,1,1.3,3.228,15.6,15.6,0,0,1,.381,3.813,19.8,19.8,0,0,1-1.058,5.806,15.543,15.543,0,0,1-2.519,4.748A9.487,9.487,0,0,1,103.026,5ZM127.679-8.379h-9l.387-2.17h8.991Zm-.795,4.555h-8.991l.376-2.159h9Zm12.923-4,2.739-3.8h2.976l-4.447,5.844L143.664,0H141l-1.622-3.964L136.52,0h-2.965l4.587-6.016-2.5-5.607H138.3ZM149.173,7h-1.479L148.96-.294l-2.306.764.232-1.347L150.5-2.155h.226ZM159.824-8.6h3.964l-.419,2.385h-3.953l-.806,4.651h-2.481l.816-4.651h-4l.43-2.385h3.975l.752-4.351h2.481Zm9.958.784,2.739-3.8H175.5l-4.447,5.844L173.638,0h-2.664l-1.622-3.964L166.495,0H163.53l4.587-6.016-2.5-5.607h2.664ZM181.159,7H175.2l.175-1.109,3.791-3.64A3.461,3.461,0,0,0,180.332.377a1.344,1.344,0,0,0-.2-.993,1.029,1.029,0,0,0-.846-.423,1.536,1.536,0,0,0-1.172.435,2.039,2.039,0,0,0-.576,1.256l-1.479.006a3.083,3.083,0,0,1,.511-1.51,3.05,3.05,0,0,1,1.191-1.043,3.364,3.364,0,0,1,1.607-.354,2.693,2.693,0,0,1,1.883.689,2.121,2.121,0,0,1,.611,1.78,4.544,4.544,0,0,1-1.535,2.7l-.388.382L177.3,5.784h4.054ZM195.223-8.6h3.964l-.419,2.385h-3.953l-.806,4.651h-2.481l.816-4.651h-4l.43-2.385h3.975l.752-4.351h2.481Zm10.441,7.348a1.446,1.446,0,0,1,.414-1.069,1.508,1.508,0,0,1,1.058-.435,1.4,1.4,0,0,1,1.058.381,1.366,1.366,0,0,1,.424,1.037,1.416,1.416,0,0,1-.408,1.037,1.5,1.5,0,0,1-1.063.435,1.413,1.413,0,0,1-1.058-.376A1.323,1.323,0,0,1,205.665-1.257Zm4.77,0a1.446,1.446,0,0,1,.414-1.069,1.508,1.508,0,0,1,1.058-.435,1.4,1.4,0,0,1,1.058.381,1.366,1.366,0,0,1,.424,1.037,1.416,1.416,0,0,1-.408,1.037,1.5,1.5,0,0,1-1.063.435,1.413,1.413,0,0,1-1.058-.376A1.323,1.323,0,0,1,210.434-1.257Zm4.6,0a1.446,1.446,0,0,1,.414-1.069,1.508,1.508,0,0,1,1.058-.435,1.4,1.4,0,0,1,1.058.381,1.366,1.366,0,0,1,.424,1.037,1.416,1.416,0,0,1-.408,1.037,1.5,1.5,0,0,1-1.063.435,1.413,1.413,0,0,1-1.058-.376A1.323,1.323,0,0,1,215.032-1.257ZM233.251-8.6h3.964L236.8-6.22h-3.953l-.806,4.651h-2.481l.816-4.651h-4l.43-2.385h3.975l.752-4.351h2.481Zm15.383.784,2.739-3.8h2.976L249.9-5.779,252.49,0h-2.664L248.2-3.964,245.346,0h-2.965l4.587-6.016-2.5-5.607h2.664Zm8,8.034-.15.8a2.587,2.587,0,0,1,2.011-.915,1.639,1.639,0,0,1,1.41.68,2.714,2.714,0,0,1,.338,1.845L259.51,7h-1.485l.739-4.4a2.251,2.251,0,0,0,.006-.5.8.8,0,0,0-.89-.764,1.8,1.8,0,0,0-1.485.833L255.55,7h-1.485L255.236.22Z" transform="translate(948.377 1933.855)" fill="#fff"/>
    <path id="Trazado_184151" data-name="Trazado 184151" d="M-8279.633-10154h135.755" transform="translate(9350.377 12101.855)" fill="none" stroke="#fff" stroke-width="1"/>
  </g>
</svg>
