<svg xmlns="http://www.w3.org/2000/svg" width="715" height="81" viewBox="0 0 715 81">
  <g id="Grupo_171243" data-name="Grupo 171243" transform="translate(-672.5 -20199.289)">
    <path id="Trazado_205175" data-name="Trazado 205175" d="M10,0H705a10,10,0,0,1,10,10V71a10,10,0,0,1-10,10H10A10,10,0,0,1,0,71V10A10,10,0,0,1,10,0Z" transform="translate(672.5 20199.289)" fill="#a4a3ff"/>
    <path id="Trazado_205176" data-name="Trazado 205176" d="M3.647,19H1.433V6.2H3.647Zm3.278,0V11.072H5.476V9.49h1.45V8.62A3.266,3.266,0,0,1,7.8,6.177a3.367,3.367,0,0,1,2.461-.861,4.936,4.936,0,0,1,1.2.158l-.053,1.67a4.207,4.207,0,0,0-.817-.07A1.371,1.371,0,0,0,9.062,8.646V9.49H11v1.582H9.062V19Zm50.66,0V6.2h4.386a5.354,5.354,0,0,1,3.3.87A3.065,3.065,0,0,1,66.41,9.666a2.763,2.763,0,0,1-.475,1.582,3.055,3.055,0,0,1-1.389,1.09,2.825,2.825,0,0,1,1.6,1.059,3.085,3.085,0,0,1,.567,1.868,3.407,3.407,0,0,1-1.156,2.769A5.025,5.025,0,0,1,62.253,19Zm2.224-5.774v4h2.47a2.39,2.39,0,0,0,1.635-.519,1.82,1.82,0,0,0,.589-1.441,1.826,1.826,0,0,0-2.039-2.039Zm0-1.635h2.18a2.521,2.521,0,0,0,1.622-.47A1.611,1.611,0,0,0,64.2,9.789a1.633,1.633,0,0,0-.541-1.371A2.73,2.73,0,0,0,61.972,8H59.81ZM71.007,19H68.871V9.49h2.136ZM68.739,7.021a1.133,1.133,0,0,1,.312-.817,1.179,1.179,0,0,1,.892-.325,1.193,1.193,0,0,1,.9.325,1.125,1.125,0,0,1,.316.817,1.1,1.1,0,0,1-.316.8,1.2,1.2,0,0,1-.9.321,1.188,1.188,0,0,1-.892-.321A1.107,1.107,0,0,1,68.739,7.021Zm6.574,2.47.062,1.1a3.419,3.419,0,0,1,2.769-1.274q2.971,0,3.023,3.4V19H79.031V12.839a1.958,1.958,0,0,0-.391-1.34,1.645,1.645,0,0,0-1.279-.435,2.058,2.058,0,0,0-1.925,1.169V19H73.3V9.49ZM87.855,13.8A13.393,13.393,0,0,1,88.4,9.943,10.578,10.578,0,0,1,90,6.682a6.351,6.351,0,0,1,2.232-2.017l.422,1.248a6.524,6.524,0,0,0-2.008,2.87,12.852,12.852,0,0,0-.839,4.417l-.009.756a13.972,13.972,0,0,0,.751,4.75,7,7,0,0,0,2.1,3.177l-.422,1.187A6.362,6.362,0,0,1,90,21.043a10.577,10.577,0,0,1-1.6-3.261A13.921,13.921,0,0,1,87.855,13.8ZM100.564,9.49l.062,1.1a3.419,3.419,0,0,1,2.769-1.274q2.971,0,3.023,3.4V19h-2.136V12.839a1.958,1.958,0,0,0-.391-1.34,1.645,1.645,0,0,0-1.279-.435,2.058,2.058,0,0,0-1.925,1.169V19H98.552V9.49ZM111.431,25h-1.241V19l-1.83.624V18.581l2.912-1.071h.159Zm7.915-3.117-1.151-.686a6.21,6.21,0,0,0,.7-1.393,4.157,4.157,0,0,0,.2-1.208V16.935h1.925l-.009,1.538a4.287,4.287,0,0,1-.47,1.868A4.64,4.64,0,0,1,119.346,21.883ZM136.872,11.16h-1.4v5.15a1.169,1.169,0,0,0,.215.787,1,1,0,0,0,.769.242,3.622,3.622,0,0,0,.747-.088V18.9a4.715,4.715,0,0,1-1.406.2q-2.461,0-2.461-2.716V11.16h-2.918V19h-2.136V11.16h-1.5V9.49h10.09Zm10.345,2.777a13.224,13.224,0,0,1-.536,3.766,10.671,10.671,0,0,1-1.626,3.3,6.367,6.367,0,0,1-2.276,2.061l-.422-1.187a6.754,6.754,0,0,0,2.087-3.116,13.84,13.84,0,0,0,.769-4.786v-.2a14.044,14.044,0,0,0-.668-4.452,7.852,7.852,0,0,0-1.916-3.221l-.272-.246.422-1.2a6.3,6.3,0,0,1,2.18,1.934,10.491,10.491,0,0,1,1.617,3.107,12.941,12.941,0,0,1,.633,3.546ZM159.609,19a3.3,3.3,0,0,1-.246-.888,3.593,3.593,0,0,1-4.834.246,2.615,2.615,0,0,1-.905-2.021A2.7,2.7,0,0,1,154.753,14a5.473,5.473,0,0,1,3.23-.813h1.31v-.624a1.666,1.666,0,0,0-.413-1.182,1.638,1.638,0,0,0-1.257-.444,1.881,1.881,0,0,0-1.2.365,1.129,1.129,0,0,0-.466.927h-2.136a2.37,2.37,0,0,1,.519-1.463A3.455,3.455,0,0,1,155.755,9.7a4.955,4.955,0,0,1,1.991-.387,3.99,3.99,0,0,1,2.663.839,2.993,2.993,0,0,1,1.02,2.36V16.8a4.861,4.861,0,0,0,.36,2.048V19Zm-2.347-1.538a2.429,2.429,0,0,0,1.191-.308,2.055,2.055,0,0,0,.839-.826V14.535h-1.151a3.148,3.148,0,0,0-1.784.413,1.338,1.338,0,0,0-.6,1.169,1.248,1.248,0,0,0,.409.98A1.583,1.583,0,0,0,157.262,17.462Zm8.385-7.972.062,1.1a3.419,3.419,0,0,1,2.769-1.274q2.971,0,3.023,3.4V19h-2.136V12.839a1.958,1.958,0,0,0-.391-1.34,1.645,1.645,0,0,0-1.279-.435,2.058,2.058,0,0,0-1.925,1.169V19h-2.136V9.49Zm7.629,4.685a5.654,5.654,0,0,1,1.02-3.529,3.267,3.267,0,0,1,2.733-1.332,3.1,3.1,0,0,1,2.443,1.055V5.5h2.136V19h-1.934l-.105-.984a3.148,3.148,0,0,1-2.558,1.16,3.248,3.248,0,0,1-2.7-1.345A5.861,5.861,0,0,1,173.276,14.175Zm2.136.185a3.958,3.958,0,0,0,.558,2.263,1.811,1.811,0,0,0,1.586.813,2.017,2.017,0,0,0,1.916-1.169V12.206a1.986,1.986,0,0,0-1.9-1.143,1.824,1.824,0,0,0-1.6.822A4.408,4.408,0,0,0,175.412,14.359Zm17.517-3.533L195.618,6.2h2.566l-3.867,6.346L198.272,19h-2.593l-2.751-4.693L190.169,19h-2.584l3.964-6.451L187.673,6.2h2.566ZM204.193,25h-5.019v-.856l2.486-2.712a6.191,6.191,0,0,0,.766-1,1.624,1.624,0,0,0,.228-.807,1.227,1.227,0,0,0-.3-.861,1.04,1.04,0,0,0-.807-.328,1.2,1.2,0,0,0-.938.369,1.452,1.452,0,0,0-.333,1.01H199.03a2.442,2.442,0,0,1,.31-1.228,2.136,2.136,0,0,1,.887-.848,2.823,2.823,0,0,1,1.33-.3,2.525,2.525,0,0,1,1.715.546,1.9,1.9,0,0,1,.628,1.51,2.562,2.562,0,0,1-.315,1.171,6.661,6.661,0,0,1-1.033,1.392l-1.825,1.953h3.466Zm2.815-8.25a1.22,1.22,0,0,1,.923.338,1.175,1.175,0,0,1,.325.848,1.134,1.134,0,0,1-.325.831,1.44,1.44,0,0,1-1.828,0,1.115,1.115,0,0,1-.334-.835,1.175,1.175,0,0,1,.325-.848A1.208,1.208,0,0,1,207.008,16.75Zm22.5-4.658a3.76,3.76,0,0,1-.835,2.527,2.626,2.626,0,0,1-2.083.98,2.9,2.9,0,0,1-1.2-.246,5.02,5.02,0,0,1-1.226-.848,5.5,5.5,0,0,0-.971-.747,1.4,1.4,0,0,0-.628-.145,1.091,1.091,0,0,0-.927.457,1.959,1.959,0,0,0-.338,1.2h-1.7a3.728,3.728,0,0,1,.8-2.465,2.6,2.6,0,0,1,2.1-.962,3.023,3.023,0,0,1,1.235.258,4.686,4.686,0,0,1,1.222.836,5.212,5.212,0,0,0,.932.726,1.393,1.393,0,0,0,.637.149,1.147,1.147,0,0,0,.958-.49,1.976,1.976,0,0,0,.369-1.224ZM240.8,19V6.2h4.386a5.354,5.354,0,0,1,3.3.87,3.065,3.065,0,0,1,1.134,2.593,2.763,2.763,0,0,1-.475,1.582,3.055,3.055,0,0,1-1.389,1.09,2.825,2.825,0,0,1,1.6,1.059,3.085,3.085,0,0,1,.567,1.868,3.407,3.407,0,0,1-1.156,2.769,5.025,5.025,0,0,1-3.309.967Zm2.224-5.774v4h2.47a2.39,2.39,0,0,0,1.635-.519,1.82,1.82,0,0,0,.589-1.441,1.826,1.826,0,0,0-2.039-2.039Zm0-1.635h2.18a2.521,2.521,0,0,0,1.622-.47,1.611,1.611,0,0,0,.584-1.332,1.633,1.633,0,0,0-.541-1.371A2.73,2.73,0,0,0,245.188,8h-2.162ZM254.223,19h-2.136V9.49h2.136ZM251.955,7.021a1.133,1.133,0,0,1,.312-.817,1.179,1.179,0,0,1,.892-.325,1.193,1.193,0,0,1,.9.325,1.125,1.125,0,0,1,.316.817,1.1,1.1,0,0,1-.316.8,1.2,1.2,0,0,1-.9.321,1.188,1.188,0,0,1-.892-.321A1.107,1.107,0,0,1,251.955,7.021Zm6.574,2.47.062,1.1a3.419,3.419,0,0,1,2.769-1.274q2.971,0,3.023,3.4V19h-2.136V12.839a1.958,1.958,0,0,0-.391-1.34,1.645,1.645,0,0,0-1.279-.435,2.058,2.058,0,0,0-1.925,1.169V19h-2.136V9.49ZM271.072,13.8a13.393,13.393,0,0,1,.545-3.854,10.578,10.578,0,0,1,1.6-3.261,6.351,6.351,0,0,1,2.232-2.017l.422,1.248a6.524,6.524,0,0,0-2.008,2.87,12.852,12.852,0,0,0-.839,4.417l-.009.756a13.972,13.972,0,0,0,.751,4.75,7,7,0,0,0,2.1,3.177l-.422,1.187a6.362,6.362,0,0,1-2.237-2.026,10.577,10.577,0,0,1-1.6-3.261A13.921,13.921,0,0,1,271.072,13.8ZM283.781,9.49l.062,1.1a3.419,3.419,0,0,1,2.769-1.274q2.971,0,3.023,3.4V19H287.5V12.839a1.958,1.958,0,0,0-.391-1.34,1.645,1.645,0,0,0-1.279-.435,2.058,2.058,0,0,0-1.925,1.169V19h-2.136V9.49ZM296.293,25h-5.019v-.856l2.486-2.712a6.193,6.193,0,0,0,.766-1,1.624,1.624,0,0,0,.228-.807,1.227,1.227,0,0,0-.3-.861,1.04,1.04,0,0,0-.807-.328,1.2,1.2,0,0,0-.938.369,1.452,1.452,0,0,0-.333,1.01H291.13a2.441,2.441,0,0,1,.31-1.228,2.136,2.136,0,0,1,.887-.848,2.823,2.823,0,0,1,1.33-.3,2.525,2.525,0,0,1,1.715.546,1.9,1.9,0,0,1,.628,1.51,2.562,2.562,0,0,1-.315,1.171,6.662,6.662,0,0,1-1.033,1.392l-1.825,1.953h3.466Zm1.787-3.117-1.151-.686a6.21,6.21,0,0,0,.7-1.393,4.157,4.157,0,0,0,.2-1.208V16.935h1.925l-.009,1.538a4.287,4.287,0,0,1-.47,1.868A4.64,4.64,0,0,1,298.08,21.883ZM315.605,11.16h-1.4v5.15a1.169,1.169,0,0,0,.215.787,1,1,0,0,0,.769.242,3.622,3.622,0,0,0,.747-.088V18.9a4.715,4.715,0,0,1-1.406.2q-2.461,0-2.461-2.716V11.16h-2.918V19h-2.136V11.16h-1.5V9.49h10.09Zm10.345,2.777a13.224,13.224,0,0,1-.536,3.766,10.671,10.671,0,0,1-1.626,3.3,6.367,6.367,0,0,1-2.276,2.061l-.422-1.187a6.754,6.754,0,0,0,2.087-3.116,13.84,13.84,0,0,0,.769-4.786v-.2a14.044,14.044,0,0,0-.668-4.452,7.852,7.852,0,0,0-1.916-3.221l-.272-.246.422-1.2a6.3,6.3,0,0,1,2.18,1.934,10.491,10.491,0,0,1,1.617,3.107,12.941,12.941,0,0,1,.633,3.546Zm2.531,7.945L327.33,21.2a6.21,6.21,0,0,0,.7-1.393,4.157,4.157,0,0,0,.2-1.208V16.935h1.925l-.009,1.538a4.287,4.287,0,0,1-.47,1.868A4.64,4.64,0,0,1,328.481,21.883Zm15.293-14.7V9.49h1.679v1.582h-1.679v5.309a1.169,1.169,0,0,0,.215.787,1,1,0,0,0,.769.242,3.29,3.29,0,0,0,.747-.088v1.652a5.26,5.26,0,0,1-1.406.2q-2.461,0-2.461-2.716V11.072h-1.564V9.49h1.564V7.179Zm5.414,3.349a3.343,3.343,0,0,1,2.646-1.213q3.041,0,3.085,3.472V19h-2.136V12.865a1.878,1.878,0,0,0-.426-1.393,1.743,1.743,0,0,0-1.252-.409,2.057,2.057,0,0,0-1.916,1.143V19h-2.136V5.5h2.136Zm12.076,8.648a4.419,4.419,0,0,1-3.292-1.279,4.639,4.639,0,0,1-1.261-3.406v-.264a5.706,5.706,0,0,1,.549-2.544A4.181,4.181,0,0,1,358.8,9.938a4.078,4.078,0,0,1,2.215-.624,3.733,3.733,0,0,1,3,1.239,5.24,5.24,0,0,1,1.059,3.507v.861h-6.214a2.856,2.856,0,0,0,.787,1.863,2.362,2.362,0,0,0,1.736.686,2.892,2.892,0,0,0,2.391-1.187l1.151,1.1a3.845,3.845,0,0,1-1.525,1.323A4.774,4.774,0,0,1,361.265,19.176Zm-.255-8.147a1.8,1.8,0,0,0-1.419.615,3.189,3.189,0,0,0-.69,1.714h4.069V13.2a2.6,2.6,0,0,0-.571-1.622A1.785,1.785,0,0,0,361.01,11.028Zm7.708-1.538.062,1.1a3.419,3.419,0,0,1,2.769-1.274q2.971,0,3.023,3.4V19h-2.136V12.839a1.958,1.958,0,0,0-.391-1.34,1.645,1.645,0,0,0-1.279-.435,2.058,2.058,0,0,0-1.925,1.169V19h-2.136V9.49Zm17.121,1.336L388.528,6.2h2.566l-3.867,6.346L391.183,19H388.59l-2.751-4.693L383.079,19H380.5l3.964-6.451L380.583,6.2h2.566ZM395.458,25h-1.241V19l-1.83.624V18.581L395.3,17.51h.159ZM408,11.96h3.34v1.951H408v3.806H405.93V13.911h-3.357V11.96h3.357V8.4H408Zm14.186-1.134L424.88,6.2h2.566l-3.867,6.346L427.534,19h-2.593l-2.751-4.693L419.43,19h-2.584l3.964-6.451L416.934,6.2H419.5ZM433.454,25h-5.019v-.856l2.486-2.712a6.193,6.193,0,0,0,.766-1,1.624,1.624,0,0,0,.228-.807,1.227,1.227,0,0,0-.3-.861,1.04,1.04,0,0,0-.807-.328,1.2,1.2,0,0,0-.938.369,1.452,1.452,0,0,0-.333,1.01h-1.246a2.441,2.441,0,0,1,.31-1.228,2.136,2.136,0,0,1,.887-.848,2.823,2.823,0,0,1,1.33-.3,2.525,2.525,0,0,1,1.715.546,1.9,1.9,0,0,1,.628,1.51,2.562,2.562,0,0,1-.315,1.171,6.662,6.662,0,0,1-1.033,1.392l-1.825,1.953h3.466Zm20.288-12.908a3.76,3.76,0,0,1-.835,2.527,2.626,2.626,0,0,1-2.083.98,2.9,2.9,0,0,1-1.2-.246A5.02,5.02,0,0,1,448.4,14.5a5.5,5.5,0,0,0-.971-.747,1.4,1.4,0,0,0-.628-.145,1.091,1.091,0,0,0-.927.457,1.959,1.959,0,0,0-.338,1.2h-1.7a3.728,3.728,0,0,1,.8-2.465,2.6,2.6,0,0,1,2.1-.962,3.023,3.023,0,0,1,1.235.258,4.686,4.686,0,0,1,1.222.836,5.212,5.212,0,0,0,.932.726,1.393,1.393,0,0,0,.637.149,1.147,1.147,0,0,0,.958-.49,1.976,1.976,0,0,0,.369-1.224ZM469.519,19V6.2H473.9a5.354,5.354,0,0,1,3.3.87,3.065,3.065,0,0,1,1.134,2.593,2.763,2.763,0,0,1-.475,1.582,3.055,3.055,0,0,1-1.389,1.09,2.825,2.825,0,0,1,1.6,1.059,3.085,3.085,0,0,1,.567,1.868,3.407,3.407,0,0,1-1.156,2.769,5.025,5.025,0,0,1-3.309.967Zm2.224-5.774v4h2.47a2.39,2.39,0,0,0,1.635-.519,1.82,1.82,0,0,0,.589-1.441,1.826,1.826,0,0,0-2.039-2.039Zm0-1.635h2.18a2.521,2.521,0,0,0,1.622-.47,1.611,1.611,0,0,0,.584-1.332,1.633,1.633,0,0,0-.541-1.371A2.73,2.73,0,0,0,473.9,8h-2.162ZM482.94,19H480.8V9.49h2.136ZM480.672,7.021a1.133,1.133,0,0,1,.312-.817,1.179,1.179,0,0,1,.892-.325,1.193,1.193,0,0,1,.9.325,1.125,1.125,0,0,1,.316.817,1.1,1.1,0,0,1-.316.8,1.2,1.2,0,0,1-.9.321,1.188,1.188,0,0,1-.892-.321A1.107,1.107,0,0,1,480.672,7.021Zm6.574,2.47.062,1.1a3.419,3.419,0,0,1,2.769-1.274q2.971,0,3.023,3.4V19h-2.136V12.839a1.958,1.958,0,0,0-.391-1.34,1.645,1.645,0,0,0-1.279-.435,2.058,2.058,0,0,0-1.925,1.169V19h-2.136V9.49ZM499.788,13.8a13.393,13.393,0,0,1,.545-3.854,10.578,10.578,0,0,1,1.6-3.261,6.351,6.351,0,0,1,2.232-2.017l.422,1.248a6.524,6.524,0,0,0-2.008,2.87,12.852,12.852,0,0,0-.839,4.417l-.009.756a13.972,13.972,0,0,0,.751,4.75,7,7,0,0,0,2.1,3.177l-.422,1.187a6.362,6.362,0,0,1-2.237-2.026,10.577,10.577,0,0,1-1.6-3.261A13.921,13.921,0,0,1,499.788,13.8ZM512.5,9.49l.062,1.1a3.419,3.419,0,0,1,2.769-1.274q2.971,0,3.023,3.4V19h-2.136V12.839a1.958,1.958,0,0,0-.391-1.34,1.645,1.645,0,0,0-1.279-.435,2.058,2.058,0,0,0-1.925,1.169V19h-2.136V9.49ZM523.364,25h-1.241V19l-1.83.624V18.581l2.912-1.071h.159Zm10.679-13.04h3.34v1.951h-3.34v3.806h-2.074V13.911h-3.357V11.96h3.357V8.4h2.074Zm18.844,9.923-1.151-.686a6.21,6.21,0,0,0,.7-1.393,4.157,4.157,0,0,0,.2-1.208V16.935h1.925l-.009,1.538a4.287,4.287,0,0,1-.47,1.868A4.64,4.64,0,0,1,552.887,21.883ZM570.412,11.16h-1.4v5.15a1.169,1.169,0,0,0,.215.787,1,1,0,0,0,.769.242,3.622,3.622,0,0,0,.747-.088V18.9a4.715,4.715,0,0,1-1.406.2q-2.461,0-2.461-2.716V11.16h-2.918V19h-2.136V11.16h-1.5V9.49h10.09Zm10.345,2.777a13.224,13.224,0,0,1-.536,3.766,10.671,10.671,0,0,1-1.626,3.3,6.367,6.367,0,0,1-2.276,2.061l-.422-1.187a6.754,6.754,0,0,0,2.087-3.116,13.84,13.84,0,0,0,.769-4.786v-.2a14.044,14.044,0,0,0-.668-4.452,7.852,7.852,0,0,0-1.916-3.221L575.9,5.86l.422-1.2A6.3,6.3,0,0,1,578.5,6.6a10.491,10.491,0,0,1,1.617,3.107,12.941,12.941,0,0,1,.633,3.546Z" transform="translate(697.5 20228.289)" fill="#fff"/>
    <path id="Trazado_205179" data-name="Trazado 205179" d="M1.147,0H-.406V-5.983l-1.853.575V-6.671L.98-7.831h.167Z" transform="translate(724 20246)" fill="#fff"/>
    <path id="Trazado_205180" data-name="Trazado 205180" d="M0-6.521,1.87-9.953H4.228L1.33-5.018,4.3,0H1.917L0-3.486-1.911,0H-4.3l2.974-5.018-2.9-4.936h2.358Z" transform="translate(718 20244)" fill="#fff"/>
    <path id="Trazado_205132" data-name="Trazado 205132" d="M-7585.183,4464.8s2.813-2.684,8.724,0a6.641,6.641,0,0,0,8.828-2.659" transform="translate(8314.608 15776.065)" fill="none" stroke="#fff" stroke-width="2"/>
    <path id="Trazado_205177" data-name="Trazado 205177" d="M.145-1.144a1.018,1.018,0,0,0,.7-.236.828.828,0,0,0,.279-.628H2.578A1.991,1.991,0,0,1,2.256-.927a2.126,2.126,0,0,1-.867.763A2.715,2.715,0,0,1,.172.107,2.523,2.523,0,0,1-1.794-.685a3.135,3.135,0,0,1-.72-2.189v-.1A3.1,3.1,0,0,1-1.8-5.119a2.494,2.494,0,0,1,1.96-.8,2.444,2.444,0,0,1,1.748.62,2.2,2.2,0,0,1,.669,1.652H1.123a1.067,1.067,0,0,0-.279-.737.931.931,0,0,0-.709-.283.935.935,0,0,0-.819.4A2.291,2.291,0,0,0-.961-2.989v.161A2.32,2.32,0,0,0-.687-1.537.947.947,0,0,0,.145-1.144Z" transform="translate(1248 20249)" fill="#fff"/>
    <path id="Trazado_205178" data-name="Trazado 205178" d="M-1.343-7.4l.062.854A2.582,2.582,0,0,1,.844-7.533a2.146,2.146,0,0,1,1.75.69,3.221,3.221,0,0,1,.588,2.064V0H1.207V-4.73a1.282,1.282,0,0,0-.273-.913,1.224,1.224,0,0,0-.909-.284,1.359,1.359,0,0,0-1.251.711V0H-3.2V-7.4Z" transform="translate(1241 20246)" fill="#fff"/>
  </g>
</svg>
