<svg xmlns="http://www.w3.org/2000/svg" width="665" height="81" viewBox="0 0 665 81">
  <g id="Grupo_166892" data-name="Grupo 166892" transform="translate(-250 -18946.873)">
    <path id="Trazado_197401" data-name="Trazado 197401" d="M10,0H655a10,10,0,0,1,10,10V71a10,10,0,0,1-10,10H10A10,10,0,0,1,0,71V10A10,10,0,0,1,10,0Z" transform="translate(250 18946.873)" fill="#a4a3ff"/>
    <path id="Trazado_197402" data-name="Trazado 197402" d="M8.675-5.423H3.524V0H1.3V-12.8h8.13V-11H3.524V-7.2h5.15Zm6.82.22a13.393,13.393,0,0,1,.545-3.854,10.578,10.578,0,0,1,1.6-3.261,6.351,6.351,0,0,1,2.232-2.017l.422,1.248a6.524,6.524,0,0,0-2.008,2.87A12.852,12.852,0,0,0,17.446-5.8l-.009.756a13.972,13.972,0,0,0,.751,4.75,7,7,0,0,0,2.1,3.177l-.422,1.187a6.362,6.362,0,0,1-2.237-2.026,10.577,10.577,0,0,1-1.6-3.261A13.921,13.921,0,0,1,15.5-5.2Zm9.659-1.178L26.965-9.51h2.373L26.429-4.825,29.435,0H27.079l-1.9-3.252L23.291,0H20.918l3.006-4.825-2.9-4.685h2.355ZM34.91-5.062A13.224,13.224,0,0,1,34.374-1.3a10.671,10.671,0,0,1-1.626,3.3,6.367,6.367,0,0,1-2.276,2.061L30.05,2.883A6.754,6.754,0,0,0,32.137-.233a13.84,13.84,0,0,0,.769-4.786v-.2a14.044,14.044,0,0,0-.668-4.452,7.852,7.852,0,0,0-1.916-3.221l-.272-.246.422-1.2a6.3,6.3,0,0,1,2.18,1.934,10.491,10.491,0,0,1,1.617,3.107A12.941,12.941,0,0,1,34.9-5.748ZM49.377-6.855H41.8V-8.631h7.576Zm0,3.727H41.8V-4.9h7.576Z" transform="translate(302 18993.873)" fill="#fff"/>
    <path id="Trazado_197404" data-name="Trazado 197404" d="M10.485-7.84h-1.4v5.15A1.169,1.169,0,0,0,9.3-1.9a1,1,0,0,0,.769.242,3.622,3.622,0,0,0,.747-.088V-.1a4.715,4.715,0,0,1-1.406.2Q6.952.105,6.952-2.61V-7.84H4.034V0H1.9V-7.84H.4V-9.51h10.09Zm6.927-3.707.036.641a1.994,1.994,0,0,1,1.615-.743q1.733,0,1.764,1.984V-6H19.581V-9.594a1.142,1.142,0,0,0-.228-.782.96.96,0,0,0-.746-.254,1.2,1.2,0,0,0-1.123.682V-6H16.238v-5.547ZM27.065-5.2a13.393,13.393,0,0,1,.545-3.854,10.578,10.578,0,0,1,1.6-3.261,6.351,6.351,0,0,1,2.232-2.017l.422,1.248a6.524,6.524,0,0,0-2.008,2.87A12.852,12.852,0,0,0,29.016-5.8l-.009.756a13.972,13.972,0,0,0,.751,4.75,7,7,0,0,0,2.1,3.177l-.422,1.187A6.362,6.362,0,0,1,29.2,2.043a10.577,10.577,0,0,1-1.6-3.261A13.921,13.921,0,0,1,27.065-5.2ZM43.439,0H41.312V-10.281l-3.138,1.07V-11l4.992-1.837h.272Zm13.21-4.579H52.035V-6.3h4.614ZM72.285-7.84h-1.4v5.15A1.169,1.169,0,0,0,71.1-1.9a1,1,0,0,0,.769.242,3.622,3.622,0,0,0,.747-.088V-.1a4.715,4.715,0,0,1-1.406.2q-2.461,0-2.461-2.716V-7.84H65.833V0H63.7V-7.84h-1.5V-9.51h10.09ZM82.629-5.062A13.224,13.224,0,0,1,82.093-1.3a10.671,10.671,0,0,1-1.626,3.3,6.367,6.367,0,0,1-2.276,2.061l-.422-1.187A6.754,6.754,0,0,0,79.856-.233a13.84,13.84,0,0,0,.769-4.786v-.2a14.044,14.044,0,0,0-.668-4.452,7.852,7.852,0,0,0-1.916-3.221l-.272-.246.422-1.2a6.3,6.3,0,0,1,2.18,1.934,10.491,10.491,0,0,1,1.617,3.107,12.941,12.941,0,0,1,.633,3.546Zm7.411-6.485.036.641a1.994,1.994,0,0,1,1.615-.743q1.733,0,1.764,1.984V-6H92.208V-9.594a1.142,1.142,0,0,0-.228-.782.96.96,0,0,0-.746-.254,1.2,1.2,0,0,0-1.123.682V-6H88.866v-5.547Zm9.715,2.876H97.063v-1h2.691Zm5.634-1.051,1.056-1.825h1.384l-1.7,2.733L107.886-6h-1.374L105.4-7.9,104.3-6h-1.384l1.753-2.815-1.692-2.733h1.374Z" transform="translate(448 18993.873)" fill="#fff"/>
    <path id="Trazado_197405" data-name="Trazado 197405" d="M1.846,0V-7.928H.4V-9.51h1.45v-.87a3.266,3.266,0,0,1,.879-2.443,3.367,3.367,0,0,1,2.461-.861,4.936,4.936,0,0,1,1.2.158l-.053,1.67a4.207,4.207,0,0,0-.817-.07,1.371,1.371,0,0,0-1.529,1.573v.844H5.915v1.582H3.981V0ZM7.075-4.843a5.607,5.607,0,0,1,.554-2.518A4.044,4.044,0,0,1,9.185-9.083a4.383,4.383,0,0,1,2.3-.6,4.154,4.154,0,0,1,3.125,1.239,4.874,4.874,0,0,1,1.3,3.287l.009.5a5.658,5.658,0,0,1-.541,2.514A4,4,0,0,1,13.83-.431,4.415,4.415,0,0,1,11.5.176a4.125,4.125,0,0,1-3.221-1.34A5.133,5.133,0,0,1,7.075-4.737Zm2.136.185a3.832,3.832,0,0,0,.606,2.3,1.971,1.971,0,0,0,1.688.831,1.95,1.95,0,0,0,1.683-.844,4.232,4.232,0,0,0,.6-2.47,3.782,3.782,0,0,0-.62-2.285,1.979,1.979,0,0,0-1.683-.844,1.96,1.96,0,0,0-1.661.831A4.152,4.152,0,0,0,9.211-4.658ZM22.7-7.559a5.285,5.285,0,0,0-.87-.07A1.959,1.959,0,0,0,19.854-6.5V0H17.719V-9.51h2.039l.053,1.063a2.406,2.406,0,0,1,2.145-1.239,2,2,0,0,1,.756.123Zm9.246,1.178L33.759-9.51h2.373L33.223-4.825,36.229,0H33.873l-1.9-3.252L30.085,0H27.712l3.006-4.825-2.9-4.685h2.355ZM39.858,0H37.723V-9.51h2.136ZM37.591-11.979A1.133,1.133,0,0,1,37.9-12.8a1.179,1.179,0,0,1,.892-.325,1.193,1.193,0,0,1,.9.325,1.125,1.125,0,0,1,.316.817,1.1,1.1,0,0,1-.316.8,1.2,1.2,0,0,1-.9.321,1.188,1.188,0,0,1-.892-.321A1.107,1.107,0,0,1,37.591-11.979ZM54.422-6.855H46.846V-8.631h7.576Zm0,3.727H46.846V-4.9h7.576Zm15-2.259a6.979,6.979,0,0,1-1.033,4.162A3.647,3.647,0,0,1,65.25.176a3.7,3.7,0,0,1-3.125-1.367,6.683,6.683,0,0,1-1.077-4.047V-7.453a6.874,6.874,0,0,1,1.033-4.14,3.681,3.681,0,0,1,3.151-1.38,3.7,3.7,0,0,1,3.133,1.345A6.664,6.664,0,0,1,69.425-7.6ZM67.289-7.778a5.415,5.415,0,0,0-.492-2.641,1.68,1.68,0,0,0-1.564-.839,1.679,1.679,0,0,0-1.538.8,5,5,0,0,0-.519,2.483v2.9a5.555,5.555,0,0,0,.5,2.672,1.683,1.683,0,0,0,1.573.879,1.653,1.653,0,0,0,1.521-.813,5.226,5.226,0,0,0,.519-2.544ZM71.754,2.883,70.6,2.2A6.21,6.21,0,0,0,71.3.8,4.157,4.157,0,0,0,71.5-.4V-2.065h1.925L73.415-.527a4.287,4.287,0,0,1-.47,1.868A4.64,4.64,0,0,1,71.754,2.883ZM81.053,0H78.926V-10.281l-3.138,1.07V-11l4.992-1.837h.272Zm4.887,2.883L84.788,2.2A6.21,6.21,0,0,0,85.487.8a4.157,4.157,0,0,0,.2-1.208V-2.065h1.925L87.6-.527a4.287,4.287,0,0,1-.47,1.868A4.64,4.64,0,0,1,85.939,2.883ZM98.06,0h-8.6V-1.468l4.263-4.649a10.615,10.615,0,0,0,1.314-1.718,2.784,2.784,0,0,0,.391-1.384,2.1,2.1,0,0,0-.514-1.477,1.783,1.783,0,0,0-1.384-.562,2.056,2.056,0,0,0-1.608.633,2.489,2.489,0,0,0-.571,1.731H89.209a4.186,4.186,0,0,1,.532-2.1,3.662,3.662,0,0,1,1.521-1.455,4.84,4.84,0,0,1,2.281-.519,4.329,4.329,0,0,1,2.94.936,3.249,3.249,0,0,1,1.077,2.588,4.392,4.392,0,0,1-.541,2.008,11.42,11.42,0,0,1-1.771,2.386L92.118-1.705H98.06Zm7.6-2.25a1.22,1.22,0,0,1,.923.338,1.175,1.175,0,0,1,.325.848,1.134,1.134,0,0,1-.325.831,1.238,1.238,0,0,1-.923.33,1.242,1.242,0,0,1-.905-.325,1.115,1.115,0,0,1-.334-.835,1.175,1.175,0,0,1,.325-.848A1.208,1.208,0,0,1,105.662-2.25Zm4.025,0a1.22,1.22,0,0,1,.923.338,1.175,1.175,0,0,1,.325.848,1.134,1.134,0,0,1-.325.831,1.238,1.238,0,0,1-.923.33,1.242,1.242,0,0,1-.905-.325,1.115,1.115,0,0,1-.334-.835,1.175,1.175,0,0,1,.325-.848A1.208,1.208,0,0,1,109.688-2.25Zm3.876,0a1.22,1.22,0,0,1,.923.338,1.175,1.175,0,0,1,.325.848,1.134,1.134,0,0,1-.325.831,1.238,1.238,0,0,1-.923.33,1.242,1.242,0,0,1-.905-.325,1.115,1.115,0,0,1-.334-.835,1.175,1.175,0,0,1,.325-.848A1.208,1.208,0,0,1,113.563-2.25Zm9.914-7.26.062,1.1a3.419,3.419,0,0,1,2.769-1.274q2.971,0,3.023,3.4V0H127.2V-6.161A1.958,1.958,0,0,0,126.8-7.5a1.645,1.645,0,0,0-1.279-.435A2.058,2.058,0,0,0,123.6-6.768V0h-2.136V-9.51ZM131.81,2.883,130.658,2.2a6.21,6.21,0,0,0,.7-1.393,4.157,4.157,0,0,0,.2-1.208V-2.065h1.925l-.009,1.538A4.287,4.287,0,0,1,133,1.34,4.64,4.64,0,0,1,131.81,2.883ZM145.626,0a3.3,3.3,0,0,1-.246-.888,3.325,3.325,0,0,1-2.5,1.063,3.355,3.355,0,0,1-2.338-.817,2.615,2.615,0,0,1-.905-2.021A2.7,2.7,0,0,1,140.77-5,5.473,5.473,0,0,1,144-5.81h1.31v-.624a1.666,1.666,0,0,0-.413-1.182,1.638,1.638,0,0,0-1.257-.444,1.881,1.881,0,0,0-1.2.365,1.129,1.129,0,0,0-.466.927h-2.136a2.37,2.37,0,0,1,.519-1.463A3.455,3.455,0,0,1,141.772-9.3a4.955,4.955,0,0,1,1.991-.387,3.99,3.99,0,0,1,2.663.839,2.993,2.993,0,0,1,1.02,2.36V-2.2a4.861,4.861,0,0,0,.36,2.048V0Zm-2.347-1.538a2.429,2.429,0,0,0,1.191-.308,2.055,2.055,0,0,0,.839-.826V-4.465h-1.151a3.148,3.148,0,0,0-1.784.413,1.338,1.338,0,0,0-.6,1.169,1.248,1.248,0,0,0,.409.98A1.583,1.583,0,0,0,143.279-1.538Zm8.385-7.972.062,1.1a3.419,3.419,0,0,1,2.769-1.274q2.971,0,3.023,3.4V0h-2.136V-6.161a1.958,1.958,0,0,0-.391-1.34,1.645,1.645,0,0,0-1.279-.435,2.058,2.058,0,0,0-1.925,1.169V0h-2.136V-9.51Zm7.629,4.685a5.654,5.654,0,0,1,1.02-3.529,3.267,3.267,0,0,1,2.733-1.332,3.1,3.1,0,0,1,2.443,1.055V-13.5h2.136V0h-1.934l-.105-.984a3.148,3.148,0,0,1-2.558,1.16,3.248,3.248,0,0,1-2.7-1.345A5.861,5.861,0,0,1,159.293-4.825Zm2.136.185a3.958,3.958,0,0,0,.558,2.263,1.811,1.811,0,0,0,1.586.813,2.017,2.017,0,0,0,1.916-1.169V-6.794a1.986,1.986,0,0,0-1.9-1.143,1.824,1.824,0,0,0-1.6.822A4.408,4.408,0,0,0,161.429-4.641Zm21.111-.747a6.979,6.979,0,0,1-1.033,4.162,3.647,3.647,0,0,1-3.142,1.4,3.7,3.7,0,0,1-3.125-1.367,6.683,6.683,0,0,1-1.077-4.047V-7.453a6.874,6.874,0,0,1,1.033-4.14,3.681,3.681,0,0,1,3.151-1.38,3.7,3.7,0,0,1,3.133,1.345A6.664,6.664,0,0,1,182.54-7.6ZM180.4-7.778a5.415,5.415,0,0,0-.492-2.641,1.68,1.68,0,0,0-1.564-.839,1.679,1.679,0,0,0-1.538.8,5,5,0,0,0-.519,2.483v2.9a5.555,5.555,0,0,0,.5,2.672,1.683,1.683,0,0,0,1.573.879,1.653,1.653,0,0,0,1.521-.813,5.226,5.226,0,0,0,.519-2.544Zm10.274,2.232,5.186,1.969v2.136L188.508-4.72v-1.7l7.356-3.27V-7.55ZM216.554-7.84h-1.4v5.15a1.169,1.169,0,0,0,.215.787,1,1,0,0,0,.769.242,3.622,3.622,0,0,0,.747-.088V-.1a4.715,4.715,0,0,1-1.406.2q-2.461,0-2.461-2.716V-7.84H210.1V0h-2.136V-7.84h-1.5V-9.51h10.09Zm12.34,2.294,5.186,1.969v2.136L226.723-4.72v-1.7l7.356-3.27V-7.55ZM246.542,0h-2.127V-10.281l-3.138,1.07V-11l4.992-1.837h.272Z" transform="translate(576 18993.873)" fill="#fff"/>
    <path id="Trazado_197275" data-name="Trazado 197275" d="M-8102.268,2256.212h10.38" transform="translate(8864.268 16741.66)" fill="#fff" stroke="#fff" stroke-width="1"/>
    <path id="Trazado_197276" data-name="Trazado 197276" d="M-8102.268,2256.212h10.38" transform="translate(8904.268 16741.66)" fill="#fff" stroke="#fff" stroke-width="1"/>
    <path id="Trazado_197403" data-name="Trazado 197403" d="M4.509-6.381,6.319-9.51H8.692L5.783-4.825,8.789,0H6.434l-1.9-3.252L2.646,0H.272L3.278-4.825.378-9.51H2.733Zm7.9,2.619H10.573l-.2-9.035h2.25Zm-2.1,2.755a1.128,1.128,0,0,1,.325-.827,1.193,1.193,0,0,1,.888-.328,1.193,1.193,0,0,1,.888.328,1.128,1.128,0,0,1,.325.827,1.107,1.107,0,0,1-.316.805,1.2,1.2,0,0,1-.9.324,1.2,1.2,0,0,1-.9-.324A1.107,1.107,0,0,1,10.31-1.006Zm9.176-4.2a13.393,13.393,0,0,1,.545-3.854,10.578,10.578,0,0,1,1.6-3.261,6.351,6.351,0,0,1,2.232-2.017l.422,1.248a6.524,6.524,0,0,0-2.008,2.87A12.852,12.852,0,0,0,21.437-5.8l-.009.756a13.972,13.972,0,0,0,.751,4.75,7,7,0,0,0,2.1,3.177l-.422,1.187a6.362,6.362,0,0,1-2.237-2.026,10.577,10.577,0,0,1-1.6-3.261A13.921,13.921,0,0,1,19.485-5.2ZM32.194-9.51l.062,1.1a3.419,3.419,0,0,1,2.769-1.274q2.971,0,3.023,3.4V0H35.912V-6.161a1.958,1.958,0,0,0-.391-1.34,1.645,1.645,0,0,0-1.279-.435,2.058,2.058,0,0,0-1.925,1.169V0H30.182V-9.51ZM48.85-4.579H44.235V-6.3H48.85Zm9.659-1.8L60.319-9.51h2.373L59.783-4.825,62.789,0H60.434l-1.9-3.252L56.646,0H54.272l3.006-4.825-2.9-4.685h2.355Zm9.756,1.318A13.224,13.224,0,0,1,67.729-1.3a10.671,10.671,0,0,1-1.626,3.3,6.367,6.367,0,0,1-2.276,2.061L63.4,2.883A6.754,6.754,0,0,0,65.492-.233a13.84,13.84,0,0,0,.769-4.786v-.2a14.044,14.044,0,0,0-.668-4.452,7.852,7.852,0,0,0-1.916-3.221L63.4-13.14l.422-1.2a6.3,6.3,0,0,1,2.18,1.934,10.491,10.491,0,0,1,1.617,3.107,12.941,12.941,0,0,1,.633,3.546Zm8.974,1.3H75.4L75.2-12.8h2.25Zm-2.1,2.755a1.128,1.128,0,0,1,.325-.827,1.193,1.193,0,0,1,.888-.328,1.193,1.193,0,0,1,.888.328,1.128,1.128,0,0,1,.325.827,1.107,1.107,0,0,1-.316.805,1.2,1.2,0,0,1-.9.324,1.2,1.2,0,0,1-.9-.324A1.107,1.107,0,0,1,75.138-1.006Z" transform="translate(360 18993.873)" fill="#fff"/>
  </g>
</svg>
