<svg xmlns="http://www.w3.org/2000/svg" width="473.104" height="244.111" viewBox="0 0 473.104 244.111">
  <g id="Grupo_166778" data-name="Grupo 166778" transform="translate(-284.396 -15746)">
    <rect id="Rect치ngulo_49601" data-name="Rect치ngulo 49601" width="472.5" height="236.25" transform="translate(285 15746)" fill="#f6f6f6"/>
    <path id="Trazado_177421" data-name="Trazado 177421" d="M-8343,4289.107s39.637,30.052,100.406-121.552,78.105,115.691,147.656,121.552" transform="translate(8628 11666.743)" fill="none" stroke="#ff8578" stroke-width="2"/>
    <path id="Trazado_177422" data-name="Trazado 177422" d="M-8343,4289.107s39.637,30.052,100.406-121.552,78.105,115.691,147.656,121.552" transform="translate(8664.619 11666.743)" fill="none" stroke="#5263e2" stroke-width="2"/>
    <path id="Trazado_177423" data-name="Trazado 177423" d="M-8343,4289.107s39.637,30.052,100.406-121.552,78.105,115.691,147.656,121.552" transform="translate(8664.619 11666.743)" fill="none" stroke="#5263e2" stroke-width="2"/>
    <path id="Trazado_177424" data-name="Trazado 177424" d="M-8343,4289.107s39.637,30.052,100.406-121.552,78.105,115.691,147.656,121.552" transform="translate(8713.05 11666.743)" fill="none" stroke="#78b62e" stroke-width="2"/>
    <path id="Trazado_177425" data-name="Trazado 177425" d="M-8343,4289.107s39.637,30.052,100.406-121.552,78.105,115.691,147.656,121.552" transform="translate(8796.328 11666.743)" fill="none" stroke="#8490e8" stroke-width="2"/>
    <path id="Trazado_177426" data-name="Trazado 177426" d="M-8343,4289.107s31.106,30.052,78.8-121.552,61.295,115.691,115.875,121.552" transform="translate(8876.063 11666.743)" fill="none" stroke="#f039ff" stroke-width="2"/>
    <rect id="Rect치ngulo_50175" data-name="Rect치ngulo 50175" width="472" height="8" transform="translate(285.25 15982.111)" fill="#43a99b"/>
  </g>
</svg>
