<svg xmlns="http://www.w3.org/2000/svg" xmlns:xlink="http://www.w3.org/1999/xlink" width="355.182" height="317.801" viewBox="0 0 355.182 317.801">
  <defs>
    <clipPath id="clip-path">
      <rect id="Rectángulo_50185" data-name="Rectángulo 50185" width="339.832" height="312.822" fill="#ffde96"/>
    </clipPath>
    <clipPath id="clip-path-2">
      <rect id="Rectángulo_50184" data-name="Rectángulo 50184" width="339.832" height="312.465" fill="#ffde96"/>
    </clipPath>
    <linearGradient id="linear-gradient" x1="0.5" x2="0.5" y2="1" gradientUnits="objectBoundingBox">
      <stop offset="0" stop-color="#fed981"/>
      <stop offset="1" stop-color="#ffd061"/>
    </linearGradient>
  </defs>
  <g id="Grupo_166897" data-name="Grupo 166897" transform="translate(-186.561 -21398.023)">
    <g id="Grupo_166790" data-name="Grupo 166790">
      <g id="Grupo_166789" data-name="Grupo 166789" transform="translate(186.561 21398.023)" clip-path="url(#clip-path)">
        <path id="Trazado_197281" data-name="Trazado 197281" d="M338.424,162.721c-4.185-33.232-17.334-66.29-34.443-93.323C281.724,34.232,246.164,6.018,203.975.789c-29.86-3.7-63.908,5.726-87,25.948A89.968,89.968,0,0,0,91.419,63.645c-5.651,15.516-8.059,33.3-20.237,45.477-14.635,14.637-34.847,21.642-49.967,35.614-33.524,30.981-23.737,86.94,4.5,117.85,25.421,27.823,63.136,22.676,97.049,27.921,25.743,3.981,48.024,18.5,74.334,21.244,38.065,3.975,77.363-8.769,105.283-35.085,32.507-30.641,41.269-72.427,36.04-113.945" transform="translate(0 0)" fill="#ffde96"/>
        <g id="Grupo_166788" data-name="Grupo 166788" opacity="0.7">
          <g id="Grupo_166787" data-name="Grupo 166787" style="isolation: isolate">
            <g id="Grupo_166786" data-name="Grupo 166786" clip-path="url(#clip-path-2)">
              <path id="Trazado_197282" data-name="Trazado 197282" d="M338.424,162.721c-4.185-33.232-17.334-66.29-34.443-93.323C281.724,34.232,246.164,6.018,203.975.789c-29.86-3.7-63.908,5.726-87,25.948A89.968,89.968,0,0,0,91.419,63.645c-5.651,15.516-8.059,33.3-20.237,45.477-14.635,14.637-34.847,21.642-49.967,35.614-33.524,30.981-23.737,86.94,4.5,117.85,25.421,27.823,63.136,22.676,97.049,27.921,25.743,3.981,48.024,18.5,74.334,21.244,38.065,3.975,77.363-8.769,105.283-35.085,32.507-30.641,41.269-72.427,36.04-113.945" transform="translate(0 0)" fill="#ffde96"/>
            </g>
          </g>
        </g>
      </g>
      <g id="Rectángulo_50186" data-name="Rectángulo 50186" transform="translate(210 21432)" fill="#fff" stroke="#707070" stroke-width="1">
        <rect width="308" height="199" stroke="none"/>
        <rect x="0.5" y="0.5" width="307" height="198" fill="none"/>
      </g>
      <g id="Grupo_166785" data-name="Grupo 166785" transform="translate(14.951 -3184.676)">
        <g id="Grupo_165668" data-name="Grupo 165668" transform="translate(374.384 24651.082)">
          <text id="H0_:_u_u0" data-name="H0 : u = u0" transform="translate(16.57 16.957)" fill="#12263f" font-size="14" font-family="Roboto-Medium, Roboto" font-weight="500"><tspan x="0" y="0">H</tspan><tspan y="0" font-size="8.166" baseline-shift="-4.666199819518059">0</tspan><tspan y="0" xml:space="preserve"> : u = u</tspan><tspan y="0" font-size="8.166" baseline-shift="-4.666199819518059">0</tspan></text>
          <text id="H1_:_u_u0" data-name="H1 : u = u0" transform="translate(16.57 48.44)" fill="#12263f" font-size="14" font-family="Roboto-Medium, Roboto" font-weight="500"><tspan x="0" y="0">H1 : u = u</tspan><tspan y="0" font-size="8.166" baseline-shift="-4.666199819518059">0</tspan></text>
          <path id="Trazado_177707" data-name="Trazado 177707" d="M-8290.324,12974.576l5.385-12.223" transform="translate(8351.363 -12924.137)" fill="none" stroke="#12263f" stroke-width="1"/>
          <text id="H1_HA_" data-name="H1 = HA " transform="translate(16.57 78.265)" fill="#12263f" font-size="14" font-family="Roboto-Medium, Roboto" font-weight="500"><tspan x="0" y="0">H</tspan><tspan y="0" font-size="8.166" baseline-shift="-4.666199819518059">1</tspan><tspan y="0" xml:space="preserve"> = H</tspan><tspan y="0" font-size="8.166" font-family="Roboto-Regular, Roboto" font-weight="400" baseline-shift="-4.666199819518059">A</tspan><tspan y="0"> </tspan></text>
          <path id="Trazado_177708" data-name="Trazado 177708" d="M-8350.91,12911.264h-8.515v25.062l-3.575,3.312,3.575,3.313v25.295h8.515" transform="translate(8363 -12911.264)" fill="none" stroke="#12263f" stroke-linecap="round" stroke-width="1"/>
          <path id="Trazado_177709" data-name="Trazado 177709" d="M-8363,12911.264h8.514v25.062l3.576,3.312-3.576,3.313v25.295H-8363" transform="translate(8449.99 -12911.264)" fill="none" stroke="#12263f" stroke-linecap="round" stroke-width="1"/>
        </g>
        <path id="Trazado_176367" data-name="Trazado 176367" d="M325.953,217.616c0-1.483-.085-78.537-.215-198.148l.215.178L18.47,19.683h-.026l.26-.215c-.01,71.423-.019,138.978-.026,198.148l-.234-.194,307.509.194-307.509.194H18.21v-.194c-.008-59.17-.017-126.726-.027-198.148v-.215h.287l307.483.037h.216v.178c-.13,119.611-.213,196.667-.215,198.148" transform="translate(176.881 24597.023)" fill="#263238"/>
        <path id="Trazado_176371" data-name="Trazado 176371" d="M56.145,213.133c-.119,0-.215-27.536-.215-61.5s.1-61.5.215-61.5.215,27.53.215,61.5-.1,61.5-.215,61.5" transform="translate(170.406 24584.865)" fill="#263238"/>
        <path id="Trazado_176374" data-name="Trazado 176374" d="M103.675,122.28a.9.9,0,1,1-.9-.9.9.9,0,0,1,.9.9" transform="translate(162.527 24579.506)" fill="#263238"/>
        <path id="Trazado_176380" data-name="Trazado 176380" d="M56.905,91.038a.9.9,0,1,1-.9-.9.9.9,0,0,1,.9.9" transform="translate(170.548 24584.865)" fill="#263238"/>
        <path id="Trazado_176381" data-name="Trazado 176381" d="M253.883,137.9a3.186,3.186,0,0,1-.711.23,15.221,15.221,0,0,0-2.048.7,19.735,19.735,0,0,0-6.576,4.991c-2.462,2.665-4.927,6.38-8.022,10.552a51.083,51.083,0,0,1-5.451,6.326,30.275,30.275,0,0,1-3.539,2.926,24.563,24.563,0,0,1-4.262,2.331,24.032,24.032,0,0,1-10.211,1.717,27.494,27.494,0,0,1-5.493-.688,14.339,14.339,0,0,1-5.316-2.34,17.229,17.229,0,0,1-4.151-4.33c-1.146-1.659-2.175-3.413-3.169-5.2-1.983-3.587-4.042-7.2-6.384-10.824-2.3-3.674-4.431-7.546-6.811-11.354a54.329,54.329,0,0,0-8.34-10.758,24.224,24.224,0,0,0-5.6-4.012,18.589,18.589,0,0,0-6.654-1.949,23.661,23.661,0,0,0-7.081.4,23.911,23.911,0,0,0-6.719,2.55,34.976,34.976,0,0,0-10.505,9.8,108.641,108.641,0,0,0-7.508,12.073,123.033,123.033,0,0,1-7.275,11.811,58.033,58.033,0,0,1-8.805,10.04c-.837.706-1.659,1.418-2.555,2.032a29.2,29.2,0,0,1-2.706,1.768,23.489,23.489,0,0,1-5.868,2.414,19.435,19.435,0,0,1-3.067.572,10.537,10.537,0,0,1-1.54.09c-.513,0-1.024.038-1.532.019A23.333,23.333,0,0,1,90.11,168.7a39.789,39.789,0,0,1-9.932-5.189c-2.949-2.031-5.647-4.133-8.283-6.031a44.21,44.21,0,0,0-7.866-4.766,26.017,26.017,0,0,0-7.83-2.224,19.3,19.3,0,0,0-7.035.454,11.833,11.833,0,0,0-1.522.49A9.763,9.763,0,0,0,46.22,152a18.274,18.274,0,0,0-2.485,1.378,26.539,26.539,0,0,0-3.74,2.992l-1.3,1.426a11.951,11.951,0,0,0-1.044,1.213l-1.316,1.735a3.237,3.237,0,0,1-.487.568,3.148,3.148,0,0,1,.377-.642l1.22-1.82a11.384,11.384,0,0,1,1-1.265L39.72,156.1a25.934,25.934,0,0,1,3.737-3.144,18.462,18.462,0,0,1,2.526-1.466,10.028,10.028,0,0,1,1.456-.6A12,12,0,0,1,49,150.352a19.785,19.785,0,0,1,7.273-.579,26.6,26.6,0,0,1,8.088,2.191,44.688,44.688,0,0,1,8.063,4.774c2.672,1.888,5.383,3.965,8.312,5.949a38.968,38.968,0,0,0,9.7,4.993,22.266,22.266,0,0,0,5.594,1.006c.481.016.965-.021,1.45-.027a9.747,9.747,0,0,0,1.456-.093,18.339,18.339,0,0,0,2.9-.555A26.38,26.38,0,0,0,112.466,162a57.091,57.091,0,0,0,8.583-9.856,122.928,122.928,0,0,0,7.177-11.716,108.982,108.982,0,0,1,7.582-12.224,36.152,36.152,0,0,1,10.9-10.153,24.662,24.662,0,0,1,14.567-3.106,19.879,19.879,0,0,1,7.1,2.089,25.475,25.475,0,0,1,5.892,4.23,55.371,55.371,0,0,1,8.518,11.027c2.392,3.852,4.512,7.733,6.773,11.376,2.325,3.625,4.416,7.329,6.366,10.9,1.985,3.523,3.921,7.067,6.951,9.212a13.3,13.3,0,0,0,4.939,2.2,26.55,26.55,0,0,0,5.284.7,23.163,23.163,0,0,0,9.824-1.567,23.821,23.821,0,0,0,4.118-2.2,29.55,29.55,0,0,0,3.464-2.805,51.138,51.138,0,0,0,5.441-6.167c3.129-4.1,5.675-7.806,8.229-10.458a19.209,19.209,0,0,1,6.846-4.889,12.066,12.066,0,0,1,2.117-.589,3.161,3.161,0,0,1,.741-.1" transform="translate(173.851 24580.629)" fill="#ff8578"/>
        <path id="Trazado_176382" data-name="Trazado 176382" d="M321.465,0H22.586c-2.49,0-4.508,1.671-4.508,3.733V16.165h307.9V3.733c0-2.062-2.019-3.733-4.508-3.733" transform="translate(176.898 24600.324)" fill="#43a99b"/>
        <path id="Trazado_176383" data-name="Trazado 176383" d="M33.307,9.773a1.739,1.739,0,1,1-1.739-1.739,1.739,1.739,0,0,1,1.739,1.739" transform="translate(174.883 24598.945)" fill="#fff"/>
        <path id="Trazado_176384" data-name="Trazado 176384" d="M42.47,9.773a1.739,1.739,0,1,1-1.739-1.739A1.739,1.739,0,0,1,42.47,9.773" transform="translate(173.311 24598.945)" fill="#fff"/>
        <path id="Trazado_176385" data-name="Trazado 176385" d="M51.633,9.773a1.739,1.739,0,1,1-1.739-1.739,1.739,1.739,0,0,1,1.739,1.739" transform="translate(171.739 24598.945)" fill="#fff"/>
        <path id="Trazado_176404" data-name="Trazado 176404" d="M223.525,43.415c0,.119-12.006.215-26.812.215s-26.815-.1-26.815-.215,12-.215,26.815-.215,26.812.1,26.812.215" transform="translate(150.859 24592.914)" fill="#fff"/>
        <path id="Trazado_176405" data-name="Trazado 176405" d="M201.659,49.736c0,.119-6.941.215-15.5.215s-15.5-.1-15.5-.215,6.939-.215,15.5-.215,15.5.1,15.5.215" transform="translate(150.729 24591.83)" fill="#fff"/>
        <path id="Trazado_176567" data-name="Trazado 176567" d="M68.46,355.879l-.184-7.6-14.238.253.152,11.122.884.041c3.932.148,20.006.476,22.618-.366,2.914-.94-9.232-3.45-9.232-3.45" transform="translate(170.731 24540.588)" fill="#1f1949"/>
        <path id="Trazado_176568" data-name="Trazado 176568" d="M59.3,360.959a4.936,4.936,0,0,0-1.871-3,4.8,4.8,0,0,0-3.346-.976l.068,3.979Z" transform="translate(170.724 24539.1)" fill="#263238"/>
        <path id="Trazado_176569" data-name="Trazado 176569" d="M74.429,359.187s4.262,1.147,3.746,1.856-16.773.987-23.955.482l.017-.318,18.965-.164s.4-1.806,1.227-1.856" transform="translate(170.7 24538.719)" fill="#263238"/>
        <path id="Trazado_176570" data-name="Trazado 176570" d="M53.971,361.535a1.337,1.337,0,0,1,.246-.012l.7,0,2.59.012c2.186.01,5.207.007,8.542-.047s6.356-.152,8.541-.233l2.588-.1.7-.021a.123.123,0,1,1,0,.035l-.7.053-2.586.152c-2.185.113-5.205.229-8.544.284s-6.359.037-8.547,0l-2.59-.066-.7-.031a1.369,1.369,0,0,1-.245-.022" transform="translate(170.742 24538.383)" fill="#455a64"/>
        <path id="Trazado_176571" data-name="Trazado 176571" d="M77.126,361.226a2.3,2.3,0,0,1,1.327-2.249,3.764,3.764,0,0,0-1.327,2.249" transform="translate(166.776 24538.754)" fill="#455a64"/>
        <path id="Trazado_176572" data-name="Trazado 176572" d="M72.015,358.96c-.041-.025.09-.313.292-.644s.4-.579.439-.554-.089.313-.292.644-.4.579-.44.554" transform="translate(167.648 24538.963)" fill="#455a64"/>
        <path id="Trazado_176573" data-name="Trazado 176573" d="M70.612,358.327c-.032-.035.137-.245.379-.47s.463-.379.5-.344-.138.245-.379.47-.464.379-.5.344" transform="translate(167.888 24539.006)" fill="#455a64"/>
        <path id="Trazado_176574" data-name="Trazado 176574" d="M69.705,356.87a3.24,3.24,0,1,1,.745.082,1.685,1.685,0,0,1-.745-.082" transform="translate(168.043 24539.131)" fill="#455a64"/>
        <path id="Trazado_176575" data-name="Trazado 176575" d="M69.384,355.747a4.568,4.568,0,0,1,.843.055,4.59,4.59,0,0,1,.843.043,2.089,2.089,0,0,1-1.687-.1" transform="translate(168.099 24539.311)" fill="#455a64"/>
        <path id="Trazado_176576" data-name="Trazado 176576" d="M72.574,357.427c0-.028.348-.035.895-.142a6.283,6.283,0,0,0,.938-.261,2.772,2.772,0,0,0,.51-.229c.16-.1.214-.271.066-.376a1.419,1.419,0,0,0-1.091-.055,1.645,1.645,0,0,0-.773.521,2.581,2.581,0,0,0-.4.788c-.011,0-.015-.09.019-.248a1.64,1.64,0,0,1,.288-.616,1.678,1.678,0,0,1,2.066-.526.359.359,0,0,1,.145.363.494.494,0,0,1-.221.288,2.686,2.686,0,0,1-.554.239,5.359,5.359,0,0,1-.97.231,2.643,2.643,0,0,1-.915.022" transform="translate(167.551 24539.244)" fill="#455a64"/>
        <path id="Trazado_176577" data-name="Trazado 176577" d="M72.609,357.384a3.362,3.362,0,0,0-.026-.616,1.5,1.5,0,0,0-.269-.591c-.143-.18-.38-.4-.609-.378-.229.046-.137.391-.008.582a3.2,3.2,0,0,0,.393.543c.258.285.458.423.442.447a1.316,1.316,0,0,1-.53-.362,2.784,2.784,0,0,1-.442-.546.991.991,0,0,1-.162-.406.364.364,0,0,1,.275-.428.92.92,0,0,1,.77.453,1.5,1.5,0,0,1,.261.664.9.9,0,0,1-.094.637" transform="translate(167.755 24539.328)" fill="#455a64"/>
        <path id="Trazado_176578" data-name="Trazado 176578" d="M54.241,356.887a.843.843,0,0,1,.279-.07,3.754,3.754,0,0,1,.782-.033,4.328,4.328,0,0,1,3.886,2.99,3.76,3.76,0,0,1,.168.765.814.814,0,0,1,0,.288c-.031,0-.06-.405-.287-1.012a4.46,4.46,0,0,0-3.78-2.909c-.645-.065-1.048.013-1.052-.019" transform="translate(170.696 24539.131)" fill="#455a64"/>
        <path id="Trazado_176579" data-name="Trazado 176579" d="M55.885,349.727a49.734,49.734,0,0,1,.027,5.852,49.732,49.732,0,0,1-.027-5.852" transform="translate(170.427 24540.34)" fill="#455a64"/>
        <path id="Trazado_176580" data-name="Trazado 176580" d="M62.583,360.04c0-.05.935.008,2.081,0s2.075-.08,2.08-.03a8.139,8.139,0,0,1-2.079.2,8.065,8.065,0,0,1-2.082-.171" transform="translate(169.265 24538.58)" fill="#455a64"/>
        <path id="Trazado_176581" data-name="Trazado 176581" d="M59.214,360.1c.03-.035.22.089.334.334s.093.468.047.47-.1-.186-.2-.4-.212-.372-.178-.408" transform="translate(169.844 24538.563)" fill="#455a64"/>
        <path id="Trazado_176582" data-name="Trazado 176582" d="M57.917,358.544c.033-.034.181.057.331.2s.244.294.211.328-.181-.058-.331-.2-.244-.293-.211-.327" transform="translate(170.066 24538.83)" fill="#455a64"/>
        <path id="Trazado_176583" data-name="Trazado 176583" d="M56.09,357.836c-.015-.044.2-.136.463-.051s.384.283.347.311-.188-.081-.4-.146-.4-.065-.41-.113" transform="translate(170.379 24538.965)" fill="#455a64"/>
        <path id="Trazado_176584" data-name="Trazado 176584" d="M54.791,357.529c.017-.045.126-.046.245,0s.2.115.186.16-.127.046-.245,0-.2-.115-.186-.16" transform="translate(170.602 24539.008)" fill="#455a64"/>
        <path id="Trazado_176585" data-name="Trazado 176585" d="M131.641,97.595S143.794,85.043,144.9,85.6s-4.459,5.665-3.722,6.327,6.592,5.115-2.834,12.171Z" transform="translate(157.42 24585.646)" fill="#e5baab"/>
        <path id="Trazado_176586" data-name="Trazado 176586" d="M143.517,95.428a1.981,1.981,0,0,1-.2.37l-.587.972-.891,1.431a2.043,2.043,0,0,1-.714.736.9.9,0,0,1-1.089-.157.969.969,0,0,1,.072-1.094c.182-.3.366-.574.538-.843l.921-1.41.635-.942a1.887,1.887,0,0,1,.252-.333,1.9,1.9,0,0,1-.2.369l-.588.972q-.428.687-.891,1.43l-.524.84c-.162.28-.292.65-.084.9a.741.741,0,0,0,.877.116,1.916,1.916,0,0,0,.659-.674l.921-1.408c.219-.325.428-.637.634-.943a1.932,1.932,0,0,1,.252-.333" transform="translate(156.004 24584.176)" fill="#d78776"/>
        <path id="Trazado_176587" data-name="Trazado 176587" d="M144.4,97.145a1.17,1.17,0,0,1-.047.358,4.776,4.776,0,0,1-.312.935,5.21,5.21,0,0,1-.783,1.236,2.2,2.2,0,0,1-.669.574.768.768,0,0,1-.949-.089.936.936,0,0,1-.123-.955,3.471,3.471,0,0,1,.456-.746c.312-.442.562-.864.78-1.215s.4-.631.539-.819a1.331,1.331,0,0,1,.231-.277,1.679,1.679,0,0,1-.175.314l-.49.843c-.2.358-.444.789-.754,1.244a3.387,3.387,0,0,0-.428.714.776.776,0,0,0,.093.78.6.6,0,0,0,.745.054,2.087,2.087,0,0,0,.626-.527,5.54,5.54,0,0,0,.793-1.185,10.769,10.769,0,0,0,.469-1.24" transform="translate(155.739 24583.832)" fill="#d78776"/>
        <path id="Trazado_176588" data-name="Trazado 176588" d="M135.957,96.9l4.451-.3a.6.6,0,0,1,.244.017c.236.084.273.406.218.65a2.467,2.467,0,0,1-1.548,1.625,7.277,7.277,0,0,1-2.289.388l-2.133.131" transform="translate(156.861 24583.756)" fill="#e5baab"/>
        <path id="Trazado_176589" data-name="Trazado 176589" d="M134.9,99.388a2.591,2.591,0,0,1,.479-.063l1.309-.108A14.265,14.265,0,0,0,138.609,99a2.992,2.992,0,0,0,1.922-1.188c.206-.327.378-.774.2-1.058-.084-.133-.274-.094-.472-.085l-.562.035-1.944.113-1.311.061a2.471,2.471,0,0,1-.483,0,2.7,2.7,0,0,1,.478-.065l1.308-.116,1.942-.149.562-.041c.1-.006.186-.019.3-.016a.412.412,0,0,1,.318.162.791.791,0,0,1,.075.659,2.024,2.024,0,0,1-.263.6,3.113,3.113,0,0,1-2.034,1.249,13.09,13.09,0,0,1-1.948.183l-1.312.052a2.659,2.659,0,0,1-.483,0" transform="translate(156.861 24583.775)" fill="#d78776"/>
        <path id="Trazado_176590" data-name="Trazado 176590" d="M145.484,98.637a1.421,1.421,0,0,1-.1.265,6.581,6.581,0,0,0-.226.735,3.972,3.972,0,0,1-.416,1.089,1.552,1.552,0,0,1-.5.51.6.6,0,0,1-.4.1.525.525,0,0,1-.355-.239.861.861,0,0,1-.05-.775c.084-.233.184-.432.27-.631l.477-1.046a6.4,6.4,0,0,1,.48-.945,6.371,6.371,0,0,1-.368.994c-.152.364-.3.715-.443,1.06-.142.387-.469.86-.223,1.247a.353.353,0,0,0,.522.094,1.431,1.431,0,0,0,.447-.45,4.243,4.243,0,0,0,.433-1.038,2.4,2.4,0,0,1,.444-.965" transform="translate(155.407 24583.568)" fill="#d78776"/>
        <path id="Trazado_176591" data-name="Trazado 176591" d="M139.118,103.5c-.051-.014.184-.843.247-1.891s-.058-1.9-.006-1.908a6.2,6.2,0,0,1-.241,3.8" transform="translate(156.139 24583.225)" fill="#d78776"/>
        <path id="Trazado_176592" data-name="Trazado 176592" d="M66.1,95.033a9.466,9.466,0,0,0,4.506,8.049,20.361,20.361,0,0,1,2.232,1.327,2.8,2.8,0,0,1,1.2,2.2c-.056,1.353-1.427,2.213-2.632,2.83a3.355,3.355,0,1,1-4.833,4.642,6.182,6.182,0,0,1-4.538,5.483,8.62,8.62,0,0,1-7.213-1.479,14.507,14.507,0,0,1-4.592-5.966" transform="translate(171.383 24584.025)" fill="#263238"/>
        <path id="Trazado_176593" data-name="Trazado 176593" d="M59.212,116.889a52.524,52.524,0,0,1,.3-6.667s4.915-.519,5.214-5.394,0-16.116,0-16.116l-8.953-4.376L45.925,91.8l1.493,24.371Z" transform="translate(172.122 24585.859)" fill="#e5baab"/>
        <path id="Trazado_176594" data-name="Trazado 176594" d="M67.18,99.379a.624.624,0,1,1-.624-.624.624.624,0,0,1,.624.624" transform="translate(168.69 24583.387)" fill="#263238"/>
        <path id="Trazado_176595" data-name="Trazado 176595" d="M67.657,98.531c-.08.08-.542-.312-1.213-.347s-1.176.287-1.246.2c-.035-.04.049-.189.269-.341a1.661,1.661,0,0,1,1.964.12c.2.177.265.335.226.37" transform="translate(168.818 24583.555)" fill="#263238"/>
        <path id="Trazado_176596" data-name="Trazado 176596" d="M58.454,99.379a.624.624,0,1,1-.624-.624.624.624,0,0,1,.624.624" transform="translate(170.187 24583.387)" fill="#263238"/>
        <path id="Trazado_176597" data-name="Trazado 176597" d="M58.669,98.531c-.08.08-.542-.312-1.213-.347s-1.176.287-1.246.2c-.035-.04.049-.189.27-.341a1.66,1.66,0,0,1,1.963.12c.2.177.265.335.226.37" transform="translate(170.359 24583.555)" fill="#263238"/>
        <path id="Trazado_176598" data-name="Trazado 176598" d="M62.081,104.279a4.679,4.679,0,0,1,1.094-.133c.169-.009.343-.031.384-.157a.9.9,0,0,0-.09-.539c-.152-.456-.3-.91-.461-1.384-.32-.984-.6-1.88-.783-2.532a4.7,4.7,0,0,1-.253-1.072,4.668,4.668,0,0,1,.427,1.016c.232.637.535,1.524.855,2.508.151.476.3.931.441,1.39a1.036,1.036,0,0,1,.061.7.559.559,0,0,1-.574.254,4.668,4.668,0,0,1-1.1-.05" transform="translate(169.371 24583.436)" fill="#263238"/>
        <path id="Trazado_176599" data-name="Trazado 176599" d="M59.4,106.285c-.679-.451,1.877,1.118,3.248,1.118a1.859,1.859,0,0,1-2.227.631c-1.433-.606-1.021-1.75-1.021-1.75" transform="translate(169.83 24582.107)" fill="#fff"/>
        <path id="Trazado_176600" data-name="Trazado 176600" d="M60.989,115.129a12.169,12.169,0,0,1-6.458-2.181s1.463,3.579,6.352,3.378Z" transform="translate(170.646 24580.953)" fill="#d78776"/>
        <path id="Trazado_176601" data-name="Trazado 176601" d="M60.309,84.453c-4.833-5.022-8.15-3.98-10.045-3.98a15.23,15.23,0,0,0-10.56,6.1v0c-1.35,1.4-3.273,5.97-3.493,7.583a37.748,37.748,0,0,0,.045,4.877,5.911,5.911,0,0,1-1.6,4.46c-.772.684-1.855,1.078-2.319,2a2.578,2.578,0,0,0,1.071,3.124,5.809,5.809,0,0,0,3.48.716,4.915,4.915,0,0,0,3.973,5.231,4.749,4.749,0,0,0,3.494-.916,26.713,26.713,0,0,0,2.6,2.234q.3-10.641-.447-21.278c3.252-.577,9.085-2.331,10.1-7.542,1.3,2.968,3.271,4.584,5.892,6.832,0,0,2.648-4.417-2.186-9.44" transform="translate(174.487 24586.537)" fill="#343766"/>
        <path id="Trazado_176602" data-name="Trazado 176602" d="M49.907,94.036a8.239,8.239,0,0,1,1.993.006,10.376,10.376,0,0,0,4.625-.54,4.344,4.344,0,0,0,1.93-1.566,5.364,5.364,0,0,0,.773-1.92c.227-1.182.115-1.95.193-1.955a4.056,4.056,0,0,1,.108,2.006,5.254,5.254,0,0,1-.741,2.087A4.561,4.561,0,0,1,56.7,93.9a9.5,9.5,0,0,1-4.82.449,10.272,10.272,0,0,1-1.969-.31" transform="translate(171.439 24585.219)" fill="#263238"/>
        <path id="Trazado_176603" data-name="Trazado 176603" d="M34.585,106.066a2.956,2.956,0,0,0,.8-.115,2.159,2.159,0,0,0,1.321-1.58,5.315,5.315,0,0,0-.594-3.156,12.761,12.761,0,0,1-.691-1.9,6.473,6.473,0,0,1-.137-2.194A8.993,8.993,0,0,1,36.736,93.2a15.046,15.046,0,0,1,2.2-2.6c.7-.668,1.3-1.165,1.714-1.5a3.137,3.137,0,0,1,.68-.489c.049.053-.843.846-2.178,2.209a16.309,16.309,0,0,0-2.082,2.593,8.915,8.915,0,0,0-1.36,3.756,6.207,6.207,0,0,0,.118,2.051,13.04,13.04,0,0,0,.649,1.845A5.453,5.453,0,0,1,37,104.442a2.3,2.3,0,0,1-1.567,1.669,1.46,1.46,0,0,1-.639.031c-.143-.029-.212-.064-.209-.076" transform="translate(174.067 24585.127)" fill="#263238"/>
        <path id="Trazado_176604" data-name="Trazado 176604" d="M75.877,99.748c.017-.011.158.18.153.586a1.836,1.836,0,0,1-.832,1.428,2.5,2.5,0,0,1-2.444.031,5.2,5.2,0,0,1-2.062-2.155A13.259,13.259,0,0,1,68.984,94.6a6.533,6.533,0,0,1-.031-2.2c.07,0,.093.838.333,2.155a14.869,14.869,0,0,0,1.779,4.866,5,5,0,0,0,1.868,2.019,2.225,2.225,0,0,0,2.1.066,1.738,1.738,0,0,0,.826-1.185c.055-.356-.022-.56.014-.571" transform="translate(168.183 24584.477)" fill="#263238"/>
        <path id="Trazado_176605" data-name="Trazado 176605" d="M68.22,193.8s16.61,53.913,15.564,71.325-13.209,60.643-13.209,60.643Z" transform="translate(168.298 24567.086)" fill="#343766"/>
        <path id="Trazado_176606" data-name="Trazado 176606" d="M38.272,182.594c-.369-.1-7.654,10.6-7.9,19.8a23.5,23.5,0,0,0,.1,2.7,33.823,33.823,0,0,0,2.293,9.383c6.159,15.552,12.51,34,12.614,38.2.323,12.946,2.849,72.454,2.849,72.454l17.9-1.263-.589-71.187-4.361-70.684Z" transform="translate(174.79 24569.107)" fill="#39548b"/>
        <path id="Trazado_176607" data-name="Trazado 176607" d="M51.711,182.346a38.034,38.034,0,0,1,.155,5.595c.036,3.612-.17,8.841.069,15.292.072,1.613.125,3.3.269,5.06.107,1.759.274,3.584.466,5.472.393,3.775.934,7.8,1.607,12.011s1.432,8.633,2.077,13.236,1.153,9.393,1.422,14.315c.3,4.925.229,9.741.319,14.386.07,4.646.177,9.127.3,13.394.252,8.536.554,16.221.8,22.674s.428,11.655.562,15.286c.055,1.789.1,3.185.128,4.156.027.95.031,1.45.031,1.45-.047-1.166-.332-8.22-.843-20.887-.263-6.453-.578-14.137-.839-22.674-.128-4.268-.239-8.75-.312-13.4-.092-4.647-.027-9.461-.322-14.378-.268-4.917-.771-9.7-1.417-14.3s-1.4-9.016-2.066-13.234-1.206-8.243-1.592-12.021c-.19-1.89-.354-3.717-.456-5.477-.141-1.758-.191-3.45-.258-5.064-.223-6.46,0-11.686-.014-15.3.011-1.806.01-3.208,0-4.158a6.016,6.016,0,0,0-.084-1.437" transform="translate(171.129 24569.049)" fill="#455a64"/>
        <path id="Trazado_177710" data-name="Trazado 177710" d="M0,0H18V2.712H0Z" transform="translate(222.928 24891.684)" fill="#455a64"/>
        <path id="Trazado_176608" data-name="Trazado 176608" d="M53.16,182.835c-.047,0-.092-.183-.1-.412s.027-.415.075-.417.091.183.1.412-.027.415-.075.417" transform="translate(170.898 24569.107)" fill="#455a64"/>
        <path id="Trazado_176609" data-name="Trazado 176609" d="M53.218,184.834c-.048,0-.092-.183-.1-.412s.027-.415.075-.416.091.182.1.411-.027.415-.075.417" transform="translate(170.889 24568.764)" fill="#455a64"/>
        <path id="Trazado_176610" data-name="Trazado 176610" d="M53.277,186.832c-.047,0-.092-.183-.1-.412s.027-.415.075-.417.091.183.1.412-.027.415-.074.417" transform="translate(170.878 24568.422)" fill="#455a64"/>
        <path id="Trazado_176611" data-name="Trazado 176611" d="M53.335,188.832c-.047,0-.092-.183-.1-.412s.027-.415.075-.416.091.182.1.411-.027.415-.074.417" transform="translate(170.868 24568.078)" fill="#455a64"/>
        <path id="Trazado_176612" data-name="Trazado 176612" d="M53.394,190.83c-.048,0-.092-.183-.1-.412s.027-.415.075-.417.091.183.1.412-.027.415-.074.417" transform="translate(170.858 24567.734)" fill="#455a64"/>
        <path id="Trazado_176613" data-name="Trazado 176613" d="M53.452,192.829c-.047,0-.092-.183-.1-.412s.027-.415.075-.417.091.183.1.412-.027.415-.074.417" transform="translate(170.848 24567.393)" fill="#455a64"/>
        <path id="Trazado_176614" data-name="Trazado 176614" d="M53.511,194.828c-.047,0-.092-.183-.1-.412s.027-.415.075-.417.091.183.1.412-.027.415-.074.417" transform="translate(170.838 24567.049)" fill="#455a64"/>
        <path id="Trazado_176615" data-name="Trazado 176615" d="M53.569,196.827c-.047,0-.092-.182-.1-.411s.027-.416.075-.418.091.183.1.412-.027.415-.075.417" transform="translate(170.828 24566.707)" fill="#455a64"/>
        <path id="Trazado_176616" data-name="Trazado 176616" d="M53.627,198.827c-.048,0-.092-.183-.1-.412s.027-.415.075-.417.091.183.1.412-.027.415-.074.417" transform="translate(170.818 24566.363)" fill="#455a64"/>
        <path id="Trazado_176617" data-name="Trazado 176617" d="M53.686,200.826c-.047,0-.092-.183-.1-.412s.027-.415.075-.417.091.183.1.412-.027.415-.075.417" transform="translate(170.808 24566.021)" fill="#455a64"/>
        <path id="Trazado_176618" data-name="Trazado 176618" d="M53.744,202.826c-.048,0-.092-.183-.1-.412s.027-.415.075-.416.091.182.1.411-.027.415-.074.417" transform="translate(170.798 24565.678)" fill="#455a64"/>
        <path id="Trazado_176619" data-name="Trazado 176619" d="M53.758,204.829c-.047,0-.087-.186-.089-.414s.036-.416.084-.416.087.186.089.414-.036.416-.084.416" transform="translate(170.794 24565.336)" fill="#455a64"/>
        <path id="Trazado_176620" data-name="Trazado 176620" d="M53.783,206.833c-.048,0-.089-.185-.093-.413s.032-.416.08-.417.089.185.093.413-.032.416-.08.417" transform="translate(170.791 24564.992)" fill="#455a64"/>
        <path id="Trazado_176621" data-name="Trazado 176621" d="M53.828,208.836c-.047,0-.091-.184-.1-.413s.028-.416.076-.417.091.183.1.413-.028.416-.076.417" transform="translate(170.784 24564.648)" fill="#455a64"/>
        <path id="Trazado_176622" data-name="Trazado 176622" d="M53.892,210.838c-.047,0-.093-.182-.1-.412s.024-.416.072-.418.093.183.1.412-.024.416-.072.418" transform="translate(170.773 24564.305)" fill="#455a64"/>
        <path id="Trazado_176623" data-name="Trazado 176623" d="M53.977,212.839c-.047,0-.094-.181-.105-.41s.02-.417.067-.418.1.181.105.41-.02.416-.067.418" transform="translate(170.759 24563.961)" fill="#455a64"/>
        <path id="Trazado_176624" data-name="Trazado 176624" d="M54.083,214.839c-.047,0-.1-.181-.109-.409s.015-.416.063-.418.1.181.109.409-.016.416-.063.418" transform="translate(170.742 24563.617)" fill="#455a64"/>
        <path id="Trazado_176625" data-name="Trazado 176625" d="M54.21,216.837c-.047,0-.1-.179-.114-.408s.011-.417.059-.42.1.18.113.408-.011.416-.058.419" transform="translate(170.721 24563.275)" fill="#455a64"/>
        <path id="Trazado_176626" data-name="Trazado 176626" d="M54.36,218.832c-.047,0-.1-.178-.118-.407s.006-.416.054-.42.1.179.118.407-.007.416-.054.42" transform="translate(170.697 24562.934)" fill="#455a64"/>
        <path id="Trazado_176627" data-name="Trazado 176627" d="M54.533,220.826c-.047,0-.1-.177-.123-.405s0-.416.049-.42.1.176.123.405,0,.416-.049.42" transform="translate(170.668 24562.59)" fill="#455a64"/>
        <path id="Trazado_176628" data-name="Trazado 176628" d="M54.728,222.817c-.047,0-.1-.176-.128-.4s0-.417.044-.421.1.176.128.4,0,.416-.044.421" transform="translate(170.635 24562.248)" fill="#455a64"/>
        <path id="Trazado_176629" data-name="Trazado 176629" d="M54.944,224.806c-.047.006-.107-.175-.132-.4s-.008-.417.039-.422.107.175.133.4.007.415-.04.421" transform="translate(170.6 24561.908)" fill="#455a64"/>
        <path id="Trazado_176630" data-name="Trazado 176630" d="M55.183,226.79c-.047.006-.109-.173-.137-.4s-.012-.416.036-.422.108.173.136.4.012.416-.035.422" transform="translate(170.56 24561.566)" fill="#455a64"/>
        <path id="Trazado_176631" data-name="Trazado 176631" d="M55.441,228.771c-.046.007-.11-.172-.139-.4s-.017-.415.03-.422.11.172.14.4.017.415-.031.422" transform="translate(170.517 24561.227)" fill="#455a64"/>
        <path id="Trazado_176632" data-name="Trazado 176632" d="M55.718,230.746c-.047.007-.112-.171-.144-.4s-.02-.414.027-.421.111.171.144.4.02.414-.027.421" transform="translate(170.47 24560.887)" fill="#455a64"/>
        <path id="Trazado_176633" data-name="Trazado 176633" d="M56.012,232.719c-.047.007-.114-.171-.147-.4s-.024-.415.023-.422.114.17.147.4.024.415-.023.423" transform="translate(170.421 24560.549)" fill="#455a64"/>
        <path id="Trazado_176634" data-name="Trazado 176634" d="M56.321,234.693c-.047.007-.114-.169-.15-.4s-.027-.415.02-.423.114.17.151.4.027.415-.021.423" transform="translate(170.369 24560.211)" fill="#455a64"/>
        <path id="Trazado_176635" data-name="Trazado 176635" d="M56.642,236.664c-.047.007-.115-.169-.152-.394s-.029-.414.018-.422.115.168.152.394.029.415-.018.423" transform="translate(170.314 24559.873)" fill="#455a64"/>
        <path id="Trazado_176636" data-name="Trazado 176636" d="M56.971,238.633c-.047.008-.116-.168-.153-.394s-.031-.414.016-.422.116.168.154.394.031.413-.017.422" transform="translate(170.258 24559.535)" fill="#455a64"/>
        <path id="Trazado_176637" data-name="Trazado 176637" d="M57.3,240.6c-.047.008-.116-.168-.154-.393s-.031-.414.016-.423.116.168.154.394.031.413-.016.422" transform="translate(170.201 24559.197)" fill="#455a64"/>
        <path id="Trazado_176638" data-name="Trazado 176638" d="M57.639,242.566c-.047.008-.116-.168-.154-.393s-.031-.413.016-.422.116.168.154.393.031.413-.016.422" transform="translate(170.143 24558.859)" fill="#455a64"/>
        <path id="Trazado_176639" data-name="Trazado 176639" d="M57.97,244.532c-.047.008-.116-.168-.153-.393s-.031-.414.017-.422.116.168.153.393.031.413-.017.422" transform="translate(170.086 24558.523)" fill="#455a64"/>
        <path id="Trazado_176640" data-name="Trazado 176640" d="M58.3,246.5c-.047.007-.115-.168-.152-.394s-.029-.413.018-.422.115.169.152.394.029.414-.018.422" transform="translate(170.03 24558.186)" fill="#455a64"/>
        <path id="Trazado_176641" data-name="Trazado 176641" d="M58.611,248.468c-.047.007-.114-.169-.15-.394s-.026-.413.021-.421.114.169.15.394.027.413-.021.421" transform="translate(169.975 24557.848)" fill="#455a64"/>
        <path id="Trazado_176642" data-name="Trazado 176642" d="M58.912,250.438c-.047.007-.113-.17-.147-.4s-.024-.414.023-.422.114.17.147.4.023.413-.024.421" transform="translate(169.923 24557.51)" fill="#455a64"/>
        <path id="Trazado_176643" data-name="Trazado 176643" d="M59.2,252.411c-.047.007-.112-.171-.143-.4s-.02-.414.027-.421.111.171.143.4.02.414-.027.421" transform="translate(169.873 24557.172)" fill="#455a64"/>
        <path id="Trazado_176644" data-name="Trazado 176644" d="M59.467,254.387c-.047.006-.11-.172-.14-.4s-.016-.414.031-.421.11.172.14.4.016.414-.031.421" transform="translate(169.826 24556.834)" fill="#455a64"/>
        <path id="Trazado_176645" data-name="Trazado 176645" d="M59.714,256.367c-.047.006-.108-.173-.136-.4s-.012-.414.036-.42.109.173.136.4.012.415-.036.421" transform="translate(169.783 24556.494)" fill="#455a64"/>
        <path id="Trazado_176646" data-name="Trazado 176646" d="M59.941,258.351c-.047.005-.106-.175-.132-.4s-.007-.415.041-.42.106.174.132.4.007.415-.041.42" transform="translate(169.742 24556.152)" fill="#455a64"/>
        <path id="Trazado_176647" data-name="Trazado 176647" d="M60.146,260.336c-.047.005-.1-.176-.127-.4s0-.416.045-.421.1.176.127.4,0,.416-.045.42" transform="translate(169.706 24555.814)" fill="#455a64"/>
        <path id="Trazado_176648" data-name="Trazado 176648" d="M60.327,262.326c-.047,0-.1-.177-.122-.4s0-.416.05-.42.1.176.122.4,0,.416-.05.42" transform="translate(169.674 24555.473)" fill="#455a64"/>
        <path id="Trazado_176649" data-name="Trazado 176649" d="M60.486,264.318c-.047,0-.1-.178-.118-.406s.007-.416.055-.419.1.178.118.406-.007.416-.055.419" transform="translate(169.646 24555.131)" fill="#455a64"/>
        <path id="Trazado_176650" data-name="Trazado 176650" d="M60.623,266.313c-.047,0-.1-.18-.113-.408s.012-.415.059-.418.1.179.114.408-.012.416-.06.418" transform="translate(169.621 24554.789)" fill="#455a64"/>
        <path id="Trazado_176651" data-name="Trazado 176651" d="M60.736,268.3c-.047,0-.1-.18-.109-.408s.017-.413.065-.417.1.18.108.408-.017.414-.064.417" transform="translate(169.601 24554.447)" fill="#455a64"/>
        <path id="Trazado_176652" data-name="Trazado 176652" d="M60.827,270.293c-.048,0-.094-.181-.1-.409s.021-.414.068-.417.094.181.1.409-.022.415-.069.417" transform="translate(169.584 24554.105)" fill="#455a64"/>
        <path id="Trazado_176653" data-name="Trazado 176653" d="M60.9,272.289c-.047,0-.092-.182-.1-.411s.025-.414.073-.416.092.182.1.41-.025.415-.073.417" transform="translate(169.571 24553.764)" fill="#455a64"/>
        <path id="Trazado_176654" data-name="Trazado 176654" d="M60.948,274.287c-.047,0-.09-.183-.1-.412s.03-.415.077-.416.09.183.1.412-.029.415-.077.416" transform="translate(169.562 24553.422)" fill="#455a64"/>
        <path id="Trazado_176655" data-name="Trazado 176655" d="M60.978,276.285c-.048,0-.089-.185-.091-.413s.033-.414.081-.415.089.185.091.413-.034.414-.081.415" transform="translate(169.556 24553.078)" fill="#455a64"/>
        <path id="Trazado_176656" data-name="Trazado 176656" d="M60.993,278.288c-.048,0-.088-.185-.089-.413s.036-.414.084-.415.088.185.089.413-.036.415-.084.415" transform="translate(169.553 24552.734)" fill="#455a64"/>
        <path id="Trazado_176657" data-name="Trazado 176657" d="M61.01,280.289c-.047,0-.087-.185-.09-.413s.035-.414.084-.415.087.185.089.413-.034.414-.082.415" transform="translate(169.55 24552.391)" fill="#455a64"/>
        <path id="Trazado_176658" data-name="Trazado 176658" d="M61.033,282.288c-.048,0-.089-.185-.091-.413s.034-.414.081-.415.089.185.091.413-.033.414-.081.415" transform="translate(169.546 24552.049)" fill="#455a64"/>
        <path id="Trazado_176659" data-name="Trazado 176659" d="M61.06,284.288c-.048,0-.089-.184-.092-.413s.032-.414.08-.415.089.185.092.413-.033.414-.08.415" transform="translate(169.542 24551.705)" fill="#455a64"/>
        <path id="Trazado_176660" data-name="Trazado 176660" d="M61.091,286.288c-.047,0-.089-.184-.093-.413s.031-.415.08-.416.089.184.093.413-.032.415-.08.416" transform="translate(169.537 24551.363)" fill="#455a64"/>
        <path id="Trazado_176661" data-name="Trazado 176661" d="M61.127,288.288c-.047,0-.089-.184-.094-.413s.031-.415.079-.416.089.184.094.413-.031.415-.079.416" transform="translate(169.531 24551.02)" fill="#455a64"/>
        <path id="Trazado_176662" data-name="Trazado 176662" d="M61.165,290.286c-.047,0-.09-.184-.094-.413s.03-.415.078-.416.089.184.094.413-.03.415-.078.416" transform="translate(169.524 24550.678)" fill="#455a64"/>
        <path id="Trazado_176663" data-name="Trazado 176663" d="M61.209,292.286c-.048,0-.09-.184-.1-.413s.029-.415.077-.416.09.184.1.413-.03.415-.077.416" transform="translate(169.517 24550.334)" fill="#455a64"/>
        <path id="Trazado_176664" data-name="Trazado 176664" d="M61.256,294.286c-.048,0-.09-.183-.1-.412s.029-.415.076-.417.09.184.1.413-.029.415-.076.416" transform="translate(169.509 24549.99)" fill="#455a64"/>
        <path id="Trazado_176665" data-name="Trazado 176665" d="M61.306,296.286c-.048,0-.091-.183-.1-.412s.028-.415.075-.417.091.183.1.412-.028.415-.075.417" transform="translate(169.5 24549.648)" fill="#455a64"/>
        <path id="Trazado_176666" data-name="Trazado 176666" d="M61.36,298.285c-.047,0-.091-.183-.1-.412s.027-.415.075-.417.091.183.1.412-.027.415-.075.417" transform="translate(169.492 24549.305)" fill="#455a64"/>
        <path id="Trazado_176667" data-name="Trazado 176667" d="M61.417,300.284c-.047,0-.092-.183-.1-.412s.027-.415.074-.417.092.183.1.412-.027.415-.075.417" transform="translate(169.482 24548.963)" fill="#455a64"/>
        <path id="Trazado_176668" data-name="Trazado 176668" d="M61.475,302.282c-.048,0-.092-.183-.1-.412s.026-.415.074-.417.092.183.1.412-.027.415-.074.417" transform="translate(169.472 24548.619)" fill="#455a64"/>
        <path id="Trazado_176669" data-name="Trazado 176669" d="M61.537,304.282c-.047,0-.092-.183-.1-.411s.026-.416.074-.417.092.182.1.411-.026.415-.073.417" transform="translate(169.462 24548.277)" fill="#455a64"/>
        <path id="Trazado_176670" data-name="Trazado 176670" d="M61.6,306.281c-.047,0-.092-.182-.1-.411s.025-.416.072-.417.093.182.1.411-.026.415-.073.417" transform="translate(169.45 24547.934)" fill="#455a64"/>
        <path id="Trazado_176671" data-name="Trazado 176671" d="M61.669,308.28c-.047,0-.093-.182-.1-.411s.025-.415.072-.417.093.182.1.411-.025.415-.072.417" transform="translate(169.439 24547.59)" fill="#455a64"/>
        <path id="Trazado_176672" data-name="Trazado 176672" d="M61.738,310.279c-.047,0-.093-.182-.1-.411s.025-.415.072-.417.093.182.1.411-.025.415-.072.417" transform="translate(169.428 24547.248)" fill="#455a64"/>
        <path id="Trazado_176673" data-name="Trazado 176673" d="M61.809,312.278c-.048,0-.093-.182-.1-.411s.024-.415.071-.417.093.182.1.411-.024.415-.071.417" transform="translate(169.416 24546.904)" fill="#455a64"/>
        <path id="Trazado_176674" data-name="Trazado 176674" d="M61.881,314.277c-.047,0-.093-.182-.1-.411s.023-.415.07-.417.094.181.1.41-.024.416-.071.418" transform="translate(169.403 24546.563)" fill="#455a64"/>
        <path id="Trazado_176675" data-name="Trazado 176675" d="M61.955,316.275c-.047,0-.093-.182-.1-.411s.023-.415.071-.417.093.182.1.411-.023.415-.071.417" transform="translate(169.39 24546.219)" fill="#455a64"/>
        <path id="Trazado_176676" data-name="Trazado 176676" d="M62.031,318.274c-.047,0-.094-.182-.1-.411s.023-.415.07-.417.094.181.1.41-.022.416-.07.418" transform="translate(169.377 24545.877)" fill="#455a64"/>
        <path id="Trazado_176677" data-name="Trazado 176677" d="M62.108,320.272c-.047,0-.094-.182-.1-.411s.022-.415.07-.417.093.181.1.41-.023.416-.07.418" transform="translate(169.364 24545.533)" fill="#455a64"/>
        <path id="Trazado_176678" data-name="Trazado 176678" d="M62.184,322.271c-.047,0-.094-.182-.1-.41s.023-.416.07-.418.094.181.1.41-.023.416-.07.418" transform="translate(169.351 24545.191)" fill="#455a64"/>
        <path id="Trazado_176679" data-name="Trazado 176679" d="M62.263,324.269c-.047,0-.094-.182-.1-.41s.022-.416.07-.418.094.181.1.41-.022.416-.07.418" transform="translate(169.338 24544.85)" fill="#455a64"/>
        <path id="Trazado_176680" data-name="Trazado 176680" d="M62.341,326.268c-.047,0-.094-.182-.1-.41s.022-.416.07-.418.094.181.1.41-.022.416-.07.418" transform="translate(169.324 24544.506)" fill="#455a64"/>
        <path id="Trazado_176681" data-name="Trazado 176681" d="M62.421,328.266c-.047,0-.094-.182-.1-.41s.022-.416.07-.418.094.181.1.41-.022.416-.07.418" transform="translate(169.311 24544.164)" fill="#455a64"/>
        <path id="Trazado_176682" data-name="Trazado 176682" d="M62.5,330.265c-.048,0-.094-.182-.1-.41s.022-.416.07-.418.094.181.1.41-.022.416-.07.418" transform="translate(169.297 24543.82)" fill="#455a64"/>
        <path id="Trazado_176683" data-name="Trazado 176683" d="M62.58,332.263c-.047,0-.094-.182-.1-.41s.022-.416.07-.418.094.181.1.41-.022.416-.07.418" transform="translate(169.283 24543.479)" fill="#455a64"/>
        <path id="Trazado_176684" data-name="Trazado 176684" d="M62.659,334.262c-.047,0-.094-.182-.1-.41s.022-.416.07-.418.094.181.1.41-.022.416-.07.418" transform="translate(169.27 24543.135)" fill="#455a64"/>
        <path id="Trazado_176685" data-name="Trazado 176685" d="M62.738,336.26c-.048,0-.094-.182-.1-.41s.022-.416.07-.418.094.181.1.41-.022.416-.07.418" transform="translate(169.256 24542.791)" fill="#455a64"/>
        <path id="Trazado_176686" data-name="Trazado 176686" d="M62.816,338.259c-.047,0-.094-.182-.1-.411s.023-.415.07-.417.094.181.1.41-.023.416-.07.418" transform="translate(169.243 24542.449)" fill="#455a64"/>
        <path id="Trazado_176687" data-name="Trazado 176687" d="M62.894,340.257c-.047,0-.094-.182-.1-.411s.022-.415.07-.417.093.181.1.41-.023.416-.07.418" transform="translate(169.229 24542.105)" fill="#455a64"/>
        <path id="Trazado_176688" data-name="Trazado 176688" d="M62.971,342.256c-.047,0-.094-.182-.1-.411s.023-.415.071-.417.094.181.1.41-.022.416-.07.418" transform="translate(169.216 24541.764)" fill="#455a64"/>
        <path id="Trazado_176689" data-name="Trazado 176689" d="M63.045,344.254c-.047,0-.093-.182-.1-.411s.023-.415.071-.417.093.181.1.41-.022.416-.07.418" transform="translate(169.203 24541.42)" fill="#455a64"/>
        <path id="Trazado_176690" data-name="Trazado 176690" d="M63.119,346.253c-.047,0-.093-.182-.1-.411s.023-.415.071-.417.093.181.1.41-.023.416-.071.418" transform="translate(169.19 24541.078)" fill="#455a64"/>
        <path id="Trazado_176691" data-name="Trazado 176691" d="M63.19,348.252c-.048,0-.093-.182-.1-.411s.024-.415.071-.417.093.182.1.411-.024.415-.071.417" transform="translate(169.178 24540.734)" fill="#455a64"/>
        <path id="Trazado_176692" data-name="Trazado 176692" d="M63.26,350.258c-.047,0-.093-.183-.1-.413s.024-.417.071-.418.093.183.1.413-.025.417-.072.418" transform="translate(169.166 24540.393)" fill="#455a64"/>
        <path id="Trazado_176693" data-name="Trazado 176693" d="M63.327,352.261c-.046,0-.093-.183-.1-.412s.024-.416.072-.418.092.183.1.412-.025.416-.073.418" transform="translate(169.155 24540.047)" fill="#455a64"/>
        <path id="Trazado_176694" data-name="Trazado 176694" d="M63.377,353.805c-.047,0-.089-.08-.092-.183s.032-.187.08-.189.089.08.092.183-.033.187-.08.189" transform="translate(169.144 24539.703)" fill="#455a64"/>
        <path id="Trazado_176695" data-name="Trazado 176695" d="M68.535,201.064a.859.859,0,0,1-.763.041,1.487,1.487,0,0,1-.727-.555,2.574,2.574,0,0,1-.389-1.148c-.143-1.777-.263-4.22-.418-6.926-.134-2.644-.255-5.035-.351-6.927-.033-.807-.062-1.5-.086-2.1-.006-.205-.011-.394-.015-.572a.86.86,0,0,1,.007-.2.906.906,0,0,1,.028.2c.015.176.03.365.047.569.04.595.087,1.292.141,2.1.11,1.891.249,4.282.4,6.924s.266,5.03.366,6.921a2.511,2.511,0,0,0,.347,1.108,1.445,1.445,0,0,0,.671.547,1.1,1.1,0,0,0,.74.022" transform="translate(168.715 24568.992)" fill="#455a64"/>
        <path id="Trazado_176696" data-name="Trazado 176696" d="M32.641,217.408a2.735,2.735,0,0,0,.655-.2,2.58,2.58,0,0,0,1.217-1.347,6.41,6.41,0,0,0,.3-2.738,28.831,28.831,0,0,0-.34-3.406,29.352,29.352,0,0,0-1.595-5.884l.069.038-1.952.321-.533.079a.741.741,0,0,1-.187.016.757.757,0,0,1,.181-.051l.526-.111,1.942-.376.05-.01.019.048a27.047,27.047,0,0,1,1.978,9.33,6.385,6.385,0,0,1-.343,2.79,2.589,2.589,0,0,1-1.3,1.361,1.4,1.4,0,0,1-.683.135" transform="translate(174.807 24565.379)" fill="#455a64"/>
        <path id="Trazado_176697" data-name="Trazado 176697" d="M33.586,206.855a7.864,7.864,0,0,1-1.58.442,7.867,7.867,0,0,1-1.618.274,7.861,7.861,0,0,1,1.58-.442,7.867,7.867,0,0,1,1.618-.274" transform="translate(174.787 24564.846)" fill="#455a64"/>
        <path id="Trazado_176698" data-name="Trazado 176698" d="M118.108,106.774l-9.283-7.6c-25.218,22.757-57.734,20.169-57.734,20.169l0,.054c-1.452-.236-9.115-1.465-11.648-1.512-1.983-.037-6.562-.4-9.8,2.659-.08.076-.159.152-.238.232-2.932,2.864-32.293,31.8-29.175,38.969,3.28,7.546,31.183,23.939,31.183,23.939L38.174,171.4s-2.105-1.38-4.983-3.328l22.785-.585,1.007-17.058s3.889-4.349,3.889-7.469c0-2.17-1.2-5.751-2.739-9.473,35.923-3,59.976-26.718,59.976-26.718M17.127,155.641c.268-.892,6.105-7.277,11.373-12.914,1.829,11.146,4.3,23.988,4.543,25.251-6.337-4.291-16.252-11.217-15.916-12.336" transform="translate(179.999 24583.314)" fill="#f9dd89"/>
        <path id="Trazado_176699" data-name="Trazado 176699" d="M65.451,155.14s-.288.03-.84.031a8.979,8.979,0,0,1-2.393-.289,4.453,4.453,0,0,1-2.925-2.333,2.7,2.7,0,0,1,.007-2.363,2.394,2.394,0,0,1,2.2-1.414,2.462,2.462,0,0,1,2.089,1.951,3.669,3.669,0,0,1-.811,3.058,7.256,7.256,0,0,1-6.33,2.6,7.488,7.488,0,0,1-3.611-1.229,5.674,5.674,0,0,1-2.389-3.161,3.256,3.256,0,0,1,.114-2.078,2.82,2.82,0,0,1,1.543-1.446,2.054,2.054,0,0,1,2.107.266,2.3,2.3,0,0,1,.742,2.026,4.547,4.547,0,0,1-.722,2.045,6.791,6.791,0,0,1-1.47,1.545,8.028,8.028,0,0,1-3.813,1.563,7.6,7.6,0,0,1-7.068-2.6,4.014,4.014,0,0,1-.782-1.7,3.013,3.013,0,0,1,.228-1.809,2.211,2.211,0,0,1,1.31-1.19,2.386,2.386,0,0,1,1.709.153,2.994,2.994,0,0,1,1.769,2.582,3.885,3.885,0,0,1-1.135,2.7,5.937,5.937,0,0,1-4.627,1.774,7.19,7.19,0,0,1-3.613-1.163A6.172,6.172,0,0,1,35,153.006a4.55,4.55,0,0,1-.432-.721c.016-.01.146.252.475.69a6.329,6.329,0,0,0,1.756,1.6,7.139,7.139,0,0,0,3.564,1.1,5.792,5.792,0,0,0,4.487-1.755,3.7,3.7,0,0,0,1.07-2.575,2.791,2.791,0,0,0-1.659-2.39,2.172,2.172,0,0,0-1.553-.137,1.982,1.982,0,0,0-1.171,1.076,2.784,2.784,0,0,0-.2,1.67,3.789,3.789,0,0,0,.742,1.594,7.365,7.365,0,0,0,6.842,2.5,7.787,7.787,0,0,0,3.691-1.516,6.555,6.555,0,0,0,1.409-1.481,4.277,4.277,0,0,0,.682-1.925,2.036,2.036,0,0,0-.65-1.808,1.792,1.792,0,0,0-1.847-.224,2.564,2.564,0,0,0-1.4,1.309,3.007,3.007,0,0,0-.1,1.911,5.434,5.434,0,0,0,2.282,3.02,7.256,7.256,0,0,0,3.491,1.2,7.04,7.04,0,0,0,6.14-2.495,3.47,3.47,0,0,0,.788-2.88,2.274,2.274,0,0,0-1.908-1.816,2.226,2.226,0,0,0-2.04,1.3,2.547,2.547,0,0,0-.022,2.23,4.354,4.354,0,0,0,2.821,2.295,9.412,9.412,0,0,0,2.366.334l.625.012a1.354,1.354,0,0,1,.214.009" transform="translate(174.071 24574.889)" fill="#fff"/>
        <path id="Trazado_176700" data-name="Trazado 176700" d="M63.067,174.867s-.137.1-.409.283-.675.442-1.2.766a10.269,10.269,0,0,1-2.032,1,6.762,6.762,0,0,1-2.986.265,5.638,5.638,0,0,1-3.363-1.339,3.1,3.1,0,0,1-.929-1.83,2.165,2.165,0,0,1,.838-1.986,1.935,1.935,0,0,1,1.09-.415,1.653,1.653,0,0,1,1.13.4,2.357,2.357,0,0,1,.71,2.257,3.875,3.875,0,0,1-1.36,2.059,7.678,7.678,0,0,1-2.191,1.269,8.391,8.391,0,0,1-4.924.307,6.088,6.088,0,0,1-3.831-2.5,2.333,2.333,0,0,1-.2-2.153,2.153,2.153,0,0,1,1.65-1.205,1.327,1.327,0,0,1,.973.281,1.529,1.529,0,0,1,.515.824,2.122,2.122,0,0,1-.35,1.728,5.1,5.1,0,0,1-2.459,1.708,6.231,6.231,0,0,1-2.239.343,5.593,5.593,0,0,1-1.415-.215,3.186,3.186,0,0,1-.469-.167,7.6,7.6,0,0,0,1.886.282,6.258,6.258,0,0,0,2.188-.379,4.988,4.988,0,0,0,2.356-1.673,1.936,1.936,0,0,0,.308-1.576,1.189,1.189,0,0,0-1.274-.941,1.941,1.941,0,0,0-1.465,1.089,2.112,2.112,0,0,0,.205,1.936,5.875,5.875,0,0,0,3.684,2.371,8.155,8.155,0,0,0,4.772-.3,7.453,7.453,0,0,0,2.117-1.224,3.629,3.629,0,0,0,1.279-1.916,2.112,2.112,0,0,0-.622-2.014,1.488,1.488,0,0,0-1.915.017,1.929,1.929,0,0,0-.758,1.773,2.882,2.882,0,0,0,.854,1.7A5.481,5.481,0,0,0,56.457,177a6.675,6.675,0,0,0,2.92-.221,10.575,10.575,0,0,0,2.026-.949l1.228-.723c.282-.164.437-.239.437-.239" transform="translate(173.205 24570.891)" fill="#fff"/>
        <path id="Trazado_176701" data-name="Trazado 176701" d="M81.985,122.2a3.471,3.471,0,0,1,.92.637,4.38,4.38,0,0,1,1.366,2.7,4.56,4.56,0,0,1-.258,2.11,4.726,4.726,0,0,1-1.441,1.969,5.1,5.1,0,0,1-2.465,1.088,4.373,4.373,0,0,1-1.442-.017,2.012,2.012,0,0,1-1.322-.736.97.97,0,0,1-.142-.8,1.227,1.227,0,0,1,.465-.64,2.333,2.333,0,0,1,1.406-.413,3.439,3.439,0,0,1,2.456,1.093,3.656,3.656,0,0,1,.952,2.244,4.4,4.4,0,0,1-.368,2.094,5.143,5.143,0,0,1-2.038,2.252,5.275,5.275,0,0,1-.741.378,1.058,1.058,0,0,1-.275.091c-.011-.023.366-.162.962-.553a5.2,5.2,0,0,0,1.924-2.24,4.254,4.254,0,0,0,.321-2,3.451,3.451,0,0,0-.91-2.1,3.213,3.213,0,0,0-2.282-1,2.087,2.087,0,0,0-1.251.365.778.778,0,0,0-.263,1.091,1.775,1.775,0,0,0,1.153.626,4.148,4.148,0,0,0,1.36.019,4.9,4.9,0,0,0,2.352-1.022,4.354,4.354,0,0,0,.412-6.521,10.923,10.923,0,0,0-.849-.71" transform="translate(166.764 24579.365)" fill="#fff"/>
        <path id="Trazado_176702" data-name="Trazado 176702" d="M96.57,118.647a1.487,1.487,0,0,1,.406.5,1.345,1.345,0,0,1,.138.759,2.7,2.7,0,0,1-.336.958,9.2,9.2,0,0,1-1.513,2.111,16.075,16.075,0,0,0-2.038,2.373,8.995,8.995,0,0,0-1.361,5.4,13.939,13.939,0,0,0,.428,2.318,2.662,2.662,0,0,1-.251-.59,8.039,8.039,0,0,1-.36-1.713,8.828,8.828,0,0,1,1.326-5.552,15.132,15.132,0,0,1,2.083-2.4,9.588,9.588,0,0,0,1.525-2.036,2.643,2.643,0,0,0,.354-.887,1.293,1.293,0,0,0-.087-.7c-.167-.362-.336-.528-.314-.544" transform="translate(164.281 24579.975)" fill="#fff"/>
        <path id="Trazado_176703" data-name="Trazado 176703" d="M107.607,127.89a2.688,2.688,0,0,1-1.238.256,3.6,3.6,0,0,1-2.976-1.583,5.369,5.369,0,0,1-.167-5,5.986,5.986,0,0,1,1.833-2.427,3.6,3.6,0,0,1,3.165-.65,2.507,2.507,0,0,1,1.851,2.55,1.976,1.976,0,0,1-.691,1.433,2.294,2.294,0,0,1-1.432.524,3.563,3.563,0,0,1-2.558-.988,4.6,4.6,0,0,1-1.24-2.052,4.922,4.922,0,0,1,.208-3.41,3.3,3.3,0,0,1,.707-1.048,7.238,7.238,0,0,0-.614,1.088,4.918,4.918,0,0,0-.126,3.317,4.451,4.451,0,0,0,1.211,1.948,3.354,3.354,0,0,0,2.4.907,2.057,2.057,0,0,0,1.281-.473,1.727,1.727,0,0,0,.6-1.259,2.27,2.27,0,0,0-1.67-2.289,3.36,3.36,0,0,0-2.94.606,5.783,5.783,0,0,0-1.766,2.318,5.211,5.211,0,0,0,.1,4.8,3.525,3.525,0,0,0,2.824,1.582,4.782,4.782,0,0,0,1.236-.155" transform="translate(162.385 24580.514)" fill="#fff"/>
        <path id="Trazado_176704" data-name="Trazado 176704" d="M116.533,110.247a1.924,1.924,0,0,1,.505.207,6.459,6.459,0,0,1,1.247.823,6.357,6.357,0,0,1,1.423,1.7,8.421,8.421,0,0,1,.938,2.55,8.1,8.1,0,0,1-.554,4.846,7.1,7.1,0,0,1-.743,1.293,1.924,1.924,0,0,1-.356.414,16.456,16.456,0,0,0,.931-1.78,8.354,8.354,0,0,0,.469-4.723,8.631,8.631,0,0,0-.891-2.483,6.547,6.547,0,0,0-1.337-1.683,14.868,14.868,0,0,0-1.631-1.167" transform="translate(160.012 24581.416)" fill="#fff"/>
        <path id="Trazado_176705" data-name="Trazado 176705" d="M131.422,114.276a3.24,3.24,0,0,1-1.056.246,3.6,3.6,0,0,1-1.275-.116,3.1,3.1,0,0,1-1.433-.91,5.082,5.082,0,0,1-1.267-4.126,3.208,3.208,0,0,1,1.338-2.229,2.565,2.565,0,0,1,1.342-.449,2.069,2.069,0,0,1,1.383.474,1.972,1.972,0,0,1,.736,1.268,1.82,1.82,0,0,1-.42,1.362,2.723,2.723,0,0,1-2.43.888,4.916,4.916,0,0,1-3.654-2.284,2.7,2.7,0,0,1-.487-1.625,3.622,3.622,0,0,1,.345-1.234c.143-.319.264-.559.346-.722a1.157,1.157,0,0,1,.138-.244,1.131,1.131,0,0,1-.09.266c-.088.216-.186.46-.3.74a3.688,3.688,0,0,0-.293,1.2,2.576,2.576,0,0,0,.5,1.52,4.757,4.757,0,0,0,3.519,2.145,2.489,2.489,0,0,0,2.212-.809,1.568,1.568,0,0,0,.361-1.172,1.724,1.724,0,0,0-.643-1.1,2,2,0,0,0-2.42-.014,2.971,2.971,0,0,0-1.244,2.055,4.936,4.936,0,0,0,1.166,3.964,3.118,3.118,0,0,0,2.568,1.05,10.012,10.012,0,0,0,1.061-.146" transform="translate(158.698 24582.389)" fill="#fff"/>
        <path id="Trazado_176706" data-name="Trazado 176706" d="M62.934,165.768a3.9,3.9,0,0,1-.775.688,7.3,7.3,0,0,1-2.574,1.158,12.619,12.619,0,0,1-4.182.243,34.808,34.808,0,0,1-5.025-1A26.086,26.086,0,0,0,45.373,166a10.664,10.664,0,0,0-4.065.574,7.263,7.263,0,0,0-2.39,1.4c-.485.447-.7.748-.723.73a4.3,4.3,0,0,1,.654-.8,6.967,6.967,0,0,1,2.4-1.495,10.592,10.592,0,0,1,4.138-.641,25.258,25.258,0,0,1,5.057.846,36.863,36.863,0,0,0,4.987,1.014,12.88,12.88,0,0,0,4.117-.184,8.076,8.076,0,0,0,3.391-1.668" transform="translate(173.448 24571.895)" fill="#fff"/>
        <path id="Trazado_176707" data-name="Trazado 176707" d="M25.708,135.129a2.013,2.013,0,0,1,1.543-.3,4.189,4.189,0,0,1,1.7.788c.6.427,1.2.986,1.933,1.547.708.589,1.4,1.328,2.235,1.981a7.181,7.181,0,0,0,3.06,1.363,13.975,13.975,0,0,0,7.617-1.1,72.722,72.722,0,0,1,7.32-2.916,12.076,12.076,0,0,1,3.421-.49,9.784,9.784,0,0,1,2.965.531,6.646,6.646,0,0,1,3.466,2.546,3.5,3.5,0,0,1,.336.6,2.369,2.369,0,0,1,.191.463,2.307,2.307,0,0,1,.115.4,8.142,8.142,0,0,0-.725-1.4,6.662,6.662,0,0,0-3.442-2.429,9.685,9.685,0,0,0-2.909-.49,12,12,0,0,0-3.353.5,76.317,76.317,0,0,0-7.289,2.928,14.09,14.09,0,0,1-7.759,1.092,7.378,7.378,0,0,1-3.146-1.427c-.854-.677-1.531-1.422-2.223-2.011-.713-.564-1.321-1.144-1.9-1.569a4.158,4.158,0,0,0-1.635-.806,2.478,2.478,0,0,0-1.525.2" transform="translate(175.59 24577.203)" fill="#fff"/>
        <path id="Trazado_176708" data-name="Trazado 176708" d="M64.95,123.5a4.1,4.1,0,0,1,.121.669,5.743,5.743,0,0,1-.122,1.943,6.737,6.737,0,0,1-1.373,2.753,5.875,5.875,0,0,1-3.5,2.03,6.584,6.584,0,0,1-4.775-1.055,5.139,5.139,0,0,1-1.836-2.088,1.479,1.479,0,0,1,.154-1.476,1.939,1.939,0,0,1,1.363-.7,1.846,1.846,0,0,1,1.488.495,2.307,2.307,0,0,1,.64,1.467,3.371,3.371,0,0,1-1.352,2.883,8.5,8.5,0,0,1-3.037,1.389,10.214,10.214,0,0,1-3.41.43,5.724,5.724,0,0,1-3.219-1.2,3.834,3.834,0,0,1-1.5-2.952,3.011,3.011,0,0,1,1.506-2.784,2.747,2.747,0,0,1,3.01.332,2.487,2.487,0,0,1,.476,2.827,3.823,3.823,0,0,1-1.976,1.935,8.994,8.994,0,0,1-4.888.631,10.444,10.444,0,0,1-6.248-3.278,9.253,9.253,0,0,1-1.149-1.572c-.21-.394-.308-.606-.308-.606a11.722,11.722,0,0,0,1.531,2.108,10.45,10.45,0,0,0,6.2,3.166,8.846,8.846,0,0,0,4.77-.643,3.612,3.612,0,0,0,1.858-1.829,2.258,2.258,0,0,0-.425-2.563,2.511,2.511,0,0,0-2.738-.288,2.766,2.766,0,0,0-1.365,2.559,3.577,3.577,0,0,0,1.406,2.756,5.473,5.473,0,0,0,3.075,1.141,9.952,9.952,0,0,0,3.323-.42,8.269,8.269,0,0,0,2.948-1.339,3.119,3.119,0,0,0,1.264-2.666,2.061,2.061,0,0,0-.566-1.315,1.6,1.6,0,0,0-1.294-.428,1.7,1.7,0,0,0-1.2.6,1.246,1.246,0,0,0-.127,1.251,4.955,4.955,0,0,0,1.746,1.993,6.413,6.413,0,0,0,4.623,1.053,5.741,5.741,0,0,0,3.418-1.944A6.447,6.447,0,0,0,64.95,123.5" transform="translate(173.993 24579.143)" fill="#fff"/>
        <path id="Trazado_176709" data-name="Trazado 176709" d="M20.117,140.834a1.823,1.823,0,0,1,.329-.134c.219-.077.543-.19.972-.3a5.754,5.754,0,0,1,3.709.15,5.458,5.458,0,0,1,2.134,1.487,4.378,4.378,0,0,1,1.128,2.756,4.07,4.07,0,0,1-4.582,4.132,2.943,2.943,0,0,1-1.672-.749,1.751,1.751,0,0,1-.538-1.693,2.561,2.561,0,0,1,1.006-1.4,4.043,4.043,0,0,1,1.49-.678,5.645,5.645,0,0,1,6.995,4.606,4.08,4.08,0,0,1,.017,1.372,8.83,8.83,0,0,0-.117-1.355,5.775,5.775,0,0,0-1.765-3.163,5.591,5.591,0,0,0-5.073-1.229,3.821,3.821,0,0,0-1.4.645,2.325,2.325,0,0,0-.906,1.258,1.5,1.5,0,0,0,.468,1.448,2.705,2.705,0,0,0,1.527.679,3.831,3.831,0,0,0,4.311-3.871,4.178,4.178,0,0,0-1.051-2.62,5.318,5.318,0,0,0-2.04-1.456,5.766,5.766,0,0,0-3.618-.223c-.428.1-.756.194-.98.255a1.936,1.936,0,0,1-.345.085" transform="translate(176.549 24576.283)" fill="#fff"/>
        <path id="Trazado_176710" data-name="Trazado 176710" d="M22.086,160.555a1.392,1.392,0,0,0,.079-.715,4.4,4.4,0,0,0-.793-1.813A2.683,2.683,0,0,0,18.8,157a25.924,25.924,0,0,1-3.674.432,4.7,4.7,0,0,1-3.282-1.692,4.731,4.731,0,0,1-.944-2.88,3.5,3.5,0,0,1,.523-1.976,1.706,1.706,0,0,1,.526-.536,6.374,6.374,0,0,0-.441.589,3.566,3.566,0,0,0-.425,1.92,4.629,4.629,0,0,0,.948,2.734,4.515,4.515,0,0,0,3.116,1.583,29.1,29.1,0,0,0,3.641-.413,3.873,3.873,0,0,1,1.63.24,2.3,2.3,0,0,1,1.1.921,4.23,4.23,0,0,1,.744,1.909.875.875,0,0,1-.179.725" transform="translate(178.129 24574.537)" fill="#fff"/>
        <path id="Trazado_176711" data-name="Trazado 176711" d="M12.7,182.2a3.33,3.33,0,0,0,1.136-.3,2.083,2.083,0,0,0,.931-.959,3.424,3.424,0,0,0,.176-1.782A12.34,12.34,0,0,0,14.4,177a6.477,6.477,0,0,0-1.106-2.267,2.464,2.464,0,0,0-2.418-.892,1.5,1.5,0,0,0-1,.9,2.071,2.071,0,0,0-.017,1.432,2.345,2.345,0,0,0,2.293,1.471A3.973,3.973,0,0,0,14.7,176.7a11.877,11.877,0,0,0,2.9-3.769,9.166,9.166,0,0,0,.93-3.081c.079-.762.036-1.189.062-1.191a5.051,5.051,0,0,1,.039,1.2,8.824,8.824,0,0,1-.867,3.152,11.808,11.808,0,0,1-2.915,3.876,4.2,4.2,0,0,1-2.7,1.009,3.042,3.042,0,0,1-1.507-.4,2.226,2.226,0,0,1-1.026-1.241,2.318,2.318,0,0,1,.022-1.613,1.752,1.752,0,0,1,1.17-1.046,2.7,2.7,0,0,1,2.668.983,6.629,6.629,0,0,1,1.129,2.356,12.157,12.157,0,0,1,.518,2.208,3.529,3.529,0,0,1-.229,1.866,2.158,2.158,0,0,1-1.017.987,2.412,2.412,0,0,1-.868.219,1.232,1.232,0,0,1-.312-.012" transform="translate(178.372 24571.396)" fill="#fff"/>
        <path id="Trazado_176712" data-name="Trazado 176712" d="M26.5,190.211a3.334,3.334,0,0,0,.643-.158,2.3,2.3,0,0,0,1.169-1.29,3.526,3.526,0,0,0-.12-2.589c-.336-.955-.955-1.918-1.328-3.074a4.349,4.349,0,0,1-.222-1.758,3.157,3.157,0,0,1,.6-1.545,3.986,3.986,0,0,1,2.3-1.5,5.35,5.35,0,0,1,1.855-.109,2.29,2.29,0,0,1,.666.133,7.782,7.782,0,0,0-2.475.152,3.875,3.875,0,0,0-2.156,1.464,2.945,2.945,0,0,0-.542,1.432,4.147,4.147,0,0,0,.216,1.654c.355,1.11.968,2.08,1.307,3.071a3.663,3.663,0,0,1,.064,2.74,2.332,2.332,0,0,1-1.3,1.313,1.214,1.214,0,0,1-.679.065" transform="translate(175.454 24569.77)" fill="#fff"/>
        <path id="Trazado_176713" data-name="Trazado 176713" d="M32.676,148.307a7.2,7.2,0,0,1,.782-1.042c.528-.651,1.313-1.576,2.3-2.7s2.163-2.463,3.423-3.983c.63-.76,1.28-1.567,1.933-2.419a16.209,16.209,0,0,0,1.794-2.755,13.838,13.838,0,0,0,1.631-6.066,6.8,6.8,0,0,0-1.718-4.7,5.516,5.516,0,0,0-2.974-1.668,10.662,10.662,0,0,0-1.282-.1.994.994,0,0,1,.332-.075,4.029,4.029,0,0,1,.976.007,5.479,5.479,0,0,1,3.167,1.621,7.017,7.017,0,0,1,1.9,4.905,13.916,13.916,0,0,1-1.645,6.268,16.237,16.237,0,0,1-1.844,2.817c-.662.853-1.321,1.66-1.963,2.417-1.283,1.513-2.49,2.826-3.5,3.93l-2.4,2.611a7.938,7.938,0,0,1-.91.932" transform="translate(174.395 24579.266)" fill="#263238"/>
        <path id="Trazado_176714" data-name="Trazado 176714" d="M20.3,167.338a11.015,11.015,0,0,1-2.867,1.086,11.027,11.027,0,0,1-2.991.673,10.983,10.983,0,0,1,2.867-1.086,11.021,11.021,0,0,1,2.991-.673" transform="translate(177.522 24571.627)" fill="#263238"/>
        <path id="Trazado_176715" data-name="Trazado 176715" d="M20.343,167.21c.062.112-.923.719-1.868,1.754s-1.484,2.055-1.6,2a4.235,4.235,0,0,1,1.283-2.294,4.235,4.235,0,0,1,2.185-1.461" transform="translate(177.108 24571.648)" fill="#263238"/>
        <path id="Trazado_176716" data-name="Trazado 176716" d="M70.527,140.89a7.85,7.85,0,0,1-.961-1.711,44.122,44.122,0,0,1-3.134-8.914,7.89,7.89,0,0,1-.321-1.935,10.093,10.093,0,0,1,.616,1.857c.343,1.155.832,2.744,1.44,4.476s1.223,3.276,1.678,4.392a10.144,10.144,0,0,1,.683,1.834" transform="translate(168.662 24578.314)" fill="#263238"/>
        <path id="Trazado_176717" data-name="Trazado 176717" d="M58.442,153.078a5.243,5.243,0,0,1-1.089,1.688,11.032,11.032,0,0,1-8.692,3.76,5.242,5.242,0,0,1-1.977-.363c.014-.075.766.073,1.981.057a12.069,12.069,0,0,0,8.462-3.659c.843-.875,1.249-1.524,1.315-1.483" transform="translate(171.992 24574.068)" fill="#263238"/>
        <path id="Trazado_176718" data-name="Trazado 176718" d="M52.434,202.056s-5.725,1.242-6.482.615,1.094-1.307,1.094-1.307-1.642.2-1.694-.4.6-1.02.6-1.02Z" transform="translate(172.221 24566.029)" fill="#e5baab"/>
        <path id="Trazado_176719" data-name="Trazado 176719" d="M43.832,189.089s8.049,3.622,8.147,3.9.347,6.016-.42,7.2S40.247,195.6,40.247,195.6Z" transform="translate(173.096 24567.893)" fill="#e5baab"/>
        <path id="Trazado_176720" data-name="Trazado 176720" d="M49.773,200.175a1.88,1.88,0,0,1-.405-.026l-1.094-.142a23.793,23.793,0,0,1-3.566-.764,10.778,10.778,0,0,1-3.278-1.586l-.914-.623a1.8,1.8,0,0,1-.321-.248,1.822,1.822,0,0,1,.359.192l.939.574a11.729,11.729,0,0,0,3.266,1.525,30,30,0,0,0,3.534.809l1.085.195a1.882,1.882,0,0,1,.4.093" transform="translate(173.105 24566.572)" fill="#d78776"/>
        <path id="Trazado_176721" data-name="Trazado 176721" d="M50.935,201.047a6.761,6.761,0,0,1-1.847.466,6.753,6.753,0,0,1-1.9.1c0-.05.844-.114,1.876-.27s1.859-.344,1.872-.295" transform="translate(171.906 24565.842)" fill="#d78776"/>
      </g>
    </g>
    <g id="Background_Complete" data-name="Background Complete" transform="translate(481.748 21372.648)">
      <g id="Grupo_85721" data-name="Grupo 85721" transform="translate(-183 29.344)">
        <g id="Grupo_85665" data-name="Grupo 85665">
          <rect id="Rectángulo_30560" data-name="Rectángulo 30560" width="69.982" height="72.744" rx="3.956" fill="#f5f5f5"/>
        </g>
        <g id="Grupo_85716" data-name="Grupo 85716" transform="translate(16.279 16.412)">
          <g id="Grupo_85715" data-name="Grupo 85715">
            <g id="Grupo_85701" data-name="Grupo 85701">
              <g id="Grupo_85687" data-name="Grupo 85687">
                <g id="Grupo_85670" data-name="Grupo 85670">
                  <g id="Grupo_85669" data-name="Grupo 85669">
                    <g id="Grupo_85668" data-name="Grupo 85668">
                      <g id="Grupo_85667" data-name="Grupo 85667">
                        <g id="Grupo_85666" data-name="Grupo 85666">
                          <path id="Trazado_140978" data-name="Trazado 140978" d="M68.169,62.781a19.351,19.351,0,1,0,19.35,19.351A19.35,19.35,0,0,0,68.169,62.781Zm.292,30.945A11.887,11.887,0,1,1,80.348,81.84,11.886,11.886,0,0,1,68.461,93.726Z" transform="translate(-48.819 -62.781)" fill="#e0e0e0"/>
                        </g>
                      </g>
                    </g>
                  </g>
                </g>
                <g id="Grupo_85686" data-name="Grupo 85686" transform="translate(0 0.008)">
                  <g id="Grupo_85675" data-name="Grupo 85675" transform="translate(19.645)">
                    <g id="Grupo_85674" data-name="Grupo 85674">
                      <g id="Grupo_85673" data-name="Grupo 85673">
                        <g id="Grupo_85672" data-name="Grupo 85672">
                          <g id="Grupo_85671" data-name="Grupo 85671">
                            <path id="Trazado_140979" data-name="Trazado 140979" d="M73.654,62.791c0,2.058,0,4.835,0,7.164a11.891,11.891,0,0,1,11.326,15.49l7.013,1.9A19.345,19.345,0,0,0,73.654,62.791Z" transform="translate(-73.652 -62.791)" fill="#fafafa"/>
                          </g>
                        </g>
                      </g>
                    </g>
                  </g>
                  <g id="Grupo_85680" data-name="Grupo 85680" transform="translate(0 1.51)">
                    <g id="Grupo_85679" data-name="Grupo 85679">
                      <g id="Grupo_85678" data-name="Grupo 85678">
                        <g id="Grupo_85677" data-name="Grupo 85677">
                          <g id="Grupo_85676" data-name="Grupo 85676">
                            <path id="Trazado_140980" data-name="Trazado 140980" d="M56.575,82.241A11.887,11.887,0,0,1,63.62,71.385L60.644,64.7A19.356,19.356,0,0,0,48.819,82.533c0,.272.009.542.021.812h7.788C56.594,82.981,56.575,82.613,56.575,82.241Z" transform="translate(-48.819 -64.7)" fill="#ebebeb"/>
                          </g>
                        </g>
                      </g>
                    </g>
                  </g>
                  <g id="Grupo_85685" data-name="Grupo 85685" transform="translate(15.82 22.655)">
                    <g id="Grupo_85684" data-name="Grupo 85684">
                      <g id="Grupo_85683" data-name="Grupo 85683">
                        <g id="Grupo_85682" data-name="Grupo 85682">
                          <g id="Grupo_85681" data-name="Grupo 85681">
                            <path id="Trazado_140981" data-name="Trazado 140981" d="M72.639,99.711a11.912,11.912,0,0,1-2.514-.269c-.3,1.725-.864,5.066-1.308,7.7A19.332,19.332,0,0,0,90.981,93.331l-7.013-1.9A11.891,11.891,0,0,1,72.639,99.711Z" transform="translate(-68.817 -91.428)" fill="#ebebeb"/>
                          </g>
                        </g>
                      </g>
                    </g>
                  </g>
                </g>
              </g>
              <g id="Grupo_85700" data-name="Grupo 85700" transform="translate(12.998 16.471)">
                <g id="Grupo_85691" data-name="Grupo 85691" transform="translate(0 0.076)">
                  <g id="Grupo_85690" data-name="Grupo 85690">
                    <g id="Grupo_85689" data-name="Grupo 85689">
                      <g id="Grupo_85688" data-name="Grupo 85688">
                        <path id="Trazado_140982" data-name="Trazado 140982" d="M69.326,87.172H68.61v.923h-.992v-.923H65.249v-.685L67.322,83.7H68.39l-1.922,2.645h1.181V85.52h.961v.823h.717Z" transform="translate(-65.249 -83.698)" fill="#e0e0e0"/>
                      </g>
                    </g>
                  </g>
                </g>
                <g id="Grupo_85695" data-name="Grupo 85695" transform="translate(4.377)">
                  <g id="Grupo_85694" data-name="Grupo 85694">
                    <g id="Grupo_85693" data-name="Grupo 85693">
                      <g id="Grupo_85692" data-name="Grupo 85692">
                        <path id="Trazado_140983" data-name="Trazado 140983" d="M70.782,85.876c0-1.451.8-2.274,1.885-2.274s1.884.824,1.884,2.274-.8,2.274-1.884,2.274S70.782,87.327,70.782,85.876Zm2.745,0c0-1-.351-1.414-.86-1.414s-.854.415-.854,1.414.351,1.414.854,1.414S73.527,86.876,73.527,85.876Z" transform="translate(-70.782 -83.602)" fill="#e0e0e0"/>
                      </g>
                    </g>
                  </g>
                </g>
                <g id="Grupo_85699" data-name="Grupo 85699" transform="translate(8.567 0.025)">
                  <g id="Grupo_85698" data-name="Grupo 85698">
                    <g id="Grupo_85697" data-name="Grupo 85697">
                      <g id="Grupo_85696" data-name="Grupo 85696">
                        <path id="Trazado_140984" data-name="Trazado 140984" d="M76.078,84.847a1.1,1.1,0,1,1,1.092,1.213A1.094,1.094,0,0,1,76.078,84.847Zm1.551,0c0-.472-.182-.7-.459-.7s-.458.233-.458.7.188.7.458.7S77.629,85.317,77.629,84.847Zm2.161-1.162h.748l-3,4.4h-.748Zm-.722,3.235a1.1,1.1,0,1,1,1.086,1.213A1.092,1.092,0,0,1,79.068,86.919Zm1.545,0c0-.464-.182-.7-.459-.7s-.458.226-.458.7.188.7.458.7S80.613,87.385,80.613,86.919Z" transform="translate(-76.078 -83.634)" fill="#e0e0e0"/>
                      </g>
                    </g>
                  </g>
                </g>
              </g>
            </g>
            <g id="Grupo_85714" data-name="Grupo 85714" transform="translate(3.338 43.399)">
              <g id="Grupo_85707" data-name="Grupo 85707">
                <g id="Grupo_85706" data-name="Grupo 85706">
                  <g id="Grupo_85705" data-name="Grupo 85705">
                    <g id="Grupo_85704" data-name="Grupo 85704">
                      <g id="Grupo_85703" data-name="Grupo 85703">
                        <g id="Grupo_85702" data-name="Grupo 85702">
                          <path id="Trazado_140985" data-name="Trazado 140985" d="M85.062,117.825c0,.1-7.169.184-16.011.184s-16.013-.082-16.013-.184,7.168-.184,16.013-.184S85.062,117.723,85.062,117.825Z" transform="translate(-53.039 -117.641)" fill="#e0e0e0"/>
                        </g>
                      </g>
                    </g>
                  </g>
                </g>
              </g>
              <g id="Grupo_85713" data-name="Grupo 85713" transform="translate(7.132 2.94)">
                <g id="Grupo_85712" data-name="Grupo 85712">
                  <g id="Grupo_85711" data-name="Grupo 85711">
                    <g id="Grupo_85710" data-name="Grupo 85710">
                      <g id="Grupo_85709" data-name="Grupo 85709">
                        <g id="Grupo_85708" data-name="Grupo 85708">
                          <path id="Trazado_140986" data-name="Trazado 140986" d="M79.815,121.542c0,.1-3.976.184-8.88.184s-8.881-.082-8.881-.184,3.975-.184,8.881-.184S79.815,121.44,79.815,121.542Z" transform="translate(-62.054 -121.358)" fill="#e0e0e0"/>
                        </g>
                      </g>
                    </g>
                  </g>
                </g>
              </g>
            </g>
          </g>
        </g>
        <g id="Grupo_85720" data-name="Grupo 85720" transform="translate(5.215 4.428)">
          <g id="Grupo_85717" data-name="Grupo 85717">
            <circle id="Elipse_4231" data-name="Elipse 4231" cx="1.761" cy="1.761" r="1.761" fill="#e0e0e0"/>
          </g>
          <g id="Grupo_85718" data-name="Grupo 85718" transform="translate(4.546)">
            <circle id="Elipse_4232" data-name="Elipse 4232" cx="1.761" cy="1.761" r="1.761" fill="#e0e0e0"/>
          </g>
          <g id="Grupo_85719" data-name="Grupo 85719" transform="translate(9.093 0)">
            <path id="Trazado_140987" data-name="Trazado 140987" d="M49.849,49.394a1.761,1.761,0,1,1-1.761-1.761A1.761,1.761,0,0,1,49.849,49.394Z" transform="translate(-46.327 -47.633)" fill="#e0e0e0"/>
          </g>
        </g>
      </g>
      <g id="Grupo_85750" data-name="Grupo 85750" transform="translate(-200.56 241.344)">
        <g id="Grupo_85725" data-name="Grupo 85725">
          <g id="Grupo_85724" data-name="Grupo 85724">
            <g id="Grupo_85723" data-name="Grupo 85723">
              <g id="Grupo_85722" data-name="Grupo 85722">
                <path id="Trazado_140988" data-name="Trazado 140988" d="M410.355,64.249a10.575,10.575,0,0,1-.269-2.373,19.433,19.433,0,0,0-.318-2.849,27.871,27.871,0,0,0-.748-3.829,35.9,35.9,0,0,0-3.976-9.849A36.893,36.893,0,0,0,395.885,34.8a36.493,36.493,0,0,0-34.4-5.912,34.182,34.182,0,0,0-9.3,4.747,41.127,41.127,0,0,0-4.2,3.41,41.368,41.368,0,0,0-3.654,4.13,36.2,36.2,0,0,0-1.044,42.914,41.252,41.252,0,0,0,3.449,4.3A41.129,41.129,0,0,0,350.763,92a34.184,34.184,0,0,0,9.064,5.194,36.771,36.771,0,0,0,44.307-14.329,35.885,35.885,0,0,0,4.448-9.644,27.967,27.967,0,0,0,.934-3.787,19.482,19.482,0,0,0,.456-2.831,10.522,10.522,0,0,1,.384-2.356,10.4,10.4,0,0,1,.029,2.392,16.746,16.746,0,0,1-.266,2.894,25.949,25.949,0,0,1-.766,3.9,35.116,35.116,0,0,1-4.247,10.041A37.829,37.829,0,0,1,379.178,101a38.172,38.172,0,0,1-20.038-2.041,35.92,35.92,0,0,1-9.581-5.409,42.818,42.818,0,0,1-4.265-3.787,43.006,43.006,0,0,1-3.659-4.523,38.04,38.04,0,0,1,1.1-45.295,43.015,43.015,0,0,1,3.873-4.339,42.825,42.825,0,0,1,4.443-3.573,35.891,35.891,0,0,1,9.831-4.936A38.172,38.172,0,0,1,381,26.028a37.835,37.835,0,0,1,25.048,18.758A35.16,35.16,0,0,1,409.8,55.022a25.867,25.867,0,0,1,.575,3.934,16.633,16.633,0,0,1,.125,2.9A10.413,10.413,0,0,1,410.355,64.249Z" transform="translate(-334.703 -25.168)" fill="#12263f"/>
              </g>
            </g>
          </g>
        </g>
        <g id="Grupo_85729" data-name="Grupo 85729" transform="translate(9.609 14.327)">
          <g id="Grupo_85728" data-name="Grupo 85728">
            <g id="Grupo_85727" data-name="Grupo 85727">
              <g id="Grupo_85726" data-name="Grupo 85726">
                <path id="Trazado_140989" data-name="Trazado 140989" d="M405.427,44.716c.082.115-.591.7-1.891,1.667l-2.4,1.724c-.475.325-.974.695-1.528,1.042l-1.838.96a42.131,42.131,0,0,1-21.941,5.525l-3.321-.148-3.187-.5c-.521-.088-1.041-.158-1.548-.26l-1.488-.4c-.979-.271-1.948-.5-2.869-.8a48.1,48.1,0,0,1-9.309-4.289c-5-3.024-7.436-5.775-7.246-5.951.2-.232,2.92,2.071,7.958,4.686a56.068,56.068,0,0,0,9.163,3.75c.892.259,1.827.456,2.768.7l1.43.354,1.484.225,3.046.448,3.165.128a45.428,45.428,0,0,0,21.246-4.771L398.978,48c.566-.3,1.08-.613,1.574-.887l2.547-1.4C404.516,44.965,405.345,44.6,405.427,44.716Z" transform="translate(-346.849 -43.278)" fill="#12263f"/>
              </g>
            </g>
          </g>
        </g>
        <g id="Grupo_85733" data-name="Grupo 85733" transform="translate(8.476 50.199)">
          <g id="Grupo_85732" data-name="Grupo 85732">
            <g id="Grupo_85731" data-name="Grupo 85731">
              <g id="Grupo_85730" data-name="Grupo 85730">
                <path id="Trazado_140990" data-name="Trazado 140990" d="M345.423,99.564c-.082-.116.591-.7,1.891-1.668l2.4-1.724c.475-.325.974-.695,1.528-1.041l1.838-.961a42.127,42.127,0,0,1,21.94-5.525l3.321.148,3.187.5c.521.088,1.041.158,1.549.26l1.488.4c.979.271,1.947.5,2.868.8a48.035,48.035,0,0,1,9.309,4.289c5,3.024,7.435,5.775,7.246,5.951-.2.232-2.92-2.071-7.958-4.686a56.1,56.1,0,0,0-9.163-3.75c-.892-.259-1.827-.456-2.768-.7l-1.43-.354-1.484-.225-3.046-.448-3.165-.128a45.429,45.429,0,0,0-21.246,4.771l-1.859.807c-.566.3-1.08.614-1.574.887l-2.547,1.4C346.335,99.315,345.505,99.679,345.423,99.564Z" transform="translate(-345.417 -88.623)" fill="#12263f"/>
              </g>
            </g>
          </g>
        </g>
        <g id="Grupo_85737" data-name="Grupo 85737" transform="translate(1.01 37.673)">
          <g id="Grupo_85736" data-name="Grupo 85736">
            <g id="Grupo_85735" data-name="Grupo 85735">
              <g id="Grupo_85734" data-name="Grupo 85734">
                <path id="Trazado_140991" data-name="Trazado 140991" d="M410.6,75.063c-.013.567-16.731.62-37.334.12s-37.3-1.365-37.287-1.932,16.728-.62,37.337-.119S410.615,74.5,410.6,75.063Z" transform="translate(-335.979 -72.789)" fill="#12263f"/>
              </g>
            </g>
          </g>
        </g>
        <g id="Grupo_85741" data-name="Grupo 85741" transform="translate(36.138 0.854)">
          <g id="Grupo_85740" data-name="Grupo 85740">
            <g id="Grupo_85739" data-name="Grupo 85739">
              <g id="Grupo_85738" data-name="Grupo 85738">
                <path id="Trazado_140992" data-name="Trazado 140992" d="M380.846,100.844c-.566-.013-.62-16.725-.12-37.321s1.365-37.289,1.932-37.276.62,16.722.119,37.325S381.412,100.858,380.846,100.844Z" transform="translate(-380.383 -26.247)" fill="#12263f"/>
              </g>
            </g>
          </g>
        </g>
        <g id="Grupo_85745" data-name="Grupo 85745" transform="translate(18.038 0.831)">
          <g id="Grupo_85744" data-name="Grupo 85744">
            <g id="Grupo_85743" data-name="Grupo 85743">
              <g id="Grupo_85742" data-name="Grupo 85742">
                <path id="Trazado_140993" data-name="Trazado 140993" d="M376.067,100.783c-.14.217-4.251-2.571-9-8.882a50.186,50.186,0,0,1-6.67-12.11,45.01,45.01,0,0,1-2.888-16.721,42.814,42.814,0,0,1,3.767-16.553,51.885,51.885,0,0,1,7.288-11.737c5.026-6.072,9.17-8.765,9.31-8.549.2.233-3.553,3.288-8.167,9.442a55.907,55.907,0,0,0-6.7,11.594,42.993,42.993,0,0,0-3.451,15.841,45.435,45.435,0,0,0,2.611,16.032,53.856,53.856,0,0,0,6.078,11.921C372.573,97.422,376.275,100.556,376.067,100.783Z" transform="translate(-357.503 -26.219)" fill="#12263f"/>
              </g>
            </g>
          </g>
        </g>
        <g id="Grupo_85749" data-name="Grupo 85749" transform="translate(37.429 0.852)">
          <g id="Grupo_85748" data-name="Grupo 85748">
            <g id="Grupo_85747" data-name="Grupo 85747">
              <g id="Grupo_85746" data-name="Grupo 85746">
                <path id="Trazado_140994" data-name="Trazado 140994" d="M383.835,26.257c.14-.217,4.251,2.57,9,8.882a50.193,50.193,0,0,1,6.67,12.111,44.99,44.99,0,0,1,2.887,16.721,42.813,42.813,0,0,1-3.766,16.552,51.867,51.867,0,0,1-7.289,11.737c-5.025,6.073-9.17,8.765-9.309,8.549-.2-.233,3.553-3.288,8.166-9.442a55.9,55.9,0,0,0,6.7-11.594,42.988,42.988,0,0,0,3.451-15.84A45.432,45.432,0,0,0,397.726,47.9a53.855,53.855,0,0,0-6.078-11.921C387.328,29.617,383.627,26.482,383.835,26.257Z" transform="translate(-382.016 -26.245)" fill="#12263f"/>
              </g>
            </g>
          </g>
        </g>
      </g>
      <g id="Grupo_85755" data-name="Grupo 85755" transform="translate(11.987 151.297)">
        <g id="Grupo_85752" data-name="Grupo 85752" transform="translate(5.222 5.759)">
          <g id="Grupo_85751" data-name="Grupo 85751">
            <path id="Trazado_140995" data-name="Trazado 140995" d="M316.242,410.086v-21.4a21.4,21.4,0,1,1-21.39,21.891Z" transform="translate(-294.852 -388.689)" fill="#a4a3ff"/>
          </g>
        </g>
        <g id="Grupo_85754" data-name="Grupo 85754">
          <g id="Grupo_85753" data-name="Grupo 85753">
            <path id="Trazado_140996" data-name="Trazado 140996" d="M309.647,402.8l-21.4.483a22.568,22.568,0,0,1,6.062-15.4,22,22,0,0,1,15-6.467Z" transform="translate(-288.251 -381.409)" fill="url(#linear-gradient)"/>
          </g>
        </g>
      </g>
    </g>
    <g id="Grupo_166791" data-name="Grupo 166791" transform="translate(340.457 21606.117)">
      <g id="Grupo_85964" data-name="Grupo 85964">
        <g id="Grupo_85919" data-name="Grupo 85919">
          <g id="Grupo_85916" data-name="Grupo 85916" transform="translate(0.206 0.206)">
            <rect id="Rectángulo_30578" data-name="Rectángulo 30578" width="76.549" height="50.481" rx="5.887" fill="#fff"/>
          </g>
          <g id="Grupo_85918" data-name="Grupo 85918">
            <g id="Grupo_85917" data-name="Grupo 85917">
              <path id="Trazado_141033" data-name="Trazado 141033" d="M335.091,321.161c0-.014.216-.01.63-.069a4.446,4.446,0,0,0,1.729-.626,4.63,4.63,0,0,0,1.9-2.247c.487-1.1.278-2.522.316-4.071-.016-6.238-.038-15.242-.066-26.366q-.006-4.175-.013-8.737,0-1.139,0-2.3a14.1,14.1,0,0,0-.094-2.308,4.512,4.512,0,0,0-2.935-3.336,6.551,6.551,0,0,0-2.39-.248l-2.516,0-5.152,0-10.754.009-47.883.016A4.456,4.456,0,0,0,263.5,274.4a7.045,7.045,0,0,0-.1,1.52V280.6q0,6.2,0,12.218c0,8.01-.008,15.736-.012,23.1a5.071,5.071,0,0,0,.47,2.582,4.459,4.459,0,0,0,1.75,1.871,4.567,4.567,0,0,0,2.463.612l2.634,0,10.144.01,18.208.025,26.365.066,7.168.039,1.865.021c.42.006.635.021.635.021s-.215.014-.635.021l-1.865.021-7.168.038-26.365.066-18.208.025-10.144.01-2.634,0a4.935,4.935,0,0,1-2.651-.659,4.833,4.833,0,0,1-1.9-2.024,5.458,5.458,0,0,1-.513-2.75c0-7.36-.008-15.086-.012-23.1q0-6.007,0-12.218V275.92a7.422,7.422,0,0,1,.11-1.606,4.864,4.864,0,0,1,4.758-3.84l47.883.016,10.754.009,5.152,0,2.516,0a6.874,6.874,0,0,1,2.5.271,4.847,4.847,0,0,1,3.147,3.593,14.125,14.125,0,0,1,.094,2.373q0,1.162,0,2.3-.007,4.557-.013,8.737c-.028,11.124-.051,20.129-.066,26.366q0,1.166-.009,2.2a4.891,4.891,0,0,1-.353,1.914,4.7,4.7,0,0,1-1.975,2.272,4.351,4.351,0,0,1-1.765.6A3.621,3.621,0,0,1,335.091,321.161Z" transform="translate(-262.992 -270.474)" fill="#263238"/>
            </g>
          </g>
        </g>
        <g id="Grupo_85963" data-name="Grupo 85963" transform="translate(9.98 17.363)">
          <g id="Grupo_85962" data-name="Grupo 85962">
            <g id="Grupo_85961" data-name="Grupo 85961">
              <g id="Grupo_85960" data-name="Grupo 85960">
                <g id="Grupo_85923" data-name="Grupo 85923" transform="translate(24.535 12.155)">
                  <g id="Grupo_85922" data-name="Grupo 85922">
                    <g id="Grupo_85921" data-name="Grupo 85921">
                      <g id="Grupo_85920" data-name="Grupo 85920">
                        <rect id="Rectángulo_30579" data-name="Rectángulo 30579" width="2.937" height="11.69" fill="#12263f"/>
                      </g>
                    </g>
                  </g>
                </g>
                <g id="Grupo_85927" data-name="Grupo 85927" transform="translate(0 10.461)">
                  <g id="Grupo_85926" data-name="Grupo 85926">
                    <g id="Grupo_85925" data-name="Grupo 85925">
                      <g id="Grupo_85924" data-name="Grupo 85924">
                        <rect id="Rectángulo_30580" data-name="Rectángulo 30580" width="2.937" height="13.383" fill="#12263f"/>
                      </g>
                    </g>
                  </g>
                </g>
                <g id="Grupo_85931" data-name="Grupo 85931" transform="translate(6.134 7.671)">
                  <g id="Grupo_85930" data-name="Grupo 85930">
                    <g id="Grupo_85929" data-name="Grupo 85929">
                      <g id="Grupo_85928" data-name="Grupo 85928">
                        <rect id="Rectángulo_30581" data-name="Rectángulo 30581" width="2.937" height="16.173" fill="#12263f"/>
                      </g>
                    </g>
                  </g>
                </g>
                <g id="Grupo_85935" data-name="Grupo 85935" transform="translate(12.267 8.559)">
                  <g id="Grupo_85934" data-name="Grupo 85934">
                    <g id="Grupo_85933" data-name="Grupo 85933">
                      <g id="Grupo_85932" data-name="Grupo 85932">
                        <rect id="Rectángulo_30582" data-name="Rectángulo 30582" width="2.937" height="15.286" fill="#12263f"/>
                      </g>
                    </g>
                  </g>
                </g>
                <g id="Grupo_85939" data-name="Grupo 85939" transform="translate(18.401 3.387)">
                  <g id="Grupo_85938" data-name="Grupo 85938">
                    <g id="Grupo_85937" data-name="Grupo 85937">
                      <g id="Grupo_85936" data-name="Grupo 85936">
                        <rect id="Rectángulo_30583" data-name="Rectángulo 30583" width="2.937" height="20.457" fill="#12263f"/>
                      </g>
                    </g>
                  </g>
                </g>
                <g id="Grupo_85943" data-name="Grupo 85943" transform="translate(30.668 3.487)">
                  <g id="Grupo_85942" data-name="Grupo 85942">
                    <g id="Grupo_85941" data-name="Grupo 85941">
                      <g id="Grupo_85940" data-name="Grupo 85940">
                        <rect id="Rectángulo_30584" data-name="Rectángulo 30584" width="2.937" height="20.357" fill="#12263f"/>
                      </g>
                    </g>
                  </g>
                </g>
                <g id="Grupo_85947" data-name="Grupo 85947" transform="translate(36.802 10.173)">
                  <g id="Grupo_85946" data-name="Grupo 85946">
                    <g id="Grupo_85945" data-name="Grupo 85945">
                      <g id="Grupo_85944" data-name="Grupo 85944">
                        <rect id="Rectángulo_30585" data-name="Rectángulo 30585" width="2.937" height="13.671" fill="#12263f"/>
                      </g>
                    </g>
                  </g>
                </g>
                <g id="Grupo_85951" data-name="Grupo 85951" transform="translate(42.935 4.384)">
                  <g id="Grupo_85950" data-name="Grupo 85950">
                    <g id="Grupo_85949" data-name="Grupo 85949">
                      <g id="Grupo_85948" data-name="Grupo 85948">
                        <rect id="Rectángulo_30586" data-name="Rectángulo 30586" width="2.937" height="19.46" fill="#12263f"/>
                      </g>
                    </g>
                  </g>
                </g>
                <g id="Grupo_85955" data-name="Grupo 85955" transform="translate(49.069)">
                  <g id="Grupo_85954" data-name="Grupo 85954">
                    <g id="Grupo_85953" data-name="Grupo 85953">
                      <g id="Grupo_85952" data-name="Grupo 85952">
                        <rect id="Rectángulo_30587" data-name="Rectángulo 30587" width="2.937" height="23.844" fill="#12263f"/>
                      </g>
                    </g>
                  </g>
                </g>
                <g id="Grupo_85959" data-name="Grupo 85959" transform="translate(55.203 4.284)">
                  <g id="Grupo_85958" data-name="Grupo 85958">
                    <g id="Grupo_85957" data-name="Grupo 85957">
                      <g id="Grupo_85956" data-name="Grupo 85956">
                        <rect id="Rectángulo_30588" data-name="Rectángulo 30588" width="2.937" height="19.56" fill="#12263f"/>
                      </g>
                    </g>
                  </g>
                </g>
              </g>
            </g>
          </g>
        </g>
      </g>
      <g id="Grupo_85968" data-name="Grupo 85968" transform="translate(6.525 5.305)">
        <g id="Grupo_85965" data-name="Grupo 85965">
          <path id="Trazado_141034" data-name="Trazado 141034" d="M274.94,279.03a1.85,1.85,0,1,1-1.85-1.85A1.85,1.85,0,0,1,274.94,279.03Z" transform="translate(-271.24 -277.18)" fill="#e0e0e0"/>
        </g>
        <g id="Grupo_85966" data-name="Grupo 85966" transform="translate(4.776)">
          <path id="Trazado_141035" data-name="Trazado 141035" d="M280.977,279.03a1.85,1.85,0,1,1-1.85-1.85A1.85,1.85,0,0,1,280.977,279.03Z" transform="translate(-277.277 -277.18)" fill="#e0e0e0"/>
        </g>
        <g id="Grupo_85967" data-name="Grupo 85967" transform="translate(9.552)">
          <path id="Trazado_141036" data-name="Trazado 141036" d="M287.015,279.03a1.85,1.85,0,1,1-1.85-1.85A1.85,1.85,0,0,1,287.015,279.03Z" transform="translate(-283.315 -277.18)" fill="#e0e0e0"/>
        </g>
      </g>
    </g>
  </g>
</svg>
