<svg xmlns="http://www.w3.org/2000/svg" width="420" height="81" viewBox="0 0 420 81">
  <g id="Grupo_166898" data-name="Grupo 166898" transform="translate(-790 -21505)">
    <path id="Trazado_197417" data-name="Trazado 197417" d="M10,0H410a10,10,0,0,1,10,10V71a10,10,0,0,1-10,10H10A10,10,0,0,1,0,71V10A10,10,0,0,1,10,0Z" transform="translate(790 21505)" fill="#a4a3ff"/>
    <path id="Trazado_197418" data-name="Trazado 197418" d="M1.846,0V-7.928H.4V-9.51h1.45v-.87a3.266,3.266,0,0,1,.879-2.443,3.367,3.367,0,0,1,2.461-.861,4.936,4.936,0,0,1,1.2.158l-.053,1.67a4.207,4.207,0,0,0-.817-.07,1.371,1.371,0,0,0-1.529,1.573v.844H5.915v1.582H3.981V0ZM11.988-5.2a13.393,13.393,0,0,1,.545-3.854,10.578,10.578,0,0,1,1.6-3.261,6.351,6.351,0,0,1,2.232-2.017l.422,1.248a6.524,6.524,0,0,0-2.008,2.87A12.852,12.852,0,0,0,13.939-5.8l-.009.756a13.972,13.972,0,0,0,.751,4.75,7,7,0,0,0,2.1,3.177l-.422,1.187a6.362,6.362,0,0,1-2.237-2.026,10.577,10.577,0,0,1-1.6-3.261A13.921,13.921,0,0,1,11.988-5.2ZM26.13-6.381,27.94-9.51h2.373L27.4-4.825,30.41,0H28.055l-1.9-3.252L24.267,0H21.894L24.9-4.825,22-9.51h2.355ZM40.368-5.062A13.224,13.224,0,0,1,39.832-1.3a10.671,10.671,0,0,1-1.626,3.3A6.367,6.367,0,0,1,35.93,4.069l-.422-1.187A6.754,6.754,0,0,0,37.6-.233a13.84,13.84,0,0,0,.769-4.786v-.2A14.044,14.044,0,0,0,37.7-9.672a7.852,7.852,0,0,0-1.916-3.221l-.272-.246.422-1.2a6.3,6.3,0,0,1,2.18,1.934,10.491,10.491,0,0,1,1.617,3.107,12.941,12.941,0,0,1,.633,3.546ZM54.835-6.855H47.259V-8.631h7.576Zm0,3.727H47.259V-4.9h7.576Z" transform="translate(841 21548)" fill="#fff"/>
    <path id="Trazado_197419" data-name="Trazado 197419" d="M5.282.176A4.419,4.419,0,0,1,1.991-1.1,4.639,4.639,0,0,1,.729-4.509v-.264a5.706,5.706,0,0,1,.549-2.544A4.181,4.181,0,0,1,2.821-9.062a4.078,4.078,0,0,1,2.215-.624,3.733,3.733,0,0,1,3,1.239A5.24,5.24,0,0,1,9.1-4.939v.861H2.883a2.856,2.856,0,0,0,.787,1.863,2.362,2.362,0,0,0,1.736.686A2.892,2.892,0,0,0,7.8-2.716l1.151,1.1A3.845,3.845,0,0,1,7.422-.294,4.774,4.774,0,0,1,5.282.176ZM5.027-7.972a1.8,1.8,0,0,0-1.419.615,3.189,3.189,0,0,0-.69,1.714H6.987V-5.8a2.6,2.6,0,0,0-.571-1.622A1.785,1.785,0,0,0,5.027-7.972Z" transform="translate(994 21548)" fill="#fff"/>
    <path id="Trazado_197420" data-name="Trazado 197420" d="M6.741,0H4.614V-10.281L1.477-9.211V-11l4.992-1.837h.272Z" transform="translate(1047 21541)" fill="#fff"/>
    <path id="Trazado_197277" data-name="Trazado 197277" d="M-8216.117,5100h23.561" transform="translate(9257 16449)" fill="none" stroke="#fff" stroke-width="1"/>
    <path id="Trazado_197421" data-name="Trazado 197421" d="M9.563,0H.958V-1.468L5.221-6.117A10.615,10.615,0,0,0,6.535-7.835,2.784,2.784,0,0,0,6.926-9.22,2.1,2.1,0,0,0,6.412-10.7a1.783,1.783,0,0,0-1.384-.562,2.056,2.056,0,0,0-1.608.633,2.489,2.489,0,0,0-.571,1.731H.712A4.186,4.186,0,0,1,1.244-11a3.662,3.662,0,0,1,1.521-1.455,4.84,4.84,0,0,1,2.281-.519,4.329,4.329,0,0,1,2.94.936A3.249,3.249,0,0,1,9.062-9.448,4.392,4.392,0,0,1,8.521-7.44,11.42,11.42,0,0,1,6.75-5.054L3.621-1.705H9.563Z" transform="translate(1047 21566)" fill="#fff"/>
    <path id="Trazado_197422" data-name="Trazado 197422" d="M1.125-5.2A13.393,13.393,0,0,1,1.67-9.057a10.578,10.578,0,0,1,1.6-3.261A6.351,6.351,0,0,1,5.5-14.335l.422,1.248a6.524,6.524,0,0,0-2.008,2.87A12.852,12.852,0,0,0,3.076-5.8l-.009.756a13.972,13.972,0,0,0,.751,4.75,7,7,0,0,0,2.1,3.177L5.5,4.069A6.362,6.362,0,0,1,3.265,2.043a10.577,10.577,0,0,1-1.6-3.261A13.921,13.921,0,0,1,1.125-5.2ZM15.267-6.381,17.077-9.51H19.45L16.541-4.825,19.547,0H17.191l-1.9-3.252L13.4,0H11.03l3.006-4.825-2.9-4.685h2.355Zm14.265,1.8H24.917V-6.3h4.614ZM41.537-.932A3.312,3.312,0,0,1,38.865.176a2.952,2.952,0,0,1-2.342-.905,3.851,3.851,0,0,1-.8-2.619V-9.51h2.136v6.135q0,1.811,1.5,1.811a2.111,2.111,0,0,0,2.1-1.116V-9.51H43.6V0H41.59ZM54.378-5.062A13.224,13.224,0,0,1,53.842-1.3a10.671,10.671,0,0,1-1.626,3.3,6.367,6.367,0,0,1-2.276,2.061l-.422-1.187A6.754,6.754,0,0,0,51.6-.233a13.84,13.84,0,0,0,.769-4.786v-.2a14.044,14.044,0,0,0-.668-4.452,7.852,7.852,0,0,0-1.916-3.221l-.272-.246.422-1.2a6.3,6.3,0,0,1,2.18,1.934,10.491,10.491,0,0,1,1.617,3.107,12.941,12.941,0,0,1,.633,3.546Z" transform="translate(1072 21544)" fill="#fff"/>
    <path id="Trazado_197278" data-name="Trazado 197278" d="M-8216.118,5100H-8181" transform="translate(9298 16449)" fill="none" stroke="#fff" stroke-width="1"/>
    <path id="Trazado_197423" data-name="Trazado 197423" d="M.694-4.843a5.607,5.607,0,0,1,.554-2.518A4.044,4.044,0,0,1,2.8-9.083a4.383,4.383,0,0,1,2.3-.6A4.154,4.154,0,0,1,8.231-8.446a4.874,4.874,0,0,1,1.3,3.287l.009.5A5.658,5.658,0,0,1,9-2.145,4,4,0,0,1,7.449-.431,4.415,4.415,0,0,1,5.124.176,4.125,4.125,0,0,1,1.9-1.165,5.133,5.133,0,0,1,.694-4.737Zm2.136.185a3.832,3.832,0,0,0,.606,2.3,1.971,1.971,0,0,0,1.688.831,1.95,1.95,0,0,0,1.683-.844,4.232,4.232,0,0,0,.6-2.47,3.782,3.782,0,0,0-.62-2.285,1.979,1.979,0,0,0-1.683-.844,1.96,1.96,0,0,0-1.661.831A4.152,4.152,0,0,0,2.83-4.658Z" transform="translate(1095 21565)" fill="#fff"/>
    <path id="Trazado_197424" data-name="Trazado 197424" d="M5.578,6H.559V5.144L3.045,2.432a6.192,6.192,0,0,0,.766-1A1.624,1.624,0,0,0,4.04.622a1.227,1.227,0,0,0-.3-.861,1.04,1.04,0,0,0-.807-.328A1.2,1.2,0,0,0,1.994-.2,1.452,1.452,0,0,0,1.661.812H.415A2.442,2.442,0,0,1,.725-.416a2.136,2.136,0,0,1,.887-.848,2.823,2.823,0,0,1,1.33-.3,2.525,2.525,0,0,1,1.715.546A1.9,1.9,0,0,1,5.286.489,2.562,2.562,0,0,1,4.97,1.66,6.661,6.661,0,0,1,3.937,3.052L2.112,5.005H5.578Z" transform="translate(1128 21528)" fill="#fff"/>
    <path id="Trazado_197279" data-name="Trazado 197279" d="M-8216.115,5100h73" transform="translate(9128 16449)" fill="none" stroke="#fff" stroke-width="1"/>
    <path id="Trazado_197425" data-name="Trazado 197425" d="M6.741,0H4.614V-10.281L1.477-9.211V-11l4.992-1.837h.272Z" transform="translate(945 21541)" fill="#fff"/>
    <path id="Trazado_197426" data-name="Trazado 197426" d="M.694-4.843a5.607,5.607,0,0,1,.554-2.518A4.044,4.044,0,0,1,2.8-9.083a4.383,4.383,0,0,1,2.3-.6A4.154,4.154,0,0,1,8.231-8.446a4.874,4.874,0,0,1,1.3,3.287l.009.5A5.658,5.658,0,0,1,9-2.145,4,4,0,0,1,7.449-.431,4.415,4.415,0,0,1,5.124.176,4.125,4.125,0,0,1,1.9-1.165,5.133,5.133,0,0,1,.694-4.737Zm2.136.185a3.832,3.832,0,0,0,.606,2.3,1.971,1.971,0,0,0,1.688.831,1.95,1.95,0,0,0,1.683-.844,4.232,4.232,0,0,0,.6-2.47,3.782,3.782,0,0,0-.62-2.285,1.979,1.979,0,0,0-1.683-.844,1.96,1.96,0,0,0-1.661.831A4.152,4.152,0,0,0,2.83-4.658Z" transform="translate(924 21565)" fill="#fff"/>
    <path id="Trazado_197280" data-name="Trazado 197280" d="M-8299.416,5109.051l7.145,16.439,7.869-16.439h26.4" transform="translate(9238 16445)" fill="none" stroke="#fff" stroke-width="1"/>
    <path id="Trazado_197427" data-name="Trazado 197427" d="M9.563,0H.958V-1.468L5.221-6.117A10.615,10.615,0,0,0,6.535-7.835,2.784,2.784,0,0,0,6.926-9.22,2.1,2.1,0,0,0,6.412-10.7a1.783,1.783,0,0,0-1.384-.562,2.056,2.056,0,0,0-1.608.633,2.489,2.489,0,0,0-.571,1.731H.712A4.186,4.186,0,0,1,1.244-11a3.662,3.662,0,0,1,1.521-1.455,4.84,4.84,0,0,1,2.281-.519,4.329,4.329,0,0,1,2.94.936A3.249,3.249,0,0,1,9.062-9.448,4.392,4.392,0,0,1,8.521-7.44,11.42,11.42,0,0,1,6.75-5.054L3.621-1.705H9.563ZM20.716-7.84h-1.4v5.15a1.169,1.169,0,0,0,.215.787,1,1,0,0,0,.769.242,3.622,3.622,0,0,0,.747-.088V-.1a4.715,4.715,0,0,1-1.406.2q-2.461,0-2.461-2.716V-7.84H14.265V0H12.129V-7.84h-1.5V-9.51h10.09Z" transform="translate(957 21571)" fill="#fff"/>
    <path id="Trazado_197428" data-name="Trazado 197428" d="M5.238-4.579H.624V-6.3H5.238Z" transform="translate(1024 21548)" fill="#fff"/>
  </g>
</svg>
