<svg xmlns="http://www.w3.org/2000/svg" width="349" height="81" viewBox="0 0 349 81">
  <g id="Grupo_166797" data-name="Grupo 166797" transform="translate(6789.244 12707.207)">
    <path id="Trazado_197291" data-name="Trazado 197291" d="M10,0H339a10,10,0,0,1,10,10V71a10,10,0,0,1-10,10H10A10,10,0,0,1,0,71V10A10,10,0,0,1,10,0Z" transform="translate(-6789.244 -12707.207)" fill="#a4a3ff"/>
    <path id="Trazado_197292" data-name="Trazado 197292" d="M5.489-7.82l2.739-3.8H11.2L6.757-5.779,9.346,0H6.682L5.06-3.964,2.2,0H-.763L3.824-6.016l-2.5-5.607H3.985ZM27.1-8.379h-9l.387-2.17h8.991Zm-.795,4.555H17.316l.376-2.159h9ZM40.541-6.316a18.981,18.981,0,0,1,2.369-6.977,9.907,9.907,0,0,1,4.463-4.238l.387,1.547q-3.674,2.836-4.77,8.895a24.862,24.862,0,0,0-.408,4.265A11.8,11.8,0,0,0,43.1.983a5.743,5.743,0,0,0,1.59,2.562l-.6,1.429a7.2,7.2,0,0,1-2.82-3.545,13.761,13.761,0,0,1-.9-5.607,16.671,16.671,0,0,1,.15-1.955Zm29.312-6.75H67.582l-1.45,8.613a3.035,3.035,0,0,0-.015.659q.088.952,1.172,1a6.679,6.679,0,0,0,1.245-.132L68.285-.146A7.462,7.462,0,0,1,66.1.161a3.258,3.258,0,0,1-2.717-1.223,4.482,4.482,0,0,1-.71-3.215l1.436-8.789H59.423L57.152,0H53.681l2.271-13.066H53.5L54-15.85H70.336ZM88.6-7.82l2.739-3.8h2.976L89.871-5.779,92.46,0H89.8L88.174-3.964,85.316,0H82.352l4.587-6.016-2.5-5.607H87.1ZM95.632,7H94.147L95.325.22H96.81Zm-.094-8.515a.838.838,0,0,1,.226-.589.826.826,0,0,1,.608-.257.79.79,0,0,1,.6.222.77.77,0,0,1,.241.573.792.792,0,0,1-.235.589.861.861,0,0,1-.6.244.8.8,0,0,1-.6-.216A.745.745,0,0,1,95.538-1.515ZM99.594,5l-.4-1.482a11.8,11.8,0,0,0,3.566-4.775,21.747,21.747,0,0,0,1.568-7.117l.043-1.332q0-4.522-2.105-6.37l.612-1.439a6.6,6.6,0,0,1,2.111,2.111,10,10,0,0,1,1.3,3.228,15.6,15.6,0,0,1,.381,3.813,19.8,19.8,0,0,1-1.058,5.806A15.543,15.543,0,0,1,103.1,2.186,9.487,9.487,0,0,1,99.594,5ZM140.522-8.379h-9l.387-2.17H140.9Zm-.795,4.555h-8.991l.376-2.159h9ZM153.96-6.316a18.981,18.981,0,0,1,2.369-6.977,9.907,9.907,0,0,1,4.463-4.238l.387,1.547q-3.674,2.836-4.77,8.895A24.862,24.862,0,0,0,156-2.825a11.8,11.8,0,0,0,.516,3.808,5.743,5.743,0,0,0,1.59,2.562l-.6,1.429a7.2,7.2,0,0,1-2.82-3.545,13.761,13.761,0,0,1-.9-5.607,16.672,16.672,0,0,1,.15-1.955Zm17.091-1.5,2.739-3.8h2.976l-4.447,5.844L174.908,0h-2.664l-1.622-3.964L167.764,0H164.8l4.587-6.016-2.5-5.607h2.664ZM180.417,7h-1.479L180.2-.294,177.9.471l.232-1.347,3.609-1.278h.226ZM194.452-7.82l2.739-3.8h2.976l-4.447,5.844L198.308,0h-2.664l-1.622-3.964L191.165,0H188.2l4.587-6.016-2.5-5.607h2.664ZM205.829,7H199.87l.175-1.109,3.791-3.64A3.461,3.461,0,0,0,205,.377a1.344,1.344,0,0,0-.2-.993,1.029,1.029,0,0,0-.846-.423,1.536,1.536,0,0,0-1.172.435,2.039,2.039,0,0,0-.576,1.256l-1.479.006a3.083,3.083,0,0,1,.511-1.51,3.05,3.05,0,0,1,1.191-1.043,3.364,3.364,0,0,1,1.607-.354,2.693,2.693,0,0,1,1.883.689,2.121,2.121,0,0,1,.611,1.78A4.544,4.544,0,0,1,205,2.921l-.388.382-2.638,2.481h4.054Zm7.082-8.257a1.446,1.446,0,0,1,.414-1.069,1.508,1.508,0,0,1,1.058-.435,1.4,1.4,0,0,1,1.058.381,1.366,1.366,0,0,1,.424,1.037,1.416,1.416,0,0,1-.408,1.037,1.5,1.5,0,0,1-1.063.435,1.413,1.413,0,0,1-1.058-.376A1.323,1.323,0,0,1,212.911-1.257Zm4.77,0a1.446,1.446,0,0,1,.414-1.069,1.508,1.508,0,0,1,1.058-.435,1.4,1.4,0,0,1,1.058.381,1.366,1.366,0,0,1,.424,1.037,1.416,1.416,0,0,1-.408,1.037,1.5,1.5,0,0,1-1.063.435A1.413,1.413,0,0,1,218.1-.247,1.323,1.323,0,0,1,217.68-1.257Zm4.6,0a1.446,1.446,0,0,1,.414-1.069,1.508,1.508,0,0,1,1.058-.435,1.4,1.4,0,0,1,1.058.381,1.366,1.366,0,0,1,.424,1.037,1.416,1.416,0,0,1-.408,1.037,1.5,1.5,0,0,1-1.063.435A1.413,1.413,0,0,1,222.7-.247,1.323,1.323,0,0,1,222.278-1.257ZM238.456-7.82l2.739-3.8h2.976l-4.447,5.844L242.312,0h-2.664l-1.622-3.964L235.169,0H232.2l4.587-6.016-2.5-5.607h2.664Zm8,8.034-.15.8a2.587,2.587,0,0,1,2.011-.915,1.639,1.639,0,0,1,1.41.68,2.714,2.714,0,0,1,.338,1.845L249.332,7h-1.485l.739-4.4a2.251,2.251,0,0,0,.006-.5.8.8,0,0,0-.89-.764,1.8,1.8,0,0,0-1.485.833L245.372,7h-1.485L245.059.22ZM253.194,5l-.4-1.482a11.8,11.8,0,0,0,3.566-4.775,21.747,21.747,0,0,0,1.568-7.117l.043-1.332q0-4.522-2.105-6.37l.612-1.439a6.6,6.6,0,0,1,2.111,2.111,10,10,0,0,1,1.3,3.228,15.6,15.6,0,0,1,.381,3.813,19.8,19.8,0,0,1-1.058,5.806A15.543,15.543,0,0,1,256.7,2.186,9.487,9.487,0,0,1,253.194,5Z" transform="translate(-6755.367 -12660.207)" fill="#fff"/>
    <path id="Trazado_197294" data-name="Trazado 197294" d="M4.695,0H2.966L4.446-8.525l-2.7.894.271-1.575L6.24-10.7H6.5Z" transform="translate(-6490.153 -12681.207)" fill="#fff"/>
    <path id="Trazado_178596" data-name="Trazado 178596" d="M-9613.245-9288.434h17.943" transform="translate(3118.756 -3390.207)" fill="#fff" stroke="#fff" stroke-width="1"/>
    <path id="Trazado_197293" data-name="Trazado 197293" d="M3.1-7.932,2.922-7A3.024,3.024,0,0,1,5.273-8.071a1.916,1.916,0,0,1,1.648.795,3.172,3.172,0,0,1,.4,2.157L6.46,0H4.724l.864-5.142A2.631,2.631,0,0,0,5.6-5.728a.934.934,0,0,0-1.04-.894,2.11,2.11,0,0,0-1.736.974L1.831,0H.1l1.37-7.925Z" transform="translate(-6490.153 -12668.207)" fill="#fff"/>
    <path id="Trazado_197296" data-name="Trazado 197296" d="M4.695,0H2.966L4.446-8.525l-2.7.894.271-1.575L6.24-10.7H6.5Z" transform="translate(-6642.975 -12686.207)" fill="#fff"/>
    <path id="Trazado_178597" data-name="Trazado 178597" d="M-9613.245-9288.434h17.943" transform="translate(2965.935 -3395.207)" fill="#fff" stroke="#fff" stroke-width="1"/>
    <path id="Trazado_197295" data-name="Trazado 197295" d="M3.1-7.932,2.922-7A3.024,3.024,0,0,1,5.273-8.071a1.916,1.916,0,0,1,1.648.795,3.172,3.172,0,0,1,.4,2.157L6.46,0H4.724l.864-5.142A2.631,2.631,0,0,0,5.6-5.728a.934.934,0,0,0-1.04-.894,2.11,2.11,0,0,0-1.736.974L1.831,0H.1l1.37-7.925Z" transform="translate(-6642.975 -12673.207)" fill="#fff"/>
    <path id="Trazado_197298" data-name="Trazado 197298" d="M3.1-7.932,2.922-7A3.024,3.024,0,0,1,5.273-8.071a1.916,1.916,0,0,1,1.648.795,3.172,3.172,0,0,1,.4,2.157L6.46,0H4.724l.864-5.142A2.631,2.631,0,0,0,5.6-5.728a.934.934,0,0,0-1.04-.894,2.11,2.11,0,0,0-1.736.974L1.831,0H.1l1.37-7.925Z" transform="translate(-6696.975 -12682.207)" fill="#fff"/>
    <path id="Trazado_197297" data-name="Trazado 197297" d="M1.963,0H.227L1.6-7.925H3.34Zm-.11-9.954a.979.979,0,0,1,.264-.688.966.966,0,0,1,.71-.3.924.924,0,0,1,.707.26.9.9,0,0,1,.282.67.926.926,0,0,1-.275.688,1.007,1.007,0,0,1-.7.286.939.939,0,0,1-.7-.253A.871.871,0,0,1,1.853-9.954ZM14.875-5.713H8.738L9-7.192h6.13Zm-.542,3.105H8.2L8.459-4.08H14.6ZM24.1,0H22.368l1.479-8.525-2.7.894.271-1.575L25.642-10.7h.264Z" transform="translate(-6708.244 -12639.549)" fill="#fff"/>
    <path id="Trazado_178598" data-name="Trazado 178598" d="M-9613.245-9288.434h17.943" transform="translate(2856.756 -3390.207)" fill="#fff" stroke="#fff" stroke-width="1"/>
  </g>
</svg>
