<svg xmlns="http://www.w3.org/2000/svg" width="234" height="81" viewBox="0 0 234 81">
  <g id="Grupo_171227" data-name="Grupo 171227" transform="translate(6740.801 12201.07)">
    <path id="Trazado_205142" data-name="Trazado 205142" d="M10,0H224a10,10,0,0,1,10,10V71a10,10,0,0,1-10,10H10A10,10,0,0,1,0,71V10A10,10,0,0,1,10,0Z" transform="translate(-6740.801 -12201.07)" fill="#a4a3ff"/>
    <path id="Trazado_205146" data-name="Trazado 205146" d="M5.328-7.391l3.158-4.232h2.385L6.209-5.779,9.045,0H6.929L5.006-4.34,1.729,0H-.645l4.8-5.973-2.75-5.65H3.534ZM26.759-8.744h-8.7l.3-1.729H27.07Zm-.773,4.458h-8.7L17.585-6H26.3Zm16.887-7.348-.279,1.472a4.582,4.582,0,0,1,3.566-1.676A2.883,2.883,0,0,1,48.587-10.7a4.424,4.424,0,0,1,.58,3.083L47.9,0H45.955l1.278-7.64a4.073,4.073,0,0,0,.011-.977,1.606,1.606,0,0,0-1.772-1.534A3.66,3.66,0,0,0,42.4-8.284L40.96,0H39.016l2.02-11.623ZM57.9-8.6A27.73,27.73,0,0,1,59.7-15.19a20.427,20.427,0,0,1,3.215-5.471,13.209,13.209,0,0,1,4.248-3.42l.4,1.816a15.2,15.2,0,0,0-3.948,4.475,23.027,23.027,0,0,0-2.542,6.563A31.564,31.564,0,0,0,60.2-3.735,16.593,16.593,0,0,0,60.988,1.6a8.427,8.427,0,0,0,2.263,3.64l-.659,1.641A10.578,10.578,0,0,1,58.849,1.86,19.379,19.379,0,0,1,57.67-5.757a23.158,23.158,0,0,1,.205-2.681Zm23.6.859L75.884-1.687h8.089L83.672,0H72.994l.29-1.633,6.1-6.3L75.454-14.2l.258-1.439H85.874l-.3,1.687h-7.7L81.523-8Z" transform="translate(-6706.924 -12154.07)" fill="#fff"/>
    <path id="Trazado_178600" data-name="Trazado 178600" d="M-9613.245-9288.434h17.943" transform="translate(2905.199 -2884.071)" fill="none" stroke="#fff" stroke-width="1"/>
    <path id="Trazado_205147" data-name="Trazado 205147" d="M4.424,0H3.091L4.658-8.994,1.824-8l.227-1.289,3.955-1.428H6.24Z" transform="translate(-6603.196 -12166.07)" fill="#fff"/>
    <path id="Trazado_178601" data-name="Trazado 178601" d="M-9613.245-9288.434h17.943" transform="translate(3005.623 -2871.637)" fill="none" stroke="#fff" stroke-width="1"/>
    <path id="Trazado_205143" data-name="Trazado 205143" d="M3.633-5.039,5.786-7.925H7.412L4.233-3.94,6.167,0H4.724L3.413-2.959,1.179,0H-.439L2.834-4.072.959-7.925H2.41ZM8.257,5H7.488l.8-4.623h.769Zm.637-6.31a.423.423,0,0,1,.327.117.44.44,0,0,1,.13.331.464.464,0,0,1-.13.329A.468.468,0,0,1,8.894-.4a.426.426,0,0,1-.329-.115.418.418,0,0,1-.124-.325.485.485,0,0,1,.128-.333A.452.452,0,0,1,8.894-1.31Z" transform="translate(-6604.196 -12147.07)" fill="#fff"/>
    <path id="Trazado_205144" data-name="Trazado 205144" d="M8.013-8.569a27.181,27.181,0,0,1-1.86,6.76,20.327,20.327,0,0,1-3.23,5.376A13.431,13.431,0,0,1-1.245,6.9l-.41-1.685Q3.369,1.436,5.054-6.929A31.563,31.563,0,0,0,5.7-13.418Q5.625-19.7,2.651-22.427l.688-1.641a9.711,9.711,0,0,1,2.776,3.04,14.334,14.334,0,0,1,1.67,4.409,22.58,22.58,0,0,1,.476,5.208,25.02,25.02,0,0,1-.22,2.681Z" transform="translate(-6579.801 -12152.07)" fill="#fff"/>
    <path id="Trazado_205148" data-name="Trazado 205148" d="M5.371-5.833H.269l.29-1.622h5.1ZM17.875,0H15.92l2.3-13.191L14.062-11.73l.333-1.891,5.8-2.095h.344Z" transform="translate(-6561.801 -12177.07)" fill="#fff"/>
    <path id="Trazado_205145" data-name="Trazado 205145" d="M1.663,0H.344L1.721-7.925H3.04ZM2.754-10.818a.725.725,0,0,1,.56.2.754.754,0,0,1,.223.568.8.8,0,0,1-.223.564.8.8,0,0,1-.56.234.73.73,0,0,1-.564-.2A.717.717,0,0,1,1.978-10a.831.831,0,0,1,.22-.571A.775.775,0,0,1,2.754-10.818ZM14.561-5.962H8.628l.205-1.179h5.94Zm-.527,3.04H8.1l.205-1.172h5.94ZM23.438,0H22.1l1.567-8.994L20.837-8l.227-1.289,3.955-1.428h.234Z" transform="translate(-6642.592 -12135.07)" fill="#fff"/>
  </g>
</svg>
