<svg xmlns="http://www.w3.org/2000/svg" width="326" height="81" viewBox="0 0 326 81">
  <g id="Grupo_171245" data-name="Grupo 171245" transform="translate(-790 -22224)">
    <path id="Trazado_205183" data-name="Trazado 205183" d="M10,0H316a10,10,0,0,1,10,10V71a10,10,0,0,1-10,10H10A10,10,0,0,1,0,71V10A10,10,0,0,1,10,0Z" transform="translate(790 22224)" fill="#a4a3ff"/>
    <path id="Trazado_205187" data-name="Trazado 205187" d="M1.846,0V-7.928H.4V-9.51h1.45v-.87a3.266,3.266,0,0,1,.879-2.443,3.367,3.367,0,0,1,2.461-.861,4.936,4.936,0,0,1,1.2.158l-.053,1.67a4.207,4.207,0,0,0-.817-.07,1.371,1.371,0,0,0-1.529,1.573v.844H5.915v1.582H3.981V0ZM11.988-5.2a13.393,13.393,0,0,1,.545-3.854,10.578,10.578,0,0,1,1.6-3.261,6.351,6.351,0,0,1,2.232-2.017l.422,1.248a6.524,6.524,0,0,0-2.008,2.87A12.852,12.852,0,0,0,13.939-5.8l-.009.756a13.972,13.972,0,0,0,.751,4.75,7,7,0,0,0,2.1,3.177l-.422,1.187a6.362,6.362,0,0,1-2.237-2.026,10.577,10.577,0,0,1-1.6-3.261A13.921,13.921,0,0,1,11.988-5.2ZM26.13-6.381,27.94-9.51h2.373L27.4-4.825,30.41,0H28.055l-1.9-3.252L24.267,0H21.894L24.9-4.825,22-9.51h2.355ZM40.368-5.062A13.224,13.224,0,0,1,39.832-1.3a10.671,10.671,0,0,1-1.626,3.3A6.367,6.367,0,0,1,35.93,4.069l-.422-1.187A6.754,6.754,0,0,0,37.6-.233a13.84,13.84,0,0,0,.769-4.786v-.2A14.044,14.044,0,0,0,37.7-9.672a7.852,7.852,0,0,0-1.916-3.221l-.272-.246.422-1.2a6.3,6.3,0,0,1,2.18,1.934,10.491,10.491,0,0,1,1.617,3.107,12.941,12.941,0,0,1,.633,3.546ZM54.835-6.855H47.259V-8.631h7.576Zm0,3.727H47.259V-4.9h7.576Z" transform="translate(824 22270)" fill="#fff"/>
    <path id="Trazado_205186" data-name="Trazado 205186" d="M8.8.293A7.364,7.364,0,0,1,3.318-1.838a7.732,7.732,0,0,1-2.1-5.676v-.439a9.511,9.511,0,0,1,.916-4.241A6.968,6.968,0,0,1,4.7-15.1a6.8,6.8,0,0,1,3.691-1.04,6.221,6.221,0,0,1,5,2.065,8.734,8.734,0,0,1,1.765,5.845V-6.8H4.8A4.76,4.76,0,0,0,6.116-3.691,3.936,3.936,0,0,0,9.009-2.549a4.82,4.82,0,0,0,3.984-1.978L14.912-2.7a6.408,6.408,0,0,1-2.542,2.2A7.957,7.957,0,0,1,8.8.293ZM8.379-13.286a3,3,0,0,0-2.366,1.025A5.315,5.315,0,0,0,4.863-9.4h6.782v-.264a4.327,4.327,0,0,0-.952-2.7A2.975,2.975,0,0,0,8.379-13.286Z" transform="translate(975 22271)" fill="#fff"/>
    <path id="Trazado_197279" data-name="Trazado 197279" d="M-8216.115,5100h73" transform="translate(9111 17171)" fill="none" stroke="#fff" stroke-width="1"/>
    <path id="Trazado_205192" data-name="Trazado 205192" d="M6.741,0H4.614V-10.281L1.477-9.211V-11l4.992-1.837h.272Z" transform="translate(928 22263)" fill="#fff"/>
    <path id="Trazado_205185" data-name="Trazado 205185" d="M.694-4.843a5.607,5.607,0,0,1,.554-2.518A4.044,4.044,0,0,1,2.8-9.083a4.383,4.383,0,0,1,2.3-.6A4.154,4.154,0,0,1,8.231-8.446a4.874,4.874,0,0,1,1.3,3.287l.009.5A5.658,5.658,0,0,1,9-2.145,4,4,0,0,1,7.449-.431,4.415,4.415,0,0,1,5.124.176,4.125,4.125,0,0,1,1.9-1.165,5.133,5.133,0,0,1,.694-4.737Zm2.136.185a3.832,3.832,0,0,0,.606,2.3,1.971,1.971,0,0,0,1.688.831,1.95,1.95,0,0,0,1.683-.844,4.232,4.232,0,0,0,.6-2.47,3.782,3.782,0,0,0-.62-2.285,1.979,1.979,0,0,0-1.683-.844,1.96,1.96,0,0,0-1.661.831A4.152,4.152,0,0,0,2.83-4.658Z" transform="translate(907 22287)" fill="#fff"/>
    <path id="Trazado_197280" data-name="Trazado 197280" d="M-8299.416,5109.051l7.145,16.439,7.869-16.439h26.4" transform="translate(9221 17167)" fill="none" stroke="#fff" stroke-width="1"/>
    <path id="Trazado_205184" data-name="Trazado 205184" d="M9.563,0H.958V-1.468L5.221-6.117A10.615,10.615,0,0,0,6.535-7.835,2.784,2.784,0,0,0,6.926-9.22,2.1,2.1,0,0,0,6.412-10.7a1.783,1.783,0,0,0-1.384-.562,2.056,2.056,0,0,0-1.608.633,2.489,2.489,0,0,0-.571,1.731H.712A4.186,4.186,0,0,1,1.244-11a3.662,3.662,0,0,1,1.521-1.455,4.84,4.84,0,0,1,2.281-.519,4.329,4.329,0,0,1,2.94.936A3.249,3.249,0,0,1,9.062-9.448,4.392,4.392,0,0,1,8.521-7.44,11.42,11.42,0,0,1,6.75-5.054L3.621-1.705H9.563ZM20.716-7.84h-1.4v5.15a1.169,1.169,0,0,0,.215.787,1,1,0,0,0,.769.242,3.622,3.622,0,0,0,.747-.088V-.1a4.715,4.715,0,0,1-1.406.2q-2.461,0-2.461-2.716V-7.84H14.265V0H12.129V-7.84h-1.5V-9.51h10.09Z" transform="translate(940 22293)" fill="#fff"/>
    <path id="Trazado_205195" data-name="Trazado 205195" d="M5.243,0H3.589V-8l-2.44.832V-8.559L5.031-9.987h.212Z" transform="translate(1010 22247)" fill="#fff"/>
    <path id="Trazado_205137" data-name="Trazado 205137" d="M-8216.117,5100h19.567" transform="translate(9221.139 17154.559)" fill="none" stroke="#fff" stroke-width="1"/>
    <path id="Trazado_205188" data-name="Trazado 205188" d="M7.438,0H.745V-1.142L4.061-4.758A8.256,8.256,0,0,0,5.083-6.094a2.165,2.165,0,0,0,.3-1.077,1.636,1.636,0,0,0-.4-1.148A1.387,1.387,0,0,0,3.91-8.757a1.6,1.6,0,0,0-1.251.492,1.936,1.936,0,0,0-.444,1.347H.554A3.256,3.256,0,0,1,.967-8.555,2.848,2.848,0,0,1,2.15-9.687a3.764,3.764,0,0,1,1.774-.4,3.367,3.367,0,0,1,2.287.728,2.527,2.527,0,0,1,.837,2.013,3.416,3.416,0,0,1-.42,1.562A8.882,8.882,0,0,1,5.25-3.931l-2.434,2.6H7.438Z" transform="translate(1010 22268)" fill="#fff"/>
    <path id="Trazado_205194" data-name="Trazado 205194" d="M10.479-4.963,11.888-7.4h1.846L11.471-3.753,13.809,0H11.977L10.5-2.529,9.03,0H7.185L9.522-3.753,7.267-7.4H9.1Zm11.095,1.4H17.985V-4.9h3.589ZM30.912-.725a2.576,2.576,0,0,1-2.078.861,2.3,2.3,0,0,1-1.822-.7A3,3,0,0,1,26.394-2.6V-7.4h1.661v4.771q0,1.408,1.169,1.408a1.642,1.642,0,0,0,1.634-.868V-7.4h1.661V0H30.953Z" transform="translate(1031 22249)" fill="#fff"/>
    <path id="Trazado_205138" data-name="Trazado 205138" d="M-8216.118,5100h29.165" transform="translate(9255.189 17154.559)" fill="none" stroke="#fff" stroke-width="1"/>
    <path id="Trazado_205191" data-name="Trazado 205191" d="M.54-3.767A4.361,4.361,0,0,1,.971-5.725a3.145,3.145,0,0,1,1.21-1.34,3.409,3.409,0,0,1,1.791-.468,3.231,3.231,0,0,1,2.43.964A3.791,3.791,0,0,1,7.41-4.013l.007.39A4.4,4.4,0,0,1,7-1.668a3.108,3.108,0,0,1-1.2,1.333A3.434,3.434,0,0,1,3.985.137,3.209,3.209,0,0,1,1.48-.906,3.993,3.993,0,0,1,.54-3.685ZM2.2-3.623a2.98,2.98,0,0,0,.472,1.788,1.533,1.533,0,0,0,1.313.646,1.517,1.517,0,0,0,1.309-.656,3.292,3.292,0,0,0,.468-1.921,2.942,2.942,0,0,0-.482-1.777A1.539,1.539,0,0,0,3.972-6.2a1.525,1.525,0,0,0-1.292.646A3.23,3.23,0,0,0,2.2-3.623Z" transform="translate(1050 22267)" fill="#fff"/>
    <path id="Trazado_205196" data-name="Trazado 205196" d="M4.958,5H.5V4.239l2.21-2.411A5.5,5.5,0,0,0,3.388.937a1.443,1.443,0,0,0,.2-.718,1.09,1.09,0,0,0-.267-.766.925.925,0,0,0-.718-.292,1.066,1.066,0,0,0-.834.328,1.29,1.29,0,0,0-.3.9H.369A2.17,2.17,0,0,1,.645-.7a1.9,1.9,0,0,1,.788-.754,2.509,2.509,0,0,1,1.183-.269,2.245,2.245,0,0,1,1.524.485A1.685,1.685,0,0,1,4.7.1a2.277,2.277,0,0,1-.28,1.041A5.921,5.921,0,0,1,3.5,2.38L1.877,4.116H4.958Z" transform="translate(1077 22238)" fill="#fff"/>
    <path id="Trazado_205193" data-name="Trazado 205193" d="M4.074-3.562H.485V-4.9H4.074Z" transform="translate(991 22260)" fill="#fff"/>
    <path id="Trazado_205189" data-name="Trazado 205189" d="M2.5-11.562a29.762,29.762,0,0,1,1.211-8.564,23.508,23.508,0,0,1,3.555-7.246,14.114,14.114,0,0,1,4.961-4.482l.938,2.773A14.5,14.5,0,0,0,8.7-22.705a28.561,28.561,0,0,0-1.865,9.814l-.02,1.68A31.049,31.049,0,0,0,8.486-.654a15.559,15.559,0,0,0,4.678,7.061l-.937,2.637a14.139,14.139,0,0,1-4.971-4.5A23.5,23.5,0,0,1,3.7-2.705,30.936,30.936,0,0,1,2.5-11.562Z" transform="translate(1024 22261)" fill="#fff"/>
    <path id="Trazado_205190" data-name="Trazado 205190" d="M11.582-11.25a29.386,29.386,0,0,1-1.191,8.369A23.712,23.712,0,0,1,6.777,4.463a14.15,14.15,0,0,1-5.059,4.58L.781,6.406A15.01,15.01,0,0,0,5.42-.518,30.756,30.756,0,0,0,7.129-11.152V-11.6a31.209,31.209,0,0,0-1.484-9.893,17.45,17.45,0,0,0-4.258-7.158L.781-29.2l.938-2.656a14,14,0,0,1,4.844,4.3,23.314,23.314,0,0,1,3.594,6.9,28.759,28.759,0,0,1,1.406,7.881Z" transform="translate(1066 22261)" fill="#fff"/>
  </g>
</svg>
