<svg xmlns="http://www.w3.org/2000/svg" width="175" height="81" viewBox="0 0 175 81">
  <g id="Grupo_166887" data-name="Grupo 166887" transform="translate(-184 -4301)">
    <path id="Trazado_197411" data-name="Trazado 197411" d="M10,0H165a10,10,0,0,1,10,10V71a10,10,0,0,1-10,10H10A10,10,0,0,1,0,71V10A10,10,0,0,1,10,0Z" transform="translate(184 4301)" fill="#a4a3ff"/>
    <path id="Trazado_197414" data-name="Trazado 197414" d="M4.509-6.381,6.319-9.51H8.692L5.783-4.825,8.789,0H6.434l-1.9-3.252L2.646,0H.272L3.278-4.825.378-9.51H2.733Zm14.265,1.8H14.159V-6.3h4.614ZM30.779-.932A3.312,3.312,0,0,1,28.107.176a2.952,2.952,0,0,1-2.342-.905,3.851,3.851,0,0,1-.8-2.619V-9.51h2.136v6.135q0,1.811,1.5,1.811a2.111,2.111,0,0,0,2.1-1.116V-9.51h2.136V0H30.832Z" transform="translate(254 4333)" fill="#fff"/>
    <path id="Trazado_177529" data-name="Trazado 177529" d="M-8355.629,9500.428h58.426" transform="translate(8597 -5162)" fill="#fff" stroke="#fff" stroke-width="1"/>
    <path id="Trazado_197412" data-name="Trazado 197412" d="M.694-4.843a5.607,5.607,0,0,1,.554-2.518A4.044,4.044,0,0,1,2.8-9.083a4.383,4.383,0,0,1,2.3-.6A4.154,4.154,0,0,1,8.231-8.446a4.874,4.874,0,0,1,1.3,3.287l.009.5A5.658,5.658,0,0,1,9-2.145,4,4,0,0,1,7.449-.431,4.415,4.415,0,0,1,5.124.176,4.125,4.125,0,0,1,1.9-1.165,5.133,5.133,0,0,1,.694-4.737Zm2.136.185a3.832,3.832,0,0,0,.606,2.3,1.971,1.971,0,0,0,1.688.831,1.95,1.95,0,0,0,1.683-.844,4.232,4.232,0,0,0,.6-2.47,3.782,3.782,0,0,0-.62-2.285,1.979,1.979,0,0,0-1.683-.844,1.96,1.96,0,0,0-1.661.831A4.152,4.152,0,0,0,2.83-4.658Z" transform="translate(249 4357)" fill="#fff"/>
    <path id="Trazado_177530" data-name="Trazado 177530" d="M-8312.862,8041l5.111,9.084,3.25-12.42h15.659" transform="translate(8583.862 -3687.664)" fill="none" stroke="#fff" stroke-linecap="round" stroke-width="1"/>
    <path id="Trazado_197413" data-name="Trazado 197413" d="M3.076-9.51l.062,1.1A3.419,3.419,0,0,1,5.906-9.686q2.971,0,3.023,3.4V0H6.794V-6.161A1.958,1.958,0,0,0,6.4-7.5a1.645,1.645,0,0,0-1.279-.435A2.058,2.058,0,0,0,3.2-6.768V0H1.063V-9.51Z" transform="translate(282.884 4363)" fill="#fff"/>
    <path id="Trazado_177531" data-name="Trazado 177531" d="M-8343,9520.42l18.512-19.2" transform="translate(8600 -5158)" fill="#fff" stroke="#fff" stroke-width="1"/>
  </g>
</svg>
