<svg xmlns="http://www.w3.org/2000/svg" width="252" height="81" viewBox="0 0 252 81">
  <g id="Grupo_166883" data-name="Grupo 166883" transform="translate(-866 -2573)">
    <path id="Trazado_197399" data-name="Trazado 197399" d="M10,0H242a10,10,0,0,1,10,10V71a10,10,0,0,1-10,10H10A10,10,0,0,1,0,71V10A10,10,0,0,1,10,0Z" transform="translate(866 2573)" fill="#a4a3ff"/>
    <path id="Trazado_197400" data-name="Trazado 197400" d="M4.509-6.381,6.319-9.51H8.692L5.783-4.825,8.789,0H6.434l-1.9-3.252L2.646,0H.272L3.278-4.825.378-9.51H2.733Zm17.877-.475H14.81V-8.631h7.576Zm0,3.727H14.81V-4.9h7.576ZM34.831,0H32.7V-10.281l-3.138,1.07V-11l4.992-1.837h.272Zm9.1-5.2a13.393,13.393,0,0,1,.545-3.854,10.578,10.578,0,0,1,1.6-3.261A6.351,6.351,0,0,1,48.3-14.335l.422,1.248a6.524,6.524,0,0,0-2.008,2.87A12.852,12.852,0,0,0,45.879-5.8l-.009.756a13.972,13.972,0,0,0,.751,4.75,7,7,0,0,0,2.1,3.177L48.3,4.069a6.362,6.362,0,0,1-2.237-2.026,10.577,10.577,0,0,1-1.6-3.261A13.921,13.921,0,0,1,43.928-5.2ZM59.265-8.174,61.954-12.8h2.566L60.653-6.451,64.608,0H62.016L59.265-4.693,56.5,0H53.921l3.964-6.451L54.009-12.8h2.566ZM68.883,6H67.643V0l-1.83.624V-.419L68.724-1.49h.159ZM81.43-7.04h3.34v1.951H81.43v3.806H79.356V-5.089H76V-7.04h3.357V-10.6H81.43Zm12.99.659L96.231-9.51H98.6L95.695-4.825,98.7,0H96.345l-1.9-3.252L92.557,0H90.184L93.19-4.825,90.29-9.51h2.355ZM104.542,6H99.523V5.144l2.486-2.712a6.192,6.192,0,0,0,.766-1A1.624,1.624,0,0,0,103,.622a1.227,1.227,0,0,0-.3-.861,1.04,1.04,0,0,0-.807-.328,1.2,1.2,0,0,0-.938.369,1.452,1.452,0,0,0-.333,1.01H99.38a2.442,2.442,0,0,1,.31-1.228,2.136,2.136,0,0,1,.887-.848,2.823,2.823,0,0,1,1.33-.3,2.525,2.525,0,0,1,1.715.546,1.9,1.9,0,0,1,.628,1.51,2.562,2.562,0,0,1-.315,1.171A6.661,6.661,0,0,1,102.9,3.052l-1.825,1.953h3.466Zm10.9-13.04h3.34v1.951h-3.34v3.806h-2.074V-5.089h-3.357V-7.04h3.357V-10.6h2.074Zm10.934,4.79a1.22,1.22,0,0,1,.923.338,1.175,1.175,0,0,1,.325.848,1.134,1.134,0,0,1-.325.831,1.238,1.238,0,0,1-.923.33,1.242,1.242,0,0,1-.905-.325,1.115,1.115,0,0,1-.334-.835,1.175,1.175,0,0,1,.325-.848A1.208,1.208,0,0,1,126.377-2.25Zm4.025,0a1.22,1.22,0,0,1,.923.338,1.175,1.175,0,0,1,.325.848,1.134,1.134,0,0,1-.325.831A1.238,1.238,0,0,1,130.4.1a1.242,1.242,0,0,1-.905-.325,1.115,1.115,0,0,1-.334-.835,1.175,1.175,0,0,1,.325-.848A1.208,1.208,0,0,1,130.4-2.25Zm3.876,0a1.22,1.22,0,0,1,.923.338,1.175,1.175,0,0,1,.325.848,1.134,1.134,0,0,1-.325.831,1.238,1.238,0,0,1-.923.33,1.242,1.242,0,0,1-.905-.325,1.115,1.115,0,0,1-.334-.835,1.175,1.175,0,0,1,.325-.848A1.208,1.208,0,0,1,134.279-2.25Zm12.867-4.79h3.34v1.951h-3.34v3.806h-2.074V-5.089h-3.357V-7.04h3.357V-10.6h2.074Zm14.186-1.134,2.689-4.623h2.566L162.72-6.451,166.675,0h-2.593l-2.751-4.693L158.572,0h-2.584l3.964-6.451L156.075-12.8h2.566ZM168.812.453l.036.641A1.994,1.994,0,0,1,170.463.35q1.733,0,1.764,1.984V6h-1.246V2.406a1.142,1.142,0,0,0-.228-.782.96.96,0,0,0-.746-.254,1.2,1.2,0,0,0-1.123.682V6h-1.246V.453Zm11.871-5.515a13.224,13.224,0,0,1-.536,3.766,10.671,10.671,0,0,1-1.626,3.3,6.367,6.367,0,0,1-2.276,2.061l-.422-1.187a6.754,6.754,0,0,0,2.087-3.116,13.84,13.84,0,0,0,.769-4.786v-.2a14.044,14.044,0,0,0-.668-4.452,7.852,7.852,0,0,0-1.916-3.221l-.272-.246.422-1.2a6.3,6.3,0,0,1,2.18,1.934,10.491,10.491,0,0,1,1.617,3.107,12.941,12.941,0,0,1,.633,3.546Z" transform="translate(894 2616)" fill="#fff"/>
    <path id="Trazado_177497" data-name="Trazado 177497" d="M-8349.549,7845h14.3" transform="translate(9269 -5225)" fill="none" stroke="#fff" stroke-width="1"/>
    <path id="Trazado_197401" data-name="Trazado 197401" d="M3.076-9.51l.062,1.1A3.419,3.419,0,0,1,5.906-9.686q2.971,0,3.023,3.4V0H6.794V-6.161A1.958,1.958,0,0,0,6.4-7.5a1.645,1.645,0,0,0-1.279-.435A2.058,2.058,0,0,0,3.2-6.768V0H1.063V-9.51Z" transform="translate(922 2634)" fill="#fff"/>
    <path id="Trazado_177498" data-name="Trazado 177498" d="M-8374,7823h11" transform="translate(9268 -5222)" fill="none" stroke="#fff" stroke-width="1"/>
  </g>
</svg>
