<svg xmlns="http://www.w3.org/2000/svg" width="190" height="81" viewBox="0 0 190 81">
  <g id="Grupo_166885" data-name="Grupo 166885" transform="translate(-410 -3674)">
    <path id="Trazado_197407" data-name="Trazado 197407" d="M10,0H180a10,10,0,0,1,10,10V71a10,10,0,0,1-10,10H10A10,10,0,0,1,0,71V10A10,10,0,0,1,10,0Z" transform="translate(410 3674)" fill="#a4a3ff"/>
    <path id="Trazado_197408" data-name="Trazado 197408" d="M9.3-5.388A6.979,6.979,0,0,1,8.266-1.226,3.647,3.647,0,0,1,5.124.176,3.7,3.7,0,0,1,2-1.191,6.683,6.683,0,0,1,.923-5.238V-7.453a6.874,6.874,0,0,1,1.033-4.14,3.681,3.681,0,0,1,3.151-1.38A3.7,3.7,0,0,1,8.24-11.628,6.664,6.664,0,0,1,9.3-7.6ZM7.163-7.778a5.415,5.415,0,0,0-.492-2.641,1.68,1.68,0,0,0-1.564-.839,1.679,1.679,0,0,0-1.538.8A5,5,0,0,0,3.05-7.98v2.9a5.555,5.555,0,0,0,.5,2.672,1.683,1.683,0,0,0,1.573.879,1.653,1.653,0,0,0,1.521-.813,5.226,5.226,0,0,0,.519-2.544Zm5.7,10.056L13.917.453H15.3L13.6,3.185,15.357,6H13.983L12.876,4.1,11.774,6H10.389l1.753-2.815L10.451.453h1.374ZM28.844-6.855H21.268V-8.631h7.576Zm0,3.727H21.268V-4.9h7.576Z" transform="translate(466 3719)" fill="#fff"/>
    <path id="Trazado_197410" data-name="Trazado 197410" d="M11.514-6.064a7.851,7.851,0,0,1-.65,3.3A4.918,4.918,0,0,1,9-.584a5.113,5.113,0,0,1-2.782.76A5.125,5.125,0,0,1,3.45-.584,4.993,4.993,0,0,1,1.569-2.751,7.606,7.606,0,0,1,.9-5.994v-.721a7.784,7.784,0,0,1,.664-3.3,4.987,4.987,0,0,1,1.872-2.193,5.1,5.1,0,0,1,2.773-.76,5.142,5.142,0,0,1,2.773.751,4.924,4.924,0,0,1,1.868,2.162,7.767,7.767,0,0,1,.668,3.283ZM9.29-6.732a5.594,5.594,0,0,0-.8-3.261,2.631,2.631,0,0,0-2.281-1.134A2.623,2.623,0,0,0,3.951-10,5.486,5.486,0,0,0,3.12-6.8v.738A5.552,5.552,0,0,0,3.942-2.8,2.646,2.646,0,0,0,6.223-1.652,2.615,2.615,0,0,0,8.495-2.777a5.671,5.671,0,0,0,.8-3.287Z" transform="translate(514 3711)" fill="#fff"/>
    <path id="Trazado_177527" data-name="Trazado 177527" d="M-8315.884,8036h24.243" transform="translate(8825 -4322)" fill="#fff" stroke="#fff" stroke-width="1"/>
    <path id="Trazado_177528" data-name="Trazado 177528" d="M-8312.862,8041l5.111,9.084,3.25-12.42h15.659" transform="translate(8820.979 -4319.664)" fill="none" stroke="#fff" stroke-linecap="round" stroke-width="1"/>
    <path id="Trazado_197409" data-name="Trazado 197409" d="M3.076-9.51l.062,1.1A3.419,3.419,0,0,1,5.906-9.686q2.971,0,3.023,3.4V0H6.794V-6.161A1.958,1.958,0,0,0,6.4-7.5a1.645,1.645,0,0,0-1.279-.435A2.058,2.058,0,0,0,3.2-6.768V0H1.063V-9.51Z" transform="translate(520 3731)" fill="#fff"/>
  </g>
</svg>
