<svg xmlns="http://www.w3.org/2000/svg" width="91.695" height="33.715" viewBox="0 0 91.695 33.715">
  <g id="Grupo_166888" data-name="Grupo 166888" transform="translate(-515.32 -4477)">
    <path id="Trazado_177536" data-name="Trazado 177536" d="M11.514-6.064a7.851,7.851,0,0,1-.65,3.3A4.918,4.918,0,0,1,9-.584a5.113,5.113,0,0,1-2.782.76A5.125,5.125,0,0,1,3.45-.584,4.993,4.993,0,0,1,1.569-2.751,7.606,7.606,0,0,1,.9-5.994v-.721a7.784,7.784,0,0,1,.664-3.3,4.987,4.987,0,0,1,1.872-2.193,5.1,5.1,0,0,1,2.773-.76,5.142,5.142,0,0,1,2.773.751,4.924,4.924,0,0,1,1.868,2.162,7.767,7.767,0,0,1,.668,3.283ZM9.29-6.732a5.594,5.594,0,0,0-.8-3.261,2.631,2.631,0,0,0-2.281-1.134A2.623,2.623,0,0,0,3.951-10,5.486,5.486,0,0,0,3.12-6.8v.738A5.552,5.552,0,0,0,3.942-2.8,2.646,2.646,0,0,0,6.223-1.652,2.615,2.615,0,0,0,8.495-2.777a5.671,5.671,0,0,0,.8-3.287Z" transform="translate(563.884 4489.973)" fill="#12263f"/>
    <path id="Trazado_177532" data-name="Trazado 177532" d="M-8315.884,8036h24.243" transform="translate(8874.884 -3543.027)" fill="none" stroke="#12263f" stroke-width="1"/>
    <path id="Trazado_177533" data-name="Trazado 177533" d="M-8312.862,8041l5.111,9.084,3.25-12.42h15.659" transform="translate(8870.862 -3540.691)" fill="none" stroke="#12263f" stroke-linecap="round" stroke-width="1"/>
    <path id="Trazado_177534" data-name="Trazado 177534" d="M3.076-9.51l.062,1.1A3.419,3.419,0,0,1,5.906-9.686q2.971,0,3.023,3.4V0H6.794V-6.161A1.958,1.958,0,0,0,6.4-7.5a1.645,1.645,0,0,0-1.279-.435A2.058,2.058,0,0,0,3.2-6.768V0H1.063V-9.51Z" transform="translate(569.884 4509.973)" fill="#12263f"/>
    <path id="Trazado_177535" data-name="Trazado 177535" d="M10.063,0H8.555L2.828-8.766V0H1.32V-11.375H2.828L8.57-2.57v-8.8h1.492Zm6.344-4.617a12.079,12.079,0,0,1,.473-3.391,9.85,9.85,0,0,1,1.41-2.953,6,6,0,0,1,1.945-1.875l.3.953A6.222,6.222,0,0,0,18.66-9.211a11.583,11.583,0,0,0-.8,4.023l-.008.664a11.643,11.643,0,0,0,1.1,5.234,6.252,6.252,0,0,0,1.578,2.078l-.3.883A6.192,6.192,0,0,1,18.25,1.734,10.859,10.859,0,0,1,16.406-4.617Zm7.078-3.836v4.945a3.517,3.517,0,0,0,.41,1.883,1.452,1.452,0,0,0,1.309.609A1.968,1.968,0,0,0,27.242-2.2v-6.25H28.7V0h-1.3l-.07-.9A2.35,2.35,0,0,1,25.266.156a2.568,2.568,0,0,1-1.781-.57V3.25H22.039v-11.7ZM30.945,2.266l-.82-.562a3.77,3.77,0,0,0,.766-2.109v-1.3H32.3V-.578A3.559,3.559,0,0,1,31.918,1,3.7,3.7,0,0,1,30.945,2.266Zm58.016-6.8A12.084,12.084,0,0,1,88.5-1.2a9.876,9.876,0,0,1-1.4,2.949,6.127,6.127,0,0,1-1.973,1.922l-.3-.883A6.281,6.281,0,0,0,86.762-.074a12.387,12.387,0,0,0,.746-4.309v-.25a12.861,12.861,0,0,0-.344-3.051,10.3,10.3,0,0,0-.957-2.527,5.838,5.838,0,0,0-1.379-1.742l.3-.883A6.1,6.1,0,0,1,87.1-10.93a9.9,9.9,0,0,1,1.4,2.945A12.363,12.363,0,0,1,88.961-4.539ZM91.219-.758a.905.905,0,0,1,.223-.625.848.848,0,0,1,.668-.25.874.874,0,0,1,.676.25.887.887,0,0,1,.23.625.839.839,0,0,1-.23.6.89.89,0,0,1-.676.242.863.863,0,0,1-.668-.242A.855.855,0,0,1,91.219-.758Z" transform="translate(514 4499.473)" fill="#12263f"/>
  </g>
</svg>
