<svg xmlns="http://www.w3.org/2000/svg" width="190" height="81" viewBox="0 0 190 81">
  <g id="Grupo_166884" data-name="Grupo 166884" transform="translate(-894 -2766)">
    <path id="Trazado_197402" data-name="Trazado 197402" d="M10,0H180a10,10,0,0,1,10,10V71a10,10,0,0,1-10,10H10A10,10,0,0,1,0,71V10A10,10,0,0,1,10,0Z" transform="translate(894 2766)" fill="#a4a3ff"/>
    <path id="Trazado_197406" data-name="Trazado 197406" d="M10.661-12.8v8.552a4.156,4.156,0,0,1-1.305,3.23A4.958,4.958,0,0,1,5.88.176,4.993,4.993,0,0,1,2.391-1,4.176,4.176,0,0,1,1.1-4.254V-12.8H3.313v8.561a2.719,2.719,0,0,0,.65,1.96A2.537,2.537,0,0,0,5.88-1.6q2.566,0,2.566-2.707V-12.8Zm3.7,15.075L15.419.453H16.8l-1.7,2.733L16.86,6H15.486L14.379,4.1,13.277,6H11.892l1.753-2.815L11.954.453h1.374ZM30.347-6.855H22.771V-8.631h7.576Zm0,3.727H22.771V-4.9h7.576Zm12.56,2.2A3.312,3.312,0,0,1,40.235.176a2.952,2.952,0,0,1-2.342-.905,3.851,3.851,0,0,1-.8-2.619V-9.51h2.136v6.135q0,1.811,1.5,1.811a2.111,2.111,0,0,0,2.1-1.116V-9.51h2.136V0H42.959Z" transform="translate(959.32 2793)" fill="#fff"/>
    <path id="Trazado_197403" data-name="Trazado 197403" d="M10.107-7.787H7.761A4.2,4.2,0,0,1,9.4-4.3a4.9,4.9,0,0,1-.536,2.285A3.92,3.92,0,0,1,7.348-.4,4.344,4.344,0,0,1,5.1.176,4.086,4.086,0,0,1,1.916-1.143a5.152,5.152,0,0,1-1.2-3.595v-.105A4.779,4.779,0,0,1,1.9-8.213a4.114,4.114,0,0,1,3.138-1.3h5.071ZM2.856-4.658a3.933,3.933,0,0,0,.584,2.307A1.913,1.913,0,0,0,5.1-1.529a1.824,1.824,0,0,0,1.6-.826A4.423,4.423,0,0,0,7.26-4.843,3.587,3.587,0,0,0,6.684-7a1.875,1.875,0,0,0-1.6-.787,1.942,1.942,0,0,0-1.63.773A3.851,3.851,0,0,0,2.856-4.658ZM12.9,2.278,13.952.453h1.384l-1.7,2.733L15.392,6H14.018L12.911,4.1,11.809,6H10.425l1.753-2.815L10.486.453H11.86ZM28.879-6.855H21.3V-8.631h7.576Zm0,3.727H21.3V-4.9h7.576Z" transform="translate(959.32 2818)" fill="#fff"/>
    <path id="Trazado_197404" data-name="Trazado 197404" d="M10.107-7.787H7.761A4.2,4.2,0,0,1,9.4-4.3a4.9,4.9,0,0,1-.536,2.285A3.92,3.92,0,0,1,7.348-.4,4.344,4.344,0,0,1,5.1.176,4.086,4.086,0,0,1,1.916-1.143a5.152,5.152,0,0,1-1.2-3.595v-.105A4.779,4.779,0,0,1,1.9-8.213a4.114,4.114,0,0,1,3.138-1.3h5.071ZM2.856-4.658a3.933,3.933,0,0,0,.584,2.307A1.913,1.913,0,0,0,5.1-1.529a1.824,1.824,0,0,0,1.6-.826A4.423,4.423,0,0,0,7.26-4.843,3.587,3.587,0,0,0,6.684-7a1.875,1.875,0,0,0-1.6-.787,1.942,1.942,0,0,0-1.63.773A3.851,3.851,0,0,0,2.856-4.658Z" transform="translate(999.32 2818)" fill="#fff"/>
    <path id="Trazado_177499" data-name="Trazado 177499" d="M-8315.884,8036h24.243" transform="translate(9310.32 -5215)" fill="#fff" stroke="#fff" stroke-width="1"/>
    <path id="Trazado_177500" data-name="Trazado 177500" d="M-8312.862,8041l5.111,9.084,3.25-12.42h15.659" transform="translate(9306.299 -5212.664)" fill="none" stroke="#fff" stroke-linecap="round" stroke-width="1"/>
    <path id="Trazado_197405" data-name="Trazado 197405" d="M3.076-9.51l.062,1.1A3.419,3.419,0,0,1,5.906-9.686q2.971,0,3.023,3.4V0H6.794V-6.161A1.958,1.958,0,0,0,6.4-7.5a1.645,1.645,0,0,0-1.279-.435A2.058,2.058,0,0,0,3.2-6.768V0H1.063V-9.51Z" transform="translate(1005.32 2838)" fill="#fff"/>
  </g>
</svg>
