<svg xmlns="http://www.w3.org/2000/svg" width="601" height="126" viewBox="0 0 601 126">
  <g id="Grupo_171228" data-name="Grupo 171228" transform="translate(6908 12041)">
    <path id="Trazado_205149" data-name="Trazado 205149" d="M10,0H591a10,10,0,0,1,10,10V116a10,10,0,0,1-10,10H10A10,10,0,0,1,0,116V10A10,10,0,0,1,10,0Z" transform="translate(-6908 -12041)" fill="#a4a3ff"/>
    <path id="Trazado_205170" data-name="Trazado 205170" d="M6.488,0H4.533l2.3-13.191L2.675-11.73l.333-1.891,5.8-2.095h.344Z" transform="translate(-6857.302 -11969.813)" fill="#fff"/>
    <path id="Trazado_197283" data-name="Trazado 197283" d="M-8279.633-10154h285.883" transform="translate(1408.755 -1845.841)" fill="#fff" stroke="#fff" stroke-width="2"/>
    <path id="Trazado_205167" data-name="Trazado 205167" d="M2.353-7.874,4.34-15.641h7.8l-.29,1.837H5.726l-1.2,4.275a4.786,4.786,0,0,1,2.557-.677,3.511,3.511,0,0,1,2.986,1.466,5.313,5.313,0,0,1,.849,3.679A5.876,5.876,0,0,1,9.206-1.192,5.02,5.02,0,0,1,5.457.226a4.091,4.091,0,0,1-3.019-1.2A4.547,4.547,0,0,1,1.225-4.125H3.04a3.116,3.116,0,0,0,.73,2,2.362,2.362,0,0,0,1.772.73,2.892,2.892,0,0,0,2.315-.978A4.513,4.513,0,0,0,8.97-5.049a3.436,3.436,0,0,0-.5-2.39,2.3,2.3,0,0,0-1.923-.983,3.3,3.3,0,0,0-1.391.236,5.167,5.167,0,0,0-1.208.741Z" transform="translate(-6761 -12013)" fill="#fff"/>
    <path id="Trazado_197284" data-name="Trazado 197284" d="M-9874.273-8254.812h27.94" transform="translate(3008 -3710)" fill="#fff" stroke="#fff" stroke-width="2"/>
    <path id="Trazado_205171" data-name="Trazado 205171" d="M9.206-5.253h2.105l-.29,1.622H8.927L8.293,0H6.338l.634-3.631H.054L.279-4.909,8.873-15.641H11Zm-6.6,0H7.251l1.4-7.691-.312.451Z" transform="translate(-6860.302 -11942.813)" fill="#fff"/>
    <path id="Trazado_205169" data-name="Trazado 205169" d="M7.326-8.39h4.232l-.333,1.88H7L6.145-1.568H4.189L5.049-6.51H.816l.333-1.88H5.371l.795-4.565H8.121Z" transform="translate(-6831.623 -11958)" fill="#fff"/>
    <path id="Trazado_205165" data-name="Trazado 205165" d="M6.488,0H4.533l2.3-13.191L2.675-11.73l.333-1.891,5.8-2.095h.344Z" transform="translate(-6796.973 -11969.813)" fill="#fff"/>
    <path id="Trazado_197285" data-name="Trazado 197285" d="M-9874.273-8254.812h27.94" transform="translate(3068.329 -3710)" fill="#fff" stroke="#fff" stroke-width="2"/>
    <path id="Trazado_205166" data-name="Trazado 205166" d="M4.469-8.787l1.289.011a3.808,3.808,0,0,0,2.39-.747A2.83,2.83,0,0,0,9.26-11.548a2.494,2.494,0,0,0-.462-1.96,2.218,2.218,0,0,0-1.751-.736,2.99,2.99,0,0,0-2.079.714,3.155,3.155,0,0,0-1.047,1.982L2-11.537a4.456,4.456,0,0,1,1.649-3.142,5.232,5.232,0,0,1,3.5-1.187,4.18,4.18,0,0,1,3.088,1.23A3.9,3.9,0,0,1,11.2-11.5a3.617,3.617,0,0,1-.849,2.02A5.653,5.653,0,0,1,8.271-7.971a3.091,3.091,0,0,1,1.59,1.359,3.791,3.791,0,0,1,.44,2.175A4.8,4.8,0,0,1,8.621-1.031,5.286,5.286,0,0,1,4.952.215a4.446,4.446,0,0,1-3.2-1.246,3.951,3.951,0,0,1-1.106-3.1l1.944.011a2.612,2.612,0,0,0,.58,1.939,2.475,2.475,0,0,0,1.869.779,3.125,3.125,0,0,0,2.288-.784A3.272,3.272,0,0,0,8.368-4.4,2.393,2.393,0,0,0,7.788-6.4,2.924,2.924,0,0,0,5.7-7.154L4.211-7.165Zm17.886-6.875-.172,1.687h-.376a5.689,5.689,0,0,0-3.674,1.332,8.256,8.256,0,0,0-2.363,3.8,4.53,4.53,0,0,1,3.416-1.418,3.533,3.533,0,0,1,2.116.682A3.8,3.8,0,0,1,22.6-7.75a5.985,5.985,0,0,1,.285,2.573,6.262,6.262,0,0,1-1.7,3.916A4.678,4.678,0,0,1,17.521.215a3.816,3.816,0,0,1-2.857-1.278,5.4,5.4,0,0,1-1.278-3.309,12.522,12.522,0,0,1,.269-3.051,11.068,11.068,0,0,1,2.927-6.123,7.665,7.665,0,0,1,5.559-2.116ZM18.767-8.615a3.28,3.28,0,0,0-1.955.6A4.23,4.23,0,0,0,15.4-6.424l-.075.72-.021.87a5.5,5.5,0,0,0,.269,1.708,2.612,2.612,0,0,0,.795,1.257,1.943,1.943,0,0,0,1.235.44A2.746,2.746,0,0,0,19.835-2.4a4.616,4.616,0,0,0,1.112-2.686,4.636,4.636,0,0,0-.118-1.772,2.6,2.6,0,0,0-.747-1.273A1.981,1.981,0,0,0,18.767-8.615Z" transform="translate(-6803.973 -11942.813)" fill="#fff"/>
    <path id="Trazado_205164" data-name="Trazado 205164" d="M7.326-8.39h4.232l-.333,1.88H7L6.145-1.568H4.189L5.049-6.51H.816l.333-1.88H5.371l.795-4.565H8.121Z" transform="translate(-6771.294 -11958)" fill="#fff"/>
    <path id="Trazado_205159" data-name="Trazado 205159" d="M6.488,0H4.533l2.3-13.191L2.675-11.73l.333-1.891,5.8-2.095h.344Z" transform="translate(-6736.644 -11969.813)" fill="#fff"/>
    <path id="Trazado_197286" data-name="Trazado 197286" d="M-9874.273-8254.812h27.94" transform="translate(3128.658 -3710)" fill="#fff" stroke="#fff" stroke-width="2"/>
    <path id="Trazado_205160" data-name="Trazado 205160" d="M9.206-5.253h2.105l-.29,1.622H8.927L8.293,0H6.338l.634-3.631H.054L.279-4.909,8.873-15.641H11Zm-6.6,0H7.251l1.4-7.691-.312.451ZM14.448-7.874l1.987-7.767h7.8l-.29,1.837H17.821l-1.2,4.275a4.786,4.786,0,0,1,2.557-.677,3.511,3.511,0,0,1,2.986,1.466A5.313,5.313,0,0,1,23.01-5.06,5.876,5.876,0,0,1,21.3-1.192,5.02,5.02,0,0,1,17.553.226a4.091,4.091,0,0,1-3.019-1.2A4.547,4.547,0,0,1,13.32-4.125h1.815a3.116,3.116,0,0,0,.73,2,2.362,2.362,0,0,0,1.772.73,2.892,2.892,0,0,0,2.315-.978,4.513,4.513,0,0,0,1.112-2.675,3.436,3.436,0,0,0-.5-2.39,2.3,2.3,0,0,0-1.923-.983,3.3,3.3,0,0,0-1.391.236,5.167,5.167,0,0,0-1.208.741Z" transform="translate(-6743.644 -11942.813)" fill="#fff"/>
    <path id="Trazado_205158" data-name="Trazado 205158" d="M7.326-8.39h4.232l-.333,1.88H7L6.145-1.568H4.189L5.049-6.51H.816l.333-1.88H5.371l.795-4.565H8.121Z" transform="translate(-6710.965 -11958)" fill="#fff"/>
    <path id="Trazado_205157" data-name="Trazado 205157" d="M6.488,0H4.533l2.3-13.191L2.675-11.73l.333-1.891,5.8-2.095h.344Z" transform="translate(-6681.647 -11969.813)" fill="#fff"/>
    <path id="Trazado_197287" data-name="Trazado 197287" d="M-9874.273-8254.812h27.94" transform="translate(3183.654 -3710)" fill="#fff" stroke="#fff" stroke-width="2"/>
    <path id="Trazado_205156" data-name="Trazado 205156" d="M2.353-7.874,4.34-15.641h7.8l-.29,1.837H5.726l-1.2,4.275a4.786,4.786,0,0,1,2.557-.677,3.511,3.511,0,0,1,2.986,1.466,5.313,5.313,0,0,1,.849,3.679A5.876,5.876,0,0,1,9.206-1.192,5.02,5.02,0,0,1,5.457.226a4.091,4.091,0,0,1-3.019-1.2A4.547,4.547,0,0,1,1.225-4.125H3.04a3.116,3.116,0,0,0,.73,2,2.362,2.362,0,0,0,1.772.73,2.892,2.892,0,0,0,2.315-.978A4.513,4.513,0,0,0,8.97-5.049a3.436,3.436,0,0,0-.5-2.39,2.3,2.3,0,0,0-1.923-.983,3.3,3.3,0,0,0-1.391.236,5.167,5.167,0,0,0-1.208.741ZM17.166.215a3.53,3.53,0,0,1-2.965-1.4A6.223,6.223,0,0,1,13.3-5.1q.021-.795.118-1.568l.387-2.61a9.684,9.684,0,0,1,1.966-4.984,4.7,4.7,0,0,1,3.824-1.59,3.572,3.572,0,0,1,2.981,1.37,6.085,6.085,0,0,1,.908,3.851q-.032.806-.129,1.579l-.376,2.524a10.262,10.262,0,0,1-2.009,5.167A4.67,4.67,0,0,1,17.166.215ZM21.474-9.41a16.627,16.627,0,0,0,.14-2.02q-.054-2.729-2.116-2.8a2.823,2.823,0,0,0-2.433,1.112A7.708,7.708,0,0,0,15.77-9.464l-.462,3.115a15.846,15.846,0,0,0-.14,2.03q.054,2.847,2.105,2.922a2.76,2.76,0,0,0,2.358-1.053,7.465,7.465,0,0,0,1.327-3.545Z" transform="translate(-6688.647 -11942.813)" fill="#fff"/>
    <path id="Trazado_205155" data-name="Trazado 205155" d="M7.326-8.39h4.232l-.333,1.88H7L6.145-1.568H4.189L5.049-6.51H.816l.333-1.88H5.371l.795-4.565H8.121Z" transform="translate(-6655.969 -11958)" fill="#fff"/>
    <path id="Trazado_205153" data-name="Trazado 205153" d="M6.488,0H4.533l2.3-13.191L2.675-11.73l.333-1.891,5.8-2.095h.344Z" transform="translate(-6626.651 -11969.813)" fill="#fff"/>
    <path id="Trazado_197288" data-name="Trazado 197288" d="M-9874.273-8254.812h27.94" transform="translate(3238.65 -3710)" fill="#fff" stroke="#fff" stroke-width="2"/>
    <path id="Trazado_205154" data-name="Trazado 205154" d="M12.311-14.416,3.813,0H1.687l8.454-14.008H1.977l.258-1.633H12.5Zm2.138,6.542,1.987-7.767h7.8l-.29,1.837H17.821l-1.2,4.275a4.786,4.786,0,0,1,2.557-.677,3.511,3.511,0,0,1,2.986,1.466A5.313,5.313,0,0,1,23.01-5.06,5.876,5.876,0,0,1,21.3-1.192,5.02,5.02,0,0,1,17.553.226a4.091,4.091,0,0,1-3.019-1.2A4.547,4.547,0,0,1,13.32-4.125h1.815a3.116,3.116,0,0,0,.73,2,2.362,2.362,0,0,0,1.772.73,2.892,2.892,0,0,0,2.315-.978,4.513,4.513,0,0,0,1.112-2.675,3.436,3.436,0,0,0-.5-2.39,2.3,2.3,0,0,0-1.923-.983,3.3,3.3,0,0,0-1.391.236,5.167,5.167,0,0,0-1.208.741Z" transform="translate(-6633.651 -11942.813)" fill="#fff"/>
    <path id="Trazado_205151" data-name="Trazado 205151" d="M7.326-8.39h4.232l-.333,1.88H7L6.145-1.568H4.189L5.049-6.51H.816l.333-1.88H5.371l.795-4.565H8.121Z" transform="translate(-6600.973 -11958)" fill="#fff"/>
    <path id="Trazado_205161" data-name="Trazado 205161" d="M10.678-8.744h-8.7l.3-1.729h8.712ZM9.9-4.286H1.2L1.5-6h8.712Z" transform="translate(-6562 -11995)" fill="#fff"/>
    <path id="Trazado_197289" data-name="Trazado 197289" d="M-8279.633-10154h48.917" transform="translate(1749.755 -1845.841)" fill="#fff" stroke="#fff" stroke-width="2"/>
    <path id="Trazado_205168" data-name="Trazado 205168" d="M2.353-7.874,4.34-15.641h7.8l-.29,1.837H5.726l-1.2,4.275a4.786,4.786,0,0,1,2.557-.677,3.511,3.511,0,0,1,2.986,1.466,5.313,5.313,0,0,1,.849,3.679A5.876,5.876,0,0,1,9.206-1.192,5.02,5.02,0,0,1,5.457.226a4.091,4.091,0,0,1-3.019-1.2A4.547,4.547,0,0,1,1.225-4.125H3.04a3.116,3.116,0,0,0,.73,2,2.362,2.362,0,0,0,1.772.73,2.892,2.892,0,0,0,2.315-.978A4.513,4.513,0,0,0,8.97-5.049a3.436,3.436,0,0,0-.5-2.39,2.3,2.3,0,0,0-1.923-.983,3.3,3.3,0,0,0-1.391.236,5.167,5.167,0,0,0-1.208.741Z" transform="translate(-6511 -12013)" fill="#fff"/>
    <path id="Trazado_205152" data-name="Trazado 205152" d="M6.488,0H4.533l2.3-13.191L2.675-11.73l.333-1.891,5.8-2.095h.344Z" transform="translate(-6510.418 -11969.813)" fill="#fff"/>
    <path id="Trazado_197290" data-name="Trazado 197290" d="M-9874.273-8254.812h27.94" transform="translate(3354.884 -3710)" fill="#fff" stroke="#fff" stroke-width="2"/>
    <path id="Trazado_205150" data-name="Trazado 205150" d="M4.469-8.787l1.289.011a3.808,3.808,0,0,0,2.39-.747A2.83,2.83,0,0,0,9.26-11.548a2.494,2.494,0,0,0-.462-1.96,2.218,2.218,0,0,0-1.751-.736,2.99,2.99,0,0,0-2.079.714,3.155,3.155,0,0,0-1.047,1.982L2-11.537a4.456,4.456,0,0,1,1.649-3.142,5.232,5.232,0,0,1,3.5-1.187,4.18,4.18,0,0,1,3.088,1.23A3.9,3.9,0,0,1,11.2-11.5a3.617,3.617,0,0,1-.849,2.02A5.653,5.653,0,0,1,8.271-7.971a3.091,3.091,0,0,1,1.59,1.359,3.791,3.791,0,0,1,.44,2.175A4.8,4.8,0,0,1,8.621-1.031,5.286,5.286,0,0,1,4.952.215a4.446,4.446,0,0,1-3.2-1.246,3.951,3.951,0,0,1-1.106-3.1l1.944.011a2.612,2.612,0,0,0,.58,1.939,2.475,2.475,0,0,0,1.869.779,3.125,3.125,0,0,0,2.288-.784A3.272,3.272,0,0,0,8.368-4.4,2.393,2.393,0,0,0,7.788-6.4,2.924,2.924,0,0,0,5.7-7.154L4.211-7.165Z" transform="translate(-6511.418 -11942.813)" fill="#fff"/>
    <path id="Trazado_205162" data-name="Trazado 205162" d="M10.678-8.744h-8.7l.3-1.729h8.712ZM9.9-4.286H1.2L1.5-6h8.712Z" transform="translate(-6462 -11995)" fill="#fff"/>
    <path id="Trazado_205163" data-name="Trazado 205163" d="M6.488,0H4.533l2.3-13.191L2.675-11.73l.333-1.891,5.8-2.095h.344Zm7.96-7.874,1.987-7.767h7.8l-.29,1.837H17.821l-1.2,4.275a4.786,4.786,0,0,1,2.557-.677,3.511,3.511,0,0,1,2.986,1.466A5.313,5.313,0,0,1,23.01-5.06,5.876,5.876,0,0,1,21.3-1.192,5.02,5.02,0,0,1,17.553.226a4.091,4.091,0,0,1-3.019-1.2A4.547,4.547,0,0,1,13.32-4.125h1.815a3.116,3.116,0,0,0,.73,2,2.362,2.362,0,0,0,1.772.73,2.892,2.892,0,0,0,2.315-.978,4.513,4.513,0,0,0,1.112-2.675,3.436,3.436,0,0,0-.5-2.39,2.3,2.3,0,0,0-1.923-.983,3.3,3.3,0,0,0-1.391.236,5.167,5.167,0,0,0-1.208.741Zm11.5,5.618a1.163,1.163,0,0,1,.87.322,1.11,1.11,0,0,1,.333.859A1.161,1.161,0,0,1,26.8-.22a1.278,1.278,0,0,1-.859.349,1.11,1.11,0,0,1-.849-.3,1.11,1.11,0,0,1-.333-.843,1.218,1.218,0,0,1,.333-.875A1.207,1.207,0,0,1,25.953-2.256Z" transform="translate(-6430 -11995)" fill="#fff"/>
  </g>
</svg>
