<svg xmlns="http://www.w3.org/2000/svg" width="67.625" height="91" viewBox="0 0 67.625 91">
  <path id="Trazado_197399" data-name="Trazado 197399" d="M8.125,0V-91H40q16.562,0,25.125,6.344t8.563,18.594A20.56,20.56,0,0,1,70.25-54.281a19.856,19.856,0,0,1-9.562,7.469A19.211,19.211,0,0,1,71.719-39.75a20.879,20.879,0,0,1,4.031,13q0,13.125-8.375,19.875T43.5,0Zm18.75-39.625v24.563H42.938q6.625,0,10.344-3.156A10.823,10.823,0,0,0,57-26.937q0-12.5-12.937-12.687Zm0-13.25H40.75q14.187-.25,14.188-11.312,0-6.187-3.594-8.906T40-75.812H26.875Z" transform="translate(-8.125 91)" fill="#12263f" opacity="0.23"/>
</svg>
