<svg xmlns="http://www.w3.org/2000/svg" width="74.313" height="93.5" viewBox="0 0 74.313 93.5">
  <path id="Trazado_197400" data-name="Trazado 197400" d="M79.563-30.312Q78.5-15.625,68.719-7.187T42.938,1.25q-17.5,0-27.531-11.781T5.375-42.875v-5.562A54.549,54.549,0,0,1,10-71.562,34.659,34.659,0,0,1,23.219-86.906,37.029,37.029,0,0,1,43.188-92.25q15.75,0,25.375,8.438T79.688-60.125H60.938q-.688-8.812-4.906-12.781T43.188-76.875q-9.375,0-14.031,6.719T24.375-49.312v6.875q0,14.75,4.469,21.563t14.094,6.813q8.687,0,12.969-3.969t4.906-12.281Z" transform="translate(-5.375 92.25)" fill="#12263f" opacity="0.23"/>
</svg>
