<svg xmlns="http://www.w3.org/2000/svg" width="61" height="61" viewBox="0 0 61 61">
  <g id="Grupo_171230" data-name="Grupo 171230" transform="translate(-953 -7833)">
    <g id="Grupo_166866" data-name="Grupo 166866" transform="translate(952.734 7833.499)">
      <circle id="Elipse_4868" data-name="Elipse 4868" cx="30.5" cy="30.5" r="30.5" transform="translate(0.266 -0.499)" fill="#43a99b"/>
      <g id="_9sRkqI" data-name="9sRkqI" transform="translate(-597.895 -199.96)">
        <g id="Grupo_166875" data-name="Grupo 166875" transform="translate(609.451 211.797)">
          <path id="Trazado_197306" data-name="Trazado 197306" d="M787.712,322.221q0,4.894,0,9.788c0,1.35-.494,1.846-1.855,1.846q-7.794,0-15.589,0c-1.209,0-1.725-.524-1.725-1.739q0-9.816,0-19.632c0-1.233.527-1.763,1.762-1.763q7.795,0,15.589,0c1.311,0,1.815.508,1.816,1.828Q787.714,317.384,787.712,322.221Zm-17.551-9.9v19.916H786.1V312.322Z" transform="translate(-750.44 -299.462)" fill="#fff"/>
          <path id="Trazado_197307" data-name="Trazado 197307" d="M609.451,260.992l6.949-3.342c.677,1.4,1.34,2.755,1.993,4.118q3.662,7.634,7.328,15.265a4.457,4.457,0,0,1,.471,2.012c-.006,2.788.032,5.576.053,8.363,0,.07,0,.141,0,.347-.254-.234-.427-.39-.6-.549q-3.039-2.828-6.072-5.663a2.85,2.85,0,0,1-.607-.808q-4.687-9.662-9.351-19.335C609.563,261.284,609.52,261.161,609.451,260.992Zm14.639,16.282-8.419-17.531-4.135,2,8.532,17.664c.489-.713.912.17,1.4-.051l.189-1.639,1.7.92Zm-2.167,4.155-.059.1,2.732,2.533v-3.868l-.374.729L623,280.285l-.194,1.458Z" transform="translate(-609.451 -252.432)" fill="#fff"/>
          <path id="Trazado_197308" data-name="Trazado 197308" d="M649.15,409.066h1.524v14.347h24.8v1.561H649.15Z" transform="translate(-644.633 -386.618)" fill="#fff"/>
          <path id="Trazado_197309" data-name="Trazado 197309" d="M649.238,211.8h1.577c5.935,0,11.871-.01,17.806.021a2.054,2.054,0,0,1,1.265.486c2.055,1.88,4.06,3.816,6.1,5.718a1.178,1.178,0,0,1,.424.984c-.031.906-.009,1.813-.009,2.751h-1.562c0-.763.023-1.5-.013-2.233a1.094,1.094,0,0,0-.289-.678q-2.7-2.6-5.45-5.159a1.124,1.124,0,0,0-.688-.3q-8.59-.025-17.181-.014c-.128,0-.257.017-.431.029v3.347h-1.545Z" transform="translate(-644.711 -211.797)" fill="#fff"/>
          <path id="Trazado_197310" data-name="Trazado 197310" d="M804.328,337.4H790.049v-5.514h14.279Zm-1.575-3.942H791.621v2.357h11.133Z" transform="translate(-769.498 -318.222)" fill="#fff"/>
          <path id="Trazado_197311" data-name="Trazado 197311" d="M792.237,402.151v1.495h-2.323v-1.495Z" transform="translate(-769.379 -380.49)" fill="#fff"/>
          <path id="Trazado_197312" data-name="Trazado 197312" d="M897.721,402.23v1.487h-2.3V402.23Z" transform="translate(-862.881 -380.56)" fill="#fff"/>
          <path id="Trazado_197313" data-name="Trazado 197313" d="M792.324,438.876h-2.291v-1.5h2.291Z" transform="translate(-769.484 -411.704)" fill="#fff"/>
          <path id="Trazado_197314" data-name="Trazado 197314" d="M897.606,437.291v1.5h-2.3v-1.5Z" transform="translate(-862.777 -411.632)" fill="#fff"/>
          <path id="Trazado_197315" data-name="Trazado 197315" d="M790.093,472.311h2.278v1.5h-2.278Z" transform="translate(-769.537 -442.667)" fill="#fff"/>
          <path id="Trazado_197316" data-name="Trazado 197316" d="M845.065,402.134v1.507h-2.3v-1.507Z" transform="translate(-816.219 -380.475)" fill="#fff"/>
          <path id="Trazado_197317" data-name="Trazado 197317" d="M842.762,437.081h2.276v1.524h-2.276Z" transform="translate(-816.213 -411.445)" fill="#fff"/>
          <path id="Trazado_197318" data-name="Trazado 197318" d="M845.107,473.932h-2.279v-1.507h2.279Z" transform="translate(-816.272 -442.768)" fill="#fff"/>
          <path id="Trazado_197319" data-name="Trazado 197319" d="M897.642,472.449v1.5h-2.3v-1.5Z" transform="translate(-862.811 -442.789)" fill="#fff"/>
          <path id="Trazado_197320" data-name="Trazado 197320" d="M636.471,291.188l3.461-1.664.686,1.413-3.457,1.656Z" transform="translate(-633.396 -280.679)" fill="#fff"/>
        </g>
      </g>
    </g>
  </g>
</svg>
