<svg xmlns="http://www.w3.org/2000/svg" width="169.663" height="157.161" viewBox="0 0 169.663 157.161">
  <g id="Grupo_165711" data-name="Grupo 165711" transform="translate(0 0.327)">
    <rect id="Rectángulo_49754" data-name="Rectángulo 49754" width="169.663" height="157.161" transform="translate(0 -0.327)" fill="none"/>
    <g id="layer1" transform="translate(32.605 19.386)">
      <path id="path7762-9" d="M1.372,114.314,1.323,18.482,18.939.88C29.481.879,69.616.742,83.525.815A3.854,3.854,0,0,1,87.44,4.729v95.884c0,9.786,0,13.7-7.951,13.7Z" transform="translate(4.545 1.16)" fill="#acfcff"/>
      <path id="path7860-2" d="M81.537.8V8.6c0,86.119-52.846,84.162-64.589,84.162H1.328l.011,21.53H79.457c7.951,0,7.951-3.915,7.951-13.7V4.708A3.851,3.851,0,0,0,83.494.8c-.406,0-1.508,0-1.957,0Z" transform="translate(4.576 1.179)" fill="#acfcff"/>
      <path id="path7766-2" d="M22.848,53.284C22.848,46.9,9.79,40.518,9.79,25.624,9.79,12.7,19.6,2.381,32.823,2.381s23.94,10.479,23.94,23.405c0,14.894-13.965,21.115-13.965,27.5Z" transform="translate(58.708 11.316)" fill="#ffde96"/>
      <path id="path7764-4" d="M1.323,18.408,18.938.8v17.61Z" transform="translate(4.542 1.188)" fill="#549ad4"/>
      <path id="path7797-7" d="M19.259,2.653c11.432,1.628,19.572,11.2,19.572,22.971,0,3.663-.477,6.952-1.988,9.568a30.423,30.423,0,0,1-25.471,14.19,7.562,7.562,0,0,1,1.372,3.9c4.343-.014,8.685,0,13.028,0,2.61,0,5.219,0,7.829,0,0-5.186,8.622-10.375,11.854-20.127a23.717,23.717,0,0,0,1.2-7.535c0-.186-.023-.366-.027-.55-.277-12.665-9.973-22.692-23.46-22.692a26.037,26.037,0,0,0-3.915.271Z" transform="translate(68.837 11.315)" fill="#ecb200"/>
      <path id="path7805-7" d="M32.822,2.381C19.6,2.381,9.79,12.7,9.79,25.624c0,14.894,13.059,21.278,13.059,27.661h3.914C26.763,46.9,13.7,40.518,13.7,25.624c0-12.268,8.845-22.169,21.048-23.147-.638-.05-1.279-.1-1.93-.1Z" transform="translate(58.708 11.316)" fill="#f5f9fb"/>
      <path id="path7808-5" d="M31.214,9.263V21A3.905,3.905,0,0,1,27.3,24.916H15.556A3.905,3.905,0,0,1,11.642,21V9.263Z" transform="translate(70.557 55.338)" fill="#e4eff8"/>
      <path id="path7812-4" d="M15.556,24.917H27.3A3.906,3.906,0,0,0,31.214,21V9.263H26.963C24.787,22.592,11.642,21,11.642,21A3.908,3.908,0,0,0,15.556,24.917Z" transform="translate(70.557 55.338)" fill="#c4dcf0"/>
      <path id="path7819-8" d="M11.642,9.263V21a3.906,3.906,0,0,0,3.914,3.914h3.915A3.906,3.906,0,0,1,15.556,21V9.263Z" transform="translate(70.557 55.338)" fill="#f5f9fb"/>
      <path id="path7822-1" d="M23.914,11.377v3.914A3.906,3.906,0,0,1,20,19.206H16.085a3.906,3.906,0,0,1-3.914-3.915V11.377Z" transform="translate(73.942 68.866)" fill="#ffca28"/>
      <path id="path7824-2" d="M12.251,16.083a3.9,3.9,0,0,0,3.834,3.123H20a3.906,3.906,0,0,0,3.914-3.914V11.377h-.1c-4.629,4.743-11.64,3.92-11.64,3.92a3.967,3.967,0,0,0,.08.786Z" transform="translate(73.942 68.866)" fill="#ecb200"/>
      <path id="path7829-8" d="M.794,13.758v9.786a7.812,7.812,0,0,0,7.829,7.829H83a7.812,7.812,0,0,1-7.829-7.829V13.758Z" transform="translate(1.157 84.1)" fill="#43a99b"/>
      <path id="path7849-9" d="M68.325,13.758c-3.147,11.743-17.615,13.7-43.059,13.7-8.359,0-20.179.152-24.32.08a7.78,7.78,0,0,0,6.705,3.834H82.026A7.812,7.812,0,0,1,74.2,23.545V13.758Z" transform="translate(2.129 84.1)" fill="#43a99b"/>
      <path id="path7834-3" d="M15.59,10.22,7.474,18.072,23.143,37.61a7.406,7.406,0,0,0,10.555.921c3.1-2.658,3.679-7.63.638-10.516Z" transform="translate(43.894 61.461)" fill="#ffd1b5"/>
      <path id="path7841-6" d="M11.084,10.22l-2.905,2.81L23.962,28.015C27,30.9,26.424,35.873,23.324,38.531a7.3,7.3,0,0,1-1.919,1.151,7.455,7.455,0,0,0,7.787-1.151c3.1-2.658,3.679-7.63.638-10.516Z" transform="translate(48.4 61.461)" fill="#ffb98d"/>
      <path id="path7844-8" d="M15.59,10.22,7.474,18.072,8.617,19.5a23.487,23.487,0,0,0,9.9-6.5Z" transform="translate(43.894 61.461)" fill="#ffb98d"/>
      <path id="path7865-0" d="M49.62,28.779A23.487,23.487,0,1,1,26.133,5.292,23.487,23.487,0,0,1,49.62,28.779Z" transform="translate(13.007 29.935)" fill="#acfcff"/>
      <path id="ellipse7867-2" d="M35.018,22.007A15.657,15.657,0,1,1,19.361,6.35,15.657,15.657,0,0,1,35.018,22.007Z" transform="translate(19.779 36.707)" fill="#e4eff8"/>
      <path id="ellipse7871-1" d="M19.359,6.35a15.654,15.654,0,0,0-8.9,28.529A15.642,15.642,0,0,1,32.18,13.051a15.657,15.657,0,0,0-12.821-6.7Z" transform="translate(19.78 36.706)" fill="#c4dcf0"/>
      <path id="path7874-0" d="M12.592,6.617H4.763v13.7h7.829Z" transform="translate(26.548 38.416)" fill="#ffd1b5"/>
      <path id="rect7878-5" d="M6.879,4.5h7.829v29.35H6.879Z" transform="translate(40.09 24.879)" fill="#ffd1b5"/>
      <path id="path7887-1" d="M28.249,6.011C21.768,14.989,9.067,20.266,4.763,20.266V24.2H28.249Z" transform="translate(26.547 34.534)" fill="#ffb98d"/>
      <path id="rect7876-1" d="M5.821,5.295H13.65v23.48H5.821Z" transform="translate(33.319 29.955)" fill="#ffca28"/>
      <path id="rect7891-0" d="M13.65,7.031a45.477,45.477,0,0,1-7.829,4.461v6.178H13.65Z" transform="translate(33.318 41.06)" fill="#ecb200"/>
      <path id="path7715-8" d="M0,7.829A15.658,15.658,0,0,0,13.56,0" transform="translate(91.984 29.355) rotate(180)" fill="none" stroke="#333" stroke-linecap="round" stroke-linejoin="round" stroke-width="0.529"/>
      <path id="path7717-5" d="M3.914,1.933a1.958,1.958,0,1,0,0,.024" transform="translate(78.284 39.141) rotate(180)" fill="#333"/>
      <path id="path7857-0" d="M.794,13.758v9.786a7.812,7.812,0,0,0,7.829,7.829h3.914a7.812,7.812,0,0,1-7.829-7.829V13.758Z" transform="translate(1.157 84.1)" fill="#f5f9fb"/>
      <g id="Grupo_165710" data-name="Grupo 165710">
        <path id="path917" d="M36.342,5.984A23.5,23.5,0,0,1,3.334,39,23.508,23.508,0,1,0,36.342,5.984Z" transform="translate(17.41 34.362)" fill="#3588cb"/>
        <path id="path912" d="M26.174,5.3a23.524,23.524,0,0,0,0,47.048c.661,0,1.313-.042,1.96-.1a23.507,23.507,0,0,1,0-46.853C27.487,5.346,26.835,5.3,26.174,5.3Z" transform="translate(13.033 29.988)" fill="#f5f9fb"/>
        <path id="path846" d="M4.5,96.592H2.483A1.959,1.959,0,0,0,.53,98.544v9.813a9.814,9.814,0,0,0,9.8,9.794h74.5a9.814,9.814,0,0,0,9.8-9.794V90.7a5.912,5.912,0,0,0,5.889-5.873v-2.3A5.914,5.914,0,0,0,104.431,77V75.043a1.958,1.958,0,0,0,0-3.917V67.206a1.961,1.961,0,0,0,.341-3.89,13.641,13.641,0,0,1,1.179-1.784c1.212-1.587,2.963-3.44,4.763-5.613,3.6-4.346,7.435-10.15,7.435-18.221A25.641,25.641,0,0,0,94.626,12.42V6.439A5.922,5.922,0,0,0,88.768.551C70.815.48,43.533.612,24.483.623a1.961,1.961,0,0,0-1.815.521L5.029,18.783a2,2,0,0,0-.57,1.432ZM88.733,4.471a1.83,1.83,0,0,1,1.983,1.968v5.9a24.808,24.808,0,0,0-23.535,25.2c0,8.031,3.58,13.845,6.945,18.233,1.683,2.194,3.307,4.068,4.441,5.67A12.921,12.921,0,0,1,79.843,63.6,1.96,1.96,0,0,0,80.9,67.206v3.921a1.958,1.958,0,0,0,0,3.917V77a5.909,5.909,0,0,0,3.921,5.536v2.293A5.9,5.9,0,0,0,90.694,90.7v17.658a5.873,5.873,0,1,1-11.747,0v-5.728c.2-.143.391-.291.578-.452,3.93-3.37,4.66-9.7.708-13.447L62.1,71.513a25.473,25.473,0,0,0-4.717-30.55V29.971A1.96,1.96,0,0,0,55.415,28H47.57a1.961,1.961,0,0,0-1.953,1.968v3.905H39.89v-.012A25.474,25.474,0,1,0,51.031,82.149l11.59,14.442H8.413L8.371,22.126H24.058a1.961,1.961,0,0,0,1.953-1.953V4.54c11.839-.012,49.417-.139,62.723-.069ZM22.09,7.251V18.205H11.136ZM33.856,12.3a1.96,1.96,0,1,0,0,3.921H69.134a1.96,1.96,0,1,0,0-3.921ZM92.2,16.222A21.725,21.725,0,0,1,114.225,37.7c0,6.846-3.146,11.621-6.54,15.717-1.7,2.048-3.452,3.882-4.863,5.728a12.944,12.944,0,0,0-2.3,4.139h-5.9V52.327L99.929,47a1.96,1.96,0,0,0-2.78-2.764l-4.483,4.487-4.5-4.487A1.955,1.955,0,0,0,85.4,47l5.3,5.31V63.281H83.909a13.515,13.515,0,0,0-2.14-4.093c-1.317-1.86-2.943-3.721-4.529-5.789C74.066,49.262,71.1,44.426,71.1,37.54,71.1,25.586,79.979,16.222,92.2,16.222Zm.459,3.924a17.643,17.643,0,0,0-15.281,8.81,1.966,1.966,0,0,0,3.4,1.968,13.7,13.7,0,0,1,11.877-6.857,1.96,1.96,0,1,0,0-3.921Zm-58.806.011a1.962,1.962,0,1,0,0,3.924h29.4a1.962,1.962,0,0,0,0-3.924ZM49.542,31.924h3.921V57.408H49.542V31.924Zm27.441,3.9a1.96,1.96,0,1,0,1.96,1.96A1.96,1.96,0,0,0,76.983,35.821ZM41.7,37.8h3.921V57.408H41.7V37.8ZM57.383,46.94a21.567,21.567,0,1,1-19.607-9.067v5.816H31.884a1.863,1.863,0,0,0-1.263.452A17.689,17.689,0,0,0,42.65,76.736,17.607,17.607,0,0,0,57.38,59.563c.012-4.178,0-8.428,0-12.623Zm-23.528.67h3.921v9.8H33.856Zm-3.924,2.033v9.717a1.961,1.961,0,0,0,1.953,1.968H53.321a13.729,13.729,0,0,1-26.5,2.661A13.871,13.871,0,0,1,29.931,49.643ZM84.82,67.206h15.686v3.921H84.82ZM59.926,74.867l17.616,16.7c2.14,2.031,1.7,5.673-.578,7.627a5.436,5.436,0,0,1-7.757-.666L54.435,80.12A25.323,25.323,0,0,0,59.926,74.867Zm24.895.18h15.686V77a1.918,1.918,0,0,1-1.968,1.957H86.773A1.905,1.905,0,0,1,84.82,77Zm3.921,7.826h7.845v1.953a1.915,1.915,0,0,1-1.968,1.953H90.694a1.9,1.9,0,0,1-1.953-1.953ZM4.451,100.512H65.768a9.312,9.312,0,0,0,9.254,3.775v4.07A9.727,9.727,0,0,0,77,114.231H10.324a5.813,5.813,0,0,1-5.873-5.873Z" transform="translate(-0.53 -0.53)" fill="#333"/>
      </g>
    </g>
  </g>
</svg>
