<svg xmlns="http://www.w3.org/2000/svg" width="60" height="61" viewBox="0 0 60 61">
  <g id="Grupo_171231" data-name="Grupo 171231" transform="translate(-1126 -7833)">
    <g id="Grupo_166865" data-name="Grupo 166865" transform="translate(1125.616 7833.499)">
      <ellipse id="Elipse_4869" data-name="Elipse 4869" cx="30" cy="30.5" rx="30" ry="30.5" transform="translate(0.384 -0.499)" fill="#ff8578"/>
      <g id="TZS91r.tif" transform="translate(564.61 -80.801)">
        <g id="Grupo_166876" data-name="Grupo 166876" transform="translate(-553.226 90.799)">
          <path id="Trazado_197321" data-name="Trazado 197321" d="M-469,279.972a.947.947,0,0,1-.423-.92,3.373,3.373,0,0,0-.075-1.592c-.22-.4-.84-.592-1.287-.872-.717-.449-1.43-.9-2.156-1.339a.883.883,0,0,1-.48-.846c.016-1.207,0-2.415.007-3.623,0-.584.221-.807.8-.808q2.686,0,5.373,0h.491v-.486q0-2.644,0-5.289a5.37,5.37,0,0,1,3.909-5.324c.078-.025.155-.058.276-.1a4.646,4.646,0,0,1-1.494-3.985,4.537,4.537,0,0,1,1.63-3.041,4.684,4.684,0,0,1,6.2.144,4.754,4.754,0,0,1-.024,6.922c1.465.511,2.237,1.766,3.137,2.885.53.659,1.064,1.315,1.591,1.978a.792.792,0,0,0,.715.316c.693-.026,1.388-.014,2.082-.008a1.962,1.962,0,0,1,1.974,1.985,1.958,1.958,0,0,1-1.953,2.007c-1.61.009-3.221.005-4.831,0a3.679,3.679,0,0,1-.535-.08v2.087h.435l7.33,0c.7,0,.891.189.892.883,0,1.221-.014,2.443.008,3.664a.948.948,0,0,1-.535.941c-1.051.591-2.085,1.213-3.135,1.8a.551.551,0,0,0-.346.581c.029.4-.012.806.013,1.207a.919.919,0,0,1-.424.919Zm19.582-4.063c.9-.519,1.722-1,2.543-1.48a.271.271,0,0,0,.117-.194c.008-.966.005-1.933.005-2.9h-25.329c0,.5,0,.974,0,1.445a3.271,3.271,0,0,0,.069,1.388c.189.352.727.518,1.114.761.475.3.954.589,1.481.915,0-.413,0-.744,0-1.075,0-.507.232-.785.646-.795.437-.01.681.272.682.8q0,1.708,0,3.415v.425h17.322c.006-.1.014-.183.014-.263,0-1.208,0-2.416,0-3.624a.663.663,0,0,1,.65-.754c.421-.01.671.268.678.763C-449.409,275.1-449.413,275.46-449.413,275.909Zm-6-5.947c0-.834-.041-1.627.012-2.413a1.862,1.862,0,0,0-.657-1.717.653.653,0,0,1-.076-1.021.686.686,0,0,1,1.028.079c.532.508,1.048,1.033,1.589,1.531a.825.825,0,0,0,.5.214c1.374.017,2.749.012,4.123.008.532,0,.821-.253.809-.683s-.288-.647-.8-.65c-.722,0-1.447-.039-2.165.015a1.449,1.449,0,0,1-1.367-.664c-.962-1.237-1.967-2.442-2.962-3.653a2.8,2.8,0,0,0-2.344-1.036c-1.138.021-2.277,0-3.415.005a4.114,4.114,0,0,0-4.274,4.272q0,2.644,0,5.288c0,.134.013.268.02.409h1.979c0-1.306,0-2.581,0-3.857,0-.5.247-.778.664-.777s.664.285.665.779c0,1.027,0,2.054,0,3.081v.789Zm-4.011-17.983a3.341,3.341,0,0,0-3.32,3.351,3.348,3.348,0,0,0,3.325,3.309,3.348,3.348,0,0,0,3.34-3.334A3.338,3.338,0,0,0-459.423,251.979Z" transform="translate(480.077 -237.301)" fill="#fff"/>
          <path id="Trazado_197322" data-name="Trazado 197322" d="M-553.226,108.076a1.945,1.945,0,0,1,2.126-1.354c1.526.048,3.055.011,4.582.013.552,0,.87.258.857.681-.012.4-.331.654-.848.655q-2.4,0-4.791,0c-.482,0-.593.107-.594.581q0,3.415,0,6.831c0,.45.121.578.561.579q3.437.005,6.874,0c.444,0,.564-.127.566-.572,0-.6,0-1.194,0-1.791a.684.684,0,0,1,.661-.751.677.677,0,0,1,.665.745c.005.68.01,1.361,0,2.041a1.7,1.7,0,0,1-1.648,1.661c-2.458.016-4.916.021-7.373,0a1.781,1.781,0,0,1-1.639-1.318Z" transform="translate(553.226 -105.392)" fill="#fff"/>
          <path id="Trazado_197323" data-name="Trazado 197323" d="M-553.226,267.771a1.948,1.948,0,0,1,2.125-1.354c1.553.047,3.108.007,4.662.015.616,0,.961.515.682.991a.765.765,0,0,1-.748.348c-1.568-.007-3.136,0-4.7,0-.615,0-.686.072-.686.7q0,3.33,0,6.66c0,.53.106.639.624.64q3.372,0,6.744,0c.526,0,.632-.107.633-.63,0-.569,0-1.138,0-1.707,0-.48.27-.78.675-.773a.67.67,0,0,1,.651.753c0,.666.008,1.332,0,2a1.7,1.7,0,0,1-1.7,1.69q-3.622.012-7.244,0a1.806,1.806,0,0,1-1.717-1.327Z" transform="translate(553.226 -251.757)" fill="#fff"/>
          <path id="Trazado_197324" data-name="Trazado 197324" d="M-221.639,106.772c.376.132.65.294.635.711s-.3.59-.667.7c0,.78-.042,1.559.01,2.332a2.166,2.166,0,0,1-2.011,2.32c0,.226.006.458,0,.69a1.994,1.994,0,0,1-2.023,1.946,2.009,2.009,0,0,1-1.974-1.96,1.18,1.18,0,0,0-.086-.567,9.844,9.844,0,0,1-1.32-.779,1.718,1.718,0,0,1-.6-1.407c.008-.859,0-1.719,0-2.58-.361-.1-.635-.268-.662-.665s.237-.592.622-.736a4.051,4.051,0,0,0-.3-.54c-.708-.907-1.459-1.782-2.136-2.71a8.059,8.059,0,0,1,5.1-12.606,7.954,7.954,0,0,1,9.3,6.813,7.947,7.947,0,0,1-1.864,6.383c-.577.692-1.136,1.4-1.695,2.106A5.089,5.089,0,0,0-221.639,106.772Zm-1.391.026a7.738,7.738,0,0,1,1.9-2.986c.046-.052.093-.1.139-.155a7.262,7.262,0,0,0,1.927-4.058,6.631,6.631,0,0,0-5.834-7.389,6.681,6.681,0,0,0-7.236,8.248,8.2,8.2,0,0,0,1.976,3.418,7.422,7.422,0,0,1,1.844,2.921Zm-5.308,1.362c0,.9-.014,1.752.006,2.608a.722.722,0,0,0,.745.7q1.911.018,3.823,0a.707.707,0,0,0,.744-.644c.023-.881.007-1.763.007-2.66Zm2.006,4.668c.015.466-.138.96.344,1.2a.848.848,0,0,0,.72-.056c.406-.278.249-.731.238-1.14Z" transform="translate(260.339 -90.799)" fill="#fff"/>
          <path id="Trazado_197325" data-name="Trazado 197325" d="M-402.708,194.706h5.618a3.118,3.118,0,0,1,.416.011.61.61,0,0,1,.585.637.627.627,0,0,1-.545.678,1.651,1.651,0,0,1-.373.013h-11.486a1.635,1.635,0,0,1-.373-.013.629.629,0,0,1-.545-.678.612.612,0,0,1,.587-.636,3.237,3.237,0,0,1,.416-.011Z" transform="translate(421.417 -186.032)" fill="#fff"/>
          <path id="Trazado_197326" data-name="Trazado 197326" d="M-404.045,164.124c-1.4,0-2.8,0-4.2,0-.343,0-.641-.125-.7-.456a1.112,1.112,0,0,1,.188-.706.647.647,0,0,1,.481-.169q4.283-.014,8.567,0a.643.643,0,0,1,.708.646.654.654,0,0,1-.718.684C-401.161,164.128-402.6,164.124-404.045,164.124Z" transform="translate(420.996 -156.779)" fill="#fff"/>
          <path id="Trazado_197327" data-name="Trazado 197327" d="M-518.649,133.818l2.634-2.639a2.354,2.354,0,0,1,.3-.286.637.637,0,0,1,.872.046.63.63,0,0,1,.083.868,2.432,2.432,0,0,1-.34.364q-1.457,1.458-2.916,2.913c-.467.465-.77.465-1.238,0q-.887-.88-1.767-1.766a.692.692,0,0,1-.1-1.028.7.7,0,0,1,1.058.085C-519.6,132.837-519.148,133.308-518.649,133.818Z" transform="translate(523.969 -127.409)" fill="#fff"/>
          <path id="Trazado_197328" data-name="Trazado 197328" d="M-518.63,293.585l2.61-2.6a3.961,3.961,0,0,1,.3-.289.665.665,0,0,1,.906.031.662.662,0,0,1,.041.905,4.382,4.382,0,0,1-.346.359q-1.443,1.443-2.887,2.885c-.451.449-.764.452-1.209.013q-.888-.878-1.767-1.766c-.363-.367-.4-.764-.109-1.058s.7-.258,1.058.1C-519.572,292.626-519.117,293.092-518.63,293.585Z" transform="translate(523.952 -273.861)" fill="#fff"/>
          <path id="Trazado_197329" data-name="Trazado 197329" d="M-405.74,130.832c.943,0,1.885,0,2.828,0,.529,0,.807.249.795.685-.012.412-.293.649-.794.65q-2.869,0-5.738,0c-.5,0-.785-.239-.8-.649-.013-.433.27-.683.8-.686C-407.681,130.828-406.71,130.832-405.74,130.832Z" transform="translate(421.448 -127.489)" fill="#fff"/>
          <path id="Trazado_197330" data-name="Trazado 197330" d="M-166.939,181.826c1.065-.946,2.107-1.876,3.155-2.8a1.151,1.151,0,0,1,.41-.268.612.612,0,0,1,.75.3.649.649,0,0,1-.144.864c-.533.485-1.074.96-1.613,1.439q-.994.883-1.991,1.765a.706.706,0,0,1-1.128.01q-1.014-.893-2.021-1.793c-.386-.344-.446-.733-.171-1.049s.676-.3,1.061.037C-168.07,180.818-167.514,181.316-166.939,181.826Z" transform="translate(201.86 -171.389)" fill="#fff"/>
          <path id="Trazado_197331" data-name="Trazado 197331" d="M-173.174,123.475a.623.623,0,0,1-.586.68,3.328,3.328,0,0,0-2.859,1.713.644.644,0,0,1-.916.193.686.686,0,0,1-.239-.91,4.472,4.472,0,0,1,3.944-2.334A.645.645,0,0,1-173.174,123.475Z" transform="translate(209.184 -120.14)" fill="#fff"/>
          <path id="Trazado_197332" data-name="Trazado 197332" d="M-193.13,172.174a.669.669,0,0,1-.658-.667.651.651,0,0,1,.7-.662.638.638,0,0,1,.632.679A.656.656,0,0,1-193.13,172.174Z" transform="translate(223.789 -164.164)" fill="#fff"/>
        </g>
      </g>
    </g>
  </g>
</svg>
