<svg xmlns="http://www.w3.org/2000/svg" width="314.694" height="288.333" viewBox="0 0 314.694 288.333">
  <g id="Grupo_170021" data-name="Grupo 170021" transform="translate(-200 -10560)">
    <path id="Trazado_204799" data-name="Trazado 204799" d="M-8924.073-3999v281.868" transform="translate(9147.711 14559)" fill="none" stroke="#12263f" stroke-width="3"/>
    <path id="Trazado_204800" data-name="Trazado 204800" d="M0,0V309.5" transform="translate(509.497 10826.315) rotate(90)" fill="none" stroke="#12263f" stroke-width="3"/>
    <path id="Trazado_204801" data-name="Trazado 204801" d="M-8923.371-3988.742h-6.123" transform="translate(9147.009 14560.329)" fill="none" stroke="#12263f" stroke-width="2"/>
    <path id="Trazado_204802" data-name="Trazado 204802" d="M-8923.371-3988.742h-6.123" transform="translate(9147.009 14611.159)" fill="none" stroke="#12263f" stroke-width="2"/>
    <path id="Trazado_204803" data-name="Trazado 204803" d="M-8923.371-3988.742h-6.123" transform="translate(9147.009 14661.988)" fill="none" stroke="#12263f" stroke-width="2"/>
    <path id="Trazado_204804" data-name="Trazado 204804" d="M-8923.371-3988.742h-6.123" transform="translate(9147.009 14712.818)" fill="none" stroke="#12263f" stroke-width="2"/>
    <path id="Trazado_204805" data-name="Trazado 204805" d="M-8923.371-3988.742h-6.123" transform="translate(9147.009 14763.648)" fill="none" stroke="#12263f" stroke-width="2"/>
    <path id="Trazado_204806" data-name="Trazado 204806" d="M6.123,0H0" transform="translate(274.795 10831.058) rotate(-90)" fill="none" stroke="#12263f" stroke-width="2"/>
    <path id="Trazado_204807" data-name="Trazado 204807" d="M6.123,0H0" transform="translate(325.952 10831.058) rotate(-90)" fill="none" stroke="#12263f" stroke-width="2"/>
    <path id="Trazado_204808" data-name="Trazado 204808" d="M6.123,0H0" transform="translate(377.108 10831.058) rotate(-90)" fill="none" stroke="#12263f" stroke-width="2"/>
    <path id="Trazado_204809" data-name="Trazado 204809" d="M6.123,0H0" transform="translate(428.265 10831.058) rotate(-90)" fill="none" stroke="#12263f" stroke-width="2"/>
    <path id="Trazado_204810" data-name="Trazado 204810" d="M6.123,0H0" transform="translate(479.421 10831.058) rotate(-90)" fill="none" stroke="#12263f" stroke-width="2"/>
    <text id="_0" data-name="0" transform="translate(210 10823)" fill="#12263f" font-size="14" font-family="Roboto-Regular, Roboto"><tspan x="0" y="0">0</tspan></text>
    <text id="_0-2" data-name="0" transform="translate(226 10844)" fill="#12263f" font-size="14" font-family="Roboto-Regular, Roboto"><tspan x="0" y="0">0</tspan></text>
    <text id="_2" data-name="2" transform="translate(271 10844)" fill="#12263f" font-size="14" font-family="Roboto-Regular, Roboto"><tspan x="0" y="0">2</tspan></text>
    <text id="_4" data-name="4" transform="translate(322 10844)" fill="#12263f" font-size="14" font-family="Roboto-Regular, Roboto"><tspan x="0" y="0">4</tspan></text>
    <text id="_6" data-name="6" transform="translate(373 10844)" fill="#12263f" font-size="14" font-family="Roboto-Regular, Roboto"><tspan x="0" y="0">6</tspan></text>
    <text id="_8" data-name="8" transform="translate(424 10844)" fill="#12263f" font-size="14" font-family="Roboto-Regular, Roboto"><tspan x="0" y="0">8</tspan></text>
    <text id="_10" data-name="10" transform="translate(471 10844)" fill="#12263f" font-size="14" font-family="Roboto-Regular, Roboto"><tspan x="0" y="0">10</tspan></text>
    <text id="_2-2" data-name="2" transform="translate(210 10780)" fill="#12263f" font-size="14" font-family="Roboto-Regular, Roboto"><tspan x="0" y="0">2</tspan></text>
    <text id="_4-2" data-name="4" transform="translate(210 10729)" fill="#12263f" font-size="14" font-family="Roboto-Regular, Roboto"><tspan x="0" y="0">4</tspan></text>
    <text id="_6-2" data-name="6" transform="translate(210 10678)" fill="#12263f" font-size="14" font-family="Roboto-Regular, Roboto"><tspan x="0" y="0">6</tspan></text>
    <text id="_8-2" data-name="8" transform="translate(210 10627)" fill="#12263f" font-size="14" font-family="Roboto-Regular, Roboto"><tspan x="0" y="0">8</tspan></text>
    <text id="_10-2" data-name="10" transform="translate(201 10576)" fill="#12263f" font-size="14" font-family="Roboto-Regular, Roboto"><tspan x="0" y="0">10</tspan></text>
    <path id="Trazado_204811" data-name="Trazado 204811" d="M-8922-3712.646l287.313-282.094" transform="translate(9147.979 14559.552)" fill="none" stroke="#5f9025" stroke-width="4"/>
    <g id="Elipse_6144" data-name="Elipse 6144" transform="translate(322 10772)" fill="#ff8578" stroke="#12263f" stroke-width="1">
      <circle cx="4.5" cy="4.5" r="4.5" stroke="none"/>
      <circle cx="4.5" cy="4.5" r="4" fill="none"/>
    </g>
    <g id="Elipse_6145" data-name="Elipse 6145" transform="translate(270 10796)" fill="#ff8578" stroke="#12263f" stroke-width="1">
      <circle cx="4.5" cy="4.5" r="4.5" stroke="none"/>
      <circle cx="4.5" cy="4.5" r="4" fill="none"/>
    </g>
    <g id="Elipse_6146" data-name="Elipse 6146" transform="translate(296 10745)" fill="#ff8578" stroke="#12263f" stroke-width="1">
      <circle cx="4.5" cy="4.5" r="4.5" stroke="none"/>
      <circle cx="4.5" cy="4.5" r="4" fill="none"/>
    </g>
    <g id="Elipse_6147" data-name="Elipse 6147" transform="translate(322 10719)" fill="#ff8578" stroke="#12263f" stroke-width="1">
      <circle cx="4.5" cy="4.5" r="4.5" stroke="none"/>
      <circle cx="4.5" cy="4.5" r="4" fill="none"/>
    </g>
    <g id="Elipse_6148" data-name="Elipse 6148" transform="translate(346 10719)" fill="#ff8578" stroke="#12263f" stroke-width="1">
      <circle cx="4.5" cy="4.5" r="4.5" stroke="none"/>
      <circle cx="4.5" cy="4.5" r="4" fill="none"/>
    </g>
    <g id="Elipse_6149" data-name="Elipse 6149" transform="translate(373 10719)" fill="#ff8578" stroke="#12263f" stroke-width="1">
      <circle cx="4.5" cy="4.5" r="4.5" stroke="none"/>
      <circle cx="4.5" cy="4.5" r="4" fill="none"/>
    </g>
    <g id="Elipse_6150" data-name="Elipse 6150" transform="translate(400 10719)" fill="#ff8578" stroke="#12263f" stroke-width="1">
      <circle cx="4.5" cy="4.5" r="4.5" stroke="none"/>
      <circle cx="4.5" cy="4.5" r="4" fill="none"/>
    </g>
    <g id="Elipse_6151" data-name="Elipse 6151" transform="translate(373 10668)" fill="#ff8578" stroke="#12263f" stroke-width="1">
      <circle cx="4.5" cy="4.5" r="4.5" stroke="none"/>
      <circle cx="4.5" cy="4.5" r="4" fill="none"/>
    </g>
    <g id="Elipse_6152" data-name="Elipse 6152" transform="translate(400 10668)" fill="#ff8578" stroke="#12263f" stroke-width="1">
      <circle cx="4.5" cy="4.5" r="4.5" stroke="none"/>
      <circle cx="4.5" cy="4.5" r="4" fill="none"/>
    </g>
    <g id="Elipse_6153" data-name="Elipse 6153" transform="translate(424 10642)" fill="#ff8578" stroke="#12263f" stroke-width="1">
      <circle cx="4.5" cy="4.5" r="4.5" stroke="none"/>
      <circle cx="4.5" cy="4.5" r="4" fill="none"/>
    </g>
    <g id="Elipse_6154" data-name="Elipse 6154" transform="translate(474 10593)" fill="#ff8578" stroke="#12263f" stroke-width="1">
      <ellipse cx="5" cy="4.5" rx="5" ry="4.5" stroke="none"/>
      <ellipse cx="5" cy="4.5" rx="4.5" ry="4" fill="none"/>
    </g>
    <g id="Elipse_6155" data-name="Elipse 6155" transform="translate(474 10567)" fill="#ff8578" stroke="#12263f" stroke-width="1">
      <ellipse cx="5" cy="4.5" rx="5" ry="4.5" stroke="none"/>
      <ellipse cx="5" cy="4.5" rx="4.5" ry="4" fill="none"/>
    </g>
  </g>
</svg>
