<svg xmlns="http://www.w3.org/2000/svg" width="61" height="61" viewBox="0 0 61 61">
  <g id="Grupo_171228" data-name="Grupo 171228" transform="translate(-608 -7833)">
    <g id="Grupo_142439" data-name="Grupo 142439" transform="translate(607.734 7833.499)">
      <circle id="Elipse_4868" data-name="Elipse 4868" cx="30.5" cy="30.5" r="30.5" transform="translate(0.266 -0.499)" fill="#43a99b"/>
      <g id="VIJ9vr.tif" transform="translate(3355.839 1028.515)">
        <g id="Grupo_154926" data-name="Grupo 154926" transform="translate(-3347.685 -1017.836)">
          <path id="Trazado_195291" data-name="Trazado 195291" d="M-3335.568-1017.836h26.573a.671.671,0,0,0,.141.077,3.32,3.32,0,0,1,2.615,3.37q0,8.624,0,17.248a3.317,3.317,0,0,1-3.352,3.369c-1.406.005-2.812,0-4.218,0h-.429v2.66c.087.008.153.015.22.02a3.226,3.226,0,0,1,2.969,2.465,21.132,21.132,0,0,1,.18,2.877h-.6c-3.94,0-7.879,0-11.819.01a2.19,2.19,0,0,0-.906.215,10.983,10.983,0,0,1-4.328,1.107,10.628,10.628,0,0,1-6.151-1.632.39.39,0,0,0-.349-.026c-.465.413-.908.851-1.449,1.368l1.085.918c-2.2,2.216-4.3,4.427-6.507,6.527a3.453,3.453,0,0,1-5.469-1.161c-.132-.286-.219-.593-.328-.891v-1.17a5.376,5.376,0,0,1,1.714-2.6c1.79-1.755,3.55-3.539,5.322-5.311.1-.1.212-.2.386-.365l.88.955,1.45-1.459s-.024-.048-.053-.1a10.577,10.577,0,0,1-.472-10.694,1.5,1.5,0,0,0,.128-.638q.01-6.893.007-13.785a3.32,3.32,0,0,1,2.214-3.174C-3335.93-1017.71-3335.749-1017.772-3335.568-1017.836Zm23.969,16.057h-9.007a10.549,10.549,0,0,1,1.879,3.631c.087.308.223.376.517.375,2.521-.01,5.042-.006,7.562-.006h.376V-1013.8h-24.023v9.385a10.789,10.789,0,0,1,12.073.955c.831-2.012.831-2.012,2.841-3.383a3.366,3.366,0,0,1,.092-4.681,3.348,3.348,0,0,1,4.42-.257,3.265,3.265,0,0,1,1.241,2.109,3.364,3.364,0,0,1-.879,2.841A4.827,4.827,0,0,1-3311.6-1001.779Zm-6.646,6.674h.354q4.073,0,8.146,0a2.032,2.032,0,0,0,2.17-2.168q0-8.522,0-17.045a2.035,2.035,0,0,0-2.2-2.181q-12.512,0-25.024,0a2.034,2.034,0,0,0-2.193,2.186q0,5.849,0,11.7c0,.115.016.231.027.381.369-.351.685-.686,1.037-.975a.734.734,0,0,0,.279-.644q-.011-4.93,0-9.859a1.327,1.327,0,0,1,1.452-1.447h23.813a1.328,1.328,0,0,1,1.471,1.47q0,7.875,0,15.75a1.335,1.335,0,0,1-1.49,1.495h-7.942C-3318.311-995.987-3318.28-995.574-3318.245-995.1Zm-10.724,9.359a9.4,9.4,0,0,0,9.363-9.348,9.4,9.4,0,0,0-9.337-9.372,9.4,9.4,0,0,0-9.383,9.368A9.4,9.4,0,0,0-3328.969-985.746Zm-11.374-1c-1.83,1.821-3.669,3.621-5.467,5.46a1.943,1.943,0,0,0-.406,2.1,2.151,2.151,0,0,0,3.6.785c1.732-1.712,3.447-3.44,5.167-5.163a1.318,1.318,0,0,0,.126-.167Zm18.632-.369h9.458c0-.23.005-.424,0-.619a2.01,2.01,0,0,0-2.021-2.018c-1.726-.018-3.451-.009-5.177,0a.541.541,0,0,0-.369.187C-3320.464-988.75-3321.093-987.922-3321.711-987.118Zm8.676-16.025a3.155,3.155,0,0,0-2.576-2.569,10.321,10.321,0,0,0-2.284-.061,3.188,3.188,0,0,0-2.932,2.63Zm-1.893-6.011a2.035,2.035,0,0,0-2-2,2.036,2.036,0,0,0-2.007,2.034,2.038,2.038,0,0,0,2.023,1.976A2.037,2.037,0,0,0-3314.929-1009.154Zm-.693,18.048v-2.643h-2.68l-.684,2.643Zm-21.357,3.128-1.231,1.237.886,1,1.3-1.31Z" transform="translate(3347.685 1017.836)" fill="#fff"/>
          <path id="Trazado_195292" data-name="Trazado 195292" d="M-3160.321-920.376h-11.292v-1.3h11.292Z" transform="translate(3186.356 929.727)" fill="#fff"/>
          <path id="Trazado_195293" data-name="Trazado 195293" d="M-3131.2-953.6v1.284h-8.648V-953.6Z" transform="translate(3157.251 958.981)" fill="#fff"/>
          <path id="Trazado_195294" data-name="Trazado 195294" d="M-3170.374-952.313h-1.267v-1.3h1.267Z" transform="translate(3186.382 958.988)" fill="#fff"/>
          <path id="Trazado_195295" data-name="Trazado 195295" d="M-3211.92-826.129a8.011,8.011,0,0,1-8-8.06,8.009,8.009,0,0,1,8.039-7.981,8.008,8.008,0,0,1,8,8.059A8.012,8.012,0,0,1-3211.92-826.129Zm-6.668-8.034a6.724,6.724,0,0,0,6.652,6.7,6.726,6.726,0,0,0,6.72-6.674,6.722,6.722,0,0,0-6.653-6.7A6.722,6.722,0,0,0-3218.587-834.163Z" transform="translate(3230.62 856.879)" fill="#fff"/>
          <path id="Trazado_195296" data-name="Trazado 195296" d="M-3189.905-791.673l2.873-2.865,1.228,1.278,3.947-3.956,2.916,2.915-6.8,6.8Zm4.131,2.37,4.963-4.965-1.018-1.048-3.966,3.975-1.2-1.26-1.046,1.019Z" transform="translate(3203.116 815.689)" fill="#fff"/>
        </g>
      </g>
    </g>
  </g>
</svg>
