<svg xmlns="http://www.w3.org/2000/svg" width="161" height="149" viewBox="0 0 161 149">
  <g id="Grupo_165708" data-name="Grupo 165708" transform="translate(-1125.32 -1591)">
    <g id="investigacion" transform="translate(1147.495 1601.169)">
      <path id="Trazado_177862" data-name="Trazado 177862" d="M409.441,281.972a3.621,3.621,0,0,1-5.119,0l-23.716-23.716,5.119-5.119,23.716,23.716A3.621,3.621,0,0,1,409.441,281.972Zm0,0" transform="translate(-288.769 -192.057)" fill="#43a99b"/>
      <path id="Trazado_177863" data-name="Trazado 177863" d="M7.5,62.5H83.507V169.151H7.5Zm0,0" transform="translate(-5.69 -47.42)" fill="#acfcff"/>
      <path id="Trazado_177864" data-name="Trazado 177864" d="M40,307.727H54.477v39.089H40Zm0,0" transform="translate(-30.348 -233.475)" fill="#ff8578"/>
      <path id="Trazado_177865" data-name="Trazado 177865" d="M134,247.727h14.477v53.567H134Zm0,0" transform="translate(-101.667 -187.953)" fill="#ffd659"/>
      <path id="Trazado_177866" data-name="Trazado 177866" d="M230,269.727h14.477v48.258H230Zm0,0" transform="translate(-174.503 -204.644)" fill="#a4a3ff"/>
      <path id="Trazado_177867" data-name="Trazado 177867" d="M70,307.727h7.239v39.089H70Zm0,0" transform="translate(-53.11 -233.475)" fill="#e62753"/>
      <path id="Trazado_177868" data-name="Trazado 177868" d="M164,247.727h7.239v53.567H164Zm0,0" transform="translate(-124.428 -187.953)" fill="#ffbd54"/>
      <path id="Trazado_177869" data-name="Trazado 177869" d="M260,269.727h7.239v48.258H260Zm0,0" transform="translate(-197.264 -204.644)" fill="#3bb3e3"/>
      <path id="Trazado_177870" data-name="Trazado 177870" d="M202.406,18.741a38.365,38.365,0,1,0,0,54.256A38.365,38.365,0,0,0,202.406,18.741Zm0,0" transform="translate(-103.877 -5.694)" fill="#43a99b"/>
      <path id="Trazado_177871" data-name="Trazado 177871" d="M220.094,90.683a31.127,31.127,0,1,1,0-44.02A31.162,31.162,0,0,1,220.094,90.683Zm0,0" transform="translate(-126.684 -28.498)" fill="#fff"/>
      <path id="Trazado_177873" data-name="Trazado 177873" d="M121.955,83.042,103.389,64.473A40.188,40.188,0,0,0,105,18.113a1.81,1.81,0,1,0-3.024,1.99,36.589,36.589,0,1,1-4.727-5.8l.1.1a1.81,1.81,0,0,0,2.568-2.551l-.1-.1a40.219,40.219,0,0,0-56.818,0q-.738.738-1.429,1.5H1.81A1.81,1.81,0,0,0,0,15.064v8a1.81,1.81,0,1,0,3.619,0V16.875H38.662a39.864,39.864,0,0,0-3.568,6.089H12.547a1.81,1.81,0,1,0,0,3.619H33.6a40.091,40.091,0,0,0-1.3,4.424H12.547a1.81,1.81,0,1,0,0,3.619H31.628a40.441,40.441,0,0,0-.365,4.423H12.547a1.81,1.81,0,0,0,0,3.62H31.326a40.216,40.216,0,0,0,4.051,15.285H32.334a1.81,1.81,0,0,0-1.81,1.811v53.574a1.81,1.81,0,0,0,1.81,1.811H46.811a1.81,1.81,0,0,0,1.81-1.811V73.263a39.874,39.874,0,0,0,5.067,2.967v37.111a1.81,1.81,0,0,0,1.81,1.811H69.975a1.81,1.81,0,0,0,1.81-1.811V80.322a40.827,40.827,0,0,0,4.224-.26v27.955a1.81,1.81,0,1,0,3.619,0V79.479a39.9,39.9,0,0,0,16.084-7.325L114.274,90.72a5.43,5.43,0,0,0,7.681-7.678ZM45,111.531H34.144V61.576H37.4a40.2,40.2,0,0,0,5.59,7q.978.978,2.008,1.873Zm12.307,0V77.787a40.284,40.284,0,0,0,10.858,2.406v31.338ZM119.4,88.16a1.81,1.81,0,0,1-2.561,0L98.5,69.825c.444-.406.881-.821,1.31-1.25s.845-.864,1.251-1.31L119.394,85.6A1.812,1.812,0,0,1,119.4,88.16Zm0,0" transform="translate(0 -0.001)"/>
      <path id="Trazado_177874" data-name="Trazado 177874" d="M77.818,205.517a1.81,1.81,0,0,0-1.81,1.81v4.1H3.619v-89.01a1.81,1.81,0,1,0-3.619,0v90.82a1.81,1.81,0,0,0,1.81,1.81H77.818a1.809,1.809,0,0,0,1.81-1.81v-5.913A1.809,1.809,0,0,0,77.818,205.517Zm0,0" transform="translate(0 -91.508)"/>
      <path id="Trazado_177875" data-name="Trazado 177875" d="M32.5,302.005v39.1a1.81,1.81,0,0,0,1.81,1.81H48.788a1.81,1.81,0,0,0,1.81-1.81v-39.1a1.81,1.81,0,0,0-1.81-1.81H34.31A1.81,1.81,0,0,0,32.5,302.005Zm3.619,1.811H46.978V339.29H36.119Zm0,0" transform="translate(-24.658 -227.761)"/>
      <path id="Trazado_177876" data-name="Trazado 177876" d="M59.842,198.8a1.81,1.81,0,0,0,0-3.62H46.31a1.81,1.81,0,0,0,0,3.62Zm0,0" transform="translate(-33.763 -148.085)"/>
      <path id="Trazado_177877" data-name="Trazado 177877" d="M192.4,29.988a32.889,32.889,0,1,0,23.29,9.634A32.713,32.713,0,0,0,192.4,29.988Zm20.73,53.66A29.36,29.36,0,1,1,221.7,62.915,29.115,29.115,0,0,1,213.13,83.648Zm0,0" transform="translate(-120.996 -22.753)"/>
    </g>
    <rect id="Rectángulo_49754" data-name="Rectángulo 49754" width="161" height="149" transform="translate(1125.32 1591)" fill="none"/>
  </g>
</svg>
