<svg xmlns="http://www.w3.org/2000/svg" xmlns:xlink="http://www.w3.org/1999/xlink" width="305.156" height="182.412" viewBox="0 0 305.156 182.412">
  <defs>
    <clipPath id="clip-path">
      <rect id="Rectángulo_51189" data-name="Rectángulo 51189" width="286.907" height="174.412" fill="#ffde96"/>
    </clipPath>
    <clipPath id="clip-path-2">
      <rect id="Rectángulo_51188" data-name="Rectángulo 51188" width="286.907" height="174.213" fill="#ffde96"/>
    </clipPath>
    <linearGradient id="linear-gradient" x1="0.5" x2="0.5" y2="1" gradientUnits="objectBoundingBox">
      <stop offset="0" stop-color="#fed981"/>
      <stop offset="1" stop-color="#ffd061"/>
    </linearGradient>
  </defs>
  <g id="Grupo_171244" data-name="Grupo 171244" transform="translate(-232 -7570.588)">
    <g id="Grupo_169172" data-name="Grupo 169172" transform="translate(232 7578.588)" clip-path="url(#clip-path)">
      <path id="Trazado_204587" data-name="Trazado 204587" d="M1.188,90.724C4.721,72.2,15.822,53.764,30.267,38.693,49.058,19.086,79.079,3.356,114.7.44c25.21-2.064,53.955,3.193,73.451,14.467,9.694,5.606,17.165,12.581,21.575,20.578,4.771,8.651,6.8,18.564,17.086,25.355C239.165,69,256.23,72.906,268.995,80.7c28.3,17.273,20.04,48.473-3.8,65.707-21.462,15.512-53.3,12.643-81.934,15.567-21.734,2.219-40.544,10.313-62.757,11.845-32.136,2.216-65.314-4.889-88.886-19.562C4.171,137.17-3.226,113.872,1.188,90.724" transform="translate(0.001 0)" fill="#ffde96"/>
      <g id="Grupo_169171" data-name="Grupo 169171" opacity="0.7">
        <g id="Grupo_169170" data-name="Grupo 169170" style="isolation: isolate">
          <g id="Grupo_169169" data-name="Grupo 169169" clip-path="url(#clip-path-2)">
            <path id="Trazado_204588" data-name="Trazado 204588" d="M1.188,90.724C4.721,72.2,15.822,53.764,30.267,38.693,49.058,19.086,79.079,3.356,114.7.44c25.21-2.064,53.955,3.193,73.451,14.467,9.694,5.606,17.165,12.581,21.575,20.578,4.771,8.651,6.8,18.564,17.086,25.355C239.165,69,256.23,72.906,268.995,80.7c28.3,17.273,20.04,48.473-3.8,65.707-21.462,15.512-53.3,12.643-81.934,15.567-21.734,2.219-40.544,10.313-62.757,11.845-32.136,2.216-65.314-4.889-88.886-19.562C4.171,137.17-3.226,113.872,1.188,90.724" transform="translate(0.001 0)" fill="#ffde96"/>
          </g>
        </g>
      </g>
    </g>
    <g id="Grupo_90650" data-name="Grupo 90650" transform="translate(-797.596 6035.157)">
      <g id="Grupo_53286" data-name="Grupo 53286" transform="translate(1047.648 1535.484)">
        <path id="Trazado_99088" data-name="Trazado 99088" d="M1198.31,721.241Zm2.589-9.859a4.982,4.982,0,1,1-1.459,3.523,4.968,4.968,0,0,1,1.459-3.523Zm1.076-4.937a8.787,8.787,0,0,0-3.664,2.122.305.305,0,0,1-.365.044l-2.314-1.336-.012-.008a.579.579,0,0,0-.771.218l-.009.015-1.628,2.821a.58.58,0,0,0,.211.785l.016.01,2.3,1.325a.3.3,0,0,1,.144.337h0a8.7,8.7,0,0,0-.194,1.052,8.82,8.82,0,0,0,.194,3.2.307.307,0,0,1-.162.347l-2.295,1.325h0a.579.579,0,0,0-.211.784l1.638,2.837h0a.577.577,0,0,0,.783.211l.018-.009,2.3-1.328a.308.308,0,0,1,.364.044,8.789,8.789,0,0,0,3.678,2.126.306.306,0,0,1,.223.294v2.67a.577.577,0,0,0,.573.573h3.277a.576.576,0,0,0,.572-.573v-2.67a.307.307,0,0,1,.236-.3,8.788,8.788,0,0,0,3.665-2.122.306.306,0,0,1,.38-.034l2.3,1.327a.577.577,0,0,0,.784-.211l.01-.015,1.628-2.822h0a.579.579,0,0,0-.209-.783l-2.313-1.335a.307.307,0,0,1-.145-.338h0a8.662,8.662,0,0,0,.193-1.052,8.97,8.97,0,0,0,0-2.147,8.714,8.714,0,0,0-.193-1.052.306.306,0,0,1,.162-.347l2.3-1.325a.58.58,0,0,0,.209-.783l-.009-.017L1214,707.485h0a.577.577,0,0,0-.783-.211h0l-2.314,1.336a.306.306,0,0,1-.372-.051,8.867,8.867,0,0,0-1.707-1.284,8.772,8.772,0,0,0-1.964-.835.306.306,0,0,1-.223-.294v-2.67a.575.575,0,0,0-.572-.572h-3.277a.576.576,0,0,0-.573.572v2.67A.306.306,0,0,1,1201.975,706.444Z" transform="translate(-949.013 -624.526)" fill="#12263f" fill-rule="evenodd"/>
        <path id="Trazado_99089" data-name="Trazado 99089" d="M1219.839,649.505a7.408,7.408,0,1,1-1.608,2.408,7.422,7.422,0,0,1,1.608-2.408Zm2.667-.975a6.765,6.765,0,1,0,2.573-.508,6.715,6.715,0,0,0-2.573.508Zm-.819-5.453a12.109,12.109,0,0,0-2.677,1.142,12.194,12.194,0,0,0-2.365,1.782.773.773,0,0,1-.926.112c-1.089-.629-2.233-1.25-3.3-1.9a.447.447,0,0,0-.16-.049.5.5,0,0,0-.182.014.482.482,0,0,0-.167.081.469.469,0,0,0-.12.137c-.794,1.2-1.59,2.751-2.324,4.024a.45.45,0,0,0-.058.171.47.47,0,0,0,.015.188.465.465,0,0,0,.08.166.46.46,0,0,0,.137.12c.979.647,2.24,1.294,3.277,1.894a.777.777,0,0,1,.376.529l.068.022-.076.306q-.088.361-.156.72t-.11.731c-.031.247-.053.494-.067.737s-.022.486-.022.745.007.508.022.745.037.49.067.738.068.5.11.731.1.48.156.721a.772.772,0,0,1-.4.875l-2.9,1.676h0l-.344.2a.458.458,0,0,0-.218.287.465.465,0,0,0-.015.187.45.45,0,0,0,.058.171l2.149,3.724h0l.175.3a.45.45,0,0,0,.12.136.48.48,0,0,0,.167.081.5.5,0,0,0,.187.014.468.468,0,0,0,.17-.058c1.04-.654,2.213-1.277,3.286-1.9a.774.774,0,0,1,.923.111h0a12.052,12.052,0,0,0,1.129.964,12.036,12.036,0,0,0,3.946,1.97.776.776,0,0,1,.563.747v3.788a.449.449,0,0,0,.036.178.49.49,0,0,0,.256.256.468.468,0,0,0,.178.035h4.648a.47.47,0,0,0,.179-.035.464.464,0,0,0,.152-.1.5.5,0,0,0,.1-.154.466.466,0,0,0,.035-.178v-3.788a.773.773,0,0,1,.168-.481.782.782,0,0,1,.429-.276,11.648,11.648,0,0,0,1.365-.486,11.865,11.865,0,0,0,1.312-.656,12.24,12.24,0,0,0,2.365-1.782.777.777,0,0,1,.965-.088l3.243,1.872a.451.451,0,0,0,.172.058.49.49,0,0,0,.188-.014.482.482,0,0,0,.167-.081.465.465,0,0,0,.12-.136c.771-1.344,1.553-2.681,2.325-4.025a.453.453,0,0,0,.057-.171.48.48,0,0,0-.014-.186.47.47,0,0,0-.08-.168.441.441,0,0,0-.135-.12l-3.28-1.894a.761.761,0,0,1-.327-.367.647.647,0,0,1-.041-.124l-.086-.018.086-.348c.059-.24.112-.481.156-.72s.079-.477.11-.731.052-.5.067-.739.022-.486.022-.745-.007-.507-.022-.745-.037-.489-.067-.737-.069-.5-.11-.733-.1-.479-.156-.719a.774.774,0,0,1,.049-.513.782.782,0,0,1,.349-.362l3.249-1.876a.454.454,0,0,0,.136-.12.474.474,0,0,0,.08-.167.484.484,0,0,0,.014-.187.459.459,0,0,0-.057-.172c-.793-1.179-1.589-2.756-2.325-4.024a.484.484,0,0,0-.474-.231.455.455,0,0,0-.171.059l-3.282,1.895a.77.77,0,0,1-.492.1.784.784,0,0,1-.444-.219,12.108,12.108,0,0,0-2.355-1.773,11.949,11.949,0,0,0-2.71-1.15.778.778,0,0,1-.564-.748v-3.788a.467.467,0,0,0-.035-.178.476.476,0,0,0-.1-.153.466.466,0,0,0-.152-.1.471.471,0,0,0-.179-.036h-4.648a.472.472,0,0,0-.47.47v3.788a.777.777,0,0,1-.6.756Zm-1.634-.143a12.825,12.825,0,0,0-3.881,2.574.09.09,0,0,1-.053.024.092.092,0,0,1-.057-.011q-1.655-.956-3.312-1.913a1.126,1.126,0,0,0-.414-.129,1.148,1.148,0,0,0-.435.032,1.16,1.16,0,0,0-.406.2,1.14,1.14,0,0,0-.3.338c-.8,1.3-1.559,2.7-2.326,4.024a1.166,1.166,0,0,0,.086,1.284,1.132,1.132,0,0,0,.338.3c1.056.652,2.2,1.271,3.281,1.895a.1.1,0,0,1,.037.043.091.091,0,0,1,0,.057l-.075.307h0c-.034.149-.064.3-.093.454-.047.262-.088.52-.118.773s-.054.511-.07.777-.024.53-.024.785.008.517.024.785.039.527.07.778.071.512.119.774.1.514.163.761a.092.092,0,0,1-.005.06.1.1,0,0,1-.041.043c-1.206.644-2.429,1.4-3.621,2.09l.042.053-.036.045a1.162,1.162,0,0,0-.085,1.283l2.5,4.326.047-.028c.025.022.05.044.076.064a1.166,1.166,0,0,0,1.272.092c1.092-.58,2.217-1.28,3.295-1.9a.1.1,0,0,1,.056-.009.093.093,0,0,1,.053.024,12.769,12.769,0,0,0,5.361,3.1.092.092,0,0,1,.047.033.085.085,0,0,1,.018.055v3.788a1.164,1.164,0,0,0,.716,1.068,1.139,1.139,0,0,0,.441.089h4.648a1.146,1.146,0,0,0,.441-.089,1.2,1.2,0,0,0,.376-.251,1.177,1.177,0,0,0,.25-.376,1.151,1.151,0,0,0,.089-.441v-3.788a.094.094,0,0,1,.018-.057.091.091,0,0,1,.051-.032l.015-.005a12.863,12.863,0,0,0,1.46-.519A12.834,12.834,0,0,0,1232.8,665a12.732,12.732,0,0,0,1.191-1.017.093.093,0,0,1,.053-.026.1.1,0,0,1,.06.015l3.281,1.894a1.145,1.145,0,0,0,.426.144,1.19,1.19,0,0,0,.45-.03,1.16,1.16,0,0,0,.7-.528c.862-1.386,1.676-2.9,2.5-4.328l-.044-.026c.007-.037.015-.073.019-.11a1.151,1.151,0,0,0-.229-.854,1.142,1.142,0,0,0-.337-.3l-3.281-1.894a.093.093,0,0,1-.037-.042.1.1,0,0,1,0-.06l.085-.347h0c.029-.135.056-.272.082-.411q.072-.394.119-.775c.03-.251.054-.511.07-.778s.024-.529.024-.785-.008-.517-.024-.784-.04-.527-.07-.781-.071-.509-.119-.773-.1-.514-.163-.759a.1.1,0,0,1,.006-.061.1.1,0,0,1,.042-.043l3.277-1.892a1.133,1.133,0,0,0,.337-.3,1.153,1.153,0,0,0,.228-.854,1.12,1.12,0,0,0-.138-.418c-.781-1.447-1.676-2.905-2.5-4.336l-.047.028c-.025-.022-.051-.044-.078-.064a1.152,1.152,0,0,0-.4-.2,1.187,1.187,0,0,0-.45-.03,1.134,1.134,0,0,0-.425.142l-.243.139v0l-3.043,1.756a.092.092,0,0,1-.059.011.083.083,0,0,1-.051-.026l-.008-.008a12.917,12.917,0,0,0-2.487-1.872,12.7,12.7,0,0,0-2.866-1.217.1.1,0,0,1-.047-.032.087.087,0,0,1-.018-.056v-3.788a1.158,1.158,0,0,0-.341-.816,1.185,1.185,0,0,0-.374-.251,1.146,1.146,0,0,0-.441-.089h-4.648a1.139,1.139,0,0,0-.441.089,1.194,1.194,0,0,0-.376.251,1.153,1.153,0,0,0-.339.816v3.788a.1.1,0,0,1-.018.058.09.09,0,0,1-.051.031l-.014.005A12.838,12.838,0,0,0,1220.053,642.934Z" transform="translate(-954.348 -602.096)" fill="#12263f" fill-rule="evenodd"/>
        <g id="Grupo_53268" data-name="Grupo 53268" transform="translate(86.43 51.222)">
          <path id="Rectángulo_5027" data-name="Rectángulo 5027" d="M1.013,0H2.321A1.013,1.013,0,0,1,3.335,1.013V2.321A1.014,1.014,0,0,1,2.321,3.335H1.014A1.014,1.014,0,0,1,0,2.321V1.013A1.013,1.013,0,0,1,1.013,0Z" fill="#80bbe7"/>
          <path id="Rectángulo_5028" data-name="Rectángulo 5028" d="M1.013,0H2.321A1.013,1.013,0,0,1,3.334,1.013V2.321A1.014,1.014,0,0,1,2.32,3.335H1.013A1.013,1.013,0,0,1,0,2.321V1.013A1.013,1.013,0,0,1,1.013,0Z" transform="translate(6.835)" fill="#12263f"/>
          <path id="Rectángulo_5029" data-name="Rectángulo 5029" d="M1.013,0H2.321A1.013,1.013,0,0,1,3.334,1.013V2.321A1.014,1.014,0,0,1,2.321,3.335H1.014A1.014,1.014,0,0,1,0,2.321V1.013A1.013,1.013,0,0,1,1.013,0Z" transform="translate(13.67)" fill="#80bbe7"/>
          <path id="Rectángulo_5030" data-name="Rectángulo 5030" d="M1.013,0H2.322A1.013,1.013,0,0,1,3.334,1.013V2.321A1.014,1.014,0,0,1,2.321,3.335H1.014A1.014,1.014,0,0,1,0,2.321V1.013A1.013,1.013,0,0,1,1.013,0Z" transform="translate(20.506)" fill="#80bbe7"/>
        </g>
        <path id="Trazado_99108" data-name="Trazado 99108" d="M871.219,616.2c-.253,0-.458-.293-.458-.653s.205-.653.458-.653h21.418c.253,0,.457.293.457.653s-.2.653-.457.653Zm-2.9-1.306c.253,0,.457.293.457.653s-.2.653-.457.653h-1.784c-.253,0-.457-.293-.457-.653s.2-.653.457-.653Z" transform="translate(-837.057 -594.4)" fill="#12263f" fill-rule="evenodd"/>
        <path id="Trazado_99109" data-name="Trazado 99109" d="M911.375,654.108a.276.276,0,0,1,.552,0v1.243a.276.276,0,1,1-.552,0v-1.243Zm-1.883,1.009a.276.276,0,0,1,.391-.391l.879.879a.276.276,0,1,1-.391.391l-.878-.879Zm-.618,2.045a.276.276,0,0,1,0-.553h1.243a.276.276,0,0,1,0,.553Zm1.009,1.883a.276.276,0,0,1-.391-.391l.878-.879a.276.276,0,1,1,.391.391l-.879.879Zm2.045.617a.276.276,0,1,1-.552,0v-1.242a.276.276,0,0,1,.552,0v1.242Zm1.882-1.008a.276.276,0,0,1-.391.391l-.878-.879a.276.276,0,0,1,.39-.391l.879.879Zm.618-2.045a.276.276,0,0,1,0,.553h-1.242a.276.276,0,1,1,0-.553Zm-1.009-1.883a.276.276,0,0,1,.391.391l-.879.879a.276.276,0,0,1-.39-.391Z" transform="translate(-851.613 -607.729)" fill="#80bbe7" fill-rule="evenodd"/>
        <path id="Trazado_99110" data-name="Trazado 99110" d="M1158.7,603.681a.276.276,0,1,1,.552,0v1.242a.276.276,0,0,1-.552,0v-1.242Zm-1.883,1.009a.276.276,0,1,1,.391-.391l.879.879a.276.276,0,1,1-.391.391l-.878-.879Zm-.618,2.044a.276.276,0,1,1,0-.552h1.242a.276.276,0,1,1,0,.552Zm1.008,1.883a.276.276,0,0,1-.391-.39l.878-.879a.277.277,0,0,1,.391.391l-.879.878Zm2.045.618a.276.276,0,0,1-.552,0v-1.243a.276.276,0,0,1,.552,0v1.243Zm1.883-1.008a.276.276,0,1,1-.391.39l-.879-.878a.277.277,0,0,1,.391-.391l.879.879Zm.618-2.045a.276.276,0,1,1,0,.552h-1.243a.276.276,0,1,1,0-.552Zm-1.009-1.883a.276.276,0,0,1,.391.391l-.879.879a.276.276,0,0,1-.391-.391Z" transform="translate(-936.274 -590.467)" fill="#80bbe7" fill-rule="evenodd"/>
        <path id="Trazado_99111" data-name="Trazado 99111" d="M1190.826,795.539a.276.276,0,1,1,.552,0v1.242a.276.276,0,1,1-.552,0v-1.242Zm-1.883,1.009a.276.276,0,1,1,.391-.391l.879.879a.276.276,0,1,1-.39.391l-.879-.878Zm-.618,2.044a.276.276,0,1,1,0-.552h1.242a.276.276,0,0,1,0,.552Zm1.008,1.883a.277.277,0,0,1-.391-.391l.879-.878a.276.276,0,0,1,.39.391l-.879.879Zm2.045.618a.276.276,0,0,1-.552,0V799.85a.276.276,0,1,1,.552,0v1.242Zm1.882-1.009a.276.276,0,0,1-.391.391l-.878-.879a.276.276,0,0,1,.391-.391l.878.878Zm.618-2.044a.276.276,0,1,1,0,.552h-1.242a.276.276,0,1,1,0-.552Zm-1.009-1.883a.276.276,0,1,1,.391.391l-.878.878a.276.276,0,0,1-.391-.391Z" transform="translate(-947.272 -656.141)" fill="#80bbe7" fill-rule="evenodd"/>
        <path id="Trazado_99112" data-name="Trazado 99112" d="M830.046,728.837a.276.276,0,1,1,.552,0v1.242a.276.276,0,1,1-.552,0v-1.242Zm-1.883,1.008a.276.276,0,0,1,.391-.391l.879.879a.276.276,0,0,1-.391.391l-.879-.878Zm-.618,2.045a.277.277,0,0,1,0-.553h1.242a.277.277,0,1,1,0,.553Zm1.009,1.882a.276.276,0,0,1-.391-.391l.879-.878a.276.276,0,0,1,.391.39l-.879.879Zm2.045.618a.276.276,0,0,1-.552,0v-1.243a.276.276,0,0,1,.552,0v1.243Zm1.882-1.009a.276.276,0,0,1-.39.391l-.879-.879a.276.276,0,1,1,.391-.39l.879.878Zm.618-2.045a.277.277,0,0,1,0,.553h-1.242a.277.277,0,0,1,0-.553Zm-1.008-1.883a.276.276,0,1,1,.39.391l-.879.878a.276.276,0,0,1-.391-.391Z" transform="translate(-823.773 -633.308)" fill="#80bbe7" fill-rule="evenodd"/>
        <path id="Trazado_99113" data-name="Trazado 99113" d="M1244.437,768.42a.276.276,0,1,1,.552,0v1.242a.276.276,0,1,1-.552,0V768.42Zm-1.883,1.009a.276.276,0,0,1,.39-.391l.879.878a.276.276,0,0,1-.391.391l-.879-.879Zm-.618,2.044a.276.276,0,1,1,0-.552h1.242a.276.276,0,0,1,0,.552Zm1.008,1.883a.276.276,0,0,1-.39-.391l.879-.879a.276.276,0,1,1,.391.391l-.879.879Zm2.045.618a.276.276,0,1,1-.552,0v-1.242a.276.276,0,1,1,.552,0v1.242Zm1.883-1.008a.276.276,0,1,1-.39.391l-.879-.879a.276.276,0,1,1,.391-.391l.879.879Zm.618-2.045a.276.276,0,0,1,0,.552h-1.243a.276.276,0,0,1,0-.552Zm-1.008-1.882a.276.276,0,0,1,.39.391l-.879.879a.277.277,0,0,1-.391-.391Z" transform="translate(-965.623 -646.858)" fill="#80bbe7" fill-rule="evenodd"/>
        <g id="Grupo_53269" data-name="Grupo 53269" transform="translate(259.899 13.79)">
          <rect id="Rectángulo_5031" data-name="Rectángulo 5031" width="3.334" height="3.334" rx="1.013" fill="#12263f"/>
          <rect id="Rectángulo_5032" data-name="Rectángulo 5032" width="3.334" height="3.334" rx="1.013" transform="translate(6.835)" fill="#12263f"/>
          <rect id="Rectángulo_5033" data-name="Rectángulo 5033" width="3.334" height="3.334" rx="1.013" transform="translate(13.671)" fill="#12263f"/>
          <rect id="Rectángulo_5034" data-name="Rectángulo 5034" width="3.334" height="3.334" rx="1.013" transform="translate(20.506)" fill="#12263f"/>
        </g>
        <path id="Trazado_99114" data-name="Trazado 99114" d="M827.13,640.835Zm2.59-9.86a4.98,4.98,0,1,1-1.459,3.523,4.966,4.966,0,0,1,1.459-3.523Zm1.076-4.937a8.755,8.755,0,0,0-1.953.831,8.845,8.845,0,0,0-1.713,1.291.306.306,0,0,1-.365.045l-2.314-1.337-.013-.007a.578.578,0,0,0-.771.218l-.01.016-1.628,2.82a.578.578,0,0,0,.21.785l.016.01,2.3,1.325a.305.305,0,0,1,.144.337h0a8.651,8.651,0,0,0-.193,1.052,8.878,8.878,0,0,0,0,2.147,8.666,8.666,0,0,0,.193,1.052.306.306,0,0,1-.161.347l-2.3,1.325h0a.577.577,0,0,0-.21.784l1.638,2.837h0a.577.577,0,0,0,.783.21l.017-.009,2.3-1.327a.306.306,0,0,1,.364.044,8.864,8.864,0,0,0,1.713,1.291,8.764,8.764,0,0,0,1.965.835.307.307,0,0,1,.222.295v2.67a.576.576,0,0,0,.573.573h3.276a.577.577,0,0,0,.574-.573v-2.67a.306.306,0,0,1,.235-.3,8.755,8.755,0,0,0,1.953-.831,8.846,8.846,0,0,0,1.712-1.291.307.307,0,0,1,.38-.035l2.3,1.327a.576.576,0,0,0,.783-.21l.01-.016,1.629-2.822h0a.577.577,0,0,0-.209-.783l-2.312-1.336a.3.3,0,0,1-.145-.337h0a8.7,8.7,0,0,0,.193-1.052,8.878,8.878,0,0,0,0-2.147,8.651,8.651,0,0,0-.193-1.052.307.307,0,0,1,.162-.347l2.3-1.325a.578.578,0,0,0,.209-.783l-.009-.017-1.628-2.82h0a.577.577,0,0,0-.783-.211h0l-2.315,1.337a.306.306,0,0,1-.372-.051,8.869,8.869,0,0,0-1.706-1.284,8.742,8.742,0,0,0-1.965-.835.306.306,0,0,1-.222-.295v-2.67a.576.576,0,0,0-.574-.573H831.6a.575.575,0,0,0-.573.573v2.67A.306.306,0,0,1,830.8,626.037Z" transform="translate(-821.954 -597.003)" fill="#12263f" fill-rule="evenodd"/>
        <g id="Grupo_53270" data-name="Grupo 53270" transform="translate(142.745 0)">
          <path id="Trazado_99115" data-name="Trazado 99115" d="M1066.85,703.367c-2.909,2.65-3.363,2.965-3.363,2.965s-1.921,3.648-1.182,3.644a2.062,2.062,0,0,0,1.328-.67s.72.919,1.368.536a9.158,9.158,0,0,1,.988-.527s.742.737,1.354.256,3.537-3.636,3.537-3.636l3.865-2.533-1.541-1.388Z" transform="translate(-1046.915 -624.222)" fill="#e98daf" fill-rule="evenodd"/>
          <path id="Trazado_99116" data-name="Trazado 99116" d="M1136.422,821.709c-.059.408-.535,2.46-.527,2.512.084.605.232,1.817.232,1.817a5.251,5.251,0,0,1-2.281,1.558c-1.1.2-6.08.42-6.143.148a13.706,13.706,0,0,1,1.245-2.424,5.739,5.739,0,0,0,1.6-3.932C1130.743,818.643,1136.422,821.709,1136.422,821.709Z" transform="translate(-1069.359 -664.693)" fill="#f3c6d4" fill-rule="evenodd"/>
          <path id="Trazado_99117" data-name="Trazado 99117" d="M1129.754,827.842l.61-.218a4.228,4.228,0,0,0,3.123.134,3.732,3.732,0,0,0,2.211-1.571.329.329,0,0,1,.272-.2h.41a.879.879,0,0,1,.8.516,9.8,9.8,0,0,1,.045,4.671c-.534,1.507-1.283,1.308-1.283,1.308s-2.973-.877-4.978-.17-3.841,1.444-3.841,1.444S1127.223,829.767,1129.754,827.842Z" transform="translate(-1069.162 -666.659)" fill="#0e0226" fill-rule="evenodd"/>
          <path id="Trazado_99118" data-name="Trazado 99118" d="M1110.425,833.314l-.22-.649v-.788c0-.3.123-1.183.981-1.183h3.286c.762,0,4.881-2.094,8.047-4.67a.435.435,0,0,1,.556-.071c.332.191,1.341,1,1.444,1.083a.65.65,0,0,1,.055.552c-.061.12-2.991,5.922-2.991,5.922S1112.955,834.642,1110.425,833.314Z" transform="translate(-1063.37 -666.623)" fill="#1a0f44" fill-rule="evenodd"/>
          <path id="Trazado_99119" data-name="Trazado 99119" d="M1110.1,835.4a.543.543,0,0,0-.194.34v.632a1.238,1.238,0,0,0,1.231.8h9.12a7.793,7.793,0,0,0,3.256-.71,18.824,18.824,0,0,1,2.349-.86s.218-.074.218.3v.725c0,.181-.111.673.633.673h4.437c.337,0,.725-.193.725-.883v-1.777c0-.43-.261-.77-.542-.77h-3.411a9.512,9.512,0,0,0-4.35,1.188,11.636,11.636,0,0,1-5.258,1.087h-5.1A5.789,5.789,0,0,1,1110.1,835.4Z" transform="translate(-1063.269 -669.359)" fill="#0e0226" fill-rule="evenodd"/>
          <path id="Trazado_99120" data-name="Trazado 99120" d="M1165.831,821.709c-.059.408-.535,2.46-.528,2.512.084.605.232,1.817.232,1.817a5.25,5.25,0,0,1-2.281,1.558c-1.1.2-6.08.42-6.143.148a13.665,13.665,0,0,1,1.245-2.424,5.74,5.74,0,0,0,1.6-3.932C1160.151,818.643,1165.831,821.709,1165.831,821.709Z" transform="translate(-1079.425 -664.693)" fill="#f3c6d4" fill-rule="evenodd"/>
          <path id="Trazado_99121" data-name="Trazado 99121" d="M1159.163,827.842l.61-.218a4.228,4.228,0,0,0,3.123.134,3.726,3.726,0,0,0,2.21-1.571.331.331,0,0,1,.272-.2h.411a.879.879,0,0,1,.8.516,9.8,9.8,0,0,1,.045,4.671c-.534,1.507-1.283,1.308-1.283,1.308s-2.971-.877-4.977-.17-3.842,1.444-3.842,1.444S1156.633,829.767,1159.163,827.842Z" transform="translate(-1079.229 -666.659)" fill="#0e0226" fill-rule="evenodd"/>
          <path id="Trazado_99122" data-name="Trazado 99122" d="M1139.834,833.314l-.221-.649v-.788c0-.3.124-1.183.981-1.183h3.286c.761,0,4.881-2.094,8.046-4.67a.435.435,0,0,1,.555-.071c.333.191,1.342,1,1.444,1.083a.653.653,0,0,1,.054.552l-2.99,5.922S1142.365,834.642,1139.834,833.314Z" transform="translate(-1073.436 -666.623)" fill="#1a0f44" fill-rule="evenodd"/>
          <path id="Trazado_99123" data-name="Trazado 99123" d="M1139.513,835.4a.543.543,0,0,0-.193.34v.632a1.237,1.237,0,0,0,1.231.8h9.119a7.794,7.794,0,0,0,3.256-.71,18.869,18.869,0,0,1,2.349-.86s.218-.074.218.3v.725c0,.181-.111.673.633.673h4.437c.337,0,.724-.193.724-.883v-1.777c0-.43-.26-.77-.541-.77h-3.411a9.516,9.516,0,0,0-4.349,1.188,11.635,11.635,0,0,1-5.257,1.087h-5.1A5.793,5.793,0,0,1,1139.513,835.4Z" transform="translate(-1073.336 -669.359)" fill="#0e0226" fill-rule="evenodd"/>
          <path id="Trazado_99124" data-name="Trazado 99124" d="M1087.463,634.052s-2.056,3.45-.766,11.292,10.191,38.367,4.146,54.3a1.44,1.44,0,0,0,.666,1.694c1.039.6,15.721,3.15,26.454-1.423S1109.845,636.378,1087.463,634.052Z" transform="translate(-1055.177 -600.958)" fill="#4c708f" fill-rule="evenodd"/>
          <path id="Trazado_99125" data-name="Trazado 99125" d="M1127.071,769.233a9.311,9.311,0,0,0,6.472.577,2.147,2.147,0,0,0,1.267-1.457c.23-1.075,7.83-65.046,8.75-76.4s-6.018-18.291-16.647-25.58-1.733-1.135-2.557-1.6a96.972,96.972,0,0,1-5.73,16.033l-.024,4.81a3.928,3.928,0,0,0,.243.952c3.239,12.875,3.621,23.149,4.108,36.1.02.378-.19-9.722.044,1.131s2.693,42.063,2.847,43.291S1126.533,769.117,1127.071,769.233Z" transform="translate(-1066.244 -610.792)" fill="#344154" fill-rule="evenodd"/>
          <path id="Trazado_99126" data-name="Trazado 99126" d="M1090.687,644.575l3.072,4.986s13.018,22.364,14.823,25.549,9.52,2.733,9.52,2.733l-16.481-47.9a71.882,71.882,0,0,0-7.989-.864c-2.234.047-3.667,3.465-3.667,3.465Z" transform="translate(-1056.441 -599.254)" fill="#344154" fill-rule="evenodd"/>
          <path id="Trazado_99127" data-name="Trazado 99127" d="M1087.463,634.052s-2.056,3.45-.766,11.292c1,6.061,6.538,25.671,6.214,41.62h0c2.835-29.03-2.389-47.4-4.213-52.721C1088.29,634.164,1087.877,634.095,1087.463,634.052Z" transform="translate(-1055.177 -600.958)" fill="#428fcd" fill-rule="evenodd"/>
          <path id="Trazado_99128" data-name="Trazado 99128" d="M1147.735,768.876s2.233,1.249,6.3.367a2.147,2.147,0,0,0,1.266-1.457c.23-1.075,3.272-22.523,4.192-33.88s8.64-53.962-11.736-67.936-24.767,10.136-24.767,10.136,19.009,8,19.468,29.333,3.895,60.062,4.048,61.29S1147.2,768.761,1147.735,768.876Z" transform="translate(-1067.746 -610.392)" fill="#5d6776" fill-rule="evenodd"/>
          <path id="Trazado_99129" data-name="Trazado 99129" d="M1159.026,779.1a11.786,11.786,0,0,0,4.627-.157,2.147,2.147,0,0,0,1.266-1.457c.23-1.075,3.272-22.523,4.192-33.88.7-8.616,5.307-35.22-1.408-53.661-.092.065-10.58,7.415-16.617,17.726a33.35,33.35,0,0,1,.99,7.468c.078,3.6.242,7.7.458,12.023,2.589-2.779,6.031-6.519,7.777-8.616,3.019-3.622,6.415-2.339,7.623-.6s-3.4,45.432-4,51.016C1163.508,772.886,1160.671,777,1159.026,779.1Z" transform="translate(-1077.364 -620.09)" fill="#858d98" fill-rule="evenodd"/>
          <path id="Trazado_99130" data-name="Trazado 99130" d="M1071.4,611.579c.032,0,.121.374.5,1l-1.85,1.947a16.431,16.431,0,0,0,1.15,1.278,4,4,0,0,0-2.022,1.467s-1.985,6.117-1.409,6.71l-.062.075c-3.576,4.222-5.771,2.824-6.217,2.445s-2.644-2.393-2.881-2.439-1.085.955-1.657.47a59.846,59.846,0,0,1-6.373-8.653c-3.023-4.774-1.317-10.271-1.317-10.271,7.371-5.984,13.5,5.285,14.236,3.394s2.855-2.066,4.028.033C1067.681,609.331,1071.354,611.265,1071.4,611.579Z" transform="translate(-1042.341 -590.617)" fill="#f3c6d4" fill-rule="evenodd"/>
          <path id="Trazado_99131" data-name="Trazado 99131" d="M1071.4,611.661c.032,0,.121.374.5,1.005l-1.85,1.947a16.427,16.427,0,0,0,1.15,1.279,4.6,4.6,0,0,0-.6.253,1.5,1.5,0,0,0-.187-.725c-.5-.579-1.5-1.823-1.5-1.823a1.114,1.114,0,0,1-1.665-.894c-.264-1.546-1.453-3.056-2.7-2.811s-.53,1.866-.53,1.866l2.945,4.247-.49,5.056s-4.6.83-3.66-1.131-1.473-3.473-4.265-6.642-4.34-2.83-5.057-2.34c-.448.306-2.524,1.7-4.023,2.7a13.6,13.6,0,0,1-.6-5.838,36.448,36.448,0,0,1,6.309-3.731c4.516.993,7.792,6.357,8.322,5.006.741-1.891,2.856-2.066,4.029.033C1067.681,609.413,1071.354,611.347,1071.4,611.661Z" transform="translate(-1042.341 -590.699)" fill="#e98daf" fill-rule="evenodd"/>
          <path id="Trazado_99132" data-name="Trazado 99132" d="M1082.083,615.595s1.435.1,2.528.143,1.992,6.425,1.992,6.425l-1.863,2.831-.434.66-1.41,2.144-.133-.662s-1.476-1.144-2.405.143-3.256-2.161-3.256-2.161S1076.678,617.56,1082.083,615.595Z" transform="translate(-1052.035 -594.64)" fill="#f3c6d4" fill-rule="evenodd"/>
          <path id="Trazado_99133" data-name="Trazado 99133" d="M1083.058,615.595s1.435.1,2.528.143,1.991,6.425,1.991,6.425l-1.863,2.831-.434.66-1.41,2.144-.133-.662s-1.476-1.144-2.406.143a.683.683,0,0,1-.9.207l.639-2.656s.5-4.892,0-5.471c-.306-.353-.8-.952-1.134-1.366A6.483,6.483,0,0,1,1083.058,615.595Z" transform="translate(-1053.01 -594.64)" fill="#e98daf" fill-rule="evenodd"/>
          <path id="Trazado_99134" data-name="Trazado 99134" d="M1057.579,604.672s-3.369,1.644-6.031-3.41c0,0-3.449,3.656-5.7,4.57a1.443,1.443,0,0,1-.14.047l.14-.047a5.08,5.08,0,0,1-2.014-.43,7.189,7.189,0,0,1-4.106-3.609c-1.962-3.924.378-5.925,2.491-5.66,0,0,3.169-6.906,4.942-8.943s5.924-1.169,5.924-1.169-.6-1.774.113-2.189,4.6.353,6.112,4.856c0,0,3.019-.493,4.606,1.044s5.1,14.886,5.121,14.957c.076.852-.261,1.71-1.119,1.741a4.385,4.385,0,0,1-3.712-1.734s-1.116-3.984-3.079-3.382c0,0-1.669.016-.888,2.82a8.711,8.711,0,0,0,1.6,2.025,15.965,15.965,0,0,1,5.227,6.615c1.763,4.12-1.962,6.725-2.986,7.933s-2.741,2.149-3.974,1.1-4.019-3.4-4.442-3.761-.52-.75-.417-.866c0,0,1.8-1.906,3.16-3.216s2.429-2.161,2.429-3.658a5.3,5.3,0,0,0-1.409-4.211A6.542,6.542,0,0,0,1057.579,604.672Z" transform="translate(-1038.993 -583.734)" fill="#344154" fill-rule="evenodd"/>
          <path id="Trazado_99135" data-name="Trazado 99135" d="M1051.547,601.263s-3.449,3.656-5.7,4.57a1.443,1.443,0,0,1-.14.047l.14-.047a5.08,5.08,0,0,1-2.014-.43,7.189,7.189,0,0,1-4.106-3.609c-1.962-3.924.378-5.925,2.491-5.66,0,0,3.169-6.906,4.942-8.943s5.924-1.169,5.924-1.169-.6-1.774.113-2.189,4.6.353,6.112,4.856C1059.314,588.688,1059.326,593.185,1051.547,601.263Z" transform="translate(-1038.993 -583.734)" fill="#27313f" fill-rule="evenodd"/>
          <path id="Trazado_99136" data-name="Trazado 99136" d="M1039.315,601.213c-1.139-3.274.978-4.921,2.907-4.68,0,0,12.226,2.879,13.887-11.632a6.76,6.76,0,0,1,.563.378C1056.833,591.282,1055.043,602.39,1039.315,601.213Z" transform="translate(-1038.994 -584.133)" fill="#344154" fill-rule="evenodd"/>
          <path id="Trazado_99137" data-name="Trazado 99137" d="M1060.065,625.643h0a.783.783,0,0,1,1.1.091l.658.778a.784.784,0,0,1-.092,1.1h0a.783.783,0,0,1-1.1-.092l-.658-.779A.783.783,0,0,1,1060.065,625.643Z" transform="translate(-1046.112 -598.016)" fill="#344154" fill-rule="evenodd"/>
          <path id="Trazado_99138" data-name="Trazado 99138" d="M1063.614,628.675a1.155,1.155,0,1,1-.136,1.628A1.155,1.155,0,0,1,1063.614,628.675Z" transform="translate(-1047.281 -599.024)" fill="#ed7792" fill-rule="evenodd"/>
          <path id="Trazado_99139" data-name="Trazado 99139" d="M1059.309,623.169a.236.236,0,1,0-.1-.462,2.938,2.938,0,0,0-2.066,1.692.237.237,0,0,0,.446.162A2.452,2.452,0,0,1,1059.309,623.169Z" transform="translate(-1045.201 -597.072)" fill="#344154" fill-rule="evenodd"/>
          <path id="Trazado_99140" data-name="Trazado 99140" d="M1089.019,696.96s-9.96,3.716-11,4.219-2.185-3.648-2.282-4.323.616-1.468,1.967-2.241,8.858-5.125,8.858-5.125Z" transform="translate(-1051.567 -619.934)" fill="#fff" fill-rule="evenodd"/>
          <path id="Trazado_99141" data-name="Trazado 99141" d="M1091.208,682.633c-3.644,1.368-9.958,3.753-10.856,4.186-1.273.614-2.668-4.454-2.787-5.279s.753-1.792,2.4-2.737c.933-.534,4.268-2.465,6.992-4.042a7.676,7.676,0,0,0,2.8-5.417c.365-3.727,1.647-20.825,1.647-20.825l9.979,4.439,1.77,2.61s-3.742,16.188-5.209,19.951S1094.438,681.417,1091.208,682.633Z" transform="translate(-1052.193 -605.91)" fill="#344154" fill-rule="evenodd"/>
          <path id="Trazado_99142" data-name="Trazado 99142" d="M1147.1,653.73s7.093,12.272,8.432,30.649a.867.867,0,0,1-.595.925c-.71.3-6.651.017-13.631,8.586s-18.135,16.267-24.531,15.263c0,0-.692,0-.777-1.124s-1.426-51.4-21.972-69.566a5.869,5.869,0,0,1-1.921-4.422C1092.176,631.255,1124.294,619.86,1147.1,653.73Z" transform="translate(-1057.172 -599.554)" fill="#6595bf" fill-rule="evenodd"/>
          <path id="Trazado_99143" data-name="Trazado 99143" d="M1153.6,671.862l-1.488,4.982s-3.169.154-11.389-16.337c0,0-3.271-6.353-12.713-8.295l4.205-5.985s17.948,3.17,17.856,4.7S1153.6,671.862,1153.6,671.862Z" transform="translate(-1069.466 -605.125)" fill="#4c708f" fill-rule="evenodd"/>
          <path id="Trazado_99144" data-name="Trazado 99144" d="M1102.819,663.064l5.924-3.978a1.566,1.566,0,0,1,1.967.25l10.354,11.441a1.1,1.1,0,0,1-.2,1.7l-5.924,3.978a1.566,1.566,0,0,1-1.967-.25l-10.354-11.441A1.1,1.1,0,0,1,1102.819,663.064Z" transform="translate(-1060.666 -609.445)" fill="#344154" fill-rule="evenodd"/>
          <path id="Trazado_99145" data-name="Trazado 99145" d="M1101.511,663.942l5.925-3.979a1.564,1.564,0,0,1,1.966.251l10.354,11.441a1.105,1.105,0,0,1-.2,1.7l-5.925,3.978a1.567,1.567,0,0,1-1.968-.25l-10.353-11.441A1.1,1.1,0,0,1,1101.511,663.942Z" transform="translate(-1060.219 -609.745)" fill="#1a212a" fill-rule="evenodd"/>
          <path id="Trazado_99146" data-name="Trazado 99146" d="M1103.017,667.912l.954-.641a.252.252,0,0,1,.316.041l2.563,2.831a.178.178,0,0,1-.031.275l-.954.64a.252.252,0,0,1-.317-.04l-2.564-2.831A.178.178,0,0,1,1103.017,667.912Z" transform="translate(-1060.881 -612.316)" fill="#674f9b" fill-rule="evenodd"/>
          <path id="Trazado_99147" data-name="Trazado 99147" d="M1104.166,668.216a.629.629,0,0,1,.811.114.477.477,0,0,1-.1.724.628.628,0,0,1-.81-.115A.476.476,0,0,1,1104.166,668.216Z" transform="translate(-1061.227 -612.618)" fill="#d3ebfa" fill-rule="evenodd"/>
          <path id="Trazado_99148" data-name="Trazado 99148" d="M1105.657,669.885a.629.629,0,0,1,.81.114.477.477,0,0,1-.1.723.629.629,0,0,1-.811-.114A.477.477,0,0,1,1105.657,669.885Z" transform="translate(-1061.737 -613.19)" fill="#d3ebfa" fill-rule="evenodd"/>
          <path id="Trazado_99149" data-name="Trazado 99149" d="M1105.941,670.184a.357.357,0,0,1,.46.065.271.271,0,0,1-.055.41.357.357,0,0,1-.459-.065A.271.271,0,0,1,1105.941,670.184Z" transform="translate(-1061.867 -613.307)" fill="#fff" fill-rule="evenodd"/>
          <path id="Trazado_99150" data-name="Trazado 99150" d="M1104.428,668.49a.381.381,0,0,1,.489.068.288.288,0,0,1-.058.436.379.379,0,0,1-.488-.069A.288.288,0,0,1,1104.428,668.49Z" transform="translate(-1061.347 -612.726)" fill="#fff" fill-rule="evenodd"/>
          <path id="Trazado_99151" data-name="Trazado 99151" d="M1107.125,671.5a.378.378,0,0,1,.487.069.287.287,0,0,1-.058.435.379.379,0,0,1-.488-.069A.288.288,0,0,1,1107.125,671.5Z" transform="translate(-1062.27 -613.755)" fill="#d3ebfa" fill-rule="evenodd"/>
          <path id="Trazado_99152" data-name="Trazado 99152" d="M1090.417,609.16c-.12.07-2.581.708-3,.894s-.545,1.062-.637,2.556-1.3,12.566-1.362,13.2a1.007,1.007,0,0,0,.714,1.2c.547.187,6.846,2.455,6.846,2.455Z" transform="translate(-1054.884 -592.437)" fill="#344154" fill-rule="evenodd"/>
          <path id="Trazado_99153" data-name="Trazado 99153" d="M1139.215,656.591s-9.52,6.308-10.615,6.9,1.79,4.2,2.316,4.714,1.665.391,3.191-.294,10.047-4.462,10.047-4.462Z" transform="translate(-1069.582 -608.673)" fill="#fff" fill-rule="evenodd"/>
          <path id="Trazado_99154" data-name="Trazado 99154" d="M1143.937,650.978s-12.449,8.251-13.882,9.02,2.341,5.5,3.029,6.165,2.178.511,4.172-.385,13.142-5.835,13.142-5.835Z" transform="translate(-1070.054 -606.752)" fill="#1a212a" fill-rule="evenodd"/>
          <path id="Trazado_99155" data-name="Trazado 99155" d="M1105.9,637.036a83.045,83.045,0,0,0,12.845,1.841c6.969.425,21.441,1.384,22.336,24.5,0,0,.109.122.481-.009s10.451-9.068,11.865-13.364-6.769-20.093-11.257-22.135-12.843-3.7-21.971-12.87-21.685-8.069-21.685-8.069l-2.732,10.116S1097.033,634.42,1105.9,637.036Z" transform="translate(-1058.434 -591.66)" fill="#84aacc" fill-rule="evenodd"/>
          <path id="Trazado_99156" data-name="Trazado 99156" d="M1146.067,654.559a35.572,35.572,0,0,1,2.541,12.751s.109.122.481-.009,10.451-9.068,11.865-13.364c.567-1.72-.406-5.283-2.063-9.069-.007,2.77-.371,5.837-1.755,7.365-1.942,2.143-7.6,2.391-11.07,2.325Zm4.376-22.314a4.663,4.663,0,0,0-.746-.442c-4.489-2.042-12.843-3.7-21.971-12.87-.189-.19-.38-.374-.572-.555.068.153,5.893,13.349-8.664,16.275,0,0-.943.189-.679.981S1144.574,628.506,1150.443,632.245Z" transform="translate(-1065.958 -595.592)" fill="#6595bf" fill-rule="evenodd"/>
          <path id="Trazado_99157" data-name="Trazado 99157" d="M1099.595,606.911c-.339.012-.524.028-.524.028l-1.669,6.179,2.422,16.892,2.127.875a10.84,10.84,0,0,1-.165-2.536c.189-.17,4.642-2.359,5.208-2.66a.806.806,0,0,0,.453-.848C1107.011,623.934,1100.934,609.987,1099.595,606.911Z" transform="translate(-1058.987 -591.667)" fill="#1b7fc2" fill-rule="evenodd"/>
          <path id="Trazado_99158" data-name="Trazado 99158" d="M1092.722,606.127a1.392,1.392,0,0,0-.747.9c-.174.662.077,14.5.137,16.036s6.268,9.416,7.809,11.239a7.982,7.982,0,0,0,4.656,2.436.09.09,0,0,0,.082-.077c.009-.071-2.419-1.074-3.158-2.2s-2.022-5.927-2.171-6.628c0,0,4.267-2.055,5-2.472s.853-.755.575-1.232-7.215-16.892-7.715-17.5S1094.875,605.873,1092.722,606.127Z" transform="translate(-1057.109 -591.358)" fill="#d3ebfa" fill-rule="evenodd"/>
          <path id="Trazado_99159" data-name="Trazado 99159" d="M1059.241,586.907a.214.214,0,1,1-.246.349,8.331,8.331,0,0,0-6.1-.983.213.213,0,0,1-.076-.42A8.786,8.786,0,0,1,1059.241,586.907Z" transform="translate(-1043.665 -584.398)" fill="#201049" fill-rule="evenodd"/>
          <path id="Trazado_99160" data-name="Trazado 99160" d="M1045.744,614.77a.214.214,0,0,1,.189.383c-.012.006-4.008,2.052-6.522-2.622a.214.214,0,0,1,.377-.2C1042.1,616.635,1045.734,614.775,1045.744,614.77Z" transform="translate(-1039.128 -593.483)" fill="#201049" fill-rule="evenodd"/>
          <path id="Trazado_99161" data-name="Trazado 99161" d="M1122.488,666.484c-.629-.225-1.94-.938-2.286-1.111-.39-.2-3.658-.927-3.658-.927l1.756,1.951a57.073,57.073,0,0,0-6.536,3.268c-1.171.927-.439,1.365.586,1.365h1.024s-.2,1.756,1.122,1.8a7.039,7.039,0,0,0,1.413,0s.488,1.463,1.562,1.317a14.433,14.433,0,0,0,5.072-1.8,7.735,7.735,0,0,0,2.307-1.652C1124.143,669.9,1122.268,667.442,1122.488,666.484Z" transform="translate(-1063.698 -611.362)" fill="#f2bbc9" fill-rule="evenodd"/>
          <path id="Trazado_99162" data-name="Trazado 99162" d="M1122.488,667.4c-.178-.063-.41-.166-.658-.283-.112,1.932,1.386,3.469-1,4.743-2.625,1.4-4.347,1.042-7.335-1.811-.139-.095-.273-.183-.406-.27a10.12,10.12,0,0,0-1.327.8c-1.171.927-.439,1.365.586,1.365h1.024s-.2,1.756,1.122,1.8a7.039,7.039,0,0,0,1.413,0s.488,1.463,1.562,1.317a14.436,14.436,0,0,0,5.072-1.8,7.738,7.738,0,0,0,2.307-1.651C1124.143,670.812,1122.268,668.356,1122.488,667.4Z" transform="translate(-1063.698 -612.275)" fill="#e98daf" fill-rule="evenodd"/>
        </g>
        <g id="Grupo_53279" data-name="Grupo 53279" transform="translate(49.621 61.927)">
          <path id="Trazado_99163" data-name="Trazado 99163" d="M971.329,677.892H903.541c-3.377,0-6.14,2.311-6.14,5.135v100.76h80.069V683.027C977.469,680.2,974.706,677.892,971.329,677.892Z" transform="translate(-897.401 -677.892)" fill="#12263f" fill-rule="evenodd"/>
          <path id="Trazado_99164" data-name="Trazado 99164" d="M994.494,677.892H937.705c-2.83,0-5.145,1.936-5.145,4.3V783.787h67.078V682.193C999.638,679.828,997.324,677.892,994.494,677.892Z" transform="translate(-909.436 -677.892)" fill="#b0c0d2" fill-rule="evenodd"/>
          <path id="Trazado_99165" data-name="Trazado 99165" d="M996.585,681.921H939.8a1.051,1.051,0,0,0-1.128.943v102.3h59.045v-102.3A1.051,1.051,0,0,0,996.585,681.921Z" transform="translate(-911.527 -679.271)" fill="#fff" fill-rule="evenodd"/>
          <path id="Trazado_99166" data-name="Trazado 99166" d="M971.1,681.921h15.483a1.223,1.223,0,0,1,1.313,1.1h0a1.224,1.224,0,0,1-1.313,1.1H971.1a1.224,1.224,0,0,1-1.313-1.1h0A1.224,1.224,0,0,1,971.1,681.921Z" transform="translate(-922.18 -679.271)" fill="#1a212a" fill-rule="evenodd"/>
          <path id="Trazado_99167" data-name="Trazado 99167" d="M939.8,681.921h56.789a1.051,1.051,0,0,1,1.128.943v.155H938.668v-.155A1.051,1.051,0,0,1,939.8,681.921Z" transform="translate(-911.527 -679.271)" fill="#1a212a" fill-rule="evenodd"/>
          <path id="Trazado_99168" data-name="Trazado 99168" d="M971.1,800.846h15.483a1.224,1.224,0,0,1,1.313,1.1h0a1.224,1.224,0,0,1-1.313,1.1H971.1a1.224,1.224,0,0,1-1.313-1.1h0A1.224,1.224,0,0,1,971.1,800.846Z" transform="translate(-922.18 -719.98)" fill="#1a212a" fill-rule="evenodd"/>
          <path id="Trazado_99169" data-name="Trazado 99169" d="M939.8,800.846h56.789a1.051,1.051,0,0,1,1.128.942v.156H938.668v-.156A1.051,1.051,0,0,1,939.8,800.846Z" transform="translate(-911.527 -719.98)" fill="#1a212a" fill-rule="evenodd"/>
          <g id="Grupo_53271" data-name="Grupo 53271" transform="translate(27.141 19.168)">
            <rect id="Rectángulo_5035" data-name="Rectángulo 5035" width="13.46" height="21.15" transform="translate(0)" fill="#f9b532"/>
            <rect id="Rectángulo_5036" data-name="Rectángulo 5036" width="13.46" height="18.019" transform="translate(0 3.13)" fill="#f59f3a"/>
            <rect id="Rectángulo_5037" data-name="Rectángulo 5037" width="13.46" height="16.113" transform="translate(0 5.037)" fill="#fff"/>
            <rect id="Rectángulo_5038" data-name="Rectángulo 5038" width="13.46" height="16.113" transform="translate(0 5.037)" fill="#fff2d1"/>
            <path id="Trazado_99170" data-name="Trazado 99170" d="M952.128,712.63h-9.961a3.967,3.967,0,0,0-3.5,2.547V730.1h13.46Z" transform="translate(-938.668 -708.951)" fill="#fcc749" fill-rule="evenodd"/>
          </g>
          <g id="Grupo_53272" data-name="Grupo 53272" transform="translate(31.395 19.168)">
            <rect id="Rectángulo_5039" data-name="Rectángulo 5039" width="9.206" height="18.697" fill="#f18d3d"/>
            <rect id="Rectángulo_5040" data-name="Rectángulo 5040" width="9.206" height="15.567" transform="translate(0 3.13)" fill="#ee7e40"/>
            <rect id="Rectángulo_5041" data-name="Rectángulo 5041" width="9.206" height="13.66" transform="translate(0 5.037)" fill="#f2bcc2"/>
            <rect id="Rectángulo_5042" data-name="Rectángulo 5042" width="9.206" height="13.66" transform="translate(0 5.037)" fill="#f2b2a5"/>
            <rect id="Rectángulo_5043" data-name="Rectángulo 5043" width="9.206" height="15.018" transform="translate(0 3.679)" fill="#f39a4c"/>
          </g>
          <g id="Grupo_53273" data-name="Grupo 53273" transform="translate(34.885 19.168)">
            <path id="Trazado_99171" data-name="Trazado 99171" d="M973.893,707.037H953.321a2.887,2.887,0,0,0-2.879,2.879v18.271h23.45Z" transform="translate(-950.442 -707.037)" fill="#f9b532" fill-rule="evenodd"/>
            <path id="Trazado_99172" data-name="Trazado 99172" d="M974.725,711.8H955.753a2.887,2.887,0,0,0-2.879,2.879v15.14h21.851Z" transform="translate(-951.275 -708.666)" fill="#f59f3a" fill-rule="evenodd"/>
            <path id="Trazado_99173" data-name="Trazado 99173" d="M954.738,730.808V717.042a2.353,2.353,0,0,1,2.345-2.346h18.28v16.112Z" transform="translate(-951.913 -709.659)" fill="#fff" fill-rule="evenodd"/>
            <path id="Trazado_99174" data-name="Trazado 99174" d="M956.914,730.808l3.662-14.592a3.7,3.7,0,0,1,.819-1.52h14.713v16.112Z" transform="translate(-952.657 -709.659)" fill="#fff2d1" fill-rule="evenodd"/>
            <path id="Trazado_99175" data-name="Trazado 99175" d="M977.133,712.63h-9.961a3.954,3.954,0,0,0-3.6,2.879L959.908,730.1h17.225Z" transform="translate(-953.682 -708.951)" fill="#fcc749" fill-rule="evenodd"/>
          </g>
          <g id="Grupo_53274" data-name="Grupo 53274" transform="translate(49.129 19.168)">
            <rect id="Rectángulo_5044" data-name="Rectángulo 5044" width="9.206" height="18.697" fill="#f18d3d"/>
            <rect id="Rectángulo_5045" data-name="Rectángulo 5045" width="9.206" height="15.567" transform="translate(0 3.13)" fill="#ee7e40"/>
            <rect id="Rectángulo_5046" data-name="Rectángulo 5046" width="9.206" height="13.66" transform="translate(0 5.037)" fill="#f2bcc2"/>
            <rect id="Rectángulo_5047" data-name="Rectángulo 5047" width="9.206" height="13.66" transform="translate(0 5.037)" fill="#f2b2a5"/>
            <rect id="Rectángulo_5048" data-name="Rectángulo 5048" width="9.206" height="15.018" transform="translate(0 3.679)" fill="#f39a4c"/>
          </g>
          <g id="Grupo_53275" data-name="Grupo 53275" transform="translate(52.618 19.168)">
            <path id="Trazado_99176" data-name="Trazado 99176" d="M1000.857,707.037H980.285a2.887,2.887,0,0,0-2.879,2.879v18.271h23.451Z" transform="translate(-977.406 -707.037)" fill="#f9b532" fill-rule="evenodd"/>
            <path id="Trazado_99177" data-name="Trazado 99177" d="M1001.69,711.8H982.717a2.888,2.888,0,0,0-2.879,2.879v15.14h21.852Z" transform="translate(-978.239 -708.666)" fill="#f59f3a" fill-rule="evenodd"/>
            <path id="Trazado_99178" data-name="Trazado 99178" d="M981.7,730.808V717.042a2.353,2.353,0,0,1,2.346-2.346h18.28v16.112Z" transform="translate(-978.877 -709.659)" fill="#fff" fill-rule="evenodd"/>
            <path id="Trazado_99179" data-name="Trazado 99179" d="M983.878,730.808l3.663-14.592a3.689,3.689,0,0,1,.818-1.52h14.714v16.112Z" transform="translate(-979.621 -709.659)" fill="#fff2d1" fill-rule="evenodd"/>
            <path id="Trazado_99180" data-name="Trazado 99180" d="M1004.1,712.63h-9.961a3.954,3.954,0,0,0-3.6,2.879L986.873,730.1H1004.1Z" transform="translate(-980.647 -708.951)" fill="#fcc749" fill-rule="evenodd"/>
          </g>
          <g id="Grupo_53276" data-name="Grupo 53276" transform="translate(66.863 19.168)">
            <rect id="Rectángulo_5049" data-name="Rectángulo 5049" width="9.206" height="18.697" fill="#f18d3d"/>
            <rect id="Rectángulo_5050" data-name="Rectángulo 5050" width="9.206" height="15.567" transform="translate(0 3.13)" fill="#ee7e40"/>
            <rect id="Rectángulo_5051" data-name="Rectángulo 5051" width="9.206" height="13.66" transform="translate(0 5.037)" fill="#f2bcc2"/>
            <rect id="Rectángulo_5052" data-name="Rectángulo 5052" width="9.206" height="13.66" transform="translate(0 5.037)" fill="#f2b2a5"/>
            <rect id="Rectángulo_5053" data-name="Rectángulo 5053" width="9.206" height="15.018" transform="translate(0 3.679)" fill="#f39a4c"/>
          </g>
          <g id="Grupo_53277" data-name="Grupo 53277" transform="translate(69.826 17.036)">
            <path id="Trazado_99181" data-name="Trazado 99181" d="M1006.448,738.076h34.762a2.888,2.888,0,0,0,2.879-2.879V708.806a2.887,2.887,0,0,0-2.879-2.879H1039.8v-1.34a.8.8,0,0,0-.792-.792h-10.5a.8.8,0,0,0-.792.792v1.34h-21.262a2.888,2.888,0,0,0-2.879,2.879V735.2A2.888,2.888,0,0,0,1006.448,738.076Z" transform="translate(-1003.569 -703.794)" fill="#f9b532" fill-rule="evenodd"/>
            <path id="Trazado_99182" data-name="Trazado 99182" d="M1007.281,739.706h34.762a2.888,2.888,0,0,0,2.879-2.879V710.988a2.854,2.854,0,0,0-1.279-.3h-1.413v-1.34a.8.8,0,0,0-.792-.792h-10.5a.8.8,0,0,0-.792.792v1.34H1008.88a2.888,2.888,0,0,0-2.879,2.879V739.4A2.851,2.851,0,0,0,1007.281,739.706Z" transform="translate(-1004.401 -705.423)" fill="#f59f3a" fill-rule="evenodd"/>
            <rect id="Rectángulo_5054" data-name="Rectángulo 5054" width="26.658" height="27.112" rx="3.567" transform="translate(2.826 7.17)" fill="#fff"/>
            <path id="Trazado_99183" data-name="Trazado 99183" d="M1032.178,741.808h-21.966a2.353,2.353,0,0,1-2.346-2.346V736.51l5.093-20.294a3.685,3.685,0,0,1,.819-1.52h18.4a2.354,2.354,0,0,1,2.346,2.346v22.42A2.353,2.353,0,0,1,1032.178,741.808Z" transform="translate(-1005.04 -707.526)" fill="#fff2d1" fill-rule="evenodd"/>
            <path id="Trazado_99184" data-name="Trazado 99184" d="M1012.047,739.812h32.1a3.955,3.955,0,0,0,3.6-2.879l5.7-22.713a2.177,2.177,0,0,0-2.157-2.879H1049.6l.359-1.426a.8.8,0,0,0-.788-1.051h-11.715a1.445,1.445,0,0,0-1.315,1.051l-.357,1.426h-16.592a3.955,3.955,0,0,0-3.6,2.879l-5.7,22.713A2.177,2.177,0,0,0,1012.047,739.812Z" transform="translate(-1005.702 -705.529)" fill="#fcc749" fill-rule="evenodd"/>
            <path id="Trazado_99185" data-name="Trazado 99185" d="M1046.223,715.474l-4.555,18.152a3.956,3.956,0,0,1-3.6,2.879H1010l-.107.426a2.177,2.177,0,0,0,2.157,2.879h32.1a3.955,3.955,0,0,0,3.6-2.879l5.7-22.713a2.176,2.176,0,0,0-2.157-2.879H1049.6l.359-1.426a.8.8,0,0,0-.788-1.051h-2.153a2.368,2.368,0,0,1,.349,2.05Z" transform="translate(-1005.702 -705.529)" fill="#f9b532" fill-rule="evenodd"/>
          </g>
          <rect id="Rectángulo_5055" data-name="Rectángulo 5055" width="59.044" height="24.974" transform="translate(66.718 29.82)" fill="#e6e6e6"/>
          <g id="Grupo_53278" data-name="Grupo 53278" transform="translate(27.141 54.793)">
            <path id="Trazado_99186" data-name="Trazado 99186" d="M971.1,761.2h15.483a1.224,1.224,0,0,1,1.313,1.1h0a1.223,1.223,0,0,1-1.313,1.1H971.1a1.223,1.223,0,0,1-1.313-1.1h0A1.224,1.224,0,0,1,971.1,761.2Z" transform="translate(-949.321 -761.203)" fill="#1a212a" fill-rule="evenodd"/>
            <path id="Trazado_99187" data-name="Trazado 99187" d="M939.8,761.2h56.789a1.051,1.051,0,0,1,1.128.943v.156H938.668v-.156A1.051,1.051,0,0,1,939.8,761.2Z" transform="translate(-938.668 -761.203)" fill="#1a212a" fill-rule="evenodd"/>
          </g>
          <path id="Trazado_99188" data-name="Trazado 99188" d="M999.972,721.562h56.789a1.051,1.051,0,0,1,1.127.943v.156h-20.467a1.225,1.225,0,0,1-1.314,1.1h-15.483a1.224,1.224,0,0,1-1.313-1.1H998.844V722.5A1.051,1.051,0,0,1,999.972,721.562Z" transform="translate(-932.126 -692.84)" fill="#1a212a" fill-rule="evenodd"/>
          <path id="Trazado_99189" data-name="Trazado 99189" d="M978.245,748.206V723.232H938.668v25.917a1.051,1.051,0,0,1,1.128-.943h38.449Z" transform="translate(-911.527 -693.412)" fill="#d3ebfa" fill-rule="evenodd"/>
        </g>
        <path id="Trazado_99199" data-name="Trazado 99199" d="M1071.038,700.378c-.362.266-.558.441-.558.441s-3.171-.288-4.131.817-3.075,3.8-3.987,4.228.1,1.2,2.017.529a18.372,18.372,0,0,0,4.084-2.306,5.313,5.313,0,0,0,3.554-.464,15.208,15.208,0,0,1-.973-3.039A.853.853,0,0,1,1071.038,700.378Z" transform="translate(-904.131 -623.662)" fill="#f2bbc9" fill-rule="evenodd"/>
      </g>
      <g id="Grupo_84670" data-name="Grupo 84670" transform="translate(1029.596 1583.657)">
        <g id="Grupo_79085" data-name="Grupo 79085" transform="translate(0 0)">
          <rect id="Rectángulo_30234" data-name="Rectángulo 30234" width="96.697" height="93.101" rx="8.41" fill="#e6e6e6"/>
        </g>
        <g id="Grupo_79114" data-name="Grupo 79114" transform="translate(6.758 9.835)">
          <g id="Grupo_79108" data-name="Grupo 79108">
            <g id="Grupo_79086" data-name="Grupo 79086" transform="translate(0 53.945)">
              <rect id="Rectángulo_30235" data-name="Rectángulo 30235" width="3.173" height="0.914" fill="#263238"/>
            </g>
            <g id="Grupo_79087" data-name="Grupo 79087" transform="translate(7.179 58.834)">
              <rect id="Rectángulo_30236" data-name="Rectángulo 30236" width="4.058" height="0.915" fill="#263238"/>
            </g>
            <g id="Grupo_79088" data-name="Grupo 79088" transform="translate(21.308 58.834)">
              <rect id="Rectángulo_30237" data-name="Rectángulo 30237" width="4.058" height="0.915" fill="#263238"/>
            </g>
            <g id="Grupo_79089" data-name="Grupo 79089" transform="translate(35.436 58.834)">
              <rect id="Rectángulo_30238" data-name="Rectángulo 30238" width="4.058" height="0.915" fill="#263238"/>
            </g>
            <g id="Grupo_79090" data-name="Grupo 79090" transform="translate(49.564 58.834)">
              <rect id="Rectángulo_30239" data-name="Rectángulo 30239" width="4.058" height="0.915" fill="#263238"/>
            </g>
            <g id="Grupo_79091" data-name="Grupo 79091" transform="translate(63.692 58.834)">
              <rect id="Rectángulo_30240" data-name="Rectángulo 30240" width="4.058" height="0.915" fill="#263238"/>
            </g>
            <g id="Grupo_79092" data-name="Grupo 79092" transform="translate(77.82 58.834)">
              <rect id="Rectángulo_30241" data-name="Rectángulo 30241" width="4.058" height="0.915" fill="#263238"/>
            </g>
            <g id="Grupo_79093" data-name="Grupo 79093" transform="translate(0 41.731)">
              <rect id="Rectángulo_30242" data-name="Rectángulo 30242" width="3.173" height="0.915" fill="#263238"/>
            </g>
            <g id="Grupo_79094" data-name="Grupo 79094" transform="translate(0 18.742)">
              <rect id="Rectángulo_30243" data-name="Rectángulo 30243" width="3.173" height="0.915" fill="#263238"/>
            </g>
            <g id="Grupo_79095" data-name="Grupo 79095" transform="translate(0 7.19)">
              <rect id="Rectángulo_30244" data-name="Rectángulo 30244" width="3.173" height="0.914" fill="#263238"/>
            </g>
            <g id="Grupo_79096" data-name="Grupo 79096" transform="translate(0.161 30.237)">
              <rect id="Rectángulo_30245" data-name="Rectángulo 30245" width="3.174" height="0.914" fill="#263238"/>
            </g>
            <g id="Grupo_79098" data-name="Grupo 79098" transform="translate(4.68)">
              <g id="Grupo_79097" data-name="Grupo 79097">
                <path id="Trazado_138854" data-name="Trazado 138854" d="M446.168,321.588s-.116.01-.34.016l-1,.015-3.84.028-14.122.048-46.593.044-11.041,0h-.148v-.148c.02-15.58.038-29.29.051-39.119.019-4.9.034-8.833.044-11.552.011-1.345.02-2.389.026-3.11.006-.346.01-.613.013-.805s.014-.273.014-.273.009.092.014.273.008.459.013.805c.006.72.014,1.765.025,3.11.011,2.719.026,6.651.045,11.552.013,9.828.031,23.539.051,39.119l-.148-.148,11.041,0,46.593.044,14.122.048,3.84.028,1,.014C446.053,321.578,446.168,321.588,446.168,321.588Z" transform="translate(-369.084 -266.729)" fill="#263238"/>
              </g>
            </g>
            <g id="Grupo_79100" data-name="Grupo 79100" transform="translate(7.899 30.543)">
              <g id="Grupo_79099" data-name="Grupo 79099">
                <path id="Trazado_138855" data-name="Trazado 138855" d="M449.415,319.753c0,.083-16.737.151-37.378.151s-37.382-.068-37.382-.151,16.733-.15,37.382-.15S449.415,319.67,449.415,319.753Z" transform="translate(-374.655 -319.603)" fill="#263238"/>
              </g>
            </g>
            <g id="Grupo_79102" data-name="Grupo 79102" transform="translate(7.899 19.049)">
              <g id="Grupo_79101" data-name="Grupo 79101">
                <path id="Trazado_138856" data-name="Trazado 138856" d="M449.415,299.856c0,.083-16.737.15-37.378.15s-37.382-.067-37.382-.15,16.733-.151,37.382-.151S449.415,299.773,449.415,299.856Z" transform="translate(-374.655 -299.705)" fill="#263238"/>
              </g>
            </g>
            <g id="Grupo_79104" data-name="Grupo 79104" transform="translate(7.899 7.497)">
              <g id="Grupo_79103" data-name="Grupo 79103">
                <path id="Trazado_138857" data-name="Trazado 138857" d="M449.415,279.857c0,.083-16.737.151-37.378.151s-37.382-.068-37.382-.151,16.733-.15,37.382-.15S449.415,279.775,449.415,279.857Z" transform="translate(-374.655 -279.707)" fill="#263238"/>
              </g>
            </g>
            <g id="Grupo_79106" data-name="Grupo 79106" transform="translate(7.899 42.037)">
              <g id="Grupo_79105" data-name="Grupo 79105">
                <path id="Trazado_138858" data-name="Trazado 138858" d="M449.415,339.651c0,.083-16.737.15-37.378.15s-37.382-.068-37.382-.15,16.733-.151,37.382-.151S449.415,339.568,449.415,339.651Z" transform="translate(-374.655 -339.5)" fill="#263238"/>
              </g>
            </g>
            <g id="Grupo_79107" data-name="Grupo 79107" transform="translate(8.669 0.847)">
              <path id="Trazado_138859" data-name="Trazado 138859" d="M375.989,319.734v-10.2l6.356-9.868,4.313,3.309,8.853-13.752,5.221,3.677L408,280.217l5.9,4.808,8.853-16.829,9.534,18.809L440,277.594l9.08-2.6v44.738Z" transform="translate(-375.989 -268.196)" fill="#ff8578"/>
            </g>
          </g>
          <g id="Grupo_79110" data-name="Grupo 79110" transform="translate(8.669 3.943)">
            <g id="Grupo_79109" data-name="Grupo 79109">
              <path id="Trazado_138860" data-name="Trazado 138860" d="M449.978,273.638a.79.79,0,0,1-.16.012l-.473.012-1.843.021-6.968.039.066-.032-7.466,9.759-.036.046h-.059l-18.694.026.124-.07-7.86,13.084c-2.677,4.45-5.269,8.757-7.716,12.825l-.113.188-.128-.177-10.126-13.924.2-.006-9.237,14.392-2.576,3.978-.683,1.039c-.156.233-.244.348-.244.348s.067-.128.213-.369l.653-1.058,2.52-4.014,9.149-14.449.1-.152.106.146,10.162,13.9-.241.01,7.707-12.831,7.869-13.078.043-.07h.081l18.694.026-.094.046,7.522-9.716.026-.033h.04l6.968.039,1.843.021.473.011A.916.916,0,0,1,449.978,273.638Z" transform="translate(-375.989 -273.554)" fill="#263238"/>
            </g>
          </g>
          <g id="Grupo_79111" data-name="Grupo 79111" transform="translate(22.937 28.341)">
            <path id="Trazado_138861" data-name="Trazado 138861" d="M402.123,316.48a.718.718,0,1,1-.717-.69A.7.7,0,0,1,402.123,316.48Z" transform="translate(-400.689 -315.79)" fill="#263238"/>
          </g>
          <g id="Grupo_79112" data-name="Grupo 79112" transform="translate(44.5 16.085)">
            <path id="Trazado_138862" data-name="Trazado 138862" d="M439.45,295.264a.718.718,0,1,1-.718-.69A.7.7,0,0,1,439.45,295.264Z" transform="translate(-438.016 -294.574)" fill="#263238"/>
          </g>
          <g id="Grupo_79113" data-name="Grupo 79113" transform="translate(61.262 13.074)">
            <path id="Trazado_138863" data-name="Trazado 138863" d="M468.468,290.052a.718.718,0,1,1-.717-.691A.7.7,0,0,1,468.468,290.052Z" transform="translate(-467.034 -289.361)" fill="#263238"/>
          </g>
        </g>
        <g id="Grupo_79115" data-name="Grupo 79115" transform="translate(13.937 76.423)">
          <ellipse id="Elipse_4180" data-name="Elipse 4180" cx="4.638" cy="4.465" rx="4.638" ry="4.465" fill="#fff"/>
        </g>
        <g id="Grupo_79116" data-name="Grupo 79116" transform="translate(30.094 77.898)">
          <rect id="Rectángulo_30246" data-name="Rectángulo 30246" width="54.483" height="1.671" fill="#fff"/>
        </g>
        <g id="Grupo_79117" data-name="Grupo 79117" transform="translate(30.094 82.071)">
          <rect id="Rectángulo_30247" data-name="Rectángulo 30247" width="22.622" height="1.671" fill="#fff"/>
        </g>
      </g>
      <path id="Trazado_142639" data-name="Trazado 142639" d="M937.448,587.326h47.426a6.281,6.281,0,0,1,6.263,6.263v44.182a.7.7,0,0,1-1.193.495l-10.673-10.673H937.448a6.282,6.282,0,0,1-6.264-6.263v-27.74A6.282,6.282,0,0,1,937.448,587.326Z" transform="translate(188.303 950.52)" fill="#d3ebfa" fill-rule="evenodd"/>
      <g id="Grupo_89125" data-name="Grupo 89125" transform="translate(1122.657 1535.431)">
        <path id="Trazado_99090" data-name="Trazado 99090" d="M942.267,583.653h47.427a6.281,6.281,0,0,1,6.263,6.264V634.1a.7.7,0,0,1-1.194.495L984.09,623.92H942.267A6.282,6.282,0,0,1,936,617.657v-27.74A6.282,6.282,0,0,1,942.267,583.653Z" transform="translate(-936.004 -583.653)" fill="#f2e9e4" fill-rule="evenodd"/>
        <g id="Grupo_53266" data-name="Grupo 53266" transform="translate(9.221 5.129)">
          <path id="Trazado_99091" data-name="Trazado 99091" d="M952.062,620.218h24.6a2.044,2.044,0,0,0,2.038-2.038V599.5a2.044,2.044,0,0,0-2.038-2.038h-1v-.948a.562.562,0,0,0-.561-.561h-7.433a.563.563,0,0,0-.561.561v.948H952.062a2.044,2.044,0,0,0-2.038,2.038V618.18A2.044,2.044,0,0,0,952.062,620.218Z" transform="translate(-950.024 -592.993)" fill="#e3b956" fill-rule="evenodd"/>
          <path id="Rectángulo_5025" data-name="Rectángulo 5025" d="M2.525,0H16.343a2.525,2.525,0,0,1,2.525,2.525v14.14a2.524,2.524,0,0,1-2.524,2.524H2.524A2.524,2.524,0,0,1,0,16.664V2.525A2.525,2.525,0,0,1,2.525,0Z" transform="translate(2 8.037)" fill="#fff"/>
          <path id="Trazado_99092" data-name="Trazado 99092" d="M956.164,621.446H978.88a3.59,3.59,0,0,0,2.945-2.038l7.161-16.075c.5-1.121-.01-2.038-1.131-2.038h-1.194l.449-1.009c.183-.409,0-.744-.412-.744h-8.291a1.311,1.311,0,0,0-1.075.744l-.449,1.009H965.14a3.59,3.59,0,0,0-2.946,2.038l-7.16,16.075C954.535,620.529,955.043,621.446,956.164,621.446Z" transform="translate(-951.673 -594.221)" fill-rule="evenodd" fill="url(#linear-gradient)"/>
          <g id="Grupo_53265" data-name="Grupo 53265" transform="translate(13.696 9.539)">
            <g id="Grupo_53264" data-name="Grupo 53264">
              <path id="Trazado_99093" data-name="Trazado 99093" d="M973.167,608.273a7.914,7.914,0,1,1-2.318,5.6,7.89,7.89,0,0,1,2.318-5.6Zm5.6-1.184a6.779,6.779,0,1,0,4.795,1.986A6.759,6.759,0,0,0,978.762,607.088Z" transform="translate(-970.849 -605.955)" fill="#344154" fill-rule="evenodd"/>
              <path id="Trazado_99094" data-name="Trazado 99094" d="M990.085,625.992a.566.566,0,0,1,.8-.8l1.873,1.872a.567.567,0,1,1-.8.8Z" transform="translate(-977.377 -612.483)" fill="#344154" fill-rule="evenodd"/>
              <path id="Trazado_99095" data-name="Trazado 99095" d="M992.962,629.671a1.134,1.134,0,0,1,1.6-1.6l6.036,6.037a1.133,1.133,0,0,1-1.6,1.6Z" transform="translate(-978.305 -613.411)" fill="#344154" fill-rule="evenodd"/>
            </g>
            <path id="Trazado_99096" data-name="Trazado 99096" d="M983.523,611.708a.374.374,0,0,1,.529-.529,6.262,6.262,0,0,1,1.837,4.44h0a6.3,6.3,0,0,1-.245,1.739.375.375,0,0,1-.72-.205,5.515,5.515,0,0,0,.216-1.534h0a5.508,5.508,0,0,0-1.621-3.911Zm.745,6.9a.373.373,0,1,1,.628.4,6.1,6.1,0,0,1-.393.545,6.255,6.255,0,0,1-.45.5.374.374,0,0,1-.529-.529,5.524,5.524,0,0,0,.4-.441,5.414,5.414,0,0,0,.347-.481Zm-8.566.922a.374.374,0,1,1-.529.529,6.271,6.271,0,0,1-1.839-4.439,6.3,6.3,0,0,1,.42-2.258.373.373,0,0,1,.7.266,5.521,5.521,0,0,0,1.252,5.9Zm-.58-7.143a.373.373,0,1,1-.6-.435c.1-.139.2-.272.312-.4l.018-.02c.113-.132.222-.25.326-.354a.374.374,0,0,1,.529.529q-.166.166-.289.308l-.017.02C975.3,612.154,975.206,612.271,975.122,612.387Z" transform="translate(-971.699 -607.706)" fill="#fff" fill-rule="evenodd"/>
          </g>
          <path id="Trazado_99097" data-name="Trazado 99097" d="M989.01,591.451H1006.9a.416.416,0,0,1,.415.415h0a.416.416,0,0,1-.415.415H989.01a.416.416,0,0,1-.415-.415h0A.416.416,0,0,1,989.01,591.451Z" transform="translate(-963.227 -591.451)" fill="#efeef8" fill-rule="evenodd"/>
          <path id="Trazado_99098" data-name="Trazado 99098" d="M989.01,595.41H1006.9a.416.416,0,0,1,.415.415h0a.416.416,0,0,1-.415.415H989.01a.416.416,0,0,1-.415-.415h0A.416.416,0,0,1,989.01,595.41Z" transform="translate(-963.227 -592.806)" fill="#efeef8" fill-rule="evenodd"/>
          <path id="Trazado_99099" data-name="Trazado 99099" d="M1011.071,599.77h3.377a.416.416,0,0,1,.415.415h0a.416.416,0,0,1-.415.415h-3.377a.416.416,0,0,1-.415-.415h0A.416.416,0,0,1,1011.071,599.77Z" transform="translate(-970.779 -594.299)" fill="#efeef8" fill-rule="evenodd"/>
          <path id="Trazado_99100" data-name="Trazado 99100" d="M1011.071,604.245h3.377a.416.416,0,0,1,.415.415h0a.416.416,0,0,1-.415.415h-3.377a.416.416,0,0,1-.415-.415h0A.416.416,0,0,1,1011.071,604.245Z" transform="translate(-970.779 -595.83)" fill="#efeef8" fill-rule="evenodd"/>
          <path id="Trazado_99101" data-name="Trazado 99101" d="M1011.071,608.72h3.377a.417.417,0,0,1,.415.415h0a.416.416,0,0,1-.415.415h-3.377a.416.416,0,0,1-.415-.415h0A.417.417,0,0,1,1011.071,608.72Z" transform="translate(-970.779 -597.362)" fill="#efeef8" fill-rule="evenodd"/>
          <path id="Trazado_99102" data-name="Trazado 99102" d="M1011.071,613.2h3.377a.417.417,0,0,1,.415.416h0a.416.416,0,0,1-.415.414h-3.377a.416.416,0,0,1-.415-.414h0A.417.417,0,0,1,1011.071,613.2Z" transform="translate(-970.779 -598.894)" fill="#efeef8" fill-rule="evenodd"/>
          <path id="Trazado_99103" data-name="Trazado 99103" d="M1011.071,617.671h3.377a.416.416,0,0,1,.415.415h0a.416.416,0,0,1-.415.414h-3.377a.416.416,0,0,1-.415-.414h0A.416.416,0,0,1,1011.071,617.671Z" transform="translate(-970.779 -600.426)" fill="#efeef8" fill-rule="evenodd"/>
          <path id="Trazado_99104" data-name="Trazado 99104" d="M1011.071,622.146h3.377a.416.416,0,0,1,.415.415h0a.416.416,0,0,1-.415.415h-3.377a.416.416,0,0,1-.415-.415h0A.416.416,0,0,1,1011.071,622.146Z" transform="translate(-970.779 -601.958)" fill="#efeef8" fill-rule="evenodd"/>
          <rect id="Rectángulo_5026" data-name="Rectángulo 5026" width="9.396" height="0.83" rx="0.415" transform="translate(34.688 23.131)" fill="#efeef8"/>
          <path id="Trazado_99105" data-name="Trazado 99105" d="M1004.472,622.146H1007a.416.416,0,0,1,.416.415h0a.416.416,0,0,1-.416.415h-2.528a.416.416,0,0,1-.415-.415h0A.416.416,0,0,1,1004.472,622.146Z" transform="translate(-968.52 -601.958)" fill="#efeef8" fill-rule="evenodd"/>
          <path id="Trazado_99106" data-name="Trazado 99106" d="M1006.194,617.671h1.274a.416.416,0,0,1,.415.415h0a.416.416,0,0,1-.415.414h-1.274a.416.416,0,0,1-.415-.414h0A.416.416,0,0,1,1006.194,617.671Z" transform="translate(-969.109 -600.426)" fill="#efeef8" fill-rule="evenodd"/>
          <path id="Trazado_99107" data-name="Trazado 99107" d="M1007.544,613.2h.932a.417.417,0,0,1,.416.416h0a.416.416,0,0,1-.416.414h-.932a.415.415,0,0,1-.415-.414h0A.416.416,0,0,1,1007.544,613.2Z" transform="translate(-969.572 -598.894)" fill="#efeef8" fill-rule="evenodd"/>
        </g>
      </g>
      <g id="Grupo_169173" data-name="Grupo 169173" transform="translate(1043.096 1535.431)">
        <g id="Grupo_169152" data-name="Grupo 169152" transform="translate(0 3.236)">
          <g id="Grupo_169127" data-name="Grupo 169127" transform="translate(0 0.11)">
            <g id="Grupo_169126" data-name="Grupo 169126">
              <path id="Trazado_204569" data-name="Trazado 204569" d="M2294.922,568.07v.528a3.61,3.61,0,0,0-.63.481,3.208,3.208,0,0,0-.482.616,3.723,3.723,0,0,0-.6,1.976,3.625,3.625,0,0,0,.22,1.227,3.94,3.94,0,0,0,.618,1.121,3.266,3.266,0,0,0,.871.745v.544a2.935,2.935,0,0,1-.853-.471,3.785,3.785,0,0,1-.715-.794,4.035,4.035,0,0,1-.439-3.935,4.2,4.2,0,0,1,.886-1.342,2.634,2.634,0,0,1,.5-.415A3.135,3.135,0,0,1,2294.922,568.07Z" transform="translate(-2292.594 -568.07)" fill="#3c251d"/>
            </g>
          </g>
          <g id="Grupo_169129" data-name="Grupo 169129" transform="translate(2.962 1.608)">
            <g id="Grupo_169128" data-name="Grupo 169128">
              <path id="Trazado_204570" data-name="Trazado 204570" d="M2314.185,576.646v4.581h-.622v-.806a2.34,2.34,0,0,1-.771.7,2.11,2.11,0,0,1-.988.212,2.58,2.58,0,0,1-1.262-.309,2.264,2.264,0,0,1-.882-.855,2.386,2.386,0,0,1-.319-1.225,2.441,2.441,0,0,1,.315-1.231,2.282,2.282,0,0,1,.867-.867,2.441,2.441,0,0,1,1.231-.315,2.258,2.258,0,0,1,1.033.219,2.173,2.173,0,0,1,.775.7v-.81Zm-2.438.458a1.691,1.691,0,0,0-1.256.532,1.864,1.864,0,0,0,.012,2.6,1.756,1.756,0,0,0,1.293.534,1.675,1.675,0,0,0,1.258-.53,1.817,1.817,0,0,0,.51-1.311,1.775,1.775,0,0,0-1.816-1.82Z" transform="translate(-2309.342 -576.536)" fill="#3c251d"/>
            </g>
          </g>
          <g id="Grupo_169131" data-name="Grupo 169131" transform="translate(8.754 1.632)">
            <g id="Grupo_169130" data-name="Grupo 169130">
              <path id="Trazado_204571" data-name="Trazado 204571" d="M2343.891,578.487v-1.812h.642v1.812h1.788v.618h-1.788v1.829h-.642V579.1h-1.8v-.618Z" transform="translate(-2342.095 -576.675)" fill="#3c251d"/>
            </g>
          </g>
          <g id="Grupo_169133" data-name="Grupo 169133" transform="translate(13.933 0.11)">
            <g id="Grupo_169132" data-name="Grupo 169132">
              <path id="Trazado_204572" data-name="Trazado 204572" d="M2371.38,574.259V568.07H2372v2.393a1.96,1.96,0,0,1,.759-.665,2.3,2.3,0,0,1,1.041-.231,2.443,2.443,0,0,1,.947.186,2.305,2.305,0,0,1,1.278,1.268,2.4,2.4,0,0,1,.188.943,2.428,2.428,0,0,1-.315,1.229,2.27,2.27,0,0,1-.869.863,2.469,2.469,0,0,1-1.237.313,2.253,2.253,0,0,1-1.033-.237,2,2,0,0,1-.759-.663v.789Zm2.381-4.123a1.726,1.726,0,0,0-1.282.532,1.793,1.793,0,0,0-.521,1.3,1.812,1.812,0,0,0,1.82,1.825,1.739,1.739,0,0,0,1.291-.526,1.8,1.8,0,0,0,.517-1.315,1.763,1.763,0,0,0-1.824-1.82Z" transform="translate(-2371.38 -568.07)" fill="#3c251d"/>
            </g>
          </g>
          <g id="Grupo_169135" data-name="Grupo 169135" transform="translate(19.402 0.11)">
            <g id="Grupo_169134" data-name="Grupo 169134">
              <path id="Trazado_204573" data-name="Trazado 204573" d="M2402.307,575.306v-.536a3.274,3.274,0,0,0,.63-.474,3.232,3.232,0,0,0,.483-.622,3.736,3.736,0,0,0,.593-1.98,3.644,3.644,0,0,0-.219-1.223,3.777,3.777,0,0,0-.615-1.112,3.263,3.263,0,0,0-.871-.745v-.544a2.925,2.925,0,0,1,.855.469,3.808,3.808,0,0,1,.712.787,4.039,4.039,0,0,1,.44,3.939,4.173,4.173,0,0,1-.885,1.346,2.673,2.673,0,0,1-1.121.7Z" transform="translate(-2402.307 -568.07)" fill="#3c251d"/>
            </g>
          </g>
          <g id="Grupo_169137" data-name="Grupo 169137" transform="translate(22.63 2.647)">
            <g id="Grupo_169136" data-name="Grupo 169136">
              <path id="Trazado_204574" data-name="Trazado 204574" d="M2424.783,582.412v.622h-4.225v-.622Zm0,1.661v.618h-4.225v-.618Z" transform="translate(-2420.558 -582.412)" fill="#3c251d"/>
            </g>
          </g>
          <g id="Grupo_169139" data-name="Grupo 169139" transform="translate(29.952 1.608)">
            <g id="Grupo_169138" data-name="Grupo 169138">
              <path id="Trazado_204575" data-name="Trazado 204575" d="M2466.806,576.646v4.581h-.622v-.806a2.347,2.347,0,0,1-.771.7,2.111,2.111,0,0,1-.988.212,2.577,2.577,0,0,1-1.262-.309,2.261,2.261,0,0,1-.882-.855,2.382,2.382,0,0,1-.319-1.225,2.438,2.438,0,0,1,.315-1.231,2.285,2.285,0,0,1,.867-.867,2.443,2.443,0,0,1,1.231-.315,2.257,2.257,0,0,1,1.032.219,2.173,2.173,0,0,1,.776.7v-.81Zm-2.438.458a1.692,1.692,0,0,0-1.256.532,1.865,1.865,0,0,0,.012,2.6,1.756,1.756,0,0,0,1.293.534,1.674,1.674,0,0,0,1.258-.53,1.818,1.818,0,0,0,.51-1.311,1.776,1.776,0,0,0-1.816-1.82Z" transform="translate(-2461.963 -576.536)" fill="#3c251d"/>
            </g>
          </g>
          <g id="Grupo_169141" data-name="Grupo 169141" transform="translate(35.744 1.632)">
            <g id="Grupo_169140" data-name="Grupo 169140">
              <path id="Trazado_204576" data-name="Trazado 204576" d="M2496.513,578.487v-1.812h.642v1.812h1.788v.618h-1.788v1.829h-.642V579.1h-1.8v-.618Z" transform="translate(-2494.717 -576.675)" fill="#3c251d"/>
            </g>
          </g>
          <g id="Grupo_169143" data-name="Grupo 169143" transform="translate(40.674)">
            <g id="Grupo_169142" data-name="Grupo 169142">
              <path id="Trazado_204577" data-name="Trazado 204577" d="M2522.59,573.746v-.56l2.168-2.094q.4-.385.5-.483c.064-.065.144-.157.239-.274a1.58,1.58,0,0,0,.438-1.035,1.234,1.234,0,0,0-.378-.929,1.333,1.333,0,0,0-.964-.364,1.362,1.362,0,0,0-.726.194,1.2,1.2,0,0,0-.472.534,1.948,1.948,0,0,0-.143.822h-.61a3.673,3.673,0,0,1,.026-.505,2.062,2.062,0,0,1,.108-.4,1.819,1.819,0,0,1,.7-.886,1.982,1.982,0,0,1,1.127-.321,1.933,1.933,0,0,1,1.4.532,1.9,1.9,0,0,1,.311,2.268,5.18,5.18,0,0,1-.9,1.037l-1.988,1.9h3.092v.56Z" transform="translate(-2522.59 -567.446)" fill="#3c251d"/>
            </g>
          </g>
          <g id="Grupo_169145" data-name="Grupo 169145" transform="translate(45.386 1.608)">
            <g id="Grupo_169144" data-name="Grupo 169144">
              <path id="Trazado_204578" data-name="Trazado 204578" d="M2554.08,576.646v4.581h-.622v-.806a2.344,2.344,0,0,1-.771.7,2.112,2.112,0,0,1-.988.212,2.58,2.58,0,0,1-1.262-.309,2.258,2.258,0,0,1-.881-.855,2.38,2.38,0,0,1-.319-1.225,2.441,2.441,0,0,1,.315-1.231,2.281,2.281,0,0,1,.867-.867,2.441,2.441,0,0,1,1.231-.315,2.258,2.258,0,0,1,1.033.219,2.173,2.173,0,0,1,.775.7v-.81Zm-2.438.458a1.69,1.69,0,0,0-1.256.532,1.865,1.865,0,0,0,.012,2.6,1.755,1.755,0,0,0,1.292.534,1.676,1.676,0,0,0,1.258-.53,1.82,1.82,0,0,0,.509-1.311,1.776,1.776,0,0,0-1.816-1.82Z" transform="translate(-2549.237 -576.536)" fill="#3c251d"/>
            </g>
          </g>
          <g id="Grupo_169147" data-name="Grupo 169147" transform="translate(51.281 0.11)">
            <g id="Grupo_169146" data-name="Grupo 169146">
              <path id="Trazado_204579" data-name="Trazado 204579" d="M2582.57,574.259V568.07h.622v2.393a1.957,1.957,0,0,1,.759-.665,2.3,2.3,0,0,1,1.041-.231,2.444,2.444,0,0,1,.947.186,2.308,2.308,0,0,1,1.279,1.268,2.4,2.4,0,0,1,.188.943,2.433,2.433,0,0,1-.315,1.229,2.274,2.274,0,0,1-.869.863,2.471,2.471,0,0,1-1.238.313,2.25,2.25,0,0,1-1.033-.237,1.994,1.994,0,0,1-.759-.663v.789Zm2.381-4.123a1.725,1.725,0,0,0-1.282.532,1.79,1.79,0,0,0-.522,1.3,1.812,1.812,0,0,0,1.82,1.825,1.738,1.738,0,0,0,1.291-.526,1.8,1.8,0,0,0,.518-1.315,1.764,1.764,0,0,0-1.825-1.82Z" transform="translate(-2582.57 -568.07)" fill="#3c251d"/>
            </g>
          </g>
          <g id="Grupo_169149" data-name="Grupo 169149" transform="translate(56.889 1.632)">
            <g id="Grupo_169148" data-name="Grupo 169148">
              <path id="Trazado_204580" data-name="Trazado 204580" d="M2616.078,578.487v-1.812h.643v1.812h1.787v.618h-1.787v1.829h-.643V579.1h-1.8v-.618Z" transform="translate(-2614.282 -576.675)" fill="#3c251d"/>
            </g>
          </g>
          <g id="Grupo_169151" data-name="Grupo 169151" transform="translate(62.068 0.11)">
            <g id="Grupo_169150" data-name="Grupo 169150">
              <path id="Trazado_204581" data-name="Trazado 204581" d="M2643.566,574.259V568.07h.622v2.393a1.959,1.959,0,0,1,.759-.665,2.3,2.3,0,0,1,1.041-.231,2.444,2.444,0,0,1,.947.186,2.305,2.305,0,0,1,1.278,1.268,2.391,2.391,0,0,1,.188.943,2.428,2.428,0,0,1-.315,1.229,2.269,2.269,0,0,1-.869.863,2.473,2.473,0,0,1-1.238.313,2.253,2.253,0,0,1-1.033-.237,1.992,1.992,0,0,1-.759-.663v.789Zm2.381-4.123a1.726,1.726,0,0,0-1.282.532,1.792,1.792,0,0,0-.521,1.3,1.811,1.811,0,0,0,1.82,1.825,1.738,1.738,0,0,0,1.291-.526,1.8,1.8,0,0,0,.518-1.315,1.763,1.763,0,0,0-1.824-1.82Z" transform="translate(-2643.566 -568.07)" fill="#3c251d"/>
            </g>
          </g>
        </g>
        <g id="Grupo_169155" data-name="Grupo 169155" transform="translate(21.073 0)">
          <g id="Grupo_169154" data-name="Grupo 169154">
            <g id="Grupo_169153" data-name="Grupo 169153">
              <path id="Trazado_204582" data-name="Trazado 204582" d="M2411.756,552.367v-.286l1.108-1.07q.2-.2.254-.247c.033-.033.074-.08.123-.14a.812.812,0,0,0,.223-.529.63.63,0,0,0-.194-.474.679.679,0,0,0-.492-.186.7.7,0,0,0-.371.1.616.616,0,0,0-.241.273,1,1,0,0,0-.073.42h-.312a1.9,1.9,0,0,1,.014-.258,1.009,1.009,0,0,1,.055-.2.935.935,0,0,1,.357-.453,1.013,1.013,0,0,1,.575-.164.989.989,0,0,1,.715.271.974.974,0,0,1,.159,1.159,2.687,2.687,0,0,1-.459.53l-1.015.972h1.58v.286Z" transform="translate(-2411.756 -549.149)" fill="#3c251d"/>
            </g>
          </g>
        </g>
        <g id="Grupo_169158" data-name="Grupo 169158" transform="translate(35.56 0.349)">
          <g id="Grupo_169157" data-name="Grupo 169157">
            <g id="Grupo_169156" data-name="Grupo 169156">
              <path id="Trazado_204583" data-name="Trazado 204583" d="M2493.672,554.341v-.286l1.108-1.07q.2-.2.254-.247c.032-.033.073-.08.122-.14a.81.81,0,0,0,.224-.529.631.631,0,0,0-.194-.475.681.681,0,0,0-.492-.186.7.7,0,0,0-.371.1.613.613,0,0,0-.241.273,1,1,0,0,0-.073.42h-.312a1.9,1.9,0,0,1,.014-.258,1,1,0,0,1,.055-.2.937.937,0,0,1,.356-.453,1.016,1.016,0,0,1,.576-.164.989.989,0,0,1,.715.271.973.973,0,0,1,.159,1.159,2.687,2.687,0,0,1-.458.53l-1.016.972h1.58v.286Z" transform="translate(-2493.672 -551.123)" fill="#3c251d"/>
            </g>
          </g>
        </g>
        <g id="Grupo_169161" data-name="Grupo 169161" transform="translate(65.318 0.349)">
          <g id="Grupo_169160" data-name="Grupo 169160">
            <g id="Grupo_169159" data-name="Grupo 169159">
              <path id="Trazado_204584" data-name="Trazado 204584" d="M2661.945,554.341v-.286l1.108-1.07q.2-.2.254-.247c.033-.033.073-.08.123-.14a.812.812,0,0,0,.223-.529.631.631,0,0,0-.193-.475.681.681,0,0,0-.492-.186.7.7,0,0,0-.371.1.616.616,0,0,0-.241.273,1.013,1.013,0,0,0-.073.42h-.312a1.85,1.85,0,0,1,.014-.258.994.994,0,0,1,.055-.2.939.939,0,0,1,.356-.453,1.016,1.016,0,0,1,.576-.164.988.988,0,0,1,.715.271.973.973,0,0,1,.159,1.159,2.665,2.665,0,0,1-.458.53l-1.015.972h1.58v.286Z" transform="translate(-2661.945 -551.123)" fill="#3c251d"/>
            </g>
          </g>
        </g>
      </g>
      <g id="Grupo_169174" data-name="Grupo 169174" transform="translate(1188.725 1656.444)">
        <g id="Grupo_168802" data-name="Grupo 168802">
          <g id="Grupo_168801" data-name="Grupo 168801">
            <path id="Trazado_204455" data-name="Trazado 204455" d="M1979.465,901.331l-6.733-21.109H1970.4v-1.015h3.079l5.785,18.139,5.442-26.091h44.884v1.015h-44.059Z" transform="translate(-1970.395 -871.255)" fill="#636363"/>
          </g>
        </g>
        <g id="Grupo_168804" data-name="Grupo 168804" transform="translate(15.512 4.278)">
          <g id="Grupo_168803" data-name="Grupo 168803">
            <path id="Trazado_204456" data-name="Trazado 204456" d="M2060.983,895.444v.652a4.44,4.44,0,0,0-.778.594,3.958,3.958,0,0,0-.6.76,4.6,4.6,0,0,0-.738,2.44,4.471,4.471,0,0,0,.273,1.516,4.86,4.86,0,0,0,.762,1.384,4.042,4.042,0,0,0,1.076.919v.672a3.637,3.637,0,0,1-1.053-.581,4.681,4.681,0,0,1-.882-.98,4.981,4.981,0,0,1-.543-4.86,5.174,5.174,0,0,1,1.094-1.657,3.244,3.244,0,0,1,.621-.513A3.886,3.886,0,0,1,2060.983,895.444Z" transform="translate(-2058.109 -895.444)" fill="#636363"/>
          </g>
        </g>
        <g id="Grupo_168806" data-name="Grupo 168806" transform="translate(19.169 6.127)">
          <g id="Grupo_168805" data-name="Grupo 168805">
            <path id="Trazado_204457" data-name="Trazado 204457" d="M2084.771,906.035v5.658H2084v-1a2.892,2.892,0,0,1-.952.869,2.6,2.6,0,0,1-1.22.263,3.183,3.183,0,0,1-1.558-.381,2.794,2.794,0,0,1-1.089-1.056,2.943,2.943,0,0,1-.394-1.513,3.014,3.014,0,0,1,.389-1.521,2.821,2.821,0,0,1,1.071-1.071,3.014,3.014,0,0,1,1.52-.389,2.789,2.789,0,0,1,1.276.27,2.681,2.681,0,0,1,.958.866v-1Zm-3.01.566a2.09,2.09,0,0,0-1.551.657,2.3,2.3,0,0,0,.015,3.205,2.169,2.169,0,0,0,1.6.659,2.068,2.068,0,0,0,1.553-.654,2.245,2.245,0,0,0,.629-1.619,2.193,2.193,0,0,0-2.243-2.248Z" transform="translate(-2078.79 -905.899)" fill="#636363"/>
          </g>
        </g>
        <g id="Grupo_168808" data-name="Grupo 168808" transform="translate(26.322 6.157)">
          <g id="Grupo_168807" data-name="Grupo 168807">
            <path id="Trazado_204458" data-name="Trazado 204458" d="M2121.456,908.309v-2.238h.793v2.238h2.208v.763h-2.208v2.258h-.793v-2.258h-2.218v-.763Z" transform="translate(-2119.239 -906.071)" fill="#636363"/>
          </g>
        </g>
        <g id="Grupo_168810" data-name="Grupo 168810" transform="translate(32.718 4.278)">
          <g id="Grupo_168809" data-name="Grupo 168809">
            <path id="Trazado_204459" data-name="Trazado 204459" d="M2155.4,903.087v-7.643h.768V898.4a2.418,2.418,0,0,1,.937-.821,2.843,2.843,0,0,1,1.286-.285,3.018,3.018,0,0,1,1.169.23,2.849,2.849,0,0,1,1.579,1.566,2.958,2.958,0,0,1,.232,1.164,3,3,0,0,1-.389,1.518,2.8,2.8,0,0,1-1.073,1.066,3.057,3.057,0,0,1-1.528.386,2.779,2.779,0,0,1-1.275-.293,2.46,2.46,0,0,1-.937-.818v.975Zm2.94-5.092a2.132,2.132,0,0,0-1.584.657,2.214,2.214,0,0,0-.644,1.612,2.238,2.238,0,0,0,2.248,2.253,2.145,2.145,0,0,0,1.594-.649,2.222,2.222,0,0,0,.639-1.624,2.178,2.178,0,0,0-2.253-2.248Z" transform="translate(-2155.402 -895.444)" fill="#636363"/>
          </g>
        </g>
        <g id="Grupo_168812" data-name="Grupo 168812" transform="translate(39.472 4.278)">
          <g id="Grupo_168811" data-name="Grupo 168811">
            <path id="Trazado_204460" data-name="Trazado 204460" d="M2193.594,904.38v-.662a4.046,4.046,0,0,0,.778-.586,3.976,3.976,0,0,0,.6-.768,4.612,4.612,0,0,0,.733-2.445,4.5,4.5,0,0,0-.271-1.51,4.691,4.691,0,0,0-.76-1.374,4.029,4.029,0,0,0-1.076-.919v-.672a3.624,3.624,0,0,1,1.056.578,4.713,4.713,0,0,1,.879.973,4.993,4.993,0,0,1,.543,4.865,5.161,5.161,0,0,1-1.094,1.662,3.3,3.3,0,0,1-1.384.859Z" transform="translate(-2193.594 -895.444)" fill="#636363"/>
          </g>
        </g>
        <g id="Grupo_168815" data-name="Grupo 168815" transform="translate(44.118 3.38)">
          <g id="Grupo_168814" data-name="Grupo 168814">
            <g id="Grupo_168813" data-name="Grupo 168813">
              <path id="Trazado_204461" data-name="Trazado 204461" d="M2219.867,894.34v-.354l1.368-1.321c.168-.162.273-.264.313-.3s.091-.1.152-.173a1,1,0,0,0,.276-.653.779.779,0,0,0-.239-.586.841.841,0,0,0-.608-.23.861.861,0,0,0-.458.123.755.755,0,0,0-.3.337,1.239,1.239,0,0,0-.09.519h-.385a2.329,2.329,0,0,1,.017-.318,1.258,1.258,0,0,1,.068-.252,1.156,1.156,0,0,1,.44-.559,1.252,1.252,0,0,1,.711-.2,1.221,1.221,0,0,1,.883.335,1.2,1.2,0,0,1,.2,1.431,3.323,3.323,0,0,1-.566.654l-1.254,1.2h1.95v.354Z" transform="translate(-2219.867 -890.366)" fill="#636363"/>
            </g>
          </g>
        </g>
        <g id="Grupo_168818" data-name="Grupo 168818" transform="translate(32.859 18.421)">
          <g id="Grupo_168817" data-name="Grupo 168817">
            <g id="Grupo_168816" data-name="Grupo 168816">
              <path id="Trazado_204462" data-name="Trazado 204462" d="M2156.2,979.395v-.354l1.368-1.321c.168-.162.273-.264.313-.3s.091-.1.152-.173a1,1,0,0,0,.276-.653.78.78,0,0,0-.239-.586.841.841,0,0,0-.608-.23.864.864,0,0,0-.458.123.757.757,0,0,0-.3.337,1.239,1.239,0,0,0-.09.519h-.385a2.327,2.327,0,0,1,.017-.318,1.24,1.24,0,0,1,.068-.252,1.157,1.157,0,0,1,.44-.559,1.251,1.251,0,0,1,.71-.2,1.221,1.221,0,0,1,.884.335,1.2,1.2,0,0,1,.2,1.431,3.3,3.3,0,0,1-.565.654l-1.253,1.2h1.95v.354Z" transform="translate(-2156.204 -975.421)" fill="#636363"/>
            </g>
          </g>
        </g>
        <g id="Grupo_168821" data-name="Grupo 168821" transform="translate(44.839 17.881)">
          <g id="Grupo_168820" data-name="Grupo 168820">
            <g id="Grupo_168819" data-name="Grupo 168819">
              <path id="Trazado_204463" data-name="Trazado 204463" d="M2223.941,976.339v-.354l1.368-1.321c.168-.161.273-.264.313-.3s.091-.1.152-.173a1,1,0,0,0,.276-.653.779.779,0,0,0-.239-.586.84.84,0,0,0-.608-.23.86.86,0,0,0-.458.123.753.753,0,0,0-.3.337,1.234,1.234,0,0,0-.09.519h-.385a2.321,2.321,0,0,1,.017-.318,1.238,1.238,0,0,1,.068-.252,1.156,1.156,0,0,1,.44-.559,1.254,1.254,0,0,1,.711-.2,1.22,1.22,0,0,1,.883.335,1.2,1.2,0,0,1,.2,1.431,3.3,3.3,0,0,1-.566.654l-1.253,1.2h1.95v.354Z" transform="translate(-2223.941 -972.365)" fill="#636363"/>
            </g>
          </g>
        </g>
        <g id="Grupo_168823" data-name="Grupo 168823" transform="translate(46.85 8.196)">
          <g id="Grupo_168822" data-name="Grupo 168822">
            <path id="Trazado_204464" data-name="Trazado 204464" d="M2237.028,918.458a.856.856,0,1,0-.856.856A.856.856,0,0,0,2237.028,918.458Z" transform="translate(-2235.317 -917.602)" fill="#636363"/>
          </g>
        </g>
        <g id="Grupo_168825" data-name="Grupo 168825" transform="translate(50.91 4.388)">
          <g id="Grupo_168824" data-name="Grupo 168824">
            <path id="Trazado_204465" data-name="Trazado 204465" d="M2261.143,896.068h.9l-1.84,2.72a2.061,2.061,0,0,1,.911-.221,2.313,2.313,0,0,1,1.259.357,2.487,2.487,0,0,1,.9.974,2.82,2.82,0,0,1,.335,1.357,2.788,2.788,0,0,1-.749,1.992,2.5,2.5,0,0,1-1.888.784,2.6,2.6,0,0,1-1.929-.778,2.647,2.647,0,0,1-.771-1.948,2.8,2.8,0,0,1,.184-1.05,7.778,7.778,0,0,1,.746-1.306Zm-.215,3.207a1.758,1.758,0,0,0-1.334.576,2.2,2.2,0,0,0,.006,2.887,1.789,1.789,0,0,0,1.36.582,1.74,1.74,0,0,0,1.341-.569,2.282,2.282,0,0,0,0-2.912A1.8,1.8,0,0,0,2260.928,899.275Z" transform="translate(-2258.272 -896.068)" fill="#636363"/>
          </g>
        </g>
        <g id="Grupo_168831" data-name="Grupo 168831" transform="translate(22.787 20.26)">
          <g id="Grupo_168826" data-name="Grupo 168826">
            <path id="Trazado_204466" data-name="Trazado 204466" d="M2102.187,985.818v.667a4.461,4.461,0,0,0-.794.607,3.926,3.926,0,0,0-.613.778,4.748,4.748,0,0,0-.753,2.5,4.592,4.592,0,0,0,.278,1.553,5.034,5.034,0,0,0,.781,1.417,4.091,4.091,0,0,0,1.1.939v.689a3.827,3.827,0,0,1-1.079-.594,4.84,4.84,0,0,1-.9-1.006,5.107,5.107,0,0,1-.557-4.974,5.25,5.25,0,0,1,1.119-1.7,3.289,3.289,0,0,1,.636-.525A3.933,3.933,0,0,1,2102.187,985.818Z" transform="translate(-2099.246 -985.818)" fill="#636363"/>
          </g>
          <g id="Grupo_168827" data-name="Grupo 168827" transform="translate(3.741 1.894)">
            <path id="Trazado_204467" data-name="Trazado 204467" d="M2126.523,996.669v5.79h-.784v-1.018a2.979,2.979,0,0,1-.974.889,2.653,2.653,0,0,1-1.25.269,3.272,3.272,0,0,1-1.6-.389,2.883,2.883,0,0,1-1.113-1.082,3.023,3.023,0,0,1-.4-1.549,3.078,3.078,0,0,1,.4-1.556,2.9,2.9,0,0,1,1.1-1.1,3.114,3.114,0,0,1,1.559-.4,2.857,2.857,0,0,1,1.3.275,2.764,2.764,0,0,1,.98.885v-1.021Zm-3.08.579a2.145,2.145,0,0,0-1.588.671,2.357,2.357,0,0,0,.016,3.282,2.22,2.22,0,0,0,1.635.674,2.108,2.108,0,0,0,1.587-.67,2.291,2.291,0,0,0,.645-1.657,2.243,2.243,0,0,0-2.3-2.3Z" transform="translate(-2120.401 -996.53)" fill="#636363"/>
          </g>
          <g id="Grupo_168828" data-name="Grupo 168828" transform="translate(11.065 1.923)">
            <path id="Trazado_204468" data-name="Trazado 204468" d="M2164.086,998.983v-2.293h.81v2.293h2.261v.781H2164.9v2.308h-.81v-2.308h-2.27v-.781Z" transform="translate(-2161.816 -996.691)" fill="#636363"/>
          </g>
          <g id="Grupo_168829" data-name="Grupo 168829" transform="translate(17.611)">
            <path id="Trazado_204469" data-name="Trazado 204469" d="M2198.832,993.642v-7.824h.784v3.026a2.489,2.489,0,0,1,.961-.841,2.892,2.892,0,0,1,1.316-.291,3.055,3.055,0,0,1,1.2.234,2.985,2.985,0,0,1,1.853,2.8,3.068,3.068,0,0,1-.4,1.553,2.839,2.839,0,0,1-1.1,1.091,3.134,3.134,0,0,1-1.565.4,2.8,2.8,0,0,1-1.3-.3,2.515,2.515,0,0,1-.961-.838v1Zm3.01-5.212a2.191,2.191,0,0,0-1.622.67,2.27,2.27,0,0,0-.661,1.651,2.29,2.29,0,0,0,2.3,2.305,2.2,2.2,0,0,0,1.632-.664,2.272,2.272,0,0,0,.654-1.663,2.228,2.228,0,0,0-2.305-2.3Z" transform="translate(-2198.832 -985.818)" fill="#636363"/>
          </g>
          <g id="Grupo_168830" data-name="Grupo 168830" transform="translate(24.524)">
            <path id="Trazado_204470" data-name="Trazado 204470" d="M2237.922,994.967v-.68a3.687,3.687,0,0,0,1.4-1.385,4.726,4.726,0,0,0,.753-2.5,4.631,4.631,0,0,0-.279-1.547,4.726,4.726,0,0,0-.778-1.407,4.089,4.089,0,0,0-1.1-.939v-.689a3.762,3.762,0,0,1,1.082.591,4.845,4.845,0,0,1,.9,1,5.117,5.117,0,0,1,.557,4.981,5.334,5.334,0,0,1-1.119,1.7,4.111,4.111,0,0,1-.646.522A3.921,3.921,0,0,1,2237.922,994.967Z" transform="translate(-2237.922 -985.818)" fill="#636363"/>
          </g>
        </g>
        <g id="Grupo_168833" data-name="Grupo 168833" transform="translate(14.425 15.582)">
          <g id="Grupo_168832" data-name="Grupo 168832">
            <path id="Trazado_204471" data-name="Trazado 204471" d="M2095.915,960.087h-43.594a.36.36,0,1,1,0-.72h43.594a.36.36,0,1,1,0,.72Z" transform="translate(-2051.961 -959.367)" fill="#636363"/>
          </g>
        </g>
      </g>
    </g>
  </g>
</svg>
