<svg xmlns="http://www.w3.org/2000/svg" xmlns:xlink="http://www.w3.org/1999/xlink" width="980.93" height="271.19" viewBox="0 0 980.93 271.19">
  <defs>
    <linearGradient id="linear-gradient" x1="0.5" x2="0.5" y2="1" gradientUnits="objectBoundingBox">
      <stop offset="0" stop-color="#fed981"/>
      <stop offset="1" stop-color="#ffd061"/>
    </linearGradient>
  </defs>
  <g id="Grupo_166012" data-name="Grupo 166012" transform="translate(-458.023 -2445)">
    <g id="zEMe5b" transform="translate(1194.099 2445)">
      <g id="Grupo_166010" data-name="Grupo 166010" transform="translate(0)">
        <path id="Trazado_184097" data-name="Trazado 184097" d="M-237.739,336.044c-.12,2.532-.343,5.064-.344,7.6q-.03,68.168-.044,136.336a26.415,26.415,0,0,1-.832,7.858c-1.587,4.99-5.3,7.518-10.612,7.221-5.022-.279-8.261-3.071-9.5-7.837a29.169,29.169,0,0,1-.6-7.246c-.028-24.829.023-49.657-.025-74.486a67.151,67.151,0,0,0-.8-7.379l-2.512-.282c-.407,2.414-1.159,4.828-1.167,7.244-.082,25.936,0,51.873-.074,77.81-.025,8.324-5.549,13.326-12.945,12.1-5.847-.966-9.086-5.6-9.1-13.473q-.068-42.23-.013-84.461c0-17.957.021-35.913-.053-53.87a68.94,68.94,0,0,0-.8-7.366l-2.31-.173c-.427,2.237-1.211,4.473-1.224,6.713-.1,17.734-.036,35.469-.064,53.2-.013,7.644-3.075,11.645-8.727,11.588-5.6-.057-8.628-4.108-8.637-11.718-.02-18.179.584-36.381-.152-54.528-.86-21.21,16.123-31.241,30.263-31.853,10.616-.459,21.294-.542,31.9.024,14.291.763,30.748,11.07,29.826,31.527-.828,18.363-.15,36.792-.182,55.191-.012,7.417-3.333,11.532-9.005,11.365-5.414-.161-8.334-3.992-8.354-11.3-.049-17.735.027-35.47-.066-53.205a44.921,44.921,0,0,0-1.107-6.945Z" transform="translate(308.315 -257.058)" fill="#a4a3ff"/>
        <path id="Trazado_184098" data-name="Trazado 184098" d="M-268.02,317.738a23.875,23.875,0,0,1-23.764-24.313,24.229,24.229,0,0,1,24.642-23.571,24.169,24.169,0,0,1,23.417,24.115A23.8,23.8,0,0,1-268.02,317.738Z" transform="translate(313.758 -269.846)" fill="#a4a3ff"/>
      </g>
    </g>
    <g id="zEMe5b-2" data-name="zEMe5b" transform="translate(1066.48 2456.819)">
      <g id="Grupo_166010-2" data-name="Grupo 166010" transform="translate(0)">
        <path id="Trazado_184097-2" data-name="Trazado 184097" d="M-241.242,334.685c-.114,2.407-.326,4.812-.327,7.219q-.028,64.785-.042,129.569a25.1,25.1,0,0,1-.791,7.468c-1.508,4.743-5.035,7.144-10.086,6.863-4.773-.265-7.851-2.918-9.031-7.448a27.721,27.721,0,0,1-.572-6.887c-.026-23.6.022-47.192-.024-70.789a63.819,63.819,0,0,0-.764-7.013l-2.388-.268c-.387,2.294-1.1,4.589-1.109,6.884-.078,24.649,0,49.3-.071,73.948-.024,7.911-5.273,12.664-12.3,11.5-5.556-.919-8.635-5.323-8.647-12.8q-.064-40.134-.013-80.269c0-17.066.02-34.13-.051-51.2a65.52,65.52,0,0,0-.759-7l-2.2-.164c-.406,2.126-1.151,4.251-1.164,6.38-.1,16.853-.034,33.708-.061,50.563-.013,7.264-2.922,11.067-8.294,11.013-5.325-.054-8.2-3.9-8.208-11.137-.019-17.277.555-34.575-.144-51.821-.817-20.157,15.322-29.691,28.761-30.272,10.089-.436,20.237-.515,30.316.023,13.581.725,29.222,10.52,28.345,29.962-.787,17.451-.143,34.965-.173,52.452-.011,7.048-3.167,10.96-8.558,10.8-5.146-.153-7.92-3.794-7.939-10.736-.047-16.855.025-33.71-.063-50.564a42.684,42.684,0,0,0-1.052-6.6Z" transform="translate(308.315 -259.62)" fill="#43a99b"/>
        <path id="Trazado_184098-2" data-name="Trazado 184098" d="M-269.2,315.361a22.69,22.69,0,0,1-22.584-23.106,23.027,23.027,0,0,1,23.419-22.4,22.969,22.969,0,0,1,22.254,22.918A22.621,22.621,0,0,1-269.2,315.361Z" transform="translate(312.667 -269.846)" fill="#43a99b"/>
      </g>
    </g>
    <g id="zEMe5b-3" data-name="zEMe5b" transform="translate(938.861 2473.655)">
      <g id="Grupo_166010-3" data-name="Grupo 166010" transform="translate(0)">
        <path id="Trazado_184097-3" data-name="Trazado 184097" d="M-246.232,332.75c-.105,2.228-.3,4.454-.3,6.682q-.026,59.965-.039,119.929a23.238,23.238,0,0,1-.732,6.912c-1.4,4.39-4.66,6.613-9.335,6.352A8.55,8.55,0,0,1-265,465.732a25.657,25.657,0,0,1-.53-6.374c-.025-21.841.02-43.681-.022-65.522a59.073,59.073,0,0,0-.707-6.491l-2.21-.248a40.134,40.134,0,0,0-1.027,6.372c-.073,22.815,0,45.631-.065,68.447-.022,7.323-4.881,11.722-11.388,10.646-5.143-.85-7.993-4.927-8-11.852q-.06-37.148-.012-74.3c0-15.8.019-31.591-.047-47.387a60.653,60.653,0,0,0-.7-6.48l-2.032-.152a33.6,33.6,0,0,0-1.077,5.905c-.089,15.6-.032,31.2-.056,46.8-.012,6.724-2.7,10.244-7.677,10.194-4.929-.05-7.589-3.613-7.6-10.308-.018-15.991.513-32-.133-47.966-.757-18.658,14.182-27.482,26.621-28.02,9.339-.4,18.731-.477,28.061.021,12.571.671,27.048,9.737,26.236,27.733-.729,16.153-.132,32.364-.16,48.55-.01,6.524-2.932,10.144-7.921,10-4.763-.142-7.331-3.512-7.348-9.938-.043-15.6.023-31.2-.058-46.8a39.514,39.514,0,0,0-.974-6.109Z" transform="translate(308.315 -263.269)" fill="url(#linear-gradient)"/>
        <path id="Trazado_184098-3" data-name="Trazado 184098" d="M-270.88,311.974a21,21,0,0,1-20.9-21.387,21.314,21.314,0,0,1,21.677-20.734,21.26,21.26,0,0,1,20.6,21.213A20.938,20.938,0,0,1-270.88,311.974Z" transform="translate(311.114 -269.846)" fill="url(#linear-gradient)"/>
      </g>
    </g>
    <g id="zEMe5b-4" data-name="zEMe5b" transform="translate(817.75 2488.999)">
      <g id="Grupo_166010-4" data-name="Grupo 166010" transform="translate(0)">
        <path id="Trazado_184097-4" data-name="Trazado 184097" d="M-250.781,330.986c-.1,2.065-.28,4.128-.281,6.192q-.024,55.572-.036,111.142a21.534,21.534,0,0,1-.678,6.406c-1.294,4.068-4.319,6.128-8.651,5.887a7.923,7.923,0,0,1-7.746-6.389,23.778,23.778,0,0,1-.491-5.907c-.023-20.241.018-40.481-.021-60.722a54.752,54.752,0,0,0-.656-6.016l-2.048-.23a37.2,37.2,0,0,0-.952,5.905c-.067,21.143,0,42.288-.061,63.432-.021,6.786-4.523,10.863-10.553,9.866-4.766-.788-7.407-4.566-7.417-10.983q-.055-34.426-.011-68.854c0-14.639.017-29.277-.043-43.915a56.2,56.2,0,0,0-.651-6l-1.884-.141a31.132,31.132,0,0,0-1,5.473c-.082,14.457-.029,28.915-.052,43.372-.011,6.231-2.507,9.493-7.115,9.447-4.568-.047-7.033-3.349-7.041-9.553-.016-14.82.476-29.658-.124-44.452-.7-17.291,13.143-25.468,24.671-25.967,8.655-.374,17.359-.442,26,.02,11.65.622,25.066,9.024,24.314,25.7-.675,14.969-.122,29.993-.148,44.992-.01,6.046-2.717,9.4-7.341,9.265-4.414-.131-6.794-3.254-6.81-9.209-.04-14.458.022-28.916-.054-43.373a36.615,36.615,0,0,0-.9-5.661Z" transform="translate(308.315 -266.596)" fill="#ff8578"/>
        <path id="Trazado_184098-4" data-name="Trazado 184098" d="M-272.412,308.888a19.463,19.463,0,0,1-19.372-19.82A19.752,19.752,0,0,1-271.7,269.852a19.7,19.7,0,0,1,19.09,19.659A19.4,19.4,0,0,1-272.412,308.888Z" transform="translate(309.698 -269.846)" fill="#ff8578"/>
      </g>
    </g>
    <g id="zEMe5b-5" data-name="zEMe5b" transform="translate(702.573 2506.774)">
      <g id="Grupo_166010-5" data-name="Grupo 166010" transform="translate(0)">
        <path id="Trazado_184097-5" data-name="Trazado 184097" d="M-256.049,328.942c-.089,1.876-.254,3.75-.255,5.625q-.022,50.483-.032,100.965a19.563,19.563,0,0,1-.616,5.819c-1.175,3.7-3.923,5.567-7.859,5.348a7.2,7.2,0,0,1-7.037-5.8,21.6,21.6,0,0,1-.446-5.366c-.021-18.387.017-36.774-.019-55.161a49.731,49.731,0,0,0-.6-5.465l-1.861-.209a33.793,33.793,0,0,0-.864,5.364c-.061,19.207,0,38.415-.055,57.624-.019,6.165-4.109,9.868-9.587,8.963-4.33-.716-6.729-4.148-6.738-9.978q-.05-31.274-.01-62.549c0-13.3.016-26.6-.039-39.894a51.042,51.042,0,0,0-.592-5.455l-1.711-.128a28.286,28.286,0,0,0-.907,4.972c-.075,13.133-.027,26.267-.047,39.4-.01,5.661-2.277,8.624-6.463,8.582-4.15-.042-6.389-3.042-6.4-8.678-.015-13.463.432-26.942-.112-40.381-.637-15.707,11.94-23.136,22.412-23.589,7.862-.34,15.769-.4,23.624.018,10.583.565,22.771,8.2,22.088,23.348-.613,13.6-.111,27.246-.135,40.873-.009,5.492-2.468,8.54-6.669,8.416-4.01-.119-6.172-2.956-6.186-8.366-.036-13.134.02-26.268-.049-39.4a33.257,33.257,0,0,0-.82-5.143Z" transform="translate(308.315 -270.449)" fill="#a4a3ff"/>
        <path id="Trazado_184098-5" data-name="Trazado 184098" d="M-274.186,305.313a17.681,17.681,0,0,1-17.6-18.005,17.943,17.943,0,0,1,18.249-17.456,17.9,17.9,0,0,1,17.342,17.859A17.627,17.627,0,0,1-274.186,305.313Z" transform="translate(308.058 -269.846)" fill="#a4a3ff"/>
      </g>
    </g>
    <g id="zEMe5b-6" data-name="zEMe5b" transform="translate(594.267 2526.963)">
      <g id="Grupo_166010-6" data-name="Grupo 166010" transform="translate(0)">
        <path id="Trazado_184097-6" data-name="Trazado 184097" d="M-262.033,326.621c-.078,1.661-.225,3.321-.226,4.981q-.02,44.7-.029,89.405a17.322,17.322,0,0,1-.546,5.153,6.364,6.364,0,0,1-6.959,4.735,6.374,6.374,0,0,1-6.231-5.139,19.128,19.128,0,0,1-.395-4.752c-.018-16.282.015-32.564-.017-48.846a44.016,44.016,0,0,0-.527-4.839l-1.648-.185a29.917,29.917,0,0,0-.765,4.75c-.054,17.008,0,34.017-.049,51.026-.017,5.459-3.639,8.738-8.489,7.937-3.834-.634-5.958-3.673-5.966-8.835q-.044-27.693-.009-55.387c0-11.776.014-23.551-.035-35.326a45.209,45.209,0,0,0-.524-4.83l-1.515-.113a25.046,25.046,0,0,0-.8,4.4c-.066,11.629-.023,23.26-.042,34.89-.009,5.013-2.016,7.637-5.723,7.6-3.674-.038-5.658-2.694-5.664-7.685-.013-11.921.383-23.858-.1-35.758-.564-13.909,10.573-20.487,19.846-20.888,6.962-.3,13.964-.356,20.919.016,9.371.5,20.164,7.259,19.559,20.675-.543,12.042-.1,24.127-.119,36.193-.008,4.864-2.186,7.563-5.905,7.453-3.551-.105-5.465-2.618-5.478-7.408-.032-11.63.017-23.26-.044-34.891a29.448,29.448,0,0,0-.726-4.554Z" transform="translate(308.315 -274.825)" fill="#43a99b"/>
        <path id="Trazado_184098-6" data-name="Trazado 184098" d="M-276.2,301.252a15.657,15.657,0,0,1-15.584-15.944,15.889,15.889,0,0,1,16.16-15.457,15.849,15.849,0,0,1,15.356,15.814A15.609,15.609,0,0,1-276.2,301.252Z" transform="translate(306.195 -269.846)" fill="#43a99b"/>
      </g>
    </g>
    <g id="zEMe5b-7" data-name="zEMe5b" transform="translate(493.767 2551.219)">
      <g id="Grupo_166010-7" data-name="Grupo 166010" transform="translate(0)">
        <path id="Trazado_184097-7" data-name="Trazado 184097" d="M-269.223,323.833c-.066,1.4-.19,2.8-.191,4.207q-.017,37.759-.024,75.517a14.629,14.629,0,0,1-.461,4.353,5.375,5.375,0,0,1-5.878,4,5.384,5.384,0,0,1-5.263-4.341,16.156,16.156,0,0,1-.334-4.014c-.015-13.753.012-27.505-.014-41.258a37.2,37.2,0,0,0-.445-4.087l-1.392-.156a25.273,25.273,0,0,0-.647,4.012c-.046,14.366,0,28.733-.041,43.1-.014,4.611-3.074,7.381-7.171,6.7-3.238-.535-5.033-3.1-5.04-7.463q-.037-23.391-.007-46.783c0-9.946.012-19.892-.03-29.839a38.186,38.186,0,0,0-.442-4.08l-1.28-.1a21.158,21.158,0,0,0-.678,3.719c-.056,9.823-.02,19.646-.035,29.47-.007,4.234-1.7,6.45-4.834,6.419-3.1-.032-4.779-2.275-4.784-6.491-.011-10.069.323-20.152-.084-30.2-.476-11.748,8.93-17.3,16.763-17.643,5.88-.254,11.795-.3,17.669.013,7.916.423,17.032,6.132,16.521,17.463-.459,10.171-.083,20.379-.1,30.571-.007,4.108-1.846,6.388-4.988,6.3-3-.089-4.616-2.211-4.627-6.257-.027-9.823.015-19.647-.037-29.471a24.87,24.87,0,0,0-.613-3.847Z" transform="translate(308.315 -280.083)" fill="url(#linear-gradient)"/>
        <path id="Trazado_184098-7" data-name="Trazado 184098" d="M-278.623,296.373a13.224,13.224,0,0,1-13.163-13.467,13.421,13.421,0,0,1,13.65-13.056,13.387,13.387,0,0,1,12.971,13.357A13.184,13.184,0,0,1-278.623,296.373Z" transform="translate(303.957 -269.846)" fill="url(#linear-gradient)"/>
      </g>
    </g>
    <g id="Elipse_5201" data-name="Elipse 5201" transform="translate(798.279 2445)" fill="none" stroke="#12263f" stroke-width="3" stroke-dasharray="4">
      <ellipse cx="57.827" cy="135.595" rx="57.827" ry="135.595" stroke="none"/>
      <ellipse cx="57.827" cy="135.595" rx="56.327" ry="134.095" fill="none"/>
    </g>
    <path id="Trazado_184099" data-name="Trazado 184099" d="M-7325.01-12177.345h-879.943" transform="translate(8662.977 14704.308)" fill="none" stroke="#ff8578" stroke-width="4"/>
    <text id="Mediana" transform="translate(1395.953 2526.151)" fill="#ff8578" font-size="22" font-family="Roboto-Bold, Roboto" font-weight="700"><tspan x="-42.652" y="0">Mediana</tspan></text>
    <path id="Trazado_184100" data-name="Trazado 184100" d="M-8194-12059.887h821.021" transform="translate(8666.584 14742.994)" fill="none" stroke="#12263f" stroke-width="2"/>
  </g>
</svg>
