<svg xmlns="http://www.w3.org/2000/svg" width="496" height="155" viewBox="0 0 496 155">
  <g id="Grupo_166881" data-name="Grupo 166881" transform="translate(9327 7303)">
    <path id="Trazado_197399" data-name="Trazado 197399" d="M10,0H486a10,10,0,0,1,10,10V145a10,10,0,0,1-10,10H10A10,10,0,0,1,0,145V10A10,10,0,0,1,10,0Z" transform="translate(-9327 -7303)" fill="#a4a3ff"/>
    <path id="Trazado_197417" data-name="Trazado 197417" d="M20.221,6.061q0,9.176-4.645,13.934T1.982,24.752a19.886,19.886,0,0,1-6.514-1.133l1.02-8.213a16.869,16.869,0,0,0,4.475.736q8.779,0,8.779-10.025V-67.8q0-9.629,5.013-15.01t14.132-5.381A34.466,34.466,0,0,1,37.043-87l-1.359,8.043a18.321,18.321,0,0,0-5.154-.623q-10.309,0-10.309,12.4Z" transform="translate(-9287.066 -7186.569)" fill="#fff"/>
    <path id="Trazado_197416" data-name="Trazado 197416" d="M4.871-5.038H.343v-1.4H4.871Zm18.879.148a5.7,5.7,0,0,1-.584,2.551,4.571,4.571,0,0,1-1.619,1.86,4.139,4.139,0,0,1-2.305.673,3.909,3.909,0,0,1-2.449-.854,6.408,6.408,0,0,1-1.846-2.5A6.427,6.427,0,0,1,13.1-.649a3.886,3.886,0,0,1-2.431.844,4.159,4.159,0,0,1-2.3-.663A4.582,4.582,0,0,1,6.745-2.319a5.706,5.706,0,0,1-.594-2.588V-5.13a5.7,5.7,0,0,1,.584-2.551A4.6,4.6,0,0,1,8.354-9.546a4.1,4.1,0,0,1,2.3-.677,3.9,3.9,0,0,1,2.445.849,6.445,6.445,0,0,1,1.851,2.51,6.426,6.426,0,0,1,1.851-2.5,3.928,3.928,0,0,1,2.463-.858,4.076,4.076,0,0,1,3.2,1.48A5.478,5.478,0,0,1,23.75-5.01Zm-15.883,0a4.305,4.305,0,0,0,.77,2.663,2.424,2.424,0,0,0,2.032,1.021,2.633,2.633,0,0,0,1.916-.872,5.888,5.888,0,0,0,1.341-2.384l.1-.362v-.39a6.573,6.573,0,0,0-.751-1.809A4.049,4.049,0,0,0,12.07-8.364a2.526,2.526,0,0,0-1.419-.45A2.406,2.406,0,0,0,8.637-7.793a4.436,4.436,0,0,0-.77,2.737ZM22.034-5.13a4.318,4.318,0,0,0-.77-2.649,2.388,2.388,0,0,0-2-1.034,2.681,2.681,0,0,0-1.939.877A5.91,5.91,0,0,0,15.957-5.5l-.083.288v.39A6.28,6.28,0,0,0,16.62-3.01a4.118,4.118,0,0,0,1.211,1.359,2.5,2.5,0,0,0,1.41.445,2.4,2.4,0,0,0,2.027-1.03,4.481,4.481,0,0,0,.765-2.737Z" transform="translate(-9248.969 -7156.168)" fill="#fff"/>
    <path id="Trazado_197414" data-name="Trazado 197414" d="M6.216-7.246H9.982v1.624H6.216v4.268H4.49V-5.622H.724V-7.246H4.49v-3.943H6.216ZM29.279-4.889a5.7,5.7,0,0,1-.584,2.551,4.571,4.571,0,0,1-1.619,1.86,4.139,4.139,0,0,1-2.305.673,3.909,3.909,0,0,1-2.449-.854,6.408,6.408,0,0,1-1.846-2.5,6.427,6.427,0,0,1-1.846,2.5A3.886,3.886,0,0,1,16.2.195a4.159,4.159,0,0,1-2.3-.663,4.582,4.582,0,0,1-1.624-1.851,5.706,5.706,0,0,1-.594-2.588V-5.13a5.7,5.7,0,0,1,.584-2.551,4.6,4.6,0,0,1,1.619-1.865,4.1,4.1,0,0,1,2.3-.677,3.9,3.9,0,0,1,2.445.849,6.445,6.445,0,0,1,1.851,2.51,6.426,6.426,0,0,1,1.851-2.5,3.928,3.928,0,0,1,2.463-.858,4.076,4.076,0,0,1,3.2,1.48,5.478,5.478,0,0,1,1.29,3.734Zm-15.883,0a4.305,4.305,0,0,0,.77,2.663A2.424,2.424,0,0,0,16.2-1.206a2.633,2.633,0,0,0,1.916-.872,5.888,5.888,0,0,0,1.341-2.384l.1-.362v-.39a6.573,6.573,0,0,0-.751-1.809A4.049,4.049,0,0,0,17.6-8.364a2.526,2.526,0,0,0-1.419-.45,2.406,2.406,0,0,0-2.013,1.021,4.436,4.436,0,0,0-.77,2.737ZM27.563-5.13a4.318,4.318,0,0,0-.77-2.649,2.388,2.388,0,0,0-2-1.034,2.681,2.681,0,0,0-1.939.877A5.91,5.91,0,0,0,21.486-5.5l-.083.288v.39A6.28,6.28,0,0,0,22.15-3.01,4.118,4.118,0,0,0,23.36-1.651a2.5,2.5,0,0,0,1.41.445A2.4,2.4,0,0,0,26.8-2.236a4.481,4.481,0,0,0,.765-2.737Z" transform="translate(-9248.969 -7265.623)" fill="#fff"/>
    <path id="Trazado_197413" data-name="Trazado 197413" d="M5.91-26.26A68.7,68.7,0,0,1,8.6-45.544a56.019,56.019,0,0,1,8.02-16.8Q21.95-69.894,27.682-73l1.688,5.421q-6.487,4.977-10.642,15.2A65.878,65.878,0,0,0,14.174-29.5l-.044,3.777q0,17.151,6.265,29.771a35.556,35.556,0,0,0,8.976,11.819l-1.688,5.021Q21.772,17.6,16.4,9.864,5.91-5.243,5.91-26.26Z" transform="translate(-9205.186 -7187.836)" fill="#fff"/>
    <path id="Trazado_197402" data-name="Trazado 197402" d="M4.156-18.469A48.315,48.315,0,0,1,6.047-32.031a39.4,39.4,0,0,1,5.641-11.812,24,24,0,0,1,7.781-7.5l1.188,3.813q-4.563,3.5-7.484,10.688a46.332,46.332,0,0,0-3.2,16.094l-.031,2.656q0,12.063,4.406,20.938a25.006,25.006,0,0,0,6.313,8.313l-1.187,3.531a24.767,24.767,0,0,1-7.937-7.75Q4.156-3.688,4.156-18.469Z" transform="translate(-9006.482 -7233.266)" fill="#fff"/>
    <path id="Trazado_197400" data-name="Trazado 197400" d="M24.917-25.532A67.975,67.975,0,0,1,22.346-6.746,55.552,55.552,0,0,1,14.48,9.844q-5.3,7.6-11.1,10.811L1.67,15.688Q8.437,10.5,12.546-.417a69.677,69.677,0,0,0,4.2-24.236V-26.06A72.344,72.344,0,0,0,14.81-43.22,57.917,57.917,0,0,0,9.426-57.437a32.836,32.836,0,0,0-7.756-9.8L3.384-72.2q5.8,3.208,11.052,10.723A55.67,55.67,0,0,1,22.3-44.912,69.545,69.545,0,0,1,24.917-25.532Z" transform="translate(-9036.793 -7188.836)" fill="#fff"/>
    <path id="Trazado_197403" data-name="Trazado 197403" d="M17.719-18.156A48.338,48.338,0,0,1,15.891-4.8,39.5,39.5,0,0,1,10.3,7a24.508,24.508,0,0,1-7.891,7.688L1.188,11.156Q6,7.469,8.922-.3a49.548,49.548,0,0,0,2.984-17.234v-1a51.444,51.444,0,0,0-1.375-12.2A41.185,41.185,0,0,0,6.7-40.844a23.35,23.35,0,0,0-5.516-6.969l1.219-3.531a24.413,24.413,0,0,1,7.859,7.625,39.588,39.588,0,0,1,5.594,11.781A49.454,49.454,0,0,1,17.719-18.156Z" transform="translate(-8872.934 -7233.266)" fill="#fff"/>
    <path id="Trazado_197409" data-name="Trazado 197409" d="M3.182-14.14A36.991,36.991,0,0,1,4.63-24.524a30.164,30.164,0,0,1,4.319-9.044,18.372,18.372,0,0,1,5.958-5.742l.909,2.919a19.056,19.056,0,0,0-5.73,8.183A35.473,35.473,0,0,0,7.632-15.887l-.024,2.034a35.658,35.658,0,0,0,3.374,16.03,19.146,19.146,0,0,0,4.833,6.364l-.909,2.7A18.962,18.962,0,0,1,8.829,5.312Q3.182-2.823,3.182-14.14Z" transform="translate(-8951.756 -7243.675)" fill="#fff"/>
    <path id="Trazado_197410" data-name="Trazado 197410" d="M13.566-13.9a37.009,37.009,0,0,1-1.4,10.228A30.245,30.245,0,0,1,7.884,5.359a18.764,18.764,0,0,1-6.041,5.886l-.933-2.7Q4.594,5.718,6.831-.227a37.935,37.935,0,0,0,2.285-13.2v-.766a39.387,39.387,0,0,0-1.053-9.343,31.532,31.532,0,0,0-2.931-7.74A17.878,17.878,0,0,0,.909-36.606l.933-2.7A18.691,18.691,0,0,1,7.86-33.472a30.309,30.309,0,0,1,4.283,9.02A37.863,37.863,0,0,1,13.566-13.9Z" transform="translate(-8891.133 -7243.675)" fill="#fff"/>
    <path id="Trazado_197248" data-name="Trazado 197248" d="M-9212.887-7619.241l7.146-4.342,5.095,14.156,7.732-29.538h73.451" transform="translate(59.799 439.115)" fill="none" stroke="#fff" stroke-width="4"/>
    <path id="Trazado_197408" data-name="Trazado 197408" d="M9.077,0H5.735L8.6-16.482,3.384-14.755,3.908-17.8l8.156-2.889h.51Z" transform="translate(-9114.795 -7224.366)" fill="#fff"/>
    <path id="Trazado_197412" data-name="Trazado 197412" d="M6.26,0h-2.3L5.928-11.367,2.334-10.176l.361-2.1L8.32-14.268h.352Z" transform="translate(-8975.195 -7258.259)" fill="#fff"/>
    <path id="Trazado_197405" data-name="Trazado 197405" d="M9.395,0H.107L.381-1.729,6.289-7.4a5.393,5.393,0,0,0,1.816-2.92,2.094,2.094,0,0,0-.312-1.548,1.6,1.6,0,0,0-1.318-.659,2.394,2.394,0,0,0-1.826.679,3.178,3.178,0,0,0-.9,1.958l-2.3.01a4.8,4.8,0,0,1,.8-2.354A4.753,4.753,0,0,1,4.1-13.862a5.243,5.243,0,0,1,2.5-.552A4.2,4.2,0,0,1,9.536-13.34a3.305,3.305,0,0,1,.952,2.773A7.082,7.082,0,0,1,8.1-6.357l-.605.6L3.379-1.895H9.7Z" transform="translate(-8975.195 -7224.429)" fill="#fff"/>
    <path id="Trazado_197406" data-name="Trazado 197406" d="M9.395,0H.107L.381-1.729,6.289-7.4a5.393,5.393,0,0,0,1.816-2.92,2.094,2.094,0,0,0-.312-1.548,1.6,1.6,0,0,0-1.318-.659,2.394,2.394,0,0,0-1.826.679,3.178,3.178,0,0,0-.9,1.958l-2.3.01a4.8,4.8,0,0,1,.8-2.354A4.753,4.753,0,0,1,4.1-13.862a5.243,5.243,0,0,1,2.5-.552A4.2,4.2,0,0,1,9.536-13.34a3.305,3.305,0,0,1,.952,2.773A7.082,7.082,0,0,1,8.1-6.357l-.605.6L3.379-1.895H9.7Z" transform="translate(-8919.23 -7224.429)" fill="#fff"/>
    <path id="Trazado_197401" data-name="Trazado 197401" d="M9.864,0H.113L.4-1.815,6.6-7.772a5.663,5.663,0,0,0,1.907-3.066,2.2,2.2,0,0,0-.328-1.625A1.684,1.684,0,0,0,6.8-13.156a2.513,2.513,0,0,0-1.917.713,3.337,3.337,0,0,0-.943,2.056l-2.42.01a5.045,5.045,0,0,1,.836-2.471A4.991,4.991,0,0,1,4.3-14.555a5.5,5.5,0,0,1,2.63-.579,4.407,4.407,0,0,1,3.081,1.128,3.471,3.471,0,0,1,1,2.912A7.436,7.436,0,0,1,8.5-6.675l-.636.625L3.548-1.989h6.634Z" transform="translate(-9058.684 -7181.269)" fill="#fff"/>
    <path id="Trazado_197415" data-name="Trazado 197415" d="M9.864,0H.113L.4-1.815,6.6-7.772a5.663,5.663,0,0,0,1.907-3.066,2.2,2.2,0,0,0-.328-1.625A1.684,1.684,0,0,0,6.8-13.156a2.513,2.513,0,0,0-1.917.713,3.337,3.337,0,0,0-.943,2.056l-2.42.01a5.045,5.045,0,0,1,.836-2.471A4.991,4.991,0,0,1,4.3-14.555a5.5,5.5,0,0,1,2.63-.579,4.407,4.407,0,0,1,3.081,1.128,3.471,3.471,0,0,1,1,2.912A7.436,7.436,0,0,1,8.5-6.675l-.636.625L3.548-1.989h6.634Z" transform="translate(-8884.398 -7278.095)" fill="#fff"/>
    <path id="Trazado_197249" data-name="Trazado 197249" d="M-9613.244-9288.434h121.528" transform="translate(441.731 2076.797)" fill="#fff" stroke="#fff" stroke-width="3"/>
    <path id="Trazado_197251" data-name="Trazado 197251" d="M-9613.244-9288.434h18.354" transform="translate(634.765 2040.298)" fill="#fff" stroke="#fff" stroke-width="3"/>
    <path id="Trazado_197253" data-name="Trazado 197253" d="M-9613.244-9288.434h44.405" transform="translate(677.705 2040.298)" fill="#fff" stroke="#fff" stroke-width="3"/>
    <path id="Trazado_197252" data-name="Trazado 197252" d="M-9613.244-9288.434h10.161" transform="translate(621.909 2040.298)" fill="#fff" stroke="#fff" stroke-width="3"/>
    <path id="Trazado_197407" data-name="Trazado 197407" d="M14.092,0H.161l.41-2.593L9.434-11.1q2.476-2.417,2.725-4.38a3.141,3.141,0,0,0-.469-2.322,2.4,2.4,0,0,0-1.978-.989,3.591,3.591,0,0,0-2.739,1.018,4.766,4.766,0,0,0-1.348,2.937l-3.457.015a7.207,7.207,0,0,1,1.194-3.53,7.13,7.13,0,0,1,2.783-2.439A7.864,7.864,0,0,1,9.9-21.621a6.3,6.3,0,0,1,4.4,1.611,4.958,4.958,0,0,1,1.428,4.16q-.249,2.988-3.589,6.313l-.908.894-6.167,5.8h9.478Zm20.3-13.066H32.124l-1.45,8.613a3.035,3.035,0,0,0-.015.659q.088.952,1.172,1a6.679,6.679,0,0,0,1.245-.132L32.827-.146a7.462,7.462,0,0,1-2.183.308,3.258,3.258,0,0,1-2.717-1.223,4.482,4.482,0,0,1-.71-3.215l1.436-8.789H23.965L21.694,0H18.223l2.271-13.066H18.047l.5-2.783H34.878Z" transform="translate(-9130.424 -7166.707)" fill="#fff"/>
    <path id="Trazado_197404" data-name="Trazado 197404" d="M2.114-18.63a14.09,14.09,0,0,0,1.111,3.821,10.7,10.7,0,0,0,2.123,3.135,8.237,8.237,0,0,0,6.359,2.583,6.429,6.429,0,0,0,4.986-2.177,9.122,9.122,0,0,0,1.969-5.7,17.247,17.247,0,0,0-.072-2.493l-.235-1.5a11.9,11.9,0,0,0-3.026-6.269A7.073,7.073,0,0,0,9.9-29.379a6.086,6.086,0,0,0-4.806,2.2l-1.752-9.34h-4.3ZM5.6-23.815a3.48,3.48,0,0,1,3.306-2.078,4.373,4.373,0,0,1,3.541,1.563,8.258,8.258,0,0,1,1.807,4.49,24.4,24.4,0,0,1,.145,3.216,5.508,5.508,0,0,1-.912,3.017,2.754,2.754,0,0,1-2.177,1.03,3.773,3.773,0,0,1-3.216-1.689,10.364,10.364,0,0,1-1.734-4.652Z" transform="translate(-9094.941 -7186.09) rotate(97)" fill="#fff"/>
    <path id="Trazado_197411" data-name="Trazado 197411" d="M6.921-9.546,10.8-14.93h3.056L8.224-7.414,11.484,0H8.675L6.419-5.465,2.44,0H-.625L5.127-7.639,1.938-14.93H4.727Zm10.264,4.2h-5.24l.359-2.01h5.24Z" transform="translate(-8932.256 -7258.259)" fill="#fff"/>
    <g id="X_" data-name="X " transform="translate(-8910.498 -7282.781)" style="isolation: isolate">
      <text id="_" data-name="µ" transform="translate(0 22)" fill="#fff" font-size="24" font-family="Roboto-Medium, Roboto" font-weight="500" style="isolation: isolate"><tspan x="0" y="0">µ</tspan></text>
    </g>
  </g>
</svg>
