<svg xmlns="http://www.w3.org/2000/svg" width="403.913" height="207.414" viewBox="0 0 403.913 207.414">
  <g id="Grupo_169197" data-name="Grupo 169197" transform="translate(6272.017 8358.847)">
    <g id="Rectángulo_51220" data-name="Rectángulo 51220" transform="translate(-6250.804 -8358.847)" fill="none" stroke="#12263f" stroke-width="1">
      <rect width="382.7" height="187.307" stroke="none"/>
      <rect x="0.5" y="0.5" width="381.7" height="186.307" fill="none"/>
    </g>
    <path id="Trazado_204666" data-name="Trazado 204666" d="M-6397.721-7912.052h-4.96" transform="translate(146.916 -419.915)" fill="none" stroke="#12263f" stroke-width="1"/>
    <path id="Trazado_204667" data-name="Trazado 204667" d="M-6397.721-7912.052h-4.96" transform="translate(146.916 -380.836)" fill="none" stroke="#12263f" stroke-width="1"/>
    <path id="Trazado_204668" data-name="Trazado 204668" d="M-6397.721-7912.052h-4.96" transform="translate(146.916 -343.105)" fill="none" stroke="#12263f" stroke-width="1"/>
    <path id="Trazado_204669" data-name="Trazado 204669" d="M-6397.721-7912.052h-4.96" transform="translate(146.916 -305.374)" fill="none" stroke="#12263f" stroke-width="1"/>
    <path id="Trazado_204670" data-name="Trazado 204670" d="M-6397.721-7912.052h-4.96" transform="translate(146.916 -268.991)" fill="none" stroke="#12263f" stroke-width="1"/>
    <path id="Trazado_204671" data-name="Trazado 204671" d="M4.961,0H0" transform="translate(-6235.766 -8167.782) rotate(-90)" fill="none" stroke="#12263f" stroke-width="1"/>
    <path id="Trazado_204672" data-name="Trazado 204672" d="M4.961,0H0" transform="translate(-6148.177 -8167.782) rotate(-90)" fill="none" stroke="#12263f" stroke-width="1"/>
    <path id="Trazado_204673" data-name="Trazado 204673" d="M4.961,0H0" transform="translate(-6059.454 -8167.782) rotate(-90)" fill="none" stroke="#12263f" stroke-width="1"/>
    <path id="Trazado_204674" data-name="Trazado 204674" d="M4.961,0H0" transform="translate(-5971.864 -8167.782) rotate(-90)" fill="none" stroke="#12263f" stroke-width="1"/>
    <path id="Trazado_204675" data-name="Trazado 204675" d="M4.961,0H0" transform="translate(-5882.927 -8167.782) rotate(-90)" fill="none" stroke="#12263f" stroke-width="1"/>
    <text id="_0_4" data-name="0,4" transform="translate(-6263.017 -8326.506) rotate(-90)" fill="#12263f" font-size="9" font-family="Roboto-Regular, Roboto"><tspan x="0" y="0">0,4</tspan></text>
    <text id="_0_3" data-name="0,3" transform="translate(-6263.017 -8287.428) rotate(-90)" fill="#12263f" font-size="9" font-family="Roboto-Regular, Roboto"><tspan x="0" y="0">0,3</tspan></text>
    <text id="_0_2" data-name="0,2" transform="translate(-6263.017 -8248.349) rotate(-90)" fill="#12263f" font-size="9" font-family="Roboto-Regular, Roboto"><tspan x="0" y="0">0,2</tspan></text>
    <text id="_0_1" data-name="0,1" transform="translate(-6263.017 -8211.966) rotate(-90)" fill="#12263f" font-size="9" font-family="Roboto-Regular, Roboto"><tspan x="0" y="0">0,1</tspan></text>
    <text id="_-4" data-name="-4" transform="translate(-6240.483 -8153.433)" fill="#12263f" font-size="9" font-family="Roboto-Regular, Roboto"><tspan x="0" y="0">-4</tspan></text>
    <text id="_-2" data-name="-2" transform="translate(-6152.893 -8153.433)" fill="#12263f" font-size="9" font-family="Roboto-Regular, Roboto"><tspan x="0" y="0">-2</tspan></text>
    <text id="_0" data-name="0" transform="translate(-6062.608 -8153.433)" fill="#12263f" font-size="9" font-family="Roboto-Regular, Roboto"><tspan x="0" y="0">0</tspan></text>
    <text id="_2" data-name="2" transform="translate(-5974.559 -8153.433)" fill="#12263f" font-size="9" font-family="Roboto-Regular, Roboto"><tspan x="0" y="0">2</tspan></text>
    <text id="_4" data-name="4" transform="translate(-5886.51 -8153.433)" fill="#12263f" font-size="9" font-family="Roboto-Regular, Roboto"><tspan x="0" y="0">4</tspan></text>
    <text id="_0_0" data-name="0,0" transform="translate(-6263.017 -8175.583) rotate(-90)" fill="#12263f" font-size="9" font-family="Roboto-Regular, Roboto"><tspan x="0" y="0">0,0</tspan></text>
    <path id="Trazado_204676" data-name="Trazado 204676" d="M-6387.841-7772.262s79,1.866,103.178-28.951,57.8-89.613,60.525-91.519,14.1-15.189,24.83,2.974,47.605,79.16,55.075,84.345,26.34,32.27,109.034,36.06" transform="translate(152.074 -415.448)" fill="none" stroke="#5263e2" stroke-width="4"/>
    <path id="Trazado_204677" data-name="Trazado 204677" d="M-6387.841-7760.931s64.654,6.087,84.018-15.629,46.393-71.569,59.892-100.241,24.14-39.773,36.749-34.583,20.537,22.5,20.537,22.5,39.118,80.5,42.147,82.526,10.6,30.973,45.185,39.8a199.432,199.432,0,0,0,63.9,5.633" transform="translate(152.074 -420.112)" fill="none" stroke="#ffde96" stroke-width="3"/>
  </g>
</svg>
