<svg xmlns="http://www.w3.org/2000/svg" width="574" height="179.895" viewBox="0 0 574 179.895">
  <g id="Grupo_166883" data-name="Grupo 166883" transform="translate(9349.5 6466.895)">
    <path id="Trazado_197441" data-name="Trazado 197441" d="M5.019-12.8l2.856,8.9,2.848-8.9h4.061V0H11.689V-2.988l.3-6.117L8.895,0H6.855l-3.1-9.114.3,6.126V0H.967V-12.8ZM21.208.176a4.889,4.889,0,0,1-3.542-1.305,4.507,4.507,0,0,1-1.354-3.4v-.246a5.84,5.84,0,0,1,.541-2.575,3.955,3.955,0,0,1,1.578-1.727,4.763,4.763,0,0,1,2.461-.611,4.117,4.117,0,0,1,3.164,1.244,4.887,4.887,0,0,1,1.16,3.467v1.151H19.327a2.135,2.135,0,0,0,.694,1.257,2.066,2.066,0,0,0,1.389.457,2.662,2.662,0,0,0,2.2-.984l1.354,1.6A3.784,3.784,0,0,1,23.392-.277,5.3,5.3,0,0,1,21.208.176ZM20.874-7.4q-1.3,0-1.547,1.723h2.988v-.229a1.467,1.467,0,0,0-.36-1.1A1.434,1.434,0,0,0,20.874-7.4Zm5.159,2.575a5.809,5.809,0,0,1,.976-3.56,3.211,3.211,0,0,1,2.725-1.3,2.731,2.731,0,0,1,2.145,1V-13.5h2.971V0H32.186l-.149-1.02a2.8,2.8,0,0,1-2.32,1.2,3.205,3.205,0,0,1-2.689-1.3A5.993,5.993,0,0,1,26.033-4.825ZM29-4.641q0,2.531,1.477,2.531a1.458,1.458,0,0,0,1.406-.826V-6.557A1.419,1.419,0,0,0,30.489-7.4Q29.118-7.4,29-5.186ZM39.656,0H36.686V-9.51h2.971ZM36.51-11.962A1.322,1.322,0,0,1,36.967-13a1.724,1.724,0,0,1,1.187-.4,1.724,1.724,0,0,1,1.187.4,1.322,1.322,0,0,1,.457,1.037,1.322,1.322,0,0,1-.457,1.037,1.724,1.724,0,0,1-1.187.4,1.724,1.724,0,0,1-1.187-.4A1.322,1.322,0,0,1,36.51-11.962Zm4.6,7.137a5.809,5.809,0,0,1,.976-3.56,3.211,3.211,0,0,1,2.725-1.3,2.731,2.731,0,0,1,2.145,1V-13.5h2.971V0H47.259l-.149-1.02a2.8,2.8,0,0,1-2.32,1.2,3.205,3.205,0,0,1-2.689-1.3A5.993,5.993,0,0,1,41.106-4.825Zm2.962.185q0,2.531,1.477,2.531a1.458,1.458,0,0,0,1.406-.826V-6.557A1.419,1.419,0,0,0,45.563-7.4q-1.371,0-1.485,2.215ZM56.962,0a3.344,3.344,0,0,1-.281-.853A2.754,2.754,0,0,1,54.4.176,3.374,3.374,0,0,1,52.11-.637a2.588,2.588,0,0,1-.94-2.043,2.66,2.66,0,0,1,1.143-2.338,5.821,5.821,0,0,1,3.322-.791h.914v-.5q0-1.316-1.134-1.316A.927.927,0,0,0,54.36-6.587H51.4a2.655,2.655,0,0,1,1.173-2.239,4.931,4.931,0,0,1,2.993-.86,4.323,4.323,0,0,1,2.874.888A3.086,3.086,0,0,1,59.52-6.363v4.21a4.311,4.311,0,0,0,.4,2V0ZM55.107-1.934a1.652,1.652,0,0,0,.918-.237,1.487,1.487,0,0,0,.523-.536V-4.228h-.861q-1.547,0-1.547,1.389a.848.848,0,0,0,.272.655A.986.986,0,0,0,55.107-1.934Zm11.03-.738a.684.684,0,0,0-.4-.606,6.016,6.016,0,0,0-1.5-.475A6.853,6.853,0,0,1,62.411-4.4a3.062,3.062,0,0,1-1.1-.971,2.319,2.319,0,0,1-.378-1.31,2.628,2.628,0,0,1,1.081-2.158,4.453,4.453,0,0,1,2.83-.848,4.934,4.934,0,0,1,3.023.853,2.666,2.666,0,0,1,1.143,2.241H66.041q0-1.143-1.2-1.143a1.194,1.194,0,0,0-.782.259.8.8,0,0,0-.316.646.737.737,0,0,0,.387.642,3.654,3.654,0,0,0,1.235.4,10.671,10.671,0,0,1,1.49.378A2.706,2.706,0,0,1,68.994-2.76,2.491,2.491,0,0,1,67.838-.642a5.068,5.068,0,0,1-2.993.817,5.172,5.172,0,0,1-2.18-.439,3.645,3.645,0,0,1-1.494-1.2,2.707,2.707,0,0,1-.536-1.591H63.4a1.145,1.145,0,0,0,.439.962,1.808,1.808,0,0,0,1.081.3,1.422,1.422,0,0,0,.91-.246A.787.787,0,0,0,66.138-2.672Zm8.35-2.153a5.809,5.809,0,0,1,.976-3.56,3.211,3.211,0,0,1,2.725-1.3,2.731,2.731,0,0,1,2.145,1V-13.5H83.3V0H80.64L80.49-1.02a2.8,2.8,0,0,1-2.32,1.2,3.205,3.205,0,0,1-2.689-1.3A5.993,5.993,0,0,1,74.487-4.825Zm2.962.185q0,2.531,1.477,2.531a1.458,1.458,0,0,0,1.406-.826V-6.557A1.419,1.419,0,0,0,78.943-7.4q-1.371,0-1.485,2.215ZM89.587.176a4.889,4.889,0,0,1-3.542-1.305,4.507,4.507,0,0,1-1.354-3.4v-.246a5.84,5.84,0,0,1,.541-2.575A3.955,3.955,0,0,1,86.81-9.075a4.763,4.763,0,0,1,2.461-.611,4.117,4.117,0,0,1,3.164,1.244,4.887,4.887,0,0,1,1.16,3.467v1.151H87.706A2.135,2.135,0,0,0,88.4-2.566a2.066,2.066,0,0,0,1.389.457,2.662,2.662,0,0,0,2.2-.984l1.354,1.6A3.784,3.784,0,0,1,91.771-.277,5.3,5.3,0,0,1,89.587.176ZM89.253-7.4q-1.3,0-1.547,1.723h2.988v-.229a1.467,1.467,0,0,0-.36-1.1A1.434,1.434,0,0,0,89.253-7.4Zm9.642,2.575a5.809,5.809,0,0,1,.976-3.56,3.211,3.211,0,0,1,2.725-1.3,2.731,2.731,0,0,1,2.145,1V-13.5h2.971V0h-2.663L104.9-1.02a2.8,2.8,0,0,1-2.32,1.2,3.205,3.205,0,0,1-2.689-1.3A5.993,5.993,0,0,1,98.895-4.825Zm2.962.185q0,2.531,1.477,2.531a1.458,1.458,0,0,0,1.406-.826V-6.557a1.419,1.419,0,0,0-1.389-.844q-1.371,0-1.485,2.215ZM112.518,0h-2.971V-9.51h2.971Zm-3.146-11.962A1.322,1.322,0,0,1,109.828-13a1.724,1.724,0,0,1,1.187-.4,1.724,1.724,0,0,1,1.187.4,1.322,1.322,0,0,1,.457,1.037,1.322,1.322,0,0,1-.457,1.037,1.724,1.724,0,0,1-1.187.4,1.724,1.724,0,0,1-1.187-.4A1.322,1.322,0,0,1,109.371-11.962Zm9.949,9.29a.684.684,0,0,0-.4-.606,6.016,6.016,0,0,0-1.5-.475,6.853,6.853,0,0,1-1.828-.646,3.062,3.062,0,0,1-1.1-.971,2.319,2.319,0,0,1-.378-1.31A2.628,2.628,0,0,1,115.2-8.837a4.453,4.453,0,0,1,2.83-.848,4.934,4.934,0,0,1,3.023.853,2.666,2.666,0,0,1,1.143,2.241h-2.971q0-1.143-1.2-1.143a1.194,1.194,0,0,0-.782.259.8.8,0,0,0-.316.646.737.737,0,0,0,.387.642,3.654,3.654,0,0,0,1.235.4,10.671,10.671,0,0,1,1.49.378,2.706,2.706,0,0,1,2.145,2.646,2.491,2.491,0,0,1-1.156,2.118,5.068,5.068,0,0,1-2.993.817,5.172,5.172,0,0,1-2.18-.439,3.645,3.645,0,0,1-1.494-1.2,2.707,2.707,0,0,1-.536-1.591h2.769a1.145,1.145,0,0,0,.439.962,1.808,1.808,0,0,0,1.081.3,1.422,1.422,0,0,0,.91-.246A.787.787,0,0,0,119.32-2.672ZM132.39-4.685a5.735,5.735,0,0,1-1,3.538A3.2,3.2,0,0,1,128.7.176a2.742,2.742,0,0,1-2.153-.958V3.656h-2.962V-9.51h2.769l.088.879a2.742,2.742,0,0,1,2.241-1.055,3.224,3.224,0,0,1,2.733,1.3,5.805,5.805,0,0,1,.976,3.564Zm-2.962-.185q0-2.531-1.477-2.531a1.394,1.394,0,0,0-1.406.756V-2.9a1.439,1.439,0,0,0,1.424.791q1.415,0,1.459-2.443ZM138.3.176a4.889,4.889,0,0,1-3.542-1.305,4.507,4.507,0,0,1-1.354-3.4v-.246a5.84,5.84,0,0,1,.541-2.575,3.955,3.955,0,0,1,1.578-1.727,4.763,4.763,0,0,1,2.461-.611,4.117,4.117,0,0,1,3.164,1.244,4.887,4.887,0,0,1,1.16,3.467v1.151h-5.889a2.135,2.135,0,0,0,.694,1.257,2.066,2.066,0,0,0,1.389.457,2.662,2.662,0,0,0,2.2-.984l1.354,1.6A3.784,3.784,0,0,1,140.48-.277,5.3,5.3,0,0,1,138.3.176ZM137.962-7.4q-1.3,0-1.547,1.723H139.4v-.229a1.467,1.467,0,0,0-.36-1.1A1.434,1.434,0,0,0,137.962-7.4Zm11.285.571-.976-.07a1.752,1.752,0,0,0-1.793.879V0h-2.962V-9.51h2.777l.1,1.222a2.294,2.294,0,0,1,2.083-1.4,2.888,2.888,0,0,1,.826.105Zm6.047,4.157a.684.684,0,0,0-.4-.606,6.016,6.016,0,0,0-1.5-.475,6.853,6.853,0,0,1-1.828-.646,3.062,3.062,0,0,1-1.1-.971,2.319,2.319,0,0,1-.378-1.31,2.628,2.628,0,0,1,1.081-2.158A4.453,4.453,0,0,1,154-9.686a4.934,4.934,0,0,1,3.023.853,2.666,2.666,0,0,1,1.143,2.241H155.2q0-1.143-1.2-1.143a1.194,1.194,0,0,0-.782.259.8.8,0,0,0-.316.646.737.737,0,0,0,.387.642,3.654,3.654,0,0,0,1.235.4,10.671,10.671,0,0,1,1.49.378A2.706,2.706,0,0,1,158.15-2.76a2.491,2.491,0,0,1-1.156,2.118A5.068,5.068,0,0,1,154,.176a5.172,5.172,0,0,1-2.18-.439,3.645,3.645,0,0,1-1.494-1.2,2.707,2.707,0,0,1-.536-1.591h2.769a1.145,1.145,0,0,0,.439.962,1.808,1.808,0,0,0,1.081.3,1.422,1.422,0,0,0,.91-.246A.787.787,0,0,0,155.294-2.672ZM162.659,0h-2.971V-9.51h2.971Zm-3.146-11.962A1.322,1.322,0,0,1,159.97-13a1.724,1.724,0,0,1,1.187-.4,1.724,1.724,0,0,1,1.187.4,1.322,1.322,0,0,1,.457,1.037,1.322,1.322,0,0,1-.457,1.037,1.724,1.724,0,0,1-1.187.4,1.724,1.724,0,0,1-1.187-.4A1.322,1.322,0,0,1,159.513-11.962Zm4.6,7.119a5.613,5.613,0,0,1,.554-2.536,3.96,3.96,0,0,1,1.591-1.709,4.791,4.791,0,0,1,2.435-.6,4.373,4.373,0,0,1,3.366,1.323,5.076,5.076,0,0,1,1.23,3.6v.105a4.925,4.925,0,0,1-1.235,3.529A4.384,4.384,0,0,1,168.706.176a4.434,4.434,0,0,1-3.261-1.217,4.761,4.761,0,0,1-1.327-3.3Zm2.962.185a3.538,3.538,0,0,0,.413,1.934,1.376,1.376,0,0,0,1.222.615q1.582,0,1.617-2.435v-.3q0-2.558-1.635-2.558-1.485,0-1.608,2.206Zm2.021-8.842h3.129l-2.443,2.76-2.417,0Zm8.218,3.99.1,1.116a3.225,3.225,0,0,1,2.716-1.292,2.713,2.713,0,0,1,2.219.888,4.226,4.226,0,0,1,.76,2.672V0h-2.971V-6a1.6,1.6,0,0,0-.29-1.059,1.342,1.342,0,0,0-1.055-.338,1.413,1.413,0,0,0-1.292.686V0h-2.962V-9.51Z" transform="translate(-9186.122 -6453.395)" fill="#12263f"/>
    <path id="Trazado_197436" data-name="Trazado 197436" d="M9.7-8.2H5.625L4.189,0H.571L4.277-21.328,11-21.313a7.659,7.659,0,0,1,5.317,1.671,5.307,5.307,0,0,1,1.6,4.648,6.385,6.385,0,0,1-1.377,3.585,8.014,8.014,0,0,1-3.413,2.382L16.274-.219,16.26,0H12.422ZM6.123-11.191l3.5.029a4.975,4.975,0,0,0,3.157-.989,3.9,3.9,0,0,0,1.487-2.688,3.023,3.023,0,0,0-.586-2.542,3.314,3.314,0,0,0-2.446-.945L7.368-18.34Zm26.968-.234H20.815l.527-2.959H33.6ZM32.007-5.215H19.746l.513-2.944H32.534ZM46.846-2.959h9.4L55.723,0H42.715l3.706-21.328h3.618ZM73.711-7.632H66.226l.513-2.871h7.485ZM87.231-2.959h9.4L96.108,0H83.1l3.706-21.328h3.618Z" transform="translate(-9348.5 -6354)" fill="#12263f"/>
    <path id="Trazado_197438" data-name="Trazado 197438" d="M5.188-13.22l-.256,1.4a5.093,5.093,0,0,1,3.906-1.636,3.792,3.792,0,0,1,2.069.574,2.716,2.716,0,0,1,1.117,1.453,5.322,5.322,0,0,1,4.2-2.026,3.429,3.429,0,0,1,2.863,1.324,5.054,5.054,0,0,1,.7,3.571L18.359,0H15.466l1.44-8.582a4.5,4.5,0,0,0,.012-.989,1.616,1.616,0,0,0-1.807-1.465A3.045,3.045,0,0,0,12.28-9.07l-.037.269L10.73,0H7.825l1.44-8.545a4.385,4.385,0,0,0,.012-.977,1.63,1.63,0,0,0-1.807-1.514,3.191,3.191,0,0,0-2.71,1.453L3.088,0H.2L2.478-13.208Z" transform="translate(-9289.5 -6338)" fill="#12263f"/>
    <path id="Trazado_197435" data-name="Trazado 197435" d="M3.141,0H.363l2.2-12.68H5.344ZM2.965-15.926a1.567,1.567,0,0,1,.422-1.1,1.545,1.545,0,0,1,1.137-.48,1.478,1.478,0,0,1,1.131.416,1.44,1.44,0,0,1,.451,1.072,1.482,1.482,0,0,1-.439,1.1,1.611,1.611,0,0,1-1.119.457,1.5,1.5,0,0,1-1.125-.4A1.394,1.394,0,0,1,2.965-15.926Z" transform="translate(-9242.5 -6339)" fill="#12263f"/>
    <g id="Grupo_166731" data-name="Grupo 166731" transform="translate(-9199.416 -6385.76)">
      <text id="Dx_" data-name="Dx =" transform="translate(0 39.724)" fill="#12263f" font-size="23" font-family="Roboto-MediumItalic, Roboto" font-weight="500" font-style="italic"><tspan x="0" y="0">Dx =</tspan></text>
      <text id="_" transform="translate(19.724 20)" fill="#12263f" font-size="22" font-family="Roboto-MediumItalic, Roboto" font-weight="500" font-style="italic"><tspan x="0" y="0">_</tspan></text>
    </g>
    <path id="Trazado_197433" data-name="Trazado 197433" d="M16.815-11.064,5.008,1.409H20.281l-.647,3.713H-1.695l.533-3.085L12.111-11.521,3.523-25.042,4-27.727H24.261l-.647,3.713H9.064l7.789,12.4Z" transform="translate(-9128.979 -6375.506)" fill="#12263f"/>
    <path id="Trazado_197432" data-name="Trazado 197432" d="M1.963,0H.227L1.6-7.925H3.34Zm-.11-9.954a.979.979,0,0,1,.264-.688.966.966,0,0,1,.71-.3.924.924,0,0,1,.707.26.9.9,0,0,1,.282.67.926.926,0,0,1-.275.688,1.007,1.007,0,0,1-.7.286.939.939,0,0,1-.7-.253A.871.871,0,0,1,1.853-9.954Zm9.324,4.241H5.039L5.3-7.192h6.13Zm-.542,3.105H4.5L4.761-4.08H10.9ZM16.7,0H14.971L16.45-8.525l-2.7.894.271-1.575L18.245-10.7h.264Z" transform="translate(-9129.979 -6353.816)" fill="#12263f"/>
    <path id="Trazado_197440" data-name="Trazado 197440" d="M7.937,0H6.3L3.192-7.13,1.955,0H.267L2-9.953H3.63L6.74-2.8,7.984-9.953H9.666Z" transform="translate(-9120.949 -6406.502)" fill="#12263f"/>
    <g id="Grupo_166734" data-name="Grupo 166734" transform="translate(-9094.359 -6415.463)">
      <g id="Grupo_166732" data-name="Grupo 166732" transform="translate(8.413)">
        <text id="x" transform="translate(0 36.467)" fill="#12263f" font-size="19" font-family="Roboto-MediumItalic, Roboto" font-weight="500" font-style="italic"><tspan x="0" y="0">x</tspan></text>
        <text id="_2" data-name="_" transform="translate(2.154 19)" fill="#12263f" font-size="21" font-family="Roboto-MediumItalic, Roboto" font-weight="500" font-style="italic"><tspan x="0" y="0">_</tspan></text>
      </g>
      <g id="Grupo_166733" data-name="Grupo 166733" transform="translate(37.267)">
        <text id="x-2" data-name="x" transform="translate(0 36.467)" fill="#12263f" font-size="19" font-family="Roboto-MediumItalic, Roboto" font-weight="500" font-style="italic"><tspan x="0" y="0">x</tspan></text>
        <text id="_3" data-name="_" transform="translate(2.154 19)" fill="#12263f" font-size="21" font-family="Roboto-MediumItalic, Roboto" font-weight="500" font-style="italic"><tspan x="0" y="0">_</tspan></text>
      </g>
      <text id="I" transform="translate(21.109 47.779)" fill="#12263f" font-size="13" font-family="Roboto-MediumItalic, Roboto" font-weight="500" font-style="italic"><tspan x="0" y="0">i</tspan></text>
      <text id="I-2" data-name="I" transform="translate(70.738 47.779)" fill="#12263f" font-size="13" font-family="Roboto-MediumItalic, Roboto" font-weight="500" font-style="italic"><tspan x="0" y="0">i</tspan></text>
      <text id="ƒ" transform="translate(63.504 38.158)" fill="#12263f" font-size="24" font-family="Roboto-MediumItalic, Roboto" font-weight="500" font-style="italic"><tspan x="0" y="0">ƒ</tspan></text>
      <text id="_-" data-name="-" transform="translate(25.725 37.083)" fill="#12263f" font-size="15" font-family="Roboto-MediumItalic, Roboto" font-weight="500" font-style="italic"><tspan x="0" y="0">-</tspan></text>
      <path id="Trazado_197263" data-name="Trazado 197263" d="M-8894.289-6322.956v29.722" transform="translate(8894.289 6339.4)" fill="none" stroke="#12263f" stroke-width="2"/>
      <path id="Trazado_197264" data-name="Trazado 197264" d="M-8894.289-6322.956v29.722" transform="translate(8947.715 6339.4)" fill="none" stroke="#12263f" stroke-width="2"/>
    </g>
    <path id="Trazado_197430" data-name="Trazado 197430" d="M13.605,0H10.8L5.473-12.223,3.352,0H.457L3.422-17.062h2.8l5.332,12.27,2.133-12.27H16.57Z" transform="translate(-9093.827 -6323.584)" fill="#12263f"/>
    <path id="Trazado_197265" data-name="Trazado 197265" d="M-9613.244-9288.434h145.662" transform="translate(467.523 2942.22)" fill="#fff" stroke="#12263f" stroke-width="3"/>
    <g id="Grupo_166735" data-name="Grupo 166735" transform="translate(-8928.5 -6387.268)">
      <text id="CV_" data-name="CV=" transform="translate(0 23)" fill="#12263f" font-size="25" font-family="Roboto-MediumItalic, Roboto" font-weight="500" font-style="italic"><tspan x="0" y="0">CV=</tspan></text>
    </g>
    <path id="Trazado_197431" data-name="Trazado 197431" d="M9.229-12.729,14.4-19.906h4.074L10.965-9.885,15.313,0H11.566L8.559-7.287,3.254,0H-.834l7.67-10.186L2.584-19.906H6.3Z" transform="translate(-8864.391 -6337.471)" fill="#12263f"/>
    <path id="Trazado_197266" data-name="Trazado 197266" d="M-9613.244-9288.434h39.05" transform="translate(739.571 2924.265)" fill="#fff" stroke="#12263f" stroke-width="3"/>
    <path id="Trazado_197434" data-name="Trazado 197434" d="M2.285-19.789a15.233,15.233,0,0,0,1.2,4.131A11.564,11.564,0,0,0,5.781-12.27a8.9,8.9,0,0,0,6.875,2.793,6.95,6.95,0,0,0,5.391-2.354,9.862,9.862,0,0,0,2.129-6.162,18.645,18.645,0,0,0-.078-2.7l-.254-1.621a12.867,12.867,0,0,0-3.271-6.777A7.646,7.646,0,0,0,10.7-31.41a6.579,6.579,0,0,0-5.2,2.383l-1.895-10.1H-1.035Zm3.77-5.605a3.762,3.762,0,0,1,3.574-2.246,4.728,4.728,0,0,1,3.828,1.689A8.927,8.927,0,0,1,15.41-21.1a26.375,26.375,0,0,1,.156,3.477,5.955,5.955,0,0,1-.986,3.262,2.977,2.977,0,0,1-2.354,1.113A4.079,4.079,0,0,1,8.75-15.072,11.2,11.2,0,0,1,6.875-20.1Z" transform="translate(-8871.347 -6395.632) rotate(97)" fill="#12263f"/>
    <path id="Trazado_197437" data-name="Trazado 197437" d="M5,0H84a5,5,0,0,1,5,5V20a5,5,0,0,1-5,5H5a5,5,0,0,1-5-5V5A5,5,0,0,1,5,0Z" transform="translate(-9349.5 -6312)" fill="#a4a3ff"/>
    <path id="Trazado_197428" data-name="Trazado 197428" d="M5,0H146a5,5,0,0,1,5,5V20a5,5,0,0,1-5,5H5a5,5,0,0,1-5-5V5A5,5,0,0,1,5,0Z" transform="translate(-9169.5 -6312)" fill="#a4a3ff"/>
    <path id="Trazado_197426" data-name="Trazado 197426" d="M5,0H185a5,5,0,0,1,5,5V20a5,5,0,0,1-5,5H5a5,5,0,0,1-5-5V5A5,5,0,0,1,5,0Z" transform="translate(-8965.5 -6312)" fill="#a4a3ff"/>
    <path id="Trazado_197439" data-name="Trazado 197439" d="M5.172-4.375H3L2.234,0H.3L2.281-11.375l3.586.008a4.085,4.085,0,0,1,2.836.891A2.83,2.83,0,0,1,9.555-8,3.405,3.405,0,0,1,8.82-6.085,4.274,4.274,0,0,1,7-4.815l1.68,4.7L8.672,0H6.625ZM3.266-5.969l1.867.016A2.653,2.653,0,0,0,6.816-6.48a2.08,2.08,0,0,0,.793-1.434A1.612,1.612,0,0,0,7.3-9.27a1.768,1.768,0,0,0-1.3-.5L3.93-9.781ZM14.914,0a2.507,2.507,0,0,1-.078-.789,3.134,3.134,0,0,1-2.258.945,2.589,2.589,0,0,1-1.824-.707A2.18,2.18,0,0,1,10.078-2.3a2.588,2.588,0,0,1,1.156-2.1,5.034,5.034,0,0,1,2.938-.766l1.2.016.109-.578a1.744,1.744,0,0,0,0-.57,1.017,1.017,0,0,0-1.117-.867,1.685,1.685,0,0,0-1.043.3,1.3,1.3,0,0,0-.551.848l-1.852.016a2.318,2.318,0,0,1,.555-1.371A3.289,3.289,0,0,1,12.8-8.3a4.5,4.5,0,0,1,1.75-.312,2.956,2.956,0,0,1,2.156.832A2.466,2.466,0,0,1,17.352-5.7L16.7-1.742l-.062.7a2.5,2.5,0,0,0,.117.9L16.75,0ZM13.008-1.359a2.041,2.041,0,0,0,1.086-.27,2.861,2.861,0,0,0,.852-.738l.289-1.6-.883-.008a3.1,3.1,0,0,0-1.672.395A1.447,1.447,0,0,0,11.969-2.5a.957.957,0,0,0,.23.824A1.127,1.127,0,0,0,13.008-1.359Zm8.539-7.1-.187.992a3.226,3.226,0,0,1,2.508-1.141,2.044,2.044,0,0,1,1.758.848,3.383,3.383,0,0,1,.422,2.3L25.133,0H23.281L24.2-5.484a2.806,2.806,0,0,0,.008-.625A1,1,0,0,0,23.1-7.062,2.25,2.25,0,0,0,21.25-6.023L20.2,0H18.344L19.8-8.453ZM27.5-4.234a6.538,6.538,0,0,1,.684-2.289A4.135,4.135,0,0,1,29.531-8.09a3.18,3.18,0,0,1,1.859-.527,2.494,2.494,0,0,1,2.1,1.023l.289-.867,1.688.008L34.07-.234A4.061,4.061,0,0,1,32.676,2.4a4.042,4.042,0,0,1-2.824.934,3.945,3.945,0,0,1-1.687-.406A3.508,3.508,0,0,1,26.883,1.9L27.867.781A2.372,2.372,0,0,0,29.8,1.836a2.271,2.271,0,0,0,1.559-.5,2.585,2.585,0,0,0,.871-1.5l.133-.594a2.991,2.991,0,0,1-2.219.914,2.367,2.367,0,0,1-1.9-.9,3.974,3.974,0,0,1-.785-2.375A7.807,7.807,0,0,1,27.5-4.234Zm1.836.164a5.713,5.713,0,0,0-.031.859A2.23,2.23,0,0,0,29.68-1.9a1.258,1.258,0,0,0,1.023.508,2.186,2.186,0,0,0,1.844-.977L33.211-6.1a1.508,1.508,0,0,0-1.445-.961,1.928,1.928,0,0,0-1.578.727,4.071,4.071,0,0,0-.836,2.1ZM36.4-4.258a5.562,5.562,0,0,1,.73-2.258,4.335,4.335,0,0,1,1.535-1.57,3.794,3.794,0,0,1,2.078-.523,3.229,3.229,0,0,1,1.875.578A3.21,3.21,0,0,1,43.77-6.492a4.887,4.887,0,0,1,.254,2.172,5.665,5.665,0,0,1-.73,2.375A4.318,4.318,0,0,1,41.746-.363a3.848,3.848,0,0,1-2.09.52,3.214,3.214,0,0,1-1.863-.574,3.222,3.222,0,0,1-1.152-1.531,4.824,4.824,0,0,1-.266-2.145Zm1.82,1.07a2.232,2.232,0,0,0,.434,1.316,1.387,1.387,0,0,0,1.1.52,1.948,1.948,0,0,0,1.6-.734,3.863,3.863,0,0,0,.809-2.07l.047-.766a2.7,2.7,0,0,0-.4-1.57,1.4,1.4,0,0,0-1.156-.6A2.024,2.024,0,0,0,38.773-5.93a4.349,4.349,0,0,0-.523,1.672A6.541,6.541,0,0,0,38.219-3.187Z" transform="translate(-9325.5 -6294)" fill="#fff"/>
    <path id="Trazado_197429" data-name="Trazado 197429" d="M.3,0,2.273-11.375l3.078.008A4.213,4.213,0,0,1,7.8-10.66,3.975,3.975,0,0,1,9.289-8.707,5.822,5.822,0,0,1,9.57-5.961l-.086.617A6.82,6.82,0,0,1,8.449-2.559,5.569,5.569,0,0,1,6.383-.672,5.839,5.839,0,0,1,3.6,0ZM3.93-9.781l-1.422,8.2,1.141.008a3.554,3.554,0,0,0,2.566-.98A4.709,4.709,0,0,0,7.523-5.258a9.127,9.127,0,0,0,.148-2.07A2.787,2.787,0,0,0,7.012-9.1a2.209,2.209,0,0,0-1.637-.672ZM14.172.156A3.541,3.541,0,0,1,12.262-.4a3.156,3.156,0,0,1-1.2-1.453,4.32,4.32,0,0,1-.293-2.055l.023-.32a5.657,5.657,0,0,1,.754-2.316A4.3,4.3,0,0,1,13.078-8.1a3.713,3.713,0,0,1,1.984-.508,2.769,2.769,0,0,1,2.379,1.182,4.337,4.337,0,0,1,.6,3l-.109.814h-5.32A2.3,2.3,0,0,0,13.016-2a1.61,1.61,0,0,0,1.313.631,2.847,2.847,0,0,0,2.2-1.039l.938.984a3.563,3.563,0,0,1-1.4,1.176A4.166,4.166,0,0,1,14.172.156Zm.789-7.25q-1.469-.047-2.2,2.078l3.508.008.031-.164a2.451,2.451,0,0,0,.008-.7,1.438,1.438,0,0,0-.437-.875A1.385,1.385,0,0,0,14.961-7.094ZM23.8-2.344q.133-.773-1-1.074A12.763,12.763,0,0,1,21.25-3.9,2.138,2.138,0,0,1,19.7-5.992,2.378,2.378,0,0,1,20.73-7.879a3.794,3.794,0,0,1,2.387-.73,3.266,3.266,0,0,1,2.191.758,2.417,2.417,0,0,1,.832,1.945L24.3-5.914a1.185,1.185,0,0,0-.32-.918,1.307,1.307,0,0,0-.922-.348,1.817,1.817,0,0,0-1.059.3,1.135,1.135,0,0,0-.512.8q-.109.711,1,.988a10.976,10.976,0,0,1,1.641.512,2.14,2.14,0,0,1,1.492,2.125,2.336,2.336,0,0,1-.527,1.4,3.077,3.077,0,0,1-1.309.914,4.477,4.477,0,0,1-1.742.293,3.437,3.437,0,0,1-2.293-.8,2.512,2.512,0,0,1-.895-2.023l1.789.008a1.361,1.361,0,0,0,.406,1.031,1.57,1.57,0,0,0,1.07.359,2.126,2.126,0,0,0,1.145-.285A1.094,1.094,0,0,0,23.8-2.344Zm6.359-.086,2.672-6.023h1.977L30.648,0H29.039L27.492-8.453h1.859ZM36.563,0H34.711L36.18-8.453h1.852Zm-.117-10.617a1.044,1.044,0,0,1,.281-.734,1.03,1.03,0,0,1,.758-.32.985.985,0,0,1,.754.277.96.96,0,0,1,.3.715.988.988,0,0,1-.293.734,1.074,1.074,0,0,1-.746.3,1,1,0,0,1-.75-.27A.929.929,0,0,1,36.445-10.617ZM43.656,0a2.507,2.507,0,0,1-.078-.789A3.134,3.134,0,0,1,41.32.156,2.589,2.589,0,0,1,39.5-.551,2.18,2.18,0,0,1,38.82-2.3a2.588,2.588,0,0,1,1.156-2.1,5.034,5.034,0,0,1,2.938-.766l1.2.016.109-.578a1.744,1.744,0,0,0,0-.57,1.017,1.017,0,0,0-1.117-.867,1.685,1.685,0,0,0-1.043.3,1.3,1.3,0,0,0-.551.848l-1.852.016a2.318,2.318,0,0,1,.555-1.371A3.289,3.289,0,0,1,41.547-8.3a4.5,4.5,0,0,1,1.75-.312,2.956,2.956,0,0,1,2.156.832A2.466,2.466,0,0,1,46.094-5.7l-.648,3.961-.062.7a2.5,2.5,0,0,0,.117.9L45.492,0ZM41.75-1.359a2.041,2.041,0,0,0,1.086-.27,2.861,2.861,0,0,0,.852-.738l.289-1.6-.883-.008a3.1,3.1,0,0,0-1.672.395A1.447,1.447,0,0,0,40.711-2.5a.957.957,0,0,0,.23.824A1.127,1.127,0,0,0,41.75-1.359Zm9.047.008a1.778,1.778,0,0,0,1.176-.387,1.774,1.774,0,0,0,.652-1.051l1.75-.008a2.993,2.993,0,0,1-.605,1.523A3.52,3.52,0,0,1,52.438-.2a3.7,3.7,0,0,1-1.7.359,3.184,3.184,0,0,1-1.852-.562,3.11,3.11,0,0,1-1.117-1.512,4.836,4.836,0,0,1-.234-2.152l.023-.273a5.531,5.531,0,0,1,.715-2.223,4.173,4.173,0,0,1,1.5-1.535,3.766,3.766,0,0,1,2.047-.508,2.957,2.957,0,0,1,2.2.91,3.215,3.215,0,0,1,.82,2.285H53.109A1.889,1.889,0,0,0,52.754-6.6a1.3,1.3,0,0,0-1.027-.492,1.876,1.876,0,0,0-1.711.922,5.146,5.146,0,0,0-.672,2.688Q49.289-1.383,50.8-1.352ZM57.281,0H55.43L56.9-8.453H58.75Zm-.117-10.617a1.044,1.044,0,0,1,.281-.734,1.03,1.03,0,0,1,.758-.32.985.985,0,0,1,.754.277.96.96,0,0,1,.3.715.988.988,0,0,1-.293.734,1.074,1.074,0,0,1-.746.3,1,1,0,0,1-.75-.27A.929.929,0,0,1,57.164-10.617ZM59.8-4.258a5.562,5.562,0,0,1,.73-2.258,4.335,4.335,0,0,1,1.535-1.57,3.794,3.794,0,0,1,2.078-.523,3.229,3.229,0,0,1,1.875.578,3.21,3.21,0,0,1,1.152,1.539,4.887,4.887,0,0,1,.254,2.172,5.665,5.665,0,0,1-.73,2.375A4.319,4.319,0,0,1,65.145-.363a3.848,3.848,0,0,1-2.09.52,3.214,3.214,0,0,1-1.863-.574,3.222,3.222,0,0,1-1.152-1.531,4.824,4.824,0,0,1-.266-2.145Zm1.82,1.07a2.232,2.232,0,0,0,.434,1.316,1.387,1.387,0,0,0,1.1.52,1.948,1.948,0,0,0,1.6-.734,3.863,3.863,0,0,0,.809-2.07l.047-.766a2.7,2.7,0,0,0-.4-1.57,1.4,1.4,0,0,0-1.156-.6A2.024,2.024,0,0,0,62.172-5.93a4.349,4.349,0,0,0-.523,1.672A6.541,6.541,0,0,0,61.617-3.187ZM65.227-12h2.227L64.984-9.633l-1.609,0Zm6.219,3.539-.187.992a3.226,3.226,0,0,1,2.508-1.141,2.044,2.044,0,0,1,1.758.848,3.383,3.383,0,0,1,.422,2.3L75.031,0H73.18L74.1-5.484a2.806,2.806,0,0,0,.008-.625A1,1,0,0,0,73-7.062a2.25,2.25,0,0,0-1.852,1.039L70.094,0H68.242L69.7-8.453Zm12.672,0-.164.9a3.259,3.259,0,0,1,2.5-1.047,2.427,2.427,0,0,1,1.324.367,1.738,1.738,0,0,1,.715.93,3.406,3.406,0,0,1,2.688-1.3,2.195,2.195,0,0,1,1.832.848,3.235,3.235,0,0,1,.449,2.285L92.547,0H90.7l.922-5.492a2.879,2.879,0,0,0,.008-.633,1.034,1.034,0,0,0-1.156-.937A1.949,1.949,0,0,0,88.656-5.8l-.023.172L87.664,0H85.8l.922-5.469a2.806,2.806,0,0,0,.008-.625,1.043,1.043,0,0,0-1.156-.969,2.042,2.042,0,0,0-1.734.93L82.773,0H80.922l1.461-8.453ZM98.336.156A3.541,3.541,0,0,1,96.426-.4a3.156,3.156,0,0,1-1.2-1.453,4.32,4.32,0,0,1-.293-2.055l.023-.32a5.657,5.657,0,0,1,.754-2.316A4.3,4.3,0,0,1,97.242-8.1a3.713,3.713,0,0,1,1.984-.508,2.769,2.769,0,0,1,2.379,1.182,4.337,4.337,0,0,1,.6,3l-.109.814h-5.32A2.3,2.3,0,0,0,97.18-2a1.61,1.61,0,0,0,1.313.631,2.847,2.847,0,0,0,2.2-1.039l.938.984a3.563,3.563,0,0,1-1.4,1.176A4.166,4.166,0,0,1,98.336.156Zm.789-7.25q-1.469-.047-2.2,2.078l3.508.008.031-.164a2.451,2.451,0,0,0,.008-.7,1.437,1.437,0,0,0-.437-.875A1.385,1.385,0,0,0,99.125-7.094Zm4.2,2.859a6.7,6.7,0,0,1,.7-2.344,3.968,3.968,0,0,1,1.352-1.551,3.121,3.121,0,0,1,1.789-.488,2.5,2.5,0,0,1,2.016.961L109.992-12h1.859L109.766,0h-1.656l.125-.875A2.946,2.946,0,0,1,105.922.164a2.325,2.325,0,0,1-1.887-.91,3.975,3.975,0,0,1-.762-2.379,6.316,6.316,0,0,1,.023-.945Zm1.8.727a2.6,2.6,0,0,0,.3,1.539,1.2,1.2,0,0,0,1.059.586,2.175,2.175,0,0,0,1.852-1.039l.633-3.633a1.445,1.445,0,0,0-1.422-1.008,1.9,1.9,0,0,0-1.711.938A5,5,0,0,0,105.117-3.508ZM113.719,0h-1.852l1.469-8.453h1.852ZM113.6-10.617a1.044,1.044,0,0,1,.281-.734,1.03,1.03,0,0,1,.758-.32.985.985,0,0,1,.754.277.96.96,0,0,1,.3.715.988.988,0,0,1-.293.734,1.074,1.074,0,0,1-.746.3,1,1,0,0,1-.75-.27A.929.929,0,0,1,113.6-10.617ZM120.813,0a2.507,2.507,0,0,1-.078-.789,3.134,3.134,0,0,1-2.258.945,2.589,2.589,0,0,1-1.824-.707,2.18,2.18,0,0,1-.676-1.754,2.588,2.588,0,0,1,1.156-2.1,5.034,5.034,0,0,1,2.938-.766l1.2.016.109-.578a1.744,1.744,0,0,0,0-.57,1.017,1.017,0,0,0-1.117-.867,1.685,1.685,0,0,0-1.043.3,1.3,1.3,0,0,0-.551.848l-1.852.016a2.318,2.318,0,0,1,.555-1.371A3.289,3.289,0,0,1,118.7-8.3a4.5,4.5,0,0,1,1.75-.312,2.956,2.956,0,0,1,2.156.832A2.466,2.466,0,0,1,123.25-5.7L122.6-1.742l-.062.7a2.5,2.5,0,0,0,.117.9L122.648,0Zm-1.906-1.359a2.041,2.041,0,0,0,1.086-.27,2.861,2.861,0,0,0,.852-.738l.289-1.6-.883-.008a3.1,3.1,0,0,0-1.672.395,1.447,1.447,0,0,0-.711,1.082.957.957,0,0,0,.23.824A1.127,1.127,0,0,0,118.906-1.359Z" transform="translate(-9155.5 -6294)" fill="#fff"/>
    <path id="Trazado_197427" data-name="Trazado 197427" d="M9.328-3.711a4.418,4.418,0,0,1-1.6,2.84A4.794,4.794,0,0,1,4.531.156a3.775,3.775,0,0,1-1.9-.516A3.335,3.335,0,0,1,1.352-1.793,5.35,5.35,0,0,1,.836-3.922a11.519,11.519,0,0,1,.219-2.426A7.662,7.662,0,0,1,2.074-9.1a5.158,5.158,0,0,1,1.852-1.836,4.721,4.721,0,0,1,2.441-.594,3.633,3.633,0,0,1,2.684,1.066A4.185,4.185,0,0,1,10.1-7.609H8.188a2.8,2.8,0,0,0-.512-1.762,1.824,1.824,0,0,0-1.4-.566,2.64,2.64,0,0,0-2.133.913A5.344,5.344,0,0,0,2.984-6.253L2.828-5.215l-.07.8a4.711,4.711,0,0,0,.113,1.51,1.97,1.97,0,0,0,.621,1.077,1.812,1.812,0,0,0,1.133.394A2.605,2.605,0,0,0,7.422-3.7Zm1.453-.547a5.562,5.562,0,0,1,.73-2.258,4.335,4.335,0,0,1,1.535-1.57,3.794,3.794,0,0,1,2.078-.523A3.229,3.229,0,0,1,17-8.031a3.21,3.21,0,0,1,1.152,1.539,4.887,4.887,0,0,1,.254,2.172,5.665,5.665,0,0,1-.73,2.375A4.318,4.318,0,0,1,16.129-.363a3.848,3.848,0,0,1-2.09.52,3.214,3.214,0,0,1-1.863-.574,3.222,3.222,0,0,1-1.152-1.531,4.824,4.824,0,0,1-.266-2.145Zm1.82,1.07a2.232,2.232,0,0,0,.434,1.316,1.387,1.387,0,0,0,1.1.52,1.948,1.948,0,0,0,1.6-.734,3.863,3.863,0,0,0,.809-2.07l.047-.766a2.7,2.7,0,0,0-.4-1.57,1.4,1.4,0,0,0-1.156-.6A2.024,2.024,0,0,0,13.156-5.93a4.349,4.349,0,0,0-.523,1.672A6.541,6.541,0,0,0,12.6-3.187ZM23.078.156A3.541,3.541,0,0,1,21.168-.4a3.156,3.156,0,0,1-1.2-1.453,4.32,4.32,0,0,1-.293-2.055l.023-.32a5.657,5.657,0,0,1,.754-2.316A4.3,4.3,0,0,1,21.984-8.1a3.713,3.713,0,0,1,1.984-.508,2.769,2.769,0,0,1,2.379,1.182,4.337,4.337,0,0,1,.6,3l-.109.814h-5.32A2.3,2.3,0,0,0,21.922-2a1.61,1.61,0,0,0,1.313.631,2.847,2.847,0,0,0,2.2-1.039l.938.984a3.563,3.563,0,0,1-1.4,1.176A4.166,4.166,0,0,1,23.078.156Zm.789-7.25q-1.469-.047-2.2,2.078l3.508.008.031-.164a2.451,2.451,0,0,0,.008-.7,1.438,1.438,0,0,0-.437-.875A1.385,1.385,0,0,0,23.867-7.094ZM28.148,0l1.219-7.047h-1.25l.25-1.406,1.188.008.109-.633a3.769,3.769,0,0,1,1.258-2.3,3.662,3.662,0,0,1,2.508-.789,5.067,5.067,0,0,1,1.191.156q.582.148,1.16.328l-.445,1.563a4.965,4.965,0,0,0-1.859-.4,1.776,1.776,0,0,0-1.969,1.563l-.1.516,1.68-.008-.25,1.406H31.227L30,0Zm6.516,0H32.8l1.469-8.453h1.852Zm5.789-1.352a1.778,1.778,0,0,0,1.176-.387,1.774,1.774,0,0,0,.652-1.051l1.75-.008a2.993,2.993,0,0,1-.605,1.523A3.52,3.52,0,0,1,42.094-.2a3.7,3.7,0,0,1-1.7.359,3.184,3.184,0,0,1-1.852-.562A3.11,3.11,0,0,1,37.43-1.918,4.836,4.836,0,0,1,37.2-4.07l.023-.273a5.531,5.531,0,0,1,.715-2.223,4.173,4.173,0,0,1,1.5-1.535,3.766,3.766,0,0,1,2.047-.508,2.957,2.957,0,0,1,2.2.91,3.215,3.215,0,0,1,.82,2.285H42.766A1.889,1.889,0,0,0,42.41-6.6a1.3,1.3,0,0,0-1.027-.492,1.876,1.876,0,0,0-1.711.922A5.146,5.146,0,0,0,39-3.484Q38.945-1.383,40.453-1.352ZM46.938,0H45.086l1.469-8.453h1.852ZM46.82-10.617a1.044,1.044,0,0,1,.281-.734,1.03,1.03,0,0,1,.758-.32.985.985,0,0,1,.754.277.96.96,0,0,1,.3.715.988.988,0,0,1-.293.734,1.074,1.074,0,0,1-.746.3,1,1,0,0,1-.75-.27A.929.929,0,0,1,46.82-10.617ZM52.836.156A3.541,3.541,0,0,1,50.926-.4a3.156,3.156,0,0,1-1.2-1.453,4.32,4.32,0,0,1-.293-2.055l.023-.32a5.657,5.657,0,0,1,.754-2.316A4.3,4.3,0,0,1,51.742-8.1a3.713,3.713,0,0,1,1.984-.508,2.769,2.769,0,0,1,2.379,1.182,4.337,4.337,0,0,1,.6,3l-.109.814h-5.32A2.3,2.3,0,0,0,51.68-2a1.61,1.61,0,0,0,1.313.631,2.847,2.847,0,0,0,2.2-1.039l.938.984a3.563,3.563,0,0,1-1.4,1.176A4.166,4.166,0,0,1,52.836.156Zm.789-7.25q-1.469-.047-2.2,2.078l3.508.008.031-.164a2.451,2.451,0,0,0,.008-.7,1.438,1.438,0,0,0-.437-.875A1.385,1.385,0,0,0,53.625-7.094Zm6.969-1.367-.187.992a3.226,3.226,0,0,1,2.508-1.141,2.044,2.044,0,0,1,1.758.848,3.383,3.383,0,0,1,.422,2.3L64.18,0H62.328l.922-5.484a2.806,2.806,0,0,0,.008-.625,1,1,0,0,0-1.109-.953A2.25,2.25,0,0,0,60.3-6.023L59.242,0H57.391l1.461-8.453Zm9.68-2.047-.359,2.055h1.445l-.242,1.406H69.664l-.8,4.734a1.619,1.619,0,0,0-.008.352q.047.508.625.531a3.529,3.529,0,0,0,.656-.07L70.016-.016a4.245,4.245,0,0,1-1.164.164A1.729,1.729,0,0,1,67.4-.512a2.389,2.389,0,0,1-.379-1.707l.789-4.828H66.461l.25-1.406h1.344l.359-2.055ZM75.2.156A3.541,3.541,0,0,1,73.285-.4a3.156,3.156,0,0,1-1.2-1.453A4.32,4.32,0,0,1,71.8-3.906l.023-.32a5.657,5.657,0,0,1,.754-2.316A4.3,4.3,0,0,1,74.1-8.1a3.713,3.713,0,0,1,1.984-.508,2.769,2.769,0,0,1,2.379,1.182,4.337,4.337,0,0,1,.6,3l-.109.814h-5.32A2.3,2.3,0,0,0,74.039-2a1.61,1.61,0,0,0,1.313.631,2.847,2.847,0,0,0,2.2-1.039l.938.984a3.563,3.563,0,0,1-1.4,1.176A4.166,4.166,0,0,1,75.2.156Zm.789-7.25q-1.469-.047-2.2,2.078l3.508.008.031-.164a2.451,2.451,0,0,0,.008-.7,1.437,1.437,0,0,0-.437-.875A1.385,1.385,0,0,0,75.984-7.094Zm8.141,2.859a6.7,6.7,0,0,1,.7-2.344A3.968,3.968,0,0,1,86.18-8.129a3.121,3.121,0,0,1,1.789-.488,2.5,2.5,0,0,1,2.016.961L90.8-12h1.859L90.57,0H88.914l.125-.875A2.946,2.946,0,0,1,86.727.164a2.325,2.325,0,0,1-1.887-.91,3.975,3.975,0,0,1-.762-2.379A6.316,6.316,0,0,1,84.1-4.07Zm1.8.727a2.6,2.6,0,0,0,.3,1.539,1.2,1.2,0,0,0,1.059.586,2.175,2.175,0,0,0,1.852-1.039l.633-3.633a1.445,1.445,0,0,0-1.422-1.008,1.9,1.9,0,0,0-1.711.938A5,5,0,0,0,85.922-3.508ZM96.383.156A3.541,3.541,0,0,1,94.473-.4a3.156,3.156,0,0,1-1.2-1.453,4.32,4.32,0,0,1-.293-2.055l.023-.32a5.657,5.657,0,0,1,.754-2.316A4.3,4.3,0,0,1,95.289-8.1a3.713,3.713,0,0,1,1.984-.508,2.769,2.769,0,0,1,2.379,1.182,4.337,4.337,0,0,1,.6,3l-.109.814H94.82A2.3,2.3,0,0,0,95.227-2a1.61,1.61,0,0,0,1.313.631,2.847,2.847,0,0,0,2.2-1.039l.938.984a3.563,3.563,0,0,1-1.4,1.176A4.166,4.166,0,0,1,96.383.156Zm.789-7.25q-1.469-.047-2.2,2.078l3.508.008.031-.164a2.451,2.451,0,0,0,.008-.7,1.437,1.437,0,0,0-.437-.875A1.385,1.385,0,0,0,97.172-7.094ZM108.234-2.43l2.672-6.023h1.977L108.719,0h-1.609l-1.547-8.453h1.859ZM117.57,0a2.507,2.507,0,0,1-.078-.789,3.134,3.134,0,0,1-2.258.945,2.589,2.589,0,0,1-1.824-.707,2.18,2.18,0,0,1-.676-1.754,2.588,2.588,0,0,1,1.156-2.1,5.034,5.034,0,0,1,2.938-.766l1.2.016.109-.578a1.744,1.744,0,0,0,0-.57,1.017,1.017,0,0,0-1.117-.867,1.685,1.685,0,0,0-1.043.3,1.3,1.3,0,0,0-.551.848l-1.852.016a2.318,2.318,0,0,1,.555-1.371,3.289,3.289,0,0,1,1.328-.918,4.5,4.5,0,0,1,1.75-.312,2.956,2.956,0,0,1,2.156.832,2.466,2.466,0,0,1,.641,2.074l-.648,3.961-.062.7a2.5,2.5,0,0,0,.117.9L119.406,0Zm-1.906-1.359a2.041,2.041,0,0,0,1.086-.27,2.861,2.861,0,0,0,.852-.738l.289-1.6-.883-.008a3.1,3.1,0,0,0-1.672.395,1.447,1.447,0,0,0-.711,1.082.957.957,0,0,0,.23.824A1.127,1.127,0,0,0,115.664-1.359Zm10.891-5.359a3.411,3.411,0,0,0-.727-.078,2.168,2.168,0,0,0-1.937,1.008L122.875,0h-1.852l1.461-8.453,1.758-.008-.187.961a2.419,2.419,0,0,1,2-1.125,3.039,3.039,0,0,1,.711.117ZM128.523,0h-1.852l1.469-8.453h1.852Zm-.117-10.617a1.044,1.044,0,0,1,.281-.734,1.03,1.03,0,0,1,.758-.32.985.985,0,0,1,.754.277.96.96,0,0,1,.3.715.988.988,0,0,1-.293.734,1.074,1.074,0,0,1-.746.3,1,1,0,0,1-.75-.27A.929.929,0,0,1,128.406-10.617ZM135.617,0a2.507,2.507,0,0,1-.078-.789,3.134,3.134,0,0,1-2.258.945,2.589,2.589,0,0,1-1.824-.707,2.18,2.18,0,0,1-.676-1.754,2.588,2.588,0,0,1,1.156-2.1,5.034,5.034,0,0,1,2.938-.766l1.2.016.109-.578a1.744,1.744,0,0,0,0-.57,1.017,1.017,0,0,0-1.117-.867,1.685,1.685,0,0,0-1.043.3,1.3,1.3,0,0,0-.551.848l-1.852.016a2.318,2.318,0,0,1,.555-1.371,3.289,3.289,0,0,1,1.328-.918,4.5,4.5,0,0,1,1.75-.312,2.956,2.956,0,0,1,2.156.832,2.466,2.466,0,0,1,.641,2.074l-.648,3.961-.062.7a2.5,2.5,0,0,0,.117.9L137.453,0Zm-1.906-1.359a2.041,2.041,0,0,0,1.086-.27,2.862,2.862,0,0,0,.852-.738l.289-1.6-.883-.008a3.1,3.1,0,0,0-1.672.395,1.447,1.447,0,0,0-.711,1.082.957.957,0,0,0,.23.824A1.127,1.127,0,0,0,133.711-1.359Zm9.047.008a1.778,1.778,0,0,0,1.176-.387,1.774,1.774,0,0,0,.652-1.051l1.75-.008a2.993,2.993,0,0,1-.605,1.523A3.52,3.52,0,0,1,144.4-.2a3.7,3.7,0,0,1-1.7.359,3.184,3.184,0,0,1-1.852-.562,3.11,3.11,0,0,1-1.117-1.512A4.836,4.836,0,0,1,139.5-4.07l.023-.273a5.532,5.532,0,0,1,.715-2.223,4.173,4.173,0,0,1,1.5-1.535,3.766,3.766,0,0,1,2.047-.508,2.957,2.957,0,0,1,2.2.91,3.215,3.215,0,0,1,.82,2.285H145.07a1.889,1.889,0,0,0-.355-1.187,1.3,1.3,0,0,0-1.027-.492,1.876,1.876,0,0,0-1.711.922,5.146,5.146,0,0,0-.672,2.688Q141.25-1.383,142.758-1.352ZM149.242,0h-1.852l1.469-8.453h1.852Zm-.117-10.617a1.044,1.044,0,0,1,.281-.734,1.03,1.03,0,0,1,.758-.32.985.985,0,0,1,.754.277.96.96,0,0,1,.3.715.988.988,0,0,1-.293.734,1.074,1.074,0,0,1-.746.3,1,1,0,0,1-.75-.27A.929.929,0,0,1,149.125-10.617Zm2.633,6.359a5.562,5.562,0,0,1,.73-2.258,4.335,4.335,0,0,1,1.535-1.57,3.794,3.794,0,0,1,2.078-.523,3.229,3.229,0,0,1,1.875.578,3.21,3.21,0,0,1,1.152,1.539,4.886,4.886,0,0,1,.254,2.172,5.665,5.665,0,0,1-.73,2.375,4.318,4.318,0,0,1-1.547,1.582,3.848,3.848,0,0,1-2.09.52,3.214,3.214,0,0,1-1.863-.574A3.222,3.222,0,0,1,152-1.949a4.824,4.824,0,0,1-.266-2.145Zm1.82,1.07a2.232,2.232,0,0,0,.434,1.316,1.387,1.387,0,0,0,1.1.52,1.948,1.948,0,0,0,1.6-.734,3.863,3.863,0,0,0,.809-2.07l.047-.766a2.7,2.7,0,0,0-.4-1.57,1.4,1.4,0,0,0-1.156-.6,2.024,2.024,0,0,0-1.875,1.164,4.349,4.349,0,0,0-.523,1.672A6.541,6.541,0,0,0,153.578-3.187ZM157.188-12h2.227l-2.469,2.367-1.609,0Zm6.219,3.539-.187.992a3.226,3.226,0,0,1,2.508-1.141,2.044,2.044,0,0,1,1.758.848,3.383,3.383,0,0,1,.422,2.3L166.992,0h-1.852l.922-5.484a2.806,2.806,0,0,0,.008-.625,1,1,0,0,0-1.109-.953,2.25,2.25,0,0,0-1.852,1.039L162.055,0H160.2l1.461-8.453Z" transform="translate(-8957.5 -6294)" fill="#fff"/>
  </g>
</svg>
