<svg xmlns="http://www.w3.org/2000/svg" width="600.961" height="234.482" viewBox="0 0 600.961 234.482">
  <g id="Grupo_166885" data-name="Grupo 166885" transform="translate(9355.5 5949)">
    <path id="Trazado_197443" data-name="Trazado 197443" d="M1.074,0V-14.219h4.58a6.737,6.737,0,0,1,3.389.854,6.006,6.006,0,0,1,2.349,2.412,7.283,7.283,0,0,1,.854,3.491v.654a7.325,7.325,0,0,1-.825,3.5A6.032,6.032,0,0,1,9.1-.884,6.589,6.589,0,0,1,5.752,0ZM4.5-11.572v8.936H5.693a2.666,2.666,0,0,0,2.266-1.05,5.145,5.145,0,0,0,.791-3.12v-.615a5.1,5.1,0,0,0-.791-3.105,2.713,2.713,0,0,0-2.3-1.045Zm8.936,6.191A6.236,6.236,0,0,1,14.053-8.2a4.4,4.4,0,0,1,1.768-1.9,5.323,5.323,0,0,1,2.705-.664,4.858,4.858,0,0,1,3.74,1.47,5.64,5.64,0,0,1,1.367,4v.117a5.472,5.472,0,0,1-1.372,3.921A4.871,4.871,0,0,1,18.545.2a4.927,4.927,0,0,1-3.623-1.353,5.29,5.29,0,0,1-1.475-3.667Zm3.291.205a3.932,3.932,0,0,0,.459,2.148,1.529,1.529,0,0,0,1.357.684q1.758,0,1.8-2.705v-.332q0-2.842-1.816-2.842-1.65,0-1.787,2.451Zm11.377-5.391.107,1.24a3.583,3.583,0,0,1,3.018-1.436,3.015,3.015,0,0,1,2.466.986,4.7,4.7,0,0,1,.845,2.969V0h-3.3V-6.67a1.783,1.783,0,0,0-.322-1.177,1.491,1.491,0,0,0-1.172-.376,1.569,1.569,0,0,0-1.436.762V0H25.02V-10.566Zm7.842,5.205a6.455,6.455,0,0,1,1.084-3.955,3.568,3.568,0,0,1,3.027-1.445,3.035,3.035,0,0,1,2.383,1.113V-15h3.3V0H42.783l-.166-1.133A3.116,3.116,0,0,1,40.039.2,3.562,3.562,0,0,1,37.051-1.25,6.659,6.659,0,0,1,35.947-5.361Zm3.291.205q0,2.813,1.641,2.813a1.62,1.62,0,0,0,1.563-.918V-7.285A1.576,1.576,0,0,0,40.9-8.223q-1.523,0-1.65,2.461ZM52.725.2a5.432,5.432,0,0,1-3.936-1.45,5.008,5.008,0,0,1-1.5-3.774V-5.3a6.489,6.489,0,0,1,.6-2.861,4.395,4.395,0,0,1,1.753-1.919,5.292,5.292,0,0,1,2.734-.679A4.574,4.574,0,0,1,55.889-9.38a5.43,5.43,0,0,1,1.289,3.853v1.279H50.635a2.372,2.372,0,0,0,.771,1.4,2.3,2.3,0,0,0,1.543.508,2.958,2.958,0,0,0,2.441-1.094l1.5,1.777A4.2,4.2,0,0,1,55.151-.308,5.891,5.891,0,0,1,52.725.2Zm-.371-8.418q-1.445,0-1.719,1.914h3.32v-.254a1.63,1.63,0,0,0-.4-1.226A1.593,1.593,0,0,0,52.354-8.223Zm8.193,5.029a1.874,1.874,0,0,1,1.3.464,1.522,1.522,0,0,1,.518,1.187,1.522,1.522,0,0,1-.518,1.187,1.874,1.874,0,0,1-1.3.464,1.858,1.858,0,0,1-1.3-.469,1.533,1.533,0,0,1-.513-1.182,1.533,1.533,0,0,1,.513-1.182A1.858,1.858,0,0,1,60.547-3.193Zm0-7.793a1.874,1.874,0,0,1,1.3.464,1.522,1.522,0,0,1,.518,1.187,1.522,1.522,0,0,1-.518,1.187,1.874,1.874,0,0,1-1.3.464,1.858,1.858,0,0,1-1.3-.469,1.533,1.533,0,0,1-.513-1.182,1.533,1.533,0,0,1,.513-1.182A1.858,1.858,0,0,1,60.547-10.986Z" transform="translate(-9353.244 -5752.757)" fill="#12263f"/>
    <path id="Trazado_197463" data-name="Trazado 197463" d="M5,0H162.4a5,5,0,0,1,5,5V16.685a5,5,0,0,1-5,5H5a5,5,0,0,1-5-5V5A5,5,0,0,1,5,0Z" transform="translate(-9355.5 -5736.202)" fill="#a4a3ff"/>
    <path id="Trazado_197460" data-name="Trazado 197460" d="M5,0H201.437a5,5,0,0,1,5,5V16.685a5,5,0,0,1-5,5H5a5,5,0,0,1-5-5V5A5,5,0,0,1,5,0Z" transform="translate(-9182.13 -5736.202)" fill="#a4a3ff"/>
    <path id="Trazado_197459" data-name="Trazado 197459" d="M5,0H207.587a5,5,0,0,1,5,5V16.685a5,5,0,0,1-5,5H5a5,5,0,0,1-5-5V5A5,5,0,0,1,5,0Z" transform="translate(-8967.126 -5736.202)" fill="#a4a3ff"/>
    <path id="Trazado_197464" data-name="Trazado 197464" d="M3.575-5.188,4.819-7.4H6.932L4.826-3.773,7.021,0H4.9L3.582-2.324,2.27,0H.144L2.338-3.773.239-7.4H2.358ZM9.967,0H7.984V-7.4H9.967Zm-2.1-9.311a.973.973,0,0,1,.3-.731,1.117,1.117,0,0,1,.81-.287,1.12,1.12,0,0,1,.807.287.967.967,0,0,1,.3.731.97.97,0,0,1-.3.738,1.122,1.122,0,0,1-.8.287,1.122,1.122,0,0,1-.8-.287A.97.97,0,0,1,7.868-9.311ZM17.78.137a3.1,3.1,0,0,1-1.671-.485A2.761,2.761,0,0,1,15.063-1.62a3.78,3.78,0,0,1-.256-1.8l.021-.28a4.95,4.95,0,0,1,.66-2.027,3.764,3.764,0,0,1,1.336-1.364,3.249,3.249,0,0,1,1.736-.444A2.423,2.423,0,0,1,20.641-6.5a3.8,3.8,0,0,1,.523,2.622l-.1.712H16.413a2.009,2.009,0,0,0,.355,1.417,1.409,1.409,0,0,0,1.148.552,2.491,2.491,0,0,0,1.928-.909l.82.861A3.118,3.118,0,0,1,19.441-.215,3.645,3.645,0,0,1,17.78.137Zm.69-6.344q-1.285-.041-1.928,1.818l3.069.007.027-.144a2.145,2.145,0,0,0,.007-.615,1.258,1.258,0,0,0-.383-.766A1.212,1.212,0,0,0,18.471-6.207Zm7.738,4.156q.116-.677-.878-.94a11.168,11.168,0,0,1-1.357-.42,1.871,1.871,0,0,1-1.36-1.832,2.081,2.081,0,0,1,.906-1.651,3.319,3.319,0,0,1,2.088-.639,2.858,2.858,0,0,1,1.917.663,2.115,2.115,0,0,1,.728,1.7l-1.606-.007a1.037,1.037,0,0,0-.28-.8,1.143,1.143,0,0,0-.807-.3,1.59,1.59,0,0,0-.926.267.994.994,0,0,0-.448.7q-.1.622.875.865a9.6,9.6,0,0,1,1.436.448A1.872,1.872,0,0,1,27.8-2.146,2.044,2.044,0,0,1,27.34-.919a2.693,2.693,0,0,1-1.145.8,3.917,3.917,0,0,1-1.524.256,3.008,3.008,0,0,1-2.006-.7,2.2,2.2,0,0,1-.783-1.771l1.565.007a1.191,1.191,0,0,0,.355.9,1.374,1.374,0,0,0,.937.314,1.86,1.86,0,0,0,1-.25A.957.957,0,0,0,26.209-2.051ZM36.887-.731a2.682,2.682,0,0,1-2.105.868,2.061,2.061,0,0,1-1.193-.355,1.849,1.849,0,0,1-.677-.954,3.491,3.491,0,0,1-.12-1.439l.8-4.785h1.62l-.807,4.806A2.547,2.547,0,0,0,34.4-2.1a.832.832,0,0,0,.854.882,1.956,1.956,0,0,0,1.736-.861l.93-5.318h1.62L38.261,0H36.743ZM42.711-7.4l-.164.868a2.822,2.822,0,0,1,2.194-1,1.788,1.788,0,0,1,1.538.742,2.96,2.96,0,0,1,.369,2.013L45.849,0h-1.62l.807-4.8a2.456,2.456,0,0,0,.007-.547.872.872,0,0,0-.971-.834,1.969,1.969,0,0,0-1.62.909L41.528,0h-1.62l1.278-7.4Zm11.2,5.277L56.253-7.4h1.729L54.339,0H52.931L51.577-7.4H53.2ZM62.084,0a2.194,2.194,0,0,1-.068-.69A2.743,2.743,0,0,1,60.04.137a2.266,2.266,0,0,1-1.6-.619,1.908,1.908,0,0,1-.591-1.535,2.265,2.265,0,0,1,1.012-1.839,4.4,4.4,0,0,1,2.57-.67l1.053.014.1-.506a1.526,1.526,0,0,0,0-.5.89.89,0,0,0-.978-.759,1.474,1.474,0,0,0-.913.263,1.139,1.139,0,0,0-.482.742l-1.62.014a2.028,2.028,0,0,1,.485-1.2,2.878,2.878,0,0,1,1.162-.8,3.934,3.934,0,0,1,1.531-.273,2.587,2.587,0,0,1,1.887.728,2.157,2.157,0,0,1,.561,1.815l-.567,3.466-.055.615a2.185,2.185,0,0,0,.1.786L63.69,0ZM60.416-1.189a1.786,1.786,0,0,0,.95-.236,2.5,2.5,0,0,0,.745-.646l.253-1.4-.772-.007a2.715,2.715,0,0,0-1.463.345,1.266,1.266,0,0,0-.622.947.837.837,0,0,0,.2.721A.986.986,0,0,0,60.416-1.189ZM66.828,0h-1.62l1.825-10.5h1.62Zm2.2-3.726A4.867,4.867,0,0,1,69.668-5.7a3.793,3.793,0,0,1,1.343-1.374,3.319,3.319,0,0,1,1.818-.458,2.825,2.825,0,0,1,1.641.506,2.809,2.809,0,0,1,1.008,1.347,4.276,4.276,0,0,1,.222,1.9A4.957,4.957,0,0,1,75.062-1.7,3.779,3.779,0,0,1,73.708-.318,3.367,3.367,0,0,1,71.88.137a2.812,2.812,0,0,1-1.63-.5,2.819,2.819,0,0,1-1.008-1.34,4.221,4.221,0,0,1-.232-1.876Zm1.593.937A1.953,1.953,0,0,0,71-1.637a1.214,1.214,0,0,0,.96.455,1.7,1.7,0,0,0,1.4-.643,3.381,3.381,0,0,0,.708-1.812l.041-.67a2.367,2.367,0,0,0-.349-1.374,1.224,1.224,0,0,0-1.012-.526,1.771,1.771,0,0,0-1.641,1.019,3.805,3.805,0,0,0-.458,1.463A5.724,5.724,0,0,0,70.622-2.789Zm10.657-3.09a2.984,2.984,0,0,0-.636-.068,1.9,1.9,0,0,0-1.7.882L78.06,0h-1.62l1.278-7.4L79.256-7.4l-.164.841a2.117,2.117,0,0,1,1.75-.984,2.66,2.66,0,0,1,.622.1ZM86.454,0h-1.62l1.285-7.4h1.62Zm-.1-9.29a.914.914,0,0,1,.246-.643.9.9,0,0,1,.663-.28.862.862,0,0,1,.66.243.84.84,0,0,1,.263.625.864.864,0,0,1-.256.643.939.939,0,0,1-.653.267.876.876,0,0,1-.656-.236A.813.813,0,0,1,86.352-9.29Zm4.7,1.887-.164.868a2.822,2.822,0,0,1,2.194-1,1.788,1.788,0,0,1,1.538.742,2.961,2.961,0,0,1,.369,2.013L94.186,0h-1.62l.807-4.8a2.456,2.456,0,0,0,.007-.547.872.872,0,0,0-.971-.834,1.969,1.969,0,0,0-1.62.909L89.865,0h-1.62l1.278-7.4Zm5.2,3.7a5.86,5.86,0,0,1,.615-2.051,3.472,3.472,0,0,1,1.183-1.357,2.731,2.731,0,0,1,1.565-.427,2.185,2.185,0,0,1,1.764.841l.711-3.8h1.627L101.883,0h-1.449l.109-.766A2.578,2.578,0,0,1,98.52.144a2.034,2.034,0,0,1-1.651-.8A3.478,3.478,0,0,1,96.2-2.734a5.527,5.527,0,0,1,.021-.827Zm1.572.636a2.277,2.277,0,0,0,.263,1.347A1.051,1.051,0,0,0,99-1.21a1.9,1.9,0,0,0,1.62-.909l.554-3.179a1.265,1.265,0,0,0-1.244-.882,1.664,1.664,0,0,0-1.5.82A4.373,4.373,0,0,0,97.815-3.069ZM105.342,0h-1.62l1.285-7.4h1.62Zm-.1-9.29a.914.914,0,0,1,.246-.643.9.9,0,0,1,.663-.28.862.862,0,0,1,.66.243.84.84,0,0,1,.263.625.864.864,0,0,1-.256.643.939.939,0,0,1-.653.267.876.876,0,0,1-.656-.236A.813.813,0,0,1,105.239-9.29Zm4.826,7.164L112.4-7.4h1.729L110.489,0h-1.408l-1.354-7.4h1.627ZM115.664,0h-1.62l1.285-7.4h1.62Zm-.1-9.29a.914.914,0,0,1,.246-.643.9.9,0,0,1,.663-.28.862.862,0,0,1,.66.243.84.84,0,0,1,.263.625.864.864,0,0,1-.256.643.939.939,0,0,1-.653.267.876.876,0,0,1-.656-.236A.813.813,0,0,1,115.562-9.29Zm2.27,5.585a5.86,5.86,0,0,1,.615-2.051,3.472,3.472,0,0,1,1.183-1.357,2.731,2.731,0,0,1,1.565-.427,2.185,2.185,0,0,1,1.764.841l.711-3.8H125.3L123.471,0h-1.449l.109-.766a2.578,2.578,0,0,1-2.023.909,2.034,2.034,0,0,1-1.651-.8,3.478,3.478,0,0,1-.667-2.082,5.527,5.527,0,0,1,.021-.827Zm1.572.636a2.277,2.277,0,0,0,.263,1.347,1.051,1.051,0,0,0,.926.513,1.9,1.9,0,0,0,1.62-.909l.554-3.179a1.265,1.265,0,0,0-1.244-.882,1.664,1.664,0,0,0-1.5.82A4.373,4.373,0,0,0,119.4-3.069ZM129.78-.731a2.682,2.682,0,0,1-2.105.868,2.061,2.061,0,0,1-1.193-.355,1.849,1.849,0,0,1-.677-.954,3.491,3.491,0,0,1-.12-1.439l.8-4.785h1.62L127.3-2.591a2.548,2.548,0,0,0-.007.492.832.832,0,0,0,.854.882,1.956,1.956,0,0,0,1.736-.861l.93-5.318h1.62L131.154,0h-1.518ZM137.218,0a2.194,2.194,0,0,1-.068-.69,2.743,2.743,0,0,1-1.976.827,2.266,2.266,0,0,1-1.6-.619,1.908,1.908,0,0,1-.591-1.535A2.265,2.265,0,0,1,134-3.855a4.4,4.4,0,0,1,2.57-.67l1.053.014.1-.506a1.526,1.526,0,0,0,0-.5.89.89,0,0,0-.978-.759,1.474,1.474,0,0,0-.913.263,1.139,1.139,0,0,0-.482.742l-1.62.014a2.028,2.028,0,0,1,.485-1.2,2.878,2.878,0,0,1,1.162-.8,3.934,3.934,0,0,1,1.531-.273,2.587,2.587,0,0,1,1.887.728,2.157,2.157,0,0,1,.561,1.815l-.567,3.466-.055.615a2.185,2.185,0,0,0,.1.786L138.824,0ZM135.55-1.189a1.786,1.786,0,0,0,.95-.236,2.5,2.5,0,0,0,.745-.646l.253-1.4-.772-.007a2.715,2.715,0,0,0-1.463.345,1.266,1.266,0,0,0-.622.947.837.837,0,0,0,.2.721A.986.986,0,0,0,135.55-1.189ZM141.962,0h-1.62l1.825-10.5h1.62Z" transform="translate(-9347.457 -5720.6)" fill="#fff"/>
    <path id="Trazado_197461" data-name="Trazado 197461" d="M2.926-7.4v4.259A2.29,2.29,0,0,0,3.2-1.87a1.069,1.069,0,0,0,.954.407,1.444,1.444,0,0,0,1.4-.718V-7.4H7.533V0H5.694L5.653-.465A2.085,2.085,0,0,1,4.115.144,2.2,2.2,0,0,1,2.926-.164V2.844H.95V-7.4ZM16.133.137a3.232,3.232,0,0,1-2.447-.988,3.666,3.666,0,0,1-.943-2.642v-.232a4.438,4.438,0,0,1,.42-1.965,3.28,3.28,0,0,1,1.176-1.354,2.956,2.956,0,0,1,1.637-.489,2.77,2.77,0,0,1,2.242.95,4.114,4.114,0,0,1,.8,2.721v.526H14.007a2.629,2.629,0,0,0,.639,1.767A2.009,2.009,0,0,0,16.2-.9a2.2,2.2,0,0,0,1.135-.273,2.851,2.851,0,0,0,.813-.725l.772.6A3.106,3.106,0,0,1,16.133.137Zm-.157-6.631a1.687,1.687,0,0,0-1.285.557,2.708,2.708,0,0,0-.643,1.562h3.705v-.1a2.409,2.409,0,0,0-.52-1.494A1.588,1.588,0,0,0,15.976-6.494Zm8.812,4.532a.931.931,0,0,0-.386-.8,3.718,3.718,0,0,0-1.347-.489,6.367,6.367,0,0,1-1.524-.492,2.169,2.169,0,0,1-.834-.684,1.635,1.635,0,0,1-.27-.943A1.919,1.919,0,0,1,21.195-6.9a3,3,0,0,1,1.965-.629,3.091,3.091,0,0,1,2.041.649,2.063,2.063,0,0,1,.783,1.661H24.712a1.142,1.142,0,0,0-.441-.9,1.652,1.652,0,0,0-1.111-.376,1.729,1.729,0,0,0-1.08.3.947.947,0,0,0-.39.786.767.767,0,0,0,.362.69,4.458,4.458,0,0,0,1.309.444,6.821,6.821,0,0,1,1.535.506,2.239,2.239,0,0,1,.872.708,1.74,1.74,0,0,1,.284,1.008,1.893,1.893,0,0,1-.793,1.589,3.326,3.326,0,0,1-2.058.6,3.725,3.725,0,0,1-1.572-.314,2.557,2.557,0,0,1-1.07-.878,2.117,2.117,0,0,1-.386-1.22h1.265a1.309,1.309,0,0,0,.509,1.008A1.976,1.976,0,0,0,23.2-.9a2.039,2.039,0,0,0,1.152-.291A.893.893,0,0,0,24.787-1.962Zm9.447,2.1a3.232,3.232,0,0,1-2.447-.988,3.666,3.666,0,0,1-.943-2.642v-.232a4.438,4.438,0,0,1,.42-1.965A3.28,3.28,0,0,1,32.44-7.044a2.956,2.956,0,0,1,1.637-.489,2.77,2.77,0,0,1,2.242.95,4.114,4.114,0,0,1,.8,2.721v.526H32.108a2.629,2.629,0,0,0,.639,1.767A2.009,2.009,0,0,0,34.3-.9a2.2,2.2,0,0,0,1.135-.273,2.851,2.851,0,0,0,.813-.725l.772.6A3.106,3.106,0,0,1,34.234.137Zm-.157-6.631a1.687,1.687,0,0,0-1.285.557,2.708,2.708,0,0,0-.643,1.562h3.705v-.1a2.409,2.409,0,0,0-.52-1.494A1.588,1.588,0,0,0,34.077-6.494ZM39.956,0H38.691V-10.5h1.265Zm7.93-1.716L49.718-7.4H51.01L48.357,0h-.964l-2.68-7.4h1.292ZM56.69,0a2.657,2.657,0,0,1-.178-.779,2.822,2.822,0,0,1-2.105.916,2.611,2.611,0,0,1-1.794-.619,2,2,0,0,1-.7-1.569,2.091,2.091,0,0,1,.878-1.794,4.142,4.142,0,0,1,2.471-.639h1.23v-.581a1.42,1.42,0,0,0-.4-1.056,1.593,1.593,0,0,0-1.169-.393,1.844,1.844,0,0,0-1.135.342,1.007,1.007,0,0,0-.458.827H52.063a1.745,1.745,0,0,1,.393-1.07,2.683,2.683,0,0,1,1.066-.817,3.588,3.588,0,0,1,1.48-.3,2.924,2.924,0,0,1,2,.639,2.306,2.306,0,0,1,.752,1.76v3.4a4.162,4.162,0,0,0,.26,1.62V0Zm-2.1-.964a2.223,2.223,0,0,0,1.128-.308,1.861,1.861,0,0,0,.772-.8V-3.589H55.5q-2.324,0-2.324,1.36a1.151,1.151,0,0,0,.4.93A1.524,1.524,0,0,0,54.592-.964ZM61.113,0H59.849V-10.5h1.265ZM62.8-3.767a4.369,4.369,0,0,1,.427-1.955,3.187,3.187,0,0,1,1.189-1.34,3.238,3.238,0,0,1,1.74-.472A3.119,3.119,0,0,1,68.6-6.487a4.024,4.024,0,0,1,.933,2.782v.089a4.407,4.407,0,0,1-.414,1.938A3.14,3.14,0,0,1,67.939-.342a3.275,3.275,0,0,1-1.767.479A3.111,3.111,0,0,1,63.735-.909,4,4,0,0,1,62.8-3.678Zm1.271.15a3.164,3.164,0,0,0,.571,1.976A1.827,1.827,0,0,0,66.172-.9,1.816,1.816,0,0,0,67.7-1.651a3.46,3.46,0,0,0,.567-2.116,3.159,3.159,0,0,0-.578-1.972,1.836,1.836,0,0,0-1.535-.755,1.816,1.816,0,0,0-1.511.745A3.434,3.434,0,0,0,64.073-3.616ZM74.7-6.262a3.79,3.79,0,0,0-.622-.048,1.667,1.667,0,0,0-1.688,1.06V0H71.121V-7.4h1.23l.021.854a1.969,1.969,0,0,1,1.764-.991,1.292,1.292,0,0,1,.561.1ZM80.514-7.4l.034.82a2.732,2.732,0,0,1,2.194-.957,2.115,2.115,0,0,1,2.112,1.189,2.8,2.8,0,0,1,.96-.861,2.837,2.837,0,0,1,1.4-.328q2.434,0,2.475,2.577V0H88.423V-4.881a1.7,1.7,0,0,0-.362-1.186,1.6,1.6,0,0,0-1.217-.393,1.677,1.677,0,0,0-1.169.42,1.706,1.706,0,0,0-.54,1.131V0H83.863V-4.847A1.411,1.411,0,0,0,82.284-6.46a1.692,1.692,0,0,0-1.7,1.06V0H79.317V-7.4ZM94.664.137a3.232,3.232,0,0,1-2.447-.988,3.666,3.666,0,0,1-.943-2.642v-.232a4.438,4.438,0,0,1,.42-1.965A3.28,3.28,0,0,1,92.87-7.044a2.956,2.956,0,0,1,1.637-.489,2.77,2.77,0,0,1,2.242.95,4.114,4.114,0,0,1,.8,2.721v.526H92.538a2.629,2.629,0,0,0,.639,1.767A2.009,2.009,0,0,0,94.732-.9a2.2,2.2,0,0,0,1.135-.273,2.851,2.851,0,0,0,.813-.725l.772.6A3.106,3.106,0,0,1,94.664.137Zm-.157-6.631a1.687,1.687,0,0,0-1.285.557,2.708,2.708,0,0,0-.643,1.562h3.705v-.1a2.409,2.409,0,0,0-.52-1.494A1.588,1.588,0,0,0,94.507-6.494ZM98.7-3.76A4.333,4.333,0,0,1,99.511-6.5a2.551,2.551,0,0,1,2.112-1.036,2.565,2.565,0,0,1,2.058.889V-10.5h1.265V0h-1.162l-.062-.793a2.575,2.575,0,0,1-2.112.93,2.526,2.526,0,0,1-2.1-1.053,4.382,4.382,0,0,1-.81-2.748Zm1.265.144a3.281,3.281,0,0,0,.52,1.969,1.68,1.68,0,0,0,1.436.711,1.845,1.845,0,0,0,1.757-1.08v-3.4a1.859,1.859,0,0,0-1.743-1.046,1.687,1.687,0,0,0-1.449.718A3.612,3.612,0,0,0,99.969-3.616ZM108.281,0h-1.265V-7.4h1.265Zm-1.367-9.358a.755.755,0,0,1,.188-.52.706.706,0,0,1,.557-.212.717.717,0,0,1,.561.212.747.747,0,0,1,.191.52.722.722,0,0,1-.191.513.73.73,0,0,1-.561.205.718.718,0,0,1-.557-.205A.73.73,0,0,1,106.914-9.358Zm3.056,5.592a4.369,4.369,0,0,1,.427-1.955,3.187,3.187,0,0,1,1.189-1.34,3.238,3.238,0,0,1,1.74-.472,3.119,3.119,0,0,1,2.444,1.046,4.024,4.024,0,0,1,.933,2.782v.089a4.407,4.407,0,0,1-.414,1.938,3.14,3.14,0,0,1-1.183,1.336,3.275,3.275,0,0,1-1.767.479A3.111,3.111,0,0,1,110.9-.909a4,4,0,0,1-.933-2.769Zm1.271.15a3.164,3.164,0,0,0,.571,1.976A1.827,1.827,0,0,0,113.34-.9a1.816,1.816,0,0,0,1.531-.755,3.46,3.46,0,0,0,.567-2.116,3.159,3.159,0,0,0-.578-1.972,1.836,1.836,0,0,0-1.535-.755,1.816,1.816,0,0,0-1.511.745A3.434,3.434,0,0,0,111.241-3.616ZM122.008.854h-1.087l4.156-10.808h1.08ZM134.06.137a3.232,3.232,0,0,1-2.447-.988,3.666,3.666,0,0,1-.943-2.642v-.232a4.438,4.438,0,0,1,.42-1.965,3.279,3.279,0,0,1,1.176-1.354,2.956,2.956,0,0,1,1.637-.489,2.77,2.77,0,0,1,2.242.95,4.114,4.114,0,0,1,.8,2.721v.526h-5.011a2.629,2.629,0,0,0,.639,1.767,2.009,2.009,0,0,0,1.555.673,2.2,2.2,0,0,0,1.135-.273,2.851,2.851,0,0,0,.813-.725l.772.6A3.106,3.106,0,0,1,134.06.137ZM133.9-6.494a1.687,1.687,0,0,0-1.285.557,2.708,2.708,0,0,0-.643,1.562h3.705v-.1a2.409,2.409,0,0,0-.52-1.494A1.588,1.588,0,0,0,133.9-6.494Zm8.812,4.532a.931.931,0,0,0-.386-.8,3.718,3.718,0,0,0-1.347-.489,6.367,6.367,0,0,1-1.524-.492,2.169,2.169,0,0,1-.834-.684,1.635,1.635,0,0,1-.27-.943,1.919,1.919,0,0,1,.769-1.538,3,3,0,0,1,1.965-.629,3.091,3.091,0,0,1,2.041.649,2.063,2.063,0,0,1,.783,1.661h-1.271a1.142,1.142,0,0,0-.441-.9,1.652,1.652,0,0,0-1.111-.376,1.729,1.729,0,0,0-1.08.3.947.947,0,0,0-.39.786.767.767,0,0,0,.362.69,4.458,4.458,0,0,0,1.309.444,6.821,6.821,0,0,1,1.535.506,2.239,2.239,0,0,1,.872.708,1.74,1.74,0,0,1,.284,1.008,1.893,1.893,0,0,1-.793,1.589,3.326,3.326,0,0,1-2.058.6,3.725,3.725,0,0,1-1.572-.314,2.557,2.557,0,0,1-1.07-.878,2.117,2.117,0,0,1-.386-1.22h1.265a1.309,1.309,0,0,0,.509,1.008,1.976,1.976,0,0,0,1.254.373,2.039,2.039,0,0,0,1.152-.291A.893.893,0,0,0,142.714-1.962Zm9.16-1.654A4.429,4.429,0,0,1,151.1-.9,2.476,2.476,0,0,1,149.01.137a2.713,2.713,0,0,1-2.119-.854V2.844h-1.265V-7.4h1.155l.062.82a2.605,2.605,0,0,1,2.146-.957,2.522,2.522,0,0,1,2.109,1,4.477,4.477,0,0,1,.776,2.8Zm-1.265-.144a3.268,3.268,0,0,0-.533-1.976,1.718,1.718,0,0,0-1.463-.725,1.859,1.859,0,0,0-1.723,1.019v3.534A1.863,1.863,0,0,0,148.627-.9a1.71,1.71,0,0,0,1.446-.721A3.567,3.567,0,0,0,150.609-3.76Zm5.94,3.9A3.232,3.232,0,0,1,154.1-.851a3.666,3.666,0,0,1-.943-2.642v-.232a4.438,4.438,0,0,1,.42-1.965,3.279,3.279,0,0,1,1.176-1.354,2.956,2.956,0,0,1,1.637-.489,2.77,2.77,0,0,1,2.242.95,4.114,4.114,0,0,1,.8,2.721v.526h-5.011a2.629,2.629,0,0,0,.639,1.767,2.009,2.009,0,0,0,1.555.673,2.2,2.2,0,0,0,1.135-.273,2.851,2.851,0,0,0,.813-.725l.772.6A3.106,3.106,0,0,1,156.55.137Zm-.157-6.631a1.687,1.687,0,0,0-1.285.557,2.708,2.708,0,0,0-.643,1.562h3.705v-.1a2.409,2.409,0,0,0-.52-1.494A1.588,1.588,0,0,0,156.393-6.494Zm8.08.232a3.79,3.79,0,0,0-.622-.048,1.667,1.667,0,0,0-1.688,1.06V0H160.9V-7.4h1.23l.021.854a1.969,1.969,0,0,1,1.764-.991,1.292,1.292,0,0,1,.561.1ZM169.928,0a2.657,2.657,0,0,1-.178-.779,2.822,2.822,0,0,1-2.105.916,2.611,2.611,0,0,1-1.794-.619,2,2,0,0,1-.7-1.569,2.091,2.091,0,0,1,.878-1.794,4.142,4.142,0,0,1,2.471-.639h1.23v-.581a1.42,1.42,0,0,0-.4-1.056,1.593,1.593,0,0,0-1.169-.393,1.844,1.844,0,0,0-1.135.342,1.007,1.007,0,0,0-.458.827H165.3a1.745,1.745,0,0,1,.393-1.07,2.683,2.683,0,0,1,1.066-.817,3.588,3.588,0,0,1,1.48-.3,2.924,2.924,0,0,1,2,.639,2.306,2.306,0,0,1,.752,1.76v3.4a4.162,4.162,0,0,0,.26,1.62V0Zm-2.1-.964a2.223,2.223,0,0,0,1.128-.308,1.861,1.861,0,0,0,.772-.8V-3.589h-.991q-2.324,0-2.324,1.36a1.151,1.151,0,0,0,.4.93A1.524,1.524,0,0,0,167.829-.964Zm4.84-2.8a4.333,4.333,0,0,1,.807-2.738,2.551,2.551,0,0,1,2.112-1.036,2.565,2.565,0,0,1,2.058.889V-10.5h1.265V0h-1.162l-.062-.793a2.575,2.575,0,0,1-2.112.93,2.526,2.526,0,0,1-2.1-1.053,4.382,4.382,0,0,1-.81-2.748Zm1.265.144a3.281,3.281,0,0,0,.52,1.969,1.68,1.68,0,0,0,1.436.711,1.845,1.845,0,0,0,1.757-1.08v-3.4A1.859,1.859,0,0,0,175.9-6.46a1.687,1.687,0,0,0-1.449.718A3.612,3.612,0,0,0,173.934-3.616Zm6.6-.15a4.369,4.369,0,0,1,.427-1.955,3.187,3.187,0,0,1,1.189-1.34,3.238,3.238,0,0,1,1.74-.472,3.119,3.119,0,0,1,2.444,1.046,4.024,4.024,0,0,1,.933,2.782v.089a4.407,4.407,0,0,1-.414,1.938,3.14,3.14,0,0,1-1.183,1.336,3.275,3.275,0,0,1-1.767.479A3.111,3.111,0,0,1,181.47-.909a4,4,0,0,1-.933-2.769Zm1.271.15a3.164,3.164,0,0,0,.571,1.976,1.827,1.827,0,0,0,1.528.745,1.816,1.816,0,0,0,1.531-.755,3.46,3.46,0,0,0,.567-2.116,3.159,3.159,0,0,0-.578-1.972,1.836,1.836,0,0,0-1.535-.755,1.816,1.816,0,0,0-1.511.745A3.434,3.434,0,0,0,181.809-3.616Z" transform="translate(-9175.111 -5721.625)" fill="#fff"/>
    <path id="Trazado_197462" data-name="Trazado 197462" d="M8.982,0H6.932L2.939-6.549V0H.889V-9.953H2.939l4,6.563V-9.953H8.982ZM17.4.137A3.232,3.232,0,0,1,14.95-.851a3.666,3.666,0,0,1-.943-2.642v-.232a4.438,4.438,0,0,1,.42-1.965A3.28,3.28,0,0,1,15.6-7.044a2.956,2.956,0,0,1,1.637-.489,2.77,2.77,0,0,1,2.242.95,4.114,4.114,0,0,1,.8,2.721v.526H15.271a2.629,2.629,0,0,0,.639,1.767A2.009,2.009,0,0,0,17.466-.9,2.2,2.2,0,0,0,18.6-1.169a2.851,2.851,0,0,0,.813-.725l.772.6A3.106,3.106,0,0,1,17.4.137ZM17.24-6.494a1.687,1.687,0,0,0-1.285.557,2.708,2.708,0,0,0-.643,1.562h3.705v-.1a2.409,2.409,0,0,0-.52-1.494A1.588,1.588,0,0,0,17.24-6.494Zm8.812,4.532a.931.931,0,0,0-.386-.8,3.718,3.718,0,0,0-1.347-.489,6.367,6.367,0,0,1-1.524-.492,2.169,2.169,0,0,1-.834-.684,1.635,1.635,0,0,1-.27-.943A1.919,1.919,0,0,1,22.459-6.9a3,3,0,0,1,1.965-.629,3.091,3.091,0,0,1,2.041.649,2.063,2.063,0,0,1,.783,1.661H25.977a1.142,1.142,0,0,0-.441-.9,1.652,1.652,0,0,0-1.111-.376,1.729,1.729,0,0,0-1.08.3.947.947,0,0,0-.39.786.767.767,0,0,0,.362.69,4.458,4.458,0,0,0,1.309.444,6.821,6.821,0,0,1,1.535.506,2.239,2.239,0,0,1,.872.708,1.74,1.74,0,0,1,.284,1.008,1.893,1.893,0,0,1-.793,1.589,3.326,3.326,0,0,1-2.058.6,3.725,3.725,0,0,1-1.572-.314,2.557,2.557,0,0,1-1.07-.878,2.117,2.117,0,0,1-.386-1.22H22.7a1.309,1.309,0,0,0,.509,1.008A1.976,1.976,0,0,0,24.466-.9a2.039,2.039,0,0,0,1.152-.291A.893.893,0,0,0,26.052-1.962ZM35.5.137a3.232,3.232,0,0,1-2.447-.988,3.666,3.666,0,0,1-.943-2.642v-.232a4.438,4.438,0,0,1,.42-1.965A3.28,3.28,0,0,1,33.7-7.044a2.956,2.956,0,0,1,1.637-.489,2.77,2.77,0,0,1,2.242.95,4.114,4.114,0,0,1,.8,2.721v.526H33.373a2.629,2.629,0,0,0,.639,1.767A2.009,2.009,0,0,0,35.567-.9,2.2,2.2,0,0,0,36.7-1.169a2.851,2.851,0,0,0,.813-.725l.772.6A3.106,3.106,0,0,1,35.5.137Zm-.157-6.631a1.687,1.687,0,0,0-1.285.557,2.708,2.708,0,0,0-.643,1.562h3.705v-.1a2.409,2.409,0,0,0-.52-1.494A1.588,1.588,0,0,0,35.342-6.494ZM41.221,0H39.956V-10.5h1.265Zm6.686-7.4.041.93a2.7,2.7,0,0,1,2.215-1.066q2.345,0,2.365,2.646V0H51.263V-4.895A1.7,1.7,0,0,0,50.9-6.077a1.466,1.466,0,0,0-1.118-.383,1.825,1.825,0,0,0-1.08.328,2.228,2.228,0,0,0-.725.861V0H46.71V-7.4ZM59-.731a2.686,2.686,0,0,1-2.167.868,2.3,2.3,0,0,1-1.8-.687,2.974,2.974,0,0,1-.625-2.034V-7.4h1.265v4.778q0,1.682,1.367,1.682a1.893,1.893,0,0,0,1.928-1.08V-7.4h1.265V0h-1.2ZM57.976-10.5h1.531L57.675-8.49l-1.019,0Zm5.366,3.1.034.82a2.732,2.732,0,0,1,2.194-.957,2.115,2.115,0,0,1,2.112,1.189,2.8,2.8,0,0,1,.96-.861,2.837,2.837,0,0,1,1.4-.328q2.434,0,2.475,2.577V0H71.251V-4.881a1.7,1.7,0,0,0-.362-1.186,1.6,1.6,0,0,0-1.217-.393,1.677,1.677,0,0,0-1.169.42,1.706,1.706,0,0,0-.54,1.131V0H66.691V-4.847A1.411,1.411,0,0,0,65.112-6.46a1.692,1.692,0,0,0-1.7,1.06V0H62.146V-7.4ZM77.492.137a3.232,3.232,0,0,1-2.447-.988A3.666,3.666,0,0,1,74.1-3.493v-.232a4.438,4.438,0,0,1,.42-1.965A3.28,3.28,0,0,1,75.7-7.044a2.956,2.956,0,0,1,1.637-.489,2.77,2.77,0,0,1,2.242.95,4.114,4.114,0,0,1,.8,2.721v.526H75.366a2.629,2.629,0,0,0,.639,1.767A2.009,2.009,0,0,0,77.561-.9,2.2,2.2,0,0,0,78.7-1.169a2.851,2.851,0,0,0,.813-.725l.772.6A3.106,3.106,0,0,1,77.492.137Zm-.157-6.631a1.687,1.687,0,0,0-1.285.557,2.708,2.708,0,0,0-.643,1.562h3.705v-.1a2.409,2.409,0,0,0-.52-1.494A1.588,1.588,0,0,0,77.335-6.494Zm8.08.232a3.79,3.79,0,0,0-.622-.048A1.667,1.667,0,0,0,83.1-5.25V0H81.84V-7.4h1.23l.021.854a1.969,1.969,0,0,1,1.764-.991,1.292,1.292,0,0,1,.561.1Zm.69,2.5a4.369,4.369,0,0,1,.427-1.955,3.187,3.187,0,0,1,1.189-1.34,3.238,3.238,0,0,1,1.74-.472,3.119,3.119,0,0,1,2.444,1.046,4.024,4.024,0,0,1,.933,2.782v.089a4.407,4.407,0,0,1-.414,1.938A3.14,3.14,0,0,1,91.243-.342a3.275,3.275,0,0,1-1.767.479A3.111,3.111,0,0,1,87.039-.909a4,4,0,0,1-.933-2.769Zm1.271.15a3.164,3.164,0,0,0,.571,1.976A1.827,1.827,0,0,0,89.476-.9a1.816,1.816,0,0,0,1.531-.755,3.46,3.46,0,0,0,.567-2.116A3.159,3.159,0,0,0,91-5.739a1.836,1.836,0,0,0-1.535-.755,1.816,1.816,0,0,0-1.511.745A3.434,3.434,0,0,0,87.377-3.616ZM99.606-9.187V-7.4h1.381v.978H99.606v4.593a1.027,1.027,0,0,0,.185.667.777.777,0,0,0,.629.222,3.062,3.062,0,0,0,.6-.082V0a3.688,3.688,0,0,1-.971.136,1.575,1.575,0,0,1-1.278-.513,2.2,2.2,0,0,1-.431-1.456V-6.419H97V-7.4h1.347V-9.187Zm2.386,5.421a4.369,4.369,0,0,1,.427-1.955,3.187,3.187,0,0,1,1.189-1.34,3.238,3.238,0,0,1,1.74-.472,3.119,3.119,0,0,1,2.444,1.046,4.024,4.024,0,0,1,.933,2.782v.089a4.407,4.407,0,0,1-.414,1.938,3.14,3.14,0,0,1-1.183,1.336,3.275,3.275,0,0,1-1.767.479,3.111,3.111,0,0,1-2.437-1.046,4,4,0,0,1-.933-2.769Zm1.271.15a3.164,3.164,0,0,0,.571,1.976,1.827,1.827,0,0,0,1.528.745,1.816,1.816,0,0,0,1.531-.755,3.46,3.46,0,0,0,.567-2.116,3.159,3.159,0,0,0-.578-1.972,1.836,1.836,0,0,0-1.535-.755,1.816,1.816,0,0,0-1.511.745A3.434,3.434,0,0,0,103.264-3.616Zm8.764-5.571V-7.4h1.381v.978h-1.381v4.593a1.027,1.027,0,0,0,.185.667.777.777,0,0,0,.629.222,3.062,3.062,0,0,0,.6-.082V0a3.688,3.688,0,0,1-.971.136,1.575,1.575,0,0,1-1.278-.513,2.2,2.2,0,0,1-.431-1.456V-6.419h-1.347V-7.4h1.347V-9.187ZM119.451,0a2.657,2.657,0,0,1-.178-.779,2.822,2.822,0,0,1-2.105.916,2.611,2.611,0,0,1-1.794-.619,2,2,0,0,1-.7-1.569,2.091,2.091,0,0,1,.878-1.794,4.141,4.141,0,0,1,2.471-.639h1.23v-.581a1.42,1.42,0,0,0-.4-1.056,1.593,1.593,0,0,0-1.169-.393,1.844,1.844,0,0,0-1.135.342,1.007,1.007,0,0,0-.458.827h-1.271a1.745,1.745,0,0,1,.393-1.07,2.683,2.683,0,0,1,1.066-.817,3.588,3.588,0,0,1,1.48-.3,2.924,2.924,0,0,1,2,.639,2.306,2.306,0,0,1,.752,1.76v3.4a4.162,4.162,0,0,0,.26,1.62V0Zm-2.1-.964a2.223,2.223,0,0,0,1.128-.308,1.861,1.861,0,0,0,.772-.8V-3.589h-.991q-2.324,0-2.324,1.36a1.151,1.151,0,0,0,.4.93A1.524,1.524,0,0,0,117.353-.964ZM123.874,0h-1.265V-10.5h1.265Zm5.182-3.76a4.333,4.333,0,0,1,.807-2.738,2.551,2.551,0,0,1,2.112-1.036,2.565,2.565,0,0,1,2.058.889V-10.5H135.3V0h-1.162l-.062-.793a2.575,2.575,0,0,1-2.112.93,2.526,2.526,0,0,1-2.1-1.053,4.382,4.382,0,0,1-.81-2.748Zm1.265.144a3.281,3.281,0,0,0,.52,1.969,1.68,1.68,0,0,0,1.436.711,1.845,1.845,0,0,0,1.757-1.08v-3.4a1.859,1.859,0,0,0-1.743-1.046,1.687,1.687,0,0,0-1.449.718A3.612,3.612,0,0,0,130.32-3.616ZM140.328.137a3.232,3.232,0,0,1-2.447-.988,3.666,3.666,0,0,1-.943-2.642v-.232a4.438,4.438,0,0,1,.42-1.965,3.279,3.279,0,0,1,1.176-1.354,2.956,2.956,0,0,1,1.637-.489,2.77,2.77,0,0,1,2.242.95,4.114,4.114,0,0,1,.8,2.721v.526H138.2a2.629,2.629,0,0,0,.639,1.767A2.009,2.009,0,0,0,140.4-.9a2.2,2.2,0,0,0,1.135-.273,2.851,2.851,0,0,0,.813-.725l.772.6A3.106,3.106,0,0,1,140.328.137Zm-.157-6.631a1.687,1.687,0,0,0-1.285.557,2.708,2.708,0,0,0-.643,1.562h3.705v-.1a2.409,2.409,0,0,0-.52-1.494A1.588,1.588,0,0,0,140.171-6.494Zm10.411,4.778L152.414-7.4h1.292L151.054,0h-.964l-2.68-7.4H148.7ZM159.387,0a2.657,2.657,0,0,1-.178-.779A2.822,2.822,0,0,1,157.1.137a2.611,2.611,0,0,1-1.794-.619,2,2,0,0,1-.7-1.569,2.091,2.091,0,0,1,.878-1.794,4.142,4.142,0,0,1,2.471-.639h1.23v-.581a1.42,1.42,0,0,0-.4-1.056,1.593,1.593,0,0,0-1.169-.393,1.844,1.844,0,0,0-1.135.342,1.007,1.007,0,0,0-.458.827h-1.271a1.745,1.745,0,0,1,.393-1.07,2.683,2.683,0,0,1,1.066-.817,3.588,3.588,0,0,1,1.48-.3,2.924,2.924,0,0,1,2,.639,2.306,2.306,0,0,1,.752,1.76v3.4a4.162,4.162,0,0,0,.26,1.62V0Zm-2.1-.964a2.223,2.223,0,0,0,1.128-.308,1.861,1.861,0,0,0,.772-.8V-3.589H158.2q-2.324,0-2.324,1.36a1.151,1.151,0,0,0,.4.93A1.524,1.524,0,0,0,157.288-.964ZM163.81,0h-1.265V-10.5h1.265ZM165.5-3.767a4.369,4.369,0,0,1,.427-1.955,3.187,3.187,0,0,1,1.189-1.34,3.238,3.238,0,0,1,1.74-.472A3.119,3.119,0,0,1,171.3-6.487a4.024,4.024,0,0,1,.933,2.782v.089a4.407,4.407,0,0,1-.414,1.938,3.14,3.14,0,0,1-1.183,1.336,3.275,3.275,0,0,1-1.767.479,3.111,3.111,0,0,1-2.437-1.046,4,4,0,0,1-.933-2.769Zm1.271.15a3.164,3.164,0,0,0,.571,1.976,1.827,1.827,0,0,0,1.528.745,1.816,1.816,0,0,0,1.531-.755,3.46,3.46,0,0,0,.567-2.116,3.159,3.159,0,0,0-.578-1.972,1.836,1.836,0,0,0-1.535-.755,1.816,1.816,0,0,0-1.511.745A3.434,3.434,0,0,0,166.77-3.616Zm10.623-2.646a3.79,3.79,0,0,0-.622-.048,1.667,1.667,0,0,0-1.688,1.06V0h-1.265V-7.4h1.23l.021.854a1.969,1.969,0,0,1,1.764-.991,1.292,1.292,0,0,1,.561.1Zm4.231,6.4a3.232,3.232,0,0,1-2.447-.988,3.666,3.666,0,0,1-.943-2.642v-.232a4.438,4.438,0,0,1,.42-1.965,3.279,3.279,0,0,1,1.176-1.354,2.956,2.956,0,0,1,1.637-.489,2.77,2.77,0,0,1,2.242.95,4.114,4.114,0,0,1,.8,2.721v.526H179.5a2.629,2.629,0,0,0,.639,1.767,2.009,2.009,0,0,0,1.555.673,2.2,2.2,0,0,0,1.135-.273,2.851,2.851,0,0,0,.813-.725l.772.6A3.106,3.106,0,0,1,181.624.137Zm-.157-6.631a1.687,1.687,0,0,0-1.285.557,2.708,2.708,0,0,0-.643,1.562h3.705v-.1a2.409,2.409,0,0,0-.52-1.494A1.588,1.588,0,0,0,181.467-6.494Zm8.812,4.532a.931.931,0,0,0-.386-.8,3.718,3.718,0,0,0-1.347-.489,6.367,6.367,0,0,1-1.524-.492,2.169,2.169,0,0,1-.834-.684,1.635,1.635,0,0,1-.27-.943,1.919,1.919,0,0,1,.769-1.538,3,3,0,0,1,1.965-.629,3.091,3.091,0,0,1,2.041.649,2.063,2.063,0,0,1,.783,1.661H190.2a1.142,1.142,0,0,0-.441-.9,1.652,1.652,0,0,0-1.111-.376,1.729,1.729,0,0,0-1.08.3.947.947,0,0,0-.39.786.767.767,0,0,0,.362.69,4.458,4.458,0,0,0,1.309.444,6.821,6.821,0,0,1,1.535.506,2.239,2.239,0,0,1,.872.708,1.74,1.74,0,0,1,.284,1.008,1.893,1.893,0,0,1-.793,1.589,3.326,3.326,0,0,1-2.058.6,3.725,3.725,0,0,1-1.572-.314,2.557,2.557,0,0,1-1.07-.878,2.117,2.117,0,0,1-.386-1.22h1.265a1.309,1.309,0,0,0,.509,1.008,1.976,1.976,0,0,0,1.254.373,2.039,2.039,0,0,0,1.152-.291A.893.893,0,0,0,190.278-1.962Z" transform="translate(-8958.451 -5721.625)" fill="#fff"/>
    <path id="Trazado_197444" data-name="Trazado 197444" d="M10,0H457a10,10,0,0,1,10,10V137a10,10,0,0,1-10,10H10A10,10,0,0,1,0,137V10A10,10,0,0,1,10,0Z" transform="translate(-9304 -5949)" fill="#a4a3ff"/>
    <path id="Trazado_197267" data-name="Trazado 197267" d="M-9212.887-7584.17l11.949-7.26,8.52,23.671,20.566-103.66h258.1" transform="translate(59.614 1744.218)" fill="none" stroke="#fff" stroke-width="4"/>
    <path id="Trazado_197450" data-name="Trazado 197450" d="M38.429-29.707H6.513L7.884-37.4H39.762ZM35.61-13.559H3.732l1.333-7.655H36.981Z" transform="translate(-9208.5 -5855.202)" fill="#fff"/>
    <path id="Trazado_197453" data-name="Trazado 197453" d="M4.456-39.139A29.7,29.7,0,0,0,6.8-31.083a22.55,22.55,0,0,0,4.475,6.608A17.365,17.365,0,0,0,24.68-19.029q6.7-.152,10.512-4.589t4.151-12.016a36.359,36.359,0,0,0-.152-5.256l-.5-3.161q-1.676-8.493-6.379-13.216A14.911,14.911,0,0,0,20.871-61.8,12.829,12.829,0,0,0,10.74-57.153L7.046-76.844H-2.019Zm7.351-10.931a7.336,7.336,0,0,1,6.97-4.38,9.219,9.219,0,0,1,7.465,3.294q3.009,3.409,3.809,9.464a51.431,51.431,0,0,1,.3,6.779q-.3,4.3-1.923,6.36a5.806,5.806,0,0,1-4.589,2.171,7.953,7.953,0,0,1-6.779-3.561,21.848,21.848,0,0,1-3.656-9.807Z" transform="translate(-9296.924 -5899.447) rotate(97)" fill="#fff"/>
    <path id="Trazado_197456" data-name="Trazado 197456" d="M10.016,0H6.328L9.484-18.187l-5.75,1.906.578-3.359,9-3.187h.563Z" transform="translate(-9093.256 -5888.196)" fill="#fff"/>
    <path id="Trazado_197446" data-name="Trazado 197446" d="M18.708,0H14.856L7.525-16.806,4.608,0H.628L4.705-23.461H8.556L15.888-6.59,18.82-23.461h3.964Z" transform="translate(-9094.928 -5830.627)" fill="#fff"/>
    <path id="Trazado_197268" data-name="Trazado 197268" d="M-9613.244-9288.434h30.689" transform="translate(514.497 3418.937)" fill="#fff" stroke="#fff" stroke-width="3"/>
    <path id="Trazado_197451" data-name="Trazado 197451" d="M27.163-17.873,8.09,2.276H32.761l-1.046,6H-2.738l.861-4.983,21.441-21.9L5.691-40.452l.769-4.337H39.19l-1.046,6h-23.5L27.224-18.765Z" transform="translate(-9056.023 -5855.832)" fill="#fff"/>
    <path id="Trazado_197445" data-name="Trazado 197445" d="M3.271,0H.378L2.673-13.208H5.566ZM3.088-16.589a1.632,1.632,0,0,1,.439-1.147,1.609,1.609,0,0,1,1.184-.5A1.539,1.539,0,0,1,5.89-17.8a1.5,1.5,0,0,1,.47,1.117A1.544,1.544,0,0,1,5.9-15.54a1.678,1.678,0,0,1-1.166.476,1.565,1.565,0,0,1-1.172-.421A1.452,1.452,0,0,1,3.088-16.589Zm15.54,7.068H8.4l.439-2.466H19.055Zm-.9,5.176H7.507L7.935-6.8H18.164ZM27.832,0H24.951l2.466-14.209L22.925-12.72l.452-2.625,7.031-2.49h.439Z" transform="translate(-9058.023 -5817.775)" fill="#fff"/>
    <path id="Trazado_197458" data-name="Trazado 197458" d="M12.472,0H9.9L5.017-11.2,3.072,0H.419L3.137-15.641H5.7L10.592-4.394l1.955-11.247h2.643Z" transform="translate(-9042.924 -5907.202)" fill="#fff"/>
    <path id="Trazado_197457" data-name="Trazado 197457" d="M10.334,0H.118l.3-1.9,6.5-6.241a5.933,5.933,0,0,0,2-3.212,2.3,2.3,0,0,0-.344-1.7,1.764,1.764,0,0,0-1.45-.725,2.633,2.633,0,0,0-2.009.747,3.5,3.5,0,0,0-.988,2.154l-2.535.011a5.285,5.285,0,0,1,.875-2.589,5.229,5.229,0,0,1,2.041-1.789,5.767,5.767,0,0,1,2.755-.607,4.617,4.617,0,0,1,3.228,1.182,3.636,3.636,0,0,1,1.047,3.051,7.79,7.79,0,0,1-2.632,4.63l-.666.655L3.717-2.084h6.95Z" transform="translate(-8884.879 -5905.53)" fill="#fff"/>
    <g id="Grupo_166738" data-name="Grupo 166738" transform="translate(-8979.137 -5913.825)">
      <text id="x" transform="translate(1 57.879)" fill="#fff" font-size="29" font-family="Roboto-MediumItalic, Roboto" font-weight="500" font-style="italic"><tspan x="0" y="0">x</tspan></text>
      <text id="_" transform="translate(3.93 30)" fill="#fff" font-size="32" font-family="Roboto-MediumItalic, Roboto" font-weight="500" font-style="italic"><tspan x="0" y="0">_</tspan></text>
    </g>
    <path id="Trazado_197449" data-name="Trazado 197449" d="M2.617,0H.3L2.139-10.566H4.453ZM2.471-13.271a1.305,1.305,0,0,1,.352-.918,1.288,1.288,0,0,1,.947-.4,1.231,1.231,0,0,1,.942.347,1.2,1.2,0,0,1,.376.894,1.235,1.235,0,0,1-.366.918,1.342,1.342,0,0,1-.933.381,1.252,1.252,0,0,1-.937-.337A1.162,1.162,0,0,1,2.471-13.271Z" transform="translate(-8957.907 -5834.998)" fill="#fff"/>
    <path id="Trazado_197447" data-name="Trazado 197447" d="M4.875-22.395a67.3,67.3,0,0,1,8.4-24.737Q19.652-57.967,29.1-62.156l1.371,5.484Q17.443-46.617,13.559-25.137a88.147,88.147,0,0,0-1.447,15.12,41.823,41.823,0,0,0,1.828,13.5,20.362,20.362,0,0,0,5.637,9.083l-2.133,5.065q-6.513-4.037-10-12.568a48.79,48.79,0,0,1-3.18-19.881A59.106,59.106,0,0,1,4.8-21.747Z" transform="translate(-9013.286 -5845.502)" fill="#fff"/>
    <path id="Trazado_197448" data-name="Trazado 197448" d="M-2.669,17.483l-1.391-5.188A41.309,41.309,0,0,0,8.422-4.418q4.512-10.509,5.489-24.908l.15-4.662q0-15.829-7.369-22.3l2.143-5.038a23.092,23.092,0,0,1,7.388,7.388,34.993,34.993,0,0,1,4.549,11.3,54.612,54.612,0,0,1,1.335,13.347A69.305,69.305,0,0,1,18.4-8.967,54.4,54.4,0,0,1,9.587,7.651,33.2,33.2,0,0,1-2.669,17.483Z" transform="translate(-8906.668 -5846.502)" fill="#fff"/>
    <path id="Trazado_197454" data-name="Trazado 197454" d="M7.236-10.309l3.611-5.013h3.922l-5.862,7.7L12.319,0H8.808L6.669-5.225,2.9,0H-1.005L5.041-7.93l-3.3-7.392H5.253Z" transform="translate(-8978.137 -5855.946)" fill="#fff"/>
    <path id="Trazado_197455" data-name="Trazado 197455" d="M8.276-7.632H.791L1.3-10.5H8.789Z" transform="translate(-8952.773 -5854.946)" fill="#fff"/>
    <path id="Trazado_197452" data-name="Trazado 197452" d="M7.389-20.6V-8.493A7.271,7.271,0,0,0,8.274-4.57,3.221,3.221,0,0,0,11.14-3.333q3.2,0,4.323-2.3V-20.6H20.09V0H15.844L15.71-1.638A5.72,5.72,0,0,1,11.159.4,6.335,6.335,0,0,1,7.389-.647V7.922H2.78V-20.6Z" transform="translate(-8931 -5855.478)" fill="#fff"/>
  </g>
</svg>
