<svg xmlns="http://www.w3.org/2000/svg" width="483" height="146" viewBox="0 0 483 146">
  <g id="Grupo_166887" data-name="Grupo 166887" transform="translate(9320 4523)">
    <path id="Trazado_197480" data-name="Trazado 197480" d="M10,0H473a10,10,0,0,1,10,10V136a10,10,0,0,1-10,10H10A10,10,0,0,1,0,136V10A10,10,0,0,1,10,0Z" transform="translate(-9320 -4523)" fill="#a4a3ff"/>
    <path id="Trazado_197267" data-name="Trazado 197267" d="M-9212.887-7584.17l11.949-7.26,8.52,23.671,20.566-103.66h258.1" transform="translate(32.614 3167.218)" fill="none" stroke="#fff" stroke-width="4"/>
    <path id="Trazado_197492" data-name="Trazado 197492" d="M38.429-29.707H6.513L7.884-37.4H39.762ZM35.61-13.559H3.732l1.333-7.655H36.981Z" transform="translate(-9235.5 -4432.202)" fill="#fff"/>
    <path id="Trazado_197494" data-name="Trazado 197494" d="M25.963-11.751q.677-4.43-4.83-6.583l-2.492-.923q-6.952-2.43-9.875-5.752A10.289,10.289,0,0,1,6.122-32.73a11.612,11.612,0,0,1,2.6-6.721,15.158,15.158,0,0,1,6.2-4.476A20.285,20.285,0,0,1,23.1-45.4a16.369,16.369,0,0,1,7.444,1.83,12.044,12.044,0,0,1,4.983,4.83,13.378,13.378,0,0,1,1.6,7.06l-7.567-.031a7.1,7.1,0,0,0-1.553-5.445,7.139,7.139,0,0,0-5.337-2.03A9.938,9.938,0,0,0,16.6-37.5a6.769,6.769,0,0,0-2.907,4.737q-.615,3.907,5.229,6.152l2.307.831q7.044,2.522,9.844,5.922a10.933,10.933,0,0,1,2.461,8.044,12.116,12.116,0,0,1-2.492,6.6A13.993,13.993,0,0,1,24.994-.861,21.984,21.984,0,0,1,16.488.615,17.694,17.694,0,0,1,8.506-1.23,13.074,13.074,0,0,1,3.015-6.26a13.048,13.048,0,0,1-1.753-7.306l7.6.031A7.13,7.13,0,0,0,10.736-7.66a8.593,8.593,0,0,0,6.091,2.123,10.65,10.65,0,0,0,6.168-1.569A6.587,6.587,0,0,0,25.963-11.751Z" transform="translate(-9294.729 -4432.832)" fill="#fff"/>
    <path id="Trazado_197495" data-name="Trazado 197495" d="M10.334,0H.118l.3-1.9,6.5-6.241a5.933,5.933,0,0,0,2-3.212,2.3,2.3,0,0,0-.344-1.7,1.764,1.764,0,0,0-1.45-.725,2.633,2.633,0,0,0-2.009.747,3.5,3.5,0,0,0-.988,2.154l-2.535.011a5.285,5.285,0,0,1,.875-2.589,5.229,5.229,0,0,1,2.041-1.789,5.767,5.767,0,0,1,2.755-.607,4.617,4.617,0,0,1,3.228,1.182,3.636,3.636,0,0,1,1.047,3.051,7.79,7.79,0,0,1-2.632,4.63l-.666.655L3.717-2.084h6.95Z" transform="translate(-8889.879 -4472.53)" fill="#fff"/>
    <path id="Trazado_197490" data-name="Trazado 197490" d="M13.146,0H8.306l4.143-23.871L4.9-21.369l.759-4.409,11.813-4.184h.738Z" transform="translate(-9112 -4453)" fill="#fff"/>
    <path id="Trazado_197489" data-name="Trazado 197489" d="M23.81,0h-4.9L9.577-21.39,5.865,0H.8L5.988-29.859h4.9L20.221-8.388l3.732-21.472H29Zm16.9-10.685H30.229l.718-4.02H41.426ZM55.843,0H51l4.143-23.871-7.547,2.5.759-4.409L60.17-29.962h.738Z" transform="translate(-9136 -4399)" fill="#fff"/>
    <path id="Trazado_197482" data-name="Trazado 197482" d="M3.313-15.217A45.726,45.726,0,0,1,9.019-32.025q4.335-7.363,10.753-10.209l.932,3.727Q11.853-31.676,9.213-17.08A59.9,59.9,0,0,0,8.229-6.806,28.418,28.418,0,0,0,9.472,2.368,13.836,13.836,0,0,0,13.3,8.54l-1.449,3.442a17.355,17.355,0,0,1-6.793-8.54A33.152,33.152,0,0,1,2.9-10.067a40.162,40.162,0,0,1,.362-4.71Z" transform="translate(-8990.286 -4425.173)" fill="#fff"/>
    <path id="Trazado_197483" data-name="Trazado 197483" d="M-1.8,11.807l-.939-3.5A27.9,27.9,0,0,0,5.688-2.983,51.4,51.4,0,0,0,9.395-19.8l.1-3.148Q9.5-33.643,4.52-38.01l1.447-3.4a15.6,15.6,0,0,1,4.989,4.989,23.631,23.631,0,0,1,3.072,7.63,36.881,36.881,0,0,1,.9,9.014,46.8,46.8,0,0,1-2.5,13.724A36.739,36.739,0,0,1,6.475,5.167,22.424,22.424,0,0,1-1.8,11.807Z" transform="translate(-8894.668 -4426.173)" fill="#fff"/>
    <path id="Trazado_197487" data-name="Trazado 197487" d="M7.236-10.309l3.611-5.013h3.922l-5.862,7.7L12.319,0H8.808L6.669-5.225,2.9,0H-1.005L5.041-7.93l-3.3-7.392H5.253Z" transform="translate(-8965.137 -4426.946)" fill="#fff"/>
    <path id="Trazado_197485" data-name="Trazado 197485" d="M8.276-7.632H.791L1.3-10.5H8.789Z" transform="translate(-8939.773 -4425.946)" fill="#fff"/>
    <path id="Trazado_197491" data-name="Trazado 197491" d="M11.813,2.984H-2.109L-1.578,0H12.344Z" transform="translate(-8911.535 -4454.825)" fill="#fff"/>
    <path id="Trazado_197488" data-name="Trazado 197488" d="M7.236-10.309l3.611-5.013h3.922l-5.862,7.7L12.319,0H8.808L6.669-5.225,2.9,0H-1.005L5.041-7.93l-3.3-7.392H5.253Z" transform="translate(-8914.465 -4426.946)" fill="#fff"/>
    <path id="Trazado_197484" data-name="Trazado 197484" d="M27.163-17.873,8.09,2.276H32.761l-1.046,6H-2.738l.861-4.983,21.441-21.9L5.691-40.452l.769-4.337H39.19l-1.046,6h-23.5L27.224-18.765Z" transform="translate(-9039.153 -4422.153)" fill="#fff"/>
    <path id="Trazado_197486" data-name="Trazado 197486" d="M3.271,0H.378L2.673-13.208H5.566ZM3.088-16.589a1.632,1.632,0,0,1,.439-1.147,1.609,1.609,0,0,1,1.184-.5A1.539,1.539,0,0,1,5.89-17.8a1.5,1.5,0,0,1,.47,1.117A1.544,1.544,0,0,1,5.9-15.54a1.678,1.678,0,0,1-1.166.476,1.565,1.565,0,0,1-1.172-.421A1.452,1.452,0,0,1,3.088-16.589Zm15.54,7.068H8.4l.439-2.466H19.055Zm-.9,5.176H7.507L7.935-6.8H18.164ZM27.832,0H24.951l2.466-14.209L22.925-12.72l.452-2.625,7.031-2.49h.439Z" transform="translate(-9036.153 -4390.202)" fill="#fff"/>
    <path id="Trazado_197481" data-name="Trazado 197481" d="M3.271,0H.378L2.673-13.208H5.566ZM3.088-16.589a1.632,1.632,0,0,1,.439-1.147,1.609,1.609,0,0,1,1.184-.5A1.539,1.539,0,0,1,5.89-17.8a1.5,1.5,0,0,1,.47,1.117A1.544,1.544,0,0,1,5.9-15.54a1.678,1.678,0,0,1-1.166.476,1.565,1.565,0,0,1-1.172-.421A1.452,1.452,0,0,1,3.088-16.589Z" transform="translate(-8948.057 -4413.202)" fill="#fff"/>
    <path id="Trazado_197493" data-name="Trazado 197493" d="M12.472,0H9.9L5.017-11.2,3.072,0H.419L3.137-15.641H5.7L10.592-4.394l1.955-11.247h2.643Z" transform="translate(-9021.153 -4471.852)" fill="#fff"/>
    <path id="Trazado_197273" data-name="Trazado 197273" d="M-9613.244-9288.434h88.264" transform="translate(474.523 4849.893)" fill="#fff" stroke="#fff" stroke-width="3"/>
  </g>
</svg>
