<svg xmlns="http://www.w3.org/2000/svg" width="176" height="160" viewBox="0 0 176 160">
  <g id="Grupo_166689" data-name="Grupo 166689" transform="translate(-914.63 -8025)">
    <rect id="Rectángulo_49809" data-name="Rectángulo 49809" width="176" height="158" transform="translate(914.63 8025)" fill="#e2f4f6"/>
    <g id="Grupo_165545" data-name="Grupo 165545" transform="translate(956.266 8036.587)">
      <path id="Trazado_177157" data-name="Trazado 177157" d="M-7608-3617.91v122.641h109.425" transform="translate(7612.84 3625.43)" fill="none" stroke="#000" stroke-width="1"/>
      <path id="Polígono_5" data-name="Polígono 5" d="M4.62,0,9.24,7.92H0Z"/>
      <path id="Polígono_6" data-name="Polígono 6" d="M4.62,0,9.24,7.92H0Z" transform="translate(122.185 125.54) rotate(90)"/>
      <path id="Trazado_177158" data-name="Trazado 177158" d="M-7608-3497.711l83.6-83.6" transform="translate(7612.84 3604.931)" fill="none" stroke="#ff8578" stroke-width="2"/>
      <circle id="Elipse_5072" data-name="Elipse 5072" cx="1.98" cy="1.98" r="1.98" transform="translate(9.24 112.196)" fill="#ff8578"/>
      <circle id="Elipse_5073" data-name="Elipse 5073" cx="1.98" cy="1.98" r="1.98" transform="translate(15.399 98.996)" fill="#ff8578"/>
      <circle id="Elipse_5074" data-name="Elipse 5074" cx="1.98" cy="1.98" r="1.98" transform="translate(29.919 95.037)" fill="#ff8578"/>
      <circle id="Elipse_5075" data-name="Elipse 5075" cx="1.98" cy="1.98" r="1.98" transform="translate(26.839 81.397)" fill="#ff8578"/>
      <circle id="Elipse_5076" data-name="Elipse 5076" cx="1.98" cy="1.98" r="1.98" transform="translate(38.279 77.437)" fill="#ff8578"/>
      <circle id="Elipse_5077" data-name="Elipse 5077" cx="1.98" cy="1.98" r="1.98" transform="translate(51.038 73.477)" fill="#ff8578"/>
      <circle id="Elipse_5078" data-name="Elipse 5078" cx="1.98" cy="1.98" r="1.98" transform="translate(63.358 52.358)" fill="#ff8578"/>
      <circle id="Elipse_5079" data-name="Elipse 5079" cx="1.98" cy="1.98" r="1.98" transform="translate(64.238 64.678)" fill="#ff8578"/>
      <circle id="Elipse_5080" data-name="Elipse 5080" cx="1.98" cy="1.98" r="1.98" transform="translate(11.44 81.397)" fill="#ff8578"/>
      <circle id="Elipse_5081" data-name="Elipse 5081" cx="1.98" cy="1.98" r="1.98" transform="translate(25.959 69.517)" fill="#ff8578"/>
      <circle id="Elipse_5082" data-name="Elipse 5082" cx="1.98" cy="1.98" r="1.98" transform="translate(32.559 56.318)" fill="#ff8578"/>
      <circle id="Elipse_5083" data-name="Elipse 5083" cx="1.98" cy="1.98" r="1.98" transform="translate(54.998 49.718)" fill="#ff8578"/>
      <circle id="Elipse_5084" data-name="Elipse 5084" cx="1.98" cy="1.98" r="1.98" transform="translate(72.157 47.958)" fill="#ff8578"/>
    </g>
    <rect id="Rectángulo_49810" data-name="Rectángulo 49810" width="176" height="3" transform="translate(914.63 8182)" fill="#a4a3ff"/>
  </g>
</svg>
