<svg xmlns="http://www.w3.org/2000/svg" xmlns:xlink="http://www.w3.org/1999/xlink" width="86" height="86" viewBox="0 0 86 86">
  <defs>
    <linearGradient id="linear-gradient" x1="0.5" x2="0.5" y2="1" gradientUnits="objectBoundingBox">
      <stop offset="0" stop-color="#fed981"/>
      <stop offset="1" stop-color="#ffd061"/>
    </linearGradient>
  </defs>
  <g id="Grupo_166882" data-name="Grupo 166882" transform="translate(-638 -16308)">
    <g id="Grupo_166763" data-name="Grupo 166763" transform="translate(382 10478)">
      <circle id="Elipse_4775" data-name="Elipse 4775" cx="43" cy="43" r="43" transform="translate(256 5830)" fill="url(#linear-gradient)"/>
      <g id="SkJMOK" transform="translate(138.633 5549.826)">
        <g id="Grupo_166014" data-name="Grupo 166014" transform="translate(139.962 298.214)">
          <path id="Trazado_184111" data-name="Trazado 184111" d="M176.348,301.645a14.583,14.583,0,0,1,1.609,28.961V335.9c.215,0,.423-.007.631,0a.862.862,0,0,1,.929.942q.007,3.365,0,6.731a.856.856,0,0,1-.964.932c-.614,0-1.228,0-1.843,0-.109,0-.218.01-.361.018,0,.771-.035,1.521.009,2.267.05.839-.474,1.163-1.167,1.163q-17.07-.023-34.14-.013c-.792,0-1.085-.29-1.085-1.082q0-22.546,0-45.092,0-1.276,0-2.553a.875.875,0,0,1,1-1l22.582,0h11.726c.781,0,1.084.307,1.082,1.089S176.348,300.848,176.348,301.645ZM141.7,346.2h32.885v-1.695c-.734,0-1.447,0-2.159,0-.653,0-.98-.31-.981-.946q-.006-3.365,0-6.731a.858.858,0,0,1,.935-.93c.206-.005.413,0,.608,0v-5.305a14.65,14.65,0,0,1-12.239-14.345,14.011,14.011,0,0,1,3.006-8.843,14.7,14.7,0,0,1,10.826-5.759v-1.692H141.7Zm33.742-17.132a12.854,12.854,0,1,0-12.963-12.882A12.934,12.934,0,0,0,175.445,329.071Zm2.322,13.7v-5.144h-4.579v5.144Zm-2.99-11.965v5.067h1.406v-5.067Z" transform="translate(-139.962 -298.214)" fill="#12263f"/>
          <path id="Trazado_184112" data-name="Trazado 184112" d="M201.8,720.755h7.61c.714,0,1.035.327,1.028,1.041a9.511,9.511,0,1,1-11.121-9.536,12.305,12.305,0,0,1,1.526-.136.85.85,0,0,1,.958.94c0,1.839,0,3.678,0,5.517C201.8,719.293,201.8,720,201.8,720.755Zm-1.727-6.851a7.769,7.769,0,0,0,1.47,15.466,7.661,7.661,0,0,0,7.08-6.879h-.33c-2.34,0-4.681-.016-7.021.011-.74.009-1.226-.273-1.212-1.19.036-2.351.012-4.7.012-7.054Z" transform="translate(-187.97 -684.445)" fill="#12263f"/>
          <path id="Trazado_184113" data-name="Trazado 184113" d="M199.461,349.974h6.721c.754,0,1.057.3,1.057,1.048q0,5.015,0,10.031a.889.889,0,0,1-1.023,1.02q-6.754,0-13.508,0c-.706,0-1.023-.319-1.023-1.02q0-4.982,0-9.964c0-.846.273-1.116,1.123-1.117h6.654Zm6.041,1.748H193.433v8.6H205.5Z" transform="translate(-188.224 -346.512)" fill="#12263f"/>
          <path id="Trazado_184114" data-name="Trazado 184114" d="M365.043,683.533q-2.09,0-4.18,0a.871.871,0,0,1-1-1q0-4.2,0-8.393a.864.864,0,0,1,.992-.973,9.485,9.485,0,0,1,9.108,7.352,13.6,13.6,0,0,1,.252,2.049c.042.625-.326.967-.963.968C367.852,683.535,366.448,683.533,365.043,683.533Zm-3.428-8.576v6.823h6.8A7.7,7.7,0,0,0,361.615,674.957Z" transform="translate(-345.161 -648.089)" fill="#12263f"/>
          <path id="Trazado_184115" data-name="Trazado 184115" d="M199.523,610.159q-3.408,0-6.816,0a.851.851,0,0,1-.952-.912.806.806,0,0,1,.662-.772,3.366,3.366,0,0,1,.6-.041q6.616,0,13.231,0a1.9,1.9,0,0,1,.332.019.857.857,0,0,1-.138,1.7c-1.637.005-3.274,0-4.912,0Z" transform="translate(-188.289 -587.687)" fill="#12263f"/>
          <path id="Trazado_184116" data-name="Trazado 184116" d="M199.495,556.788q3.425,0,6.851,0a.852.852,0,0,1,.842.487.727.727,0,0,1-.091.873,1.406,1.406,0,0,1-.713.347,6.494,6.494,0,0,1-1.067.016h-12.6a.871.871,0,0,1-.975-.676.851.851,0,0,1,.9-1.044c1.582,0,3.164,0,4.745,0h2.105Z" transform="translate(-188.262 -539.493)" fill="#12263f"/>
          <path id="Trazado_184117" data-name="Trazado 184117" d="M530.676,419.892a10.748,10.748,0,1,1-10.828-10.736A10.742,10.742,0,0,1,530.676,419.892Zm-10.712,9a9.007,9.007,0,1,0-9.055-9A9.01,9.01,0,0,0,519.964,428.9Z" transform="translate(-484.488 -401.737)" fill="#12263f"/>
        </g>
      </g>
    </g>
  </g>
</svg>
