<svg xmlns="http://www.w3.org/2000/svg" xmlns:xlink="http://www.w3.org/1999/xlink" width="86" height="86" viewBox="0 0 86 86">
  <defs>
    <linearGradient id="linear-gradient" x1="0.5" x2="0.5" y2="1" gradientUnits="objectBoundingBox">
      <stop offset="0" stop-color="#fed981"/>
      <stop offset="1" stop-color="#ffd061"/>
    </linearGradient>
  </defs>
  <g id="Grupo_166884" data-name="Grupo 166884" transform="translate(-1118 -16308)">
    <g id="Grupo_166764" data-name="Grupo 166764" transform="translate(862 10478)">
      <circle id="Elipse_4775" data-name="Elipse 4775" cx="43" cy="43" r="43" transform="translate(256 5830)" fill="url(#linear-gradient)"/>
      <g id="CvqhWR.tif" transform="translate(134.564 4623.053)">
        <g id="Grupo_166017" data-name="Grupo 166017" transform="translate(141.663 1221.912)">
          <path id="Trazado_184128" data-name="Trazado 184128" d="M143.764,1305.176c-.982-.355-1.849-.91-1.992-2a13.661,13.661,0,0,1,0-3.07,2.356,2.356,0,0,1,1.344-1.724.858.858,0,0,0,.307-.489,3.856,3.856,0,0,0,.015-.6,1.372,1.372,0,0,0-.735-1.558,2.228,2.228,0,0,1-1.039-2.077c0-.553.005-1.106,0-1.658a2.669,2.669,0,0,1,1.425-2.445,1.083,1.083,0,0,0,.336-.528c.05-.128,0-.292.012-.438a1.525,1.525,0,0,0-.794-1.752,2.149,2.149,0,0,1-.978-1.993c0-.608-.006-1.216,0-1.824a2.618,2.618,0,0,1,2.6-2.6c1.47-.011,2.94,0,4.472,0v-.691q0-7.988-.006-15.976a1.1,1.1,0,0,1,.341-.871c2.9-2.882,5.789-5.782,8.694-8.663a1.117,1.117,0,0,1,.7-.325q10.864-.026,21.728-.013c.108,0,.216.009.359.016v14.809c-.892-.225-1.019.819-1.709,1.038v-14.059h-19.48v8.792H150.55v15.943h.58q4.506,0,9.012,0a2.621,2.621,0,0,1,2.753,2.731c0,.535,0,1.069,0,1.6a2.681,2.681,0,0,1-1.427,2.446,1.132,1.132,0,0,0-.334.528,1.258,1.258,0,0,0-.01.383c-.046.738-.062,1.372.8,1.809a2.105,2.105,0,0,1,.975,1.991q0,.857,0,1.714a2.53,2.53,0,0,1-1.413,2.382.573.573,0,0,0-.36.644,2.5,2.5,0,0,1,0,.5,1.367,1.367,0,0,0,.732,1.558,2.232,2.232,0,0,1,1.041,2.076c0,.271,0,.543,0,.841h15.912v-15.843c.725.194.845,1.264,1.756,1.024V1303.4h-.676q-8.293,0-16.586-.005a.7.7,0,0,0-.773.427,2.838,2.838,0,0,1-1.732,1.35Zm8.455-19.46q3.893,0,7.787,0c.757,0,1.1-.33,1.122-1.047.01-.4,0-.81,0-1.215,0-1-.282-1.278-1.279-1.279H148.972c-1.491,0-2.982-.006-4.473,0a.939.939,0,0,0-1.066,1.045c-.01.423,0,.847,0,1.27,0,.923.3,1.223,1.223,1.224Q148.437,1285.718,152.219,1285.716Zm0,8.847q3.893,0,7.787,0c.78,0,1.11-.333,1.121-1.1.006-.386,0-.773,0-1.159,0-1-.283-1.277-1.281-1.277H148.528c-1.344,0-2.688-.006-4.031,0a.939.939,0,0,0-1.064,1.047c-.009.423,0,.847,0,1.27,0,.922.3,1.222,1.225,1.223Q148.438,1294.564,152.221,1294.562Zm.122,5.3q-3.893,0-7.787,0c-.784,0-1.115.33-1.125,1.1-.006.478-.012.957,0,1.435a.915.915,0,0,0,1,1q7.842.011,15.684,0a.926.926,0,0,0,1.014-1.042c.01-.423,0-.847,0-1.27,0-.925-.3-1.225-1.221-1.226Q156.126,1299.864,152.343,1299.866Zm7-12.349H145.242v1.691h14.106Zm-14.123,10.544h14.09v-1.7h-14.09Zm12.32-35.362v-5.5l-5.5,5.5Z" transform="translate(-141.663 -1250.328)" fill="#12263f"/>
          <path id="Trazado_184129" data-name="Trazado 184129" d="M215.284,1232.971l1.82-2.709,1.484.986-4.285,6.427-4.287-6.427,1.482-.991,1.816,2.708.1-.017v-.46c0-1.972,0-3.944,0-5.915a2.694,2.694,0,0,0-2.9-2.893q-16.117,0-32.234,0a2.7,2.7,0,0,0-2.911,2.941c0,1.359,0,2.718,0,4.106h-1.726c-.013-.134-.038-.274-.038-.414,0-1.345-.009-2.69,0-4.036a4.384,4.384,0,0,1,4.367-4.36q16.421-.01,32.842,0a4.381,4.381,0,0,1,4.367,4.36c.011,2.045,0,4.091,0,6.136v.527Z" transform="translate(-170.063 -1221.912)" fill="#12263f"/>
          <path id="Trazado_184130" data-name="Trazado 184130" d="M333.5,1293.2H317.649V1286.2H333.5Zm-14.092-1.781H331.73v-3.474H319.409Z" transform="translate(-298.152 -1279.077)" fill="#12263f"/>
          <path id="Trazado_184131" data-name="Trazado 184131" d="M492.752,1426.568a5.342,5.342,0,1,1,5.309,5.347A5.3,5.3,0,0,1,492.752,1426.568Zm8.88,0a3.538,3.538,0,1,0-3.565,3.539A3.58,3.58,0,0,0,501.632,1426.573Z" transform="translate(-453.855 -1399.151)" fill="#12263f"/>
          <path id="Trazado_184132" data-name="Trazado 184132" d="M260.833,1397.627v1.77H237.906v-1.77Z" transform="translate(-227.243 -1378.16)" fill="#12263f"/>
          <path id="Trazado_184133" data-name="Trazado 184133" d="M237.782,1431.226v-1.751h22.932v1.751Z" transform="translate(-227.133 -1406.48)" fill="#12263f"/>
          <path id="Trazado_184134" data-name="Trazado 184134" d="M269.4,1367.75v-1.7h21.21v1.7Z" transform="translate(-255.245 -1350.079)" fill="#12263f"/>
          <path id="Trazado_184135" data-name="Trazado 184135" d="M251.955,1461.533v1.731H237.833v-1.731Z" transform="translate(-227.178 -1434.986)" fill="#12263f"/>
          <path id="Trazado_184136" data-name="Trazado 184136" d="M349.545,1527.321v-1.7h10.561v1.7Z" transform="translate(-326.514 -1491.976)" fill="#12263f"/>
          <path id="Trazado_184137" data-name="Trazado 184137" d="M173.986,1317.963h1.7v1.7h-1.7Z" transform="translate(-170.405 -1307.322)" fill="#12263f"/>
          <path id="Trazado_184138" data-name="Trazado 184138" d="M174.044,1349.8h1.677v1.716h-1.677Z" transform="translate(-170.457 -1335.628)" fill="#12263f"/>
          <path id="Trazado_184139" data-name="Trazado 184139" d="M239.522,1367.729H237.8v-1.739h1.717Z" transform="translate(-227.154 -1350.028)" fill="#12263f"/>
          <path id="Trazado_184140" data-name="Trazado 184140" d="M381.416,1461.323h1.738v1.755h-1.738Z" transform="translate(-354.854 -1434.799)" fill="#12263f"/>
          <path id="Trazado_184141" data-name="Trazado 184141" d="M415.056,1461.456v1.731h-1.737v-1.731Z" transform="translate(-383.223 -1434.917)" fill="#12263f"/>
        </g>
      </g>
    </g>
  </g>
</svg>
