<svg xmlns="http://www.w3.org/2000/svg" width="210" height="81" viewBox="0 0 210 81">
  <g id="Grupo_171239" data-name="Grupo 171239" transform="translate(-951.582 -19063.93)">
    <path id="Trazado_205145" data-name="Trazado 205145" d="M10,0H200a10,10,0,0,1,10,10V71a10,10,0,0,1-10,10H10A10,10,0,0,1,0,71V10A10,10,0,0,1,10,0Z" transform="translate(951.582 19063.93)" fill="#a4a3ff"/>
    <path id="Trazado_205146" data-name="Trazado 205146" d="M5.7-8.174,8.394-12.8H10.96L7.093-6.451,11.048,0H8.455L5.7-4.693,2.944,0H.36L4.324-6.451.448-12.8H3.015ZM39.586,0V-12.8h4.386a5.354,5.354,0,0,1,3.3.87A3.065,3.065,0,0,1,48.41-9.334a2.763,2.763,0,0,1-.475,1.582,3.055,3.055,0,0,1-1.389,1.09,2.825,2.825,0,0,1,1.6,1.059,3.085,3.085,0,0,1,.567,1.868A3.407,3.407,0,0,1,47.562-.967,5.025,5.025,0,0,1,44.253,0ZM41.81-5.774v4h2.47a2.39,2.39,0,0,0,1.635-.519A1.82,1.82,0,0,0,46.5-3.735a1.826,1.826,0,0,0-2.039-2.039Zm0-1.635h2.18a2.521,2.521,0,0,0,1.622-.47A1.611,1.611,0,0,0,46.2-9.211a1.633,1.633,0,0,0-.541-1.371A2.73,2.73,0,0,0,43.972-11H41.81ZM53.007,0H50.871V-9.51h2.136ZM50.739-11.979a1.133,1.133,0,0,1,.312-.817,1.179,1.179,0,0,1,.892-.325,1.193,1.193,0,0,1,.9.325,1.125,1.125,0,0,1,.316.817,1.1,1.1,0,0,1-.316.8,1.2,1.2,0,0,1-.9.321,1.188,1.188,0,0,1-.892-.321A1.107,1.107,0,0,1,50.739-11.979Zm6.574,2.47.062,1.1a3.419,3.419,0,0,1,2.769-1.274q2.971,0,3.023,3.4V0H61.031V-6.161A1.958,1.958,0,0,0,60.64-7.5a1.645,1.645,0,0,0-1.279-.435,2.058,2.058,0,0,0-1.925,1.169V0H55.3V-9.51ZM69.855-5.2A13.393,13.393,0,0,1,70.4-9.057,10.578,10.578,0,0,1,72-12.318a6.351,6.351,0,0,1,2.232-2.017l.422,1.248a6.524,6.524,0,0,0-2.008,2.87A12.852,12.852,0,0,0,71.807-5.8l-.009.756a13.972,13.972,0,0,0,.751,4.75,7,7,0,0,0,2.1,3.177l-.422,1.187A6.362,6.362,0,0,1,72,2.043a10.577,10.577,0,0,1-1.6-3.261A13.921,13.921,0,0,1,69.855-5.2ZM82.564-9.51l.062,1.1a3.419,3.419,0,0,1,2.769-1.274q2.971,0,3.023,3.4V0H86.282V-6.161a1.958,1.958,0,0,0-.391-1.34,1.645,1.645,0,0,0-1.279-.435,2.058,2.058,0,0,0-1.925,1.169V0H80.552V-9.51ZM90.9,2.883,89.745,2.2A6.21,6.21,0,0,0,90.444.8a4.157,4.157,0,0,0,.2-1.208V-2.065h1.925L92.558-.527a4.287,4.287,0,0,1-.47,1.868A4.64,4.64,0,0,1,90.9,2.883ZM108.422-7.84h-1.4v5.15a1.169,1.169,0,0,0,.215.787,1,1,0,0,0,.769.242,3.622,3.622,0,0,0,.747-.088V-.1a4.715,4.715,0,0,1-1.406.2q-2.461,0-2.461-2.716V-7.84h-2.918V0H99.835V-7.84h-1.5V-9.51h10.09Zm10.345,2.777A13.224,13.224,0,0,1,118.23-1.3a10.671,10.671,0,0,1-1.626,3.3,6.367,6.367,0,0,1-2.276,2.061l-.422-1.187a6.754,6.754,0,0,0,2.087-3.116,13.84,13.84,0,0,0,.769-4.786v-.2a14.044,14.044,0,0,0-.668-4.452,7.852,7.852,0,0,0-1.916-3.221l-.272-.246.422-1.2a6.3,6.3,0,0,1,2.18,1.934,10.491,10.491,0,0,1,1.617,3.107,12.941,12.941,0,0,1,.633,3.546Z" transform="translate(993.677 19109.93)" fill="#fff"/>
    <path id="Trazado_205144" data-name="Trazado 205144" d="M-7585.183,4464.8s2.813-2.684,8.724,0a6.641,6.641,0,0,0,8.828-2.659" transform="translate(8595.631 14639.585)" fill="none" stroke="#fff" stroke-width="2"/>
  </g>
</svg>
