<svg xmlns="http://www.w3.org/2000/svg" width="355" height="81" viewBox="0 0 355 81">
  <g id="Grupo_171241" data-name="Grupo 171241" transform="translate(-397 -19760.848)">
    <path id="Trazado_205168" data-name="Trazado 205168" d="M10,0H345a10,10,0,0,1,10,10V71a10,10,0,0,1-10,10H10A10,10,0,0,1,0,71V10A10,10,0,0,1,10,0Z" transform="translate(397 19760.848)" fill="#a4a3ff"/>
    <path id="Trazado_205169" data-name="Trazado 205169" d="M8.78-5.713H3.524v3.938H9.668V0H1.3V-12.8H9.606V-11H3.524v3.533H8.78Zm7,.51a13.393,13.393,0,0,1,.545-3.854,10.578,10.578,0,0,1,1.6-3.261,6.351,6.351,0,0,1,2.232-2.017l.422,1.248a6.524,6.524,0,0,0-2.008,2.87A12.852,12.852,0,0,0,17.736-5.8l-.009.756a13.972,13.972,0,0,0,.751,4.75,7,7,0,0,0,2.1,3.177l-.422,1.187a6.362,6.362,0,0,1-2.237-2.026,10.577,10.577,0,0,1-1.6-3.261A13.921,13.921,0,0,1,15.785-5.2ZM31.122-8.174,33.812-12.8h2.566L32.511-6.451,36.466,0H33.873L31.122-4.693,28.362,0H25.778l3.964-6.451L25.866-12.8h2.566Zm10.9,3.111A13.224,13.224,0,0,1,41.484-1.3a10.671,10.671,0,0,1-1.626,3.3,6.367,6.367,0,0,1-2.276,2.061L37.16,2.883A6.754,6.754,0,0,0,39.248-.233a13.84,13.84,0,0,0,.769-4.786v-.2a14.044,14.044,0,0,0-.668-4.452,7.852,7.852,0,0,0-1.916-3.221l-.272-.246.422-1.2a6.3,6.3,0,0,1,2.18,1.934,10.491,10.491,0,0,1,1.617,3.107,12.941,12.941,0,0,1,.633,3.546ZM56.487-6.855H48.911V-8.631h7.576Zm0,3.727H48.911V-4.9h7.576Zm8.78-6.381.062,1.1A3.419,3.419,0,0,1,68.1-9.686q2.971,0,3.023,3.4V0H68.985V-6.161a1.958,1.958,0,0,0-.391-1.34,1.645,1.645,0,0,0-1.279-.435,2.058,2.058,0,0,0-1.925,1.169V0H63.255V-9.51Zm21.9,1.67h-1.4v5.15a1.169,1.169,0,0,0,.215.787,1,1,0,0,0,.769.242,3.622,3.622,0,0,0,.747-.088V-.1a4.715,4.715,0,0,1-1.406.2q-2.461,0-2.461-2.716V-7.84H80.719V0H78.583V-7.84h-1.5V-9.51H87.17ZM97.778-6.732l2.944-6.064h2.461L98.895-4.711V0H96.662V-4.711l-4.3-8.086h2.47Zm15.785,3.946L116.815-12.8h2.443L114.653,0H112.5l-4.588-12.8h2.435ZM120.524-5.2a13.393,13.393,0,0,1,.545-3.854,10.578,10.578,0,0,1,1.6-3.261,6.351,6.351,0,0,1,2.232-2.017l.422,1.248a6.524,6.524,0,0,0-2.008,2.87,12.852,12.852,0,0,0-.839,4.417l-.009.756a13.972,13.972,0,0,0,.751,4.75,7,7,0,0,0,2.1,3.177L124.9,4.069a6.362,6.362,0,0,1-2.237-2.026,10.577,10.577,0,0,1-1.6-3.261A13.921,13.921,0,0,1,120.524-5.2Zm9.659-1.178,1.811-3.129h2.373l-2.909,4.685L134.464,0h-2.355l-1.9-3.252L128.32,0h-2.373l3.006-4.825-2.9-4.685h2.355Zm9.756,1.318A13.224,13.224,0,0,1,139.4-1.3a10.671,10.671,0,0,1-1.626,3.3A6.367,6.367,0,0,1,135.5,4.069l-.422-1.187a6.754,6.754,0,0,0,2.087-3.116,13.84,13.84,0,0,0,.769-4.786v-.2a14.044,14.044,0,0,0-.668-4.452,7.852,7.852,0,0,0-1.916-3.221l-.272-.246.422-1.2a6.3,6.3,0,0,1,2.18,1.934A10.491,10.491,0,0,1,139.3-9.294a12.941,12.941,0,0,1,.633,3.546Zm14.467-1.793H146.83V-8.631h7.576Zm0,3.727H146.83V-4.9h7.576Zm8.78-6.381.062,1.1a3.419,3.419,0,0,1,2.769-1.274q2.971,0,3.023,3.4V0H166.9V-6.161a1.958,1.958,0,0,0-.391-1.34,1.645,1.645,0,0,0-1.279-.435,2.058,2.058,0,0,0-1.925,1.169V0h-2.136V-9.51Zm17.42,1.67h-1.4v5.15a1.169,1.169,0,0,0,.215.787,1,1,0,0,0,.769.242,3.622,3.622,0,0,0,.747-.088V-.1a4.715,4.715,0,0,1-1.406.2q-2.461,0-2.461-2.716V-7.84h-2.918V0H172.02V-7.84h-1.5V-9.51h10.09ZM186.864-5.2a13.393,13.393,0,0,1,.545-3.854,10.578,10.578,0,0,1,1.6-3.261,6.351,6.351,0,0,1,2.232-2.017l.422,1.248a6.524,6.524,0,0,0-2.008,2.87,12.852,12.852,0,0,0-.839,4.417l-.009.756a13.972,13.972,0,0,0,.751,4.75,7,7,0,0,0,2.1,3.177l-.422,1.187A6.362,6.362,0,0,1,189,2.043a10.577,10.577,0,0,1-1.6-3.261A13.921,13.921,0,0,1,186.864-5.2ZM203.238,0h-2.127V-10.281l-3.138,1.07V-11l4.992-1.837h.272Zm13.21-4.579h-4.614V-6.3h4.614ZM232.084-7.84h-1.4v5.15a1.169,1.169,0,0,0,.215.787,1,1,0,0,0,.769.242,3.622,3.622,0,0,0,.747-.088V-.1a4.715,4.715,0,0,1-1.406.2q-2.461,0-2.461-2.716V-7.84h-2.918V0H223.5V-7.84h-1.5V-9.51h10.09Zm10.345,2.777a13.224,13.224,0,0,1-.536,3.766,10.671,10.671,0,0,1-1.626,3.3,6.367,6.367,0,0,1-2.276,2.061l-.422-1.187a6.754,6.754,0,0,0,2.087-3.116,13.84,13.84,0,0,0,.769-4.786v-.2a14.044,14.044,0,0,0-.668-4.452,7.852,7.852,0,0,0-1.916-3.221l-.272-.246.422-1.2a6.3,6.3,0,0,1,2.18,1.934,10.491,10.491,0,0,1,1.617,3.107,12.941,12.941,0,0,1,.633,3.546Z" transform="translate(449 19806.848)" fill="#fff"/>
  </g>
</svg>
