<svg xmlns="http://www.w3.org/2000/svg" width="1030" height="81" viewBox="0 0 1030 81">
  <g id="Grupo_171242" data-name="Grupo 171242" transform="translate(-244.926 -19978.324)">
    <path id="Trazado_205173" data-name="Trazado 205173" d="M10,0H459a10,10,0,0,1,10,10V71a10,10,0,0,1-10,10H10A10,10,0,0,1,0,71V10A10,10,0,0,1,10,0Z" transform="translate(244.926 19978.324)" fill="#a4a3ff"/>
    <path id="Trazado_205174" data-name="Trazado 205174" d="M8.78-5.713H3.524v3.938H9.668V0H1.3V-12.8H9.606V-11H3.524v3.533H8.78Zm7,.51a13.393,13.393,0,0,1,.545-3.854,10.578,10.578,0,0,1,1.6-3.261,6.351,6.351,0,0,1,2.232-2.017l.422,1.248a6.524,6.524,0,0,0-2.008,2.87A12.852,12.852,0,0,0,17.736-5.8l-.009.756a13.972,13.972,0,0,0,.751,4.75,7,7,0,0,0,2.1,3.177l-.422,1.187a6.362,6.362,0,0,1-2.237-2.026,10.577,10.577,0,0,1-1.6-3.261A13.921,13.921,0,0,1,15.785-5.2ZM26.64-8.174,29.329-12.8H31.9L28.028-6.451,31.983,0H29.391L26.64-4.693,23.88,0H21.3L25.26-6.451,21.384-12.8H23.95Zm10.9,3.111A13.224,13.224,0,0,1,37-1.3a10.671,10.671,0,0,1-1.626,3.3A6.367,6.367,0,0,1,33.1,4.069l-.422-1.187A6.754,6.754,0,0,0,34.765-.233a13.84,13.84,0,0,0,.769-4.786v-.2a14.044,14.044,0,0,0-.668-4.452,7.852,7.852,0,0,0-1.916-3.221l-.272-.246.422-1.2a6.3,6.3,0,0,1,2.18,1.934A10.491,10.491,0,0,1,36.9-9.294a12.941,12.941,0,0,1,.633,3.546ZM52-6.855H44.429V-8.631H52Zm0,3.727H44.429V-4.9H52ZM66.489-5.713H61.233v3.938h6.144V0H59.01V-12.8h8.306V-11H61.233v3.533h5.256Zm7,.51a13.393,13.393,0,0,1,.545-3.854,10.578,10.578,0,0,1,1.6-3.261,6.351,6.351,0,0,1,2.232-2.017l.422,1.248a6.524,6.524,0,0,0-2.008,2.87A12.852,12.852,0,0,0,75.445-5.8l-.009.756a13.972,13.972,0,0,0,.751,4.75,7,7,0,0,0,2.1,3.177l-.422,1.187a6.362,6.362,0,0,1-2.237-2.026,10.577,10.577,0,0,1-1.6-3.261A13.921,13.921,0,0,1,73.494-5.2ZM88.831-8.174,91.521-12.8h2.566L90.22-6.451,94.175,0H91.582L88.831-4.693,86.071,0H83.487l3.964-6.451L83.575-12.8h2.566ZM98.45,6H97.209V0l-1.83.624V-.419L98.291-1.49h.159Zm11.73-11.062a13.224,13.224,0,0,1-.536,3.766,10.671,10.671,0,0,1-1.626,3.3,6.367,6.367,0,0,1-2.276,2.061l-.422-1.187a6.754,6.754,0,0,0,2.087-3.116,13.84,13.84,0,0,0,.769-4.786v-.2a14.044,14.044,0,0,0-.668-4.452,7.852,7.852,0,0,0-1.916-3.221l-.272-.246.422-1.2a6.3,6.3,0,0,1,2.18,1.934,10.491,10.491,0,0,1,1.617,3.107,12.941,12.941,0,0,1,.633,3.546ZM121.825-7.04h3.34v1.951h-3.34v3.806h-2.074V-5.089h-3.357V-7.04h3.357V-10.6h2.074Zm17.262,1.327h-5.256v3.938h6.144V0h-8.367V-12.8h8.306V-11h-6.082v3.533h5.256Zm7,.51a13.393,13.393,0,0,1,.545-3.854,10.578,10.578,0,0,1,1.6-3.261,6.351,6.351,0,0,1,2.232-2.017l.422,1.248a6.524,6.524,0,0,0-2.008,2.87,12.852,12.852,0,0,0-.839,4.417l-.009.756a13.972,13.972,0,0,0,.751,4.75,7,7,0,0,0,2.1,3.177l-.422,1.187a6.362,6.362,0,0,1-2.237-2.026,10.577,10.577,0,0,1-1.6-3.261A13.921,13.921,0,0,1,146.091-5.2Zm15.337-2.971,2.689-4.623h2.566l-3.867,6.346L166.772,0h-2.593l-2.751-4.693L158.669,0h-2.584l3.964-6.451L156.173-12.8h2.566ZM172.693,6h-5.019V5.144l2.486-2.712a6.191,6.191,0,0,0,.766-1,1.624,1.624,0,0,0,.228-.807,1.227,1.227,0,0,0-.3-.861,1.04,1.04,0,0,0-.807-.328,1.2,1.2,0,0,0-.938.369,1.452,1.452,0,0,0-.333,1.01H167.53a2.442,2.442,0,0,1,.31-1.228,2.136,2.136,0,0,1,.887-.848,2.823,2.823,0,0,1,1.33-.3,2.525,2.525,0,0,1,1.715.546A1.9,1.9,0,0,1,172.4.489a2.562,2.562,0,0,1-.315,1.171,6.661,6.661,0,0,1-1.033,1.392l-1.825,1.953h3.466ZM182.777-5.062a13.224,13.224,0,0,1-.536,3.766,10.671,10.671,0,0,1-1.626,3.3,6.367,6.367,0,0,1-2.276,2.061l-.422-1.187A6.754,6.754,0,0,0,180-.233a13.84,13.84,0,0,0,.769-4.786v-.2a14.044,14.044,0,0,0-.668-4.452,7.852,7.852,0,0,0-1.916-3.221l-.272-.246.422-1.2a6.3,6.3,0,0,1,2.18,1.934,10.491,10.491,0,0,1,1.617,3.107,12.941,12.941,0,0,1,.633,3.546ZM194.422-7.04h3.34v1.951h-3.34v3.806h-2.074V-5.089h-3.357V-7.04h3.357V-10.6h2.074Zm10.934,4.79a1.22,1.22,0,0,1,.923.338,1.175,1.175,0,0,1,.325.848,1.134,1.134,0,0,1-.325.831,1.238,1.238,0,0,1-.923.33,1.242,1.242,0,0,1-.905-.325,1.115,1.115,0,0,1-.334-.835,1.175,1.175,0,0,1,.325-.848A1.208,1.208,0,0,1,205.356-2.25Zm4.025,0a1.22,1.22,0,0,1,.923.338,1.175,1.175,0,0,1,.325.848,1.134,1.134,0,0,1-.325.831,1.238,1.238,0,0,1-.923.33,1.242,1.242,0,0,1-.905-.325,1.115,1.115,0,0,1-.334-.835,1.175,1.175,0,0,1,.325-.848A1.208,1.208,0,0,1,209.381-2.25Zm3.876,0a1.22,1.22,0,0,1,.923.338,1.175,1.175,0,0,1,.325.848,1.134,1.134,0,0,1-.325.831,1.238,1.238,0,0,1-.923.33,1.242,1.242,0,0,1-.905-.325,1.115,1.115,0,0,1-.334-.835,1.175,1.175,0,0,1,.325-.848A1.208,1.208,0,0,1,213.257-2.25Zm12.867-4.79h3.34v1.951h-3.34v3.806H224.05V-5.089h-3.357V-7.04h3.357V-10.6h2.074Zm17.262,1.327H238.13v3.938h6.144V0h-8.367V-12.8h8.306V-11H238.13v3.533h5.256Zm7,.51a13.393,13.393,0,0,1,.545-3.854,10.578,10.578,0,0,1,1.6-3.261,6.351,6.351,0,0,1,2.232-2.017l.422,1.248a6.524,6.524,0,0,0-2.008,2.87,12.852,12.852,0,0,0-.839,4.417l-.009.756a13.972,13.972,0,0,0,.751,4.75,7,7,0,0,0,2.1,3.177l-.422,1.187a6.362,6.362,0,0,1-2.237-2.026,10.577,10.577,0,0,1-1.6-3.261A13.921,13.921,0,0,1,250.391-5.2Zm15.337-2.971,2.689-4.623h2.566l-3.867,6.346L271.072,0h-2.593l-2.751-4.693L262.968,0h-2.584l3.964-6.451L260.472-12.8h2.566ZM273.209.453l.036.641A1.994,1.994,0,0,1,274.859.35q1.733,0,1.764,1.984V6h-1.246V2.406a1.142,1.142,0,0,0-.228-.782.96.96,0,0,0-.746-.254,1.2,1.2,0,0,0-1.123.682V6h-1.246V.453ZM285.08-5.062a13.224,13.224,0,0,1-.536,3.766,10.671,10.671,0,0,1-1.626,3.3,6.367,6.367,0,0,1-2.276,2.061l-.422-1.187a6.754,6.754,0,0,0,2.087-3.116,13.84,13.84,0,0,0,.769-4.786v-.2a14.044,14.044,0,0,0-.668-4.452,7.852,7.852,0,0,0-1.916-3.221l-.272-.246.422-1.2a6.3,6.3,0,0,1,2.18,1.934,10.491,10.491,0,0,1,1.617,3.107,12.941,12.941,0,0,1,.633,3.546Zm14.467-1.793h-7.576V-8.631h7.576Zm0,3.727h-7.576V-4.9h7.576Zm8.78-6.381.062,1.1a3.419,3.419,0,0,1,2.769-1.274q2.971,0,3.023,3.4V0h-2.136V-6.161a1.958,1.958,0,0,0-.391-1.34,1.645,1.645,0,0,0-1.279-.435,2.058,2.058,0,0,0-1.925,1.169V0h-2.136V-9.51Zm17.42,1.67h-1.4v5.15a1.169,1.169,0,0,0,.215.787,1,1,0,0,0,.769.242,3.622,3.622,0,0,0,.747-.088V-.1a4.715,4.715,0,0,1-1.406.2q-2.461,0-2.461-2.716V-7.84H319.3V0H317.16V-7.84h-1.5V-9.51h10.09Z" transform="translate(296.926 20024.324)" fill="#fff"/>
    <path id="Trazado_205171" data-name="Trazado 205171" d="M4.789-5.664l2.969-5.711h1.7L5.539-4.242V0h-1.5V-4.242L.117-11.375H1.836Z" transform="translate(749.926 20025.324)" fill="#12263f"/>
    <path id="Trazado_205170" data-name="Trazado 205170" d="M10,0H459a10,10,0,0,1,10,10V71a10,10,0,0,1-10,10H10A10,10,0,0,1,0,71V10A10,10,0,0,1,10,0Z" transform="translate(805.926 19978.324)" fill="#a4a3ff"/>
    <path id="Trazado_205172" data-name="Trazado 205172" d="M5.81,16.214,9.062,6.2H11.5L6.9,19H4.746L.158,6.2H2.593ZM17.253,13.8A13.393,13.393,0,0,1,17.8,9.943a10.578,10.578,0,0,1,1.6-3.261A6.351,6.351,0,0,1,21.63,4.665l.422,1.248a6.524,6.524,0,0,0-2.008,2.87A12.852,12.852,0,0,0,19.2,13.2l-.009.756a13.972,13.972,0,0,0,.751,4.75,7,7,0,0,0,2.1,3.177l-.422,1.187a6.362,6.362,0,0,1-2.237-2.026,10.577,10.577,0,0,1-1.6-3.261A13.921,13.921,0,0,1,17.253,13.8Zm10.854-2.971L30.8,6.2h2.566L29.5,12.549,33.451,19H30.858l-2.751-4.693L25.348,19H22.764l3.964-6.451L22.852,6.2h2.566Zm10.9,3.111A13.224,13.224,0,0,1,38.47,17.7a10.671,10.671,0,0,1-1.626,3.3,6.367,6.367,0,0,1-2.276,2.061l-.422-1.187a6.754,6.754,0,0,0,2.087-3.116A13.84,13.84,0,0,0,37,13.981v-.2a14.044,14.044,0,0,0-.668-4.452,7.852,7.852,0,0,0-1.916-3.221l-.272-.246.422-1.2A6.3,6.3,0,0,1,36.747,6.6a10.491,10.491,0,0,1,1.617,3.107A12.941,12.941,0,0,1,39,13.252Zm14.467-1.793H45.9V10.369h7.576Zm0,3.727H45.9V14.1h7.576Zm11.514.343L68.238,6.2h2.443L66.076,19H63.923L59.335,6.2H61.77ZM76.43,13.8a13.393,13.393,0,0,1,.545-3.854,10.578,10.578,0,0,1,1.6-3.261,6.351,6.351,0,0,1,2.232-2.017l.422,1.248a6.524,6.524,0,0,0-2.008,2.87,12.852,12.852,0,0,0-.839,4.417l-.009.756a13.972,13.972,0,0,0,.751,4.75,7,7,0,0,0,2.1,3.177l-.422,1.187a6.362,6.362,0,0,1-2.237-2.026,10.577,10.577,0,0,1-1.6-3.261A13.921,13.921,0,0,1,76.43,13.8Zm15.337-2.971L94.456,6.2h2.566l-3.867,6.346L97.11,19H94.518l-2.751-4.693L89.007,19H86.423l3.964-6.451L86.511,6.2h2.566ZM101.385,25h-1.241V19l-1.83.624V18.581l2.912-1.071h.159Zm11.73-11.062a13.224,13.224,0,0,1-.536,3.766,10.671,10.671,0,0,1-1.626,3.3,6.367,6.367,0,0,1-2.276,2.061l-.422-1.187a6.754,6.754,0,0,0,2.087-3.116,13.84,13.84,0,0,0,.769-4.786v-.2a14.044,14.044,0,0,0-.668-4.452,7.852,7.852,0,0,0-1.916-3.221l-.272-.246.422-1.2a6.3,6.3,0,0,1,2.18,1.934,10.491,10.491,0,0,1,1.617,3.107,12.941,12.941,0,0,1,.633,3.546ZM124.76,11.96h3.34v1.951h-3.34v3.806h-2.074V13.911h-3.357V11.96h3.357V8.4h2.074Zm14.291,4.254L142.3,6.2h2.443L140.141,19h-2.153L133.4,6.2h2.435ZM150.495,13.8a13.393,13.393,0,0,1,.545-3.854,10.578,10.578,0,0,1,1.6-3.261,6.351,6.351,0,0,1,2.232-2.017l.422,1.248a6.524,6.524,0,0,0-2.008,2.87,12.852,12.852,0,0,0-.839,4.417l-.009.756a13.972,13.972,0,0,0,.751,4.75,7,7,0,0,0,2.1,3.177l-.422,1.187a6.362,6.362,0,0,1-2.237-2.026,10.577,10.577,0,0,1-1.6-3.261A13.921,13.921,0,0,1,150.495,13.8Zm15.337-2.971L168.521,6.2h2.566l-3.867,6.346L171.175,19h-2.593l-2.751-4.693L163.072,19h-2.584l3.964-6.451L160.576,6.2h2.566ZM177.1,25h-5.019v-.856l2.486-2.712a6.191,6.191,0,0,0,.766-1,1.624,1.624,0,0,0,.228-.807,1.227,1.227,0,0,0-.3-.861,1.04,1.04,0,0,0-.807-.328,1.2,1.2,0,0,0-.938.369,1.452,1.452,0,0,0-.333,1.01h-1.246a2.442,2.442,0,0,1,.31-1.228,2.136,2.136,0,0,1,.887-.848,2.823,2.823,0,0,1,1.33-.3,2.525,2.525,0,0,1,1.715.546,1.9,1.9,0,0,1,.628,1.51,2.562,2.562,0,0,1-.315,1.171,6.661,6.661,0,0,1-1.033,1.392l-1.825,1.953H177.1ZM187.18,13.938a13.224,13.224,0,0,1-.536,3.766,10.671,10.671,0,0,1-1.626,3.3,6.367,6.367,0,0,1-2.276,2.061l-.422-1.187a6.754,6.754,0,0,0,2.087-3.116,13.84,13.84,0,0,0,.769-4.786v-.2a14.044,14.044,0,0,0-.668-4.452,7.852,7.852,0,0,0-1.916-3.221l-.272-.246.422-1.2a6.3,6.3,0,0,1,2.18,1.934,10.491,10.491,0,0,1,1.617,3.107,12.941,12.941,0,0,1,.633,3.546Zm11.646-1.978h3.34v1.951h-3.34v3.806h-2.074V13.911h-3.357V11.96h3.357V8.4h2.074Zm10.934,4.79a1.22,1.22,0,0,1,.923.338,1.175,1.175,0,0,1,.325.848,1.134,1.134,0,0,1-.325.831,1.44,1.44,0,0,1-1.828,0,1.115,1.115,0,0,1-.334-.835,1.175,1.175,0,0,1,.325-.848A1.208,1.208,0,0,1,209.759,16.75Zm4.025,0a1.22,1.22,0,0,1,.923.338,1.175,1.175,0,0,1,.325.848,1.134,1.134,0,0,1-.325.831,1.44,1.44,0,0,1-1.828,0,1.115,1.115,0,0,1-.334-.835,1.175,1.175,0,0,1,.325-.848A1.208,1.208,0,0,1,213.784,16.75Zm3.876,0a1.22,1.22,0,0,1,.923.338,1.175,1.175,0,0,1,.325.848,1.134,1.134,0,0,1-.325.831,1.44,1.44,0,0,1-1.828,0,1.115,1.115,0,0,1-.334-.835,1.175,1.175,0,0,1,.325-.848A1.208,1.208,0,0,1,217.66,16.75Zm12.867-4.79h3.34v1.951h-3.34v3.806h-2.074V13.911H225.1V11.96h3.357V8.4h2.074Zm14.291,4.254L248.071,6.2h2.443L245.909,19h-2.153L239.167,6.2H241.6ZM256.262,13.8a13.393,13.393,0,0,1,.545-3.854,10.578,10.578,0,0,1,1.6-3.261,6.351,6.351,0,0,1,2.232-2.017l.422,1.248a6.524,6.524,0,0,0-2.008,2.87,12.852,12.852,0,0,0-.839,4.417l-.009.756a13.972,13.972,0,0,0,.751,4.75,7,7,0,0,0,2.1,3.177l-.422,1.187a6.362,6.362,0,0,1-2.237-2.026,10.577,10.577,0,0,1-1.6-3.261A13.921,13.921,0,0,1,256.262,13.8ZM271.6,10.826,274.288,6.2h2.566l-3.867,6.346L276.943,19H274.35L271.6,14.307,268.839,19h-2.584l3.964-6.451L266.343,6.2h2.566Zm7.481,8.627.036.641a1.994,1.994,0,0,1,1.615-.743q1.733,0,1.764,1.984V25h-1.246V21.406a1.142,1.142,0,0,0-.228-.782.96.96,0,0,0-.746-.254,1.2,1.2,0,0,0-1.123.682V25h-1.246V19.453Zm13.739-5.515a13.224,13.224,0,0,1-.536,3.766,10.671,10.671,0,0,1-1.626,3.3,6.367,6.367,0,0,1-2.276,2.061l-.422-1.187a6.754,6.754,0,0,0,2.087-3.116,13.84,13.84,0,0,0,.769-4.786v-.2a14.044,14.044,0,0,0-.668-4.452,7.852,7.852,0,0,0-1.916-3.221l-.272-.246.422-1.2A6.3,6.3,0,0,1,290.56,6.6a10.491,10.491,0,0,1,1.617,3.107,12.941,12.941,0,0,1,.633,3.546Zm14.467-1.793H299.71V10.369h7.576Zm0,3.727H299.71V14.1h7.576Zm8.78-6.381.062,1.1A3.419,3.419,0,0,1,318.9,9.314q2.971,0,3.023,3.4V19h-2.136V12.839a1.958,1.958,0,0,0-.391-1.34,1.645,1.645,0,0,0-1.279-.435,2.058,2.058,0,0,0-1.925,1.169V19h-2.136V9.49Zm17.42,1.67h-1.4v5.15a1.169,1.169,0,0,0,.215.787,1,1,0,0,0,.769.242,3.622,3.622,0,0,0,.747-.088V18.9a4.715,4.715,0,0,1-1.406.2q-2.461,0-2.461-2.716V11.16h-2.918V19H324.9V11.16h-1.5V9.49h10.09Zm6.258,2.637a13.393,13.393,0,0,1,.545-3.854,10.578,10.578,0,0,1,1.6-3.261,6.351,6.351,0,0,1,2.232-2.017l.422,1.248a6.524,6.524,0,0,0-2.008,2.87A12.852,12.852,0,0,0,341.7,13.2l-.009.756a13.972,13.972,0,0,0,.751,4.75,7,7,0,0,0,2.1,3.177l-.422,1.187a6.362,6.362,0,0,1-2.237-2.026,10.577,10.577,0,0,1-1.6-3.261A13.921,13.921,0,0,1,339.744,13.8ZM356.118,19h-2.127V8.719l-3.138,1.07V8l4.992-1.837h.272Zm13.21-4.579h-4.614V12.7h4.614Zm15.636-3.261h-1.4v5.15a1.169,1.169,0,0,0,.215.787,1,1,0,0,0,.769.242,3.622,3.622,0,0,0,.747-.088V18.9a4.715,4.715,0,0,1-1.406.2q-2.461,0-2.461-2.716V11.16h-2.918V19h-2.136V11.16h-1.5V9.49h10.09Zm10.345,2.777a13.224,13.224,0,0,1-.536,3.766,10.671,10.671,0,0,1-1.626,3.3,6.367,6.367,0,0,1-2.276,2.061l-.422-1.187a6.754,6.754,0,0,0,2.087-3.116,13.84,13.84,0,0,0,.769-4.786v-.2a14.044,14.044,0,0,0-.668-4.452,7.852,7.852,0,0,0-1.916-3.221l-.272-.246.422-1.2A6.3,6.3,0,0,1,393.05,6.6a10.491,10.491,0,0,1,1.617,3.107,12.941,12.941,0,0,1,.633,3.546Z" transform="translate(830.926 20007.324)" fill="#fff"/>
  </g>
</svg>
