<svg xmlns="http://www.w3.org/2000/svg" width="505" height="96" viewBox="0 0 505 96">
  <g id="Grupo_166799" data-name="Grupo 166799" transform="translate(-824.244 -2049.416)">
    <path id="Trazado_197298" data-name="Trazado 197298" d="M10,0H495a10,10,0,0,1,10,10V86a10,10,0,0,1-10,10H10A10,10,0,0,1,0,86V10A10,10,0,0,1,10,0Z" transform="translate(824.244 2049.416)" fill="#a4a3ff"/>
    <path id="Trazado_197304" data-name="Trazado 197304" d="M9.861-5.887H11.58l-.44,2.5H9.421L8.83,0H5.8l.591-3.384H.183L.4-5.5,8.379-15.641h3.169ZM3.545-5.908l3.287.021L7.9-11.451l-.279.387ZM25.427-8.755h3.76l-.494,2.8H24.943l-.763,4.383h-2.89l.763-4.383H18.272l.494-2.8h3.771l.73-4.2h2.89ZM39.488-9.2l1.45.011A2.826,2.826,0,0,0,42.792-9.8a2.389,2.389,0,0,0,.865-1.644,1.734,1.734,0,0,0-.333-1.391A1.691,1.691,0,0,0,42-13.374a2.258,2.258,0,0,0-1.509.478,2.055,2.055,0,0,0-.768,1.294L36.7-11.58a4.059,4.059,0,0,1,1.627-3.1,5.726,5.726,0,0,1,3.722-1.187,5.11,5.11,0,0,1,3.5,1.235,3.766,3.766,0,0,1,1.171,3.158q-.15,2.234-2.847,3.5a3.274,3.274,0,0,1,1.542,1.434,3.886,3.886,0,0,1,.424,2.068,4.492,4.492,0,0,1-.87,2.492A5.091,5.091,0,0,1,42.84-.328a6.822,6.822,0,0,1-2.879.542,4.89,4.89,0,0,1-3.416-1.251,4.166,4.166,0,0,1-1.3-3.25h3.008a1.942,1.942,0,0,0,.489,1.423,1.9,1.9,0,0,0,1.423.575,2.658,2.658,0,0,0,1.8-.6,2.421,2.421,0,0,0,.881-1.621,1.964,1.964,0,0,0-.381-1.647,2.135,2.135,0,0,0-1.584-.6L39.1-6.768Zm18.466-6.617-.236,2.567-.591.011q-3.685.193-5.317,4.061a4.192,4.192,0,0,1,3.147-1.278,3.463,3.463,0,0,1,2.143.709,3.943,3.943,0,0,1,1.284,1.88,6.431,6.431,0,0,1,.29,2.632,6.242,6.242,0,0,1-.918,2.809A5.554,5.554,0,0,1,55.688-.446a5.384,5.384,0,0,1-2.761.671A4.5,4.5,0,0,1,50.29-.639a4.663,4.663,0,0,1-1.606-2.25A7.089,7.089,0,0,1,48.351-6l.118-.967a10.513,10.513,0,0,1,2.959-6.44,8.4,8.4,0,0,1,6.118-2.4ZM53.926-7.981a2.384,2.384,0,0,0-1.407.387A3.493,3.493,0,0,0,51.487-6.55l-.14.969A8.2,8.2,0,0,0,51.3-4.527,2.835,2.835,0,0,0,51.767-2.9a1.47,1.47,0,0,0,1.246.624,2.068,2.068,0,0,0,1.45-.517,3.2,3.2,0,0,0,.967-1.474,4.325,4.325,0,0,0,.2-1.883,2.31,2.31,0,0,0-.542-1.329A1.535,1.535,0,0,0,53.926-7.981Zm18.81-.773H76.5L76-5.951H72.252l-.763,4.383H68.6l.763-4.383H65.581l.494-2.8h3.771l.73-4.2h2.89Zm19.39,2.868h1.719l-.44,2.5H91.685L91.094,0H88.064l.591-3.384H82.446L82.661-5.5l7.981-10.141h3.169Zm-6.316-.021,3.287.021,1.063-5.564-.279.387ZM96.271-7.734l2.105-7.906h8.551l-.408,2.589h-6L99.483-9.668a4.147,4.147,0,0,1,2.256-.6,3.7,3.7,0,0,1,3.11,1.423,5.3,5.3,0,0,1,.929,3.754,6.082,6.082,0,0,1-.908,2.782,5.3,5.3,0,0,1-2.046,1.9,5.648,5.648,0,0,1-2.793.634,4.969,4.969,0,0,1-2.4-.607,4.29,4.29,0,0,1-1.681-1.644,4.687,4.687,0,0,1-.612-2.336h2.976a2.339,2.339,0,0,0,.526,1.5,1.731,1.731,0,0,0,1.311.564,2.125,2.125,0,0,0,1.767-.784,3.912,3.912,0,0,0,.833-2.191,2.778,2.778,0,0,0-.371-1.934,1.784,1.784,0,0,0-1.52-.73,3.018,3.018,0,0,0-2.105.838Zm23.772-1.021h3.76l-.494,2.8h-3.749L118.8-1.568h-2.89l.763-4.383H112.89l.494-2.8h3.771l.73-4.2h2.89Zm11.183,1.021,2.105-7.906h8.551l-.408,2.589h-6l-1.031,3.384a4.147,4.147,0,0,1,2.256-.6,3.7,3.7,0,0,1,3.11,1.423,5.3,5.3,0,0,1,.929,3.754,6.081,6.081,0,0,1-.908,2.782,5.3,5.3,0,0,1-2.046,1.9,5.648,5.648,0,0,1-2.793.634,4.969,4.969,0,0,1-2.4-.607A4.29,4.29,0,0,1,130.9-2.025a4.687,4.687,0,0,1-.612-2.336h2.976a2.339,2.339,0,0,0,.526,1.5A1.731,1.731,0,0,0,135.1-2.3a2.125,2.125,0,0,0,1.767-.784,3.912,3.912,0,0,0,.833-2.191,2.778,2.778,0,0,0-.371-1.934,1.784,1.784,0,0,0-1.52-.73,3.018,3.018,0,0,0-2.105.838ZM147.136.215A3.966,3.966,0,0,1,144-1.16a5.782,5.782,0,0,1-1.139-3.717,11.831,11.831,0,0,1,.086-1.59l.44-2.933a9.127,9.127,0,0,1,2.073-4.855,5.022,5.022,0,0,1,3.964-1.6,3.99,3.99,0,0,1,3.142,1.37,5.722,5.722,0,0,1,1.144,3.7,11.926,11.926,0,0,1-.086,1.6l-.451,2.911A9.324,9.324,0,0,1,151.1-1.391,4.992,4.992,0,0,1,147.136.215Zm3.642-11.359q0-2.133-1.5-2.209-2.17-.1-2.761,3.3l-.537,3.624A13.056,13.056,0,0,0,145.8-4.54q-.054,2.176,1.493,2.251,2.181.14,2.771-3.4l.569-3.817A11.246,11.246,0,0,0,150.777-11.144Zm16.575,2.389h3.76l-.494,2.8h-3.749l-.763,4.383h-2.89l.763-4.383H160.2l.494-2.8h3.771l.73-4.2h2.89Zm22.032-4.992L181.436,0h-3.341l7.928-13.138h-7.477l.4-2.5h10.731Zm1.5,6.013,2.105-7.906h8.551l-.408,2.589h-6L194.1-9.668a4.147,4.147,0,0,1,2.256-.6,3.7,3.7,0,0,1,3.11,1.423,5.3,5.3,0,0,1,.929,3.754,6.081,6.081,0,0,1-.908,2.782,5.3,5.3,0,0,1-2.046,1.9,5.648,5.648,0,0,1-2.793.634,4.969,4.969,0,0,1-2.4-.607,4.29,4.29,0,0,1-1.681-1.644,4.687,4.687,0,0,1-.612-2.336h2.976a2.339,2.339,0,0,0,.526,1.5,1.731,1.731,0,0,0,1.311.564,2.125,2.125,0,0,0,1.767-.784,3.912,3.912,0,0,0,.833-2.191A2.778,2.778,0,0,0,197-7.208a1.784,1.784,0,0,0-1.52-.73,3.018,3.018,0,0,0-2.105.838Z" transform="translate(870.366 2085.916)" fill="#fff"/>
    <path id="Trazado_184147" data-name="Trazado 184147" d="M-8279.633-10154h226.909" transform="translate(9140.999 12253.574)" fill="#fff" stroke="#fff" stroke-width="1"/>
    <path id="Trazado_197305" data-name="Trazado 197305" d="M1.654-7.734,3.76-15.641h8.551L11.9-13.052h-6L4.866-9.668a4.147,4.147,0,0,1,2.256-.6,3.7,3.7,0,0,1,3.11,1.423,5.3,5.3,0,0,1,.929,3.754,6.082,6.082,0,0,1-.908,2.782,5.3,5.3,0,0,1-2.046,1.9A5.648,5.648,0,0,1,5.414.226a4.969,4.969,0,0,1-2.4-.607A4.29,4.29,0,0,1,1.332-2.025,4.687,4.687,0,0,1,.72-4.361H3.7a2.339,2.339,0,0,0,.526,1.5A1.731,1.731,0,0,0,5.532-2.3,2.125,2.125,0,0,0,7.3-3.083a3.912,3.912,0,0,0,.833-2.191,2.778,2.778,0,0,0-.371-1.934,1.784,1.784,0,0,0-1.52-.73A3.018,3.018,0,0,0,4.136-7.1Z" transform="translate(962.82 2128.234)" fill="#fff"/>
    <path id="Trazado_197302" data-name="Trazado 197302" d="M10.431,0H.011L.365-2.256l5.554-5.21a12.3,12.3,0,0,0,2.267-2.6A3.045,3.045,0,0,0,8.6-12.021a1.458,1.458,0,0,0-1.536-1.364,2.2,2.2,0,0,0-1.724.72A3.373,3.373,0,0,0,4.5-10.721l-3.029.011a5.311,5.311,0,0,1,.87-2.653,5.337,5.337,0,0,1,2.089-1.853,6.058,6.058,0,0,1,2.82-.65,4.806,4.806,0,0,1,3.395,1.225,3.789,3.789,0,0,1,1.074,3.147,7.626,7.626,0,0,1-2.61,4.619L7.563-5.4l-3.2,2.879,6.467.021Zm9.163,0H16.564l2.063-11.9-3.8,1.149.473-2.653,6.531-2.256.4-.011ZM29.917.215A3.966,3.966,0,0,1,26.78-1.16a5.782,5.782,0,0,1-1.139-3.717,11.83,11.83,0,0,1,.086-1.59l.44-2.933a9.127,9.127,0,0,1,2.073-4.855,5.022,5.022,0,0,1,3.964-1.6,3.99,3.99,0,0,1,3.142,1.37,5.722,5.722,0,0,1,1.144,3.7,11.926,11.926,0,0,1-.086,1.6l-.451,2.911a9.324,9.324,0,0,1-2.068,4.882A4.992,4.992,0,0,1,29.917.215Zm3.642-11.359q0-2.133-1.5-2.209-2.17-.1-2.761,3.3l-.537,3.624a13.055,13.055,0,0,0-.172,1.887q-.054,2.176,1.493,2.251,2.181.14,2.771-3.4L33.419-9.5A11.245,11.245,0,0,0,33.559-11.144Z" transform="translate(1139.244 2085.916)" fill="#fff"/>
    <path id="Trazado_197303" data-name="Trazado 197303" d="M10.678-8.744h-8.7l.3-1.729h8.712ZM9.9-4.286H1.2L1.5-6h8.712Z" transform="translate(1105.244 2104.916)" fill="#fff"/>
    <path id="Trazado_184150" data-name="Trazado 184150" d="M-8279.633-10154h64.5" transform="translate(9410.968 12253.574)" fill="none" stroke="#fff" stroke-width="1"/>
    <path id="Trazado_197299" data-name="Trazado 197299" d="M1.654-7.734,3.76-15.641h8.551L11.9-13.052h-6L4.866-9.668a4.147,4.147,0,0,1,2.256-.6,3.7,3.7,0,0,1,3.11,1.423,5.3,5.3,0,0,1,.929,3.754,6.082,6.082,0,0,1-.908,2.782,5.3,5.3,0,0,1-2.046,1.9A5.648,5.648,0,0,1,5.414.226a4.969,4.969,0,0,1-2.4-.607A4.29,4.29,0,0,1,1.332-2.025,4.687,4.687,0,0,1,.72-4.361H3.7a2.339,2.339,0,0,0,.526,1.5A1.731,1.731,0,0,0,5.532-2.3,2.125,2.125,0,0,0,7.3-3.083a3.912,3.912,0,0,0,.833-2.191,2.778,2.778,0,0,0-.371-1.934,1.784,1.784,0,0,0-1.52-.73A3.018,3.018,0,0,0,4.136-7.1Z" transform="translate(1151.244 2128.234)" fill="#fff"/>
    <path id="Trazado_197300" data-name="Trazado 197300" d="M10.678-8.744h-8.7l.3-1.729h8.712ZM9.9-4.286H1.2L1.5-6h8.712Z" transform="translate(1212.244 2104.916)" fill="#fff"/>
    <path id="Trazado_197301" data-name="Trazado 197301" d="M9.206-5.253h2.105l-.29,1.622H8.927L8.293,0H6.338l.634-3.631H.054L.279-4.909,8.873-15.641H11Zm-6.6,0H7.251l1.4-7.691-.312.451ZM22.3,0H12.343l.236-1.515,5.769-5.607L19.4-8.164a6.165,6.165,0,0,0,2.009-3.352,2.485,2.485,0,0,0-.462-1.928,2.173,2.173,0,0,0-1.7-.79,3.2,3.2,0,0,0-2.353.822,3.775,3.775,0,0,0-1.149,2.369l-1.923.011a5.44,5.44,0,0,1,.886-2.551,4.937,4.937,0,0,1,1.966-1.708,5.649,5.649,0,0,1,2.648-.564,4.34,4.34,0,0,1,3.088,1.176,3.485,3.485,0,0,1,.983,2.938A7.487,7.487,0,0,1,21.022-7.4l-.988,1-5.027,4.78h7.552Zm3.652-2.256a1.163,1.163,0,0,1,.87.322,1.11,1.11,0,0,1,.333.859A1.161,1.161,0,0,1,26.8-.22a1.278,1.278,0,0,1-.859.349,1.11,1.11,0,0,1-.849-.3,1.11,1.11,0,0,1-.333-.843,1.218,1.218,0,0,1,.333-.875A1.207,1.207,0,0,1,25.953-2.256Z" transform="translate(1248 2098.416)" fill="#fff"/>
  </g>
</svg>
