<svg xmlns="http://www.w3.org/2000/svg" width="370.116" height="190.876" viewBox="0 0 370.116 190.876">
  <g id="Grupo_166897" data-name="Grupo 166897" transform="translate(-381.442 -1633.288)">
    <g id="persona" transform="translate(381.442 1633.288)">
      <path id="Trazado_177445" data-name="Trazado 177445" d="M251.064,414.5h-2.9v4.345l4.345,4.345h2.9Zm0,0" transform="translate(-224.208 -374.482)" fill="#adf5ff"/>
      <path id="Trazado_177446" data-name="Trazado 177446" d="M11.845,414.5,7.5,423.189H35.08L30.736,414.5Zm0,0" transform="translate(-6.776 -374.482)" fill="#acfcff"/>
      <path id="Trazado_177447" data-name="Trazado 177447" d="M191.064,127.5h-2.9l2.9,16.173a1.449,1.449,0,0,0,2.9,0V130.4A2.9,2.9,0,0,0,191.064,127.5Zm0,0" transform="translate(-170.001 -115.19)" fill="#f0f0f0"/>
      <path id="Trazado_177448" data-name="Trazado 177448" d="M85.4,127.5h2.9l-2.9,16.124a1.448,1.448,0,0,1-2.9,0V130.4A2.9,2.9,0,0,1,85.4,127.5Zm0,0" transform="translate(-74.535 -115.19)" fill="#f0f0f0"/>
      <path id="Trazado_177449" data-name="Trazado 177449" d="M122.7,130.4a2.9,2.9,0,0,0-2.9-2.9H115.4a2.9,2.9,0,0,0-2.9,2.9v27.331a1.826,1.826,0,0,0,3.653,0v-14.1h2.9v14.1a1.826,1.826,0,0,0,3.653,0Zm0,0" transform="translate(-101.639 -115.19)" fill="#c1c1c1"/>
      <path id="Trazado_177450" data-name="Trazado 177450" d="M165.664,7.5v8.689a4.345,4.345,0,1,0,0-8.689Zm0,0" transform="translate(-149.67 -6.776)" fill="#f0f0f0"/>
      <path id="Trazado_177451" data-name="Trazado 177451" d="M126.457,11.845c0-2.4-.649-4.345-1.448-4.345a4.345,4.345,0,1,0,0,8.689C125.808,16.189,126.457,14.244,126.457,11.845Zm0,0" transform="translate(-109.014 -6.776)" fill="#c1c1c1"/>
      <path id="Trazado_177452" data-name="Trazado 177452" d="M31.848,156.8,27.5,148.109a.724.724,0,0,0-.648-.4h-2.9a.724.724,0,1,0,0,1.448h2.449l3.62,7.241H1.9l3.62-7.241h4.621v1.794a2.551,2.551,0,0,0,5.1,0v-1.763h1.448v1.763a2.55,2.55,0,0,0,5.1,0V138.9a2.269,2.269,0,0,0,.724.117,2.126,2.126,0,0,0,2.172-2.124V123.62a3.624,3.624,0,0,0-3.62-3.62h-10.2a3.625,3.625,0,0,0-3.62,3.62v13.228a2.172,2.172,0,0,0,2.9,2.048v8.812H5.069a.724.724,0,0,0-.648.4L.077,156.8a.724.724,0,0,0,.648,1.048H31.2a.724.724,0,0,0,.648-1.048Zm-16.61-9.058V137.573h1.448V147.74ZM9.413,137.573a.725.725,0,0,1-.724-.724V123.62a2.175,2.175,0,0,1,2.172-2.172h10.2a2.175,2.175,0,0,1,2.172,2.172V136.9a.726.726,0,0,1-1.448,0V123.62a.724.724,0,0,0-1.448,0v27.331a1.1,1.1,0,0,1-2.2,0v-14.1a.724.724,0,0,0-.724-.724h-2.9a.724.724,0,0,0-.724.724v14.1a1.1,1.1,0,0,1-2.2,0V127.965a.724.724,0,0,0-1.448,0v8.883A.725.725,0,0,1,9.413,137.573Zm0,0" transform="translate(0 -108.414)"/>
      <path id="Trazado_177453" data-name="Trazado 177453" d="M105.724,152.9a.724.724,0,0,0,.724-.724v-1.448a.724.724,0,1,0-1.448,0v1.448A.724.724,0,0,0,105.724,152.9Zm0,0" transform="translate(-94.863 -135.518)"/>
      <path id="Trazado_177454" data-name="Trazado 177454" d="M118.233,10.137a5.069,5.069,0,1,0-5.069-5.069A5.075,5.075,0,0,0,118.233,10.137Zm0-8.689a3.62,3.62,0,1,1-3.62,3.62A3.625,3.625,0,0,1,118.233,1.448Zm0,0" transform="translate(-102.239)"/>
    </g>
    <g id="persona-2" data-name="persona" transform="translate(423.716 1633.288)">
      <path id="Trazado_177445-2" data-name="Trazado 177445" d="M251.064,414.5h-2.9v4.345l4.345,4.345h2.9Zm0,0" transform="translate(-224.208 -374.482)" fill="#adf5ff"/>
      <path id="Trazado_177446-2" data-name="Trazado 177446" d="M11.845,414.5,7.5,423.189H35.08L30.736,414.5Zm0,0" transform="translate(-6.776 -374.482)" fill="#acfcff"/>
      <path id="Trazado_177447-2" data-name="Trazado 177447" d="M191.064,127.5h-2.9l2.9,16.173a1.449,1.449,0,0,0,2.9,0V130.4A2.9,2.9,0,0,0,191.064,127.5Zm0,0" transform="translate(-170.001 -115.19)" fill="#f0f0f0"/>
      <path id="Trazado_177448-2" data-name="Trazado 177448" d="M85.4,127.5h2.9l-2.9,16.124a1.448,1.448,0,0,1-2.9,0V130.4A2.9,2.9,0,0,1,85.4,127.5Zm0,0" transform="translate(-74.535 -115.19)" fill="#f0f0f0"/>
      <path id="Trazado_177449-2" data-name="Trazado 177449" d="M122.7,130.4a2.9,2.9,0,0,0-2.9-2.9H115.4a2.9,2.9,0,0,0-2.9,2.9v27.331a1.826,1.826,0,0,0,3.653,0v-14.1h2.9v14.1a1.826,1.826,0,0,0,3.653,0Zm0,0" transform="translate(-101.639 -115.19)" fill="#c1c1c1"/>
      <path id="Trazado_177450-2" data-name="Trazado 177450" d="M165.664,7.5v8.689a4.345,4.345,0,1,0,0-8.689Zm0,0" transform="translate(-149.67 -6.776)" fill="#f0f0f0"/>
      <path id="Trazado_177451-2" data-name="Trazado 177451" d="M126.457,11.845c0-2.4-.649-4.345-1.448-4.345a4.345,4.345,0,1,0,0,8.689C125.808,16.189,126.457,14.244,126.457,11.845Zm0,0" transform="translate(-109.014 -6.776)" fill="#c1c1c1"/>
      <path id="Trazado_177452-2" data-name="Trazado 177452" d="M31.848,156.8,27.5,148.109a.724.724,0,0,0-.648-.4h-2.9a.724.724,0,1,0,0,1.448h2.449l3.62,7.241H1.9l3.62-7.241h4.621v1.794a2.551,2.551,0,0,0,5.1,0v-1.763h1.448v1.763a2.55,2.55,0,0,0,5.1,0V138.9a2.269,2.269,0,0,0,.724.117,2.126,2.126,0,0,0,2.172-2.124V123.62a3.624,3.624,0,0,0-3.62-3.62h-10.2a3.625,3.625,0,0,0-3.62,3.62v13.228a2.172,2.172,0,0,0,2.9,2.048v8.812H5.069a.724.724,0,0,0-.648.4L.077,156.8a.724.724,0,0,0,.648,1.048H31.2a.724.724,0,0,0,.648-1.048Zm-16.61-9.058V137.573h1.448V147.74ZM9.413,137.573a.725.725,0,0,1-.724-.724V123.62a2.175,2.175,0,0,1,2.172-2.172h10.2a2.175,2.175,0,0,1,2.172,2.172V136.9a.726.726,0,0,1-1.448,0V123.62a.724.724,0,0,0-1.448,0v27.331a1.1,1.1,0,0,1-2.2,0v-14.1a.724.724,0,0,0-.724-.724h-2.9a.724.724,0,0,0-.724.724v14.1a1.1,1.1,0,0,1-2.2,0V127.965a.724.724,0,0,0-1.448,0v8.883A.725.725,0,0,1,9.413,137.573Zm0,0" transform="translate(0 -108.414)"/>
      <path id="Trazado_177453-2" data-name="Trazado 177453" d="M105.724,152.9a.724.724,0,0,0,.724-.724v-1.448a.724.724,0,1,0-1.448,0v1.448A.724.724,0,0,0,105.724,152.9Zm0,0" transform="translate(-94.863 -135.518)"/>
      <path id="Trazado_177454-2" data-name="Trazado 177454" d="M118.233,10.137a5.069,5.069,0,1,0-5.069-5.069A5.075,5.075,0,0,0,118.233,10.137Zm0-8.689a3.62,3.62,0,1,1-3.62,3.62A3.625,3.625,0,0,1,118.233,1.448Zm0,0" transform="translate(-102.239)"/>
    </g>
    <g id="persona-3" data-name="persona" transform="translate(465.99 1633.288)">
      <path id="Trazado_177445-3" data-name="Trazado 177445" d="M251.064,414.5h-2.9v4.345l4.345,4.345h2.9Zm0,0" transform="translate(-224.208 -374.482)" fill="#adf5ff"/>
      <path id="Trazado_177446-3" data-name="Trazado 177446" d="M11.845,414.5,7.5,423.189H35.08L30.736,414.5Zm0,0" transform="translate(-6.776 -374.482)" fill="#acfcff"/>
      <path id="Trazado_177447-3" data-name="Trazado 177447" d="M191.064,127.5h-2.9l2.9,16.173a1.449,1.449,0,0,0,2.9,0V130.4A2.9,2.9,0,0,0,191.064,127.5Zm0,0" transform="translate(-170.001 -115.19)" fill="#f0f0f0"/>
      <path id="Trazado_177448-3" data-name="Trazado 177448" d="M85.4,127.5h2.9l-2.9,16.124a1.448,1.448,0,0,1-2.9,0V130.4A2.9,2.9,0,0,1,85.4,127.5Zm0,0" transform="translate(-74.535 -115.19)" fill="#f0f0f0"/>
      <path id="Trazado_177449-3" data-name="Trazado 177449" d="M122.7,130.4a2.9,2.9,0,0,0-2.9-2.9H115.4a2.9,2.9,0,0,0-2.9,2.9v27.331a1.826,1.826,0,0,0,3.653,0v-14.1h2.9v14.1a1.826,1.826,0,0,0,3.653,0Zm0,0" transform="translate(-101.639 -115.19)" fill="#c1c1c1"/>
      <path id="Trazado_177450-3" data-name="Trazado 177450" d="M165.664,7.5v8.689a4.345,4.345,0,1,0,0-8.689Zm0,0" transform="translate(-149.67 -6.776)" fill="#f0f0f0"/>
      <path id="Trazado_177451-3" data-name="Trazado 177451" d="M126.457,11.845c0-2.4-.649-4.345-1.448-4.345a4.345,4.345,0,1,0,0,8.689C125.808,16.189,126.457,14.244,126.457,11.845Zm0,0" transform="translate(-109.014 -6.776)" fill="#c1c1c1"/>
      <path id="Trazado_177452-3" data-name="Trazado 177452" d="M31.848,156.8,27.5,148.109a.724.724,0,0,0-.648-.4h-2.9a.724.724,0,1,0,0,1.448h2.449l3.62,7.241H1.9l3.62-7.241h4.621v1.794a2.551,2.551,0,0,0,5.1,0v-1.763h1.448v1.763a2.55,2.55,0,0,0,5.1,0V138.9a2.269,2.269,0,0,0,.724.117,2.126,2.126,0,0,0,2.172-2.124V123.62a3.624,3.624,0,0,0-3.62-3.62h-10.2a3.625,3.625,0,0,0-3.62,3.62v13.228a2.172,2.172,0,0,0,2.9,2.048v8.812H5.069a.724.724,0,0,0-.648.4L.077,156.8a.724.724,0,0,0,.648,1.048H31.2a.724.724,0,0,0,.648-1.048Zm-16.61-9.058V137.573h1.448V147.74ZM9.413,137.573a.725.725,0,0,1-.724-.724V123.62a2.175,2.175,0,0,1,2.172-2.172h10.2a2.175,2.175,0,0,1,2.172,2.172V136.9a.726.726,0,0,1-1.448,0V123.62a.724.724,0,0,0-1.448,0v27.331a1.1,1.1,0,0,1-2.2,0v-14.1a.724.724,0,0,0-.724-.724h-2.9a.724.724,0,0,0-.724.724v14.1a1.1,1.1,0,0,1-2.2,0V127.965a.724.724,0,0,0-1.448,0v8.883A.725.725,0,0,1,9.413,137.573Zm0,0" transform="translate(0 -108.414)"/>
      <path id="Trazado_177453-3" data-name="Trazado 177453" d="M105.724,152.9a.724.724,0,0,0,.724-.724v-1.448a.724.724,0,1,0-1.448,0v1.448A.724.724,0,0,0,105.724,152.9Zm0,0" transform="translate(-94.863 -135.518)"/>
      <path id="Trazado_177454-3" data-name="Trazado 177454" d="M118.233,10.137a5.069,5.069,0,1,0-5.069-5.069A5.075,5.075,0,0,0,118.233,10.137Zm0-8.689a3.62,3.62,0,1,1-3.62,3.62A3.625,3.625,0,0,1,118.233,1.448Zm0,0" transform="translate(-102.239)"/>
    </g>
    <g id="persona-4" data-name="persona" transform="translate(508.264 1633.288)">
      <path id="Trazado_177445-4" data-name="Trazado 177445" d="M251.064,414.5h-2.9v4.345l4.345,4.345h2.9Zm0,0" transform="translate(-224.208 -374.482)" fill="#adf5ff"/>
      <path id="Trazado_177446-4" data-name="Trazado 177446" d="M11.845,414.5,7.5,423.189H35.08L30.736,414.5Zm0,0" transform="translate(-6.776 -374.482)" fill="#acfcff"/>
      <path id="Trazado_177447-4" data-name="Trazado 177447" d="M191.064,127.5h-2.9l2.9,16.173a1.449,1.449,0,0,0,2.9,0V130.4A2.9,2.9,0,0,0,191.064,127.5Zm0,0" transform="translate(-170.001 -115.19)" fill="#f0f0f0"/>
      <path id="Trazado_177448-4" data-name="Trazado 177448" d="M85.4,127.5h2.9l-2.9,16.124a1.448,1.448,0,0,1-2.9,0V130.4A2.9,2.9,0,0,1,85.4,127.5Zm0,0" transform="translate(-74.535 -115.19)" fill="#f0f0f0"/>
      <path id="Trazado_177449-4" data-name="Trazado 177449" d="M122.7,130.4a2.9,2.9,0,0,0-2.9-2.9H115.4a2.9,2.9,0,0,0-2.9,2.9v27.331a1.826,1.826,0,0,0,3.653,0v-14.1h2.9v14.1a1.826,1.826,0,0,0,3.653,0Zm0,0" transform="translate(-101.639 -115.19)" fill="#c1c1c1"/>
      <path id="Trazado_177450-4" data-name="Trazado 177450" d="M165.664,7.5v8.689a4.345,4.345,0,1,0,0-8.689Zm0,0" transform="translate(-149.67 -6.776)" fill="#f0f0f0"/>
      <path id="Trazado_177451-4" data-name="Trazado 177451" d="M126.457,11.845c0-2.4-.649-4.345-1.448-4.345a4.345,4.345,0,1,0,0,8.689C125.808,16.189,126.457,14.244,126.457,11.845Zm0,0" transform="translate(-109.014 -6.776)" fill="#c1c1c1"/>
      <path id="Trazado_177452-4" data-name="Trazado 177452" d="M31.848,156.8,27.5,148.109a.724.724,0,0,0-.648-.4h-2.9a.724.724,0,1,0,0,1.448h2.449l3.62,7.241H1.9l3.62-7.241h4.621v1.794a2.551,2.551,0,0,0,5.1,0v-1.763h1.448v1.763a2.55,2.55,0,0,0,5.1,0V138.9a2.269,2.269,0,0,0,.724.117,2.126,2.126,0,0,0,2.172-2.124V123.62a3.624,3.624,0,0,0-3.62-3.62h-10.2a3.625,3.625,0,0,0-3.62,3.62v13.228a2.172,2.172,0,0,0,2.9,2.048v8.812H5.069a.724.724,0,0,0-.648.4L.077,156.8a.724.724,0,0,0,.648,1.048H31.2a.724.724,0,0,0,.648-1.048Zm-16.61-9.058V137.573h1.448V147.74ZM9.413,137.573a.725.725,0,0,1-.724-.724V123.62a2.175,2.175,0,0,1,2.172-2.172h10.2a2.175,2.175,0,0,1,2.172,2.172V136.9a.726.726,0,0,1-1.448,0V123.62a.724.724,0,0,0-1.448,0v27.331a1.1,1.1,0,0,1-2.2,0v-14.1a.724.724,0,0,0-.724-.724h-2.9a.724.724,0,0,0-.724.724v14.1a1.1,1.1,0,0,1-2.2,0V127.965a.724.724,0,0,0-1.448,0v8.883A.725.725,0,0,1,9.413,137.573Zm0,0" transform="translate(0 -108.414)"/>
      <path id="Trazado_177453-4" data-name="Trazado 177453" d="M105.724,152.9a.724.724,0,0,0,.724-.724v-1.448a.724.724,0,1,0-1.448,0v1.448A.724.724,0,0,0,105.724,152.9Zm0,0" transform="translate(-94.863 -135.518)"/>
      <path id="Trazado_177454-4" data-name="Trazado 177454" d="M118.233,10.137a5.069,5.069,0,1,0-5.069-5.069A5.075,5.075,0,0,0,118.233,10.137Zm0-8.689a3.62,3.62,0,1,1-3.62,3.62A3.625,3.625,0,0,1,118.233,1.448Zm0,0" transform="translate(-102.239)"/>
    </g>
    <g id="persona-5" data-name="persona" transform="translate(550.538 1633.288)">
      <path id="Trazado_177445-5" data-name="Trazado 177445" d="M251.064,414.5h-2.9v4.345l4.345,4.345h2.9Zm0,0" transform="translate(-224.208 -374.482)" fill="#adf5ff"/>
      <path id="Trazado_177446-5" data-name="Trazado 177446" d="M11.845,414.5,7.5,423.189H35.08L30.736,414.5Zm0,0" transform="translate(-6.776 -374.482)" fill="#acfcff"/>
      <path id="Trazado_177447-5" data-name="Trazado 177447" d="M191.064,127.5h-2.9l2.9,16.173a1.449,1.449,0,0,0,2.9,0V130.4A2.9,2.9,0,0,0,191.064,127.5Zm0,0" transform="translate(-170.001 -115.19)" fill="#f0f0f0"/>
      <path id="Trazado_177448-5" data-name="Trazado 177448" d="M85.4,127.5h2.9l-2.9,16.124a1.448,1.448,0,0,1-2.9,0V130.4A2.9,2.9,0,0,1,85.4,127.5Zm0,0" transform="translate(-74.535 -115.19)" fill="#f0f0f0"/>
      <path id="Trazado_177449-5" data-name="Trazado 177449" d="M122.7,130.4a2.9,2.9,0,0,0-2.9-2.9H115.4a2.9,2.9,0,0,0-2.9,2.9v27.331a1.826,1.826,0,0,0,3.653,0v-14.1h2.9v14.1a1.826,1.826,0,0,0,3.653,0Zm0,0" transform="translate(-101.639 -115.19)" fill="#c1c1c1"/>
      <path id="Trazado_177450-5" data-name="Trazado 177450" d="M165.664,7.5v8.689a4.345,4.345,0,1,0,0-8.689Zm0,0" transform="translate(-149.67 -6.776)" fill="#f0f0f0"/>
      <path id="Trazado_177451-5" data-name="Trazado 177451" d="M126.457,11.845c0-2.4-.649-4.345-1.448-4.345a4.345,4.345,0,1,0,0,8.689C125.808,16.189,126.457,14.244,126.457,11.845Zm0,0" transform="translate(-109.014 -6.776)" fill="#c1c1c1"/>
      <path id="Trazado_177452-5" data-name="Trazado 177452" d="M31.848,156.8,27.5,148.109a.724.724,0,0,0-.648-.4h-2.9a.724.724,0,1,0,0,1.448h2.449l3.62,7.241H1.9l3.62-7.241h4.621v1.794a2.551,2.551,0,0,0,5.1,0v-1.763h1.448v1.763a2.55,2.55,0,0,0,5.1,0V138.9a2.269,2.269,0,0,0,.724.117,2.126,2.126,0,0,0,2.172-2.124V123.62a3.624,3.624,0,0,0-3.62-3.62h-10.2a3.625,3.625,0,0,0-3.62,3.62v13.228a2.172,2.172,0,0,0,2.9,2.048v8.812H5.069a.724.724,0,0,0-.648.4L.077,156.8a.724.724,0,0,0,.648,1.048H31.2a.724.724,0,0,0,.648-1.048Zm-16.61-9.058V137.573h1.448V147.74ZM9.413,137.573a.725.725,0,0,1-.724-.724V123.62a2.175,2.175,0,0,1,2.172-2.172h10.2a2.175,2.175,0,0,1,2.172,2.172V136.9a.726.726,0,0,1-1.448,0V123.62a.724.724,0,0,0-1.448,0v27.331a1.1,1.1,0,0,1-2.2,0v-14.1a.724.724,0,0,0-.724-.724h-2.9a.724.724,0,0,0-.724.724v14.1a1.1,1.1,0,0,1-2.2,0V127.965a.724.724,0,0,0-1.448,0v8.883A.725.725,0,0,1,9.413,137.573Zm0,0" transform="translate(0 -108.414)"/>
      <path id="Trazado_177453-5" data-name="Trazado 177453" d="M105.724,152.9a.724.724,0,0,0,.724-.724v-1.448a.724.724,0,1,0-1.448,0v1.448A.724.724,0,0,0,105.724,152.9Zm0,0" transform="translate(-94.863 -135.518)"/>
      <path id="Trazado_177454-5" data-name="Trazado 177454" d="M118.233,10.137a5.069,5.069,0,1,0-5.069-5.069A5.075,5.075,0,0,0,118.233,10.137Zm0-8.689a3.62,3.62,0,1,1-3.62,3.62A3.625,3.625,0,0,1,118.233,1.448Zm0,0" transform="translate(-102.239)"/>
    </g>
    <g id="persona-6" data-name="persona" transform="translate(592.812 1633.288)">
      <path id="Trazado_177445-6" data-name="Trazado 177445" d="M251.064,414.5h-2.9v4.345l4.345,4.345h2.9Zm0,0" transform="translate(-224.208 -374.482)" fill="#adf5ff"/>
      <path id="Trazado_177446-6" data-name="Trazado 177446" d="M11.845,414.5,7.5,423.189H35.08L30.736,414.5Zm0,0" transform="translate(-6.776 -374.482)" fill="#acfcff"/>
      <path id="Trazado_177447-6" data-name="Trazado 177447" d="M191.064,127.5h-2.9l2.9,16.173a1.449,1.449,0,0,0,2.9,0V130.4A2.9,2.9,0,0,0,191.064,127.5Zm0,0" transform="translate(-170.001 -115.19)" fill="#f0f0f0"/>
      <path id="Trazado_177448-6" data-name="Trazado 177448" d="M85.4,127.5h2.9l-2.9,16.124a1.448,1.448,0,0,1-2.9,0V130.4A2.9,2.9,0,0,1,85.4,127.5Zm0,0" transform="translate(-74.535 -115.19)" fill="#f0f0f0"/>
      <path id="Trazado_177449-6" data-name="Trazado 177449" d="M122.7,130.4a2.9,2.9,0,0,0-2.9-2.9H115.4a2.9,2.9,0,0,0-2.9,2.9v27.331a1.826,1.826,0,0,0,3.653,0v-14.1h2.9v14.1a1.826,1.826,0,0,0,3.653,0Zm0,0" transform="translate(-101.639 -115.19)" fill="#c1c1c1"/>
      <path id="Trazado_177450-6" data-name="Trazado 177450" d="M165.664,7.5v8.689a4.345,4.345,0,1,0,0-8.689Zm0,0" transform="translate(-149.67 -6.776)" fill="#f0f0f0"/>
      <path id="Trazado_177451-6" data-name="Trazado 177451" d="M126.457,11.845c0-2.4-.649-4.345-1.448-4.345a4.345,4.345,0,1,0,0,8.689C125.808,16.189,126.457,14.244,126.457,11.845Zm0,0" transform="translate(-109.014 -6.776)" fill="#c1c1c1"/>
      <path id="Trazado_177452-6" data-name="Trazado 177452" d="M31.848,156.8,27.5,148.109a.724.724,0,0,0-.648-.4h-2.9a.724.724,0,1,0,0,1.448h2.449l3.62,7.241H1.9l3.62-7.241h4.621v1.794a2.551,2.551,0,0,0,5.1,0v-1.763h1.448v1.763a2.55,2.55,0,0,0,5.1,0V138.9a2.269,2.269,0,0,0,.724.117,2.126,2.126,0,0,0,2.172-2.124V123.62a3.624,3.624,0,0,0-3.62-3.62h-10.2a3.625,3.625,0,0,0-3.62,3.62v13.228a2.172,2.172,0,0,0,2.9,2.048v8.812H5.069a.724.724,0,0,0-.648.4L.077,156.8a.724.724,0,0,0,.648,1.048H31.2a.724.724,0,0,0,.648-1.048Zm-16.61-9.058V137.573h1.448V147.74ZM9.413,137.573a.725.725,0,0,1-.724-.724V123.62a2.175,2.175,0,0,1,2.172-2.172h10.2a2.175,2.175,0,0,1,2.172,2.172V136.9a.726.726,0,0,1-1.448,0V123.62a.724.724,0,0,0-1.448,0v27.331a1.1,1.1,0,0,1-2.2,0v-14.1a.724.724,0,0,0-.724-.724h-2.9a.724.724,0,0,0-.724.724v14.1a1.1,1.1,0,0,1-2.2,0V127.965a.724.724,0,0,0-1.448,0v8.883A.725.725,0,0,1,9.413,137.573Zm0,0" transform="translate(0 -108.414)"/>
      <path id="Trazado_177453-6" data-name="Trazado 177453" d="M105.724,152.9a.724.724,0,0,0,.724-.724v-1.448a.724.724,0,1,0-1.448,0v1.448A.724.724,0,0,0,105.724,152.9Zm0,0" transform="translate(-94.863 -135.518)"/>
      <path id="Trazado_177454-6" data-name="Trazado 177454" d="M118.233,10.137a5.069,5.069,0,1,0-5.069-5.069A5.075,5.075,0,0,0,118.233,10.137Zm0-8.689a3.62,3.62,0,1,1-3.62,3.62A3.625,3.625,0,0,1,118.233,1.448Zm0,0" transform="translate(-102.239)"/>
    </g>
    <g id="persona-7" data-name="persona" transform="translate(635.085 1633.288)">
      <path id="Trazado_177445-7" data-name="Trazado 177445" d="M251.064,414.5h-2.9v4.345l4.345,4.345h2.9Zm0,0" transform="translate(-224.208 -374.482)" fill="#adf5ff"/>
      <path id="Trazado_177446-7" data-name="Trazado 177446" d="M11.845,414.5,7.5,423.189H35.08L30.736,414.5Zm0,0" transform="translate(-6.776 -374.482)" fill="#acfcff"/>
      <path id="Trazado_177447-7" data-name="Trazado 177447" d="M191.064,127.5h-2.9l2.9,16.173a1.449,1.449,0,0,0,2.9,0V130.4A2.9,2.9,0,0,0,191.064,127.5Zm0,0" transform="translate(-170.001 -115.19)" fill="#f0f0f0"/>
      <path id="Trazado_177448-7" data-name="Trazado 177448" d="M85.4,127.5h2.9l-2.9,16.124a1.448,1.448,0,0,1-2.9,0V130.4A2.9,2.9,0,0,1,85.4,127.5Zm0,0" transform="translate(-74.535 -115.19)" fill="#f0f0f0"/>
      <path id="Trazado_177449-7" data-name="Trazado 177449" d="M122.7,130.4a2.9,2.9,0,0,0-2.9-2.9H115.4a2.9,2.9,0,0,0-2.9,2.9v27.331a1.826,1.826,0,0,0,3.653,0v-14.1h2.9v14.1a1.826,1.826,0,0,0,3.653,0Zm0,0" transform="translate(-101.639 -115.19)" fill="#c1c1c1"/>
      <path id="Trazado_177450-7" data-name="Trazado 177450" d="M165.664,7.5v8.689a4.345,4.345,0,1,0,0-8.689Zm0,0" transform="translate(-149.67 -6.776)" fill="#f0f0f0"/>
      <path id="Trazado_177451-7" data-name="Trazado 177451" d="M126.457,11.845c0-2.4-.649-4.345-1.448-4.345a4.345,4.345,0,1,0,0,8.689C125.808,16.189,126.457,14.244,126.457,11.845Zm0,0" transform="translate(-109.014 -6.776)" fill="#c1c1c1"/>
      <path id="Trazado_177452-7" data-name="Trazado 177452" d="M31.848,156.8,27.5,148.109a.724.724,0,0,0-.648-.4h-2.9a.724.724,0,1,0,0,1.448h2.449l3.62,7.241H1.9l3.62-7.241h4.621v1.794a2.551,2.551,0,0,0,5.1,0v-1.763h1.448v1.763a2.55,2.55,0,0,0,5.1,0V138.9a2.269,2.269,0,0,0,.724.117,2.126,2.126,0,0,0,2.172-2.124V123.62a3.624,3.624,0,0,0-3.62-3.62h-10.2a3.625,3.625,0,0,0-3.62,3.62v13.228a2.172,2.172,0,0,0,2.9,2.048v8.812H5.069a.724.724,0,0,0-.648.4L.077,156.8a.724.724,0,0,0,.648,1.048H31.2a.724.724,0,0,0,.648-1.048Zm-16.61-9.058V137.573h1.448V147.74ZM9.413,137.573a.725.725,0,0,1-.724-.724V123.62a2.175,2.175,0,0,1,2.172-2.172h10.2a2.175,2.175,0,0,1,2.172,2.172V136.9a.726.726,0,0,1-1.448,0V123.62a.724.724,0,0,0-1.448,0v27.331a1.1,1.1,0,0,1-2.2,0v-14.1a.724.724,0,0,0-.724-.724h-2.9a.724.724,0,0,0-.724.724v14.1a1.1,1.1,0,0,1-2.2,0V127.965a.724.724,0,0,0-1.448,0v8.883A.725.725,0,0,1,9.413,137.573Zm0,0" transform="translate(0 -108.414)"/>
      <path id="Trazado_177453-7" data-name="Trazado 177453" d="M105.724,152.9a.724.724,0,0,0,.724-.724v-1.448a.724.724,0,1,0-1.448,0v1.448A.724.724,0,0,0,105.724,152.9Zm0,0" transform="translate(-94.863 -135.518)"/>
      <path id="Trazado_177454-7" data-name="Trazado 177454" d="M118.233,10.137a5.069,5.069,0,1,0-5.069-5.069A5.075,5.075,0,0,0,118.233,10.137Zm0-8.689a3.62,3.62,0,1,1-3.62,3.62A3.625,3.625,0,0,1,118.233,1.448Zm0,0" transform="translate(-102.239)"/>
    </g>
    <g id="persona-8" data-name="persona" transform="translate(677.359 1633.288)">
      <path id="Trazado_177445-8" data-name="Trazado 177445" d="M251.064,414.5h-2.9v4.345l4.345,4.345h2.9Zm0,0" transform="translate(-224.208 -374.482)" fill="#adf5ff"/>
      <path id="Trazado_177446-8" data-name="Trazado 177446" d="M11.845,414.5,7.5,423.189H35.08L30.736,414.5Zm0,0" transform="translate(-6.776 -374.482)" fill="#acfcff"/>
      <path id="Trazado_177447-8" data-name="Trazado 177447" d="M191.064,127.5h-2.9l2.9,16.173a1.449,1.449,0,0,0,2.9,0V130.4A2.9,2.9,0,0,0,191.064,127.5Zm0,0" transform="translate(-170.001 -115.19)" fill="#f0f0f0"/>
      <path id="Trazado_177448-8" data-name="Trazado 177448" d="M85.4,127.5h2.9l-2.9,16.124a1.448,1.448,0,0,1-2.9,0V130.4A2.9,2.9,0,0,1,85.4,127.5Zm0,0" transform="translate(-74.535 -115.19)" fill="#f0f0f0"/>
      <path id="Trazado_177449-8" data-name="Trazado 177449" d="M122.7,130.4a2.9,2.9,0,0,0-2.9-2.9H115.4a2.9,2.9,0,0,0-2.9,2.9v27.331a1.826,1.826,0,0,0,3.653,0v-14.1h2.9v14.1a1.826,1.826,0,0,0,3.653,0Zm0,0" transform="translate(-101.639 -115.19)" fill="#c1c1c1"/>
      <path id="Trazado_177450-8" data-name="Trazado 177450" d="M165.664,7.5v8.689a4.345,4.345,0,1,0,0-8.689Zm0,0" transform="translate(-149.67 -6.776)" fill="#f0f0f0"/>
      <path id="Trazado_177451-8" data-name="Trazado 177451" d="M126.457,11.845c0-2.4-.649-4.345-1.448-4.345a4.345,4.345,0,1,0,0,8.689C125.808,16.189,126.457,14.244,126.457,11.845Zm0,0" transform="translate(-109.014 -6.776)" fill="#c1c1c1"/>
      <path id="Trazado_177452-8" data-name="Trazado 177452" d="M31.848,156.8,27.5,148.109a.724.724,0,0,0-.648-.4h-2.9a.724.724,0,1,0,0,1.448h2.449l3.62,7.241H1.9l3.62-7.241h4.621v1.794a2.551,2.551,0,0,0,5.1,0v-1.763h1.448v1.763a2.55,2.55,0,0,0,5.1,0V138.9a2.269,2.269,0,0,0,.724.117,2.126,2.126,0,0,0,2.172-2.124V123.62a3.624,3.624,0,0,0-3.62-3.62h-10.2a3.625,3.625,0,0,0-3.62,3.62v13.228a2.172,2.172,0,0,0,2.9,2.048v8.812H5.069a.724.724,0,0,0-.648.4L.077,156.8a.724.724,0,0,0,.648,1.048H31.2a.724.724,0,0,0,.648-1.048Zm-16.61-9.058V137.573h1.448V147.74ZM9.413,137.573a.725.725,0,0,1-.724-.724V123.62a2.175,2.175,0,0,1,2.172-2.172h10.2a2.175,2.175,0,0,1,2.172,2.172V136.9a.726.726,0,0,1-1.448,0V123.62a.724.724,0,0,0-1.448,0v27.331a1.1,1.1,0,0,1-2.2,0v-14.1a.724.724,0,0,0-.724-.724h-2.9a.724.724,0,0,0-.724.724v14.1a1.1,1.1,0,0,1-2.2,0V127.965a.724.724,0,0,0-1.448,0v8.883A.725.725,0,0,1,9.413,137.573Zm0,0" transform="translate(0 -108.414)"/>
      <path id="Trazado_177453-8" data-name="Trazado 177453" d="M105.724,152.9a.724.724,0,0,0,.724-.724v-1.448a.724.724,0,1,0-1.448,0v1.448A.724.724,0,0,0,105.724,152.9Zm0,0" transform="translate(-94.863 -135.518)"/>
      <path id="Trazado_177454-8" data-name="Trazado 177454" d="M118.233,10.137a5.069,5.069,0,1,0-5.069-5.069A5.075,5.075,0,0,0,118.233,10.137Zm0-8.689a3.62,3.62,0,1,1-3.62,3.62A3.625,3.625,0,0,1,118.233,1.448Zm0,0" transform="translate(-102.239)"/>
    </g>
    <g id="persona-9" data-name="persona" transform="translate(719.633 1633.288)">
      <path id="Trazado_177445-9" data-name="Trazado 177445" d="M251.064,414.5h-2.9v4.345l4.345,4.345h2.9Zm0,0" transform="translate(-224.208 -374.482)" fill="#adf5ff"/>
      <path id="Trazado_177446-9" data-name="Trazado 177446" d="M11.845,414.5,7.5,423.189H35.08L30.736,414.5Zm0,0" transform="translate(-6.776 -374.482)" fill="#acfcff"/>
      <path id="Trazado_177447-9" data-name="Trazado 177447" d="M191.064,127.5h-2.9l2.9,16.173a1.449,1.449,0,0,0,2.9,0V130.4A2.9,2.9,0,0,0,191.064,127.5Zm0,0" transform="translate(-170.001 -115.19)" fill="#f0f0f0"/>
      <path id="Trazado_177448-9" data-name="Trazado 177448" d="M85.4,127.5h2.9l-2.9,16.124a1.448,1.448,0,0,1-2.9,0V130.4A2.9,2.9,0,0,1,85.4,127.5Zm0,0" transform="translate(-74.535 -115.19)" fill="#f0f0f0"/>
      <path id="Trazado_177449-9" data-name="Trazado 177449" d="M122.7,130.4a2.9,2.9,0,0,0-2.9-2.9H115.4a2.9,2.9,0,0,0-2.9,2.9v27.331a1.826,1.826,0,0,0,3.653,0v-14.1h2.9v14.1a1.826,1.826,0,0,0,3.653,0Zm0,0" transform="translate(-101.639 -115.19)" fill="#c1c1c1"/>
      <path id="Trazado_177450-9" data-name="Trazado 177450" d="M165.664,7.5v8.689a4.345,4.345,0,1,0,0-8.689Zm0,0" transform="translate(-149.67 -6.776)" fill="#f0f0f0"/>
      <path id="Trazado_177451-9" data-name="Trazado 177451" d="M126.457,11.845c0-2.4-.649-4.345-1.448-4.345a4.345,4.345,0,1,0,0,8.689C125.808,16.189,126.457,14.244,126.457,11.845Zm0,0" transform="translate(-109.014 -6.776)" fill="#c1c1c1"/>
      <path id="Trazado_177452-9" data-name="Trazado 177452" d="M31.848,156.8,27.5,148.109a.724.724,0,0,0-.648-.4h-2.9a.724.724,0,1,0,0,1.448h2.449l3.62,7.241H1.9l3.62-7.241h4.621v1.794a2.551,2.551,0,0,0,5.1,0v-1.763h1.448v1.763a2.55,2.55,0,0,0,5.1,0V138.9a2.269,2.269,0,0,0,.724.117,2.126,2.126,0,0,0,2.172-2.124V123.62a3.624,3.624,0,0,0-3.62-3.62h-10.2a3.625,3.625,0,0,0-3.62,3.62v13.228a2.172,2.172,0,0,0,2.9,2.048v8.812H5.069a.724.724,0,0,0-.648.4L.077,156.8a.724.724,0,0,0,.648,1.048H31.2a.724.724,0,0,0,.648-1.048Zm-16.61-9.058V137.573h1.448V147.74ZM9.413,137.573a.725.725,0,0,1-.724-.724V123.62a2.175,2.175,0,0,1,2.172-2.172h10.2a2.175,2.175,0,0,1,2.172,2.172V136.9a.726.726,0,0,1-1.448,0V123.62a.724.724,0,0,0-1.448,0v27.331a1.1,1.1,0,0,1-2.2,0v-14.1a.724.724,0,0,0-.724-.724h-2.9a.724.724,0,0,0-.724.724v14.1a1.1,1.1,0,0,1-2.2,0V127.965a.724.724,0,0,0-1.448,0v8.883A.725.725,0,0,1,9.413,137.573Zm0,0" transform="translate(0 -108.414)"/>
      <path id="Trazado_177453-9" data-name="Trazado 177453" d="M105.724,152.9a.724.724,0,0,0,.724-.724v-1.448a.724.724,0,1,0-1.448,0v1.448A.724.724,0,0,0,105.724,152.9Zm0,0" transform="translate(-94.863 -135.518)"/>
      <path id="Trazado_177454-9" data-name="Trazado 177454" d="M118.233,10.137a5.069,5.069,0,1,0-5.069-5.069A5.075,5.075,0,0,0,118.233,10.137Zm0-8.689a3.62,3.62,0,1,1-3.62,3.62A3.625,3.625,0,0,1,118.233,1.448Zm0,0" transform="translate(-102.239)"/>
    </g>
    <g id="persona-10" data-name="persona" transform="translate(508.264 1746.019)">
      <path id="Trazado_177445-10" data-name="Trazado 177445" d="M251.064,414.5h-2.9v4.345l4.345,4.345h2.9Zm0,0" transform="translate(-224.208 -374.482)" fill="#adf5ff"/>
      <path id="Trazado_177446-10" data-name="Trazado 177446" d="M11.845,414.5,7.5,423.189H35.08L30.736,414.5Zm0,0" transform="translate(-6.776 -374.482)" fill="#acfcff"/>
      <path id="Trazado_177447-10" data-name="Trazado 177447" d="M191.064,127.5h-2.9l2.9,16.173a1.449,1.449,0,0,0,2.9,0V130.4A2.9,2.9,0,0,0,191.064,127.5Zm0,0" transform="translate(-170.001 -115.19)" fill="#f0f0f0"/>
      <path id="Trazado_177448-10" data-name="Trazado 177448" d="M85.4,127.5h2.9l-2.9,16.124a1.448,1.448,0,0,1-2.9,0V130.4A2.9,2.9,0,0,1,85.4,127.5Zm0,0" transform="translate(-74.535 -115.19)" fill="#f0f0f0"/>
      <path id="Trazado_177449-10" data-name="Trazado 177449" d="M122.7,130.4a2.9,2.9,0,0,0-2.9-2.9H115.4a2.9,2.9,0,0,0-2.9,2.9v27.331a1.826,1.826,0,0,0,3.653,0v-14.1h2.9v14.1a1.826,1.826,0,0,0,3.653,0Zm0,0" transform="translate(-101.639 -115.19)" fill="#c1c1c1"/>
      <path id="Trazado_177450-10" data-name="Trazado 177450" d="M165.664,7.5v8.689a4.345,4.345,0,1,0,0-8.689Zm0,0" transform="translate(-149.67 -6.776)" fill="#f0f0f0"/>
      <path id="Trazado_177451-10" data-name="Trazado 177451" d="M126.457,11.845c0-2.4-.649-4.345-1.448-4.345a4.345,4.345,0,1,0,0,8.689C125.808,16.189,126.457,14.244,126.457,11.845Zm0,0" transform="translate(-109.014 -6.776)" fill="#c1c1c1"/>
      <path id="Trazado_177452-10" data-name="Trazado 177452" d="M31.848,156.8,27.5,148.109a.724.724,0,0,0-.648-.4h-2.9a.724.724,0,1,0,0,1.448h2.449l3.62,7.241H1.9l3.62-7.241h4.621v1.794a2.551,2.551,0,0,0,5.1,0v-1.763h1.448v1.763a2.55,2.55,0,0,0,5.1,0V138.9a2.269,2.269,0,0,0,.724.117,2.126,2.126,0,0,0,2.172-2.124V123.62a3.624,3.624,0,0,0-3.62-3.62h-10.2a3.625,3.625,0,0,0-3.62,3.62v13.228a2.172,2.172,0,0,0,2.9,2.048v8.812H5.069a.724.724,0,0,0-.648.4L.077,156.8a.724.724,0,0,0,.648,1.048H31.2a.724.724,0,0,0,.648-1.048Zm-16.61-9.058V137.573h1.448V147.74ZM9.413,137.573a.725.725,0,0,1-.724-.724V123.62a2.175,2.175,0,0,1,2.172-2.172h10.2a2.175,2.175,0,0,1,2.172,2.172V136.9a.726.726,0,0,1-1.448,0V123.62a.724.724,0,0,0-1.448,0v27.331a1.1,1.1,0,0,1-2.2,0v-14.1a.724.724,0,0,0-.724-.724h-2.9a.724.724,0,0,0-.724.724v14.1a1.1,1.1,0,0,1-2.2,0V127.965a.724.724,0,0,0-1.448,0v8.883A.725.725,0,0,1,9.413,137.573Zm0,0" transform="translate(0 -108.414)"/>
      <path id="Trazado_177453-10" data-name="Trazado 177453" d="M105.724,152.9a.724.724,0,0,0,.724-.724v-1.448a.724.724,0,1,0-1.448,0v1.448A.724.724,0,0,0,105.724,152.9Zm0,0" transform="translate(-94.863 -135.518)"/>
      <path id="Trazado_177454-10" data-name="Trazado 177454" d="M118.233,10.137a5.069,5.069,0,1,0-5.069-5.069A5.075,5.075,0,0,0,118.233,10.137Zm0-8.689a3.62,3.62,0,1,1-3.62,3.62A3.625,3.625,0,0,1,118.233,1.448Zm0,0" transform="translate(-102.239)"/>
    </g>
    <g id="persona-11" data-name="persona" transform="translate(550.538 1746.019)">
      <path id="Trazado_177445-11" data-name="Trazado 177445" d="M251.064,414.5h-2.9v4.345l4.345,4.345h2.9Zm0,0" transform="translate(-224.208 -374.482)" fill="#adf5ff"/>
      <path id="Trazado_177446-11" data-name="Trazado 177446" d="M11.845,414.5,7.5,423.189H35.08L30.736,414.5Zm0,0" transform="translate(-6.776 -374.482)" fill="#acfcff"/>
      <path id="Trazado_177447-11" data-name="Trazado 177447" d="M191.064,127.5h-2.9l2.9,16.173a1.449,1.449,0,0,0,2.9,0V130.4A2.9,2.9,0,0,0,191.064,127.5Zm0,0" transform="translate(-170.001 -115.19)" fill="#f0f0f0"/>
      <path id="Trazado_177448-11" data-name="Trazado 177448" d="M85.4,127.5h2.9l-2.9,16.124a1.448,1.448,0,0,1-2.9,0V130.4A2.9,2.9,0,0,1,85.4,127.5Zm0,0" transform="translate(-74.535 -115.19)" fill="#f0f0f0"/>
      <path id="Trazado_177449-11" data-name="Trazado 177449" d="M122.7,130.4a2.9,2.9,0,0,0-2.9-2.9H115.4a2.9,2.9,0,0,0-2.9,2.9v27.331a1.826,1.826,0,0,0,3.653,0v-14.1h2.9v14.1a1.826,1.826,0,0,0,3.653,0Zm0,0" transform="translate(-101.639 -115.19)" fill="#c1c1c1"/>
      <path id="Trazado_177450-11" data-name="Trazado 177450" d="M165.664,7.5v8.689a4.345,4.345,0,1,0,0-8.689Zm0,0" transform="translate(-149.67 -6.776)" fill="#f0f0f0"/>
      <path id="Trazado_177451-11" data-name="Trazado 177451" d="M126.457,11.845c0-2.4-.649-4.345-1.448-4.345a4.345,4.345,0,1,0,0,8.689C125.808,16.189,126.457,14.244,126.457,11.845Zm0,0" transform="translate(-109.014 -6.776)" fill="#c1c1c1"/>
      <path id="Trazado_177452-11" data-name="Trazado 177452" d="M31.848,156.8,27.5,148.109a.724.724,0,0,0-.648-.4h-2.9a.724.724,0,1,0,0,1.448h2.449l3.62,7.241H1.9l3.62-7.241h4.621v1.794a2.551,2.551,0,0,0,5.1,0v-1.763h1.448v1.763a2.55,2.55,0,0,0,5.1,0V138.9a2.269,2.269,0,0,0,.724.117,2.126,2.126,0,0,0,2.172-2.124V123.62a3.624,3.624,0,0,0-3.62-3.62h-10.2a3.625,3.625,0,0,0-3.62,3.62v13.228a2.172,2.172,0,0,0,2.9,2.048v8.812H5.069a.724.724,0,0,0-.648.4L.077,156.8a.724.724,0,0,0,.648,1.048H31.2a.724.724,0,0,0,.648-1.048Zm-16.61-9.058V137.573h1.448V147.74ZM9.413,137.573a.725.725,0,0,1-.724-.724V123.62a2.175,2.175,0,0,1,2.172-2.172h10.2a2.175,2.175,0,0,1,2.172,2.172V136.9a.726.726,0,0,1-1.448,0V123.62a.724.724,0,0,0-1.448,0v27.331a1.1,1.1,0,0,1-2.2,0v-14.1a.724.724,0,0,0-.724-.724h-2.9a.724.724,0,0,0-.724.724v14.1a1.1,1.1,0,0,1-2.2,0V127.965a.724.724,0,0,0-1.448,0v8.883A.725.725,0,0,1,9.413,137.573Zm0,0" transform="translate(0 -108.414)"/>
      <path id="Trazado_177453-11" data-name="Trazado 177453" d="M105.724,152.9a.724.724,0,0,0,.724-.724v-1.448a.724.724,0,1,0-1.448,0v1.448A.724.724,0,0,0,105.724,152.9Zm0,0" transform="translate(-94.863 -135.518)"/>
      <path id="Trazado_177454-11" data-name="Trazado 177454" d="M118.233,10.137a5.069,5.069,0,1,0-5.069-5.069A5.075,5.075,0,0,0,118.233,10.137Zm0-8.689a3.62,3.62,0,1,1-3.62,3.62A3.625,3.625,0,0,1,118.233,1.448Zm0,0" transform="translate(-102.239)"/>
    </g>
    <g id="persona-12" data-name="persona" transform="translate(592.812 1746.019)">
      <path id="Trazado_177445-12" data-name="Trazado 177445" d="M251.064,414.5h-2.9v4.345l4.345,4.345h2.9Zm0,0" transform="translate(-224.208 -374.482)" fill="#adf5ff"/>
      <path id="Trazado_177446-12" data-name="Trazado 177446" d="M11.845,414.5,7.5,423.189H35.08L30.736,414.5Zm0,0" transform="translate(-6.776 -374.482)" fill="#acfcff"/>
      <path id="Trazado_177447-12" data-name="Trazado 177447" d="M191.064,127.5h-2.9l2.9,16.173a1.449,1.449,0,0,0,2.9,0V130.4A2.9,2.9,0,0,0,191.064,127.5Zm0,0" transform="translate(-170.001 -115.19)" fill="#f0f0f0"/>
      <path id="Trazado_177448-12" data-name="Trazado 177448" d="M85.4,127.5h2.9l-2.9,16.124a1.448,1.448,0,0,1-2.9,0V130.4A2.9,2.9,0,0,1,85.4,127.5Zm0,0" transform="translate(-74.535 -115.19)" fill="#f0f0f0"/>
      <path id="Trazado_177449-12" data-name="Trazado 177449" d="M122.7,130.4a2.9,2.9,0,0,0-2.9-2.9H115.4a2.9,2.9,0,0,0-2.9,2.9v27.331a1.826,1.826,0,0,0,3.653,0v-14.1h2.9v14.1a1.826,1.826,0,0,0,3.653,0Zm0,0" transform="translate(-101.639 -115.19)" fill="#c1c1c1"/>
      <path id="Trazado_177450-12" data-name="Trazado 177450" d="M165.664,7.5v8.689a4.345,4.345,0,1,0,0-8.689Zm0,0" transform="translate(-149.67 -6.776)" fill="#f0f0f0"/>
      <path id="Trazado_177451-12" data-name="Trazado 177451" d="M126.457,11.845c0-2.4-.649-4.345-1.448-4.345a4.345,4.345,0,1,0,0,8.689C125.808,16.189,126.457,14.244,126.457,11.845Zm0,0" transform="translate(-109.014 -6.776)" fill="#c1c1c1"/>
      <path id="Trazado_177452-12" data-name="Trazado 177452" d="M31.848,156.8,27.5,148.109a.724.724,0,0,0-.648-.4h-2.9a.724.724,0,1,0,0,1.448h2.449l3.62,7.241H1.9l3.62-7.241h4.621v1.794a2.551,2.551,0,0,0,5.1,0v-1.763h1.448v1.763a2.55,2.55,0,0,0,5.1,0V138.9a2.269,2.269,0,0,0,.724.117,2.126,2.126,0,0,0,2.172-2.124V123.62a3.624,3.624,0,0,0-3.62-3.62h-10.2a3.625,3.625,0,0,0-3.62,3.62v13.228a2.172,2.172,0,0,0,2.9,2.048v8.812H5.069a.724.724,0,0,0-.648.4L.077,156.8a.724.724,0,0,0,.648,1.048H31.2a.724.724,0,0,0,.648-1.048Zm-16.61-9.058V137.573h1.448V147.74ZM9.413,137.573a.725.725,0,0,1-.724-.724V123.62a2.175,2.175,0,0,1,2.172-2.172h10.2a2.175,2.175,0,0,1,2.172,2.172V136.9a.726.726,0,0,1-1.448,0V123.62a.724.724,0,0,0-1.448,0v27.331a1.1,1.1,0,0,1-2.2,0v-14.1a.724.724,0,0,0-.724-.724h-2.9a.724.724,0,0,0-.724.724v14.1a1.1,1.1,0,0,1-2.2,0V127.965a.724.724,0,0,0-1.448,0v8.883A.725.725,0,0,1,9.413,137.573Zm0,0" transform="translate(0 -108.414)"/>
      <path id="Trazado_177453-12" data-name="Trazado 177453" d="M105.724,152.9a.724.724,0,0,0,.724-.724v-1.448a.724.724,0,1,0-1.448,0v1.448A.724.724,0,0,0,105.724,152.9Zm0,0" transform="translate(-94.863 -135.518)"/>
      <path id="Trazado_177454-12" data-name="Trazado 177454" d="M118.233,10.137a5.069,5.069,0,1,0-5.069-5.069A5.075,5.075,0,0,0,118.233,10.137Zm0-8.689a3.62,3.62,0,1,1-3.62,3.62A3.625,3.625,0,0,1,118.233,1.448Zm0,0" transform="translate(-102.239)"/>
    </g>
    <g id="Trazado_197432" data-name="Trazado 197432" transform="translate(385.67 1698.517)" fill="#ff8578">
      <path d="M 11.15561866760254 21.56123924255371 C 5.417938709259033 21.56123924255371 0.7499986886978149 16.8932991027832 0.7499986886978149 11.15561866760254 C 0.7499986886978149 5.417938709259033 5.417938709259033 0.7499986886978149 11.15561866760254 0.7499986886978149 C 16.8932991027832 0.7499986886978149 21.56123924255371 5.417938709259033 21.56123924255371 11.15561866760254 C 21.56123924255371 16.8932991027832 16.8932991027832 21.56123924255371 11.15561866760254 21.56123924255371 Z" stroke="none"/>
      <path d="M 11.15561866760254 1.499998092651367 C 5.831489562988281 1.499998092651367 1.499998092651367 5.831489562988281 1.499998092651367 11.15561866760254 C 1.499998092651367 16.4797477722168 5.831489562988281 20.81123924255371 11.15561866760254 20.81123924255371 C 16.4797477722168 20.81123924255371 20.81123924255371 16.4797477722168 20.81123924255371 11.15561866760254 C 20.81123924255371 5.831489562988281 16.4797477722168 1.499998092651367 11.15561866760254 1.499998092651367 M 11.15561866760254 -1.9073486328125e-06 C 17.31669807434082 -1.9073486328125e-06 22.31123924255371 4.994539260864258 22.31123924255371 11.15561866760254 C 22.31123924255371 17.31669807434082 17.31669807434082 22.31123924255371 11.15561866760254 22.31123924255371 C 4.994539260864258 22.31123924255371 -1.9073486328125e-06 17.31669807434082 -1.9073486328125e-06 11.15561866760254 C -1.9073486328125e-06 4.994539260864258 4.994539260864258 -1.9073486328125e-06 11.15561866760254 -1.9073486328125e-06 Z" stroke="none" fill="#121212"/>
    </g>
    <path id="Trazado_197423" data-name="Trazado 197423" d="M6.741,0H4.614V-10.281L1.477-9.211V-11l4.992-1.837h.272Z" transform="translate(391.542 1716.69)" fill="#12263f"/>
    <g id="Trazado_197433" data-name="Trazado 197433" transform="translate(427.944 1698.517)" fill="#ff8578">
      <path d="M 11.15561866760254 21.56123924255371 C 5.417938709259033 21.56123924255371 0.7499986886978149 16.8932991027832 0.7499986886978149 11.15561866760254 C 0.7499986886978149 5.417938709259033 5.417938709259033 0.7499986886978149 11.15561866760254 0.7499986886978149 C 16.8932991027832 0.7499986886978149 21.56123924255371 5.417938709259033 21.56123924255371 11.15561866760254 C 21.56123924255371 16.8932991027832 16.8932991027832 21.56123924255371 11.15561866760254 21.56123924255371 Z" stroke="none"/>
      <path d="M 11.15561866760254 1.499998092651367 C 5.831489562988281 1.499998092651367 1.499998092651367 5.831489562988281 1.499998092651367 11.15561866760254 C 1.499998092651367 16.4797477722168 5.831489562988281 20.81123924255371 11.15561866760254 20.81123924255371 C 16.4797477722168 20.81123924255371 20.81123924255371 16.4797477722168 20.81123924255371 11.15561866760254 C 20.81123924255371 5.831489562988281 16.4797477722168 1.499998092651367 11.15561866760254 1.499998092651367 M 11.15561866760254 -1.9073486328125e-06 C 17.31669807434082 -1.9073486328125e-06 22.31123924255371 4.994539260864258 22.31123924255371 11.15561866760254 C 22.31123924255371 17.31669807434082 17.31669807434082 22.31123924255371 11.15561866760254 22.31123924255371 C 4.994539260864258 22.31123924255371 -1.9073486328125e-06 17.31669807434082 -1.9073486328125e-06 11.15561866760254 C -1.9073486328125e-06 4.994539260864258 4.994539260864258 -1.9073486328125e-06 11.15561866760254 -1.9073486328125e-06 Z" stroke="none" fill="#121212"/>
    </g>
    <path id="Trazado_197424" data-name="Trazado 197424" d="M9.563,0H.958V-1.468L5.221-6.117A10.615,10.615,0,0,0,6.535-7.835,2.784,2.784,0,0,0,6.926-9.22,2.1,2.1,0,0,0,6.412-10.7a1.783,1.783,0,0,0-1.384-.562,2.056,2.056,0,0,0-1.608.633,2.489,2.489,0,0,0-.571,1.731H.712A4.186,4.186,0,0,1,1.244-11a3.662,3.662,0,0,1,1.521-1.455,4.84,4.84,0,0,1,2.281-.519,4.329,4.329,0,0,1,2.94.936A3.249,3.249,0,0,1,9.062-9.448,4.392,4.392,0,0,1,8.521-7.44,11.42,11.42,0,0,1,6.75-5.054L3.621-1.705H9.563Z" transform="translate(433.815 1716.69)" fill="#12263f"/>
    <g id="Trazado_197434" data-name="Trazado 197434" transform="translate(470.218 1698.517)" fill="#ff8578">
      <path d="M 11.15561866760254 21.56123924255371 C 5.417938709259033 21.56123924255371 0.7499986886978149 16.8932991027832 0.7499986886978149 11.15561866760254 C 0.7499986886978149 5.417938709259033 5.417938709259033 0.7499986886978149 11.15561866760254 0.7499986886978149 C 16.8932991027832 0.7499986886978149 21.56123924255371 5.417938709259033 21.56123924255371 11.15561866760254 C 21.56123924255371 16.8932991027832 16.8932991027832 21.56123924255371 11.15561866760254 21.56123924255371 Z" stroke="none"/>
      <path d="M 11.15561866760254 1.499998092651367 C 5.831489562988281 1.499998092651367 1.499998092651367 5.831489562988281 1.499998092651367 11.15561866760254 C 1.499998092651367 16.4797477722168 5.831489562988281 20.81123924255371 11.15561866760254 20.81123924255371 C 16.4797477722168 20.81123924255371 20.81123924255371 16.4797477722168 20.81123924255371 11.15561866760254 C 20.81123924255371 5.831489562988281 16.4797477722168 1.499998092651367 11.15561866760254 1.499998092651367 M 11.15561866760254 -1.9073486328125e-06 C 17.31669807434082 -1.9073486328125e-06 22.31123924255371 4.994539260864258 22.31123924255371 11.15561866760254 C 22.31123924255371 17.31669807434082 17.31669807434082 22.31123924255371 11.15561866760254 22.31123924255371 C 4.994539260864258 22.31123924255371 -1.9073486328125e-06 17.31669807434082 -1.9073486328125e-06 11.15561866760254 C -1.9073486328125e-06 4.994539260864258 4.994539260864258 -1.9073486328125e-06 11.15561866760254 -1.9073486328125e-06 Z" stroke="none" fill="#121212"/>
    </g>
    <path id="Trazado_197425" data-name="Trazado 197425" d="M3.428-7.374h1.3a2.328,2.328,0,0,0,1.56-.51,1.819,1.819,0,0,0,.576-1.45,1.982,1.982,0,0,0-.479-1.419,1.928,1.928,0,0,0-1.463-.505,2.039,2.039,0,0,0-1.415.5,1.659,1.659,0,0,0-.554,1.3H.817a3.233,3.233,0,0,1,.523-1.793A3.513,3.513,0,0,1,2.8-12.52a4.753,4.753,0,0,1,2.1-.453,4.4,4.4,0,0,1,3.01.962A3.377,3.377,0,0,1,9-9.334a2.719,2.719,0,0,1-.549,1.622A3.445,3.445,0,0,1,7.031-6.565a3.14,3.14,0,0,1,1.6,1.134,3.1,3.1,0,0,1,.549,1.846A3.437,3.437,0,0,1,8-.844,4.59,4.59,0,0,1,4.9.176,4.555,4.555,0,0,1,1.872-.809,3.242,3.242,0,0,1,.694-3.428H2.83A1.787,1.787,0,0,0,3.4-2.057a2.15,2.15,0,0,0,1.525.527,2.217,2.217,0,0,0,1.564-.527,1.978,1.978,0,0,0,.571-1.529,2,2,0,0,0-.6-1.556,2.555,2.555,0,0,0-1.775-.545H3.428Z" transform="translate(476.089 1716.69)" fill="#12263f"/>
    <g id="Trazado_197435" data-name="Trazado 197435" transform="translate(512.492 1698.517)" fill="#ff8578">
      <path d="M 11.15561866760254 21.56123924255371 C 5.417938709259033 21.56123924255371 0.7499986886978149 16.8932991027832 0.7499986886978149 11.15561866760254 C 0.7499986886978149 5.417938709259033 5.417938709259033 0.7499986886978149 11.15561866760254 0.7499986886978149 C 16.8932991027832 0.7499986886978149 21.56123924255371 5.417938709259033 21.56123924255371 11.15561866760254 C 21.56123924255371 16.8932991027832 16.8932991027832 21.56123924255371 11.15561866760254 21.56123924255371 Z" stroke="none"/>
      <path d="M 11.15561866760254 1.499998092651367 C 5.831489562988281 1.499998092651367 1.499998092651367 5.831489562988281 1.499998092651367 11.15561866760254 C 1.499998092651367 16.4797477722168 5.831489562988281 20.81123924255371 11.15561866760254 20.81123924255371 C 16.4797477722168 20.81123924255371 20.81123924255371 16.4797477722168 20.81123924255371 11.15561866760254 C 20.81123924255371 5.831489562988281 16.4797477722168 1.499998092651367 11.15561866760254 1.499998092651367 M 11.15561866760254 -1.9073486328125e-06 C 17.31669807434082 -1.9073486328125e-06 22.31123924255371 4.994539260864258 22.31123924255371 11.15561866760254 C 22.31123924255371 17.31669807434082 17.31669807434082 22.31123924255371 11.15561866760254 22.31123924255371 C 4.994539260864258 22.31123924255371 -1.9073486328125e-06 17.31669807434082 -1.9073486328125e-06 11.15561866760254 C -1.9073486328125e-06 4.994539260864258 4.994539260864258 -1.9073486328125e-06 11.15561866760254 -1.9073486328125e-06 Z" stroke="none" fill="#121212"/>
    </g>
    <path id="Trazado_197426" data-name="Trazado 197426" d="M8.183-4.562H9.773v1.714H8.183V0H6.047V-2.848H.519l-.062-1.3L5.977-12.8H8.183Zm-5.484,0H6.047V-9.905l-.158.281Z" transform="translate(518.363 1716.69)" fill="#12263f"/>
    <g id="Trazado_197436" data-name="Trazado 197436" transform="translate(554.766 1698.517)" fill="#ff8578">
      <path d="M 11.15561866760254 21.56123924255371 C 5.417938709259033 21.56123924255371 0.7499986886978149 16.8932991027832 0.7499986886978149 11.15561866760254 C 0.7499986886978149 5.417938709259033 5.417938709259033 0.7499986886978149 11.15561866760254 0.7499986886978149 C 16.8932991027832 0.7499986886978149 21.56123924255371 5.417938709259033 21.56123924255371 11.15561866760254 C 21.56123924255371 16.8932991027832 16.8932991027832 21.56123924255371 11.15561866760254 21.56123924255371 Z" stroke="none"/>
      <path d="M 11.15561866760254 1.499998092651367 C 5.831489562988281 1.499998092651367 1.499998092651367 5.831489562988281 1.499998092651367 11.15561866760254 C 1.499998092651367 16.4797477722168 5.831489562988281 20.81123924255371 11.15561866760254 20.81123924255371 C 16.4797477722168 20.81123924255371 20.81123924255371 16.4797477722168 20.81123924255371 11.15561866760254 C 20.81123924255371 5.831489562988281 16.4797477722168 1.499998092651367 11.15561866760254 1.499998092651367 M 11.15561866760254 -1.9073486328125e-06 C 17.31669807434082 -1.9073486328125e-06 22.31123924255371 4.994539260864258 22.31123924255371 11.15561866760254 C 22.31123924255371 17.31669807434082 17.31669807434082 22.31123924255371 11.15561866760254 22.31123924255371 C 4.994539260864258 22.31123924255371 -1.9073486328125e-06 17.31669807434082 -1.9073486328125e-06 11.15561866760254 C -1.9073486328125e-06 4.994539260864258 4.994539260864258 -1.9073486328125e-06 11.15561866760254 -1.9073486328125e-06 Z" stroke="none" fill="#121212"/>
    </g>
    <path id="Trazado_197427" data-name="Trazado 197427" d="M1.529-6.346,2.224-12.8H9.1v1.846H4L3.647-7.893a3.951,3.951,0,0,1,2-.51A3.565,3.565,0,0,1,8.495-7.233,4.632,4.632,0,0,1,9.51-4.087,4.264,4.264,0,0,1,8.385-.98,4.106,4.106,0,0,1,5.3.176a4.3,4.3,0,0,1-2.914-1A3.606,3.606,0,0,1,1.134-3.454H3.2a2.256,2.256,0,0,0,.668,1.428,2.032,2.032,0,0,0,1.424.5,1.836,1.836,0,0,0,1.534-.7,3.035,3.035,0,0,0,.549-1.916A2.682,2.682,0,0,0,6.768-6,2.121,2.121,0,0,0,5.1-6.68a2.778,2.778,0,0,0-.984.154,2.788,2.788,0,0,0-.879.6Z" transform="translate(560.637 1716.69)" fill="#12263f"/>
    <g id="Trazado_197437" data-name="Trazado 197437" transform="translate(600.563 1698.517)" fill="#ff8578">
      <path d="M 11.15561866760254 21.56123924255371 C 5.417938709259033 21.56123924255371 0.7499986886978149 16.8932991027832 0.7499986886978149 11.15561866760254 C 0.7499986886978149 5.417938709259033 5.417938709259033 0.7499986886978149 11.15561866760254 0.7499986886978149 C 16.8932991027832 0.7499986886978149 21.56123924255371 5.417938709259033 21.56123924255371 11.15561866760254 C 21.56123924255371 16.8932991027832 16.8932991027832 21.56123924255371 11.15561866760254 21.56123924255371 Z" stroke="none"/>
      <path d="M 11.15561866760254 1.499998092651367 C 5.831489562988281 1.499998092651367 1.499998092651367 5.831489562988281 1.499998092651367 11.15561866760254 C 1.499998092651367 16.4797477722168 5.831489562988281 20.81123924255371 11.15561866760254 20.81123924255371 C 16.4797477722168 20.81123924255371 20.81123924255371 16.4797477722168 20.81123924255371 11.15561866760254 C 20.81123924255371 5.831489562988281 16.4797477722168 1.499998092651367 11.15561866760254 1.499998092651367 M 11.15561866760254 -1.9073486328125e-06 C 17.31669807434082 -1.9073486328125e-06 22.31123924255371 4.994539260864258 22.31123924255371 11.15561866760254 C 22.31123924255371 17.31669807434082 17.31669807434082 22.31123924255371 11.15561866760254 22.31123924255371 C 4.994539260864258 22.31123924255371 -1.9073486328125e-06 17.31669807434082 -1.9073486328125e-06 11.15561866760254 C -1.9073486328125e-06 4.994539260864258 4.994539260864258 -1.9073486328125e-06 11.15561866760254 -1.9073486328125e-06 Z" stroke="none" fill="#121212"/>
    </g>
    <path id="Trazado_197428" data-name="Trazado 197428" d="M7.6-12.858v1.767H7.339a4.239,4.239,0,0,0-2.865.984A4.119,4.119,0,0,0,3.2-7.392,3.468,3.468,0,0,1,5.827-8.473,3.276,3.276,0,0,1,8.5-7.277a4.708,4.708,0,0,1,.98,3.085,4.4,4.4,0,0,1-1.147,3.16A3.959,3.959,0,0,1,5.326.176,3.867,3.867,0,0,1,2.219-1.239,5.566,5.566,0,0,1,1.028-4.948v-.729a7.832,7.832,0,0,1,1.639-5.273,5.877,5.877,0,0,1,4.715-1.907ZM5.309-6.75a2.249,2.249,0,0,0-1.288.4A2.312,2.312,0,0,0,3.164-5.3v.65a3.831,3.831,0,0,0,.6,2.263,1.823,1.823,0,0,0,1.547.839,1.8,1.8,0,0,0,1.5-.712,2.965,2.965,0,0,0,.554-1.872A3.007,3.007,0,0,0,6.8-6.021,1.793,1.793,0,0,0,5.309-6.75Z" transform="translate(606.434 1716.69)" fill="#12263f"/>
    <g id="Trazado_197438" data-name="Trazado 197438" transform="translate(642.836 1698.517)" fill="#ff8578">
      <path d="M 11.15561866760254 21.56123924255371 C 5.417938709259033 21.56123924255371 0.7499986886978149 16.8932991027832 0.7499986886978149 11.15561866760254 C 0.7499986886978149 5.417938709259033 5.417938709259033 0.7499986886978149 11.15561866760254 0.7499986886978149 C 16.8932991027832 0.7499986886978149 21.56123924255371 5.417938709259033 21.56123924255371 11.15561866760254 C 21.56123924255371 16.8932991027832 16.8932991027832 21.56123924255371 11.15561866760254 21.56123924255371 Z" stroke="none"/>
      <path d="M 11.15561866760254 1.499998092651367 C 5.831489562988281 1.499998092651367 1.499998092651367 5.831489562988281 1.499998092651367 11.15561866760254 C 1.499998092651367 16.4797477722168 5.831489562988281 20.81123924255371 11.15561866760254 20.81123924255371 C 16.4797477722168 20.81123924255371 20.81123924255371 16.4797477722168 20.81123924255371 11.15561866760254 C 20.81123924255371 5.831489562988281 16.4797477722168 1.499998092651367 11.15561866760254 1.499998092651367 M 11.15561866760254 -1.9073486328125e-06 C 17.31669807434082 -1.9073486328125e-06 22.31123924255371 4.994539260864258 22.31123924255371 11.15561866760254 C 22.31123924255371 17.31669807434082 17.31669807434082 22.31123924255371 11.15561866760254 22.31123924255371 C 4.994539260864258 22.31123924255371 -1.9073486328125e-06 17.31669807434082 -1.9073486328125e-06 11.15561866760254 C -1.9073486328125e-06 4.994539260864258 4.994539260864258 -1.9073486328125e-06 11.15561866760254 -1.9073486328125e-06 Z" stroke="none" fill="#121212"/>
    </g>
    <path id="Trazado_197429" data-name="Trazado 197429" d="M9.475-11.61,4.359,0H2.118L7.225-11.083H.606V-12.8H9.475Z" transform="translate(648.708 1716.69)" fill="#12263f"/>
    <g id="Trazado_197439" data-name="Trazado 197439" transform="translate(685.11 1698.517)" fill="#ff8578">
      <path d="M 11.15561866760254 21.56123924255371 C 5.417938709259033 21.56123924255371 0.7499986886978149 16.8932991027832 0.7499986886978149 11.15561866760254 C 0.7499986886978149 5.417938709259033 5.417938709259033 0.7499986886978149 11.15561866760254 0.7499986886978149 C 16.8932991027832 0.7499986886978149 21.56123924255371 5.417938709259033 21.56123924255371 11.15561866760254 C 21.56123924255371 16.8932991027832 16.8932991027832 21.56123924255371 11.15561866760254 21.56123924255371 Z" stroke="none"/>
      <path d="M 11.15561866760254 1.499998092651367 C 5.831489562988281 1.499998092651367 1.499998092651367 5.831489562988281 1.499998092651367 11.15561866760254 C 1.499998092651367 16.4797477722168 5.831489562988281 20.81123924255371 11.15561866760254 20.81123924255371 C 16.4797477722168 20.81123924255371 20.81123924255371 16.4797477722168 20.81123924255371 11.15561866760254 C 20.81123924255371 5.831489562988281 16.4797477722168 1.499998092651367 11.15561866760254 1.499998092651367 M 11.15561866760254 -1.9073486328125e-06 C 17.31669807434082 -1.9073486328125e-06 22.31123924255371 4.994539260864258 22.31123924255371 11.15561866760254 C 22.31123924255371 17.31669807434082 17.31669807434082 22.31123924255371 11.15561866760254 22.31123924255371 C 4.994539260864258 22.31123924255371 -1.9073486328125e-06 17.31669807434082 -1.9073486328125e-06 11.15561866760254 C -1.9073486328125e-06 4.994539260864258 4.994539260864258 -1.9073486328125e-06 11.15561866760254 -1.9073486328125e-06 Z" stroke="none" fill="#121212"/>
    </g>
    <path id="Trazado_197430" data-name="Trazado 197430" d="M9.018-9.422a2.975,2.975,0,0,1-.483,1.674A3.353,3.353,0,0,1,7.216-6.592,3.652,3.652,0,0,1,8.758-5.317,3.215,3.215,0,0,1,9.3-3.489,3.357,3.357,0,0,1,8.156-.813,4.485,4.485,0,0,1,5.115.176,4.5,4.5,0,0,1,2.061-.817,3.355,3.355,0,0,1,.914-3.489a3.252,3.252,0,0,1,.545-1.846A3.5,3.5,0,0,1,2.988-6.592,3.334,3.334,0,0,1,1.683-7.748,3,3,0,0,1,1.2-9.422a3.329,3.329,0,0,1,1.055-2.593,4.074,4.074,0,0,1,2.848-.958,4.088,4.088,0,0,1,2.856.958A3.329,3.329,0,0,1,9.018-9.422ZM7.163-3.595A2.11,2.11,0,0,0,6.6-5.128a1.993,1.993,0,0,0-1.5-.584,1.971,1.971,0,0,0-1.49.58A2.125,2.125,0,0,0,3.05-3.595a2.059,2.059,0,0,0,.549,1.5,2.022,2.022,0,0,0,1.516.563,2.028,2.028,0,0,0,1.507-.545A2.065,2.065,0,0,0,7.163-3.595ZM6.891-9.343a1.986,1.986,0,0,0-.483-1.375,1.658,1.658,0,0,0-1.3-.541,1.672,1.672,0,0,0-1.292.514,1.987,1.987,0,0,0-.475,1.4,1.979,1.979,0,0,0,.479,1.4,1.679,1.679,0,0,0,1.3.519,1.679,1.679,0,0,0,1.3-.519A1.979,1.979,0,0,0,6.891-9.343Z" transform="translate(690.981 1716.69)" fill="#12263f"/>
    <g id="Trazado_197440" data-name="Trazado 197440" transform="translate(723.861 1698.517)" fill="#ff8578">
      <path d="M 11.15561866760254 21.56123924255371 C 5.417938709259033 21.56123924255371 0.7499986886978149 16.8932991027832 0.7499986886978149 11.15561866760254 C 0.7499986886978149 5.417938709259033 5.417938709259033 0.7499986886978149 11.15561866760254 0.7499986886978149 C 16.8932991027832 0.7499986886978149 21.56123924255371 5.417938709259033 21.56123924255371 11.15561866760254 C 21.56123924255371 16.8932991027832 16.8932991027832 21.56123924255371 11.15561866760254 21.56123924255371 Z" stroke="none"/>
      <path d="M 11.15561866760254 1.499998092651367 C 5.831489562988281 1.499998092651367 1.499998092651367 5.831489562988281 1.499998092651367 11.15561866760254 C 1.499998092651367 16.4797477722168 5.831489562988281 20.81123924255371 11.15561866760254 20.81123924255371 C 16.4797477722168 20.81123924255371 20.81123924255371 16.4797477722168 20.81123924255371 11.15561866760254 C 20.81123924255371 5.831489562988281 16.4797477722168 1.499998092651367 11.15561866760254 1.499998092651367 M 11.15561866760254 -1.9073486328125e-06 C 17.31669807434082 -1.9073486328125e-06 22.31123924255371 4.994539260864258 22.31123924255371 11.15561866760254 C 22.31123924255371 17.31669807434082 17.31669807434082 22.31123924255371 11.15561866760254 22.31123924255371 C 4.994539260864258 22.31123924255371 -1.9073486328125e-06 17.31669807434082 -1.9073486328125e-06 11.15561866760254 C -1.9073486328125e-06 4.994539260864258 4.994539260864258 -1.9073486328125e-06 11.15561866760254 -1.9073486328125e-06 Z" stroke="none" fill="#121212"/>
    </g>
    <path id="Trazado_197431" data-name="Trazado 197431" d="M7.014-5.353a3.345,3.345,0,0,1-2.5,1.134A3.345,3.345,0,0,1,1.819-5.4a4.642,4.642,0,0,1-1-3.107,5.094,5.094,0,0,1,.51-2.294,3.8,3.8,0,0,1,1.45-1.6,4.115,4.115,0,0,1,2.18-.571,3.7,3.7,0,0,1,3.067,1.441A6.071,6.071,0,0,1,9.158-7.673v.6A7.885,7.885,0,0,1,7.594-1.793,5.889,5.889,0,0,1,2.927.053H2.672V-1.714h.308a4.373,4.373,0,0,0,2.9-.91A3.792,3.792,0,0,0,7.014-5.353ZM4.957-5.889a2.155,2.155,0,0,0,1.2-.369,2.432,2.432,0,0,0,.87-1.02v-.835a4.009,4.009,0,0,0-.58-2.276,1.748,1.748,0,0,0-1.5-.861,1.727,1.727,0,0,0-1.472.76,3.2,3.2,0,0,0-.549,1.92A3.156,3.156,0,0,0,3.48-6.627,1.754,1.754,0,0,0,4.957-5.889Z" transform="translate(729.733 1716.69)" fill="#12263f"/>
    <g id="Trazado_197419" data-name="Trazado 197419" transform="translate(512.492 1801.853)" fill="#acfcff">
      <path d="M 11.15561866760254 21.56123924255371 C 5.417938709259033 21.56123924255371 0.7499986886978149 16.8932991027832 0.7499986886978149 11.15561866760254 C 0.7499986886978149 5.417938709259033 5.417938709259033 0.7499986886978149 11.15561866760254 0.7499986886978149 C 16.8932991027832 0.7499986886978149 21.56123924255371 5.417938709259033 21.56123924255371 11.15561866760254 C 21.56123924255371 16.8932991027832 16.8932991027832 21.56123924255371 11.15561866760254 21.56123924255371 Z" stroke="none"/>
      <path d="M 11.15561866760254 1.499998092651367 C 5.831489562988281 1.499998092651367 1.499998092651367 5.831489562988281 1.499998092651367 11.15561866760254 C 1.499998092651367 16.4797477722168 5.831489562988281 20.81123924255371 11.15561866760254 20.81123924255371 C 16.4797477722168 20.81123924255371 20.81123924255371 16.4797477722168 20.81123924255371 11.15561866760254 C 20.81123924255371 5.831489562988281 16.4797477722168 1.499998092651367 11.15561866760254 1.499998092651367 M 11.15561866760254 -1.9073486328125e-06 C 17.31669807434082 -1.9073486328125e-06 22.31123924255371 4.994539260864258 22.31123924255371 11.15561866760254 C 22.31123924255371 17.31669807434082 17.31669807434082 22.31123924255371 11.15561866760254 22.31123924255371 C 4.994539260864258 22.31123924255371 -1.9073486328125e-06 17.31669807434082 -1.9073486328125e-06 11.15561866760254 C -1.9073486328125e-06 4.994539260864258 4.994539260864258 -1.9073486328125e-06 11.15561866760254 -1.9073486328125e-06 Z" stroke="none" fill="#121212"/>
    </g>
    <path id="Trazado_197420" data-name="Trazado 197420" d="M3.428-7.374h1.3a2.328,2.328,0,0,0,1.56-.51,1.819,1.819,0,0,0,.576-1.45,1.982,1.982,0,0,0-.479-1.419,1.928,1.928,0,0,0-1.463-.505,2.039,2.039,0,0,0-1.415.5,1.659,1.659,0,0,0-.554,1.3H.817a3.233,3.233,0,0,1,.523-1.793A3.513,3.513,0,0,1,2.8-12.52a4.753,4.753,0,0,1,2.1-.453,4.4,4.4,0,0,1,3.01.962A3.377,3.377,0,0,1,9-9.334a2.719,2.719,0,0,1-.549,1.622A3.445,3.445,0,0,1,7.031-6.565a3.14,3.14,0,0,1,1.6,1.134,3.1,3.1,0,0,1,.549,1.846A3.437,3.437,0,0,1,8-.844,4.59,4.59,0,0,1,4.9.176,4.555,4.555,0,0,1,1.872-.809,3.242,3.242,0,0,1,.694-3.428H2.83A1.787,1.787,0,0,0,3.4-2.057a2.15,2.15,0,0,0,1.525.527,2.217,2.217,0,0,0,1.564-.527,1.978,1.978,0,0,0,.571-1.529,2,2,0,0,0-.6-1.556,2.555,2.555,0,0,0-1.775-.545H3.428Z" transform="translate(518.363 1820.027)" fill="#12263f"/>
    <g id="Trazado_197421" data-name="Trazado 197421" transform="translate(555.94 1801.853)" fill="#acfcff">
      <path d="M 11.15561866760254 21.56123924255371 C 5.417938709259033 21.56123924255371 0.7499986886978149 16.8932991027832 0.7499986886978149 11.15561866760254 C 0.7499986886978149 5.417938709259033 5.417938709259033 0.7499986886978149 11.15561866760254 0.7499986886978149 C 16.8932991027832 0.7499986886978149 21.56123924255371 5.417938709259033 21.56123924255371 11.15561866760254 C 21.56123924255371 16.8932991027832 16.8932991027832 21.56123924255371 11.15561866760254 21.56123924255371 Z" stroke="none"/>
      <path d="M 11.15561866760254 1.499998092651367 C 5.831489562988281 1.499998092651367 1.499998092651367 5.831489562988281 1.499998092651367 11.15561866760254 C 1.499998092651367 16.4797477722168 5.831489562988281 20.81123924255371 11.15561866760254 20.81123924255371 C 16.4797477722168 20.81123924255371 20.81123924255371 16.4797477722168 20.81123924255371 11.15561866760254 C 20.81123924255371 5.831489562988281 16.4797477722168 1.499998092651367 11.15561866760254 1.499998092651367 M 11.15561866760254 -1.9073486328125e-06 C 17.31669807434082 -1.9073486328125e-06 22.31123924255371 4.994539260864258 22.31123924255371 11.15561866760254 C 22.31123924255371 17.31669807434082 17.31669807434082 22.31123924255371 11.15561866760254 22.31123924255371 C 4.994539260864258 22.31123924255371 -1.9073486328125e-06 17.31669807434082 -1.9073486328125e-06 11.15561866760254 C -1.9073486328125e-06 4.994539260864258 4.994539260864258 -1.9073486328125e-06 11.15561866760254 -1.9073486328125e-06 Z" stroke="none" fill="#121212"/>
    </g>
    <path id="Trazado_197422" data-name="Trazado 197422" d="M7.6-12.858v1.767H7.339a4.239,4.239,0,0,0-2.865.984A4.119,4.119,0,0,0,3.2-7.392,3.468,3.468,0,0,1,5.827-8.473,3.276,3.276,0,0,1,8.5-7.277a4.708,4.708,0,0,1,.98,3.085,4.4,4.4,0,0,1-1.147,3.16A3.959,3.959,0,0,1,5.326.176,3.867,3.867,0,0,1,2.219-1.239,5.566,5.566,0,0,1,1.028-4.948v-.729a7.832,7.832,0,0,1,1.639-5.273,5.877,5.877,0,0,1,4.715-1.907ZM5.309-6.75a2.249,2.249,0,0,0-1.288.4A2.312,2.312,0,0,0,3.164-5.3v.65a3.831,3.831,0,0,0,.6,2.263,1.823,1.823,0,0,0,1.547.839,1.8,1.8,0,0,0,1.5-.712,2.965,2.965,0,0,0,.554-1.872A3.007,3.007,0,0,0,6.8-6.021,1.793,1.793,0,0,0,5.309-6.75Z" transform="translate(561.812 1820.027)" fill="#12263f"/>
    <g id="Trazado_197417" data-name="Trazado 197417" transform="translate(599.388 1801.853)" fill="#acfcff">
      <path d="M 11.15561866760254 21.56123924255371 C 5.417938709259033 21.56123924255371 0.7499986886978149 16.8932991027832 0.7499986886978149 11.15561866760254 C 0.7499986886978149 5.417938709259033 5.417938709259033 0.7499986886978149 11.15561866760254 0.7499986886978149 C 16.8932991027832 0.7499986886978149 21.56123924255371 5.417938709259033 21.56123924255371 11.15561866760254 C 21.56123924255371 16.8932991027832 16.8932991027832 21.56123924255371 11.15561866760254 21.56123924255371 Z" stroke="none"/>
      <path d="M 11.15561866760254 1.499998092651367 C 5.831489562988281 1.499998092651367 1.499998092651367 5.831489562988281 1.499998092651367 11.15561866760254 C 1.499998092651367 16.4797477722168 5.831489562988281 20.81123924255371 11.15561866760254 20.81123924255371 C 16.4797477722168 20.81123924255371 20.81123924255371 16.4797477722168 20.81123924255371 11.15561866760254 C 20.81123924255371 5.831489562988281 16.4797477722168 1.499998092651367 11.15561866760254 1.499998092651367 M 11.15561866760254 -1.9073486328125e-06 C 17.31669807434082 -1.9073486328125e-06 22.31123924255371 4.994539260864258 22.31123924255371 11.15561866760254 C 22.31123924255371 17.31669807434082 17.31669807434082 22.31123924255371 11.15561866760254 22.31123924255371 C 4.994539260864258 22.31123924255371 -1.9073486328125e-06 17.31669807434082 -1.9073486328125e-06 11.15561866760254 C -1.9073486328125e-06 4.994539260864258 4.994539260864258 -1.9073486328125e-06 11.15561866760254 -1.9073486328125e-06 Z" stroke="none" fill="#121212"/>
    </g>
    <path id="Trazado_197418" data-name="Trazado 197418" d="M7.014-5.353a3.345,3.345,0,0,1-2.5,1.134A3.345,3.345,0,0,1,1.819-5.4a4.642,4.642,0,0,1-1-3.107,5.094,5.094,0,0,1,.51-2.294,3.8,3.8,0,0,1,1.45-1.6,4.115,4.115,0,0,1,2.18-.571,3.7,3.7,0,0,1,3.067,1.441A6.071,6.071,0,0,1,9.158-7.673v.6A7.885,7.885,0,0,1,7.594-1.793,5.889,5.889,0,0,1,2.927.053H2.672V-1.714h.308a4.373,4.373,0,0,0,2.9-.91A3.792,3.792,0,0,0,7.014-5.353ZM4.957-5.889a2.155,2.155,0,0,0,1.2-.369,2.432,2.432,0,0,0,.87-1.02v-.835a4.009,4.009,0,0,0-.58-2.276,1.748,1.748,0,0,0-1.5-.861,1.727,1.727,0,0,0-1.472.76,3.2,3.2,0,0,0-.549,1.92A3.156,3.156,0,0,0,3.48-6.627,1.754,1.754,0,0,0,4.957-5.889Z" transform="translate(605.259 1820.027)" fill="#12263f"/>
    <g id="Grupo_165604" data-name="Grupo 165604" transform="translate(476.089 1729.523)">
      <path id="Trazado_177495" data-name="Trazado 177495" d="M-6331.866,8341.406s-17.87,31.659,14.182,48.408" transform="translate(6336.833 -8341.406)" fill="none" stroke="#333131" stroke-width="1"/>
      <path id="Polgono_8" data-name="Polgono 8" d="M5.871,0l5.871,10.568H0Z" transform="matrix(-0.53, 0.848, -0.848, -0.53, 29.418, 48.426)" fill="#261f1f"/>
    </g>
    <g id="Grupo_165605" data-name="Grupo 165605" transform="translate(630.417 1767.646) rotate(29)">
      <path id="Trazado_177495-2" data-name="Trazado 177495" d="M0,0" transform="translate(10.269 5.583)" fill="none" stroke="#333131" stroke-width="1"/>
      <path id="Polgono_8-2" data-name="Polgono 8" d="M5.871,0l5.871,10.568H0Z" transform="matrix(-0.53, -0.848, 0.848, -0.53, 6.223, 15.559)" fill="#261f1f"/>
    </g>
    <path id="Trazado_177496" data-name="Trazado 177496" d="M-6195.639,8388.24s74.47-8.341,87.355-54.606" transform="translate(6834.203 -6610.889)" fill="none" stroke="#2c2c2c" stroke-width="1"/>
    <g id="Grupo_165606" data-name="Grupo 165606" transform="translate(573.781 1723.333)">
      <path id="Trazado_177495-3" data-name="Trazado 177495" d="M-6308.7,8355.759s3.918,14.8-28.134,31.554" transform="translate(6347.103 -8355.759)" fill="none" stroke="#333131" stroke-width="1"/>
      <path id="Polgono_8-3" data-name="Polgono 8" d="M5.871,0l5.871,10.568H0Z" transform="matrix(-0.53, -0.848, 0.848, -0.53, 6.223, 41.53)" fill="#261f1f"/>
    </g>
  </g>
</svg>
