<svg xmlns="http://www.w3.org/2000/svg" width="193.839" height="193.839" viewBox="0 0 193.839 193.839">
  <g id="Grupo_166799" data-name="Grupo 166799" transform="translate(5407.703 13350.8)">
    <g id="loteria" transform="translate(-5407.703 -13350.8)">
      <ellipse id="Elipse_5103" data-name="Elipse 5103" cx="80.565" cy="80.565" rx="80.565" ry="80.565" transform="translate(0 37.06) rotate(-13.3)" fill="#ffde96"/>
      <path id="Trazado_177476" data-name="Trazado 177476" d="M136.751,36.62a82.243,82.243,0,1,0,82.243,82.243A82.336,82.336,0,0,0,136.751,36.62Zm0,161.13a78.886,78.886,0,1,1,78.886-78.886A78.976,78.976,0,0,1,136.751,197.75Z" transform="translate(-39.827 -21.878)" fill="#3a312a"/>
      <path id="Trazado_197296" data-name="Trazado 197296" d="M18.183,0A18.183,18.183,0,1,1,0,18.183,18.183,18.183,0,0,1,18.183,0Z" transform="matrix(0.987, -0.16, 0.16, 0.987, 99.733, 110.248)" fill="#d5de58"/>
      <path id="Trazado_177477" data-name="Trazado 177477" d="M151.306,117.647a19.861,19.861,0,1,0,19.86,19.86A19.884,19.884,0,0,0,151.306,117.647Zm0,36.365a16.5,16.5,0,1,1,16.5-16.5A16.524,16.524,0,0,1,151.306,154.012Z" transform="translate(-30.675 -12.239)" fill="#3a312a"/>
      <ellipse id="Elipse_5105" data-name="Elipse 5105" cx="18.183" cy="18.183" rx="18.183" ry="18.183" transform="translate(36.288 137.578) rotate(-85.931)" fill="#d5de58"/>
      <path id="Trazado_177478" data-name="Trazado 177478" d="M93.222,113.616a19.861,19.861,0,1,0,19.861,19.861A19.883,19.883,0,0,0,93.222,113.616Zm0,36.365a16.5,16.5,0,1,1,16.5-16.5A16.522,16.522,0,0,1,93.222,149.981Z" transform="translate(-37.584 -12.719)" fill="#3a312a"/>
      <ellipse id="Elipse_5106" data-name="Elipse 5106" cx="18.183" cy="18.183" rx="18.183" ry="18.183" transform="translate(80.39 87.564)" fill="#8ac5dc"/>
      <path id="Trazado_177479" data-name="Trazado 177479" d="M131.592,100.2a19.861,19.861,0,1,0,19.861,19.861A19.884,19.884,0,0,0,131.592,100.2Zm0,36.366a16.5,16.5,0,1,1,16.5-16.5A16.524,16.524,0,0,1,131.592,136.566Z" transform="translate(-33.02 -14.315)" fill="#3a312a"/>
      <ellipse id="Elipse_5107" data-name="Elipse 5107" cx="18.183" cy="18.183" rx="18.183" ry="18.183" transform="translate(135.016 103.867)" fill="#ef6d7a"/>
      <path id="Trazado_177480" data-name="Trazado 177480" d="M180.411,114.77a19.861,19.861,0,1,0,19.861,19.861,19.884,19.884,0,0,0-19.861-19.861Zm0,36.366a16.5,16.5,0,1,1,16.5-16.5A16.524,16.524,0,0,1,180.411,151.136Z" transform="translate(-27.212 -12.581)" fill="#3a312a"/>
      <ellipse id="Elipse_5108" data-name="Elipse 5108" cx="18.183" cy="18.183" rx="18.183" ry="18.183" transform="translate(43.297 136.529) rotate(-13.3)" fill="#8ac5dc"/>
      <path id="Trazado_177481" data-name="Trazado 177481" d="M101.728,139.848A19.861,19.861,0,1,0,121.59,159.71,19.884,19.884,0,0,0,101.728,139.848Zm0,36.365a16.5,16.5,0,1,1,16.5-16.5A16.524,16.524,0,0,1,101.728,176.213Z" transform="translate(-36.572 -9.598)" fill="#3a312a"/>
      <circle id="Elipse_5109" data-name="Elipse 5109" cx="18.183" cy="18.183" r="18.183" transform="translate(60.501 129.195) rotate(-45)" fill="#ef6d7a"/>
      <path id="Trazado_177482" data-name="Trazado 177482" d="M120.571,121.158a19.861,19.861,0,1,0,19.861,19.861,19.884,19.884,0,0,0-19.861-19.861Zm0,36.366a16.5,16.5,0,1,1,16.5-16.5A16.524,16.524,0,0,1,120.571,157.524Z" transform="translate(-34.331 -11.821)" fill="#3a312a"/>
      <ellipse id="Elipse_5110" data-name="Elipse 5110" cx="18.183" cy="18.183" rx="18.183" ry="18.183" transform="translate(77.577 141.184)" fill="#d5de58"/>
      <path id="Trazado_177483" data-name="Trazado 177483" d="M129.078,148.12a19.861,19.861,0,1,0,19.861,19.861A19.884,19.884,0,0,0,129.078,148.12Zm0,36.366a16.5,16.5,0,1,1,16.5-16.5A16.524,16.524,0,0,1,129.078,184.486Z" transform="translate(-33.319 -8.614)" fill="#3a312a"/>
      <ellipse id="Elipse_5111" data-name="Elipse 5111" cx="18.183" cy="18.183" rx="18.183" ry="18.183" transform="translate(106.895 135.971) rotate(-13.3)" fill="#8ac5dc"/>
      <g id="Grupo_165602" data-name="Grupo 165602" transform="translate(108.907 129.706)">
        <path id="Trazado_177484" data-name="Trazado 177484" d="M158.578,139.362a19.861,19.861,0,1,0,19.861,19.861A19.884,19.884,0,0,0,158.578,139.362Zm0,36.365a16.5,16.5,0,1,1,16.5-16.5A16.524,16.524,0,0,1,158.578,175.727Z" transform="translate(-138.717 -139.362)" fill="#3a312a"/>
      </g>
      <text id="_16" data-name="16" transform="translate(107.914 129.325)" fill="#12263f" font-size="18" font-family="Roboto-Medium, Roboto" font-weight="500"><tspan x="0" y="0">16</tspan></text>
    </g>
    <text id="_17" data-name="17" transform="translate(-5363.431 -13224.563)" fill="#12263f" font-size="18" font-family="Roboto-Medium, Roboto" font-weight="500"><tspan x="0" y="0">17</tspan></text>
    <text id="_5" data-name="5" transform="translate(-5314 -13241.246)" fill="#12263f" font-size="18" font-family="Roboto-Medium, Roboto" font-weight="500"><tspan x="0" y="0">5</tspan></text>
    <text id="_11" data-name="11" transform="translate(-5332.537 -13217.149)" fill="#12263f" font-size="18" font-family="Roboto-Medium, Roboto" font-weight="500"><tspan x="0" y="0">11</tspan></text>
    <text id="_7" data-name="7" transform="translate(-5349.22 -13193.052)" fill="#12263f" font-size="18" font-family="Roboto-Medium, Roboto" font-weight="500"><tspan x="0" y="0">7</tspan></text>
    <text id="_1" data-name="1" transform="translate(-5318.326 -13186.255)" fill="#12263f" font-size="18" font-family="Roboto-Medium, Roboto" font-weight="500"><tspan x="0" y="0">1</tspan></text>
    <text id="_4" data-name="4" transform="translate(-5285.578 -13194.905)" fill="#12263f" font-size="18" font-family="Roboto-Medium, Roboto" font-weight="500"><tspan x="0" y="0">4</tspan></text>
    <text id="_13" data-name="13" transform="translate(-5265.805 -13223.328)" fill="#12263f" font-size="18" font-family="Roboto-Medium, Roboto" font-weight="500"><tspan x="0" y="0">13</tspan></text>
  </g>
</svg>
