<svg xmlns="http://www.w3.org/2000/svg" xmlns:xlink="http://www.w3.org/1999/xlink" width="470.309" height="571.741" viewBox="0 0 470.309 571.741">
  <defs>
    <linearGradient id="linear-gradient" x1="0.5" x2="0.5" y2="1" gradientUnits="objectBoundingBox">
      <stop offset="0" stop-color="#fed981"/>
      <stop offset="1" stop-color="#ffd061"/>
    </linearGradient>
  </defs>
  <g id="Grupo_166808" data-name="Grupo 166808" transform="translate(-922.218 -3168)">
    <g id="Grupo_59419" data-name="Grupo 59419" transform="translate(935.516 3168)">
      <g id="freepik--background-complete--inject-349" transform="translate(8.313 0)">
        <rect id="Rectángulo_5617" data-name="Rectángulo 5617" width="20.707" height="0.347" transform="translate(12.646 477.364)" fill="#ebebeb"/>
        <rect id="Rectángulo_5618" data-name="Rectángulo 5618" width="12.077" height="0.347" transform="translate(177.581 481.144)" fill="#ebebeb"/>
        <rect id="Rectángulo_5619" data-name="Rectángulo 5619" width="47.515" height="0.347" transform="translate(39.218 464.467)" fill="#ebebeb"/>
        <rect id="Rectángulo_5620" data-name="Rectángulo 5620" width="130.191" height="0.347" transform="translate(283.841 466.969)" fill="#ebebeb"/>
        <path id="Trazado_103697" data-name="Trazado 103697" d="M883.153,1664.932h268.36a7.949,7.949,0,0,0,7.936-7.936V1279.778a7.952,7.952,0,0,0-7.936-7.866H883.153a7.935,7.935,0,0,0-7.907,7.866V1657A7.935,7.935,0,0,0,883.153,1664.932Zm268.36-392.742a7.6,7.6,0,0,1,7.588,7.588V1657a7.6,7.6,0,0,1-7.588,7.588H883.153a7.6,7.6,0,0,1-7.588-7.588V1279.778a7.6,7.6,0,0,1,7.588-7.588Z" transform="translate(-875.246 -1271.912)" fill="#ebebeb"/>
        <rect id="Rectángulo_5621" data-name="Rectángulo 5621" width="25.877" height="177.707" transform="translate(313.943 277.296)" fill="#e6e6e6"/>
        <path id="Trazado_103698" data-name="Trazado 103698" d="M844.764,1608.783h9.117v-33.77H835.216Z" transform="translate(-514.047 -1153.78)" fill="#f0f0f0"/>
        <rect id="Rectángulo_5622" data-name="Rectángulo 5622" width="25.877" height="177.707" transform="translate(40.274 277.296)" fill="#e6e6e6"/>
        <rect id="Rectángulo_5623" data-name="Rectángulo 5623" width="281.618" height="168.493" transform="translate(58.202 277.283)" fill="#f0f0f0"/>
        <path id="Trazado_103699" data-name="Trazado 103699" d="M1033.553,1608.783h-9.117v-33.77H1043.1Z" transform="translate(-966.234 -1153.78)" fill="#f0f0f0"/>
        <rect id="Rectángulo_5624" data-name="Rectángulo 5624" width="83.482" height="139.378" transform="translate(67.569 291.25)" fill="#e6e6e6"/>
        <path id="Trazado_103700" data-name="Trazado 103700" d="M1017,1486.986h-16.524a28.032,28.032,0,0,1-18.97-7.074h54.45A27.982,27.982,0,0,1,1017,1486.986Z" transform="translate(-899.427 -1190.845)" fill="#f0f0f0"/>
        <rect id="Rectángulo_5625" data-name="Rectángulo 5625" width="83.482" height="139.378" transform="translate(157.277 291.25)" fill="#e6e6e6"/>
        <path id="Trazado_103701" data-name="Trazado 103701" d="M951.826,1486.986h-16.51a28.032,28.032,0,0,1-18.97-7.074H970.8A28.032,28.032,0,0,1,951.826,1486.986Z" transform="translate(-743.712 -1190.845)" fill="#f0f0f0"/>
        <rect id="Rectángulo_5626" data-name="Rectángulo 5626" width="83.482" height="139.378" transform="translate(246.971 291.25)" fill="#e6e6e6"/>
        <path id="Trazado_103702" data-name="Trazado 103702" d="M887.276,1486.986h-16.51a28,28,0,0,1-18.97-7.074h54.45A28.032,28.032,0,0,1,887.276,1486.986Z" transform="translate(-589.454 -1190.845)" fill="#f0f0f0"/>
        <rect id="Rectángulo_5627" data-name="Rectángulo 5627" width="53.797" height="157.166" transform="translate(393.228 163.059)" fill="#f5f5f5"/>
        <rect id="Rectángulo_5628" data-name="Rectángulo 5628" width="187.254" height="175.664" transform="translate(65.109 58.064)" fill="#e6e6e6"/>
        <rect id="Rectángulo_5629" data-name="Rectángulo 5629" width="187.254" height="175.664" transform="translate(69.82 58.064)" fill="#f5f5f5"/>
        <rect id="Rectángulo_5630" data-name="Rectángulo 5630" width="202.917" height="10.173" transform="translate(65.109 233.728)" fill="#e6e6e6"/>
        <rect id="Rectángulo_5631" data-name="Rectángulo 5631" width="192.466" height="10.173" transform="translate(80.869 233.728)" fill="#f5f5f5"/>
        <rect id="Rectángulo_5632" data-name="Rectángulo 5632" width="170.313" height="157.389" transform="translate(78.298 67.195)" fill="#aed3f2"/>
        <rect id="Rectángulo_5633" data-name="Rectángulo 5633" width="9.436" height="157.389" transform="translate(158.736 67.195)" fill="#f5f5f5"/>
        <rect id="Rectángulo_5634" data-name="Rectángulo 5634" width="3.572" height="157.389" transform="translate(245.04 67.209)" fill="#e6e6e6"/>
        <rect id="Rectángulo_5635" data-name="Rectángulo 5635" width="3.572" height="157.389" transform="translate(155.165 67.195)" fill="#e6e6e6"/>
      </g>
      <g id="freepik--Character--inject-349" transform="translate(240.557 119.409)">
        <path id="Trazado_103710" data-name="Trazado 103710" d="M863.226,1629.714l11.6,1.306,4.28-26.322-11.6-1.306Z" transform="translate(-800.448 -1192.128)" fill="#ffc3bd"/>
        <path id="Trazado_103711" data-name="Trazado 103711" d="M901.626,1631.678h11.59l2.877-26.836H904.5Z" transform="translate(-890.796 -1191.563)" fill="#ffc3bd"/>
        <path id="Trazado_103712" data-name="Trazado 103712" d="M905,1623.182h-14.12a1.013,1.013,0,0,0-.987.792l-2.293,10.3a1.7,1.7,0,0,0,1.294,2.019,1.673,1.673,0,0,0,.4.038c4.544-.069,7.866-.333,13.592-.333,3.516,0,14.134.361,19,.361s5.559-4.808,3.5-5.24c-8.922-1.959-15.648-4.656-18.512-7.227A2.779,2.779,0,0,0,905,1623.182Z" transform="translate(-881.636 -1184.416)" fill="#344154"/>
        <path id="Trazado_103713" data-name="Trazado 103713" d="M867.64,1622.234l-12.508-1.39a1,1,0,0,0-1.07.681l-3.433,9.964a1.682,1.682,0,0,0,1.016,2.151,1.617,1.617,0,0,0,.374.086c4.544.445,11.118.917,16.83,1.571,6.671.75,7.782,2.544,15.634,2.349,4.767-.111,5.976-4.948,3.975-5.337-9.117-1.765-10.868-3.141-18.067-8.825A5.319,5.319,0,0,0,867.64,1622.234Z" transform="translate(-793.076 -1185.329)" fill="#344154"/>
        <path id="Trazado_103714" data-name="Trazado 103714" d="M794.346,1382.981c3.891,3.211,7.727,6,11.688,8.867s8.005,5.559,12.174,8.1,8.436,5.031,12.925,7.269a93.435,93.435,0,0,0,14.259,5.99c1.293.4,2.557.75,4.016,1.1a38.507,38.507,0,0,0,4.322.7c2.613.292,5.059.4,7.5.528,4.878.222,9.728.208,14.454.181,9.561-.112,19.039-.57,28.573-1.39l.139-8.7c-9.353-1.195-18.748-2.237-28.045-3.279-4.642-.515-9.284-1.07-13.8-1.668-2.265-.306-4.5-.667-6.56-1.056a26.282,26.282,0,0,1-2.64-.611c-.806-.278-1.807-.6-2.78-.973a94.682,94.682,0,0,1-11.549-5.642c-3.85-2.21-7.685-4.586-11.465-7.1s-7.546-5.129-11.284-7.782-7.449-5.476-10.951-8.144Z" transform="translate(-730.01 -1283.34)" fill="#ffc3bd"/>
        <path id="Trazado_103715" data-name="Trazado 103715" d="M852.161,1376.726c1.668,10.951,24.723,27.7,24.723,27.7l16.552-20.527a275.126,275.126,0,0,0-23.028-21.9C862.973,1355.907,850.354,1364.8,852.161,1376.726Z" transform="translate(-799.152 -1286.979)" fill="#43a99b"/>
        <path id="Trazado_103716" data-name="Trazado 103716" d="M791.4,1397.406l6.574-4.684.723,14.8s-3.641,0-5.045-2.668Z" transform="translate(-620.203 -1274.236)" fill="#ffc3bd"/>
        <path id="Trazado_103717" data-name="Trazado 103717" d="M792.615,1389.622l1.348,14.495-6.573,4.614-.723-14.8Z" transform="translate(-608.9 -1275.444)" fill="#ffc3bd"/>
        <path id="Trazado_103718" data-name="Trazado 103718" d="M877.036,1604.709l-2.2,13.564-11.6-1.306,2.2-13.564Z" transform="translate(-798.387 -1192.124)" opacity="0.2" style="isolation: isolate"/>
        <path id="Trazado_103719" data-name="Trazado 103719" d="M903.113,1604.843H914.7l-1.487,13.842h-11.59Z" transform="translate(-889.406 -1191.563)" opacity="0.2" style="isolation: isolate"/>
        <path id="Trazado_103720" data-name="Trazado 103720" d="M866.169,1362.881a6.616,6.616,0,0,0-5.018,7.9c.014.059.028.119.043.177a272.438,272.438,0,0,1,5.67,31.672c1.1,8.978,1.751,17.553,2.154,25.321.973,18.206.57,32.089,1.112,36.8l61.83-4.28c6.281-49.2-1.07-80.6-5.211-93.349a11.039,11.039,0,0,0-9.033-7.56c-2.377-.305-5.212-.611-8.214-.792-1.042,0-2.112-.1-3.182-.125a230.054,230.054,0,0,0-26.308,1.765c-1.654.194-3.321.445-4.948.7C871.825,1361.672,868.726,1362.311,866.169,1362.881Z" transform="translate(-852.628 -1287.518)" fill="#344154"/>
        <path id="Trazado_103721" data-name="Trazado 103721" d="M880.93,1338.522c2.251,8.338,4.989,23.709-.528,29.769,14.329,9.645,23.473,23.208,26.114,20.262,1.39-1.543,1.973-19.457.167-22.1-9.589-1.6-9.839-8.6-8.658-15.287Z" transform="translate(-853.019 -1295.36)" fill="#ffc3bd"/>
        <path id="Trazado_103722" data-name="Trazado 103722" d="M883.62,1357.452s23.362,10.339,26.405,33.437c-6.421-7.449-20.638-15.551-20.638-15.551l6.268-1.793a64.1,64.1,0,0,0-12.313-3.322c.695-3.2-3.016-9.561-3.016-9.561Z" transform="translate(-855.125 -1287.982)" fill="#43a99b"/>
        <path id="Trazado_103723" data-name="Trazado 103723" d="M875.909,1357.182s-3.1,13.2,5.378,33.812c1.32-7.866,6.865-21.027,6.865-21.027l-5.726,1.542s.292-2.654,4.92-6.2c-1.723-3.308-7.116-7.213-7.116-7.213Z" transform="translate(-826.346 -1288.088)" fill="#43a99b"/>
        <path id="Trazado_103724" data-name="Trazado 103724" d="M887.617,1342.232l10.117,7.477a26.319,26.319,0,0,0-.486,4.725c-3.641-.264-8.867-3.877-9.506-7.63A12.61,12.61,0,0,1,887.617,1342.232Z" transform="translate(-852.758 -1293.914)" opacity="0.2" style="isolation: isolate"/>
        <path id="Trazado_103725" data-name="Trazado 103725" d="M877.894,1321.143c5.656.237,8.769,9.979,3.044,18.067S870.292,1320.823,877.894,1321.143Z" transform="translate(-820.299 -1302.135)" fill="#344154"/>
        <path id="Trazado_103726" data-name="Trazado 103726" d="M875.824,1331.507c-.667,11.48-1.64,18.164,3.4,24.7,7.6,9.839,22.305,6.323,26.405-4.725,3.669-9.951,4.169-27.058-6.462-32.923a15.69,15.69,0,0,0-23.348,12.952Z" transform="translate(-846.093 -1303.925)" fill="#ffc3bd"/>
        <path id="Trazado_103727" data-name="Trazado 103727" d="M883.978,1343.858c8.7-5.559,11.771-12.883,12.438-16.566,3.377.792,20.137,8.505,25.293,0s-1.39-13.508-10.979-8.269c4.267-7.532.389-11.215-13.022-11.549s-11.6,7.449-11.6,7.449-10.145-4.42-13.745,3.363C868.2,1327.237,875.876,1342.51,883.978,1343.858Z" transform="translate(-855.928 -1307.464)" fill="#344154"/>
        <path id="Trazado_103728" data-name="Trazado 103728" d="M907.25,1312.626c-.125,0-5.072,1.2-10.784-4.544,1.015,4.891,9.881,8.157,9.881,8.157Z" transform="translate(-874.782 -1307.224)" fill="#344154"/>
        <path id="Trazado_103729" data-name="Trazado 103729" d="M896.128,1323.517c5.337-1.848,11.813,6.073,9.422,15.635S888.915,1326.005,896.128,1323.517Z" transform="translate(-870.316 -1301.313)" fill="#344154"/>
        <path id="Trazado_103730" data-name="Trazado 103730" d="M895.875,1335.885a10.867,10.867,0,0,0,4.447,7.06c3.141,2.2,5.976-.306,6.157-3.933.167-3.266-1.279-8.339-4.934-9.089S895.306,1332.383,895.875,1335.885Z" transform="translate(-873.093 -1298.754)" fill="#ffc3bd"/>
        <path id="Trazado_103731" data-name="Trazado 103731" d="M873.761,1562.423c-2.78-33.882-23.209-127.7-23.209-127.7l40.65-2.807s15.676,93.113,16.872,128.468c1.251,36.759-13.536,118.434-13.536,118.434l-19.457-2.223S876.568,1596.458,873.761,1562.423Z" transform="translate(-811.871 -1258.962)" fill="#d9a171"/>
        <path id="Trazado_103732" data-name="Trazado 103732" d="M873.761,1562.423c-2.78-33.882-23.209-127.7-23.209-127.7l40.65-2.807s15.676,93.113,16.872,128.468c1.251,36.759-13.536,118.434-13.536,118.434l-19.457-2.223S876.568,1596.458,873.761,1562.423Z" transform="translate(-811.871 -1258.962)" fill="#fff" opacity="0.5" style="isolation: isolate"/>
        <path id="Trazado_103733" data-name="Trazado 103733" d="M882.657,1456.792c8.2,10.479,8.339,47.251,5.17,74.463-3.016-19.623-7.769-44.472-11.952-65.318Z" transform="translate(-828.661 -1249.265)" opacity="0.2" style="isolation: isolate"/>
        <path id="Trazado_103734" data-name="Trazado 103734" d="M927.987,1432.992s-4.392,99.2-9.284,132.79c-5.351,36.787-18.956,117.253-18.956,117.253H878.526s3.488-75.727,6.3-111.874c3.182-41.165,3.266-135.334,3.266-135.334Z" transform="translate(-870.586 -1258.541)" fill="#d9a171"/>
        <path id="Trazado_103735" data-name="Trazado 103735" d="M927.987,1432.992s-4.392,99.2-9.284,132.79c-5.351,36.787-18.956,117.253-18.956,117.253H878.526s3.488-75.727,6.3-111.874c3.182-41.165,3.266-135.334,3.266-135.334Z" transform="translate(-870.586 -1258.541)" fill="#fff" opacity="0.5" style="isolation: isolate"/>
        <path id="Trazado_103736" data-name="Trazado 103736" d="M919.884,1615.432H894.9v-7.463l27.934-.487Z" transform="translate(-888.18 -1190.534)" fill="#d9a171"/>
        <path id="Trazado_103737" data-name="Trazado 103737" d="M880.353,1613.978l-23.237-2.641.848-7.5,26.016,2.544Z" transform="translate(-796.825 -1191.957)" fill="#d9a171"/>
        <path id="Trazado_103738" data-name="Trazado 103738" d="M884.688,1331.526c-.111.931.292,1.751.9,1.821s1.181-.626,1.306-1.557-.292-1.737-.9-1.806S884.8,1330.609,884.688,1331.526Z" transform="translate(-838.058 -1298.69)" fill="#344154"/>
        <path id="Trazado_103739" data-name="Trazado 103739" d="M877.171,1332.436c-.111.931.292,1.738.9,1.821s1.181-.625,1.292-1.556-.292-1.737-.89-1.807S877.31,1331.5,877.171,1332.436Z" transform="translate(-820.076 -1298.335)" fill="#344154"/>
        <path id="Trazado_103740" data-name="Trazado 103740" d="M879.712,1332.052a33.446,33.446,0,0,0,3.488,8.464,5.407,5.407,0,0,1-4.545.292Z" transform="translate(-825.98 -1297.882)" fill="#ed847e"/>
        <path id="Trazado_103741" data-name="Trazado 103741" d="M885.069,1329.133a.541.541,0,0,0,.556-.139,4.393,4.393,0,0,1,3.711-1.39.555.555,0,0,0,.688-.379.593.593,0,0,0,.021-.121.53.53,0,0,0-.4-.632l-.045-.008a5.412,5.412,0,0,0-4.7,1.709.543.543,0,0,0-.013.767l.013.011A.623.623,0,0,0,885.069,1329.133Z" transform="translate(-841.287 -1300.078)" fill="#344154"/>
        <path id="Trazado_103742" data-name="Trazado 103742" d="M891.205,1342.516h0a8.416,8.416,0,0,1-6-4.933.293.293,0,0,1,.167-.376.307.307,0,0,1,.389.181,7.961,7.961,0,0,0,5.559,4.545.3.3,0,0,1-.111.583Z" transform="translate(-843.394 -1295.88)" fill="#344154"/>
        <path id="Trazado_103743" data-name="Trazado 103743" d="M878.215,1330.986a.447.447,0,0,0,.334,0,.557.557,0,0,0,.348-.695,5.48,5.48,0,0,0-3.544-3.544.542.542,0,0,0-.663.386l0,.017a.529.529,0,0,0,.37.649l.02,0h0a4.368,4.368,0,0,1,2.78,2.78A.5.5,0,0,0,878.215,1330.986Z" transform="translate(-816.159 -1299.957)" fill="#344154"/>
        <path id="Trazado_103744" data-name="Trazado 103744" d="M901.487,1625.451a3.49,3.49,0,0,0,2.224-.6,1.64,1.64,0,0,0,.57-1.39.851.851,0,0,0-.473-.779c-1.278-.666-5.017,1.641-5.434,1.9a.25.25,0,0,0-.125.278.263.263,0,0,0,.208.222A13.481,13.481,0,0,0,901.487,1625.451Zm1.723-2.4a.815.815,0,0,1,.348.07.337.337,0,0,1,.18.32,1.125,1.125,0,0,1-.375,1c-.639.528-2.154.612-4.169.208A11.233,11.233,0,0,1,903.21,1623.047Z" transform="translate(-874.285 -1184.655)" fill="#d9a171"/>
        <path id="Trazado_103745" data-name="Trazado 103745" d="M900.2,1625.8a.239.239,0,0,0,.139,0c1.195-.653,3.516-3.2,3.266-4.475a.9.9,0,0,0-.875-.723,1.481,1.481,0,0,0-1.168.347c-1.39,1.1-1.626,4.447-1.626,4.586a.235.235,0,0,0,.125.25A.231.231,0,0,0,900.2,1625.8Zm2.293-4.7h.111c.361,0,.389.208.4.278.153.765-1.39,2.683-2.516,3.585a6.493,6.493,0,0,1,1.39-3.627A.969.969,0,0,1,902.493,1621.106Z" transform="translate(-875.973 -1185.425)" fill="#d9a171"/>
        <path id="Trazado_103746" data-name="Trazado 103746" d="M860.579,1623.6h0c1.807.584,5.059,1.39,6.448.431a1.5,1.5,0,0,0,.653-1.265.878.878,0,0,0-.361-.778c-1.306-.917-6.212.89-6.754,1.1a.29.29,0,0,0-.181.264A.261.261,0,0,0,860.579,1623.6Zm6.407-1.195h0a.365.365,0,0,1,.139.32.985.985,0,0,1-.431.834c-.778.556-2.682.445-5.184-.264,2.015-.626,4.669-1.307,5.475-.89Z" transform="translate(-785.069 -1184.983)" fill="#d9a171"/>
        <path id="Trazado_103747" data-name="Trazado 103747" d="M862.3,1624.443a.3.3,0,0,0,.222,0c1.459-.458,4.489-2.641,4.419-3.961,0-.32-.181-.723-.917-.876a1.974,1.974,0,0,0-1.571.292c-1.6,1.042-2.265,4.169-2.293,4.169a.3.3,0,0,0,.083.264Zm3.905-4.169c.181.1.195.208.195.264,0,.792-2.057,2.529-3.572,3.224a6.419,6.419,0,0,1,1.932-3.377,1.4,1.4,0,0,1,1.14-.222.977.977,0,0,1,.306.1Z" transform="translate(-786.789 -1185.829)" fill="#d9a171"/>
        <path id="Trazado_103748" data-name="Trazado 103748" d="M871.156,1374.059c.292,4.53.82,8.741,1.39,13.091s1.292,8.616,2.112,12.925a152.247,152.247,0,0,0,7.13,25.821l1.39,3.238.347.806.083.209.139.305.417.862a14.01,14.01,0,0,0,1.918,2.779,16.886,16.886,0,0,0,4.169,3.446,24.734,24.734,0,0,0,3.989,1.932,52.084,52.084,0,0,0,14.259,2.988,119.471,119.471,0,0,0,26.516-.986l-.32-8.7-6.129-.7c-2.057-.236-4.1-.556-6.129-.834-4.058-.6-8.074-1.265-11.91-2.154a45.315,45.315,0,0,1-10.242-3.391,5.656,5.656,0,0,1-2.238-1.709c0-.209.4.667-.111-.723l-.917-2.682a175.037,175.037,0,0,1-5.142-23.431c-.667-4.03-1.223-8.1-1.779-12.188s-.987-8.241-1.39-12.147Z" transform="translate(-867.372 -1281.992)" fill="#ffc3bd"/>
        <path id="Trazado_103749" data-name="Trazado 103749" d="M899.65,1369.9c-5.67,9.506-.834,39.413-.834,39.413l29.74-5.559s1.612-17.122-4.058-30.269C918.342,1359.229,906.515,1358.367,899.65,1369.9Z" transform="translate(-896.894 -1286.229)" fill="#43a99b"/>
        <path id="Trazado_103750" data-name="Trazado 103750" d="M814.466,1458.975,830.24,1385.6a14.842,14.842,0,0,1,13.8-11.354h60.426a14.871,14.871,0,0,0-13.8,11.354l-15.76,73.379a14.867,14.867,0,0,1-13.8,11.354h-60.44A14.853,14.853,0,0,0,814.466,1458.975Z" transform="translate(-738.86 -1281.438)" fill="#344154"/>
        <path id="Trazado_103751" data-name="Trazado 103751" d="M814.466,1458.975,830.24,1385.6a14.842,14.842,0,0,1,13.8-11.354h60.426a14.871,14.871,0,0,0-13.8,11.354l-15.76,73.379a14.867,14.867,0,0,1-13.8,11.354h-60.44A14.853,14.853,0,0,0,814.466,1458.975Z" transform="translate(-738.86 -1281.438)" fill="#636363" opacity="0.7" style="isolation: isolate"/>
        <rect id="Rectángulo_5636" data-name="Rectángulo 5636" width="16.762" height="4.46" transform="translate(187.791 198.424) rotate(-95.143)" fill="#d9a171"/>
        <rect id="Rectángulo_5637" data-name="Rectángulo 5637" width="6.864" height="2.691" transform="matrix(-0.092, -0.996, 0.996, -0.092, 190.916, 213.954)" fill="#d9a171"/>
        <path id="Trazado_103752" data-name="Trazado 103752" d="M840.845,1374.242H780.419A12.689,12.689,0,0,1,792.8,1385.6l15.676,170.494a12.7,12.7,0,0,0,12.4,11.354h37.718a10.2,10.2,0,0,0,10.39-10.007,10.374,10.374,0,0,0-.064-1.347L853.242,1385.6A12.7,12.7,0,0,0,840.845,1374.242Z" transform="translate(-675.239 -1281.438)" fill="#e8e8e8"/>
        <path id="Trazado_103753" data-name="Trazado 103753" d="M774.4,1505.092a10.2,10.2,0,0,1-8.98,11.29,10.026,10.026,0,0,1-1.345.064h60.44a10.186,10.186,0,0,0,10.377-9.992,10.421,10.421,0,0,0-.065-1.362Z" transform="translate(-618.442 -1230.44)" fill="#344154"/>
        <path id="Trazado_103754" data-name="Trazado 103754" d="M774.4,1505.092a10.2,10.2,0,0,1-8.98,11.29,10.026,10.026,0,0,1-1.345.064h60.44a10.186,10.186,0,0,0,10.377-9.992,10.421,10.421,0,0,0-.065-1.362Z" transform="translate(-618.442 -1230.44)" fill="#636363" opacity="0.7" style="isolation: isolate"/>
        <g id="Grupo_59418" data-name="Grupo 59418" transform="translate(125.331 106.965)" opacity="0.5">
          <path id="Trazado_103755" data-name="Trazado 103755" d="M799.287,1389.379h40.97a2.223,2.223,0,0,0,2.251-2.194,2.35,2.35,0,0,0-.014-.279h0a2.78,2.78,0,0,0-2.7-2.474H798.9a2.224,2.224,0,0,0-2.251,2.2,2.059,2.059,0,0,0,.014.278h0A2.778,2.778,0,0,0,799.287,1389.379Z" transform="translate(-796.646 -1384.432)" fill="#afafaf"/>
          <path id="Trazado_103756" data-name="Trazado 103756" d="M798.476,1399h40.9a2.224,2.224,0,0,0,2.265-2.181,2.333,2.333,0,0,0-.014-.293h0a2.781,2.781,0,0,0-2.7-2.474h-40.9a2.225,2.225,0,0,0-2.265,2.182,2.257,2.257,0,0,0,.014.292h0A2.779,2.779,0,0,0,798.476,1399Z" transform="translate(-794.557 -1380.682)" fill="#afafaf"/>
          <path id="Trazado_103757" data-name="Trazado 103757" d="M797.592,1408.63h30.894a2.223,2.223,0,0,0,2.251-2.194,2.371,2.371,0,0,0-.014-.28h0a2.781,2.781,0,0,0-2.7-2.474H797.161a2.225,2.225,0,0,0-2.265,2.182,2.257,2.257,0,0,0,.014.292h0A2.779,2.779,0,0,0,797.592,1408.63Z" transform="translate(-782.444 -1376.929)" fill="#afafaf"/>
          <path id="Trazado_103758" data-name="Trazado 103758" d="M796.727,1418.3h10.465a2.224,2.224,0,0,0,2.264-2.182,2.356,2.356,0,0,0-.012-.278h0a2.78,2.78,0,0,0-2.7-2.474H796.268a2.224,2.224,0,0,0-2.251,2.2,2.077,2.077,0,0,0,.014.278h0A2.778,2.778,0,0,0,796.727,1418.3Z" transform="translate(-759.94 -1373.157)" fill="#afafaf"/>
          <path id="Trazado_103759" data-name="Trazado 103759" d="M795.808,1427.879h40.928a2.223,2.223,0,0,0,2.251-2.194,2.391,2.391,0,0,0-.014-.279h0a2.78,2.78,0,0,0-2.7-2.474H795.391a2.223,2.223,0,0,0-2.251,2.474h0A2.778,2.778,0,0,0,795.808,1427.879Z" transform="translate(-788.234 -1369.427)" fill="#afafaf"/>
          <path id="Trazado_103760" data-name="Trazado 103760" d="M794.961,1437.51h24.807a2.224,2.224,0,0,0,2.265-2.181,2.324,2.324,0,0,0-.014-.293h0a2.78,2.78,0,0,0-2.7-2.474H794.53a2.238,2.238,0,0,0-2.264,2.211,2.1,2.1,0,0,0,.013.263h0A2.779,2.779,0,0,0,794.961,1437.51Z" transform="translate(-770.084 -1365.673)" fill="#afafaf"/>
          <path id="Trazado_103761" data-name="Trazado 103761" d="M794.077,1447.129h40.9a2.222,2.222,0,0,0,2.251-2.194,2.38,2.38,0,0,0-.014-.28h0a2.78,2.78,0,0,0-2.7-2.474H793.66a2.238,2.238,0,0,0-2.264,2.211,2.041,2.041,0,0,0,.012.263h0A2.778,2.778,0,0,0,794.077,1447.129Z" transform="translate(-784.07 -1361.924)" fill="#afafaf"/>
          <path id="Trazado_103762" data-name="Trazado 103762" d="M793.226,1456.76h30.866a2.224,2.224,0,0,0,2.265-2.181,2.321,2.321,0,0,0-.014-.293h0a2.781,2.781,0,0,0-2.7-2.474H792.781a2.225,2.225,0,0,0-2.265,2.182,2.3,2.3,0,0,0,.014.292h0A2.779,2.779,0,0,0,793.226,1456.76Z" transform="translate(-771.977 -1358.171)" fill="#afafaf"/>
          <path id="Trazado_103763" data-name="Trazado 103763" d="M792.347,1466.389h10.479a2.236,2.236,0,0,0,2.264-2.209c0-.089,0-.177-.012-.264h0a2.78,2.78,0,0,0-2.71-2.474H791.9a2.223,2.223,0,0,0-2.251,2.474h0A2.778,2.778,0,0,0,792.347,1466.389Z" transform="translate(-749.487 -1354.418)" fill="#afafaf"/>
          <path id="Trazado_103764" data-name="Trazado 103764" d="M791.476,1476.009h40.886a2.224,2.224,0,0,0,2.265-2.181,2.258,2.258,0,0,0-.014-.293h0a2.78,2.78,0,0,0-2.7-2.474h-40.9a2.224,2.224,0,0,0-2.251,2.2,2.017,2.017,0,0,0,.014.278h0A2.778,2.778,0,0,0,791.476,1476.009Z" transform="translate(-777.815 -1350.668)" fill="#afafaf"/>
          <path id="Trazado_103765" data-name="Trazado 103765" d="M790.6,1485.64h24.793a2.224,2.224,0,0,0,2.265-2.181,2.315,2.315,0,0,0-.014-.293h0a2.781,2.781,0,0,0-2.7-2.474H790.151a2.225,2.225,0,0,0-2.265,2.182,2.287,2.287,0,0,0,.014.291h0A2.78,2.78,0,0,0,790.6,1485.64Z" transform="translate(-759.618 -1346.915)" fill="#afafaf"/>
          <path id="Trazado_103766" data-name="Trazado 103766" d="M789.725,1495.3h40.886a2.224,2.224,0,0,0,2.265-2.18,2.3,2.3,0,0,0-.014-.294h0a2.782,2.782,0,0,0-2.7-2.46h-40.9a2.224,2.224,0,0,0-2.25,2.2,2.063,2.063,0,0,0,.013.263h0A2.779,2.779,0,0,0,789.725,1495.3Z" transform="translate(-773.631 -1343.146)" fill="#afafaf"/>
        </g>
        <path id="Trazado_103767" data-name="Trazado 103767" d="M864.586,1418.7l8.88-7.713,4.169,14.2s-9.019,4.892-12.132.4Z" transform="translate(-800.862 -1267.12)" fill="#ffc3bd"/>
        <path id="Trazado_103768" data-name="Trazado 103768" d="M868.215,1410.582l2.891,11.91-8.394,2.849-4.155-14.2Z" transform="translate(-785.952 -1267.275)" fill="#ffc3bd"/>
      </g>
      <g id="Grupo_87379" data-name="Grupo 87379" transform="translate(22.755 293.417)">
        <g id="Grupo_58071" data-name="Grupo 58071">
          <g id="Grupo_58065" data-name="Grupo 58065">
            <g id="Grupo_58064" data-name="Grupo 58064">
              <path id="Trazado_102311" data-name="Trazado 102311" d="M423.145,5183.559a37.011,37.011,0,1,1-42.1-31A36.97,36.97,0,0,1,423.145,5183.559Z" transform="translate(-349.533 -5152.144)" fill="#f5f5f5"/>
            </g>
          </g>
          <g id="Grupo_58067" data-name="Grupo 58067" transform="translate(8.808 8.788)">
            <g id="Grupo_58066" data-name="Grupo 58066">
              <path id="Trazado_102312" data-name="Trazado 102312" d="M414.524,5184.961a28.2,28.2,0,1,1-32.083-23.621A28.173,28.173,0,0,1,414.524,5184.961Z" transform="translate(-358.428 -5161.021)" fill="#ececec"/>
            </g>
          </g>
          <g id="Grupo_58070" data-name="Grupo 58070" transform="translate(8.29 7.717)">
            <g id="Grupo_58069" data-name="Grupo 58069">
              <g id="Grupo_58068" data-name="Grupo 58068">
                <path id="Trazado_102313" data-name="Trazado 102313" d="M414.381,5184.076c-.168.034-.472-1.174-1.243-3.241a29.991,29.991,0,0,0-4.506-8.066,29.053,29.053,0,0,0-4.457-4.509,28.243,28.243,0,0,0-6.182-3.776,27.549,27.549,0,0,0-7.679-2.166,27.458,27.458,0,0,0-4.22-.227,30.552,30.552,0,0,0-4.33.442,30.088,30.088,0,0,0-4.208,1.122,27.5,27.5,0,0,0-3.868,1.7,27.691,27.691,0,0,0-6.415,4.744,28.275,28.275,0,0,0-4.443,5.723,28.864,28.864,0,0,0-2.57,5.8,29.931,29.931,0,0,0-1.356,9.137c.013,2.2.156,3.438-.013,3.468-.124.026-.551-1.161-.827-3.419a26.1,26.1,0,0,1,.726-9.606,28.272,28.272,0,0,1,7.063-12.494,27.32,27.32,0,0,1,3.141-2.8,27.631,27.631,0,0,1,3.683-2.408,28.866,28.866,0,0,1,4.161-1.868,28.9,28.9,0,0,1,9.209-1.685,28.657,28.657,0,0,1,4.552.274,28.861,28.861,0,0,1,8.226,2.455,28.312,28.312,0,0,1,11.032,9.183,26.124,26.124,0,0,1,4.083,8.724C414.484,5182.8,414.506,5184.056,414.381,5184.076Z" transform="translate(-357.905 -5159.938)" fill="#e1e1e1"/>
              </g>
            </g>
          </g>
        </g>
      </g>
      <g id="Grupo_87381" data-name="Grupo 87381" transform="translate(88.527 247.317) rotate(-43)">
        <g id="Grupo_81848" data-name="Grupo 81848" transform="translate(0 0)">
          <g id="Grupo_81829" data-name="Grupo 81829">
            <g id="Grupo_81828" data-name="Grupo 81828">
              <g id="Grupo_81827" data-name="Grupo 81827">
                <g id="Grupo_81826" data-name="Grupo 81826">
                  <g id="Grupo_81825" data-name="Grupo 81825">
                    <g id="Grupo_81824" data-name="Grupo 81824">
                      <path id="Trazado_139735" data-name="Trazado 139735" d="M49.172,88.528,4.1,73.948A5.926,5.926,0,0,1,.289,66.485L20.468,4.1A5.927,5.927,0,0,1,27.931.289L56.514,9.536,71.263,39.5,56.636,84.712A5.927,5.927,0,0,1,49.172,88.528Z" fill="#e2f4f6"/>
                    </g>
                  </g>
                </g>
              </g>
            </g>
          </g>
          <g id="Grupo_81835" data-name="Grupo 81835" transform="translate(50.566 9.536)">
            <g id="Grupo_81834" data-name="Grupo 81834" transform="translate(0 0)">
              <g id="Grupo_81833" data-name="Grupo 81833">
                <g id="Grupo_81832" data-name="Grupo 81832">
                  <g id="Grupo_81831" data-name="Grupo 81831">
                    <g id="Grupo_81830" data-name="Grupo 81830">
                      <path id="Trazado_139736" data-name="Trazado 139736" d="M5.948,0,.269,17.556A5.512,5.512,0,0,0,3.816,24.5L20.7,29.961Z" fill="#f2e9e4"/>
                    </g>
                  </g>
                </g>
              </g>
            </g>
          </g>
          <g id="Grupo_81841" data-name="Grupo 81841" transform="translate(50.283 28.707)" opacity="0.2">
            <g id="Grupo_81840" data-name="Grupo 81840" transform="translate(0 0)">
              <g id="Grupo_81839" data-name="Grupo 81839" transform="translate(0 0)">
                <g id="Grupo_81838" data-name="Grupo 81838">
                  <g id="Grupo_81837" data-name="Grupo 81837">
                    <g id="Grupo_81836" data-name="Grupo 81836">
                      <path id="Trazado_139737" data-name="Trazado 139737" d="M.284,0s-1.6,4.186,2.8,7.155a5.873,5.873,0,0,0,.515.3c2.077,1.107,15.752,8.382,15.859,8.049.118-.361,1.527-4.718,1.527-4.718L4.1,5.329S-.07,3.822.284,0Z"/>
                    </g>
                  </g>
                </g>
              </g>
            </g>
          </g>
        </g>
        <g id="Grupo_81853" data-name="Grupo 81853" transform="translate(26.436 18.383)">
          <g id="Grupo_81852" data-name="Grupo 81852" transform="translate(0 0)">
            <g id="Grupo_81851" data-name="Grupo 81851">
              <g id="Grupo_81850" data-name="Grupo 81850">
                <g id="Grupo_81849" data-name="Grupo 81849">
                  <path id="Trazado_139739" data-name="Trazado 139739" d="M20.851,6.769c-.073.226-4.8-1.1-10.557-2.964S-.073.25,0,.025s4.8,1.1,10.558,2.964S20.924,6.544,20.851,6.769Z" fill="#12263f"/>
                </g>
              </g>
            </g>
          </g>
        </g>
        <g id="Grupo_81858" data-name="Grupo 81858" transform="translate(23.225 28.319)">
          <g id="Grupo_81857" data-name="Grupo 81857" transform="translate(0 0)">
            <g id="Grupo_81856" data-name="Grupo 81856">
              <g id="Grupo_81855" data-name="Grupo 81855">
                <g id="Grupo_81854" data-name="Grupo 81854">
                  <path id="Trazado_139740" data-name="Trazado 139740" d="M34.317,11.116c-.073.226-7.815-2.077-17.29-5.141S-.073.241,0,.015,7.814,2.092,17.292,5.157,34.39,10.891,34.317,11.116Z" fill="#12263f"/>
                </g>
              </g>
            </g>
          </g>
        </g>
        <g id="Grupo_81863" data-name="Grupo 81863" transform="translate(20.544 36.609)">
          <g id="Grupo_81862" data-name="Grupo 81862" transform="translate(0 0)">
            <g id="Grupo_81861" data-name="Grupo 81861">
              <g id="Grupo_81860" data-name="Grupo 81860">
                <g id="Grupo_81859" data-name="Grupo 81859">
                  <path id="Trazado_139741" data-name="Trazado 139741" d="M37.408,12.114c-.073.226-8.507-2.3-18.835-5.641S-.072.24,0,.014s8.5,2.3,18.837,5.642S37.481,11.889,37.408,12.114Z" fill="#12263f"/>
                </g>
              </g>
            </g>
          </g>
        </g>
        <g id="Grupo_81868" data-name="Grupo 81868" transform="translate(18.014 44.429)">
          <g id="Grupo_81867" data-name="Grupo 81867" transform="translate(0 0)">
            <g id="Grupo_81866" data-name="Grupo 81866">
              <g id="Grupo_81865" data-name="Grupo 81865">
                <g id="Grupo_81864" data-name="Grupo 81864">
                  <path id="Trazado_139742" data-name="Trazado 139742" d="M37.408,12.115c-.073.226-8.507-2.3-18.835-5.642S-.072.24,0,.014s8.5,2.3,18.837,5.643S37.482,11.889,37.408,12.115Z" fill="#12263f"/>
                </g>
              </g>
            </g>
          </g>
        </g>
        <g id="Grupo_81873" data-name="Grupo 81873" transform="translate(15.485 52.25)">
          <g id="Grupo_81872" data-name="Grupo 81872" transform="translate(0 0)">
            <g id="Grupo_81871" data-name="Grupo 81871">
              <g id="Grupo_81870" data-name="Grupo 81870">
                <g id="Grupo_81869" data-name="Grupo 81869">
                  <path id="Trazado_139743" data-name="Trazado 139743" d="M37.407,12.114c-.072.226-8.507-2.3-18.834-5.641S-.073.24,0,.014s8.5,2.3,18.837,5.642S37.481,11.889,37.407,12.114Z" fill="#12263f"/>
                </g>
              </g>
            </g>
          </g>
        </g>
        <g id="Grupo_81878" data-name="Grupo 81878" transform="translate(12.955 60.07)">
          <g id="Grupo_81877" data-name="Grupo 81877" transform="translate(0 0)">
            <g id="Grupo_81876" data-name="Grupo 81876">
              <g id="Grupo_81875" data-name="Grupo 81875">
                <g id="Grupo_81874" data-name="Grupo 81874">
                  <path id="Trazado_139744" data-name="Trazado 139744" d="M37.408,12.115c-.073.226-8.507-2.3-18.835-5.642S-.072.24,0,.014s8.5,2.3,18.837,5.643S37.481,11.889,37.408,12.115Z" fill="#12263f"/>
                </g>
              </g>
            </g>
          </g>
        </g>
      </g>
      <g id="Grupo_87382" data-name="Grupo 87382" transform="translate(166.853 340.797) rotate(-90)">
        <path id="Trazado_141631" data-name="Trazado 141631" d="M37.883,30.162,18.772,0,0,30.162H7.705V68.73h22.47V30.162Z" fill="#a4a3ff" stroke="#000" stroke-linecap="round" stroke-linejoin="round" stroke-width="1.5"/>
      </g>
      <g id="Grupo_87383" data-name="Grupo 87383" transform="translate(402.398 69.854) rotate(90)">
        <path id="Trazado_141631-2" data-name="Trazado 141631" d="M37.883,30.162,18.772,0,0,30.162H7.705V68.73h22.47V30.162Z" fill="#a4a3ff" stroke="#000" stroke-linecap="round" stroke-linejoin="round" stroke-width="1.5"/>
      </g>
      <g id="Grupo_87384" data-name="Grupo 87384" transform="translate(-13.298 0)">
        <g id="Grupo_82796" data-name="Grupo 82796">
          <g id="Grupo_82787" data-name="Grupo 82787">
            <g id="Grupo_82752" data-name="Grupo 82752">
              <g id="Grupo_82748" data-name="Grupo 82748" transform="translate(0.248 0.249)">
                <g id="Grupo_82747" data-name="Grupo 82747">
                  <rect id="Rectángulo_30467" data-name="Rectángulo 30467" width="219.706" height="170.992" fill="#fff"/>
                </g>
              </g>
              <g id="Grupo_82751" data-name="Grupo 82751">
                <g id="Grupo_82750" data-name="Grupo 82750">
                  <g id="Grupo_82749" data-name="Grupo 82749">
                    <path id="Trazado_139940" data-name="Trazado 139940" d="M418.346,237.761c0-1.707-.081-67.8-.2-170.992l.2.2-219.687.043h-.019l.248-.248c-.009,61.635-.017,119.932-.025,170.991l-.223-.223,219.706.223-219.706.223h-.223v-.224c-.008-51.059-.016-109.356-.026-170.991V66.52h.267l219.687.043h.206v.206C418.428,169.957,418.349,236.055,418.346,237.761Z" transform="translate(-198.392 -66.52)" fill="#263238"/>
                  </g>
                </g>
              </g>
            </g>
            <g id="Grupo_82786" data-name="Grupo 82786" transform="translate(10.965 22.714)">
              <g id="Grupo_82754" data-name="Grupo 82754">
                <g id="Grupo_82753" data-name="Grupo 82753">
                  <rect id="Rectángulo_30468" data-name="Rectángulo 30468" width="35.566" height="1.979" fill="#263238"/>
                </g>
              </g>
              <g id="Grupo_82756" data-name="Grupo 82756" transform="translate(0 4.631)">
                <g id="Grupo_82755" data-name="Grupo 82755">
                  <rect id="Rectángulo_30469" data-name="Rectángulo 30469" width="17.575" height="1.979" fill="#263238"/>
                </g>
              </g>
              <g id="Grupo_82785" data-name="Grupo 82785" transform="translate(20.278 14.444)">
                <g id="Grupo_82779" data-name="Grupo 82779">
                  <g id="Grupo_82757" data-name="Grupo 82757" transform="translate(0 109.514)">
                    <rect id="Rectángulo_30470" data-name="Rectángulo 30470" width="6.443" height="1.857" fill="#263238"/>
                  </g>
                  <g id="Grupo_82758" data-name="Grupo 82758" transform="translate(14.575 119.439)">
                    <rect id="Rectángulo_30471" data-name="Rectángulo 30471" width="8.239" height="1.857" fill="#263238"/>
                  </g>
                  <g id="Grupo_82759" data-name="Grupo 82759" transform="translate(43.257 119.439)">
                    <rect id="Rectángulo_30472" data-name="Rectángulo 30472" width="8.239" height="1.857" fill="#263238"/>
                  </g>
                  <g id="Grupo_82760" data-name="Grupo 82760" transform="translate(71.938 119.439)">
                    <rect id="Rectángulo_30473" data-name="Rectángulo 30473" width="8.239" height="1.857" fill="#263238"/>
                  </g>
                  <g id="Grupo_82761" data-name="Grupo 82761" transform="translate(100.62 119.439)">
                    <rect id="Rectángulo_30474" data-name="Rectángulo 30474" width="8.239" height="1.857" fill="#263238"/>
                  </g>
                  <g id="Grupo_82762" data-name="Grupo 82762" transform="translate(129.301 119.439)">
                    <rect id="Rectángulo_30475" data-name="Rectángulo 30475" width="8.239" height="1.857" fill="#263238"/>
                  </g>
                  <g id="Grupo_82763" data-name="Grupo 82763" transform="translate(157.983 119.439)">
                    <rect id="Rectángulo_30476" data-name="Rectángulo 30476" width="8.239" height="1.857" fill="#263238"/>
                  </g>
                  <g id="Grupo_82764" data-name="Grupo 82764" transform="translate(0 84.718)">
                    <rect id="Rectángulo_30477" data-name="Rectángulo 30477" width="6.443" height="1.856" fill="#263238"/>
                  </g>
                  <g id="Grupo_82765" data-name="Grupo 82765" transform="translate(0 38.05)">
                    <rect id="Rectángulo_30478" data-name="Rectángulo 30478" width="6.443" height="1.857" fill="#263238"/>
                  </g>
                  <g id="Grupo_82766" data-name="Grupo 82766" transform="translate(0 14.597)">
                    <rect id="Rectángulo_30479" data-name="Rectángulo 30479" width="6.443" height="1.856" fill="#263238"/>
                  </g>
                  <g id="Grupo_82767" data-name="Grupo 82767" transform="translate(0.327 61.384)">
                    <rect id="Rectángulo_30480" data-name="Rectángulo 30480" width="6.443" height="1.856" fill="#263238"/>
                  </g>
                  <g id="Grupo_82769" data-name="Grupo 82769" transform="translate(9.583)">
                    <g id="Grupo_82768" data-name="Grupo 82768">
                      <path id="Trazado_139941" data-name="Trazado 139941" d="M402.668,221.458s-.234.015-.69.023l-2.028.022-7.8.042-28.67.071-94.589.065-22.416,0h-.219v-.219c.03-31.634.056-59.472.074-79.415.028-9.958.051-17.942.066-23.451.016-2.739.029-4.861.038-6.313.009-.71.015-1.254.02-1.634s.02-.556.02-.556.014.188.021.556.011.924.02,1.634c.009,1.452.021,3.573.038,6.313.015,5.509.038,13.493.066,23.451.019,19.943.045,47.781.075,79.415l-.219-.218,22.416,0,94.589.065,28.67.071,7.8.042,2.028.022C402.434,221.443,402.668,221.458,402.668,221.458Z" transform="translate(-246.261 -110.088)" fill="#263238"/>
                    </g>
                  </g>
                  <g id="Grupo_82771" data-name="Grupo 82771" transform="translate(16.035 62.09)">
                    <g id="Grupo_82770" data-name="Grupo 82770">
                      <path id="Trazado_139942" data-name="Trazado 139942" d="M405.6,183.112c0,.123-33.977.222-75.881.222-41.919,0-75.889-.1-75.889-.222s33.97-.222,75.889-.222C371.618,182.89,405.6,182.989,405.6,183.112Z" transform="translate(-253.825 -182.89)" fill="#263238"/>
                    </g>
                  </g>
                  <g id="Grupo_82773" data-name="Grupo 82773" transform="translate(16.035 38.756)">
                    <g id="Grupo_82772" data-name="Grupo 82772">
                      <path id="Trazado_139943" data-name="Trazado 139943" d="M405.6,155.752c0,.123-33.977.223-75.881.223-41.919,0-75.889-.1-75.889-.223s33.97-.222,75.889-.222C371.618,155.53,405.6,155.63,405.6,155.752Z" transform="translate(-253.825 -155.53)" fill="#263238"/>
                    </g>
                  </g>
                  <g id="Grupo_82775" data-name="Grupo 82775" transform="translate(16.035 15.304)">
                    <g id="Grupo_82774" data-name="Grupo 82774">
                      <path id="Trazado_139944" data-name="Trazado 139944" d="M405.6,128.254c0,.123-33.977.222-75.881.222-41.919,0-75.889-.1-75.889-.222s33.97-.222,75.889-.222C371.618,128.032,405.6,128.131,405.6,128.254Z" transform="translate(-253.825 -128.032)" fill="#263238"/>
                    </g>
                  </g>
                  <g id="Grupo_82777" data-name="Grupo 82777" transform="translate(16.035 85.424)">
                    <g id="Grupo_82776" data-name="Grupo 82776">
                      <path id="Trazado_139945" data-name="Trazado 139945" d="M405.6,210.472c0,.122-33.977.222-75.881.222-41.919,0-75.889-.1-75.889-.222s33.97-.223,75.889-.223C371.618,210.249,405.6,210.349,405.6,210.472Z" transform="translate(-253.825 -210.249)" fill="#263238"/>
                    </g>
                  </g>
                  <g id="Grupo_82778" data-name="Grupo 82778" transform="translate(17.6 1.721)">
                    <path id="Trazado_139946" data-name="Trazado 139946" d="M255.66,216.734v-20.7L268.563,176l8.756,6.718L295.292,154.8l10.6,7.465,14.748-25.755,11.982,9.761,17.972-34.165,19.356,38.185,15.669-19.106,18.433-5.275v90.823Z" transform="translate(-255.66 -112.106)" fill="#ff8578"/>
                  </g>
                </g>
                <g id="Grupo_82781" data-name="Grupo 82781" transform="translate(17.6 8.051)">
                  <g id="Grupo_82780" data-name="Grupo 82780">
                    <path id="Trazado_139947" data-name="Trazado 139947" d="M405.866,119.652s-.109.012-.325.017l-.96.017-3.741.032-14.145.058.1-.048-15.172,19.8-.053.068h-.087l-37.95.038.183-.1-15.958,26.562L302.093,192.13l-.166.276-.19-.261-20.566-28.26.3-.009L262.74,193.108l-5.214,8.087q-.9,1.378-1.379,2.113c-.314.476-.487.714-.487.714s.142-.258.441-.744l1.334-2.142,5.131-8.14,18.6-29.316.142-.223.157.215,20.619,28.221-.356.015,15.648-26.047,15.972-26.551.062-.1h.121l37.95.038-.139.068L386.6,119.577l.038-.049h.061l14.145.057,3.741.032.96.016C405.756,119.641,405.866,119.652,405.866,119.652Z" transform="translate(-255.66 -119.528)" fill="#263238"/>
                  </g>
                </g>
                <g id="Grupo_82782" data-name="Grupo 82782" transform="translate(46.565 57.535)">
                  <path id="Trazado_139948" data-name="Trazado 139948" d="M292.535,178.951a1.457,1.457,0,1,1-1.456-1.4A1.429,1.429,0,0,1,292.535,178.951Z" transform="translate(-289.623 -177.549)" fill="#263238"/>
                </g>
                <g id="Grupo_82783" data-name="Grupo 82783" transform="translate(90.339 32.655)">
                  <path id="Trazado_139949" data-name="Trazado 139949" d="M343.861,149.778a1.457,1.457,0,1,1-1.457-1.4A1.43,1.43,0,0,1,343.861,149.778Z" transform="translate(-340.948 -148.377)" fill="#263238"/>
                </g>
                <g id="Grupo_82784" data-name="Grupo 82784" transform="translate(124.369 26.542)">
                  <ellipse id="Elipse_4214" data-name="Elipse 4214" cx="1.456" cy="1.402" rx="1.456" ry="1.402" fill="#263238"/>
                </g>
              </g>
            </g>
          </g>
          <g id="Grupo_82791" data-name="Grupo 82791" transform="translate(6.046 5.595)">
            <g id="Grupo_82788" data-name="Grupo 82788">
              <path id="Trazado_139950" data-name="Trazado 139950" d="M208.863,74.771a1.691,1.691,0,1,1-1.691-1.691A1.691,1.691,0,0,1,208.863,74.771Z" transform="translate(-205.481 -73.08)" fill="#263238"/>
            </g>
            <g id="Grupo_82789" data-name="Grupo 82789" transform="translate(4.918)">
              <path id="Trazado_139951" data-name="Trazado 139951" d="M214.631,74.771a1.692,1.692,0,1,1-1.692-1.691A1.692,1.692,0,0,1,214.631,74.771Z" transform="translate(-211.248 -73.08)" fill="#263238"/>
            </g>
            <g id="Grupo_82790" data-name="Grupo 82790" transform="translate(9.838)">
              <path id="Trazado_139952" data-name="Trazado 139952" d="M220.4,74.771a1.691,1.691,0,1,1-1.691-1.691A1.691,1.691,0,0,1,220.4,74.771Z" transform="translate(-217.016 -73.08)" fill="#263238"/>
            </g>
          </g>
          <g id="Grupo_82795" data-name="Grupo 82795" transform="translate(0.494 13.721)">
            <g id="Grupo_82792" data-name="Grupo 82792" transform="translate(0 0.222)">
              <line id="Línea_1799" data-name="Línea 1799" x2="219.277" fill="#263238"/>
            </g>
            <g id="Grupo_82794" data-name="Grupo 82794">
              <g id="Grupo_82793" data-name="Grupo 82793">
                <path id="Trazado_139953" data-name="Trazado 139953" d="M418.248,82.831c0,.123-49.091.222-109.633.222-60.564,0-109.644-.1-109.644-.222s49.081-.223,109.644-.223C369.158,82.608,418.248,82.708,418.248,82.831Z" transform="translate(-198.971 -82.608)" fill="#263238"/>
              </g>
            </g>
          </g>
        </g>
      </g>
    </g>
    <g id="Grupo_166806" data-name="Grupo 166806" transform="matrix(0.883, -0.469, 0.469, 0.883, 969.249, 3523.629)">
      <g id="Grupo_77157" data-name="Grupo 77157" transform="translate(10.134)">
        <g id="Grupo_77156" data-name="Grupo 77156">
          <g id="Grupo_77155" data-name="Grupo 77155">
            <g id="Grupo_77154" data-name="Grupo 77154">
              <g id="Grupo_77153" data-name="Grupo 77153">
                <g id="Grupo_77152" data-name="Grupo 77152">
                  <g id="Grupo_77151" data-name="Grupo 77151">
                    <g id="Grupo_77146" data-name="Grupo 77146" transform="translate(0.726 0.26)">
                      <path id="Trazado_124127" data-name="Trazado 124127" d="M156.559,200.908a42.206,42.206,0,0,1,10.834,2.86l7.963-6.671,13.678,10.41-4.31,9.454a42.031,42.031,0,0,1,5.645,9.679l10.346.914,2.31,17.031-9.727,3.637a42.086,42.086,0,0,1-2.863,10.834l6.671,7.966L186.7,280.7l-9.454-4.307a42.123,42.123,0,0,1-9.682,5.642l-.911,10.346-17.034,2.313-3.637-9.73a42.132,42.132,0,0,1-10.834-2.863l-7.963,6.674-13.678-10.41,4.31-9.454a42.238,42.238,0,0,1-5.645-9.681l-10.343-.911-2.313-17.034,9.73-3.634a41.882,41.882,0,0,1,2.863-10.837l-6.674-7.963,10.408-13.678,9.456,4.31a42.177,42.177,0,0,1,9.681-5.645l.909-10.343,17.034-2.311,3.637,9.727Zm-6.993,23.649a18.439,18.439,0,1,0,20.751,15.793A18.439,18.439,0,0,0,149.566,224.557Z" transform="translate(-99.516 -191.181)" fill="url(#linear-gradient)"/>
                    </g>
                    <g id="Grupo_77148" data-name="Grupo 77148" transform="translate(34.21 33.25)">
                      <g id="Grupo_77147" data-name="Grupo 77147">
                        <path id="Trazado_124128" data-name="Trazado 124128" d="M128.575,203.875a3.573,3.573,0,0,1,1.161-.249,14.361,14.361,0,0,1,3.409-.072,18.351,18.351,0,0,1,11.306,5.2,18.965,18.965,0,0,1-.094,27.171,19.009,19.009,0,0,1-22.453,3.047,18.971,18.971,0,0,1-7.331-26.168,18.343,18.343,0,0,1,9.51-8.017,14.336,14.336,0,0,1,3.3-.839,3.643,3.643,0,0,1,1.187-.07c.03.158-1.614.319-4.275,1.447a18.388,18.388,0,0,0-8.813,8,17.944,17.944,0,0,0-.142,17.061,17.588,17.588,0,0,0,7.256,7.306,17.673,17.673,0,0,0,20.743-2.814,17.566,17.566,0,0,0,5.045-8.974,17.941,17.941,0,0,0-4.683-16.406,18.393,18.393,0,0,0-10.625-5.363C130.215,203.751,128.588,204.035,128.575,203.875Z" transform="translate(-112.008 -203.489)" fill="#344154"/>
                      </g>
                    </g>
                    <g id="Grupo_77150" data-name="Grupo 77150">
                      <g id="Grupo_77149" data-name="Grupo 77149">
                        <path id="Trazado_124129" data-name="Trazado 124129" d="M157.015,201.071a2.741,2.741,0,0,1-.273-.579L156,198.675l-2.844-7.248.255.153-17.015,2.447.327-.34c-.26,3.141-.547,6.623-.852,10.351l-.021.26-.247.1a41.889,41.889,0,0,0-9.548,5.626l-.233.183-.271-.124-9.472-4.27.641-.163q-4.9,6.481-10.362,13.71l-.019-.729c2.075,2.461,4.356,5.168,6.7,7.944l.241.284-.142.346a41.571,41.571,0,0,0-2.8,10.678l-.046.386-.367.136-9.719,3.656.426-.71c.734,5.35,1.528,11.118,2.34,17.028l-.625-.6c3.222.281,6.76.587,10.344.9l.426.037.166.4a41.782,41.782,0,0,0,5.559,9.51l.268.343-.18.4c-1.348,2.965-2.82,6.194-4.3,9.459l-.22-.882,13.683,10.4-.922.024c2.514-2.109,5.227-4.385,7.961-6.677l.346-.29.415.171a41.544,41.544,0,0,0,10.633,2.809h.008c.271.215-.6-.477.609.48l0,.008.008.022.013.037.029.075.056.153.115.308.228.611.456,1.225.914,2.439,1.809,4.849-.8-.474q8.636-1.17,17.036-2.305l-.635.665q.462-5.223.917-10.346l.04-.44.407-.169a41.518,41.518,0,0,0,9.521-5.541l.346-.268.394.182q4.8,2.191,9.451,4.318l-.86.217q5.343-7,10.429-13.662l.019.855q-3.389-4.061-6.658-7.977l-.26-.311.155-.373a41.52,41.52,0,0,0,2.838-10.66l.051-.389.365-.134,9.735-3.613-.4.662c-.8-5.993-1.547-11.652-2.26-17.039l.512.49c-3.635-.332-7.049-.643-10.341-.946l-.324-.03-.123-.3a41.667,41.667,0,0,0-5.538-9.585l-.182-.238.123-.266c1.581-3.426,3.007-6.513,4.353-9.432l.134.531c-5.267-4.058-9.759-7.521-13.613-10.494l.418-.011c-3.2,2.629-5.824,4.793-8.025,6.6l-.113.094-.131-.056a44.536,44.536,0,0,0-8.022-2.525c-.855-.169-1.525-.3-2.045-.4a2.909,2.909,0,0,1-.675-.153,3.862,3.862,0,0,1,.694.029c.458.048,1.153.129,2.072.287a40.147,40.147,0,0,1,8.159,2.324l-.244.037L175.6,197l.2-.171.214.164c3.892,2.922,8.427,6.331,13.742,10.325l.279.209-.145.324c-1.319,2.932-2.715,6.033-4.264,9.472l-.059-.5a42.569,42.569,0,0,1,5.752,9.775l-.445-.327,10.349.876.453.038.062.453c.745,5.385,1.528,11.038,2.359,17.026l.067.491-.464.174c-3.157,1.187-6.387,2.4-9.719,3.659l.413-.522a42.715,42.715,0,0,1-2.884,11.008l-.1-.681q3.281,3.9,6.685,7.95l.354.418-.332.437q-5.066,6.678-10.389,13.691l-.343.453-.517-.236-9.459-4.3.742-.086a42.853,42.853,0,0,1-9.845,5.749l.448-.611q-.446,5.122-.9,10.346l-.051.587-.584.08-17.034,2.316-.587.081-.209-.555q-.9-2.416-1.812-4.851l-.914-2.439L146.2,286.6l-.231-.614-.113-.305-.059-.153-.027-.078-.016-.038-.005-.019-.005-.011c1.209.954.335.265.6.477h-.008a42.931,42.931,0,0,1-11.014-2.911l.758-.118c-2.734,2.289-5.449,4.565-7.966,6.671l-.453.378-.469-.357c-4.7-3.584-9.344-7.122-13.672-10.419l-.464-.354.241-.531c1.49-3.262,2.967-6.489,4.321-9.448l.086.74a43.067,43.067,0,0,1-5.728-9.851l.59.432c-3.584-.322-7.122-.638-10.344-.925l-.552-.051-.072-.547c-.793-5.916-1.565-11.686-2.284-17.039l-.07-.525.5-.185,9.735-3.613-.413.52A42.683,42.683,0,0,1,112,226.741l.1.63c-2.326-2.79-4.594-5.511-6.653-7.982l-.3-.362.284-.37q5.5-7.18,10.453-13.643l.257-.34.383.177c3.313,1.525,6.495,2.994,9.438,4.348l-.5.059a42.685,42.685,0,0,1,9.813-5.661l-.268.365c.351-3.723.676-7.2.97-10.338l.029-.3.3-.04c6.923-.882,12.659-1.611,17.05-2.171l.193-.024.062.177q1.66,4.668,2.576,7.245c.265.78.477,1.4.646,1.892A3.845,3.845,0,0,1,157.015,201.071Z" transform="translate(-99.245 -191.084)" fill="#344154"/>
                      </g>
                    </g>
                  </g>
                </g>
              </g>
            </g>
          </g>
        </g>
      </g>
      <g id="Grupo_77169" data-name="Grupo 77169" transform="translate(0 118.651)">
        <g id="Grupo_77168" data-name="Grupo 77168">
          <g id="Grupo_77167" data-name="Grupo 77167">
            <g id="Grupo_77166" data-name="Grupo 77166">
              <g id="Grupo_77165" data-name="Grupo 77165">
                <g id="Grupo_77164" data-name="Grupo 77164">
                  <g id="Grupo_77163" data-name="Grupo 77163">
                    <g id="Grupo_77158" data-name="Grupo 77158" transform="translate(0.456 0.164)">
                      <path id="Trazado_124130" data-name="Trazado 124130" d="M131.46,241.52a26.556,26.556,0,0,1,6.8,1.8l5-4.189,8.588,6.537-2.7,5.937a26.55,26.55,0,0,1,3.546,6.079l6.5.573,1.45,10.7-6.109,2.284a26.471,26.471,0,0,1-1.8,6.806l4.192,5-6.537,8.588-5.937-2.707a26.479,26.479,0,0,1-6.082,3.546l-.571,6.5-10.7,1.453-2.281-6.111a26.481,26.481,0,0,1-6.805-1.8l-5,4.189-8.59-6.537,2.707-5.937a26.657,26.657,0,0,1-3.546-6.079l-6.494-.574-1.453-10.7,6.108-2.284a26.5,26.5,0,0,1,1.8-6.806l-4.192-5,6.537-8.588,5.94,2.707a26.344,26.344,0,0,1,6.079-3.546l.573-6.5,10.695-1.45,2.286,6.108Zm-4.393,14.852a11.581,11.581,0,1,0,13.032,9.92A11.585,11.585,0,0,0,127.066,256.372Z" transform="translate(-95.634 -235.412)" fill="none"/>
                    </g>
                    <g id="Grupo_77160" data-name="Grupo 77160" transform="translate(21.484 20.882)">
                      <g id="Grupo_77159" data-name="Grupo 77159">
                        <path id="Trazado_124131" data-name="Trazado 124131" d="M113.884,243.384a2.254,2.254,0,0,1,.729-.155,8.936,8.936,0,0,1,2.142-.046,11.526,11.526,0,0,1,7.1,3.262,11.914,11.914,0,0,1-.059,17.066,11.933,11.933,0,0,1-14.1,1.914,11.911,11.911,0,0,1-4.6-16.433,11.524,11.524,0,0,1,5.975-5.037,8.855,8.855,0,0,1,2.075-.525,2.223,2.223,0,0,1,.745-.046c.019.1-1.013.2-2.686.909a11.537,11.537,0,0,0-5.532,5.026,11.266,11.266,0,0,0-.091,10.713,11.049,11.049,0,0,0,4.557,4.589,11.1,11.1,0,0,0,13.029-1.769,11.061,11.061,0,0,0,3.168-5.637,11.268,11.268,0,0,0-2.943-10.3,11.541,11.541,0,0,0-6.672-3.369C114.916,243.306,113.892,243.486,113.884,243.384Z" transform="translate(-103.479 -243.142)" fill="#263238"/>
                      </g>
                    </g>
                    <g id="Grupo_77162" data-name="Grupo 77162">
                      <g id="Grupo_77161" data-name="Grupo 77161">
                        <path id="Trazado_124132" data-name="Trazado 124132" d="M131.745,241.623a1.673,1.673,0,0,1-.174-.364l-.464-1.139q-.639-1.62-1.788-4.554l.161.1L118.794,237.2l.206-.214c-.164,1.973-.343,4.16-.536,6.5l-.013.164-.155.067a26.332,26.332,0,0,0-6,3.533l-.145.115-.172-.077-5.948-2.683.4-.1c-2.05,2.713-4.224,5.591-6.508,8.609l-.011-.459c1.3,1.547,2.734,3.246,4.205,4.991l.15.177-.091.22a26.09,26.09,0,0,0-1.753,6.706l-.03.241-.231.086c-1.892.713-3.978,1.5-6.1,2.3l.265-.448c.464,3.359.96,6.983,1.472,10.695l-.394-.375,6.5.566.268.021.1.249a26.254,26.254,0,0,0,3.492,5.972l.169.217-.113.249c-.847,1.86-1.769,3.889-2.7,5.94l-.139-.555c2.721,2.069,5.637,4.286,8.593,6.532l-.579.013,5-4.192.217-.182.263.11a26.069,26.069,0,0,0,6.677,1.764h.005c.169.134-.378-.3.381.3l0,.005.005.014.008.024.019.048.035.1.072.193.142.383.287.769.574,1.53c.38,1.019.761,2.037,1.136,3.048l-.5-.3q5.424-.736,10.7-1.447l-.4.418q.29-3.281.574-6.5l.027-.279.255-.1a26.006,26.006,0,0,0,5.98-3.479l.217-.169.249.115,5.934,2.713-.541.134q3.357-4.391,6.551-8.58l.011.539-4.181-5.01-.164-.2.1-.233a26.058,26.058,0,0,0,1.785-6.7l.029-.244.231-.086,6.114-2.267-.249.415c-.5-3.763-.97-7.317-1.421-10.7l.324.308-6.494-.595-.2-.019-.078-.188a26.243,26.243,0,0,0-3.479-6.02l-.113-.147.075-.169c.994-2.15,1.89-4.09,2.737-5.924l.083.335c-3.308-2.549-6.127-4.725-8.55-6.591l.263-.005-5.039,4.144-.072.059-.083-.035a27.749,27.749,0,0,0-5.036-1.584l-1.284-.255a1.678,1.678,0,0,1-.423-.1,2.418,2.418,0,0,1,.434.019c.289.03.724.081,1.3.18a25.292,25.292,0,0,1,5.122,1.458l-.153.024c1.362-1.16,2.986-2.549,4.961-4.235l.129-.107.134.1,8.631,6.484.174.131-.091.2c-.828,1.841-1.7,3.787-2.678,5.948l-.038-.314a26.737,26.737,0,0,1,3.613,6.138l-.279-.2,6.5.549.284.024.04.284c.469,3.38.96,6.931,1.482,10.692l.04.308-.29.11-6.106,2.3.26-.327a26.721,26.721,0,0,1-1.812,6.913l-.064-.429q2.063,2.453,4.2,4.994l.22.263-.209.276q-3.18,4.193-6.524,8.6l-.214.281-.324-.148q-2.931-1.331-5.94-2.7l.464-.053a26.933,26.933,0,0,1-6.181,3.61l.279-.383q-.277,3.216-.566,6.5l-.032.367-.367.051q-5.275.715-10.7,1.456l-.37.051-.131-.348c-.378-1.013-.758-2.026-1.139-3.048l-.571-1.531-.287-.769-.145-.386-.072-.19-.035-.1-.019-.048-.008-.024-.005-.011,0-.008c.759.6.209.166.378.3h0a26.942,26.942,0,0,1-6.918-1.828l.477-.075c-1.718,1.44-3.423,2.866-5,4.19l-.284.239-.295-.225-8.585-6.543-.292-.223.15-.332c.938-2.048,1.866-4.077,2.715-5.934l.054.464a26.9,26.9,0,0,1-3.6-6.186l.37.273c-2.251-.2-4.473-.4-6.494-.582l-.349-.032-.046-.343c-.5-3.715-.984-7.339-1.434-10.7l-.043-.332.311-.115,6.114-2.27-.26.33a26.9,26.9,0,0,1,1.841-6.9l.062.4c-1.461-1.753-2.884-3.46-4.179-5.012l-.188-.228.177-.233q3.453-4.507,6.564-8.566l.163-.215.241.112,5.926,2.729-.316.037a26.727,26.727,0,0,1,6.165-3.554l-.169.228.608-6.492.019-.193.188-.024,10.708-1.362.121-.016.038.11q1.045,2.935,1.619,4.551l.4,1.188A2.53,2.53,0,0,1,131.745,241.623Z" transform="translate(-95.464 -235.351)" fill="#263238"/>
                      </g>
                    </g>
                  </g>
                </g>
              </g>
            </g>
          </g>
        </g>
      </g>
    </g>
  </g>
</svg>
