<svg xmlns="http://www.w3.org/2000/svg" width="190" height="81" viewBox="0 0 190 81">
  <g id="Grupo_171247" data-name="Grupo 171247" transform="translate(-894 -2766)">
    <path id="Trazado_205200" data-name="Trazado 205200" d="M10,0H180a10,10,0,0,1,10,10V71a10,10,0,0,1-10,10H10A10,10,0,0,1,0,71V10A10,10,0,0,1,10,0Z" transform="translate(894 2766)" fill="#a4a3ff"/>
    <path id="Trazado_205204" data-name="Trazado 205204" d="M10.661-12.8v8.552a4.156,4.156,0,0,1-1.305,3.23A4.958,4.958,0,0,1,5.88.176,4.993,4.993,0,0,1,2.391-1,4.176,4.176,0,0,1,1.1-4.254V-12.8H3.313v8.561a2.719,2.719,0,0,0,.65,1.96A2.537,2.537,0,0,0,5.88-1.6q2.566,0,2.566-2.707V-12.8Zm3.5,10.547a1.22,1.22,0,0,1,.923.338,1.175,1.175,0,0,1,.325.848,1.134,1.134,0,0,1-.325.831,1.238,1.238,0,0,1-.923.33,1.242,1.242,0,0,1-.905-.325,1.115,1.115,0,0,1-.334-.835,1.175,1.175,0,0,1,.325-.848A1.208,1.208,0,0,1,14.159-2.25ZM34.576-6.855H27V-8.631h7.576Zm0,3.727H27V-4.9h7.576Zm12.56,2.2A3.312,3.312,0,0,1,44.464.176a2.952,2.952,0,0,1-2.342-.905,3.851,3.851,0,0,1-.8-2.619V-9.51h2.136v6.135q0,1.811,1.5,1.811a2.111,2.111,0,0,0,2.1-1.116V-9.51H49.2V0H47.188Z" transform="translate(959.32 2793)" fill="#fff"/>
    <path id="Trazado_205202" data-name="Trazado 205202" d="M10.107-7.787H7.761A4.2,4.2,0,0,1,9.4-4.3a4.9,4.9,0,0,1-.536,2.285A3.92,3.92,0,0,1,7.348-.4,4.344,4.344,0,0,1,5.1.176,4.086,4.086,0,0,1,1.916-1.143a5.152,5.152,0,0,1-1.2-3.595v-.105A4.779,4.779,0,0,1,1.9-8.213a4.114,4.114,0,0,1,3.138-1.3h5.071ZM2.856-4.658a3.933,3.933,0,0,0,.584,2.307A1.913,1.913,0,0,0,5.1-1.529a1.824,1.824,0,0,0,1.6-.826A4.423,4.423,0,0,0,7.26-4.843,3.587,3.587,0,0,0,6.684-7a1.875,1.875,0,0,0-1.6-.787,1.942,1.942,0,0,0-1.63.773A3.851,3.851,0,0,0,2.856-4.658Zm29.707-2.2H24.987V-8.631h7.576Zm0,3.727H24.987V-4.9h7.576Z" transform="translate(959.32 2818)" fill="#fff"/>
    <path id="Trazado_205203" data-name="Trazado 205203" d="M10.107-7.787H7.761A4.2,4.2,0,0,1,9.4-4.3a4.9,4.9,0,0,1-.536,2.285A3.92,3.92,0,0,1,7.348-.4,4.344,4.344,0,0,1,5.1.176,4.086,4.086,0,0,1,1.916-1.143a5.152,5.152,0,0,1-1.2-3.595v-.105A4.779,4.779,0,0,1,1.9-8.213a4.114,4.114,0,0,1,3.138-1.3h5.071ZM2.856-4.658a3.933,3.933,0,0,0,.584,2.307A1.913,1.913,0,0,0,5.1-1.529a1.824,1.824,0,0,0,1.6-.826A4.423,4.423,0,0,0,7.26-4.843,3.587,3.587,0,0,0,6.684-7a1.875,1.875,0,0,0-1.6-.787,1.942,1.942,0,0,0-1.63.773A3.851,3.851,0,0,0,2.856-4.658Z" transform="translate(999.32 2818)" fill="#fff"/>
    <path id="Trazado_177499" data-name="Trazado 177499" d="M-8315.884,8036h24.243" transform="translate(9310.32 -5215)" fill="#fff" stroke="#fff" stroke-width="1"/>
    <path id="Trazado_177500" data-name="Trazado 177500" d="M-8312.862,8041l5.111,9.084,3.25-12.42h15.659" transform="translate(9306.299 -5212.664)" fill="none" stroke="#fff" stroke-linecap="round" stroke-width="1"/>
    <path id="Trazado_205201" data-name="Trazado 205201" d="M3.076-9.51l.062,1.1A3.419,3.419,0,0,1,5.906-9.686q2.971,0,3.023,3.4V0H6.794V-6.161A1.958,1.958,0,0,0,6.4-7.5a1.645,1.645,0,0,0-1.279-.435A2.058,2.058,0,0,0,3.2-6.768V0H1.063V-9.51Z" transform="translate(1005.32 2838)" fill="#fff"/>
    <g id="Grupo_171233" data-name="Grupo 171233">
      <text id="x" transform="translate(971.803 2798)" fill="#fff" font-size="11" font-family="Roboto-Medium, Roboto" font-weight="500"><tspan x="0" y="0">x</tspan></text>
      <path id="Trazado_205139" data-name="Trazado 205139" d="M-3801-11801.768h6.518" transform="translate(4772.803 14591)" fill="none" stroke="#fff" stroke-width="1"/>
    </g>
    <g id="Grupo_171234" data-name="Grupo 171234" transform="translate(0 23.5)">
      <text id="x-2" data-name="x" transform="translate(971.803 2798)" fill="#fff" font-size="11" font-family="Roboto-Medium, Roboto" font-weight="500"><tspan x="0" y="0">x</tspan></text>
      <path id="Trazado_205139-2" data-name="Trazado 205139" d="M-3801-11801.768h6.518" transform="translate(4772.803 14591)" fill="none" stroke="#fff" stroke-width="1"/>
    </g>
  </g>
</svg>
