<svg id="Grupo_156380" data-name="Grupo 156380" xmlns="http://www.w3.org/2000/svg" width="119.021" height="89.701" viewBox="0 0 119.021 89.701">
  <g id="Grupo_156205" data-name="Grupo 156205">
    <g id="Grupo_156176" data-name="Grupo 156176" transform="translate(0 16.392)">
      <path id="Trazado_196533" data-name="Trazado 196533" d="M846.986,209.03c0-25.566.3-47.829,0-71.83-35.82,0-71.822,1.041-107.911.662-.346,24.462,0,47.47,0,71.254Q793.179,209.116,846.986,209.03Z" transform="translate(-738.226 -136.504)" fill="#fff"/>
      <path id="Trazado_196534" data-name="Trazado 196534" d="M739.25,209.988a.7.7,0,0,1-.7-.7c0-7.929-.039-15.9-.076-23.616-.076-15.407-.154-31.338.076-47.648a.7.7,0,0,1,.7-.686h.007c20.845.219,41.984-.04,62.431-.291,14.919-.183,30.345-.372,45.473-.372a.7.7,0,0,1,.7.687c.2,15.835.135,30.815.068,46.675-.033,8.092-.068,16.46-.068,25.165a.7.7,0,0,1-.7.7c-17.921,0-36.17.021-53.818.043C775.626,209.966,757.307,209.988,739.25,209.988Zm.686-71.248c-.218,16.056-.142,31.747-.067,46.929.036,7.488.075,15.222.076,22.926,17.833,0,35.908-.021,53.395-.041,17.421-.021,35.427-.043,53.126-.043,0-8.457.035-16.6.068-24.476.065-15.623.126-30.394-.06-45.964-14.9.007-30.081.192-44.769.373C781.479,138.691,760.569,138.949,739.936,138.74Z" transform="translate(-738.401 -136.679)"/>
    </g>
    <g id="Grupo_156177" data-name="Grupo 156177" transform="translate(0.152 9.163)">
      <path id="Trazado_196535" data-name="Trazado 196535" d="M739.263,132.267c-.119,2.982-.091,5.813-.227,9.231,36.119.078,71.905.031,107.911-.084,0-3.085-.091-7.115-.091-9.622Z" transform="translate(-738.339 -131.096)" fill="#43a99b"/>
      <path id="Trazado_196536" data-name="Trazado 196536" d="M775.722,142.407c-12.538,0-24.674-.013-36.512-.039a.7.7,0,0,1-.7-.723c.071-1.758.1-3.362.123-4.912.024-1.476.047-2.869.106-4.319a.7.7,0,0,1,.693-.668l107.591-.475h0a.7.7,0,0,1,.7.7c0,1.186.021,2.714.043,4.32.024,1.806.049,3.675.049,5.3a.7.7,0,0,1-.694.7C821.709,142.367,798.081,142.407,775.722,142.407Zm-35.789-1.429c32.543.07,67.394.04,106.492-.083-.007-1.445-.028-3.04-.048-4.59-.019-1.313-.035-2.573-.041-3.639l-106.226.468c-.04,1.2-.06,2.382-.08,3.621C740.008,138.1,739.985,139.485,739.933,140.978Z" transform="translate(-738.515 -131.271)"/>
    </g>
    <g id="Grupo_156178" data-name="Grupo 156178" transform="translate(75.809 14.081)">
      <path id="Trazado_196537" data-name="Trazado 196537" d="M795.809,136.431a.7.7,0,0,1-.012-1.393l4.968-.088h.012a.7.7,0,0,1,.012,1.393l-4.967.088Z" transform="translate(-795.114 -134.95)"/>
    </g>
    <g id="Grupo_156179" data-name="Grupo 156179" transform="translate(86.798 14.169)">
      <path id="Trazado_196538" data-name="Trazado 196538" d="M804.031,136.5a.7.7,0,0,1-.012-1.392l4.967-.088H809a.7.7,0,0,1,.012,1.393l-4.969.087Z" transform="translate(-803.335 -135.016)"/>
    </g>
    <g id="Grupo_156180" data-name="Grupo 156180" transform="translate(97.434 13.991)">
      <path id="Trazado_196539" data-name="Trazado 196539" d="M811.987,136.363a.7.7,0,0,1-.012-1.392l4.969-.088h.012a.7.7,0,0,1,.012,1.393l-4.967.087Z" transform="translate(-811.292 -134.883)"/>
    </g>
    <g id="Grupo_156181" data-name="Grupo 156181" transform="translate(13.221 34.012)">
      <path id="Trazado_196540" data-name="Trazado 196540" d="M748.987,151.663a.7.7,0,0,1-.024-1.392l12.065-.41a.7.7,0,0,1,.719.671.7.7,0,0,1-.672.719l-12.064.41Z" transform="translate(-748.292 -149.861)"/>
    </g>
    <g id="Grupo_156182" data-name="Grupo 156182" transform="translate(13.886 48.045)">
      <path id="Trazado_196541" data-name="Trazado 196541" d="M749.484,162.162a.7.7,0,0,1-.017-1.393l16.151-.41h.017a.7.7,0,0,1,.017,1.391l-16.15.412Z" transform="translate(-748.789 -160.359)"/>
    </g>
    <g id="Grupo_156183" data-name="Grupo 156183" transform="translate(13.691 62.079)">
      <path id="Trazado_196542" data-name="Trazado 196542" d="M749.339,172.661a.7.7,0,0,1-.009-1.393l32.69-.41h.009a.7.7,0,0,1,.008,1.391l-32.69.412Z" transform="translate(-748.643 -170.858)"/>
    </g>
    <g id="Grupo_156184" data-name="Grupo 156184" transform="translate(13.886 74.632)">
      <path id="Trazado_196543" data-name="Trazado 196543" d="M749.485,182.051a.7.7,0,0,1-.005-1.391l57.339-.41h.005a.7.7,0,0,1,0,1.392l-57.339.41Z" transform="translate(-748.789 -180.249)"/>
    </g>
    <g id="Grupo_156200" data-name="Grupo 156200" transform="translate(37.055)">
      <g id="Grupo_156185" data-name="Grupo 156185" transform="translate(49.267 45.948)">
        <path id="Trazado_196544" data-name="Trazado 196544" d="M803.5,166.232l14.578,14.341a95.88,95.88,0,0,0,7.936,7.246c1.508,1.182,3.187,2.3,5.022,2.3a3.8,3.8,0,0,0,3.771-3.621c-.011-1.617-1.128-2.918-2.175-4.021Q821.027,170.236,808.41,159.3C806.871,161.556,805.331,163.811,803.5,166.232Z" transform="translate(-802.804 -158.618)" fill="#fff"/>
        <path id="Trazado_196545" data-name="Trazado 196545" d="M831.213,190.986h0c-2.045,0-3.828-1.176-5.45-2.446a96.6,96.6,0,0,1-7.995-7.3L803.188,166.9a.694.694,0,0,1-.067-.916c1.814-2.4,3.367-4.673,4.871-6.875a.733.733,0,0,1,.495-.313.713.713,0,0,1,.556.15c8.382,7.265,16.548,15.078,24.27,23.223,1.138,1.2,2.353,2.636,2.365,4.5a4.112,4.112,0,0,1-1.239,2.935A4.665,4.665,0,0,1,831.213,190.986ZM804.6,166.336l14.144,13.914a95.864,95.864,0,0,0,7.877,7.194c1.425,1.116,2.969,2.149,4.593,2.151h0a3.252,3.252,0,0,0,2.239-.974,2.736,2.736,0,0,0,.834-1.945c-.009-1.353-.985-2.494-1.984-3.548-7.51-7.921-15.44-15.527-23.582-22.616C807.43,162.4,806.1,164.321,804.6,166.336Z" transform="translate(-802.979 -158.79)"/>
      </g>
      <g id="Grupo_156187" data-name="Grupo 156187">
        <g id="Grupo_156186" data-name="Grupo 156186">
          <path id="Trazado_196546" data-name="Trazado 196546" d="M796.948,124.937a30.3,30.3,0,1,0,30.3,30.3A30.305,30.305,0,0,0,796.948,124.937Zm0,53.321a23.017,23.017,0,1,1,23.015-23.017A23.016,23.016,0,0,1,796.948,178.258Zm0,0a23.017,23.017,0,1,1,23.015-23.017A23.016,23.016,0,0,1,796.948,178.258Z" transform="translate(-765.947 -124.241)" fill="#fff"/>
          <path id="Trazado_196547" data-name="Trazado 196547" d="M797.123,186.418a31,31,0,1,1,31-31A31.036,31.036,0,0,1,797.123,186.418Zm0-60.61a29.609,29.609,0,1,0,29.608,29.609A29.643,29.643,0,0,0,797.123,125.808Zm0,53.322a23.713,23.713,0,1,1,23.712-23.713A23.74,23.74,0,0,1,797.123,179.13ZM774.8,155.417a22.321,22.321,0,1,0,22.322-22.32A22.345,22.345,0,0,0,774.8,155.417Z" transform="translate(-766.122 -124.416)"/>
        </g>
      </g>
      <g id="Grupo_156188" data-name="Grupo 156188" transform="translate(16.103 27.614)">
        <path id="Trazado_196548" data-name="Trazado 196548" d="M778.689,147.973a2.378,2.378,0,1,1,2.378,2.378A2.378,2.378,0,0,1,778.689,147.973Z" transform="translate(-777.994 -144.899)" fill="#fff"/>
        <path id="Trazado_196549" data-name="Trazado 196549" d="M781.242,151.222a3.074,3.074,0,1,1,3.074-3.073A3.076,3.076,0,0,1,781.242,151.222Zm0-4.756a1.682,1.682,0,1,0,1.683,1.683A1.685,1.685,0,0,0,781.242,146.466Z" transform="translate(-778.169 -145.074)"/>
      </g>
      <g id="Grupo_156189" data-name="Grupo 156189" transform="translate(27.618 27.614)">
        <circle id="Elipse_6032" data-name="Elipse 6032" cx="2.378" cy="2.378" r="2.378" transform="translate(0.696 0.696)" fill="#fff"/>
        <path id="Trazado_196550" data-name="Trazado 196550" d="M789.856,151.222a3.074,3.074,0,1,1,3.074-3.073A3.076,3.076,0,0,1,789.856,151.222Zm0-4.756a1.682,1.682,0,1,0,1.683,1.683A1.685,1.685,0,0,0,789.856,146.466Z" transform="translate(-786.783 -145.074)"/>
      </g>
      <g id="Grupo_156190" data-name="Grupo 156190" transform="translate(39.132 27.614)">
        <circle id="Elipse_6033" data-name="Elipse 6033" cx="2.378" cy="2.378" r="2.378" transform="translate(0.696 0.696)" fill="#fff"/>
        <path id="Trazado_196551" data-name="Trazado 196551" d="M798.471,151.222a3.074,3.074,0,1,1,3.073-3.073A3.077,3.077,0,0,1,798.471,151.222Zm0-4.756a1.682,1.682,0,1,0,1.682,1.683A1.685,1.685,0,0,0,798.471,146.466Z" transform="translate(-795.397 -145.074)"/>
      </g>
      <g id="Grupo_156191" data-name="Grupo 156191" transform="translate(53.638 52.1)">
        <path id="Trazado_196552" data-name="Trazado 196552" d="M806.482,165.723a.219.219,0,0,1-.064-.009.234.234,0,0,1-.159-.287l.535-1.865a.231.231,0,0,1,.445.127l-.533,1.866A.233.233,0,0,1,806.482,165.723Z" transform="translate(-806.249 -163.393)"/>
      </g>
      <g id="Grupo_156192" data-name="Grupo 156192" transform="translate(56.188 50.698)">
        <path id="Trazado_196553" data-name="Trazado 196553" d="M808.39,169.343h-.031a.234.234,0,0,1-.2-.261c.286-2.18.63-4.383,1.022-6.547a.233.233,0,1,1,.457.084c-.393,2.156-.735,4.351-1.019,6.523A.233.233,0,0,1,808.39,169.343Z" transform="translate(-808.157 -162.343)"/>
      </g>
      <g id="Grupo_156193" data-name="Grupo 156193" transform="translate(59.499 53.51)">
        <path id="Trazado_196554" data-name="Trazado 196554" d="M810.865,171.807a.232.232,0,0,1-.231-.233c0-1.089.167-2.918.315-4.53.091-.988.168-1.839.2-2.375a.232.232,0,1,1,.463.023c-.027.545-.106,1.4-.2,2.394-.147,1.6-.313,3.421-.313,4.489A.233.233,0,0,1,810.865,171.807Z" transform="translate(-810.634 -164.447)"/>
      </g>
      <g id="Grupo_156194" data-name="Grupo 156194" transform="translate(62.713 55.79)">
        <path id="Trazado_196555" data-name="Trazado 196555" d="M813.446,174.358a.233.233,0,0,1-.233-.227l-.175-7.74a.233.233,0,1,1,.465-.011l.174,7.74a.233.233,0,0,1-.226.238Z" transform="translate(-813.038 -166.153)"/>
      </g>
      <g id="Grupo_156195" data-name="Grupo 156195" transform="translate(65.81 58.848)">
        <path id="Trazado_196556" data-name="Trazado 196556" d="M815.891,177.009a.233.233,0,0,1-.233-.223l-.3-8.1a.234.234,0,0,1,.223-.241.242.242,0,0,1,.241.223l.3,8.106a.233.233,0,0,1-.225.239Z" transform="translate(-815.355 -168.441)"/>
      </g>
      <g id="Grupo_156196" data-name="Grupo 156196" transform="translate(68.986 62.267)">
        <path id="Trazado_196557" data-name="Trazado 196557" d="M818.373,179.034a.232.232,0,0,1-.231-.219l-.41-7.571a.234.234,0,0,1,.219-.245.226.226,0,0,1,.245.219l.41,7.571a.232.232,0,0,1-.219.245Z" transform="translate(-817.731 -170.999)"/>
      </g>
      <g id="Grupo_156197" data-name="Grupo 156197" transform="translate(72.078 65.134)">
        <path id="Trazado_196558" data-name="Trazado 196558" d="M820.845,180.98a.232.232,0,0,1-.231-.214l-.568-7.372a.231.231,0,0,1,.461-.036l.569,7.372a.231.231,0,0,1-.214.249Z" transform="translate(-820.044 -173.143)"/>
      </g>
      <g id="Grupo_156198" data-name="Grupo 156198" transform="translate(75.059 68.438)">
        <path id="Trazado_196559" data-name="Trazado 196559" d="M823.17,182.544a.232.232,0,0,1-.23-.208l-.664-6.466a.231.231,0,0,1,.207-.254.24.24,0,0,1,.254.207l.664,6.466a.231.231,0,0,1-.207.254Z" transform="translate(-822.274 -175.615)"/>
      </g>
      <g id="Grupo_156199" data-name="Grupo 156199" transform="translate(78.269 71.67)">
        <path id="Trazado_196560" data-name="Trazado 196560" d="M825.374,181.387a.233.233,0,0,1-.229-.2l-.466-2.889a.231.231,0,0,1,.191-.266.228.228,0,0,1,.266.191l.468,2.889a.232.232,0,0,1-.193.266A.179.179,0,0,1,825.374,181.387Z" transform="translate(-824.676 -178.033)"/>
      </g>
    </g>
    <g id="Grupo_156201" data-name="Grupo 156201" transform="translate(1 19.12)" opacity="0.129">
      <path id="Trazado_196561" data-name="Trazado 196561" d="M776.976,139.139c-.782-.461-1.715-.122-2.568-.142-3.562-.043-7.127-.334-10.7-.267-4.044.048-8.082.413-12.127.258-2.309-.1-4.62-.017-6.928-.072-.888-.021-1.775-.025-2.663-.02a4.343,4.343,0,0,0-1.736.16,1.829,1.829,0,0,0,.706,3.508c5.855.027,11.7.475,17.558.346,5.832-.251,11.681.019,17.5-.4l.044-.005a2,2,0,0,0,1.274-.528A1.823,1.823,0,0,0,776.976,139.139Z" transform="translate(-739.149 -138.72)"/>
    </g>
    <g id="Grupo_156202" data-name="Grupo 156202" transform="translate(96.061 18.886)" opacity="0.129">
      <path id="Trazado_196562" data-name="Trazado 196562" d="M822.552,138.772a1.8,1.8,0,0,0-1.443-.138c.036-.016.051-.023.016-.011-.378.061-.758.115-1.132.2l-.095.011c-2.3.008-4.6-.213-6.9-.136-.769-.005-1.645-.11-2.219.515a1.783,1.783,0,0,0,1.25,3.02c1.978-.142,3.955-.156,5.936-.124,1.623-.126,1.285-.144,2.459-.207.365,0,.729-.043,1.094-.063.012,0,.012,0,0,0a1.654,1.654,0,0,0,1.2-.362A1.635,1.635,0,0,0,822.552,138.772Z" transform="translate(-810.265 -138.545)"/>
    </g>
    <g id="Grupo_156203" data-name="Grupo 156203" transform="translate(45.073 28.325)" opacity="0.129">
      <path id="Trazado_196563" data-name="Trazado 196563" d="M802.142,169.832c.763-.258,1.533-.511,2.294-.789,1.636-.924,3.236-1.91,4.765-2.97a28.018,28.018,0,0,0,3.864-3.506,20.968,20.968,0,0,0,1.4-1.581,1.534,1.534,0,0,0-1.349.116,30.66,30.66,0,0,1-6.375,3.854,18.008,18.008,0,0,1-6.173,1.758c-4.16.6-11.818-.754-16.118-3.173a23.119,23.119,0,0,1-3.723-2.322q-1.017-.822-1.946-1.743c-.263-.215-1-1.08-1.283-1.4a45.612,45.612,0,0,1-4.168-8.6,26.788,26.788,0,0,1-.8-2.585,7.942,7.942,0,0,0-.372-1.285,25.768,25.768,0,0,0,.345,5.9,38.9,38.9,0,0,0,1.7,6.012c.2.352.412.7.615,1.043a34.642,34.642,0,0,0,5.567,7.2,27.436,27.436,0,0,0,4.872,2.441,35.661,35.661,0,0,0,10.421,2.441,22.14,22.14,0,0,0,3.915.019Q800.871,170.259,802.142,169.832Z" transform="translate(-772.12 -145.606)"/>
    </g>
    <g id="Grupo_156204" data-name="Grupo 156204" transform="translate(86.009 48.111)" opacity="0.129">
      <path id="Trazado_196564" data-name="Trazado 196564" d="M826.287,186.839a1.637,1.637,0,0,0-.631-.614l-.015-.015.019.008a.253.253,0,0,0-.032-.02c-.159-.154-.56-.516-.7-.668-2.331-2.35-4.97-4.354-7.425-6.563-1.787-1.66-3.29-3.6-5.154-5.181-1.941-1.668-3.521-3.7-5.422-5.4a1.823,1.823,0,0,0,.4-.176,13.41,13.41,0,0,0,3.151-2.862c.342-.4.719-.771,1.052-1.18a2.259,2.259,0,0,0,.906-1.528,1.934,1.934,0,0,0-1.4-2.151,2.084,2.084,0,0,0-2.473,1.418,26.886,26.886,0,0,1-2.942,2.873l-.208.144a1.916,1.916,0,0,0-.874,1.138,1.769,1.769,0,0,0-.072.512,1.212,1.212,0,0,0-.245-.025,1.485,1.485,0,0,0-1.041,2.514,41.4,41.4,0,0,1,5.591,5.487c2.013,2.052,3.919,4.209,5.943,6.25,1.611,1.547,3.406,2.879,5.081,4.354,1.232,1.043,2.379,2.179,3.561,3.278a1.368,1.368,0,0,0,.488.567A1.667,1.667,0,0,0,826.287,186.839Z" transform="translate(-802.745 -160.408)"/>
    </g>
  </g>
</svg>
